ISO-10303-21;
HEADER;
FILE_DESCRIPTION(('FreeCAD Model'),'2;1');
FILE_NAME('Open CASCADE Shape Model','2026-04-23T11:38:00',(''),(''),
  'Open CASCADE STEP processor 7.8','FreeCAD','Unknown');
FILE_SCHEMA(('AUTOMOTIVE_DESIGN { 1 0 10303 214 1 1 1 1 }'));
ENDSEC;
DATA;
#1 = APPLICATION_PROTOCOL_DEFINITION('international standard',
  'automotive_design',2000,#2);
#2 = APPLICATION_CONTEXT(
  'core data for automotive mechanical design processes');
#3 = SHAPE_DEFINITION_REPRESENTATION(#4,#10);
#4 = PRODUCT_DEFINITION_SHAPE('','',#5);
#5 = PRODUCT_DEFINITION('design','',#6,#9);
#6 = PRODUCT_DEFINITION_FORMATION('','',#7);
#7 = PRODUCT('Stirrup_bottom_piece','Stirrup_bottom_piece','',(#8));
#8 = PRODUCT_CONTEXT('',#2,'mechanical');
#9 = PRODUCT_DEFINITION_CONTEXT('part definition',#2,'design');
#10 = ADVANCED_BREP_SHAPE_REPRESENTATION('',(#11,#15),#2199);
#11 = AXIS2_PLACEMENT_3D('',#12,#13,#14);
#12 = CARTESIAN_POINT('',(0.,0.,0.));
#13 = DIRECTION('',(0.,0.,1.));
#14 = DIRECTION('',(1.,0.,-0.));
#15 = MANIFOLD_SOLID_BREP('',#16);
#16 = CLOSED_SHELL('',(#17,#97,#130,#161,#192,#217,#242,#259,#284,#309,
    #334,#359,#408,#513,#618,#643,#668,#685,#714,#743,#760,#777,#802,
    #827,#844,#875,#922,#947,#978,#1002,#1035,#1068,#1099,#1130,#1148,
    #1173,#1204,#1237,#1268,#1293,#1317,#1341,#1374,#1398,#1423,#1448,
    #1465,#1482,#1536,#1593,#1618,#1643,#1685,#1702,#1727,#1749,#1774,
    #1796,#1828,#1882,#1894,#1911,#1928,#1945,#1962,#1979,#1991,#2003,
    #2028,#2053,#2065,#2077,#2089,#2114,#2139,#2151,#2163,#2181));
#17 = ADVANCED_FACE('',(#18,#70,#81),#92,.T.);
#18 = FACE_BOUND('',#19,.T.);
#19 = EDGE_LOOP('',(#20,#30,#38,#47,#55,#64));
#20 = ORIENTED_EDGE('',*,*,#21,.F.);
#21 = EDGE_CURVE('',#22,#24,#26,.T.);
#22 = VERTEX_POINT('',#23);
#23 = CARTESIAN_POINT('',(119.5,-2.,-2.));
#24 = VERTEX_POINT('',#25);
#25 = CARTESIAN_POINT('',(0.5,-2.,-2.));
#26 = LINE('',#27,#28);
#27 = CARTESIAN_POINT('',(120.,-2.,-2.));
#28 = VECTOR('',#29,1.);
#29 = DIRECTION('',(-1.,-0.,-0.));
#30 = ORIENTED_EDGE('',*,*,#31,.F.);
#31 = EDGE_CURVE('',#32,#22,#34,.T.);
#32 = VERTEX_POINT('',#33);
#33 = CARTESIAN_POINT('',(119.5,-9.,-2.));
#34 = LINE('',#35,#36);
#35 = CARTESIAN_POINT('',(119.5,-9.,-2.));
#36 = VECTOR('',#37,1.);
#37 = DIRECTION('',(0.,1.,0.));
#38 = ORIENTED_EDGE('',*,*,#39,.F.);
#39 = EDGE_CURVE('',#40,#32,#42,.T.);
#40 = VERTEX_POINT('',#41);
#41 = CARTESIAN_POINT('',(117.,-11.5,-2.));
#42 = CIRCLE('',#43,2.5);
#43 = AXIS2_PLACEMENT_3D('',#44,#45,#46);
#44 = CARTESIAN_POINT('',(117.,-9.,-2.));
#45 = DIRECTION('',(-0.,0.,1.));
#46 = DIRECTION('',(0.,-1.,0.));
#47 = ORIENTED_EDGE('',*,*,#48,.F.);
#48 = EDGE_CURVE('',#49,#40,#51,.T.);
#49 = VERTEX_POINT('',#50);
#50 = CARTESIAN_POINT('',(3.,-11.5,-2.));
#51 = LINE('',#52,#53);
#52 = CARTESIAN_POINT('',(3.,-11.5,-2.));
#53 = VECTOR('',#54,1.);
#54 = DIRECTION('',(1.,0.,0.));
#55 = ORIENTED_EDGE('',*,*,#56,.F.);
#56 = EDGE_CURVE('',#57,#49,#59,.T.);
#57 = VERTEX_POINT('',#58);
#58 = CARTESIAN_POINT('',(0.5,-9.,-2.));
#59 = CIRCLE('',#60,2.5);
#60 = AXIS2_PLACEMENT_3D('',#61,#62,#63);
#61 = CARTESIAN_POINT('',(3.,-9.,-2.));
#62 = DIRECTION('',(0.,0.,1.));
#63 = DIRECTION('',(-1.,0.,0.));
#64 = ORIENTED_EDGE('',*,*,#65,.F.);
#65 = EDGE_CURVE('',#24,#57,#66,.T.);
#66 = LINE('',#67,#68);
#67 = CARTESIAN_POINT('',(0.5,-2.,-2.));
#68 = VECTOR('',#69,1.);
#69 = DIRECTION('',(0.,-1.,2.2E-16));
#70 = FACE_BOUND('',#71,.T.);
#71 = EDGE_LOOP('',(#72));
#72 = ORIENTED_EDGE('',*,*,#73,.F.);
#73 = EDGE_CURVE('',#74,#74,#76,.T.);
#74 = VERTEX_POINT('',#75);
#75 = CARTESIAN_POINT('',(96.500000000015,-6.,-2.));
#76 = CIRCLE('',#77,3.5);
#77 = AXIS2_PLACEMENT_3D('',#78,#79,#80);
#78 = CARTESIAN_POINT('',(100.00000000001,-6.,-2.));
#79 = DIRECTION('',(0.,0.,-1.));
#80 = DIRECTION('',(-1.,0.,0.));
#81 = FACE_BOUND('',#82,.T.);
#82 = EDGE_LOOP('',(#83));
#83 = ORIENTED_EDGE('',*,*,#84,.F.);
#84 = EDGE_CURVE('',#85,#85,#87,.T.);
#85 = VERTEX_POINT('',#86);
#86 = CARTESIAN_POINT('',(16.500000000015,-6.,-2.));
#87 = CIRCLE('',#88,3.5);
#88 = AXIS2_PLACEMENT_3D('',#89,#90,#91);
#89 = CARTESIAN_POINT('',(20.000000000015,-6.,-2.));
#90 = DIRECTION('',(0.,0.,-1.));
#91 = DIRECTION('',(-1.,0.,0.));
#92 = PLANE('',#93);
#93 = AXIS2_PLACEMENT_3D('',#94,#95,#96);
#94 = CARTESIAN_POINT('',(60.,-5.,-2.));
#95 = DIRECTION('',(-0.,-0.,-1.));
#96 = DIRECTION('',(-1.,0.,0.));
#97 = ADVANCED_FACE('',(#98),#125,.F.);
#98 = FACE_BOUND('',#99,.F.);
#99 = EDGE_LOOP('',(#100,#101,#110,#118));
#100 = ORIENTED_EDGE('',*,*,#21,.F.);
#101 = ORIENTED_EDGE('',*,*,#102,.T.);
#102 = EDGE_CURVE('',#22,#103,#105,.T.);
#103 = VERTEX_POINT('',#104);
#104 = CARTESIAN_POINT('',(119.5,-1.,-3.));
#105 = CIRCLE('',#106,1.);
#106 = AXIS2_PLACEMENT_3D('',#107,#108,#109);
#107 = CARTESIAN_POINT('',(119.5,-2.,-3.));
#108 = DIRECTION('',(-1.,0.,0.));
#109 = DIRECTION('',(0.,-2.2E-16,1.));
#110 = ORIENTED_EDGE('',*,*,#111,.T.);
#111 = EDGE_CURVE('',#103,#112,#114,.T.);
#112 = VERTEX_POINT('',#113);
#113 = CARTESIAN_POINT('',(0.5,-1.,-3.));
#114 = LINE('',#115,#116);
#115 = CARTESIAN_POINT('',(120.,-1.,-3.));
#116 = VECTOR('',#117,1.);
#117 = DIRECTION('',(-1.,-0.,-0.));
#118 = ORIENTED_EDGE('',*,*,#119,.T.);
#119 = EDGE_CURVE('',#112,#24,#120,.T.);
#120 = CIRCLE('',#121,1.);
#121 = AXIS2_PLACEMENT_3D('',#122,#123,#124);
#122 = CARTESIAN_POINT('',(0.5,-2.,-3.));
#123 = DIRECTION('',(1.,0.,0.));
#124 = DIRECTION('',(0.,1.,0.));
#125 = CYLINDRICAL_SURFACE('',#126,1.);
#126 = AXIS2_PLACEMENT_3D('',#127,#128,#129);
#127 = CARTESIAN_POINT('',(120.,-2.,-3.));
#128 = DIRECTION('',(-1.,-0.,-0.));
#129 = DIRECTION('',(0.,0.,1.));
#130 = ADVANCED_FACE('',(#131),#156,.T.);
#131 = FACE_BOUND('',#132,.T.);
#132 = EDGE_LOOP('',(#133,#141,#142,#150));
#133 = ORIENTED_EDGE('',*,*,#134,.F.);
#134 = EDGE_CURVE('',#32,#135,#137,.T.);
#135 = VERTEX_POINT('',#136);
#136 = CARTESIAN_POINT('',(120.,-9.,-1.5));
#137 = LINE('',#138,#139);
#138 = CARTESIAN_POINT('',(120.,-9.,-1.5));
#139 = VECTOR('',#140,1.);
#140 = DIRECTION('',(0.707106781187,-4.E-17,0.707106781187));
#141 = ORIENTED_EDGE('',*,*,#31,.T.);
#142 = ORIENTED_EDGE('',*,*,#143,.T.);
#143 = EDGE_CURVE('',#22,#144,#146,.T.);
#144 = VERTEX_POINT('',#145);
#145 = CARTESIAN_POINT('',(120.,-2.,-1.5));
#146 = LINE('',#147,#148);
#147 = CARTESIAN_POINT('',(119.75,-2.,-1.75));
#148 = VECTOR('',#149,1.);
#149 = DIRECTION('',(0.707106781187,0.,0.707106781187));
#150 = ORIENTED_EDGE('',*,*,#151,.F.);
#151 = EDGE_CURVE('',#135,#144,#152,.T.);
#152 = LINE('',#153,#154);
#153 = CARTESIAN_POINT('',(120.,-9.,-1.5));
#154 = VECTOR('',#155,1.);
#155 = DIRECTION('',(0.,1.,0.));
#156 = PLANE('',#157);
#157 = AXIS2_PLACEMENT_3D('',#158,#159,#160);
#158 = CARTESIAN_POINT('',(119.75,-9.,-1.75));
#159 = DIRECTION('',(0.707106781187,0.,-0.707106781187));
#160 = DIRECTION('',(0.,1.,0.));
#161 = ADVANCED_FACE('',(#162),#187,.T.);
#162 = FACE_BOUND('',#163,.T.);
#163 = EDGE_LOOP('',(#164,#172,#173,#181));
#164 = ORIENTED_EDGE('',*,*,#165,.F.);
#165 = EDGE_CURVE('',#24,#166,#168,.T.);
#166 = VERTEX_POINT('',#167);
#167 = CARTESIAN_POINT('',(0.,-2.,-1.5));
#168 = LINE('',#169,#170);
#169 = CARTESIAN_POINT('',(0.5,-2.,-2.));
#170 = VECTOR('',#171,1.);
#171 = DIRECTION('',(-0.707106781187,4.E-17,0.707106781187));
#172 = ORIENTED_EDGE('',*,*,#65,.T.);
#173 = ORIENTED_EDGE('',*,*,#174,.T.);
#174 = EDGE_CURVE('',#57,#175,#177,.T.);
#175 = VERTEX_POINT('',#176);
#176 = CARTESIAN_POINT('',(-1.E-15,-9.,-1.5));
#177 = LINE('',#178,#179);
#178 = CARTESIAN_POINT('',(0.25,-9.,-1.75));
#179 = VECTOR('',#180,1.);
#180 = DIRECTION('',(-0.707106781187,1.6E-16,0.707106781187));
#181 = ORIENTED_EDGE('',*,*,#182,.F.);
#182 = EDGE_CURVE('',#166,#175,#183,.T.);
#183 = LINE('',#184,#185);
#184 = CARTESIAN_POINT('',(0.,-2.,-1.5));
#185 = VECTOR('',#186,1.);
#186 = DIRECTION('',(0.,-1.,2.2E-16));
#187 = PLANE('',#188);
#188 = AXIS2_PLACEMENT_3D('',#189,#190,#191);
#189 = CARTESIAN_POINT('',(0.25,-2.,-1.75));
#190 = DIRECTION('',(-0.707106781187,-0.,-0.707106781187));
#191 = DIRECTION('',(-1.1E-16,-1.,1.1E-16));
#192 = ADVANCED_FACE('',(#193),#212,.T.);
#193 = FACE_BOUND('',#194,.T.);
#194 = EDGE_LOOP('',(#195,#203,#204,#205));
#195 = ORIENTED_EDGE('',*,*,#196,.F.);
#196 = EDGE_CURVE('',#40,#197,#199,.T.);
#197 = VERTEX_POINT('',#198);
#198 = CARTESIAN_POINT('',(117.,-12.,-1.5));
#199 = LINE('',#200,#201);
#200 = CARTESIAN_POINT('',(117.,-11.75,-1.75));
#201 = VECTOR('',#202,1.);
#202 = DIRECTION('',(0.,-0.707106781187,0.707106781187));
#203 = ORIENTED_EDGE('',*,*,#39,.T.);
#204 = ORIENTED_EDGE('',*,*,#134,.T.);
#205 = ORIENTED_EDGE('',*,*,#206,.F.);
#206 = EDGE_CURVE('',#197,#135,#207,.T.);
#207 = CIRCLE('',#208,3.);
#208 = AXIS2_PLACEMENT_3D('',#209,#210,#211);
#209 = CARTESIAN_POINT('',(117.,-9.,-1.5));
#210 = DIRECTION('',(-0.,0.,1.));
#211 = DIRECTION('',(0.,-1.,0.));
#212 = CONICAL_SURFACE('',#213,3.,0.785398163397);
#213 = AXIS2_PLACEMENT_3D('',#214,#215,#216);
#214 = CARTESIAN_POINT('',(117.,-9.,-1.5));
#215 = DIRECTION('',(0.,0.,1.));
#216 = DIRECTION('',(0.,-1.,0.));
#217 = ADVANCED_FACE('',(#218),#237,.T.);
#218 = FACE_BOUND('',#219,.T.);
#219 = EDGE_LOOP('',(#220,#221,#222,#230));
#220 = ORIENTED_EDGE('',*,*,#174,.F.);
#221 = ORIENTED_EDGE('',*,*,#56,.T.);
#222 = ORIENTED_EDGE('',*,*,#223,.T.);
#223 = EDGE_CURVE('',#49,#224,#226,.T.);
#224 = VERTEX_POINT('',#225);
#225 = CARTESIAN_POINT('',(3.,-12.,-1.5));
#226 = LINE('',#227,#228);
#227 = CARTESIAN_POINT('',(3.,-11.75,-1.75));
#228 = VECTOR('',#229,1.);
#229 = DIRECTION('',(0.,-0.707106781187,0.707106781187));
#230 = ORIENTED_EDGE('',*,*,#231,.F.);
#231 = EDGE_CURVE('',#175,#224,#232,.T.);
#232 = CIRCLE('',#233,3.);
#233 = AXIS2_PLACEMENT_3D('',#234,#235,#236);
#234 = CARTESIAN_POINT('',(3.,-9.,-1.5));
#235 = DIRECTION('',(0.,0.,1.));
#236 = DIRECTION('',(-1.,0.,0.));
#237 = CONICAL_SURFACE('',#238,3.,0.785398163397);
#238 = AXIS2_PLACEMENT_3D('',#239,#240,#241);
#239 = CARTESIAN_POINT('',(3.,-9.,-1.5));
#240 = DIRECTION('',(0.,0.,1.));
#241 = DIRECTION('',(-1.,0.,0.));
#242 = ADVANCED_FACE('',(#243),#254,.F.);
#243 = FACE_BOUND('',#244,.T.);
#244 = EDGE_LOOP('',(#245,#246,#247,#248));
#245 = ORIENTED_EDGE('',*,*,#223,.F.);
#246 = ORIENTED_EDGE('',*,*,#48,.T.);
#247 = ORIENTED_EDGE('',*,*,#196,.T.);
#248 = ORIENTED_EDGE('',*,*,#249,.F.);
#249 = EDGE_CURVE('',#224,#197,#250,.T.);
#250 = LINE('',#251,#252);
#251 = CARTESIAN_POINT('',(3.,-12.,-1.5));
#252 = VECTOR('',#253,1.);
#253 = DIRECTION('',(1.,0.,0.));
#254 = PLANE('',#255);
#255 = AXIS2_PLACEMENT_3D('',#256,#257,#258);
#256 = CARTESIAN_POINT('',(3.,-11.75,-1.75));
#257 = DIRECTION('',(0.,0.707106781187,0.707106781187));
#258 = DIRECTION('',(-1.,-0.,-0.));
#259 = ADVANCED_FACE('',(#260),#279,.F.);
#260 = FACE_BOUND('',#261,.T.);
#261 = EDGE_LOOP('',(#262,#270,#271,#272));
#262 = ORIENTED_EDGE('',*,*,#263,.F.);
#263 = EDGE_CURVE('',#74,#264,#266,.T.);
#264 = VERTEX_POINT('',#265);
#265 = CARTESIAN_POINT('',(96.500000000015,-6.,-1.));
#266 = LINE('',#267,#268);
#267 = CARTESIAN_POINT('',(96.500000000015,-6.,-2.));
#268 = VECTOR('',#269,1.);
#269 = DIRECTION('',(0.,0.,1.));
#270 = ORIENTED_EDGE('',*,*,#73,.T.);
#271 = ORIENTED_EDGE('',*,*,#263,.T.);
#272 = ORIENTED_EDGE('',*,*,#273,.F.);
#273 = EDGE_CURVE('',#264,#264,#274,.T.);
#274 = CIRCLE('',#275,3.5);
#275 = AXIS2_PLACEMENT_3D('',#276,#277,#278);
#276 = CARTESIAN_POINT('',(100.00000000001,-6.,-1.));
#277 = DIRECTION('',(0.,0.,-1.));
#278 = DIRECTION('',(-1.,0.,0.));
#279 = CYLINDRICAL_SURFACE('',#280,3.5);
#280 = AXIS2_PLACEMENT_3D('',#281,#282,#283);
#281 = CARTESIAN_POINT('',(100.00000000001,-6.,-2.));
#282 = DIRECTION('',(0.,0.,1.));
#283 = DIRECTION('',(-1.,0.,0.));
#284 = ADVANCED_FACE('',(#285),#304,.F.);
#285 = FACE_BOUND('',#286,.T.);
#286 = EDGE_LOOP('',(#287,#295,#296,#297));
#287 = ORIENTED_EDGE('',*,*,#288,.F.);
#288 = EDGE_CURVE('',#85,#289,#291,.T.);
#289 = VERTEX_POINT('',#290);
#290 = CARTESIAN_POINT('',(16.500000000015,-6.,-1.));
#291 = LINE('',#292,#293);
#292 = CARTESIAN_POINT('',(16.500000000015,-6.,-2.));
#293 = VECTOR('',#294,1.);
#294 = DIRECTION('',(0.,0.,1.));
#295 = ORIENTED_EDGE('',*,*,#84,.T.);
#296 = ORIENTED_EDGE('',*,*,#288,.T.);
#297 = ORIENTED_EDGE('',*,*,#298,.F.);
#298 = EDGE_CURVE('',#289,#289,#299,.T.);
#299 = CIRCLE('',#300,3.5);
#300 = AXIS2_PLACEMENT_3D('',#301,#302,#303);
#301 = CARTESIAN_POINT('',(20.000000000015,-6.,-1.));
#302 = DIRECTION('',(0.,0.,-1.));
#303 = DIRECTION('',(-1.,0.,0.));
#304 = CYLINDRICAL_SURFACE('',#305,3.5);
#305 = AXIS2_PLACEMENT_3D('',#306,#307,#308);
#306 = CARTESIAN_POINT('',(20.000000000015,-6.,-2.));
#307 = DIRECTION('',(0.,0.,1.));
#308 = DIRECTION('',(-1.,0.,0.));
#309 = ADVANCED_FACE('',(#310),#329,.F.);
#310 = FACE_BOUND('',#311,.T.);
#311 = EDGE_LOOP('',(#312,#313,#314,#322));
#312 = ORIENTED_EDGE('',*,*,#143,.F.);
#313 = ORIENTED_EDGE('',*,*,#102,.T.);
#314 = ORIENTED_EDGE('',*,*,#315,.T.);
#315 = EDGE_CURVE('',#103,#316,#318,.T.);
#316 = VERTEX_POINT('',#317);
#317 = CARTESIAN_POINT('',(120.,-0.5,-3.));
#318 = LINE('',#319,#320);
#319 = CARTESIAN_POINT('',(119.5,-1.,-3.));
#320 = VECTOR('',#321,1.);
#321 = DIRECTION('',(0.707106781187,0.707106781187,2.E-16));
#322 = ORIENTED_EDGE('',*,*,#323,.F.);
#323 = EDGE_CURVE('',#144,#316,#324,.T.);
#324 = CIRCLE('',#325,1.5);
#325 = AXIS2_PLACEMENT_3D('',#326,#327,#328);
#326 = CARTESIAN_POINT('',(120.,-2.,-3.));
#327 = DIRECTION('',(-1.,0.,0.));
#328 = DIRECTION('',(0.,-2.2E-16,1.));
#329 = CONICAL_SURFACE('',#330,1.,0.785398163397);
#330 = AXIS2_PLACEMENT_3D('',#331,#332,#333);
#331 = CARTESIAN_POINT('',(119.5,-2.,-3.));
#332 = DIRECTION('',(1.,0.,0.));
#333 = DIRECTION('',(0.,-2.2E-16,1.));
#334 = ADVANCED_FACE('',(#335),#354,.F.);
#335 = FACE_BOUND('',#336,.T.);
#336 = EDGE_LOOP('',(#337,#345,#346,#347));
#337 = ORIENTED_EDGE('',*,*,#338,.F.);
#338 = EDGE_CURVE('',#112,#339,#341,.T.);
#339 = VERTEX_POINT('',#340);
#340 = CARTESIAN_POINT('',(-0.,-0.5,-3.));
#341 = LINE('',#342,#343);
#342 = CARTESIAN_POINT('',(0.25,-0.75,-3.));
#343 = VECTOR('',#344,1.);
#344 = DIRECTION('',(-0.707106781187,0.707106781187,0.));
#345 = ORIENTED_EDGE('',*,*,#119,.T.);
#346 = ORIENTED_EDGE('',*,*,#165,.T.);
#347 = ORIENTED_EDGE('',*,*,#348,.F.);
#348 = EDGE_CURVE('',#339,#166,#349,.T.);
#349 = CIRCLE('',#350,1.5);
#350 = AXIS2_PLACEMENT_3D('',#351,#352,#353);
#351 = CARTESIAN_POINT('',(0.,-2.,-3.));
#352 = DIRECTION('',(1.,0.,0.));
#353 = DIRECTION('',(0.,1.,0.));
#354 = CONICAL_SURFACE('',#355,1.,0.785398163397);
#355 = AXIS2_PLACEMENT_3D('',#356,#357,#358);
#356 = CARTESIAN_POINT('',(0.5,-2.,-3.));
#357 = DIRECTION('',(-1.,-0.,-0.));
#358 = DIRECTION('',(0.,1.,0.));
#359 = ADVANCED_FACE('',(#360),#403,.F.);
#360 = FACE_BOUND('',#361,.F.);
#361 = EDGE_LOOP('',(#362,#363,#371,#380,#388,#397));
#362 = ORIENTED_EDGE('',*,*,#111,.F.);
#363 = ORIENTED_EDGE('',*,*,#364,.T.);
#364 = EDGE_CURVE('',#103,#365,#367,.T.);
#365 = VERTEX_POINT('',#366);
#366 = CARTESIAN_POINT('',(119.5,-1.,-4.));
#367 = LINE('',#368,#369);
#368 = CARTESIAN_POINT('',(119.5,-1.,-3.));
#369 = VECTOR('',#370,1.);
#370 = DIRECTION('',(-0.,-0.,-1.));
#371 = ORIENTED_EDGE('',*,*,#372,.T.);
#372 = EDGE_CURVE('',#365,#373,#375,.T.);
#373 = VERTEX_POINT('',#374);
#374 = CARTESIAN_POINT('',(117.,-1.,-6.5));
#375 = CIRCLE('',#376,2.5);
#376 = AXIS2_PLACEMENT_3D('',#377,#378,#379);
#377 = CARTESIAN_POINT('',(117.,-1.,-4.));
#378 = DIRECTION('',(-0.,1.,0.));
#379 = DIRECTION('',(1.,0.,3.E-16));
#380 = ORIENTED_EDGE('',*,*,#381,.T.);
#381 = EDGE_CURVE('',#373,#382,#384,.T.);
#382 = VERTEX_POINT('',#383);
#383 = CARTESIAN_POINT('',(3.,-1.,-6.5));
#384 = LINE('',#385,#386);
#385 = CARTESIAN_POINT('',(117.,-1.,-6.5));
#386 = VECTOR('',#387,1.);
#387 = DIRECTION('',(-1.,-0.,-0.));
#388 = ORIENTED_EDGE('',*,*,#389,.T.);
#389 = EDGE_CURVE('',#382,#390,#392,.T.);
#390 = VERTEX_POINT('',#391);
#391 = CARTESIAN_POINT('',(0.5,-1.,-4.));
#392 = CIRCLE('',#393,2.5);
#393 = AXIS2_PLACEMENT_3D('',#394,#395,#396);
#394 = CARTESIAN_POINT('',(3.,-1.,-4.));
#395 = DIRECTION('',(0.,1.,0.));
#396 = DIRECTION('',(-4.4E-16,0.,-1.));
#397 = ORIENTED_EDGE('',*,*,#398,.T.);
#398 = EDGE_CURVE('',#390,#112,#399,.T.);
#399 = LINE('',#400,#401);
#400 = CARTESIAN_POINT('',(0.5,-1.,-4.));
#401 = VECTOR('',#402,1.);
#402 = DIRECTION('',(0.,0.,1.));
#403 = PLANE('',#404);
#404 = AXIS2_PLACEMENT_3D('',#405,#406,#407);
#405 = CARTESIAN_POINT('',(120.,-1.,-7.));
#406 = DIRECTION('',(0.,1.,0.));
#407 = DIRECTION('',(0.,0.,1.));
#408 = ADVANCED_FACE('',(#409),#508,.T.);
#409 = FACE_BOUND('',#410,.T.);
#410 = EDGE_LOOP('',(#411,#419,#420,#421,#429,#437,#445,#453,#461,#470,
    #478,#486,#494,#502));
#411 = ORIENTED_EDGE('',*,*,#412,.F.);
#412 = EDGE_CURVE('',#135,#413,#415,.T.);
#413 = VERTEX_POINT('',#414);
#414 = CARTESIAN_POINT('',(120.,-9.,-0.5));
#415 = LINE('',#416,#417);
#416 = CARTESIAN_POINT('',(120.,-9.,-2.));
#417 = VECTOR('',#418,1.);
#418 = DIRECTION('',(0.,0.,1.));
#419 = ORIENTED_EDGE('',*,*,#151,.T.);
#420 = ORIENTED_EDGE('',*,*,#323,.T.);
#421 = ORIENTED_EDGE('',*,*,#422,.T.);
#422 = EDGE_CURVE('',#316,#423,#425,.T.);
#423 = VERTEX_POINT('',#424);
#424 = CARTESIAN_POINT('',(120.,-0.5,-4.));
#425 = LINE('',#426,#427);
#426 = CARTESIAN_POINT('',(120.,-0.5,-3.));
#427 = VECTOR('',#428,1.);
#428 = DIRECTION('',(-0.,-0.,-1.));
#429 = ORIENTED_EDGE('',*,*,#430,.F.);
#430 = EDGE_CURVE('',#431,#423,#433,.T.);
#431 = VERTEX_POINT('',#432);
#432 = CARTESIAN_POINT('',(120.,1.5,-4.));
#433 = LINE('',#434,#435);
#434 = CARTESIAN_POINT('',(120.,2.,-4.));
#435 = VECTOR('',#436,1.);
#436 = DIRECTION('',(0.,-1.,0.));
#437 = ORIENTED_EDGE('',*,*,#438,.F.);
#438 = EDGE_CURVE('',#439,#431,#441,.T.);
#439 = VERTEX_POINT('',#440);
#440 = CARTESIAN_POINT('',(120.,1.5,19.));
#441 = LINE('',#442,#443);
#442 = CARTESIAN_POINT('',(120.,1.5,19.));
#443 = VECTOR('',#444,1.);
#444 = DIRECTION('',(0.,0.,-1.));
#445 = ORIENTED_EDGE('',*,*,#446,.T.);
#446 = EDGE_CURVE('',#439,#447,#449,.T.);
#447 = VERTEX_POINT('',#448);
#448 = CARTESIAN_POINT('',(120.,-0.5,19.));
#449 = LINE('',#450,#451);
#450 = CARTESIAN_POINT('',(120.,2.,19.));
#451 = VECTOR('',#452,1.);
#452 = DIRECTION('',(0.,-1.,0.));
#453 = ORIENTED_EDGE('',*,*,#454,.F.);
#454 = EDGE_CURVE('',#455,#447,#457,.T.);
#455 = VERTEX_POINT('',#456);
#456 = CARTESIAN_POINT('',(120.,-0.5,18.));
#457 = LINE('',#458,#459);
#458 = CARTESIAN_POINT('',(120.,-0.5,18.));
#459 = VECTOR('',#460,1.);
#460 = DIRECTION('',(0.,0.,1.));
#461 = ORIENTED_EDGE('',*,*,#462,.F.);
#462 = EDGE_CURVE('',#463,#455,#465,.T.);
#463 = VERTEX_POINT('',#464);
#464 = CARTESIAN_POINT('',(120.,-2.,16.5));
#465 = CIRCLE('',#466,1.5);
#466 = AXIS2_PLACEMENT_3D('',#467,#468,#469);
#467 = CARTESIAN_POINT('',(120.,-2.,18.));
#468 = DIRECTION('',(1.,-0.,0.));
#469 = DIRECTION('',(0.,0.,-1.));
#470 = ORIENTED_EDGE('',*,*,#471,.F.);
#471 = EDGE_CURVE('',#472,#463,#474,.T.);
#472 = VERTEX_POINT('',#473);
#473 = CARTESIAN_POINT('',(120.,-9.,16.5));
#474 = LINE('',#475,#476);
#475 = CARTESIAN_POINT('',(120.,-9.,16.5));
#476 = VECTOR('',#477,1.);
#477 = DIRECTION('',(0.,1.,0.));
#478 = ORIENTED_EDGE('',*,*,#479,.T.);
#479 = EDGE_CURVE('',#472,#480,#482,.T.);
#480 = VERTEX_POINT('',#481);
#481 = CARTESIAN_POINT('',(120.,-9.,15.5));
#482 = LINE('',#483,#484);
#483 = CARTESIAN_POINT('',(120.,-9.,17.));
#484 = VECTOR('',#485,1.);
#485 = DIRECTION('',(0.,0.,-1.));
#486 = ORIENTED_EDGE('',*,*,#487,.F.);
#487 = EDGE_CURVE('',#488,#480,#490,.T.);
#488 = VERTEX_POINT('',#489);
#489 = CARTESIAN_POINT('',(120.,0.,15.5));
#490 = LINE('',#491,#492);
#491 = CARTESIAN_POINT('',(120.,3.44E-15,15.5));
#492 = VECTOR('',#493,1.);
#493 = DIRECTION('',(0.,-1.,2.2E-16));
#494 = ORIENTED_EDGE('',*,*,#495,.F.);
#495 = EDGE_CURVE('',#496,#488,#498,.T.);
#496 = VERTEX_POINT('',#497);
#497 = CARTESIAN_POINT('',(120.,0.,-0.5));
#498 = LINE('',#499,#500);
#499 = CARTESIAN_POINT('',(120.,0.,7.5));
#500 = VECTOR('',#501,1.);
#501 = DIRECTION('',(0.,0.,1.));
#502 = ORIENTED_EDGE('',*,*,#503,.T.);
#503 = EDGE_CURVE('',#496,#413,#504,.T.);
#504 = LINE('',#505,#506);
#505 = CARTESIAN_POINT('',(120.,-1.1E-16,-0.5));
#506 = VECTOR('',#507,1.);
#507 = DIRECTION('',(0.,-1.,2.2E-16));
#508 = PLANE('',#509);
#509 = AXIS2_PLACEMENT_3D('',#510,#511,#512);
#510 = CARTESIAN_POINT('',(120.,-2.581818181818,7.5));
#511 = DIRECTION('',(1.,0.,0.));
#512 = DIRECTION('',(0.,0.,1.));
#513 = ADVANCED_FACE('',(#514),#613,.T.);
#514 = FACE_BOUND('',#515,.T.);
#515 = EDGE_LOOP('',(#516,#526,#532,#533,#534,#542,#550,#558,#566,#574,
    #582,#591,#599,#607));
#516 = ORIENTED_EDGE('',*,*,#517,.T.);
#517 = EDGE_CURVE('',#518,#520,#522,.T.);
#518 = VERTEX_POINT('',#519);
#519 = CARTESIAN_POINT('',(0.,1.5,-4.));
#520 = VERTEX_POINT('',#521);
#521 = CARTESIAN_POINT('',(0.,-0.5,-4.));
#522 = LINE('',#523,#524);
#523 = CARTESIAN_POINT('',(-4.4E-16,2.,-4.));
#524 = VECTOR('',#525,1.);
#525 = DIRECTION('',(0.,-1.,0.));
#526 = ORIENTED_EDGE('',*,*,#527,.T.);
#527 = EDGE_CURVE('',#520,#339,#528,.T.);
#528 = LINE('',#529,#530);
#529 = CARTESIAN_POINT('',(0.,-0.5,-4.));
#530 = VECTOR('',#531,1.);
#531 = DIRECTION('',(0.,0.,1.));
#532 = ORIENTED_EDGE('',*,*,#348,.T.);
#533 = ORIENTED_EDGE('',*,*,#182,.T.);
#534 = ORIENTED_EDGE('',*,*,#535,.T.);
#535 = EDGE_CURVE('',#175,#536,#538,.T.);
#536 = VERTEX_POINT('',#537);
#537 = CARTESIAN_POINT('',(0.,-9.,-0.5));
#538 = LINE('',#539,#540);
#539 = CARTESIAN_POINT('',(-4.4E-16,-9.,-2.));
#540 = VECTOR('',#541,1.);
#541 = DIRECTION('',(0.,0.,1.));
#542 = ORIENTED_EDGE('',*,*,#543,.T.);
#543 = EDGE_CURVE('',#536,#544,#546,.T.);
#544 = VERTEX_POINT('',#545);
#545 = CARTESIAN_POINT('',(0.,0.,-0.5));
#546 = LINE('',#547,#548);
#547 = CARTESIAN_POINT('',(0.,-9.,-0.5));
#548 = VECTOR('',#549,1.);
#549 = DIRECTION('',(0.,1.,-2.2E-16));
#550 = ORIENTED_EDGE('',*,*,#551,.F.);
#551 = EDGE_CURVE('',#552,#544,#554,.T.);
#552 = VERTEX_POINT('',#553);
#553 = CARTESIAN_POINT('',(0.,0.,15.5));
#554 = LINE('',#555,#556);
#555 = CARTESIAN_POINT('',(0.,0.,7.5));
#556 = VECTOR('',#557,1.);
#557 = DIRECTION('',(-0.,-0.,-1.));
#558 = ORIENTED_EDGE('',*,*,#559,.F.);
#559 = EDGE_CURVE('',#560,#552,#562,.T.);
#560 = VERTEX_POINT('',#561);
#561 = CARTESIAN_POINT('',(0.,-9.,15.5));
#562 = LINE('',#563,#564);
#563 = CARTESIAN_POINT('',(0.,-9.,15.5));
#564 = VECTOR('',#565,1.);
#565 = DIRECTION('',(0.,1.,-2.2E-16));
#566 = ORIENTED_EDGE('',*,*,#567,.T.);
#567 = EDGE_CURVE('',#560,#568,#570,.T.);
#568 = VERTEX_POINT('',#569);
#569 = CARTESIAN_POINT('',(-1.E-15,-9.,16.5));
#570 = LINE('',#571,#572);
#571 = CARTESIAN_POINT('',(-4.4E-16,-9.,15.));
#572 = VECTOR('',#573,1.);
#573 = DIRECTION('',(0.,0.,1.));
#574 = ORIENTED_EDGE('',*,*,#575,.F.);
#575 = EDGE_CURVE('',#576,#568,#578,.T.);
#576 = VERTEX_POINT('',#577);
#577 = CARTESIAN_POINT('',(0.,-2.,16.5));
#578 = LINE('',#579,#580);
#579 = CARTESIAN_POINT('',(0.,-2.,16.5));
#580 = VECTOR('',#581,1.);
#581 = DIRECTION('',(0.,-1.,2.2E-16));
#582 = ORIENTED_EDGE('',*,*,#583,.F.);
#583 = EDGE_CURVE('',#584,#576,#586,.T.);
#584 = VERTEX_POINT('',#585);
#585 = CARTESIAN_POINT('',(0.,-0.5,18.));
#586 = CIRCLE('',#587,1.5);
#587 = AXIS2_PLACEMENT_3D('',#588,#589,#590);
#588 = CARTESIAN_POINT('',(0.,-2.,18.));
#589 = DIRECTION('',(-1.,0.,0.));
#590 = DIRECTION('',(0.,1.,0.));
#591 = ORIENTED_EDGE('',*,*,#592,.F.);
#592 = EDGE_CURVE('',#593,#584,#595,.T.);
#593 = VERTEX_POINT('',#594);
#594 = CARTESIAN_POINT('',(0.,-0.5,19.));
#595 = LINE('',#596,#597);
#596 = CARTESIAN_POINT('',(0.,-0.5,19.));
#597 = VECTOR('',#598,1.);
#598 = DIRECTION('',(0.,0.,-1.));
#599 = ORIENTED_EDGE('',*,*,#600,.F.);
#600 = EDGE_CURVE('',#601,#593,#603,.T.);
#601 = VERTEX_POINT('',#602);
#602 = CARTESIAN_POINT('',(0.,1.5,19.));
#603 = LINE('',#604,#605);
#604 = CARTESIAN_POINT('',(-4.4E-16,2.,19.));
#605 = VECTOR('',#606,1.);
#606 = DIRECTION('',(0.,-1.,0.));
#607 = ORIENTED_EDGE('',*,*,#608,.F.);
#608 = EDGE_CURVE('',#518,#601,#609,.T.);
#609 = LINE('',#610,#611);
#610 = CARTESIAN_POINT('',(0.,1.5,-4.));
#611 = VECTOR('',#612,1.);
#612 = DIRECTION('',(0.,0.,1.));
#613 = PLANE('',#614);
#614 = AXIS2_PLACEMENT_3D('',#615,#616,#617);
#615 = CARTESIAN_POINT('',(0.,-2.581818181818,7.5));
#616 = DIRECTION('',(-1.,-0.,-0.));
#617 = DIRECTION('',(0.,0.,-1.));
#618 = ADVANCED_FACE('',(#619),#638,.T.);
#619 = FACE_BOUND('',#620,.F.);
#620 = EDGE_LOOP('',(#621,#622,#623,#631));
#621 = ORIENTED_EDGE('',*,*,#412,.F.);
#622 = ORIENTED_EDGE('',*,*,#206,.F.);
#623 = ORIENTED_EDGE('',*,*,#624,.T.);
#624 = EDGE_CURVE('',#197,#625,#627,.T.);
#625 = VERTEX_POINT('',#626);
#626 = CARTESIAN_POINT('',(117.,-12.,-0.5));
#627 = LINE('',#628,#629);
#628 = CARTESIAN_POINT('',(117.,-12.,-2.));
#629 = VECTOR('',#630,1.);
#630 = DIRECTION('',(0.,0.,1.));
#631 = ORIENTED_EDGE('',*,*,#632,.F.);
#632 = EDGE_CURVE('',#413,#625,#633,.T.);
#633 = CIRCLE('',#634,3.);
#634 = AXIS2_PLACEMENT_3D('',#635,#636,#637);
#635 = CARTESIAN_POINT('',(117.,-9.,-0.5));
#636 = DIRECTION('',(0.,-2.2E-16,-1.));
#637 = DIRECTION('',(1.,0.,0.));
#638 = CYLINDRICAL_SURFACE('',#639,3.);
#639 = AXIS2_PLACEMENT_3D('',#640,#641,#642);
#640 = CARTESIAN_POINT('',(117.,-9.,-2.));
#641 = DIRECTION('',(0.,0.,1.));
#642 = DIRECTION('',(1.,0.,0.));
#643 = ADVANCED_FACE('',(#644),#663,.T.);
#644 = FACE_BOUND('',#645,.F.);
#645 = EDGE_LOOP('',(#646,#654,#655,#656));
#646 = ORIENTED_EDGE('',*,*,#647,.F.);
#647 = EDGE_CURVE('',#224,#648,#650,.T.);
#648 = VERTEX_POINT('',#649);
#649 = CARTESIAN_POINT('',(3.,-12.,-0.5));
#650 = LINE('',#651,#652);
#651 = CARTESIAN_POINT('',(3.,-12.,-2.));
#652 = VECTOR('',#653,1.);
#653 = DIRECTION('',(0.,0.,1.));
#654 = ORIENTED_EDGE('',*,*,#231,.F.);
#655 = ORIENTED_EDGE('',*,*,#535,.T.);
#656 = ORIENTED_EDGE('',*,*,#657,.F.);
#657 = EDGE_CURVE('',#648,#536,#658,.T.);
#658 = CIRCLE('',#659,3.);
#659 = AXIS2_PLACEMENT_3D('',#660,#661,#662);
#660 = CARTESIAN_POINT('',(3.,-9.,-0.5));
#661 = DIRECTION('',(0.,-2.2E-16,-1.));
#662 = DIRECTION('',(-1.5E-16,-1.,2.2E-16));
#663 = CYLINDRICAL_SURFACE('',#664,3.);
#664 = AXIS2_PLACEMENT_3D('',#665,#666,#667);
#665 = CARTESIAN_POINT('',(3.,-9.,-2.));
#666 = DIRECTION('',(0.,0.,1.));
#667 = DIRECTION('',(0.,-1.,0.));
#668 = ADVANCED_FACE('',(#669),#680,.F.);
#669 = FACE_BOUND('',#670,.F.);
#670 = EDGE_LOOP('',(#671,#672,#673,#674));
#671 = ORIENTED_EDGE('',*,*,#624,.F.);
#672 = ORIENTED_EDGE('',*,*,#249,.F.);
#673 = ORIENTED_EDGE('',*,*,#647,.T.);
#674 = ORIENTED_EDGE('',*,*,#675,.F.);
#675 = EDGE_CURVE('',#625,#648,#676,.T.);
#676 = LINE('',#677,#678);
#677 = CARTESIAN_POINT('',(117.,-12.,-0.5));
#678 = VECTOR('',#679,1.);
#679 = DIRECTION('',(-1.,0.,0.));
#680 = PLANE('',#681);
#681 = AXIS2_PLACEMENT_3D('',#682,#683,#684);
#682 = CARTESIAN_POINT('',(60.,-12.,7.5));
#683 = DIRECTION('',(0.,1.,0.));
#684 = DIRECTION('',(0.,0.,1.));
#685 = ADVANCED_FACE('',(#686,#689),#709,.T.);
#686 = FACE_BOUND('',#687,.T.);
#687 = EDGE_LOOP('',(#688));
#688 = ORIENTED_EDGE('',*,*,#273,.T.);
#689 = FACE_BOUND('',#690,.T.);
#690 = EDGE_LOOP('',(#691,#702));
#691 = ORIENTED_EDGE('',*,*,#692,.F.);
#692 = EDGE_CURVE('',#693,#695,#697,.T.);
#693 = VERTEX_POINT('',#694);
#694 = CARTESIAN_POINT('',(98.500000000015,-6.,-1.));
#695 = VERTEX_POINT('',#696);
#696 = CARTESIAN_POINT('',(101.50000000001,-6.,-1.));
#697 = CIRCLE('',#698,1.5);
#698 = AXIS2_PLACEMENT_3D('',#699,#700,#701);
#699 = CARTESIAN_POINT('',(100.00000000001,-6.,-1.));
#700 = DIRECTION('',(0.,0.,-1.));
#701 = DIRECTION('',(-1.,0.,0.));
#702 = ORIENTED_EDGE('',*,*,#703,.F.);
#703 = EDGE_CURVE('',#695,#693,#704,.T.);
#704 = CIRCLE('',#705,1.5);
#705 = AXIS2_PLACEMENT_3D('',#706,#707,#708);
#706 = CARTESIAN_POINT('',(100.00000000001,-6.,-1.));
#707 = DIRECTION('',(0.,0.,-1.));
#708 = DIRECTION('',(-1.,0.,0.));
#709 = PLANE('',#710);
#710 = AXIS2_PLACEMENT_3D('',#711,#712,#713);
#711 = CARTESIAN_POINT('',(100.00000000001,-6.,-1.));
#712 = DIRECTION('',(0.,0.,-1.));
#713 = DIRECTION('',(-1.,0.,0.));
#714 = ADVANCED_FACE('',(#715,#718),#738,.T.);
#715 = FACE_BOUND('',#716,.T.);
#716 = EDGE_LOOP('',(#717));
#717 = ORIENTED_EDGE('',*,*,#298,.T.);
#718 = FACE_BOUND('',#719,.T.);
#719 = EDGE_LOOP('',(#720,#731));
#720 = ORIENTED_EDGE('',*,*,#721,.F.);
#721 = EDGE_CURVE('',#722,#724,#726,.T.);
#722 = VERTEX_POINT('',#723);
#723 = CARTESIAN_POINT('',(18.500000000015,-6.,-1.));
#724 = VERTEX_POINT('',#725);
#725 = CARTESIAN_POINT('',(21.500000000015,-6.,-1.));
#726 = CIRCLE('',#727,1.5);
#727 = AXIS2_PLACEMENT_3D('',#728,#729,#730);
#728 = CARTESIAN_POINT('',(20.000000000015,-6.,-1.));
#729 = DIRECTION('',(0.,0.,-1.));
#730 = DIRECTION('',(-1.,0.,0.));
#731 = ORIENTED_EDGE('',*,*,#732,.F.);
#732 = EDGE_CURVE('',#724,#722,#733,.T.);
#733 = CIRCLE('',#734,1.5);
#734 = AXIS2_PLACEMENT_3D('',#735,#736,#737);
#735 = CARTESIAN_POINT('',(20.000000000015,-6.,-1.));
#736 = DIRECTION('',(0.,0.,-1.));
#737 = DIRECTION('',(-1.,0.,0.));
#738 = PLANE('',#739);
#739 = AXIS2_PLACEMENT_3D('',#740,#741,#742);
#740 = CARTESIAN_POINT('',(20.000000000015,-6.,-1.));
#741 = DIRECTION('',(0.,0.,-1.));
#742 = DIRECTION('',(-1.,0.,0.));
#743 = ADVANCED_FACE('',(#744),#755,.F.);
#744 = FACE_BOUND('',#745,.T.);
#745 = EDGE_LOOP('',(#746,#747,#748,#754));
#746 = ORIENTED_EDGE('',*,*,#315,.F.);
#747 = ORIENTED_EDGE('',*,*,#364,.T.);
#748 = ORIENTED_EDGE('',*,*,#749,.T.);
#749 = EDGE_CURVE('',#365,#423,#750,.T.);
#750 = LINE('',#751,#752);
#751 = CARTESIAN_POINT('',(119.75,-0.75,-4.));
#752 = VECTOR('',#753,1.);
#753 = DIRECTION('',(0.707106781187,0.707106781187,0.));
#754 = ORIENTED_EDGE('',*,*,#422,.F.);
#755 = PLANE('',#756);
#756 = AXIS2_PLACEMENT_3D('',#757,#758,#759);
#757 = CARTESIAN_POINT('',(119.75,-0.75,-3.));
#758 = DIRECTION('',(-0.707106781187,0.707106781187,0.));
#759 = DIRECTION('',(0.,0.,1.));
#760 = ADVANCED_FACE('',(#761),#772,.F.);
#761 = FACE_BOUND('',#762,.T.);
#762 = EDGE_LOOP('',(#763,#769,#770,#771));
#763 = ORIENTED_EDGE('',*,*,#764,.F.);
#764 = EDGE_CURVE('',#390,#520,#765,.T.);
#765 = LINE('',#766,#767);
#766 = CARTESIAN_POINT('',(0.,-0.5,-4.));
#767 = VECTOR('',#768,1.);
#768 = DIRECTION('',(-0.707106781187,0.707106781187,1.1E-16));
#769 = ORIENTED_EDGE('',*,*,#398,.T.);
#770 = ORIENTED_EDGE('',*,*,#338,.T.);
#771 = ORIENTED_EDGE('',*,*,#527,.F.);
#772 = PLANE('',#773);
#773 = AXIS2_PLACEMENT_3D('',#774,#775,#776);
#774 = CARTESIAN_POINT('',(0.25,-0.75,-4.));
#775 = DIRECTION('',(0.707106781187,0.707106781187,0.));
#776 = DIRECTION('',(-0.,-0.,-1.));
#777 = ADVANCED_FACE('',(#778),#797,.T.);
#778 = FACE_BOUND('',#779,.T.);
#779 = EDGE_LOOP('',(#780,#781,#782,#790));
#780 = ORIENTED_EDGE('',*,*,#749,.F.);
#781 = ORIENTED_EDGE('',*,*,#372,.T.);
#782 = ORIENTED_EDGE('',*,*,#783,.T.);
#783 = EDGE_CURVE('',#373,#784,#786,.T.);
#784 = VERTEX_POINT('',#785);
#785 = CARTESIAN_POINT('',(117.,-0.5,-7.));
#786 = LINE('',#787,#788);
#787 = CARTESIAN_POINT('',(117.,-0.5,-7.));
#788 = VECTOR('',#789,1.);
#789 = DIRECTION('',(2.5E-16,0.707106781187,-0.707106781187));
#790 = ORIENTED_EDGE('',*,*,#791,.F.);
#791 = EDGE_CURVE('',#423,#784,#792,.T.);
#792 = CIRCLE('',#793,3.);
#793 = AXIS2_PLACEMENT_3D('',#794,#795,#796);
#794 = CARTESIAN_POINT('',(117.,-0.5,-4.));
#795 = DIRECTION('',(-0.,1.,0.));
#796 = DIRECTION('',(1.,0.,3.E-16));
#797 = CONICAL_SURFACE('',#798,3.,0.785398163397);
#798 = AXIS2_PLACEMENT_3D('',#799,#800,#801);
#799 = CARTESIAN_POINT('',(117.,-0.5,-4.));
#800 = DIRECTION('',(0.,1.,0.));
#801 = DIRECTION('',(1.,0.,3.E-16));
#802 = ADVANCED_FACE('',(#803),#822,.T.);
#803 = FACE_BOUND('',#804,.T.);
#804 = EDGE_LOOP('',(#805,#813,#814,#815));
#805 = ORIENTED_EDGE('',*,*,#806,.F.);
#806 = EDGE_CURVE('',#382,#807,#809,.T.);
#807 = VERTEX_POINT('',#808);
#808 = CARTESIAN_POINT('',(3.,-0.5,-7.));
#809 = LINE('',#810,#811);
#810 = CARTESIAN_POINT('',(3.,-0.75,-6.75));
#811 = VECTOR('',#812,1.);
#812 = DIRECTION('',(0.,0.707106781187,-0.707106781187));
#813 = ORIENTED_EDGE('',*,*,#389,.T.);
#814 = ORIENTED_EDGE('',*,*,#764,.T.);
#815 = ORIENTED_EDGE('',*,*,#816,.F.);
#816 = EDGE_CURVE('',#807,#520,#817,.T.);
#817 = CIRCLE('',#818,3.);
#818 = AXIS2_PLACEMENT_3D('',#819,#820,#821);
#819 = CARTESIAN_POINT('',(3.,-0.5,-4.));
#820 = DIRECTION('',(0.,1.,0.));
#821 = DIRECTION('',(-4.4E-16,0.,-1.));
#822 = CONICAL_SURFACE('',#823,3.,0.785398163397);
#823 = AXIS2_PLACEMENT_3D('',#824,#825,#826);
#824 = CARTESIAN_POINT('',(3.,-0.5,-4.));
#825 = DIRECTION('',(0.,1.,0.));
#826 = DIRECTION('',(-4.4E-16,0.,-1.));
#827 = ADVANCED_FACE('',(#828),#839,.T.);
#828 = FACE_BOUND('',#829,.T.);
#829 = EDGE_LOOP('',(#830,#831,#832,#833));
#830 = ORIENTED_EDGE('',*,*,#783,.F.);
#831 = ORIENTED_EDGE('',*,*,#381,.T.);
#832 = ORIENTED_EDGE('',*,*,#806,.T.);
#833 = ORIENTED_EDGE('',*,*,#834,.F.);
#834 = EDGE_CURVE('',#784,#807,#835,.T.);
#835 = LINE('',#836,#837);
#836 = CARTESIAN_POINT('',(117.,-0.5,-7.));
#837 = VECTOR('',#838,1.);
#838 = DIRECTION('',(-1.,-0.,-0.));
#839 = PLANE('',#840);
#840 = AXIS2_PLACEMENT_3D('',#841,#842,#843);
#841 = CARTESIAN_POINT('',(117.,-0.75,-6.75));
#842 = DIRECTION('',(-0.,-0.707106781187,-0.707106781187));
#843 = DIRECTION('',(-1.,0.,0.));
#844 = ADVANCED_FACE('',(#845),#870,.F.);
#845 = FACE_BOUND('',#846,.F.);
#846 = EDGE_LOOP('',(#847,#855,#856,#864));
#847 = ORIENTED_EDGE('',*,*,#848,.F.);
#848 = EDGE_CURVE('',#496,#849,#851,.T.);
#849 = VERTEX_POINT('',#850);
#850 = CARTESIAN_POINT('',(119.5,0.,2.E-15));
#851 = LINE('',#852,#853);
#852 = CARTESIAN_POINT('',(102.875,0.,16.625));
#853 = VECTOR('',#854,1.);
#854 = DIRECTION('',(-0.707106781187,0.,0.707106781187));
#855 = ORIENTED_EDGE('',*,*,#503,.T.);
#856 = ORIENTED_EDGE('',*,*,#857,.T.);
#857 = EDGE_CURVE('',#413,#858,#860,.T.);
#858 = VERTEX_POINT('',#859);
#859 = CARTESIAN_POINT('',(119.5,-9.,4.E-15));
#860 = LINE('',#861,#862);
#861 = CARTESIAN_POINT('',(119.75,-9.,-0.25));
#862 = VECTOR('',#863,1.);
#863 = DIRECTION('',(-0.707106781187,1.6E-16,0.707106781187));
#864 = ORIENTED_EDGE('',*,*,#865,.F.);
#865 = EDGE_CURVE('',#849,#858,#866,.T.);
#866 = LINE('',#867,#868);
#867 = CARTESIAN_POINT('',(119.5,0.,1.6E-16));
#868 = VECTOR('',#869,1.);
#869 = DIRECTION('',(0.,-1.,2.2E-16));
#870 = PLANE('',#871);
#871 = AXIS2_PLACEMENT_3D('',#872,#873,#874);
#872 = CARTESIAN_POINT('',(119.75,-6.E-17,-0.25));
#873 = DIRECTION('',(-0.707106781187,-1.5E-16,-0.707106781187));
#874 = DIRECTION('',(-3.933982822018E-18,-1.,2.16066017178E-16));
#875 = ADVANCED_FACE('',(#876),#917,.T.);
#876 = FACE_BOUND('',#877,.T.);
#877 = EDGE_LOOP('',(#878,#888,#894,#895,#903,#909,#910,#911));
#878 = ORIENTED_EDGE('',*,*,#879,.T.);
#879 = EDGE_CURVE('',#880,#882,#884,.T.);
#880 = VERTEX_POINT('',#881);
#881 = CARTESIAN_POINT('',(119.5,0.,15.));
#882 = VERTEX_POINT('',#883);
#883 = CARTESIAN_POINT('',(0.5,0.,15.));
#884 = LINE('',#885,#886);
#885 = CARTESIAN_POINT('',(120.,0.,15.));
#886 = VECTOR('',#887,1.);
#887 = DIRECTION('',(-1.,0.,0.));
#888 = ORIENTED_EDGE('',*,*,#889,.F.);
#889 = EDGE_CURVE('',#552,#882,#890,.T.);
#890 = LINE('',#891,#892);
#891 = CARTESIAN_POINT('',(17.125,-1.E-15,-1.625));
#892 = VECTOR('',#893,1.);
#893 = DIRECTION('',(0.707106781187,0.,-0.707106781187));
#894 = ORIENTED_EDGE('',*,*,#551,.T.);
#895 = ORIENTED_EDGE('',*,*,#896,.T.);
#896 = EDGE_CURVE('',#544,#897,#899,.T.);
#897 = VERTEX_POINT('',#898);
#898 = CARTESIAN_POINT('',(0.5,0.,0.));
#899 = LINE('',#900,#901);
#900 = CARTESIAN_POINT('',(17.125,-1.E-15,16.625));
#901 = VECTOR('',#902,1.);
#902 = DIRECTION('',(0.707106781187,0.,0.707106781187));
#903 = ORIENTED_EDGE('',*,*,#904,.F.);
#904 = EDGE_CURVE('',#849,#897,#905,.T.);
#905 = LINE('',#906,#907);
#906 = CARTESIAN_POINT('',(120.,0.,0.));
#907 = VECTOR('',#908,1.);
#908 = DIRECTION('',(-1.,0.,0.));
#909 = ORIENTED_EDGE('',*,*,#848,.F.);
#910 = ORIENTED_EDGE('',*,*,#495,.T.);
#911 = ORIENTED_EDGE('',*,*,#912,.T.);
#912 = EDGE_CURVE('',#488,#880,#913,.T.);
#913 = LINE('',#914,#915);
#914 = CARTESIAN_POINT('',(102.875,0.,-1.625));
#915 = VECTOR('',#916,1.);
#916 = DIRECTION('',(-0.707106781187,0.,-0.707106781187));
#917 = PLANE('',#918);
#918 = AXIS2_PLACEMENT_3D('',#919,#920,#921);
#919 = CARTESIAN_POINT('',(60.,0.,7.5));
#920 = DIRECTION('',(-0.,-1.,-0.));
#921 = DIRECTION('',(0.,0.,-1.));
#922 = ADVANCED_FACE('',(#923),#942,.T.);
#923 = FACE_BOUND('',#924,.F.);
#924 = EDGE_LOOP('',(#925,#926,#935,#941));
#925 = ORIENTED_EDGE('',*,*,#430,.F.);
#926 = ORIENTED_EDGE('',*,*,#927,.T.);
#927 = EDGE_CURVE('',#431,#928,#930,.T.);
#928 = VERTEX_POINT('',#929);
#929 = CARTESIAN_POINT('',(117.,1.5,-7.));
#930 = CIRCLE('',#931,3.);
#931 = AXIS2_PLACEMENT_3D('',#932,#933,#934);
#932 = CARTESIAN_POINT('',(117.,1.5,-4.));
#933 = DIRECTION('',(-0.,1.,0.));
#934 = DIRECTION('',(1.,0.,0.));
#935 = ORIENTED_EDGE('',*,*,#936,.T.);
#936 = EDGE_CURVE('',#928,#784,#937,.T.);
#937 = LINE('',#938,#939);
#938 = CARTESIAN_POINT('',(117.,2.,-7.));
#939 = VECTOR('',#940,1.);
#940 = DIRECTION('',(0.,-1.,0.));
#941 = ORIENTED_EDGE('',*,*,#791,.F.);
#942 = CYLINDRICAL_SURFACE('',#943,3.);
#943 = AXIS2_PLACEMENT_3D('',#944,#945,#946);
#944 = CARTESIAN_POINT('',(117.,2.,-4.));
#945 = DIRECTION('',(0.,-1.,0.));
#946 = DIRECTION('',(1.,0.,0.));
#947 = ADVANCED_FACE('',(#948),#973,.T.);
#948 = FACE_BOUND('',#949,.T.);
#949 = EDGE_LOOP('',(#950,#958,#959,#967));
#950 = ORIENTED_EDGE('',*,*,#951,.F.);
#951 = EDGE_CURVE('',#439,#952,#954,.T.);
#952 = VERTEX_POINT('',#953);
#953 = CARTESIAN_POINT('',(119.5,2.,19.));
#954 = LINE('',#955,#956);
#955 = CARTESIAN_POINT('',(119.75,1.75,19.));
#956 = VECTOR('',#957,1.);
#957 = DIRECTION('',(-0.707106781187,0.707106781187,0.));
#958 = ORIENTED_EDGE('',*,*,#438,.T.);
#959 = ORIENTED_EDGE('',*,*,#960,.T.);
#960 = EDGE_CURVE('',#431,#961,#963,.T.);
#961 = VERTEX_POINT('',#962);
#962 = CARTESIAN_POINT('',(119.5,2.,-4.));
#963 = LINE('',#964,#965);
#964 = CARTESIAN_POINT('',(119.75,1.75,-4.));
#965 = VECTOR('',#966,1.);
#966 = DIRECTION('',(-0.707106781187,0.707106781187,0.));
#967 = ORIENTED_EDGE('',*,*,#968,.F.);
#968 = EDGE_CURVE('',#952,#961,#969,.T.);
#969 = LINE('',#970,#971);
#970 = CARTESIAN_POINT('',(119.5,2.,19.));
#971 = VECTOR('',#972,1.);
#972 = DIRECTION('',(0.,0.,-1.));
#973 = PLANE('',#974);
#974 = AXIS2_PLACEMENT_3D('',#975,#976,#977);
#975 = CARTESIAN_POINT('',(119.75,1.75,19.));
#976 = DIRECTION('',(0.707106781187,0.707106781187,0.));
#977 = DIRECTION('',(0.,0.,-1.));
#978 = ADVANCED_FACE('',(#979),#997,.T.);
#979 = FACE_BOUND('',#980,.T.);
#980 = EDGE_LOOP('',(#981,#982,#983,#991));
#981 = ORIENTED_EDGE('',*,*,#912,.F.);
#982 = ORIENTED_EDGE('',*,*,#487,.T.);
#983 = ORIENTED_EDGE('',*,*,#984,.T.);
#984 = EDGE_CURVE('',#480,#985,#987,.T.);
#985 = VERTEX_POINT('',#986);
#986 = CARTESIAN_POINT('',(119.5,-9.,15.));
#987 = LINE('',#988,#989);
#988 = CARTESIAN_POINT('',(119.75,-9.,15.25));
#989 = VECTOR('',#990,1.);
#990 = DIRECTION('',(-0.707106781187,-1.6E-16,-0.707106781187));
#991 = ORIENTED_EDGE('',*,*,#992,.F.);
#992 = EDGE_CURVE('',#880,#985,#993,.T.);
#993 = LINE('',#994,#995);
#994 = CARTESIAN_POINT('',(119.5,3.33E-15,15.));
#995 = VECTOR('',#996,1.);
#996 = DIRECTION('',(0.,-1.,2.2E-16));
#997 = PLANE('',#998);
#998 = AXIS2_PLACEMENT_3D('',#999,#1000,#1001);
#999 = CARTESIAN_POINT('',(119.75,3.39E-15,15.25));
#1000 = DIRECTION('',(0.707106781187,-1.2E-16,-0.707106781187));
#1001 = DIRECTION('',(2.514718625761E-17,-1.,1.948528137424E-16));
#1002 = ADVANCED_FACE('',(#1003),#1030,.T.);
#1003 = FACE_BOUND('',#1004,.T.);
#1004 = EDGE_LOOP('',(#1005,#1006,#1015,#1023));
#1005 = ORIENTED_EDGE('',*,*,#446,.F.);
#1006 = ORIENTED_EDGE('',*,*,#1007,.F.);
#1007 = EDGE_CURVE('',#1008,#439,#1010,.T.);
#1008 = VERTEX_POINT('',#1009);
#1009 = CARTESIAN_POINT('',(117.,1.5,22.));
#1010 = CIRCLE('',#1011,3.);
#1011 = AXIS2_PLACEMENT_3D('',#1012,#1013,#1014);
#1012 = CARTESIAN_POINT('',(117.,1.5,19.));
#1013 = DIRECTION('',(0.,1.,0.));
#1014 = DIRECTION('',(0.,0.,1.));
#1015 = ORIENTED_EDGE('',*,*,#1016,.T.);
#1016 = EDGE_CURVE('',#1008,#1017,#1019,.T.);
#1017 = VERTEX_POINT('',#1018);
#1018 = CARTESIAN_POINT('',(117.,-0.5,22.));
#1019 = LINE('',#1020,#1021);
#1020 = CARTESIAN_POINT('',(117.,2.,22.));
#1021 = VECTOR('',#1022,1.);
#1022 = DIRECTION('',(0.,-1.,0.));
#1023 = ORIENTED_EDGE('',*,*,#1024,.F.);
#1024 = EDGE_CURVE('',#447,#1017,#1025,.T.);
#1025 = CIRCLE('',#1026,3.);
#1026 = AXIS2_PLACEMENT_3D('',#1027,#1028,#1029);
#1027 = CARTESIAN_POINT('',(117.,-0.5,19.));
#1028 = DIRECTION('',(0.,-1.,0.));
#1029 = DIRECTION('',(1.,0.,0.));
#1030 = CYLINDRICAL_SURFACE('',#1031,3.);
#1031 = AXIS2_PLACEMENT_3D('',#1032,#1033,#1034);
#1032 = CARTESIAN_POINT('',(117.,2.,19.));
#1033 = DIRECTION('',(0.,-1.,0.));
#1034 = DIRECTION('',(1.,0.,0.));
#1035 = ADVANCED_FACE('',(#1036),#1063,.T.);
#1036 = FACE_BOUND('',#1037,.T.);
#1037 = EDGE_LOOP('',(#1038,#1039,#1048,#1056));
#1038 = ORIENTED_EDGE('',*,*,#479,.F.);
#1039 = ORIENTED_EDGE('',*,*,#1040,.F.);
#1040 = EDGE_CURVE('',#1041,#472,#1043,.T.);
#1041 = VERTEX_POINT('',#1042);
#1042 = CARTESIAN_POINT('',(117.,-12.,16.5));
#1043 = CIRCLE('',#1044,3.);
#1044 = AXIS2_PLACEMENT_3D('',#1045,#1046,#1047);
#1045 = CARTESIAN_POINT('',(117.,-9.,16.5));
#1046 = DIRECTION('',(-0.,2.6E-16,1.));
#1047 = DIRECTION('',(0.,-1.,2.6E-16));
#1048 = ORIENTED_EDGE('',*,*,#1049,.T.);
#1049 = EDGE_CURVE('',#1041,#1050,#1052,.T.);
#1050 = VERTEX_POINT('',#1051);
#1051 = CARTESIAN_POINT('',(117.,-12.,15.5));
#1052 = LINE('',#1053,#1054);
#1053 = CARTESIAN_POINT('',(117.,-12.,17.));
#1054 = VECTOR('',#1055,1.);
#1055 = DIRECTION('',(0.,0.,-1.));
#1056 = ORIENTED_EDGE('',*,*,#1057,.F.);
#1057 = EDGE_CURVE('',#480,#1050,#1058,.T.);
#1058 = CIRCLE('',#1059,3.);
#1059 = AXIS2_PLACEMENT_3D('',#1060,#1061,#1062);
#1060 = CARTESIAN_POINT('',(117.,-9.,15.5));
#1061 = DIRECTION('',(0.,-2.2E-16,-1.));
#1062 = DIRECTION('',(1.,0.,0.));
#1063 = CYLINDRICAL_SURFACE('',#1064,3.);
#1064 = AXIS2_PLACEMENT_3D('',#1065,#1066,#1067);
#1065 = CARTESIAN_POINT('',(117.,-9.,17.));
#1066 = DIRECTION('',(0.,0.,-1.));
#1067 = DIRECTION('',(1.,0.,0.));
#1068 = ADVANCED_FACE('',(#1069),#1094,.T.);
#1069 = FACE_BOUND('',#1070,.F.);
#1070 = EDGE_LOOP('',(#1071,#1079,#1087,#1093));
#1071 = ORIENTED_EDGE('',*,*,#1072,.F.);
#1072 = EDGE_CURVE('',#1073,#455,#1075,.T.);
#1073 = VERTEX_POINT('',#1074);
#1074 = CARTESIAN_POINT('',(119.5,-1.,18.));
#1075 = LINE('',#1076,#1077);
#1076 = CARTESIAN_POINT('',(119.5,-1.,18.));
#1077 = VECTOR('',#1078,1.);
#1078 = DIRECTION('',(0.707106781187,0.707106781187,-2.E-16));
#1079 = ORIENTED_EDGE('',*,*,#1080,.T.);
#1080 = EDGE_CURVE('',#1073,#1081,#1083,.T.);
#1081 = VERTEX_POINT('',#1082);
#1082 = CARTESIAN_POINT('',(119.5,-1.,19.));
#1083 = LINE('',#1084,#1085);
#1084 = CARTESIAN_POINT('',(119.5,-1.,18.));
#1085 = VECTOR('',#1086,1.);
#1086 = DIRECTION('',(0.,0.,1.));
#1087 = ORIENTED_EDGE('',*,*,#1088,.T.);
#1088 = EDGE_CURVE('',#1081,#447,#1089,.T.);
#1089 = LINE('',#1090,#1091);
#1090 = CARTESIAN_POINT('',(119.75,-0.75,19.));
#1091 = VECTOR('',#1092,1.);
#1092 = DIRECTION('',(0.707106781187,0.707106781187,0.));
#1093 = ORIENTED_EDGE('',*,*,#454,.F.);
#1094 = PLANE('',#1095);
#1095 = AXIS2_PLACEMENT_3D('',#1096,#1097,#1098);
#1096 = CARTESIAN_POINT('',(119.75,-0.75,18.));
#1097 = DIRECTION('',(0.707106781187,-0.707106781187,0.));
#1098 = DIRECTION('',(0.,0.,-1.));
#1099 = ADVANCED_FACE('',(#1100),#1125,.T.);
#1100 = FACE_BOUND('',#1101,.F.);
#1101 = EDGE_LOOP('',(#1102,#1110,#1118,#1124));
#1102 = ORIENTED_EDGE('',*,*,#1103,.F.);
#1103 = EDGE_CURVE('',#1104,#472,#1106,.T.);
#1104 = VERTEX_POINT('',#1105);
#1105 = CARTESIAN_POINT('',(119.5,-9.,17.));
#1106 = LINE('',#1107,#1108);
#1107 = CARTESIAN_POINT('',(120.,-9.,16.5));
#1108 = VECTOR('',#1109,1.);
#1109 = DIRECTION('',(0.707106781187,-2.3E-16,-0.707106781187));
#1110 = ORIENTED_EDGE('',*,*,#1111,.T.);
#1111 = EDGE_CURVE('',#1104,#1112,#1114,.T.);
#1112 = VERTEX_POINT('',#1113);
#1113 = CARTESIAN_POINT('',(119.5,-2.,17.));
#1114 = LINE('',#1115,#1116);
#1115 = CARTESIAN_POINT('',(119.5,-9.,17.));
#1116 = VECTOR('',#1117,1.);
#1117 = DIRECTION('',(0.,1.,0.));
#1118 = ORIENTED_EDGE('',*,*,#1119,.T.);
#1119 = EDGE_CURVE('',#1112,#463,#1120,.T.);
#1120 = LINE('',#1121,#1122);
#1121 = CARTESIAN_POINT('',(119.75,-2.,16.75));
#1122 = VECTOR('',#1123,1.);
#1123 = DIRECTION('',(0.707106781187,0.,-0.707106781187));
#1124 = ORIENTED_EDGE('',*,*,#471,.F.);
#1125 = PLANE('',#1126);
#1126 = AXIS2_PLACEMENT_3D('',#1127,#1128,#1129);
#1127 = CARTESIAN_POINT('',(119.75,-9.,16.75));
#1128 = DIRECTION('',(0.707106781187,0.,0.707106781187));
#1129 = DIRECTION('',(-0.,-1.,-0.));
#1130 = ADVANCED_FACE('',(#1131),#1143,.F.);
#1131 = FACE_BOUND('',#1132,.F.);
#1132 = EDGE_LOOP('',(#1133,#1134,#1141,#1142));
#1133 = ORIENTED_EDGE('',*,*,#1119,.F.);
#1134 = ORIENTED_EDGE('',*,*,#1135,.T.);
#1135 = EDGE_CURVE('',#1112,#1073,#1136,.T.);
#1136 = CIRCLE('',#1137,1.);
#1137 = AXIS2_PLACEMENT_3D('',#1138,#1139,#1140);
#1138 = CARTESIAN_POINT('',(119.5,-2.,18.));
#1139 = DIRECTION('',(1.,-0.,0.));
#1140 = DIRECTION('',(0.,0.,-1.));
#1141 = ORIENTED_EDGE('',*,*,#1072,.T.);
#1142 = ORIENTED_EDGE('',*,*,#462,.F.);
#1143 = CONICAL_SURFACE('',#1144,1.,0.785398163397);
#1144 = AXIS2_PLACEMENT_3D('',#1145,#1146,#1147);
#1145 = CARTESIAN_POINT('',(119.5,-2.,18.));
#1146 = DIRECTION('',(1.,0.,0.));
#1147 = DIRECTION('',(0.,0.,-1.));
#1148 = ADVANCED_FACE('',(#1149),#1168,.T.);
#1149 = FACE_BOUND('',#1150,.T.);
#1150 = EDGE_LOOP('',(#1151,#1152,#1161,#1167));
#1151 = ORIENTED_EDGE('',*,*,#517,.F.);
#1152 = ORIENTED_EDGE('',*,*,#1153,.F.);
#1153 = EDGE_CURVE('',#1154,#518,#1156,.T.);
#1154 = VERTEX_POINT('',#1155);
#1155 = CARTESIAN_POINT('',(3.,1.5,-7.));
#1156 = CIRCLE('',#1157,3.);
#1157 = AXIS2_PLACEMENT_3D('',#1158,#1159,#1160);
#1158 = CARTESIAN_POINT('',(3.,1.5,-4.));
#1159 = DIRECTION('',(0.,1.,0.));
#1160 = DIRECTION('',(-4.4E-16,0.,-1.));
#1161 = ORIENTED_EDGE('',*,*,#1162,.T.);
#1162 = EDGE_CURVE('',#1154,#807,#1163,.T.);
#1163 = LINE('',#1164,#1165);
#1164 = CARTESIAN_POINT('',(3.,2.,-7.));
#1165 = VECTOR('',#1166,1.);
#1166 = DIRECTION('',(0.,-1.,0.));
#1167 = ORIENTED_EDGE('',*,*,#816,.T.);
#1168 = CYLINDRICAL_SURFACE('',#1169,3.);
#1169 = AXIS2_PLACEMENT_3D('',#1170,#1171,#1172);
#1170 = CARTESIAN_POINT('',(3.,2.,-4.));
#1171 = DIRECTION('',(0.,-1.,0.));
#1172 = DIRECTION('',(-1.,0.,0.));
#1173 = ADVANCED_FACE('',(#1174),#1199,.T.);
#1174 = FACE_BOUND('',#1175,.T.);
#1175 = EDGE_LOOP('',(#1176,#1184,#1185,#1193));
#1176 = ORIENTED_EDGE('',*,*,#1177,.F.);
#1177 = EDGE_CURVE('',#518,#1178,#1180,.T.);
#1178 = VERTEX_POINT('',#1179);
#1179 = CARTESIAN_POINT('',(0.5,2.,-4.));
#1180 = LINE('',#1181,#1182);
#1181 = CARTESIAN_POINT('',(0.,1.5,-4.));
#1182 = VECTOR('',#1183,1.);
#1183 = DIRECTION('',(0.707106781187,0.707106781187,-1.1E-16));
#1184 = ORIENTED_EDGE('',*,*,#608,.T.);
#1185 = ORIENTED_EDGE('',*,*,#1186,.T.);
#1186 = EDGE_CURVE('',#601,#1187,#1189,.T.);
#1187 = VERTEX_POINT('',#1188);
#1188 = CARTESIAN_POINT('',(0.5,2.,19.));
#1189 = LINE('',#1190,#1191);
#1190 = CARTESIAN_POINT('',(0.25,1.75,19.));
#1191 = VECTOR('',#1192,1.);
#1192 = DIRECTION('',(0.707106781187,0.707106781187,0.));
#1193 = ORIENTED_EDGE('',*,*,#1194,.F.);
#1194 = EDGE_CURVE('',#1178,#1187,#1195,.T.);
#1195 = LINE('',#1196,#1197);
#1196 = CARTESIAN_POINT('',(0.5,2.,-4.));
#1197 = VECTOR('',#1198,1.);
#1198 = DIRECTION('',(0.,0.,1.));
#1199 = PLANE('',#1200);
#1200 = AXIS2_PLACEMENT_3D('',#1201,#1202,#1203);
#1201 = CARTESIAN_POINT('',(0.25,1.75,-4.));
#1202 = DIRECTION('',(-0.707106781187,0.707106781187,0.));
#1203 = DIRECTION('',(0.,0.,1.));
#1204 = ADVANCED_FACE('',(#1205),#1232,.T.);
#1205 = FACE_BOUND('',#1206,.F.);
#1206 = EDGE_LOOP('',(#1207,#1208,#1217,#1225));
#1207 = ORIENTED_EDGE('',*,*,#600,.F.);
#1208 = ORIENTED_EDGE('',*,*,#1209,.T.);
#1209 = EDGE_CURVE('',#601,#1210,#1212,.T.);
#1210 = VERTEX_POINT('',#1211);
#1211 = CARTESIAN_POINT('',(3.,1.5,22.));
#1212 = CIRCLE('',#1213,3.);
#1213 = AXIS2_PLACEMENT_3D('',#1214,#1215,#1216);
#1214 = CARTESIAN_POINT('',(3.,1.5,19.));
#1215 = DIRECTION('',(0.,1.,-0.));
#1216 = DIRECTION('',(-1.,0.,0.));
#1217 = ORIENTED_EDGE('',*,*,#1218,.T.);
#1218 = EDGE_CURVE('',#1210,#1219,#1221,.T.);
#1219 = VERTEX_POINT('',#1220);
#1220 = CARTESIAN_POINT('',(3.,-0.5,22.));
#1221 = LINE('',#1222,#1223);
#1222 = CARTESIAN_POINT('',(3.,2.,22.));
#1223 = VECTOR('',#1224,1.);
#1224 = DIRECTION('',(0.,-1.,0.));
#1225 = ORIENTED_EDGE('',*,*,#1226,.T.);
#1226 = EDGE_CURVE('',#1219,#593,#1227,.T.);
#1227 = CIRCLE('',#1228,3.);
#1228 = AXIS2_PLACEMENT_3D('',#1229,#1230,#1231);
#1229 = CARTESIAN_POINT('',(3.,-0.5,19.));
#1230 = DIRECTION('',(0.,-1.,0.));
#1231 = DIRECTION('',(-3.E-16,0.,1.));
#1232 = CYLINDRICAL_SURFACE('',#1233,3.);
#1233 = AXIS2_PLACEMENT_3D('',#1234,#1235,#1236);
#1234 = CARTESIAN_POINT('',(3.,2.,19.));
#1235 = DIRECTION('',(0.,-1.,0.));
#1236 = DIRECTION('',(-1.,0.,0.));
#1237 = ADVANCED_FACE('',(#1238),#1263,.T.);
#1238 = FACE_BOUND('',#1239,.F.);
#1239 = EDGE_LOOP('',(#1240,#1248,#1256,#1262));
#1240 = ORIENTED_EDGE('',*,*,#1241,.F.);
#1241 = EDGE_CURVE('',#1242,#593,#1244,.T.);
#1242 = VERTEX_POINT('',#1243);
#1243 = CARTESIAN_POINT('',(0.5,-1.,19.));
#1244 = LINE('',#1245,#1246);
#1245 = CARTESIAN_POINT('',(0.,-0.5,19.));
#1246 = VECTOR('',#1247,1.);
#1247 = DIRECTION('',(-0.707106781187,0.707106781187,-1.7E-16));
#1248 = ORIENTED_EDGE('',*,*,#1249,.T.);
#1249 = EDGE_CURVE('',#1242,#1250,#1252,.T.);
#1250 = VERTEX_POINT('',#1251);
#1251 = CARTESIAN_POINT('',(0.5,-1.,18.));
#1252 = LINE('',#1253,#1254);
#1253 = CARTESIAN_POINT('',(0.5,-1.,19.));
#1254 = VECTOR('',#1255,1.);
#1255 = DIRECTION('',(0.,0.,-1.));
#1256 = ORIENTED_EDGE('',*,*,#1257,.T.);
#1257 = EDGE_CURVE('',#1250,#584,#1258,.T.);
#1258 = LINE('',#1259,#1260);
#1259 = CARTESIAN_POINT('',(0.25,-0.75,18.));
#1260 = VECTOR('',#1261,1.);
#1261 = DIRECTION('',(-0.707106781187,0.707106781187,0.));
#1262 = ORIENTED_EDGE('',*,*,#592,.F.);
#1263 = PLANE('',#1264);
#1264 = AXIS2_PLACEMENT_3D('',#1265,#1266,#1267);
#1265 = CARTESIAN_POINT('',(0.25,-0.75,19.));
#1266 = DIRECTION('',(-0.707106781187,-0.707106781187,-0.));
#1267 = DIRECTION('',(0.,0.,1.));
#1268 = ADVANCED_FACE('',(#1269),#1288,.F.);
#1269 = FACE_BOUND('',#1270,.F.);
#1270 = EDGE_LOOP('',(#1271,#1272,#1281,#1287));
#1271 = ORIENTED_EDGE('',*,*,#1257,.F.);
#1272 = ORIENTED_EDGE('',*,*,#1273,.T.);
#1273 = EDGE_CURVE('',#1250,#1274,#1276,.T.);
#1274 = VERTEX_POINT('',#1275);
#1275 = CARTESIAN_POINT('',(0.5,-2.,17.));
#1276 = CIRCLE('',#1277,1.);
#1277 = AXIS2_PLACEMENT_3D('',#1278,#1279,#1280);
#1278 = CARTESIAN_POINT('',(0.5,-2.,18.));
#1279 = DIRECTION('',(-1.,0.,0.));
#1280 = DIRECTION('',(0.,1.,0.));
#1281 = ORIENTED_EDGE('',*,*,#1282,.T.);
#1282 = EDGE_CURVE('',#1274,#576,#1283,.T.);
#1283 = LINE('',#1284,#1285);
#1284 = CARTESIAN_POINT('',(0.5,-2.,17.));
#1285 = VECTOR('',#1286,1.);
#1286 = DIRECTION('',(-0.707106781187,4.E-17,-0.707106781187));
#1287 = ORIENTED_EDGE('',*,*,#583,.F.);
#1288 = CONICAL_SURFACE('',#1289,1.,0.785398163397);
#1289 = AXIS2_PLACEMENT_3D('',#1290,#1291,#1292);
#1290 = CARTESIAN_POINT('',(0.5,-2.,18.));
#1291 = DIRECTION('',(-1.,-0.,-0.));
#1292 = DIRECTION('',(0.,1.,0.));
#1293 = ADVANCED_FACE('',(#1294),#1312,.T.);
#1294 = FACE_BOUND('',#1295,.F.);
#1295 = EDGE_LOOP('',(#1296,#1297,#1305,#1311));
#1296 = ORIENTED_EDGE('',*,*,#1282,.F.);
#1297 = ORIENTED_EDGE('',*,*,#1298,.T.);
#1298 = EDGE_CURVE('',#1274,#1299,#1301,.T.);
#1299 = VERTEX_POINT('',#1300);
#1300 = CARTESIAN_POINT('',(0.5,-9.,17.));
#1301 = LINE('',#1302,#1303);
#1302 = CARTESIAN_POINT('',(0.5,-2.,17.));
#1303 = VECTOR('',#1304,1.);
#1304 = DIRECTION('',(0.,-1.,2.2E-16));
#1305 = ORIENTED_EDGE('',*,*,#1306,.T.);
#1306 = EDGE_CURVE('',#1299,#568,#1307,.T.);
#1307 = LINE('',#1308,#1309);
#1308 = CARTESIAN_POINT('',(0.25,-9.,16.75));
#1309 = VECTOR('',#1310,1.);
#1310 = DIRECTION('',(-0.707106781187,-1.6E-16,-0.707106781187));
#1311 = ORIENTED_EDGE('',*,*,#575,.F.);
#1312 = PLANE('',#1313);
#1313 = AXIS2_PLACEMENT_3D('',#1314,#1315,#1316);
#1314 = CARTESIAN_POINT('',(0.25,-2.,16.75));
#1315 = DIRECTION('',(-0.707106781187,2.5E-16,0.707106781187));
#1316 = DIRECTION('',(6.677669529664E-17,1.,-2.867766952966E-16));
#1317 = ADVANCED_FACE('',(#1318),#1336,.F.);
#1318 = FACE_BOUND('',#1319,.F.);
#1319 = EDGE_LOOP('',(#1320,#1328,#1329,#1330));
#1320 = ORIENTED_EDGE('',*,*,#1321,.F.);
#1321 = EDGE_CURVE('',#536,#1322,#1324,.T.);
#1322 = VERTEX_POINT('',#1323);
#1323 = CARTESIAN_POINT('',(0.5,-9.,2.E-15));
#1324 = LINE('',#1325,#1326);
#1325 = CARTESIAN_POINT('',(0.,-9.,-0.5));
#1326 = VECTOR('',#1327,1.);
#1327 = DIRECTION('',(0.707106781187,9.E-17,0.707106781187));
#1328 = ORIENTED_EDGE('',*,*,#543,.T.);
#1329 = ORIENTED_EDGE('',*,*,#896,.T.);
#1330 = ORIENTED_EDGE('',*,*,#1331,.F.);
#1331 = EDGE_CURVE('',#1322,#897,#1332,.T.);
#1332 = LINE('',#1333,#1334);
#1333 = CARTESIAN_POINT('',(0.5,-9.,2.14E-15));
#1334 = VECTOR('',#1335,1.);
#1335 = DIRECTION('',(0.,1.,-2.2E-16));
#1336 = PLANE('',#1337);
#1337 = AXIS2_PLACEMENT_3D('',#1338,#1339,#1340);
#1338 = CARTESIAN_POINT('',(0.25,-9.,-0.25));
#1339 = DIRECTION('',(0.707106781187,-1.6E-16,-0.707106781187));
#1340 = DIRECTION('',(3.137084989848E-18,1.,-2.231370849898E-16));
#1341 = ADVANCED_FACE('',(#1342),#1369,.T.);
#1342 = FACE_BOUND('',#1343,.T.);
#1343 = EDGE_LOOP('',(#1344,#1345,#1354,#1362));
#1344 = ORIENTED_EDGE('',*,*,#567,.F.);
#1345 = ORIENTED_EDGE('',*,*,#1346,.F.);
#1346 = EDGE_CURVE('',#1347,#560,#1349,.T.);
#1347 = VERTEX_POINT('',#1348);
#1348 = CARTESIAN_POINT('',(3.,-12.,15.5));
#1349 = CIRCLE('',#1350,3.);
#1350 = AXIS2_PLACEMENT_3D('',#1351,#1352,#1353);
#1351 = CARTESIAN_POINT('',(3.,-9.,15.5));
#1352 = DIRECTION('',(0.,-2.2E-16,-1.));
#1353 = DIRECTION('',(-4.4E-16,-1.,2.2E-16));
#1354 = ORIENTED_EDGE('',*,*,#1355,.T.);
#1355 = EDGE_CURVE('',#1347,#1356,#1358,.T.);
#1356 = VERTEX_POINT('',#1357);
#1357 = CARTESIAN_POINT('',(3.,-12.,16.5));
#1358 = LINE('',#1359,#1360);
#1359 = CARTESIAN_POINT('',(3.,-12.,15.));
#1360 = VECTOR('',#1361,1.);
#1361 = DIRECTION('',(0.,0.,1.));
#1362 = ORIENTED_EDGE('',*,*,#1363,.F.);
#1363 = EDGE_CURVE('',#568,#1356,#1364,.T.);
#1364 = CIRCLE('',#1365,3.);
#1365 = AXIS2_PLACEMENT_3D('',#1366,#1367,#1368);
#1366 = CARTESIAN_POINT('',(3.,-9.,16.5));
#1367 = DIRECTION('',(6.232073083112E-48,2.6E-16,1.));
#1368 = DIRECTION('',(-1.,-5.9E-16,1.534E-31));
#1369 = CYLINDRICAL_SURFACE('',#1370,3.);
#1370 = AXIS2_PLACEMENT_3D('',#1371,#1372,#1373);
#1371 = CARTESIAN_POINT('',(3.,-9.,15.));
#1372 = DIRECTION('',(0.,0.,1.));
#1373 = DIRECTION('',(-1.,0.,0.));
#1374 = ADVANCED_FACE('',(#1375),#1393,.T.);
#1375 = FACE_BOUND('',#1376,.T.);
#1376 = EDGE_LOOP('',(#1377,#1385,#1386,#1387));
#1377 = ORIENTED_EDGE('',*,*,#1378,.F.);
#1378 = EDGE_CURVE('',#560,#1379,#1381,.T.);
#1379 = VERTEX_POINT('',#1380);
#1380 = CARTESIAN_POINT('',(0.5,-9.,15.));
#1381 = LINE('',#1382,#1383);
#1382 = CARTESIAN_POINT('',(0.,-9.,15.5));
#1383 = VECTOR('',#1384,1.);
#1384 = DIRECTION('',(0.707106781187,-2.7E-16,-0.707106781187));
#1385 = ORIENTED_EDGE('',*,*,#559,.T.);
#1386 = ORIENTED_EDGE('',*,*,#889,.T.);
#1387 = ORIENTED_EDGE('',*,*,#1388,.F.);
#1388 = EDGE_CURVE('',#1379,#882,#1389,.T.);
#1389 = LINE('',#1390,#1391);
#1390 = CARTESIAN_POINT('',(0.5,-9.,15.));
#1391 = VECTOR('',#1392,1.);
#1392 = DIRECTION('',(0.,1.,-2.2E-16));
#1393 = PLANE('',#1394);
#1394 = AXIS2_PLACEMENT_3D('',#1395,#1396,#1397);
#1395 = CARTESIAN_POINT('',(0.25,-9.,15.25));
#1396 = DIRECTION('',(-0.707106781187,-1.3E-16,-0.707106781187));
#1397 = DIRECTION('',(1.807611844575E-17,1.,-2.019238815543E-16));
#1398 = ADVANCED_FACE('',(#1399),#1418,.T.);
#1399 = FACE_BOUND('',#1400,.F.);
#1400 = EDGE_LOOP('',(#1401,#1402,#1403,#1411));
#1401 = ORIENTED_EDGE('',*,*,#857,.F.);
#1402 = ORIENTED_EDGE('',*,*,#632,.T.);
#1403 = ORIENTED_EDGE('',*,*,#1404,.T.);
#1404 = EDGE_CURVE('',#625,#1405,#1407,.T.);
#1405 = VERTEX_POINT('',#1406);
#1406 = CARTESIAN_POINT('',(117.,-11.5,3.E-15));
#1407 = LINE('',#1408,#1409);
#1408 = CARTESIAN_POINT('',(117.,-12.,-0.5));
#1409 = VECTOR('',#1410,1.);
#1410 = DIRECTION('',(-4.E-17,0.707106781187,0.707106781187));
#1411 = ORIENTED_EDGE('',*,*,#1412,.F.);
#1412 = EDGE_CURVE('',#858,#1405,#1413,.T.);
#1413 = CIRCLE('',#1414,2.5);
#1414 = AXIS2_PLACEMENT_3D('',#1415,#1416,#1417);
#1415 = CARTESIAN_POINT('',(117.,-9.,1.98E-15));
#1416 = DIRECTION('',(0.,-2.2E-16,-1.));
#1417 = DIRECTION('',(1.,0.,0.));
#1418 = CONICAL_SURFACE('',#1419,3.,0.785398163397);
#1419 = AXIS2_PLACEMENT_3D('',#1420,#1421,#1422);
#1420 = CARTESIAN_POINT('',(117.,-9.,-0.5));
#1421 = DIRECTION('',(-0.,-2.2E-16,-1.));
#1422 = DIRECTION('',(1.,0.,0.));
#1423 = ADVANCED_FACE('',(#1424),#1443,.T.);
#1424 = FACE_BOUND('',#1425,.F.);
#1425 = EDGE_LOOP('',(#1426,#1434,#1435,#1436));
#1426 = ORIENTED_EDGE('',*,*,#1427,.F.);
#1427 = EDGE_CURVE('',#648,#1428,#1430,.T.);
#1428 = VERTEX_POINT('',#1429);
#1429 = CARTESIAN_POINT('',(3.,-11.5,2.E-15));
#1430 = LINE('',#1431,#1432);
#1431 = CARTESIAN_POINT('',(3.,-11.75,-0.25));
#1432 = VECTOR('',#1433,1.);
#1433 = DIRECTION('',(0.,0.707106781187,0.707106781187));
#1434 = ORIENTED_EDGE('',*,*,#657,.T.);
#1435 = ORIENTED_EDGE('',*,*,#1321,.T.);
#1436 = ORIENTED_EDGE('',*,*,#1437,.F.);
#1437 = EDGE_CURVE('',#1428,#1322,#1438,.T.);
#1438 = CIRCLE('',#1439,2.5);
#1439 = AXIS2_PLACEMENT_3D('',#1440,#1441,#1442);
#1440 = CARTESIAN_POINT('',(3.,-9.,1.98E-15));
#1441 = DIRECTION('',(0.,-2.2E-16,-1.));
#1442 = DIRECTION('',(-1.5E-16,-1.,2.2E-16));
#1443 = CONICAL_SURFACE('',#1444,3.,0.785398163397);
#1444 = AXIS2_PLACEMENT_3D('',#1445,#1446,#1447);
#1445 = CARTESIAN_POINT('',(3.,-9.,-0.5));
#1446 = DIRECTION('',(-0.,-2.2E-16,-1.));
#1447 = DIRECTION('',(-1.5E-16,-1.,2.2E-16));
#1448 = ADVANCED_FACE('',(#1449),#1460,.T.);
#1449 = FACE_BOUND('',#1450,.F.);
#1450 = EDGE_LOOP('',(#1451,#1452,#1453,#1454));
#1451 = ORIENTED_EDGE('',*,*,#1404,.F.);
#1452 = ORIENTED_EDGE('',*,*,#675,.T.);
#1453 = ORIENTED_EDGE('',*,*,#1427,.T.);
#1454 = ORIENTED_EDGE('',*,*,#1455,.F.);
#1455 = EDGE_CURVE('',#1405,#1428,#1456,.T.);
#1456 = LINE('',#1457,#1458);
#1457 = CARTESIAN_POINT('',(117.,-11.5,2.54E-15));
#1458 = VECTOR('',#1459,1.);
#1459 = DIRECTION('',(-1.,0.,0.));
#1460 = PLANE('',#1461);
#1461 = AXIS2_PLACEMENT_3D('',#1462,#1463,#1464);
#1462 = CARTESIAN_POINT('',(117.,-11.75,-0.25));
#1463 = DIRECTION('',(0.,-0.707106781187,0.707106781187));
#1464 = DIRECTION('',(1.,0.,0.));
#1465 = ADVANCED_FACE('',(#1466),#1477,.F.);
#1466 = FACE_BOUND('',#1467,.F.);
#1467 = EDGE_LOOP('',(#1468,#1469,#1475,#1476));
#1468 = ORIENTED_EDGE('',*,*,#936,.F.);
#1469 = ORIENTED_EDGE('',*,*,#1470,.T.);
#1470 = EDGE_CURVE('',#928,#1154,#1471,.T.);
#1471 = LINE('',#1472,#1473);
#1472 = CARTESIAN_POINT('',(117.,1.5,-7.));
#1473 = VECTOR('',#1474,1.);
#1474 = DIRECTION('',(-1.,-0.,-0.));
#1475 = ORIENTED_EDGE('',*,*,#1162,.T.);
#1476 = ORIENTED_EDGE('',*,*,#834,.F.);
#1477 = PLANE('',#1478);
#1478 = AXIS2_PLACEMENT_3D('',#1479,#1480,#1481);
#1479 = CARTESIAN_POINT('',(120.,2.,-7.));
#1480 = DIRECTION('',(0.,0.,1.));
#1481 = DIRECTION('',(0.,-1.,0.));
#1482 = ADVANCED_FACE('',(#1483,#1491,#1511),#1531,.F.);
#1483 = FACE_BOUND('',#1484,.F.);
#1484 = EDGE_LOOP('',(#1485,#1486,#1487,#1488,#1489,#1490));
#1485 = ORIENTED_EDGE('',*,*,#904,.F.);
#1486 = ORIENTED_EDGE('',*,*,#865,.T.);
#1487 = ORIENTED_EDGE('',*,*,#1412,.T.);
#1488 = ORIENTED_EDGE('',*,*,#1455,.T.);
#1489 = ORIENTED_EDGE('',*,*,#1437,.T.);
#1490 = ORIENTED_EDGE('',*,*,#1331,.T.);
#1491 = FACE_BOUND('',#1492,.F.);
#1492 = EDGE_LOOP('',(#1493,#1504));
#1493 = ORIENTED_EDGE('',*,*,#1494,.T.);
#1494 = EDGE_CURVE('',#1495,#1497,#1499,.T.);
#1495 = VERTEX_POINT('',#1496);
#1496 = CARTESIAN_POINT('',(98.500000000015,-6.,1.E-15));
#1497 = VERTEX_POINT('',#1498);
#1498 = CARTESIAN_POINT('',(101.50000000001,-6.,2.E-15));
#1499 = CIRCLE('',#1500,1.5);
#1500 = AXIS2_PLACEMENT_3D('',#1501,#1502,#1503);
#1501 = CARTESIAN_POINT('',(100.00000000001,-6.,1.33E-15));
#1502 = DIRECTION('',(0.,0.,1.));
#1503 = DIRECTION('',(-1.,0.,0.));
#1504 = ORIENTED_EDGE('',*,*,#1505,.T.);
#1505 = EDGE_CURVE('',#1497,#1495,#1506,.T.);
#1506 = CIRCLE('',#1507,1.5);
#1507 = AXIS2_PLACEMENT_3D('',#1508,#1509,#1510);
#1508 = CARTESIAN_POINT('',(100.00000000001,-6.,1.33E-15));
#1509 = DIRECTION('',(0.,0.,1.));
#1510 = DIRECTION('',(-1.,0.,0.));
#1511 = FACE_BOUND('',#1512,.F.);
#1512 = EDGE_LOOP('',(#1513,#1524));
#1513 = ORIENTED_EDGE('',*,*,#1514,.T.);
#1514 = EDGE_CURVE('',#1515,#1517,#1519,.T.);
#1515 = VERTEX_POINT('',#1516);
#1516 = CARTESIAN_POINT('',(18.500000000015,-6.,1.E-15));
#1517 = VERTEX_POINT('',#1518);
#1518 = CARTESIAN_POINT('',(21.500000000015,-6.,2.E-15));
#1519 = CIRCLE('',#1520,1.5);
#1520 = AXIS2_PLACEMENT_3D('',#1521,#1522,#1523);
#1521 = CARTESIAN_POINT('',(20.000000000015,-6.,1.33E-15));
#1522 = DIRECTION('',(0.,0.,1.));
#1523 = DIRECTION('',(-1.,0.,0.));
#1524 = ORIENTED_EDGE('',*,*,#1525,.T.);
#1525 = EDGE_CURVE('',#1517,#1515,#1526,.T.);
#1526 = CIRCLE('',#1527,1.5);
#1527 = AXIS2_PLACEMENT_3D('',#1528,#1529,#1530);
#1528 = CARTESIAN_POINT('',(20.000000000015,-6.,1.33E-15));
#1529 = DIRECTION('',(0.,0.,1.));
#1530 = DIRECTION('',(-1.,0.,0.));
#1531 = PLANE('',#1532);
#1532 = AXIS2_PLACEMENT_3D('',#1533,#1534,#1535);
#1533 = CARTESIAN_POINT('',(120.,0.,0.));
#1534 = DIRECTION('',(-0.,-2.2E-16,-1.));
#1535 = DIRECTION('',(-1.,0.,0.));
#1536 = ADVANCED_FACE('',(#1537,#1566,#1577),#1588,.T.);
#1537 = FACE_BOUND('',#1538,.T.);
#1538 = EDGE_LOOP('',(#1539,#1540,#1541,#1550,#1558,#1565));
#1539 = ORIENTED_EDGE('',*,*,#879,.F.);
#1540 = ORIENTED_EDGE('',*,*,#992,.T.);
#1541 = ORIENTED_EDGE('',*,*,#1542,.T.);
#1542 = EDGE_CURVE('',#985,#1543,#1545,.T.);
#1543 = VERTEX_POINT('',#1544);
#1544 = CARTESIAN_POINT('',(117.,-11.5,15.));
#1545 = CIRCLE('',#1546,2.5);
#1546 = AXIS2_PLACEMENT_3D('',#1547,#1548,#1549);
#1547 = CARTESIAN_POINT('',(117.,-9.,15.));
#1548 = DIRECTION('',(0.,-2.2E-16,-1.));
#1549 = DIRECTION('',(1.,0.,0.));
#1550 = ORIENTED_EDGE('',*,*,#1551,.T.);
#1551 = EDGE_CURVE('',#1543,#1552,#1554,.T.);
#1552 = VERTEX_POINT('',#1553);
#1553 = CARTESIAN_POINT('',(3.,-11.5,15.));
#1554 = LINE('',#1555,#1556);
#1555 = CARTESIAN_POINT('',(117.,-11.5,15.));
#1556 = VECTOR('',#1557,1.);
#1557 = DIRECTION('',(-1.,0.,0.));
#1558 = ORIENTED_EDGE('',*,*,#1559,.T.);
#1559 = EDGE_CURVE('',#1552,#1379,#1560,.T.);
#1560 = CIRCLE('',#1561,2.5);
#1561 = AXIS2_PLACEMENT_3D('',#1562,#1563,#1564);
#1562 = CARTESIAN_POINT('',(3.,-9.,15.));
#1563 = DIRECTION('',(0.,-2.2E-16,-1.));
#1564 = DIRECTION('',(-4.4E-16,-1.,2.2E-16));
#1565 = ORIENTED_EDGE('',*,*,#1388,.T.);
#1566 = FACE_BOUND('',#1567,.T.);
#1567 = EDGE_LOOP('',(#1568));
#1568 = ORIENTED_EDGE('',*,*,#1569,.F.);
#1569 = EDGE_CURVE('',#1570,#1570,#1572,.T.);
#1570 = VERTEX_POINT('',#1571);
#1571 = CARTESIAN_POINT('',(101.50000000001,-6.,15.));
#1572 = CIRCLE('',#1573,1.5);
#1573 = AXIS2_PLACEMENT_3D('',#1574,#1575,#1576);
#1574 = CARTESIAN_POINT('',(100.00000000001,-6.,15.));
#1575 = DIRECTION('',(0.,0.,-1.));
#1576 = DIRECTION('',(1.,0.,0.));
#1577 = FACE_BOUND('',#1578,.T.);
#1578 = EDGE_LOOP('',(#1579));
#1579 = ORIENTED_EDGE('',*,*,#1580,.F.);
#1580 = EDGE_CURVE('',#1581,#1581,#1583,.T.);
#1581 = VERTEX_POINT('',#1582);
#1582 = CARTESIAN_POINT('',(21.500000000015,-6.,15.));
#1583 = CIRCLE('',#1584,1.5);
#1584 = AXIS2_PLACEMENT_3D('',#1585,#1586,#1587);
#1585 = CARTESIAN_POINT('',(20.000000000015,-6.,15.));
#1586 = DIRECTION('',(0.,0.,-1.));
#1587 = DIRECTION('',(1.,0.,0.));
#1588 = PLANE('',#1589);
#1589 = AXIS2_PLACEMENT_3D('',#1590,#1591,#1592);
#1590 = CARTESIAN_POINT('',(120.,3.33E-15,15.));
#1591 = DIRECTION('',(-0.,-2.2E-16,-1.));
#1592 = DIRECTION('',(-1.,0.,0.));
#1593 = ADVANCED_FACE('',(#1594),#1613,.T.);
#1594 = FACE_BOUND('',#1595,.T.);
#1595 = EDGE_LOOP('',(#1596,#1597,#1598,#1606));
#1596 = ORIENTED_EDGE('',*,*,#960,.F.);
#1597 = ORIENTED_EDGE('',*,*,#927,.T.);
#1598 = ORIENTED_EDGE('',*,*,#1599,.T.);
#1599 = EDGE_CURVE('',#928,#1600,#1602,.T.);
#1600 = VERTEX_POINT('',#1601);
#1601 = CARTESIAN_POINT('',(117.,2.,-6.5));
#1602 = LINE('',#1603,#1604);
#1603 = CARTESIAN_POINT('',(117.,1.5,-7.));
#1604 = VECTOR('',#1605,1.);
#1605 = DIRECTION('',(-4.E-17,0.707106781187,0.707106781187));
#1606 = ORIENTED_EDGE('',*,*,#1607,.F.);
#1607 = EDGE_CURVE('',#961,#1600,#1608,.T.);
#1608 = CIRCLE('',#1609,2.5);
#1609 = AXIS2_PLACEMENT_3D('',#1610,#1611,#1612);
#1610 = CARTESIAN_POINT('',(117.,2.,-4.));
#1611 = DIRECTION('',(-0.,1.,0.));
#1612 = DIRECTION('',(1.,0.,0.));
#1613 = CONICAL_SURFACE('',#1614,3.,0.785398163397);
#1614 = AXIS2_PLACEMENT_3D('',#1615,#1616,#1617);
#1615 = CARTESIAN_POINT('',(117.,1.5,-4.));
#1616 = DIRECTION('',(-0.,-1.,-0.));
#1617 = DIRECTION('',(1.,0.,0.));
#1618 = ADVANCED_FACE('',(#1619),#1638,.T.);
#1619 = FACE_BOUND('',#1620,.T.);
#1620 = EDGE_LOOP('',(#1621,#1629,#1630,#1631));
#1621 = ORIENTED_EDGE('',*,*,#1622,.F.);
#1622 = EDGE_CURVE('',#1008,#1623,#1625,.T.);
#1623 = VERTEX_POINT('',#1624);
#1624 = CARTESIAN_POINT('',(117.,2.,21.5));
#1625 = LINE('',#1626,#1627);
#1626 = CARTESIAN_POINT('',(117.,1.75,21.75));
#1627 = VECTOR('',#1628,1.);
#1628 = DIRECTION('',(0.,0.707106781187,-0.707106781187));
#1629 = ORIENTED_EDGE('',*,*,#1007,.T.);
#1630 = ORIENTED_EDGE('',*,*,#951,.T.);
#1631 = ORIENTED_EDGE('',*,*,#1632,.F.);
#1632 = EDGE_CURVE('',#1623,#952,#1633,.T.);
#1633 = CIRCLE('',#1634,2.5);
#1634 = AXIS2_PLACEMENT_3D('',#1635,#1636,#1637);
#1635 = CARTESIAN_POINT('',(117.,2.,19.));
#1636 = DIRECTION('',(0.,1.,0.));
#1637 = DIRECTION('',(0.,0.,1.));
#1638 = CONICAL_SURFACE('',#1639,3.,0.785398163397);
#1639 = AXIS2_PLACEMENT_3D('',#1640,#1641,#1642);
#1640 = CARTESIAN_POINT('',(117.,1.5,19.));
#1641 = DIRECTION('',(-0.,-1.,-0.));
#1642 = DIRECTION('',(0.,0.,1.));
#1643 = ADVANCED_FACE('',(#1644),#1680,.T.);
#1644 = FACE_BOUND('',#1645,.T.);
#1645 = EDGE_LOOP('',(#1646,#1647,#1648,#1656,#1663,#1664,#1673,#1679));
#1646 = ORIENTED_EDGE('',*,*,#968,.T.);
#1647 = ORIENTED_EDGE('',*,*,#1607,.T.);
#1648 = ORIENTED_EDGE('',*,*,#1649,.T.);
#1649 = EDGE_CURVE('',#1600,#1650,#1652,.T.);
#1650 = VERTEX_POINT('',#1651);
#1651 = CARTESIAN_POINT('',(3.,2.,-6.5));
#1652 = LINE('',#1653,#1654);
#1653 = CARTESIAN_POINT('',(117.,2.,-6.5));
#1654 = VECTOR('',#1655,1.);
#1655 = DIRECTION('',(-1.,-0.,-0.));
#1656 = ORIENTED_EDGE('',*,*,#1657,.T.);
#1657 = EDGE_CURVE('',#1650,#1178,#1658,.T.);
#1658 = CIRCLE('',#1659,2.5);
#1659 = AXIS2_PLACEMENT_3D('',#1660,#1661,#1662);
#1660 = CARTESIAN_POINT('',(3.,2.,-4.));
#1661 = DIRECTION('',(0.,1.,0.));
#1662 = DIRECTION('',(-4.4E-16,0.,-1.));
#1663 = ORIENTED_EDGE('',*,*,#1194,.T.);
#1664 = ORIENTED_EDGE('',*,*,#1665,.T.);
#1665 = EDGE_CURVE('',#1187,#1666,#1668,.T.);
#1666 = VERTEX_POINT('',#1667);
#1667 = CARTESIAN_POINT('',(3.,2.,21.5));
#1668 = CIRCLE('',#1669,2.5);
#1669 = AXIS2_PLACEMENT_3D('',#1670,#1671,#1672);
#1670 = CARTESIAN_POINT('',(3.,2.,19.));
#1671 = DIRECTION('',(0.,1.,-0.));
#1672 = DIRECTION('',(-1.,0.,0.));
#1673 = ORIENTED_EDGE('',*,*,#1674,.T.);
#1674 = EDGE_CURVE('',#1666,#1623,#1675,.T.);
#1675 = LINE('',#1676,#1677);
#1676 = CARTESIAN_POINT('',(3.,2.,21.5));
#1677 = VECTOR('',#1678,1.);
#1678 = DIRECTION('',(1.,0.,0.));
#1679 = ORIENTED_EDGE('',*,*,#1632,.T.);
#1680 = PLANE('',#1681);
#1681 = AXIS2_PLACEMENT_3D('',#1682,#1683,#1684);
#1682 = CARTESIAN_POINT('',(60.,2.,7.5));
#1683 = DIRECTION('',(0.,1.,0.));
#1684 = DIRECTION('',(0.,0.,1.));
#1685 = ADVANCED_FACE('',(#1686),#1697,.T.);
#1686 = FACE_BOUND('',#1687,.T.);
#1687 = EDGE_LOOP('',(#1688,#1689,#1690,#1696));
#1688 = ORIENTED_EDGE('',*,*,#984,.F.);
#1689 = ORIENTED_EDGE('',*,*,#1057,.T.);
#1690 = ORIENTED_EDGE('',*,*,#1691,.T.);
#1691 = EDGE_CURVE('',#1050,#1543,#1692,.T.);
#1692 = LINE('',#1693,#1694);
#1693 = CARTESIAN_POINT('',(117.,-12.,15.5));
#1694 = VECTOR('',#1695,1.);
#1695 = DIRECTION('',(-4.E-17,0.707106781187,-0.707106781187));
#1696 = ORIENTED_EDGE('',*,*,#1542,.F.);
#1697 = CONICAL_SURFACE('',#1698,3.,0.785398163397);
#1698 = AXIS2_PLACEMENT_3D('',#1699,#1700,#1701);
#1699 = CARTESIAN_POINT('',(117.,-9.,15.5));
#1700 = DIRECTION('',(0.,2.2E-16,1.));
#1701 = DIRECTION('',(1.,0.,0.));
#1702 = ADVANCED_FACE('',(#1703),#1722,.T.);
#1703 = FACE_BOUND('',#1704,.F.);
#1704 = EDGE_LOOP('',(#1705,#1706,#1715,#1721));
#1705 = ORIENTED_EDGE('',*,*,#1088,.F.);
#1706 = ORIENTED_EDGE('',*,*,#1707,.T.);
#1707 = EDGE_CURVE('',#1081,#1708,#1710,.T.);
#1708 = VERTEX_POINT('',#1709);
#1709 = CARTESIAN_POINT('',(117.,-1.,21.5));
#1710 = CIRCLE('',#1711,2.5);
#1711 = AXIS2_PLACEMENT_3D('',#1712,#1713,#1714);
#1712 = CARTESIAN_POINT('',(117.,-1.,19.));
#1713 = DIRECTION('',(0.,-1.,0.));
#1714 = DIRECTION('',(1.,0.,0.));
#1715 = ORIENTED_EDGE('',*,*,#1716,.T.);
#1716 = EDGE_CURVE('',#1708,#1017,#1717,.T.);
#1717 = LINE('',#1718,#1719);
#1718 = CARTESIAN_POINT('',(117.,-0.5,22.));
#1719 = VECTOR('',#1720,1.);
#1720 = DIRECTION('',(4.E-17,0.707106781187,0.707106781187));
#1721 = ORIENTED_EDGE('',*,*,#1024,.F.);
#1722 = CONICAL_SURFACE('',#1723,3.,0.785398163397);
#1723 = AXIS2_PLACEMENT_3D('',#1724,#1725,#1726);
#1724 = CARTESIAN_POINT('',(117.,-0.5,19.));
#1725 = DIRECTION('',(0.,1.,0.));
#1726 = DIRECTION('',(1.,0.,0.));
#1727 = ADVANCED_FACE('',(#1728),#1744,.T.);
#1728 = FACE_BOUND('',#1729,.T.);
#1729 = EDGE_LOOP('',(#1730,#1731,#1737,#1738));
#1730 = ORIENTED_EDGE('',*,*,#1016,.F.);
#1731 = ORIENTED_EDGE('',*,*,#1732,.F.);
#1732 = EDGE_CURVE('',#1210,#1008,#1733,.T.);
#1733 = LINE('',#1734,#1735);
#1734 = CARTESIAN_POINT('',(3.,1.5,22.));
#1735 = VECTOR('',#1736,1.);
#1736 = DIRECTION('',(1.,0.,0.));
#1737 = ORIENTED_EDGE('',*,*,#1218,.T.);
#1738 = ORIENTED_EDGE('',*,*,#1739,.F.);
#1739 = EDGE_CURVE('',#1017,#1219,#1740,.T.);
#1740 = LINE('',#1741,#1742);
#1741 = CARTESIAN_POINT('',(117.,-0.5,22.));
#1742 = VECTOR('',#1743,1.);
#1743 = DIRECTION('',(-1.,-0.,-0.));
#1744 = PLANE('',#1745);
#1745 = AXIS2_PLACEMENT_3D('',#1746,#1747,#1748);
#1746 = CARTESIAN_POINT('',(120.,2.,22.));
#1747 = DIRECTION('',(0.,0.,1.));
#1748 = DIRECTION('',(0.,-1.,0.));
#1749 = ADVANCED_FACE('',(#1750),#1769,.T.);
#1750 = FACE_BOUND('',#1751,.F.);
#1751 = EDGE_LOOP('',(#1752,#1760,#1767,#1768));
#1752 = ORIENTED_EDGE('',*,*,#1753,.F.);
#1753 = EDGE_CURVE('',#1754,#1041,#1756,.T.);
#1754 = VERTEX_POINT('',#1755);
#1755 = CARTESIAN_POINT('',(117.,-11.5,17.));
#1756 = LINE('',#1757,#1758);
#1757 = CARTESIAN_POINT('',(117.,-11.75,16.75));
#1758 = VECTOR('',#1759,1.);
#1759 = DIRECTION('',(-0.,-0.707106781187,-0.707106781187));
#1760 = ORIENTED_EDGE('',*,*,#1761,.T.);
#1761 = EDGE_CURVE('',#1754,#1104,#1762,.T.);
#1762 = CIRCLE('',#1763,2.5);
#1763 = AXIS2_PLACEMENT_3D('',#1764,#1765,#1766);
#1764 = CARTESIAN_POINT('',(117.,-9.,17.));
#1765 = DIRECTION('',(-0.,2.6E-16,1.));
#1766 = DIRECTION('',(0.,-1.,2.6E-16));
#1767 = ORIENTED_EDGE('',*,*,#1103,.T.);
#1768 = ORIENTED_EDGE('',*,*,#1040,.F.);
#1769 = CONICAL_SURFACE('',#1770,3.,0.785398163397);
#1770 = AXIS2_PLACEMENT_3D('',#1771,#1772,#1773);
#1771 = CARTESIAN_POINT('',(117.,-9.,16.5));
#1772 = DIRECTION('',(-0.,-2.6E-16,-1.));
#1773 = DIRECTION('',(0.,-1.,2.6E-16));
#1774 = ADVANCED_FACE('',(#1775),#1791,.F.);
#1775 = FACE_BOUND('',#1776,.F.);
#1776 = EDGE_LOOP('',(#1777,#1778,#1784,#1785));
#1777 = ORIENTED_EDGE('',*,*,#1049,.T.);
#1778 = ORIENTED_EDGE('',*,*,#1779,.T.);
#1779 = EDGE_CURVE('',#1050,#1347,#1780,.T.);
#1780 = LINE('',#1781,#1782);
#1781 = CARTESIAN_POINT('',(117.,-12.,15.5));
#1782 = VECTOR('',#1783,1.);
#1783 = DIRECTION('',(-1.,0.,0.));
#1784 = ORIENTED_EDGE('',*,*,#1355,.T.);
#1785 = ORIENTED_EDGE('',*,*,#1786,.T.);
#1786 = EDGE_CURVE('',#1356,#1041,#1787,.T.);
#1787 = LINE('',#1788,#1789);
#1788 = CARTESIAN_POINT('',(3.,-12.,16.5));
#1789 = VECTOR('',#1790,1.);
#1790 = DIRECTION('',(1.,0.,0.));
#1791 = PLANE('',#1792);
#1792 = AXIS2_PLACEMENT_3D('',#1793,#1794,#1795);
#1793 = CARTESIAN_POINT('',(60.,-12.,7.5));
#1794 = DIRECTION('',(0.,1.,0.));
#1795 = DIRECTION('',(0.,0.,1.));
#1796 = ADVANCED_FACE('',(#1797),#1823,.T.);
#1797 = FACE_BOUND('',#1798,.T.);
#1798 = EDGE_LOOP('',(#1799,#1805,#1806,#1807,#1815,#1822));
#1799 = ORIENTED_EDGE('',*,*,#1800,.F.);
#1800 = EDGE_CURVE('',#1073,#1250,#1801,.T.);
#1801 = LINE('',#1802,#1803);
#1802 = CARTESIAN_POINT('',(120.,-1.,18.));
#1803 = VECTOR('',#1804,1.);
#1804 = DIRECTION('',(-1.,-0.,-0.));
#1805 = ORIENTED_EDGE('',*,*,#1080,.T.);
#1806 = ORIENTED_EDGE('',*,*,#1707,.T.);
#1807 = ORIENTED_EDGE('',*,*,#1808,.T.);
#1808 = EDGE_CURVE('',#1708,#1809,#1811,.T.);
#1809 = VERTEX_POINT('',#1810);
#1810 = CARTESIAN_POINT('',(3.,-1.,21.5));
#1811 = LINE('',#1812,#1813);
#1812 = CARTESIAN_POINT('',(117.,-1.,21.5));
#1813 = VECTOR('',#1814,1.);
#1814 = DIRECTION('',(-1.,-0.,-0.));
#1815 = ORIENTED_EDGE('',*,*,#1816,.T.);
#1816 = EDGE_CURVE('',#1809,#1242,#1817,.T.);
#1817 = CIRCLE('',#1818,2.5);
#1818 = AXIS2_PLACEMENT_3D('',#1819,#1820,#1821);
#1819 = CARTESIAN_POINT('',(3.,-1.,19.));
#1820 = DIRECTION('',(0.,-1.,0.));
#1821 = DIRECTION('',(-3.E-16,0.,1.));
#1822 = ORIENTED_EDGE('',*,*,#1249,.T.);
#1823 = PLANE('',#1824);
#1824 = AXIS2_PLACEMENT_3D('',#1825,#1826,#1827);
#1825 = CARTESIAN_POINT('',(120.,-1.,22.));
#1826 = DIRECTION('',(0.,-1.,0.));
#1827 = DIRECTION('',(0.,0.,-1.));
#1828 = ADVANCED_FACE('',(#1829,#1855,#1866),#1877,.T.);
#1829 = FACE_BOUND('',#1830,.T.);
#1830 = EDGE_LOOP('',(#1831,#1837,#1838,#1847,#1853,#1854));
#1831 = ORIENTED_EDGE('',*,*,#1832,.T.);
#1832 = EDGE_CURVE('',#1112,#1274,#1833,.T.);
#1833 = LINE('',#1834,#1835);
#1834 = CARTESIAN_POINT('',(120.,-2.,17.));
#1835 = VECTOR('',#1836,1.);
#1836 = DIRECTION('',(-1.,-0.,-0.));
#1837 = ORIENTED_EDGE('',*,*,#1298,.T.);
#1838 = ORIENTED_EDGE('',*,*,#1839,.T.);
#1839 = EDGE_CURVE('',#1299,#1840,#1842,.T.);
#1840 = VERTEX_POINT('',#1841);
#1841 = CARTESIAN_POINT('',(3.,-11.5,17.));
#1842 = CIRCLE('',#1843,2.5);
#1843 = AXIS2_PLACEMENT_3D('',#1844,#1845,#1846);
#1844 = CARTESIAN_POINT('',(3.,-9.,17.));
#1845 = DIRECTION('',(6.232073083112E-48,2.6E-16,1.));
#1846 = DIRECTION('',(-1.,-5.9E-16,1.534E-31));
#1847 = ORIENTED_EDGE('',*,*,#1848,.T.);
#1848 = EDGE_CURVE('',#1840,#1754,#1849,.T.);
#1849 = LINE('',#1850,#1851);
#1850 = CARTESIAN_POINT('',(3.,-11.5,17.));
#1851 = VECTOR('',#1852,1.);
#1852 = DIRECTION('',(1.,0.,0.));
#1853 = ORIENTED_EDGE('',*,*,#1761,.T.);
#1854 = ORIENTED_EDGE('',*,*,#1111,.T.);
#1855 = FACE_BOUND('',#1856,.T.);
#1856 = EDGE_LOOP('',(#1857));
#1857 = ORIENTED_EDGE('',*,*,#1858,.F.);
#1858 = EDGE_CURVE('',#1859,#1859,#1861,.T.);
#1859 = VERTEX_POINT('',#1860);
#1860 = CARTESIAN_POINT('',(103.50000000001,-6.,17.));
#1861 = CIRCLE('',#1862,3.5);
#1862 = AXIS2_PLACEMENT_3D('',#1863,#1864,#1865);
#1863 = CARTESIAN_POINT('',(100.00000000001,-6.,17.));
#1864 = DIRECTION('',(0.,0.,1.));
#1865 = DIRECTION('',(1.,0.,0.));
#1866 = FACE_BOUND('',#1867,.T.);
#1867 = EDGE_LOOP('',(#1868));
#1868 = ORIENTED_EDGE('',*,*,#1869,.F.);
#1869 = EDGE_CURVE('',#1870,#1870,#1872,.T.);
#1870 = VERTEX_POINT('',#1871);
#1871 = CARTESIAN_POINT('',(23.500000000015,-6.,17.));
#1872 = CIRCLE('',#1873,3.5);
#1873 = AXIS2_PLACEMENT_3D('',#1874,#1875,#1876);
#1874 = CARTESIAN_POINT('',(20.000000000015,-6.,17.));
#1875 = DIRECTION('',(0.,0.,1.));
#1876 = DIRECTION('',(1.,0.,0.));
#1877 = PLANE('',#1878);
#1878 = AXIS2_PLACEMENT_3D('',#1879,#1880,#1881);
#1879 = CARTESIAN_POINT('',(60.,-5.,17.));
#1880 = DIRECTION('',(0.,2.6E-16,1.));
#1881 = DIRECTION('',(0.,1.,-2.6E-16));
#1882 = ADVANCED_FACE('',(#1883),#1889,.F.);
#1883 = FACE_BOUND('',#1884,.T.);
#1884 = EDGE_LOOP('',(#1885,#1886,#1887,#1888));
#1885 = ORIENTED_EDGE('',*,*,#1832,.F.);
#1886 = ORIENTED_EDGE('',*,*,#1135,.T.);
#1887 = ORIENTED_EDGE('',*,*,#1800,.T.);
#1888 = ORIENTED_EDGE('',*,*,#1273,.T.);
#1889 = CYLINDRICAL_SURFACE('',#1890,1.);
#1890 = AXIS2_PLACEMENT_3D('',#1891,#1892,#1893);
#1891 = CARTESIAN_POINT('',(120.,-2.,18.));
#1892 = DIRECTION('',(-1.,-0.,-0.));
#1893 = DIRECTION('',(0.,-2.6E-16,-1.));
#1894 = ADVANCED_FACE('',(#1895),#1906,.T.);
#1895 = FACE_BOUND('',#1896,.T.);
#1896 = EDGE_LOOP('',(#1897,#1903,#1904,#1905));
#1897 = ORIENTED_EDGE('',*,*,#1898,.F.);
#1898 = EDGE_CURVE('',#1154,#1650,#1899,.T.);
#1899 = LINE('',#1900,#1901);
#1900 = CARTESIAN_POINT('',(3.,1.75,-6.75));
#1901 = VECTOR('',#1902,1.);
#1902 = DIRECTION('',(0.,0.707106781187,0.707106781187));
#1903 = ORIENTED_EDGE('',*,*,#1153,.T.);
#1904 = ORIENTED_EDGE('',*,*,#1177,.T.);
#1905 = ORIENTED_EDGE('',*,*,#1657,.F.);
#1906 = CONICAL_SURFACE('',#1907,3.,0.785398163397);
#1907 = AXIS2_PLACEMENT_3D('',#1908,#1909,#1910);
#1908 = CARTESIAN_POINT('',(3.,1.5,-4.));
#1909 = DIRECTION('',(-0.,-1.,-0.));
#1910 = DIRECTION('',(-4.4E-16,0.,-1.));
#1911 = ADVANCED_FACE('',(#1912),#1923,.T.);
#1912 = FACE_BOUND('',#1913,.T.);
#1913 = EDGE_LOOP('',(#1914,#1915,#1916,#1922));
#1914 = ORIENTED_EDGE('',*,*,#1186,.F.);
#1915 = ORIENTED_EDGE('',*,*,#1209,.T.);
#1916 = ORIENTED_EDGE('',*,*,#1917,.T.);
#1917 = EDGE_CURVE('',#1210,#1666,#1918,.T.);
#1918 = LINE('',#1919,#1920);
#1919 = CARTESIAN_POINT('',(3.,1.5,22.));
#1920 = VECTOR('',#1921,1.);
#1921 = DIRECTION('',(4.E-17,0.707106781187,-0.707106781187));
#1922 = ORIENTED_EDGE('',*,*,#1665,.F.);
#1923 = CONICAL_SURFACE('',#1924,3.,0.785398163397);
#1924 = AXIS2_PLACEMENT_3D('',#1925,#1926,#1927);
#1925 = CARTESIAN_POINT('',(3.,1.5,19.));
#1926 = DIRECTION('',(-0.,-1.,-0.));
#1927 = DIRECTION('',(-1.,0.,0.));
#1928 = ADVANCED_FACE('',(#1929),#1940,.T.);
#1929 = FACE_BOUND('',#1930,.F.);
#1930 = EDGE_LOOP('',(#1931,#1937,#1938,#1939));
#1931 = ORIENTED_EDGE('',*,*,#1932,.F.);
#1932 = EDGE_CURVE('',#1809,#1219,#1933,.T.);
#1933 = LINE('',#1934,#1935);
#1934 = CARTESIAN_POINT('',(3.,-0.75,21.75));
#1935 = VECTOR('',#1936,1.);
#1936 = DIRECTION('',(0.,0.707106781187,0.707106781187));
#1937 = ORIENTED_EDGE('',*,*,#1816,.T.);
#1938 = ORIENTED_EDGE('',*,*,#1241,.T.);
#1939 = ORIENTED_EDGE('',*,*,#1226,.F.);
#1940 = CONICAL_SURFACE('',#1941,3.,0.785398163397);
#1941 = AXIS2_PLACEMENT_3D('',#1942,#1943,#1944);
#1942 = CARTESIAN_POINT('',(3.,-0.5,19.));
#1943 = DIRECTION('',(0.,1.,0.));
#1944 = DIRECTION('',(-3.E-16,0.,1.));
#1945 = ADVANCED_FACE('',(#1946),#1957,.T.);
#1946 = FACE_BOUND('',#1947,.F.);
#1947 = EDGE_LOOP('',(#1948,#1949,#1950,#1956));
#1948 = ORIENTED_EDGE('',*,*,#1306,.F.);
#1949 = ORIENTED_EDGE('',*,*,#1839,.T.);
#1950 = ORIENTED_EDGE('',*,*,#1951,.T.);
#1951 = EDGE_CURVE('',#1840,#1356,#1952,.T.);
#1952 = LINE('',#1953,#1954);
#1953 = CARTESIAN_POINT('',(3.,-11.75,16.75));
#1954 = VECTOR('',#1955,1.);
#1955 = DIRECTION('',(-0.,-0.707106781187,-0.707106781187));
#1956 = ORIENTED_EDGE('',*,*,#1363,.F.);
#1957 = CONICAL_SURFACE('',#1958,3.,0.785398163397);
#1958 = AXIS2_PLACEMENT_3D('',#1959,#1960,#1961);
#1959 = CARTESIAN_POINT('',(3.,-9.,16.5));
#1960 = DIRECTION('',(-0.,-2.6E-16,-1.));
#1961 = DIRECTION('',(-1.,-5.9E-16,1.534E-31));
#1962 = ADVANCED_FACE('',(#1963),#1974,.T.);
#1963 = FACE_BOUND('',#1964,.T.);
#1964 = EDGE_LOOP('',(#1965,#1971,#1972,#1973));
#1965 = ORIENTED_EDGE('',*,*,#1966,.F.);
#1966 = EDGE_CURVE('',#1347,#1552,#1967,.T.);
#1967 = LINE('',#1968,#1969);
#1968 = CARTESIAN_POINT('',(3.,-11.75,15.25));
#1969 = VECTOR('',#1970,1.);
#1970 = DIRECTION('',(0.,0.707106781187,-0.707106781187));
#1971 = ORIENTED_EDGE('',*,*,#1346,.T.);
#1972 = ORIENTED_EDGE('',*,*,#1378,.T.);
#1973 = ORIENTED_EDGE('',*,*,#1559,.F.);
#1974 = CONICAL_SURFACE('',#1975,3.,0.785398163397);
#1975 = AXIS2_PLACEMENT_3D('',#1976,#1977,#1978);
#1976 = CARTESIAN_POINT('',(3.,-9.,15.5));
#1977 = DIRECTION('',(0.,2.2E-16,1.));
#1978 = DIRECTION('',(-4.4E-16,-1.,2.2E-16));
#1979 = ADVANCED_FACE('',(#1980),#1986,.F.);
#1980 = FACE_BOUND('',#1981,.T.);
#1981 = EDGE_LOOP('',(#1982,#1983,#1984,#1985));
#1982 = ORIENTED_EDGE('',*,*,#1599,.F.);
#1983 = ORIENTED_EDGE('',*,*,#1470,.T.);
#1984 = ORIENTED_EDGE('',*,*,#1898,.T.);
#1985 = ORIENTED_EDGE('',*,*,#1649,.F.);
#1986 = PLANE('',#1987);
#1987 = AXIS2_PLACEMENT_3D('',#1988,#1989,#1990);
#1988 = CARTESIAN_POINT('',(117.,1.75,-6.75));
#1989 = DIRECTION('',(0.,-0.707106781187,0.707106781187));
#1990 = DIRECTION('',(1.,0.,0.));
#1991 = ADVANCED_FACE('',(#1992),#1998,.F.);
#1992 = FACE_BOUND('',#1993,.T.);
#1993 = EDGE_LOOP('',(#1994,#1995,#1996,#1997));
#1994 = ORIENTED_EDGE('',*,*,#1691,.F.);
#1995 = ORIENTED_EDGE('',*,*,#1779,.T.);
#1996 = ORIENTED_EDGE('',*,*,#1966,.T.);
#1997 = ORIENTED_EDGE('',*,*,#1551,.F.);
#1998 = PLANE('',#1999);
#1999 = AXIS2_PLACEMENT_3D('',#2000,#2001,#2002);
#2000 = CARTESIAN_POINT('',(117.,-11.75,15.25));
#2001 = DIRECTION('',(0.,0.707106781187,0.707106781187));
#2002 = DIRECTION('',(1.,0.,0.));
#2003 = ADVANCED_FACE('',(#2004),#2023,.F.);
#2004 = FACE_BOUND('',#2005,.T.);
#2005 = EDGE_LOOP('',(#2006,#2014,#2021,#2022));
#2006 = ORIENTED_EDGE('',*,*,#2007,.F.);
#2007 = EDGE_CURVE('',#2008,#1570,#2010,.T.);
#2008 = VERTEX_POINT('',#2009);
#2009 = CARTESIAN_POINT('',(101.50000000001,-6.,16.));
#2010 = LINE('',#2011,#2012);
#2011 = CARTESIAN_POINT('',(101.50000000001,-6.,16.));
#2012 = VECTOR('',#2013,1.);
#2013 = DIRECTION('',(-6.E-17,0.,-1.));
#2014 = ORIENTED_EDGE('',*,*,#2015,.T.);
#2015 = EDGE_CURVE('',#2008,#2008,#2016,.T.);
#2016 = CIRCLE('',#2017,1.5);
#2017 = AXIS2_PLACEMENT_3D('',#2018,#2019,#2020);
#2018 = CARTESIAN_POINT('',(100.00000000001,-6.,16.));
#2019 = DIRECTION('',(0.,0.,1.));
#2020 = DIRECTION('',(1.,0.,0.));
#2021 = ORIENTED_EDGE('',*,*,#2007,.T.);
#2022 = ORIENTED_EDGE('',*,*,#1569,.T.);
#2023 = CYLINDRICAL_SURFACE('',#2024,1.5);
#2024 = AXIS2_PLACEMENT_3D('',#2025,#2026,#2027);
#2025 = CARTESIAN_POINT('',(100.00000000001,-6.,16.));
#2026 = DIRECTION('',(-0.,-0.,-1.));
#2027 = DIRECTION('',(1.,0.,0.));
#2028 = ADVANCED_FACE('',(#2029),#2048,.F.);
#2029 = FACE_BOUND('',#2030,.T.);
#2030 = EDGE_LOOP('',(#2031,#2039,#2046,#2047));
#2031 = ORIENTED_EDGE('',*,*,#2032,.F.);
#2032 = EDGE_CURVE('',#2033,#1581,#2035,.T.);
#2033 = VERTEX_POINT('',#2034);
#2034 = CARTESIAN_POINT('',(21.500000000015,-6.,16.));
#2035 = LINE('',#2036,#2037);
#2036 = CARTESIAN_POINT('',(21.500000000015,-6.,16.));
#2037 = VECTOR('',#2038,1.);
#2038 = DIRECTION('',(-6.E-17,0.,-1.));
#2039 = ORIENTED_EDGE('',*,*,#2040,.T.);
#2040 = EDGE_CURVE('',#2033,#2033,#2041,.T.);
#2041 = CIRCLE('',#2042,1.5);
#2042 = AXIS2_PLACEMENT_3D('',#2043,#2044,#2045);
#2043 = CARTESIAN_POINT('',(20.000000000015,-6.,16.));
#2044 = DIRECTION('',(0.,0.,1.));
#2045 = DIRECTION('',(1.,0.,0.));
#2046 = ORIENTED_EDGE('',*,*,#2032,.T.);
#2047 = ORIENTED_EDGE('',*,*,#1580,.T.);
#2048 = CYLINDRICAL_SURFACE('',#2049,1.5);
#2049 = AXIS2_PLACEMENT_3D('',#2050,#2051,#2052);
#2050 = CARTESIAN_POINT('',(20.000000000015,-6.,16.));
#2051 = DIRECTION('',(-0.,-0.,-1.));
#2052 = DIRECTION('',(1.,0.,0.));
#2053 = ADVANCED_FACE('',(#2054),#2060,.T.);
#2054 = FACE_BOUND('',#2055,.T.);
#2055 = EDGE_LOOP('',(#2056,#2057,#2058,#2059));
#2056 = ORIENTED_EDGE('',*,*,#1917,.F.);
#2057 = ORIENTED_EDGE('',*,*,#1732,.T.);
#2058 = ORIENTED_EDGE('',*,*,#1622,.T.);
#2059 = ORIENTED_EDGE('',*,*,#1674,.F.);
#2060 = PLANE('',#2061);
#2061 = AXIS2_PLACEMENT_3D('',#2062,#2063,#2064);
#2062 = CARTESIAN_POINT('',(3.,1.75,21.75));
#2063 = DIRECTION('',(0.,0.707106781187,0.707106781187));
#2064 = DIRECTION('',(1.,0.,0.));
#2065 = ADVANCED_FACE('',(#2066),#2072,.T.);
#2066 = FACE_BOUND('',#2067,.F.);
#2067 = EDGE_LOOP('',(#2068,#2069,#2070,#2071));
#2068 = ORIENTED_EDGE('',*,*,#1716,.F.);
#2069 = ORIENTED_EDGE('',*,*,#1808,.T.);
#2070 = ORIENTED_EDGE('',*,*,#1932,.T.);
#2071 = ORIENTED_EDGE('',*,*,#1739,.F.);
#2072 = PLANE('',#2073);
#2073 = AXIS2_PLACEMENT_3D('',#2074,#2075,#2076);
#2074 = CARTESIAN_POINT('',(117.,-0.75,21.75));
#2075 = DIRECTION('',(0.,-0.707106781187,0.707106781187));
#2076 = DIRECTION('',(1.,0.,0.));
#2077 = ADVANCED_FACE('',(#2078),#2084,.F.);
#2078 = FACE_BOUND('',#2079,.F.);
#2079 = EDGE_LOOP('',(#2080,#2081,#2082,#2083));
#2080 = ORIENTED_EDGE('',*,*,#1951,.F.);
#2081 = ORIENTED_EDGE('',*,*,#1848,.T.);
#2082 = ORIENTED_EDGE('',*,*,#1753,.T.);
#2083 = ORIENTED_EDGE('',*,*,#1786,.F.);
#2084 = PLANE('',#2085);
#2085 = AXIS2_PLACEMENT_3D('',#2086,#2087,#2088);
#2086 = CARTESIAN_POINT('',(3.,-11.75,16.75));
#2087 = DIRECTION('',(0.,0.707106781187,-0.707106781187));
#2088 = DIRECTION('',(1.,0.,0.));
#2089 = ADVANCED_FACE('',(#2090),#2109,.F.);
#2090 = FACE_BOUND('',#2091,.T.);
#2091 = EDGE_LOOP('',(#2092,#2100,#2101,#2102));
#2092 = ORIENTED_EDGE('',*,*,#2093,.F.);
#2093 = EDGE_CURVE('',#1859,#2094,#2096,.T.);
#2094 = VERTEX_POINT('',#2095);
#2095 = CARTESIAN_POINT('',(103.50000000001,-6.,16.));
#2096 = LINE('',#2097,#2098);
#2097 = CARTESIAN_POINT('',(103.50000000001,-6.,17.));
#2098 = VECTOR('',#2099,1.);
#2099 = DIRECTION('',(0.,0.,-1.));
#2100 = ORIENTED_EDGE('',*,*,#1858,.T.);
#2101 = ORIENTED_EDGE('',*,*,#2093,.T.);
#2102 = ORIENTED_EDGE('',*,*,#2103,.F.);
#2103 = EDGE_CURVE('',#2094,#2094,#2104,.T.);
#2104 = CIRCLE('',#2105,3.5);
#2105 = AXIS2_PLACEMENT_3D('',#2106,#2107,#2108);
#2106 = CARTESIAN_POINT('',(100.00000000001,-6.,16.));
#2107 = DIRECTION('',(0.,0.,1.));
#2108 = DIRECTION('',(1.,0.,0.));
#2109 = CYLINDRICAL_SURFACE('',#2110,3.5);
#2110 = AXIS2_PLACEMENT_3D('',#2111,#2112,#2113);
#2111 = CARTESIAN_POINT('',(100.00000000001,-6.,17.));
#2112 = DIRECTION('',(-0.,-0.,-1.));
#2113 = DIRECTION('',(1.,0.,0.));
#2114 = ADVANCED_FACE('',(#2115),#2134,.F.);
#2115 = FACE_BOUND('',#2116,.T.);
#2116 = EDGE_LOOP('',(#2117,#2125,#2126,#2127));
#2117 = ORIENTED_EDGE('',*,*,#2118,.F.);
#2118 = EDGE_CURVE('',#1870,#2119,#2121,.T.);
#2119 = VERTEX_POINT('',#2120);
#2120 = CARTESIAN_POINT('',(23.500000000015,-6.,16.));
#2121 = LINE('',#2122,#2123);
#2122 = CARTESIAN_POINT('',(23.500000000015,-6.,17.));
#2123 = VECTOR('',#2124,1.);
#2124 = DIRECTION('',(0.,0.,-1.));
#2125 = ORIENTED_EDGE('',*,*,#1869,.T.);
#2126 = ORIENTED_EDGE('',*,*,#2118,.T.);
#2127 = ORIENTED_EDGE('',*,*,#2128,.F.);
#2128 = EDGE_CURVE('',#2119,#2119,#2129,.T.);
#2129 = CIRCLE('',#2130,3.5);
#2130 = AXIS2_PLACEMENT_3D('',#2131,#2132,#2133);
#2131 = CARTESIAN_POINT('',(20.000000000015,-6.,16.));
#2132 = DIRECTION('',(0.,0.,1.));
#2133 = DIRECTION('',(1.,0.,0.));
#2134 = CYLINDRICAL_SURFACE('',#2135,3.5);
#2135 = AXIS2_PLACEMENT_3D('',#2136,#2137,#2138);
#2136 = CARTESIAN_POINT('',(20.000000000015,-6.,17.));
#2137 = DIRECTION('',(-0.,-0.,-1.));
#2138 = DIRECTION('',(1.,0.,0.));
#2139 = ADVANCED_FACE('',(#2140,#2143),#2146,.T.);
#2140 = FACE_BOUND('',#2141,.T.);
#2141 = EDGE_LOOP('',(#2142));
#2142 = ORIENTED_EDGE('',*,*,#2103,.T.);
#2143 = FACE_BOUND('',#2144,.T.);
#2144 = EDGE_LOOP('',(#2145));
#2145 = ORIENTED_EDGE('',*,*,#2015,.F.);
#2146 = PLANE('',#2147);
#2147 = AXIS2_PLACEMENT_3D('',#2148,#2149,#2150);
#2148 = CARTESIAN_POINT('',(100.00000000001,-6.,16.));
#2149 = DIRECTION('',(0.,0.,1.));
#2150 = DIRECTION('',(1.,0.,0.));
#2151 = ADVANCED_FACE('',(#2152,#2155),#2158,.T.);
#2152 = FACE_BOUND('',#2153,.T.);
#2153 = EDGE_LOOP('',(#2154));
#2154 = ORIENTED_EDGE('',*,*,#2128,.T.);
#2155 = FACE_BOUND('',#2156,.T.);
#2156 = EDGE_LOOP('',(#2157));
#2157 = ORIENTED_EDGE('',*,*,#2040,.F.);
#2158 = PLANE('',#2159);
#2159 = AXIS2_PLACEMENT_3D('',#2160,#2161,#2162);
#2160 = CARTESIAN_POINT('',(20.000000000015,-6.,16.));
#2161 = DIRECTION('',(0.,0.,1.));
#2162 = DIRECTION('',(1.,0.,0.));
#2163 = ADVANCED_FACE('',(#2164),#2176,.F.);
#2164 = FACE_BOUND('',#2165,.T.);
#2165 = EDGE_LOOP('',(#2166,#2167,#2172,#2173,#2174,#2175));
#2166 = ORIENTED_EDGE('',*,*,#703,.T.);
#2167 = ORIENTED_EDGE('',*,*,#2168,.T.);
#2168 = EDGE_CURVE('',#693,#1495,#2169,.T.);
#2169 = B_SPLINE_CURVE_WITH_KNOTS('',1,(#2170,#2171),.UNSPECIFIED.,.F.,
  .F.,(2,2),(0.,1.),.PIECEWISE_BEZIER_KNOTS.);
#2170 = CARTESIAN_POINT('',(98.500000000015,-6.,-1.));
#2171 = CARTESIAN_POINT('',(98.500000000015,-6.,1.33E-15));
#2172 = ORIENTED_EDGE('',*,*,#1494,.T.);
#2173 = ORIENTED_EDGE('',*,*,#1505,.T.);
#2174 = ORIENTED_EDGE('',*,*,#2168,.F.);
#2175 = ORIENTED_EDGE('',*,*,#692,.T.);
#2176 = CYLINDRICAL_SURFACE('',#2177,1.5);
#2177 = AXIS2_PLACEMENT_3D('',#2178,#2179,#2180);
#2178 = CARTESIAN_POINT('',(100.00000000001,-6.,-1.));
#2179 = DIRECTION('',(0.,0.,1.));
#2180 = DIRECTION('',(-1.,0.,0.));
#2181 = ADVANCED_FACE('',(#2182),#2194,.F.);
#2182 = FACE_BOUND('',#2183,.T.);
#2183 = EDGE_LOOP('',(#2184,#2185,#2186,#2191,#2192,#2193));
#2184 = ORIENTED_EDGE('',*,*,#1514,.T.);
#2185 = ORIENTED_EDGE('',*,*,#1525,.T.);
#2186 = ORIENTED_EDGE('',*,*,#2187,.F.);
#2187 = EDGE_CURVE('',#722,#1515,#2188,.T.);
#2188 = B_SPLINE_CURVE_WITH_KNOTS('',1,(#2189,#2190),.UNSPECIFIED.,.F.,
  .F.,(2,2),(0.,1.),.PIECEWISE_BEZIER_KNOTS.);
#2189 = CARTESIAN_POINT('',(18.500000000015,-6.,-1.));
#2190 = CARTESIAN_POINT('',(18.500000000015,-6.,1.33E-15));
#2191 = ORIENTED_EDGE('',*,*,#721,.T.);
#2192 = ORIENTED_EDGE('',*,*,#732,.T.);
#2193 = ORIENTED_EDGE('',*,*,#2187,.T.);
#2194 = CYLINDRICAL_SURFACE('',#2195,1.5);
#2195 = AXIS2_PLACEMENT_3D('',#2196,#2197,#2198);
#2196 = CARTESIAN_POINT('',(20.000000000015,-6.,-1.));
#2197 = DIRECTION('',(0.,0.,1.));
#2198 = DIRECTION('',(-1.,0.,0.));
#2199 = ( GEOMETRIC_REPRESENTATION_CONTEXT(3) 
GLOBAL_UNCERTAINTY_ASSIGNED_CONTEXT((#2203)) 
GLOBAL_UNIT_ASSIGNED_CONTEXT((#2200,#2201,#2202)) REPRESENTATION_CONTEXT
('Context #1','3D Context with UNIT and UNCERTAINTY') );
#2200 = ( LENGTH_UNIT() NAMED_UNIT(*) SI_UNIT(.MILLI.,.METRE.) );
#2201 = ( NAMED_UNIT(*) PLANE_ANGLE_UNIT() SI_UNIT($,.RADIAN.) );
#2202 = ( NAMED_UNIT(*) SI_UNIT($,.STERADIAN.) SOLID_ANGLE_UNIT() );
#2203 = UNCERTAINTY_MEASURE_WITH_UNIT(LENGTH_MEASURE(5.E-07),#2200,
  'distance_accuracy_value','confusion accuracy');
#2204 = PRODUCT_RELATED_PRODUCT_CATEGORY('part',$,(#7));
#2205 = MECHANICAL_DESIGN_GEOMETRIC_PRESENTATION_REPRESENTATION('',(
    #2206),#2199);
#2206 = STYLED_ITEM('color',(#2207),#15);
#2207 = PRESENTATION_STYLE_ASSIGNMENT((#2208,#2214));
#2208 = SURFACE_STYLE_USAGE(.BOTH.,#2209);
#2209 = SURFACE_SIDE_STYLE('',(#2210));
#2210 = SURFACE_STYLE_FILL_AREA(#2211);
#2211 = FILL_AREA_STYLE('',(#2212));
#2212 = FILL_AREA_STYLE_COLOUR('',#2213);
#2213 = COLOUR_RGB('',0.447058818107,0.474509808674,0.501960817233);
#2214 = CURVE_STYLE('',#2215,POSITIVE_LENGTH_MEASURE(0.1),#2216);
#2215 = DRAUGHTING_PRE_DEFINED_CURVE_FONT('continuous');
#2216 = COLOUR_RGB('',9.803921802644E-02,9.803921802644E-02,
  9.803921802644E-02);
ENDSEC;
END-ISO-10303-21;
