ISO-10303-21;
HEADER;
FILE_DESCRIPTION(('FreeCAD Model'),'2;1');
FILE_NAME('Open CASCADE Shape Model','2026-04-23T10:05:50',(''),(''),
  'Open CASCADE STEP processor 7.8','FreeCAD','Unknown');
FILE_SCHEMA(('AUTOMOTIVE_DESIGN { 1 0 10303 214 1 1 1 1 }'));
ENDSEC;
DATA;
#1 = APPLICATION_PROTOCOL_DEFINITION('international standard',
  'automotive_design',2000,#2);
#2 = APPLICATION_CONTEXT(
  'core data for automotive mechanical design processes');
#3 = SHAPE_DEFINITION_REPRESENTATION(#4,#10);
#4 = PRODUCT_DEFINITION_SHAPE('','',#5);
#5 = PRODUCT_DEFINITION('design','',#6,#9);
#6 = PRODUCT_DEFINITION_FORMATION('','',#7);
#7 = PRODUCT('Body','Body','',(#8));
#8 = PRODUCT_CONTEXT('',#2,'mechanical');
#9 = PRODUCT_DEFINITION_CONTEXT('part definition',#2,'design');
#10 = ADVANCED_BREP_SHAPE_REPRESENTATION('',(#11,#15),#1135);
#11 = AXIS2_PLACEMENT_3D('',#12,#13,#14);
#12 = CARTESIAN_POINT('',(0.,0.,0.));
#13 = DIRECTION('',(0.,0.,1.));
#14 = DIRECTION('',(1.,0.,-0.));
#15 = MANIFOLD_SOLID_BREP('',#16);
#16 = CLOSED_SHELL('',(#17,#105,#138,#169,#262,#414,#439,#470,#494,#639,
    #655,#679,#733,#758,#798,#823,#840,#857,#874,#891,#908,#925,#937,
    #954,#971,#983,#1000,#1017,#1034,#1046,#1062,#1079,#1096,#1113,#1124
    ));
#17 = ADVANCED_FACE('',(#18),#100,.F.);
#18 = FACE_BOUND('',#19,.F.);
#19 = EDGE_LOOP('',(#20,#30,#38,#46,#54,#62,#70,#78,#86,#94));
#20 = ORIENTED_EDGE('',*,*,#21,.F.);
#21 = EDGE_CURVE('',#22,#24,#26,.T.);
#22 = VERTEX_POINT('',#23);
#23 = CARTESIAN_POINT('',(-14.,35.,1.));
#24 = VERTEX_POINT('',#25);
#25 = CARTESIAN_POINT('',(-14.,35.,6.));
#26 = LINE('',#27,#28);
#27 = CARTESIAN_POINT('',(-14.,35.,0.));
#28 = VECTOR('',#29,1.);
#29 = DIRECTION('',(0.,0.,1.));
#30 = ORIENTED_EDGE('',*,*,#31,.F.);
#31 = EDGE_CURVE('',#32,#22,#34,.T.);
#32 = VERTEX_POINT('',#33);
#33 = CARTESIAN_POINT('',(-12.5,35.,1.));
#34 = LINE('',#35,#36);
#35 = CARTESIAN_POINT('',(-12.5,35.,1.));
#36 = VECTOR('',#37,1.);
#37 = DIRECTION('',(-1.,0.,0.));
#38 = ORIENTED_EDGE('',*,*,#39,.T.);
#39 = EDGE_CURVE('',#32,#40,#42,.T.);
#40 = VERTEX_POINT('',#41);
#41 = CARTESIAN_POINT('',(-12.5,35.,2.));
#42 = LINE('',#43,#44);
#43 = CARTESIAN_POINT('',(-12.5,35.,0.));
#44 = VECTOR('',#45,1.);
#45 = DIRECTION('',(0.,0.,1.));
#46 = ORIENTED_EDGE('',*,*,#47,.T.);
#47 = EDGE_CURVE('',#40,#48,#50,.T.);
#48 = VERTEX_POINT('',#49);
#49 = CARTESIAN_POINT('',(-12.5,35.,3.));
#50 = LINE('',#51,#52);
#51 = CARTESIAN_POINT('',(-12.5,35.,1.882911392405));
#52 = VECTOR('',#53,1.);
#53 = DIRECTION('',(0.,0.,1.));
#54 = ORIENTED_EDGE('',*,*,#55,.T.);
#55 = EDGE_CURVE('',#48,#56,#58,.T.);
#56 = VERTEX_POINT('',#57);
#57 = CARTESIAN_POINT('',(12.5,35.,3.));
#58 = LINE('',#59,#60);
#59 = CARTESIAN_POINT('',(-12.5,35.,3.));
#60 = VECTOR('',#61,1.);
#61 = DIRECTION('',(1.,0.,0.));
#62 = ORIENTED_EDGE('',*,*,#63,.F.);
#63 = EDGE_CURVE('',#64,#56,#66,.T.);
#64 = VERTEX_POINT('',#65);
#65 = CARTESIAN_POINT('',(12.5,35.,2.));
#66 = LINE('',#67,#68);
#67 = CARTESIAN_POINT('',(12.5,35.,1.882911392405));
#68 = VECTOR('',#69,1.);
#69 = DIRECTION('',(0.,0.,1.));
#70 = ORIENTED_EDGE('',*,*,#71,.F.);
#71 = EDGE_CURVE('',#72,#64,#74,.T.);
#72 = VERTEX_POINT('',#73);
#73 = CARTESIAN_POINT('',(12.5,35.,1.));
#74 = LINE('',#75,#76);
#75 = CARTESIAN_POINT('',(12.5,35.,0.));
#76 = VECTOR('',#77,1.);
#77 = DIRECTION('',(0.,0.,1.));
#78 = ORIENTED_EDGE('',*,*,#79,.F.);
#79 = EDGE_CURVE('',#80,#72,#82,.T.);
#80 = VERTEX_POINT('',#81);
#81 = CARTESIAN_POINT('',(14.,35.,1.));
#82 = LINE('',#83,#84);
#83 = CARTESIAN_POINT('',(14.,35.,1.));
#84 = VECTOR('',#85,1.);
#85 = DIRECTION('',(-1.,0.,0.));
#86 = ORIENTED_EDGE('',*,*,#87,.T.);
#87 = EDGE_CURVE('',#80,#88,#90,.T.);
#88 = VERTEX_POINT('',#89);
#89 = CARTESIAN_POINT('',(14.,35.,6.));
#90 = LINE('',#91,#92);
#91 = CARTESIAN_POINT('',(14.,35.,0.));
#92 = VECTOR('',#93,1.);
#93 = DIRECTION('',(0.,0.,1.));
#94 = ORIENTED_EDGE('',*,*,#95,.T.);
#95 = EDGE_CURVE('',#88,#24,#96,.T.);
#96 = LINE('',#97,#98);
#97 = CARTESIAN_POINT('',(15.,35.,6.));
#98 = VECTOR('',#99,1.);
#99 = DIRECTION('',(-1.,0.,0.));
#100 = PLANE('',#101);
#101 = AXIS2_PLACEMENT_3D('',#102,#103,#104);
#102 = CARTESIAN_POINT('',(15.,35.,0.));
#103 = DIRECTION('',(0.,-1.,0.));
#104 = DIRECTION('',(-1.,0.,0.));
#105 = ADVANCED_FACE('',(#106),#133,.T.);
#106 = FACE_BOUND('',#107,.T.);
#107 = EDGE_LOOP('',(#108,#109,#118,#126));
#108 = ORIENTED_EDGE('',*,*,#21,.F.);
#109 = ORIENTED_EDGE('',*,*,#110,.T.);
#110 = EDGE_CURVE('',#22,#111,#113,.T.);
#111 = VERTEX_POINT('',#112);
#112 = CARTESIAN_POINT('',(-15.,34.,1.));
#113 = CIRCLE('',#114,1.);
#114 = AXIS2_PLACEMENT_3D('',#115,#116,#117);
#115 = CARTESIAN_POINT('',(-14.,34.,1.));
#116 = DIRECTION('',(0.,-0.,1.));
#117 = DIRECTION('',(0.,1.,0.));
#118 = ORIENTED_EDGE('',*,*,#119,.T.);
#119 = EDGE_CURVE('',#111,#120,#122,.T.);
#120 = VERTEX_POINT('',#121);
#121 = CARTESIAN_POINT('',(-15.,34.,6.));
#122 = LINE('',#123,#124);
#123 = CARTESIAN_POINT('',(-15.,34.,0.));
#124 = VECTOR('',#125,1.);
#125 = DIRECTION('',(0.,0.,1.));
#126 = ORIENTED_EDGE('',*,*,#127,.F.);
#127 = EDGE_CURVE('',#24,#120,#128,.T.);
#128 = CIRCLE('',#129,1.);
#129 = AXIS2_PLACEMENT_3D('',#130,#131,#132);
#130 = CARTESIAN_POINT('',(-14.,34.,6.));
#131 = DIRECTION('',(-0.,0.,1.));
#132 = DIRECTION('',(0.,-1.,0.));
#133 = CYLINDRICAL_SURFACE('',#134,1.);
#134 = AXIS2_PLACEMENT_3D('',#135,#136,#137);
#135 = CARTESIAN_POINT('',(-14.,34.,0.));
#136 = DIRECTION('',(0.,0.,1.));
#137 = DIRECTION('',(0.,1.,0.));
#138 = ADVANCED_FACE('',(#139),#164,.T.);
#139 = FACE_BOUND('',#140,.T.);
#140 = EDGE_LOOP('',(#141,#149,#157,#163));
#141 = ORIENTED_EDGE('',*,*,#142,.F.);
#142 = EDGE_CURVE('',#143,#32,#145,.T.);
#143 = VERTEX_POINT('',#144);
#144 = CARTESIAN_POINT('',(-12.5,34.,1.E-15));
#145 = LINE('',#146,#147);
#146 = CARTESIAN_POINT('',(-12.5,26.691455696203,-7.308544303797));
#147 = VECTOR('',#148,1.);
#148 = DIRECTION('',(0.,0.707106781187,0.707106781187));
#149 = ORIENTED_EDGE('',*,*,#150,.T.);
#150 = EDGE_CURVE('',#143,#151,#153,.T.);
#151 = VERTEX_POINT('',#152);
#152 = CARTESIAN_POINT('',(-14.,34.,1.E-15));
#153 = LINE('',#154,#155);
#154 = CARTESIAN_POINT('',(-12.5,34.,0.));
#155 = VECTOR('',#156,1.);
#156 = DIRECTION('',(-1.,0.,0.));
#157 = ORIENTED_EDGE('',*,*,#158,.T.);
#158 = EDGE_CURVE('',#151,#22,#159,.T.);
#159 = LINE('',#160,#161);
#160 = CARTESIAN_POINT('',(-14.,34.5,0.5));
#161 = VECTOR('',#162,1.);
#162 = DIRECTION('',(-0.,0.707106781187,0.707106781187));
#163 = ORIENTED_EDGE('',*,*,#31,.F.);
#164 = PLANE('',#165);
#165 = AXIS2_PLACEMENT_3D('',#166,#167,#168);
#166 = CARTESIAN_POINT('',(-12.5,34.5,0.5));
#167 = DIRECTION('',(-1.E-17,0.707106781187,-0.707106781187));
#168 = DIRECTION('',(-1.,-7.071067811865E-18,7.071067811865E-18));
#169 = ADVANCED_FACE('',(#170,#223),#257,.T.);
#170 = FACE_BOUND('',#171,.T.);
#171 = EDGE_LOOP('',(#172,#180,#189,#197,#206,#214,#221,#222));
#172 = ORIENTED_EDGE('',*,*,#173,.T.);
#173 = EDGE_CURVE('',#120,#174,#176,.T.);
#174 = VERTEX_POINT('',#175);
#175 = CARTESIAN_POINT('',(-15.,-34.,6.));
#176 = LINE('',#177,#178);
#177 = CARTESIAN_POINT('',(-15.,35.,6.));
#178 = VECTOR('',#179,1.);
#179 = DIRECTION('',(0.,-1.,0.));
#180 = ORIENTED_EDGE('',*,*,#181,.T.);
#181 = EDGE_CURVE('',#174,#182,#184,.T.);
#182 = VERTEX_POINT('',#183);
#183 = CARTESIAN_POINT('',(-14.,-35.,6.));
#184 = CIRCLE('',#185,1.);
#185 = AXIS2_PLACEMENT_3D('',#186,#187,#188);
#186 = CARTESIAN_POINT('',(-14.,-34.,6.));
#187 = DIRECTION('',(-0.,0.,1.));
#188 = DIRECTION('',(0.,-1.,0.));
#189 = ORIENTED_EDGE('',*,*,#190,.T.);
#190 = EDGE_CURVE('',#182,#191,#193,.T.);
#191 = VERTEX_POINT('',#192);
#192 = CARTESIAN_POINT('',(14.,-35.,6.));
#193 = LINE('',#194,#195);
#194 = CARTESIAN_POINT('',(-15.,-35.,6.));
#195 = VECTOR('',#196,1.);
#196 = DIRECTION('',(1.,0.,0.));
#197 = ORIENTED_EDGE('',*,*,#198,.F.);
#198 = EDGE_CURVE('',#199,#191,#201,.T.);
#199 = VERTEX_POINT('',#200);
#200 = CARTESIAN_POINT('',(15.,-34.,6.));
#201 = CIRCLE('',#202,1.);
#202 = AXIS2_PLACEMENT_3D('',#203,#204,#205);
#203 = CARTESIAN_POINT('',(14.,-34.,6.));
#204 = DIRECTION('',(-0.,-0.,-1.));
#205 = DIRECTION('',(0.,-1.,0.));
#206 = ORIENTED_EDGE('',*,*,#207,.T.);
#207 = EDGE_CURVE('',#199,#208,#210,.T.);
#208 = VERTEX_POINT('',#209);
#209 = CARTESIAN_POINT('',(15.,34.,6.));
#210 = LINE('',#211,#212);
#211 = CARTESIAN_POINT('',(15.,-35.,6.));
#212 = VECTOR('',#213,1.);
#213 = DIRECTION('',(0.,1.,0.));
#214 = ORIENTED_EDGE('',*,*,#215,.F.);
#215 = EDGE_CURVE('',#88,#208,#216,.T.);
#216 = CIRCLE('',#217,1.);
#217 = AXIS2_PLACEMENT_3D('',#218,#219,#220);
#218 = CARTESIAN_POINT('',(14.,34.,6.));
#219 = DIRECTION('',(-0.,-0.,-1.));
#220 = DIRECTION('',(0.,-1.,0.));
#221 = ORIENTED_EDGE('',*,*,#95,.T.);
#222 = ORIENTED_EDGE('',*,*,#127,.T.);
#223 = FACE_BOUND('',#224,.T.);
#224 = EDGE_LOOP('',(#225,#235,#243,#251));
#225 = ORIENTED_EDGE('',*,*,#226,.F.);
#226 = EDGE_CURVE('',#227,#229,#231,.T.);
#227 = VERTEX_POINT('',#228);
#228 = CARTESIAN_POINT('',(-12.5,31.,6.));
#229 = VERTEX_POINT('',#230);
#230 = CARTESIAN_POINT('',(-12.5,-31.,6.));
#231 = LINE('',#232,#233);
#232 = CARTESIAN_POINT('',(-12.5,-27.,6.));
#233 = VECTOR('',#234,1.);
#234 = DIRECTION('',(0.,-1.,0.));
#235 = ORIENTED_EDGE('',*,*,#236,.F.);
#236 = EDGE_CURVE('',#237,#227,#239,.T.);
#237 = VERTEX_POINT('',#238);
#238 = CARTESIAN_POINT('',(12.5,31.,6.));
#239 = LINE('',#240,#241);
#240 = CARTESIAN_POINT('',(12.5,31.,6.));
#241 = VECTOR('',#242,1.);
#242 = DIRECTION('',(-1.,0.,0.));
#243 = ORIENTED_EDGE('',*,*,#244,.F.);
#244 = EDGE_CURVE('',#245,#237,#247,.T.);
#245 = VERTEX_POINT('',#246);
#246 = CARTESIAN_POINT('',(12.5,-31.,6.));
#247 = LINE('',#248,#249);
#248 = CARTESIAN_POINT('',(12.5,27.,6.));
#249 = VECTOR('',#250,1.);
#250 = DIRECTION('',(0.,1.,0.));
#251 = ORIENTED_EDGE('',*,*,#252,.F.);
#252 = EDGE_CURVE('',#229,#245,#253,.T.);
#253 = LINE('',#254,#255);
#254 = CARTESIAN_POINT('',(-12.5,-31.,6.));
#255 = VECTOR('',#256,1.);
#256 = DIRECTION('',(1.,0.,0.));
#257 = PLANE('',#258);
#258 = AXIS2_PLACEMENT_3D('',#259,#260,#261);
#259 = CARTESIAN_POINT('',(1.62E-15,0.,6.));
#260 = DIRECTION('',(0.,0.,1.));
#261 = DIRECTION('',(1.,0.,0.));
#262 = ADVANCED_FACE('',(#263),#409,.T.);
#263 = FACE_BOUND('',#264,.T.);
#264 = EDGE_LOOP('',(#265,#266,#267,#275,#283,#291,#297,#298,#306,#314,
    #322,#330,#338,#346,#354,#362,#370,#378,#386,#394,#402,#408));
#265 = ORIENTED_EDGE('',*,*,#39,.T.);
#266 = ORIENTED_EDGE('',*,*,#47,.T.);
#267 = ORIENTED_EDGE('',*,*,#268,.T.);
#268 = EDGE_CURVE('',#48,#269,#271,.T.);
#269 = VERTEX_POINT('',#270);
#270 = CARTESIAN_POINT('',(-12.5,34.,2.));
#271 = LINE('',#272,#273);
#272 = CARTESIAN_POINT('',(-12.5,26.191455696203,-5.808544303797));
#273 = VECTOR('',#274,1.);
#274 = DIRECTION('',(0.,-0.707106781187,-0.707106781187));
#275 = ORIENTED_EDGE('',*,*,#276,.F.);
#276 = EDGE_CURVE('',#277,#269,#279,.T.);
#277 = VERTEX_POINT('',#278);
#278 = CARTESIAN_POINT('',(-12.5,32.,2.));
#279 = LINE('',#280,#281);
#280 = CARTESIAN_POINT('',(-12.5,31.,2.));
#281 = VECTOR('',#282,1.);
#282 = DIRECTION('',(0.,1.,0.));
#283 = ORIENTED_EDGE('',*,*,#284,.T.);
#284 = EDGE_CURVE('',#277,#285,#287,.T.);
#285 = VERTEX_POINT('',#286);
#286 = CARTESIAN_POINT('',(-12.5,31.,3.));
#287 = LINE('',#288,#289);
#288 = CARTESIAN_POINT('',(-12.5,23.308544303797,10.691455696203));
#289 = VECTOR('',#290,1.);
#290 = DIRECTION('',(0.,-0.707106781187,0.707106781187));
#291 = ORIENTED_EDGE('',*,*,#292,.T.);
#292 = EDGE_CURVE('',#285,#227,#293,.T.);
#293 = LINE('',#294,#295);
#294 = CARTESIAN_POINT('',(-12.5,31.,0.));
#295 = VECTOR('',#296,1.);
#296 = DIRECTION('',(0.,0.,1.));
#297 = ORIENTED_EDGE('',*,*,#226,.T.);
#298 = ORIENTED_EDGE('',*,*,#299,.F.);
#299 = EDGE_CURVE('',#300,#229,#302,.T.);
#300 = VERTEX_POINT('',#301);
#301 = CARTESIAN_POINT('',(-12.5,-31.,3.));
#302 = LINE('',#303,#304);
#303 = CARTESIAN_POINT('',(-12.5,-31.,0.));
#304 = VECTOR('',#305,1.);
#305 = DIRECTION('',(0.,0.,1.));
#306 = ORIENTED_EDGE('',*,*,#307,.F.);
#307 = EDGE_CURVE('',#308,#300,#310,.T.);
#308 = VERTEX_POINT('',#309);
#309 = CARTESIAN_POINT('',(-12.5,-32.,2.));
#310 = LINE('',#311,#312);
#311 = CARTESIAN_POINT('',(-12.5,-23.30854430379,10.691455696203));
#312 = VECTOR('',#313,1.);
#313 = DIRECTION('',(0.,0.707106781187,0.707106781187));
#314 = ORIENTED_EDGE('',*,*,#315,.T.);
#315 = EDGE_CURVE('',#308,#316,#318,.T.);
#316 = VERTEX_POINT('',#317);
#317 = CARTESIAN_POINT('',(-12.5,-34.,2.));
#318 = LINE('',#319,#320);
#319 = CARTESIAN_POINT('',(-12.5,-31.,2.));
#320 = VECTOR('',#321,1.);
#321 = DIRECTION('',(0.,-1.,0.));
#322 = ORIENTED_EDGE('',*,*,#323,.F.);
#323 = EDGE_CURVE('',#324,#316,#326,.T.);
#324 = VERTEX_POINT('',#325);
#325 = CARTESIAN_POINT('',(-12.5,-35.,3.));
#326 = LINE('',#327,#328);
#327 = CARTESIAN_POINT('',(-12.5,-26.1914556962,-5.808544303797));
#328 = VECTOR('',#329,1.);
#329 = DIRECTION('',(0.,0.707106781187,-0.707106781187));
#330 = ORIENTED_EDGE('',*,*,#331,.F.);
#331 = EDGE_CURVE('',#332,#324,#334,.T.);
#332 = VERTEX_POINT('',#333);
#333 = CARTESIAN_POINT('',(-12.5,-35.,2.));
#334 = LINE('',#335,#336);
#335 = CARTESIAN_POINT('',(-12.5,-35.,1.882911392405));
#336 = VECTOR('',#337,1.);
#337 = DIRECTION('',(0.,0.,1.));
#338 = ORIENTED_EDGE('',*,*,#339,.F.);
#339 = EDGE_CURVE('',#340,#332,#342,.T.);
#340 = VERTEX_POINT('',#341);
#341 = CARTESIAN_POINT('',(-12.5,-35.,1.));
#342 = LINE('',#343,#344);
#343 = CARTESIAN_POINT('',(-12.5,-35.,0.));
#344 = VECTOR('',#345,1.);
#345 = DIRECTION('',(0.,0.,1.));
#346 = ORIENTED_EDGE('',*,*,#347,.F.);
#347 = EDGE_CURVE('',#348,#340,#350,.T.);
#348 = VERTEX_POINT('',#349);
#349 = CARTESIAN_POINT('',(-12.5,-34.,1.E-15));
#350 = LINE('',#351,#352);
#351 = CARTESIAN_POINT('',(-12.5,-26.6914556962,-7.308544303797));
#352 = VECTOR('',#353,1.);
#353 = DIRECTION('',(0.,-0.707106781187,0.707106781187));
#354 = ORIENTED_EDGE('',*,*,#355,.F.);
#355 = EDGE_CURVE('',#356,#348,#358,.T.);
#356 = VERTEX_POINT('',#357);
#357 = CARTESIAN_POINT('',(-12.5,-27.,0.));
#358 = LINE('',#359,#360);
#359 = CARTESIAN_POINT('',(-12.5,-27.,0.));
#360 = VECTOR('',#361,1.);
#361 = DIRECTION('',(0.,-1.,0.));
#362 = ORIENTED_EDGE('',*,*,#363,.T.);
#363 = EDGE_CURVE('',#356,#364,#366,.T.);
#364 = VERTEX_POINT('',#365);
#365 = CARTESIAN_POINT('',(-12.5,-27.,2.));
#366 = LINE('',#367,#368);
#367 = CARTESIAN_POINT('',(-12.5,-27.,0.));
#368 = VECTOR('',#369,1.);
#369 = DIRECTION('',(0.,0.,1.));
#370 = ORIENTED_EDGE('',*,*,#371,.T.);
#371 = EDGE_CURVE('',#364,#372,#374,.T.);
#372 = VERTEX_POINT('',#373);
#373 = CARTESIAN_POINT('',(-12.5,-26.,3.));
#374 = LINE('',#375,#376);
#375 = CARTESIAN_POINT('',(-12.5,-19.55854430379,9.441455696203));
#376 = VECTOR('',#377,1.);
#377 = DIRECTION('',(0.,0.707106781187,0.707106781187));
#378 = ORIENTED_EDGE('',*,*,#379,.F.);
#379 = EDGE_CURVE('',#380,#372,#382,.T.);
#380 = VERTEX_POINT('',#381);
#381 = CARTESIAN_POINT('',(-12.5,26.,3.));
#382 = LINE('',#383,#384);
#383 = CARTESIAN_POINT('',(-12.5,27.,3.));
#384 = VECTOR('',#385,1.);
#385 = DIRECTION('',(0.,-1.,0.));
#386 = ORIENTED_EDGE('',*,*,#387,.F.);
#387 = EDGE_CURVE('',#388,#380,#390,.T.);
#388 = VERTEX_POINT('',#389);
#389 = CARTESIAN_POINT('',(-12.5,27.,2.));
#390 = LINE('',#391,#392);
#391 = CARTESIAN_POINT('',(-12.5,19.558544303797,9.441455696203));
#392 = VECTOR('',#393,1.);
#393 = DIRECTION('',(0.,-0.707106781187,0.707106781187));
#394 = ORIENTED_EDGE('',*,*,#395,.F.);
#395 = EDGE_CURVE('',#396,#388,#398,.T.);
#396 = VERTEX_POINT('',#397);
#397 = CARTESIAN_POINT('',(-12.5,27.,0.));
#398 = LINE('',#399,#400);
#399 = CARTESIAN_POINT('',(-12.5,27.,0.));
#400 = VECTOR('',#401,1.);
#401 = DIRECTION('',(0.,0.,1.));
#402 = ORIENTED_EDGE('',*,*,#403,.T.);
#403 = EDGE_CURVE('',#396,#143,#404,.T.);
#404 = LINE('',#405,#406);
#405 = CARTESIAN_POINT('',(-12.5,31.,0.));
#406 = VECTOR('',#407,1.);
#407 = DIRECTION('',(0.,1.,0.));
#408 = ORIENTED_EDGE('',*,*,#142,.T.);
#409 = PLANE('',#410);
#410 = AXIS2_PLACEMENT_3D('',#411,#412,#413);
#411 = CARTESIAN_POINT('',(-12.5,0.,3.76582278481));
#412 = DIRECTION('',(1.,0.,0.));
#413 = DIRECTION('',(0.,0.,1.));
#414 = ADVANCED_FACE('',(#415),#434,.T.);
#415 = FACE_BOUND('',#416,.F.);
#416 = EDGE_LOOP('',(#417,#418,#427,#433));
#417 = ORIENTED_EDGE('',*,*,#87,.F.);
#418 = ORIENTED_EDGE('',*,*,#419,.F.);
#419 = EDGE_CURVE('',#420,#80,#422,.T.);
#420 = VERTEX_POINT('',#421);
#421 = CARTESIAN_POINT('',(15.,34.,1.));
#422 = CIRCLE('',#423,1.);
#423 = AXIS2_PLACEMENT_3D('',#424,#425,#426);
#424 = CARTESIAN_POINT('',(14.,34.,1.));
#425 = DIRECTION('',(0.,0.,1.));
#426 = DIRECTION('',(1.,0.,-0.));
#427 = ORIENTED_EDGE('',*,*,#428,.T.);
#428 = EDGE_CURVE('',#420,#208,#429,.T.);
#429 = LINE('',#430,#431);
#430 = CARTESIAN_POINT('',(15.,34.,0.));
#431 = VECTOR('',#432,1.);
#432 = DIRECTION('',(0.,0.,1.));
#433 = ORIENTED_EDGE('',*,*,#215,.F.);
#434 = CYLINDRICAL_SURFACE('',#435,1.);
#435 = AXIS2_PLACEMENT_3D('',#436,#437,#438);
#436 = CARTESIAN_POINT('',(14.,34.,0.));
#437 = DIRECTION('',(0.,0.,1.));
#438 = DIRECTION('',(0.,1.,0.));
#439 = ADVANCED_FACE('',(#440),#465,.T.);
#440 = FACE_BOUND('',#441,.T.);
#441 = EDGE_LOOP('',(#442,#450,#458,#464));
#442 = ORIENTED_EDGE('',*,*,#443,.F.);
#443 = EDGE_CURVE('',#444,#80,#446,.T.);
#444 = VERTEX_POINT('',#445);
#445 = CARTESIAN_POINT('',(14.,34.,1.E-15));
#446 = LINE('',#447,#448);
#447 = CARTESIAN_POINT('',(14.,35.,1.));
#448 = VECTOR('',#449,1.);
#449 = DIRECTION('',(4.E-17,0.707106781187,0.707106781187));
#450 = ORIENTED_EDGE('',*,*,#451,.T.);
#451 = EDGE_CURVE('',#444,#452,#454,.T.);
#452 = VERTEX_POINT('',#453);
#453 = CARTESIAN_POINT('',(12.5,34.,1.E-15));
#454 = LINE('',#455,#456);
#455 = CARTESIAN_POINT('',(14.,34.,0.));
#456 = VECTOR('',#457,1.);
#457 = DIRECTION('',(-1.,0.,0.));
#458 = ORIENTED_EDGE('',*,*,#459,.T.);
#459 = EDGE_CURVE('',#452,#72,#460,.T.);
#460 = LINE('',#461,#462);
#461 = CARTESIAN_POINT('',(12.5,26.691455696203,-7.308544303797));
#462 = VECTOR('',#463,1.);
#463 = DIRECTION('',(0.,0.707106781187,0.707106781187));
#464 = ORIENTED_EDGE('',*,*,#79,.F.);
#465 = PLANE('',#466);
#466 = AXIS2_PLACEMENT_3D('',#467,#468,#469);
#467 = CARTESIAN_POINT('',(14.,34.5,0.5));
#468 = DIRECTION('',(-1.E-17,0.707106781187,-0.707106781187));
#469 = DIRECTION('',(-1.,-7.071067811865E-18,7.071067811865E-18));
#470 = ADVANCED_FACE('',(#471),#489,.T.);
#471 = FACE_BOUND('',#472,.T.);
#472 = EDGE_LOOP('',(#473,#474,#475,#483));
#473 = ORIENTED_EDGE('',*,*,#268,.F.);
#474 = ORIENTED_EDGE('',*,*,#55,.T.);
#475 = ORIENTED_EDGE('',*,*,#476,.T.);
#476 = EDGE_CURVE('',#56,#477,#479,.T.);
#477 = VERTEX_POINT('',#478);
#478 = CARTESIAN_POINT('',(12.5,34.,2.));
#479 = LINE('',#480,#481);
#480 = CARTESIAN_POINT('',(12.5,26.191455696203,-5.808544303797));
#481 = VECTOR('',#482,1.);
#482 = DIRECTION('',(0.,-0.707106781187,-0.707106781187));
#483 = ORIENTED_EDGE('',*,*,#484,.F.);
#484 = EDGE_CURVE('',#269,#477,#485,.T.);
#485 = LINE('',#486,#487);
#486 = CARTESIAN_POINT('',(-12.5,34.,2.));
#487 = VECTOR('',#488,1.);
#488 = DIRECTION('',(1.,0.,0.));
#489 = PLANE('',#490);
#490 = AXIS2_PLACEMENT_3D('',#491,#492,#493);
#491 = CARTESIAN_POINT('',(-12.5,34.5,2.5));
#492 = DIRECTION('',(-1.E-17,0.707106781187,-0.707106781187));
#493 = DIRECTION('',(1.,7.071067811865E-18,-7.071067811865E-18));
#494 = ADVANCED_FACE('',(#495),#634,.T.);
#495 = FACE_BOUND('',#496,.T.);
#496 = EDGE_LOOP('',(#497,#505,#513,#521,#529,#537,#545,#553,#561,#569,
    #577,#585,#593,#601,#607,#608,#616,#624,#630,#631,#632,#633));
#497 = ORIENTED_EDGE('',*,*,#498,.F.);
#498 = EDGE_CURVE('',#499,#452,#501,.T.);
#499 = VERTEX_POINT('',#500);
#500 = CARTESIAN_POINT('',(12.5,27.,0.));
#501 = LINE('',#502,#503);
#502 = CARTESIAN_POINT('',(12.5,27.,0.));
#503 = VECTOR('',#504,1.);
#504 = DIRECTION('',(0.,1.,0.));
#505 = ORIENTED_EDGE('',*,*,#506,.T.);
#506 = EDGE_CURVE('',#499,#507,#509,.T.);
#507 = VERTEX_POINT('',#508);
#508 = CARTESIAN_POINT('',(12.5,27.,2.));
#509 = LINE('',#510,#511);
#510 = CARTESIAN_POINT('',(12.5,27.,0.));
#511 = VECTOR('',#512,1.);
#512 = DIRECTION('',(0.,0.,1.));
#513 = ORIENTED_EDGE('',*,*,#514,.T.);
#514 = EDGE_CURVE('',#507,#515,#517,.T.);
#515 = VERTEX_POINT('',#516);
#516 = CARTESIAN_POINT('',(12.5,26.,3.));
#517 = LINE('',#518,#519);
#518 = CARTESIAN_POINT('',(12.5,19.558544303797,9.441455696203));
#519 = VECTOR('',#520,1.);
#520 = DIRECTION('',(0.,-0.707106781187,0.707106781187));
#521 = ORIENTED_EDGE('',*,*,#522,.F.);
#522 = EDGE_CURVE('',#523,#515,#525,.T.);
#523 = VERTEX_POINT('',#524);
#524 = CARTESIAN_POINT('',(12.5,-26.,3.));
#525 = LINE('',#526,#527);
#526 = CARTESIAN_POINT('',(12.5,-27.,3.));
#527 = VECTOR('',#528,1.);
#528 = DIRECTION('',(0.,1.,0.));
#529 = ORIENTED_EDGE('',*,*,#530,.F.);
#530 = EDGE_CURVE('',#531,#523,#533,.T.);
#531 = VERTEX_POINT('',#532);
#532 = CARTESIAN_POINT('',(12.5,-27.,2.));
#533 = LINE('',#534,#535);
#534 = CARTESIAN_POINT('',(12.5,-19.55854430379,9.441455696203));
#535 = VECTOR('',#536,1.);
#536 = DIRECTION('',(0.,0.707106781187,0.707106781187));
#537 = ORIENTED_EDGE('',*,*,#538,.F.);
#538 = EDGE_CURVE('',#539,#531,#541,.T.);
#539 = VERTEX_POINT('',#540);
#540 = CARTESIAN_POINT('',(12.5,-27.,0.));
#541 = LINE('',#542,#543);
#542 = CARTESIAN_POINT('',(12.5,-27.,0.));
#543 = VECTOR('',#544,1.);
#544 = DIRECTION('',(0.,0.,1.));
#545 = ORIENTED_EDGE('',*,*,#546,.T.);
#546 = EDGE_CURVE('',#539,#547,#549,.T.);
#547 = VERTEX_POINT('',#548);
#548 = CARTESIAN_POINT('',(12.5,-34.,1.E-15));
#549 = LINE('',#550,#551);
#550 = CARTESIAN_POINT('',(12.5,-31.,0.));
#551 = VECTOR('',#552,1.);
#552 = DIRECTION('',(0.,-1.,0.));
#553 = ORIENTED_EDGE('',*,*,#554,.T.);
#554 = EDGE_CURVE('',#547,#555,#557,.T.);
#555 = VERTEX_POINT('',#556);
#556 = CARTESIAN_POINT('',(12.5,-35.,1.));
#557 = LINE('',#558,#559);
#558 = CARTESIAN_POINT('',(12.5,-26.6914556962,-7.308544303797));
#559 = VECTOR('',#560,1.);
#560 = DIRECTION('',(0.,-0.707106781187,0.707106781187));
#561 = ORIENTED_EDGE('',*,*,#562,.T.);
#562 = EDGE_CURVE('',#555,#563,#565,.T.);
#563 = VERTEX_POINT('',#564);
#564 = CARTESIAN_POINT('',(12.5,-35.,2.));
#565 = LINE('',#566,#567);
#566 = CARTESIAN_POINT('',(12.5,-35.,0.));
#567 = VECTOR('',#568,1.);
#568 = DIRECTION('',(0.,0.,1.));
#569 = ORIENTED_EDGE('',*,*,#570,.T.);
#570 = EDGE_CURVE('',#563,#571,#573,.T.);
#571 = VERTEX_POINT('',#572);
#572 = CARTESIAN_POINT('',(12.5,-35.,3.));
#573 = LINE('',#574,#575);
#574 = CARTESIAN_POINT('',(12.5,-35.,1.882911392405));
#575 = VECTOR('',#576,1.);
#576 = DIRECTION('',(0.,0.,1.));
#577 = ORIENTED_EDGE('',*,*,#578,.T.);
#578 = EDGE_CURVE('',#571,#579,#581,.T.);
#579 = VERTEX_POINT('',#580);
#580 = CARTESIAN_POINT('',(12.5,-34.,2.));
#581 = LINE('',#582,#583);
#582 = CARTESIAN_POINT('',(12.5,-26.1914556962,-5.808544303797));
#583 = VECTOR('',#584,1.);
#584 = DIRECTION('',(0.,0.707106781187,-0.707106781187));
#585 = ORIENTED_EDGE('',*,*,#586,.F.);
#586 = EDGE_CURVE('',#587,#579,#589,.T.);
#587 = VERTEX_POINT('',#588);
#588 = CARTESIAN_POINT('',(12.5,-32.,2.));
#589 = LINE('',#590,#591);
#590 = CARTESIAN_POINT('',(12.5,-31.,2.));
#591 = VECTOR('',#592,1.);
#592 = DIRECTION('',(0.,-1.,0.));
#593 = ORIENTED_EDGE('',*,*,#594,.T.);
#594 = EDGE_CURVE('',#587,#595,#597,.T.);
#595 = VERTEX_POINT('',#596);
#596 = CARTESIAN_POINT('',(12.5,-31.,3.));
#597 = LINE('',#598,#599);
#598 = CARTESIAN_POINT('',(12.5,-23.30854430379,10.691455696203));
#599 = VECTOR('',#600,1.);
#600 = DIRECTION('',(0.,0.707106781187,0.707106781187));
#601 = ORIENTED_EDGE('',*,*,#602,.T.);
#602 = EDGE_CURVE('',#595,#245,#603,.T.);
#603 = LINE('',#604,#605);
#604 = CARTESIAN_POINT('',(12.5,-31.,0.));
#605 = VECTOR('',#606,1.);
#606 = DIRECTION('',(0.,0.,1.));
#607 = ORIENTED_EDGE('',*,*,#244,.T.);
#608 = ORIENTED_EDGE('',*,*,#609,.F.);
#609 = EDGE_CURVE('',#610,#237,#612,.T.);
#610 = VERTEX_POINT('',#611);
#611 = CARTESIAN_POINT('',(12.5,31.,3.));
#612 = LINE('',#613,#614);
#613 = CARTESIAN_POINT('',(12.5,31.,0.));
#614 = VECTOR('',#615,1.);
#615 = DIRECTION('',(0.,0.,1.));
#616 = ORIENTED_EDGE('',*,*,#617,.F.);
#617 = EDGE_CURVE('',#618,#610,#620,.T.);
#618 = VERTEX_POINT('',#619);
#619 = CARTESIAN_POINT('',(12.5,32.,2.));
#620 = LINE('',#621,#622);
#621 = CARTESIAN_POINT('',(12.5,23.308544303797,10.691455696203));
#622 = VECTOR('',#623,1.);
#623 = DIRECTION('',(0.,-0.707106781187,0.707106781187));
#624 = ORIENTED_EDGE('',*,*,#625,.T.);
#625 = EDGE_CURVE('',#618,#477,#626,.T.);
#626 = LINE('',#627,#628);
#627 = CARTESIAN_POINT('',(12.5,31.,2.));
#628 = VECTOR('',#629,1.);
#629 = DIRECTION('',(0.,1.,0.));
#630 = ORIENTED_EDGE('',*,*,#476,.F.);
#631 = ORIENTED_EDGE('',*,*,#63,.F.);
#632 = ORIENTED_EDGE('',*,*,#71,.F.);
#633 = ORIENTED_EDGE('',*,*,#459,.F.);
#634 = PLANE('',#635);
#635 = AXIS2_PLACEMENT_3D('',#636,#637,#638);
#636 = CARTESIAN_POINT('',(12.5,7.2E-16,3.76582278481));
#637 = DIRECTION('',(-1.,-0.,-0.));
#638 = DIRECTION('',(0.,0.,-1.));
#639 = ADVANCED_FACE('',(#640),#650,.T.);
#640 = FACE_BOUND('',#641,.T.);
#641 = EDGE_LOOP('',(#642,#643,#649));
#642 = ORIENTED_EDGE('',*,*,#158,.F.);
#643 = ORIENTED_EDGE('',*,*,#644,.T.);
#644 = EDGE_CURVE('',#151,#111,#645,.T.);
#645 = LINE('',#646,#647);
#646 = CARTESIAN_POINT('',(-15.,34.,1.));
#647 = VECTOR('',#648,1.);
#648 = DIRECTION('',(-0.707106781187,4.E-17,0.707106781187));
#649 = ORIENTED_EDGE('',*,*,#110,.F.);
#650 = CONICAL_SURFACE('',#651,1.,0.785398163397);
#651 = AXIS2_PLACEMENT_3D('',#652,#653,#654);
#652 = CARTESIAN_POINT('',(-14.,34.,1.));
#653 = DIRECTION('',(0.,0.,1.));
#654 = DIRECTION('',(0.,1.,0.));
#655 = ADVANCED_FACE('',(#656),#674,.F.);
#656 = FACE_BOUND('',#657,.F.);
#657 = EDGE_LOOP('',(#658,#659,#660,#668));
#658 = ORIENTED_EDGE('',*,*,#119,.T.);
#659 = ORIENTED_EDGE('',*,*,#173,.T.);
#660 = ORIENTED_EDGE('',*,*,#661,.F.);
#661 = EDGE_CURVE('',#662,#174,#664,.T.);
#662 = VERTEX_POINT('',#663);
#663 = CARTESIAN_POINT('',(-15.,-34.,1.));
#664 = LINE('',#665,#666);
#665 = CARTESIAN_POINT('',(-15.,-34.,0.));
#666 = VECTOR('',#667,1.);
#667 = DIRECTION('',(0.,0.,1.));
#668 = ORIENTED_EDGE('',*,*,#669,.F.);
#669 = EDGE_CURVE('',#111,#662,#670,.T.);
#670 = LINE('',#671,#672);
#671 = CARTESIAN_POINT('',(-15.,34.,1.));
#672 = VECTOR('',#673,1.);
#673 = DIRECTION('',(0.,-1.,0.));
#674 = PLANE('',#675);
#675 = AXIS2_PLACEMENT_3D('',#676,#677,#678);
#676 = CARTESIAN_POINT('',(-15.,35.,0.));
#677 = DIRECTION('',(1.,0.,0.));
#678 = DIRECTION('',(0.,-1.,0.));
#679 = ADVANCED_FACE('',(#680),#728,.F.);
#680 = FACE_BOUND('',#681,.F.);
#681 = EDGE_LOOP('',(#682,#683,#684,#692,#698,#699,#705,#706,#714,#720,
    #721,#722));
#682 = ORIENTED_EDGE('',*,*,#403,.T.);
#683 = ORIENTED_EDGE('',*,*,#150,.T.);
#684 = ORIENTED_EDGE('',*,*,#685,.T.);
#685 = EDGE_CURVE('',#151,#686,#688,.T.);
#686 = VERTEX_POINT('',#687);
#687 = CARTESIAN_POINT('',(-14.,-34.,1.E-15));
#688 = LINE('',#689,#690);
#689 = CARTESIAN_POINT('',(-14.,34.,0.));
#690 = VECTOR('',#691,1.);
#691 = DIRECTION('',(0.,-1.,0.));
#692 = ORIENTED_EDGE('',*,*,#693,.T.);
#693 = EDGE_CURVE('',#686,#348,#694,.T.);
#694 = LINE('',#695,#696);
#695 = CARTESIAN_POINT('',(-14.,-34.,0.));
#696 = VECTOR('',#697,1.);
#697 = DIRECTION('',(1.,0.,0.));
#698 = ORIENTED_EDGE('',*,*,#355,.F.);
#699 = ORIENTED_EDGE('',*,*,#700,.F.);
#700 = EDGE_CURVE('',#539,#356,#701,.T.);
#701 = LINE('',#702,#703);
#702 = CARTESIAN_POINT('',(12.5,-27.,0.));
#703 = VECTOR('',#704,1.);
#704 = DIRECTION('',(-1.,0.,0.));
#705 = ORIENTED_EDGE('',*,*,#546,.T.);
#706 = ORIENTED_EDGE('',*,*,#707,.T.);
#707 = EDGE_CURVE('',#547,#708,#710,.T.);
#708 = VERTEX_POINT('',#709);
#709 = CARTESIAN_POINT('',(14.,-34.,1.E-15));
#710 = LINE('',#711,#712);
#711 = CARTESIAN_POINT('',(12.5,-34.,0.));
#712 = VECTOR('',#713,1.);
#713 = DIRECTION('',(1.,0.,0.));
#714 = ORIENTED_EDGE('',*,*,#715,.T.);
#715 = EDGE_CURVE('',#708,#444,#716,.T.);
#716 = LINE('',#717,#718);
#717 = CARTESIAN_POINT('',(14.,-34.,0.));
#718 = VECTOR('',#719,1.);
#719 = DIRECTION('',(0.,1.,0.));
#720 = ORIENTED_EDGE('',*,*,#451,.T.);
#721 = ORIENTED_EDGE('',*,*,#498,.F.);
#722 = ORIENTED_EDGE('',*,*,#723,.F.);
#723 = EDGE_CURVE('',#396,#499,#724,.T.);
#724 = LINE('',#725,#726);
#725 = CARTESIAN_POINT('',(-12.5,27.,0.));
#726 = VECTOR('',#727,1.);
#727 = DIRECTION('',(1.,0.,0.));
#728 = PLANE('',#729);
#729 = AXIS2_PLACEMENT_3D('',#730,#731,#732);
#730 = CARTESIAN_POINT('',(1.62E-15,0.,0.));
#731 = DIRECTION('',(0.,0.,1.));
#732 = DIRECTION('',(1.,0.,0.));
#733 = ADVANCED_FACE('',(#734),#753,.T.);
#734 = FACE_BOUND('',#735,.T.);
#735 = EDGE_LOOP('',(#736,#737,#746,#752));
#736 = ORIENTED_EDGE('',*,*,#661,.F.);
#737 = ORIENTED_EDGE('',*,*,#738,.T.);
#738 = EDGE_CURVE('',#662,#739,#741,.T.);
#739 = VERTEX_POINT('',#740);
#740 = CARTESIAN_POINT('',(-14.,-35.,1.));
#741 = CIRCLE('',#742,1.);
#742 = AXIS2_PLACEMENT_3D('',#743,#744,#745);
#743 = CARTESIAN_POINT('',(-14.,-34.,1.));
#744 = DIRECTION('',(0.,0.,1.));
#745 = DIRECTION('',(-1.,0.,0.));
#746 = ORIENTED_EDGE('',*,*,#747,.T.);
#747 = EDGE_CURVE('',#739,#182,#748,.T.);
#748 = LINE('',#749,#750);
#749 = CARTESIAN_POINT('',(-14.,-35.,0.));
#750 = VECTOR('',#751,1.);
#751 = DIRECTION('',(0.,0.,1.));
#752 = ORIENTED_EDGE('',*,*,#181,.F.);
#753 = CYLINDRICAL_SURFACE('',#754,1.);
#754 = AXIS2_PLACEMENT_3D('',#755,#756,#757);
#755 = CARTESIAN_POINT('',(-14.,-34.,0.));
#756 = DIRECTION('',(0.,0.,1.));
#757 = DIRECTION('',(-1.,0.,0.));
#758 = ADVANCED_FACE('',(#759),#793,.F.);
#759 = FACE_BOUND('',#760,.F.);
#760 = EDGE_LOOP('',(#761,#762,#763,#771,#777,#778,#779,#785,#786,#787)
  );
#761 = ORIENTED_EDGE('',*,*,#747,.T.);
#762 = ORIENTED_EDGE('',*,*,#190,.T.);
#763 = ORIENTED_EDGE('',*,*,#764,.F.);
#764 = EDGE_CURVE('',#765,#191,#767,.T.);
#765 = VERTEX_POINT('',#766);
#766 = CARTESIAN_POINT('',(14.,-35.,1.));
#767 = LINE('',#768,#769);
#768 = CARTESIAN_POINT('',(14.,-35.,0.));
#769 = VECTOR('',#770,1.);
#770 = DIRECTION('',(0.,0.,1.));
#771 = ORIENTED_EDGE('',*,*,#772,.F.);
#772 = EDGE_CURVE('',#555,#765,#773,.T.);
#773 = LINE('',#774,#775);
#774 = CARTESIAN_POINT('',(12.5,-35.,1.));
#775 = VECTOR('',#776,1.);
#776 = DIRECTION('',(1.,0.,0.));
#777 = ORIENTED_EDGE('',*,*,#562,.T.);
#778 = ORIENTED_EDGE('',*,*,#570,.T.);
#779 = ORIENTED_EDGE('',*,*,#780,.F.);
#780 = EDGE_CURVE('',#324,#571,#781,.T.);
#781 = LINE('',#782,#783);
#782 = CARTESIAN_POINT('',(-12.5,-35.,3.));
#783 = VECTOR('',#784,1.);
#784 = DIRECTION('',(1.,0.,0.));
#785 = ORIENTED_EDGE('',*,*,#331,.F.);
#786 = ORIENTED_EDGE('',*,*,#339,.F.);
#787 = ORIENTED_EDGE('',*,*,#788,.F.);
#788 = EDGE_CURVE('',#739,#340,#789,.T.);
#789 = LINE('',#790,#791);
#790 = CARTESIAN_POINT('',(-14.,-35.,1.));
#791 = VECTOR('',#792,1.);
#792 = DIRECTION('',(1.,0.,0.));
#793 = PLANE('',#794);
#794 = AXIS2_PLACEMENT_3D('',#795,#796,#797);
#795 = CARTESIAN_POINT('',(-15.,-35.,0.));
#796 = DIRECTION('',(0.,1.,0.));
#797 = DIRECTION('',(1.,0.,0.));
#798 = ADVANCED_FACE('',(#799),#818,.T.);
#799 = FACE_BOUND('',#800,.F.);
#800 = EDGE_LOOP('',(#801,#809,#816,#817));
#801 = ORIENTED_EDGE('',*,*,#802,.F.);
#802 = EDGE_CURVE('',#803,#199,#805,.T.);
#803 = VERTEX_POINT('',#804);
#804 = CARTESIAN_POINT('',(15.,-34.,1.));
#805 = LINE('',#806,#807);
#806 = CARTESIAN_POINT('',(15.,-34.,0.));
#807 = VECTOR('',#808,1.);
#808 = DIRECTION('',(0.,0.,1.));
#809 = ORIENTED_EDGE('',*,*,#810,.F.);
#810 = EDGE_CURVE('',#765,#803,#811,.T.);
#811 = CIRCLE('',#812,1.);
#812 = AXIS2_PLACEMENT_3D('',#813,#814,#815);
#813 = CARTESIAN_POINT('',(14.,-34.,1.));
#814 = DIRECTION('',(-0.,0.,1.));
#815 = DIRECTION('',(0.,-1.,0.));
#816 = ORIENTED_EDGE('',*,*,#764,.T.);
#817 = ORIENTED_EDGE('',*,*,#198,.F.);
#818 = CYLINDRICAL_SURFACE('',#819,1.);
#819 = AXIS2_PLACEMENT_3D('',#820,#821,#822);
#820 = CARTESIAN_POINT('',(14.,-34.,0.));
#821 = DIRECTION('',(0.,0.,1.));
#822 = DIRECTION('',(1.,0.,0.));
#823 = ADVANCED_FACE('',(#824),#835,.F.);
#824 = FACE_BOUND('',#825,.F.);
#825 = EDGE_LOOP('',(#826,#827,#828,#829));
#826 = ORIENTED_EDGE('',*,*,#802,.T.);
#827 = ORIENTED_EDGE('',*,*,#207,.T.);
#828 = ORIENTED_EDGE('',*,*,#428,.F.);
#829 = ORIENTED_EDGE('',*,*,#830,.F.);
#830 = EDGE_CURVE('',#803,#420,#831,.T.);
#831 = LINE('',#832,#833);
#832 = CARTESIAN_POINT('',(15.,-34.,1.));
#833 = VECTOR('',#834,1.);
#834 = DIRECTION('',(0.,1.,0.));
#835 = PLANE('',#836);
#836 = AXIS2_PLACEMENT_3D('',#837,#838,#839);
#837 = CARTESIAN_POINT('',(15.,-35.,0.));
#838 = DIRECTION('',(-1.,0.,0.));
#839 = DIRECTION('',(0.,1.,0.));
#840 = ADVANCED_FACE('',(#841),#852,.T.);
#841 = FACE_BOUND('',#842,.T.);
#842 = EDGE_LOOP('',(#843,#844,#850,#851));
#843 = ORIENTED_EDGE('',*,*,#602,.F.);
#844 = ORIENTED_EDGE('',*,*,#845,.F.);
#845 = EDGE_CURVE('',#300,#595,#846,.T.);
#846 = LINE('',#847,#848);
#847 = CARTESIAN_POINT('',(-12.5,-31.,3.));
#848 = VECTOR('',#849,1.);
#849 = DIRECTION('',(1.,0.,0.));
#850 = ORIENTED_EDGE('',*,*,#299,.T.);
#851 = ORIENTED_EDGE('',*,*,#252,.T.);
#852 = PLANE('',#853);
#853 = AXIS2_PLACEMENT_3D('',#854,#855,#856);
#854 = CARTESIAN_POINT('',(-12.5,-31.,0.));
#855 = DIRECTION('',(0.,1.,0.));
#856 = DIRECTION('',(1.,0.,0.));
#857 = ADVANCED_FACE('',(#858),#869,.T.);
#858 = FACE_BOUND('',#859,.T.);
#859 = EDGE_LOOP('',(#860,#861,#867,#868));
#860 = ORIENTED_EDGE('',*,*,#292,.F.);
#861 = ORIENTED_EDGE('',*,*,#862,.F.);
#862 = EDGE_CURVE('',#610,#285,#863,.T.);
#863 = LINE('',#864,#865);
#864 = CARTESIAN_POINT('',(12.5,31.,3.));
#865 = VECTOR('',#866,1.);
#866 = DIRECTION('',(-1.,0.,0.));
#867 = ORIENTED_EDGE('',*,*,#609,.T.);
#868 = ORIENTED_EDGE('',*,*,#236,.T.);
#869 = PLANE('',#870);
#870 = AXIS2_PLACEMENT_3D('',#871,#872,#873);
#871 = CARTESIAN_POINT('',(12.5,31.,0.));
#872 = DIRECTION('',(0.,-1.,0.));
#873 = DIRECTION('',(-1.,0.,0.));
#874 = ADVANCED_FACE('',(#875),#886,.T.);
#875 = FACE_BOUND('',#876,.T.);
#876 = EDGE_LOOP('',(#877,#878,#879,#880));
#877 = ORIENTED_EDGE('',*,*,#506,.F.);
#878 = ORIENTED_EDGE('',*,*,#723,.F.);
#879 = ORIENTED_EDGE('',*,*,#395,.T.);
#880 = ORIENTED_EDGE('',*,*,#881,.T.);
#881 = EDGE_CURVE('',#388,#507,#882,.T.);
#882 = LINE('',#883,#884);
#883 = CARTESIAN_POINT('',(-12.5,27.,2.));
#884 = VECTOR('',#885,1.);
#885 = DIRECTION('',(1.,0.,0.));
#886 = PLANE('',#887);
#887 = AXIS2_PLACEMENT_3D('',#888,#889,#890);
#888 = CARTESIAN_POINT('',(-12.5,27.,0.));
#889 = DIRECTION('',(0.,1.,0.));
#890 = DIRECTION('',(1.,0.,0.));
#891 = ADVANCED_FACE('',(#892),#903,.F.);
#892 = FACE_BOUND('',#893,.F.);
#893 = EDGE_LOOP('',(#894,#895,#901,#902));
#894 = ORIENTED_EDGE('',*,*,#276,.F.);
#895 = ORIENTED_EDGE('',*,*,#896,.F.);
#896 = EDGE_CURVE('',#618,#277,#897,.T.);
#897 = LINE('',#898,#899);
#898 = CARTESIAN_POINT('',(12.5,32.,2.));
#899 = VECTOR('',#900,1.);
#900 = DIRECTION('',(-1.,0.,0.));
#901 = ORIENTED_EDGE('',*,*,#625,.T.);
#902 = ORIENTED_EDGE('',*,*,#484,.F.);
#903 = PLANE('',#904);
#904 = AXIS2_PLACEMENT_3D('',#905,#906,#907);
#905 = CARTESIAN_POINT('',(0.,0.,2.));
#906 = DIRECTION('',(0.,0.,1.));
#907 = DIRECTION('',(1.,0.,0.));
#908 = ADVANCED_FACE('',(#909),#920,.T.);
#909 = FACE_BOUND('',#910,.F.);
#910 = EDGE_LOOP('',(#911,#912,#913,#914));
#911 = ORIENTED_EDGE('',*,*,#387,.F.);
#912 = ORIENTED_EDGE('',*,*,#881,.T.);
#913 = ORIENTED_EDGE('',*,*,#514,.T.);
#914 = ORIENTED_EDGE('',*,*,#915,.F.);
#915 = EDGE_CURVE('',#380,#515,#916,.T.);
#916 = LINE('',#917,#918);
#917 = CARTESIAN_POINT('',(-12.5,26.,3.));
#918 = VECTOR('',#919,1.);
#919 = DIRECTION('',(1.,0.,0.));
#920 = PLANE('',#921);
#921 = AXIS2_PLACEMENT_3D('',#922,#923,#924);
#922 = CARTESIAN_POINT('',(-12.5,26.5,2.5));
#923 = DIRECTION('',(1.E-17,0.707106781187,0.707106781187));
#924 = DIRECTION('',(-1.,7.071067811865E-18,7.071067811865E-18));
#925 = ADVANCED_FACE('',(#926),#932,.F.);
#926 = FACE_BOUND('',#927,.F.);
#927 = EDGE_LOOP('',(#928,#929,#930,#931));
#928 = ORIENTED_EDGE('',*,*,#617,.F.);
#929 = ORIENTED_EDGE('',*,*,#896,.T.);
#930 = ORIENTED_EDGE('',*,*,#284,.T.);
#931 = ORIENTED_EDGE('',*,*,#862,.F.);
#932 = PLANE('',#933);
#933 = AXIS2_PLACEMENT_3D('',#934,#935,#936);
#934 = CARTESIAN_POINT('',(12.5,31.5,2.5));
#935 = DIRECTION('',(-1.E-17,0.707106781187,0.707106781187));
#936 = DIRECTION('',(-1.,-7.071067811865E-18,-7.071067811865E-18));
#937 = ADVANCED_FACE('',(#938),#949,.T.);
#938 = FACE_BOUND('',#939,.T.);
#939 = EDGE_LOOP('',(#940,#941,#942,#943));
#940 = ORIENTED_EDGE('',*,*,#522,.T.);
#941 = ORIENTED_EDGE('',*,*,#915,.F.);
#942 = ORIENTED_EDGE('',*,*,#379,.T.);
#943 = ORIENTED_EDGE('',*,*,#944,.F.);
#944 = EDGE_CURVE('',#523,#372,#945,.T.);
#945 = LINE('',#946,#947);
#946 = CARTESIAN_POINT('',(12.5,-26.,3.));
#947 = VECTOR('',#948,1.);
#948 = DIRECTION('',(-1.,0.,0.));
#949 = PLANE('',#950);
#950 = AXIS2_PLACEMENT_3D('',#951,#952,#953);
#951 = CARTESIAN_POINT('',(0.,0.,3.));
#952 = DIRECTION('',(0.,0.,1.));
#953 = DIRECTION('',(1.,0.,0.));
#954 = ADVANCED_FACE('',(#955),#966,.T.);
#955 = FACE_BOUND('',#956,.F.);
#956 = EDGE_LOOP('',(#957,#958,#964,#965));
#957 = ORIENTED_EDGE('',*,*,#530,.F.);
#958 = ORIENTED_EDGE('',*,*,#959,.T.);
#959 = EDGE_CURVE('',#531,#364,#960,.T.);
#960 = LINE('',#961,#962);
#961 = CARTESIAN_POINT('',(12.5,-27.,2.));
#962 = VECTOR('',#963,1.);
#963 = DIRECTION('',(-1.,0.,0.));
#964 = ORIENTED_EDGE('',*,*,#371,.T.);
#965 = ORIENTED_EDGE('',*,*,#944,.F.);
#966 = PLANE('',#967);
#967 = AXIS2_PLACEMENT_3D('',#968,#969,#970);
#968 = CARTESIAN_POINT('',(12.5,-26.5,2.5));
#969 = DIRECTION('',(-1.E-17,-0.707106781187,0.707106781187));
#970 = DIRECTION('',(1.,-7.071067811865E-18,7.071067811865E-18));
#971 = ADVANCED_FACE('',(#972),#978,.T.);
#972 = FACE_BOUND('',#973,.T.);
#973 = EDGE_LOOP('',(#974,#975,#976,#977));
#974 = ORIENTED_EDGE('',*,*,#363,.F.);
#975 = ORIENTED_EDGE('',*,*,#700,.F.);
#976 = ORIENTED_EDGE('',*,*,#538,.T.);
#977 = ORIENTED_EDGE('',*,*,#959,.T.);
#978 = PLANE('',#979);
#979 = AXIS2_PLACEMENT_3D('',#980,#981,#982);
#980 = CARTESIAN_POINT('',(12.5,-27.,0.));
#981 = DIRECTION('',(0.,-1.,0.));
#982 = DIRECTION('',(-1.,0.,0.));
#983 = ADVANCED_FACE('',(#984),#995,.F.);
#984 = FACE_BOUND('',#985,.F.);
#985 = EDGE_LOOP('',(#986,#987,#993,#994));
#986 = ORIENTED_EDGE('',*,*,#307,.F.);
#987 = ORIENTED_EDGE('',*,*,#988,.T.);
#988 = EDGE_CURVE('',#308,#587,#989,.T.);
#989 = LINE('',#990,#991);
#990 = CARTESIAN_POINT('',(-12.5,-32.,2.));
#991 = VECTOR('',#992,1.);
#992 = DIRECTION('',(1.,0.,0.));
#993 = ORIENTED_EDGE('',*,*,#594,.T.);
#994 = ORIENTED_EDGE('',*,*,#845,.F.);
#995 = PLANE('',#996);
#996 = AXIS2_PLACEMENT_3D('',#997,#998,#999);
#997 = CARTESIAN_POINT('',(-12.5,-31.5,2.5));
#998 = DIRECTION('',(-1.E-17,-0.707106781187,0.707106781187));
#999 = DIRECTION('',(1.,-7.071067811865E-18,7.071067811865E-18));
#1000 = ADVANCED_FACE('',(#1001),#1012,.T.);
#1001 = FACE_BOUND('',#1002,.T.);
#1002 = EDGE_LOOP('',(#1003,#1009,#1010,#1011));
#1003 = ORIENTED_EDGE('',*,*,#1004,.F.);
#1004 = EDGE_CURVE('',#686,#739,#1005,.T.);
#1005 = LINE('',#1006,#1007);
#1006 = CARTESIAN_POINT('',(-14.,-35.,1.));
#1007 = VECTOR('',#1008,1.);
#1008 = DIRECTION('',(-4.E-17,-0.707106781187,0.707106781187));
#1009 = ORIENTED_EDGE('',*,*,#693,.T.);
#1010 = ORIENTED_EDGE('',*,*,#347,.T.);
#1011 = ORIENTED_EDGE('',*,*,#788,.F.);
#1012 = PLANE('',#1013);
#1013 = AXIS2_PLACEMENT_3D('',#1014,#1015,#1016);
#1014 = CARTESIAN_POINT('',(-14.,-34.5,0.5));
#1015 = DIRECTION('',(-0.,-0.707106781187,-0.707106781187));
#1016 = DIRECTION('',(1.,-0.,0.));
#1017 = ADVANCED_FACE('',(#1018),#1029,.F.);
#1018 = FACE_BOUND('',#1019,.F.);
#1019 = EDGE_LOOP('',(#1020,#1021,#1027,#1028));
#1020 = ORIENTED_EDGE('',*,*,#315,.T.);
#1021 = ORIENTED_EDGE('',*,*,#1022,.T.);
#1022 = EDGE_CURVE('',#316,#579,#1023,.T.);
#1023 = LINE('',#1024,#1025);
#1024 = CARTESIAN_POINT('',(-12.5,-34.,2.));
#1025 = VECTOR('',#1026,1.);
#1026 = DIRECTION('',(1.,0.,0.));
#1027 = ORIENTED_EDGE('',*,*,#586,.F.);
#1028 = ORIENTED_EDGE('',*,*,#988,.F.);
#1029 = PLANE('',#1030);
#1030 = AXIS2_PLACEMENT_3D('',#1031,#1032,#1033);
#1031 = CARTESIAN_POINT('',(0.,0.,2.));
#1032 = DIRECTION('',(0.,0.,1.));
#1033 = DIRECTION('',(1.,0.,0.));
#1034 = ADVANCED_FACE('',(#1035),#1041,.T.);
#1035 = FACE_BOUND('',#1036,.F.);
#1036 = EDGE_LOOP('',(#1037,#1038,#1039,#1040));
#1037 = ORIENTED_EDGE('',*,*,#323,.F.);
#1038 = ORIENTED_EDGE('',*,*,#780,.T.);
#1039 = ORIENTED_EDGE('',*,*,#578,.T.);
#1040 = ORIENTED_EDGE('',*,*,#1022,.F.);
#1041 = PLANE('',#1042);
#1042 = AXIS2_PLACEMENT_3D('',#1043,#1044,#1045);
#1043 = CARTESIAN_POINT('',(-12.5,-34.5,2.5));
#1044 = DIRECTION('',(1.E-17,-0.707106781187,-0.707106781187));
#1045 = DIRECTION('',(-1.,-7.071067811865E-18,-7.071067811865E-18));
#1046 = ADVANCED_FACE('',(#1047),#1057,.T.);
#1047 = FACE_BOUND('',#1048,.T.);
#1048 = EDGE_LOOP('',(#1049,#1055,#1056));
#1049 = ORIENTED_EDGE('',*,*,#1050,.F.);
#1050 = EDGE_CURVE('',#444,#420,#1051,.T.);
#1051 = LINE('',#1052,#1053);
#1052 = CARTESIAN_POINT('',(14.5,34.,0.5));
#1053 = VECTOR('',#1054,1.);
#1054 = DIRECTION('',(0.707106781187,0.,0.707106781187));
#1055 = ORIENTED_EDGE('',*,*,#443,.T.);
#1056 = ORIENTED_EDGE('',*,*,#419,.F.);
#1057 = CONICAL_SURFACE('',#1058,1.,0.785398163397);
#1058 = AXIS2_PLACEMENT_3D('',#1059,#1060,#1061);
#1059 = CARTESIAN_POINT('',(14.,34.,1.));
#1060 = DIRECTION('',(0.,0.,1.));
#1061 = DIRECTION('',(1.,0.,-0.));
#1062 = ADVANCED_FACE('',(#1063),#1074,.T.);
#1063 = FACE_BOUND('',#1064,.T.);
#1064 = EDGE_LOOP('',(#1065,#1066,#1067,#1073));
#1065 = ORIENTED_EDGE('',*,*,#554,.F.);
#1066 = ORIENTED_EDGE('',*,*,#707,.T.);
#1067 = ORIENTED_EDGE('',*,*,#1068,.T.);
#1068 = EDGE_CURVE('',#708,#765,#1069,.T.);
#1069 = LINE('',#1070,#1071);
#1070 = CARTESIAN_POINT('',(14.,-34.5,0.5));
#1071 = VECTOR('',#1072,1.);
#1072 = DIRECTION('',(0.,-0.707106781187,0.707106781187));
#1073 = ORIENTED_EDGE('',*,*,#772,.F.);
#1074 = PLANE('',#1075);
#1075 = AXIS2_PLACEMENT_3D('',#1076,#1077,#1078);
#1076 = CARTESIAN_POINT('',(12.5,-34.5,0.5));
#1077 = DIRECTION('',(1.E-17,-0.707106781187,-0.707106781187));
#1078 = DIRECTION('',(1.,7.071067811865E-18,7.071067811865E-18));
#1079 = ADVANCED_FACE('',(#1080),#1091,.T.);
#1080 = FACE_BOUND('',#1081,.T.);
#1081 = EDGE_LOOP('',(#1082,#1083,#1084,#1090));
#1082 = ORIENTED_EDGE('',*,*,#644,.F.);
#1083 = ORIENTED_EDGE('',*,*,#685,.T.);
#1084 = ORIENTED_EDGE('',*,*,#1085,.T.);
#1085 = EDGE_CURVE('',#686,#662,#1086,.T.);
#1086 = LINE('',#1087,#1088);
#1087 = CARTESIAN_POINT('',(-14.5,-34.,0.5));
#1088 = VECTOR('',#1089,1.);
#1089 = DIRECTION('',(-0.707106781187,-0.,0.707106781187));
#1090 = ORIENTED_EDGE('',*,*,#669,.F.);
#1091 = PLANE('',#1092);
#1092 = AXIS2_PLACEMENT_3D('',#1093,#1094,#1095);
#1093 = CARTESIAN_POINT('',(-14.5,34.,0.5));
#1094 = DIRECTION('',(-0.707106781187,1.E-17,-0.707106781187));
#1095 = DIRECTION('',(-7.071067811865E-18,-1.,-7.071067811865E-18));
#1096 = ADVANCED_FACE('',(#1097),#1108,.T.);
#1097 = FACE_BOUND('',#1098,.T.);
#1098 = EDGE_LOOP('',(#1099,#1105,#1106,#1107));
#1099 = ORIENTED_EDGE('',*,*,#1100,.F.);
#1100 = EDGE_CURVE('',#708,#803,#1101,.T.);
#1101 = LINE('',#1102,#1103);
#1102 = CARTESIAN_POINT('',(15.,-34.,1.));
#1103 = VECTOR('',#1104,1.);
#1104 = DIRECTION('',(0.707106781187,-4.E-17,0.707106781187));
#1105 = ORIENTED_EDGE('',*,*,#715,.T.);
#1106 = ORIENTED_EDGE('',*,*,#1050,.T.);
#1107 = ORIENTED_EDGE('',*,*,#830,.F.);
#1108 = PLANE('',#1109);
#1109 = AXIS2_PLACEMENT_3D('',#1110,#1111,#1112);
#1110 = CARTESIAN_POINT('',(14.5,-34.,0.5));
#1111 = DIRECTION('',(0.707106781187,-1.E-17,-0.707106781187));
#1112 = DIRECTION('',(7.071067811865E-18,1.,-7.071067811865E-18));
#1113 = ADVANCED_FACE('',(#1114),#1119,.T.);
#1114 = FACE_BOUND('',#1115,.T.);
#1115 = EDGE_LOOP('',(#1116,#1117,#1118));
#1116 = ORIENTED_EDGE('',*,*,#1085,.F.);
#1117 = ORIENTED_EDGE('',*,*,#1004,.T.);
#1118 = ORIENTED_EDGE('',*,*,#738,.F.);
#1119 = CONICAL_SURFACE('',#1120,1.,0.785398163397);
#1120 = AXIS2_PLACEMENT_3D('',#1121,#1122,#1123);
#1121 = CARTESIAN_POINT('',(-14.,-34.,1.));
#1122 = DIRECTION('',(0.,0.,1.));
#1123 = DIRECTION('',(-1.,0.,0.));
#1124 = ADVANCED_FACE('',(#1125),#1130,.T.);
#1125 = FACE_BOUND('',#1126,.T.);
#1126 = EDGE_LOOP('',(#1127,#1128,#1129));
#1127 = ORIENTED_EDGE('',*,*,#1068,.F.);
#1128 = ORIENTED_EDGE('',*,*,#1100,.T.);
#1129 = ORIENTED_EDGE('',*,*,#810,.F.);
#1130 = CONICAL_SURFACE('',#1131,1.,0.785398163397);
#1131 = AXIS2_PLACEMENT_3D('',#1132,#1133,#1134);
#1132 = CARTESIAN_POINT('',(14.,-34.,1.));
#1133 = DIRECTION('',(0.,0.,1.));
#1134 = DIRECTION('',(0.,-1.,0.));
#1135 = ( GEOMETRIC_REPRESENTATION_CONTEXT(3) 
GLOBAL_UNCERTAINTY_ASSIGNED_CONTEXT((#1139)) 
GLOBAL_UNIT_ASSIGNED_CONTEXT((#1136,#1137,#1138)) REPRESENTATION_CONTEXT
('Context #1','3D Context with UNIT and UNCERTAINTY') );
#1136 = ( LENGTH_UNIT() NAMED_UNIT(*) SI_UNIT(.MILLI.,.METRE.) );
#1137 = ( NAMED_UNIT(*) PLANE_ANGLE_UNIT() SI_UNIT($,.RADIAN.) );
#1138 = ( NAMED_UNIT(*) SI_UNIT($,.STERADIAN.) SOLID_ANGLE_UNIT() );
#1139 = UNCERTAINTY_MEASURE_WITH_UNIT(LENGTH_MEASURE(1.E-07),#1136,
  'distance_accuracy_value','confusion accuracy');
#1140 = PRODUCT_RELATED_PRODUCT_CATEGORY('part',$,(#7));
#1141 = MECHANICAL_DESIGN_GEOMETRIC_PRESENTATION_REPRESENTATION('',(
    #1142),#1135);
#1142 = STYLED_ITEM('color',(#1143),#15);
#1143 = PRESENTATION_STYLE_ASSIGNMENT((#1144,#1150));
#1144 = SURFACE_STYLE_USAGE(.BOTH.,#1145);
#1145 = SURFACE_SIDE_STYLE('',(#1146));
#1146 = SURFACE_STYLE_FILL_AREA(#1147);
#1147 = FILL_AREA_STYLE('',(#1148));
#1148 = FILL_AREA_STYLE_COLOUR('',#1149);
#1149 = COLOUR_RGB('',0.678431390124,0.709803936702,0.741176476869);
#1150 = CURVE_STYLE('',#1151,POSITIVE_LENGTH_MEASURE(0.1),#1152);
#1151 = DRAUGHTING_PRE_DEFINED_CURVE_FONT('continuous');
#1152 = COLOUR_RGB('',9.803921802644E-02,9.803921802644E-02,
  9.803921802644E-02);
ENDSEC;
END-ISO-10303-21;
