ISO-10303-21;
HEADER;
FILE_DESCRIPTION(('FreeCAD Model'),'2;1');
FILE_NAME('Open CASCADE Shape Model','2026-05-07T10:14:28',(''),(''),
  'Open CASCADE STEP processor 7.8','FreeCAD','Unknown');
FILE_SCHEMA(('AUTOMOTIVE_DESIGN { 1 0 10303 214 1 1 1 1 }'));
ENDSEC;
DATA;
#1 = APPLICATION_PROTOCOL_DEFINITION('international standard',
  'automotive_design',2000,#2);
#2 = APPLICATION_CONTEXT(
  'core data for automotive mechanical design processes');
#3 = SHAPE_DEFINITION_REPRESENTATION(#4,#10);
#4 = PRODUCT_DEFINITION_SHAPE('','',#5);
#5 = PRODUCT_DEFINITION('design','',#6,#9);
#6 = PRODUCT_DEFINITION_FORMATION('','',#7);
#7 = PRODUCT('Chamfer019','Chamfer019','',(#8));
#8 = PRODUCT_CONTEXT('',#2,'mechanical');
#9 = PRODUCT_DEFINITION_CONTEXT('part definition',#2,'design');
#10 = ADVANCED_BREP_SHAPE_REPRESENTATION('',(#11,#15),#605);
#11 = AXIS2_PLACEMENT_3D('',#12,#13,#14);
#12 = CARTESIAN_POINT('',(0.,0.,0.));
#13 = DIRECTION('',(0.,0.,1.));
#14 = DIRECTION('',(1.,0.,-0.));
#15 = MANIFOLD_SOLID_BREP('',#16);
#16 = CLOSED_SHELL('',(#17,#57,#90,#121,#152,#205,#230,#255,#308,#349,
    #366,#407,#424,#455,#472,#489,#506,#523,#547,#564,#576,#593));
#17 = ADVANCED_FACE('',(#18),#52,.F.);
#18 = FACE_BOUND('',#19,.F.);
#19 = EDGE_LOOP('',(#20,#30,#38,#46));
#20 = ORIENTED_EDGE('',*,*,#21,.T.);
#21 = EDGE_CURVE('',#22,#24,#26,.T.);
#22 = VERTEX_POINT('',#23);
#23 = CARTESIAN_POINT('',(-10.25,-39.5,190.60520671964));
#24 = VERTEX_POINT('',#25);
#25 = CARTESIAN_POINT('',(-10.25,-0.5,190.60520671964));
#26 = LINE('',#27,#28);
#27 = CARTESIAN_POINT('',(-10.25,-40.,190.60520671964));
#28 = VECTOR('',#29,1.);
#29 = DIRECTION('',(0.,1.,0.));
#30 = ORIENTED_EDGE('',*,*,#31,.T.);
#31 = EDGE_CURVE('',#24,#32,#34,.T.);
#32 = VERTEX_POINT('',#33);
#33 = CARTESIAN_POINT('',(-7.25,-0.5,190.60520671964));
#34 = LINE('',#35,#36);
#35 = CARTESIAN_POINT('',(-10.25,-0.5,190.60520671964));
#36 = VECTOR('',#37,1.);
#37 = DIRECTION('',(1.,-0.,-0.));
#38 = ORIENTED_EDGE('',*,*,#39,.F.);
#39 = EDGE_CURVE('',#40,#32,#42,.T.);
#40 = VERTEX_POINT('',#41);
#41 = CARTESIAN_POINT('',(-7.25,-39.5,190.60520671964));
#42 = LINE('',#43,#44);
#43 = CARTESIAN_POINT('',(-7.25,-40.,190.60520671964));
#44 = VECTOR('',#45,1.);
#45 = DIRECTION('',(0.,1.,0.));
#46 = ORIENTED_EDGE('',*,*,#47,.F.);
#47 = EDGE_CURVE('',#22,#40,#48,.T.);
#48 = LINE('',#49,#50);
#49 = CARTESIAN_POINT('',(-10.25,-39.5,190.60520671964));
#50 = VECTOR('',#51,1.);
#51 = DIRECTION('',(1.,-0.,-0.));
#52 = PLANE('',#53);
#53 = AXIS2_PLACEMENT_3D('',#54,#55,#56);
#54 = CARTESIAN_POINT('',(-7.25,-40.,190.60520671964));
#55 = DIRECTION('',(0.,0.,-1.));
#56 = DIRECTION('',(0.,1.,0.));
#57 = ADVANCED_FACE('',(#58),#85,.T.);
#58 = FACE_BOUND('',#59,.F.);
#59 = EDGE_LOOP('',(#60,#61,#70,#78));
#60 = ORIENTED_EDGE('',*,*,#21,.F.);
#61 = ORIENTED_EDGE('',*,*,#62,.F.);
#62 = EDGE_CURVE('',#63,#22,#65,.T.);
#63 = VERTEX_POINT('',#64);
#64 = CARTESIAN_POINT('',(-13.25,-39.5,187.60520671964));
#65 = CIRCLE('',#66,3.);
#66 = AXIS2_PLACEMENT_3D('',#67,#68,#69);
#67 = CARTESIAN_POINT('',(-10.25,-39.5,187.60520671964));
#68 = DIRECTION('',(0.,1.,0.));
#69 = DIRECTION('',(-1.,0.,0.));
#70 = ORIENTED_EDGE('',*,*,#71,.T.);
#71 = EDGE_CURVE('',#63,#72,#74,.T.);
#72 = VERTEX_POINT('',#73);
#73 = CARTESIAN_POINT('',(-13.25,-0.5,187.60520671964));
#74 = LINE('',#75,#76);
#75 = CARTESIAN_POINT('',(-13.25,-40.,187.60520671964));
#76 = VECTOR('',#77,1.);
#77 = DIRECTION('',(0.,1.,0.));
#78 = ORIENTED_EDGE('',*,*,#79,.T.);
#79 = EDGE_CURVE('',#72,#24,#80,.T.);
#80 = CIRCLE('',#81,3.);
#81 = AXIS2_PLACEMENT_3D('',#82,#83,#84);
#82 = CARTESIAN_POINT('',(-10.25,-0.5,187.60520671964));
#83 = DIRECTION('',(0.,1.,0.));
#84 = DIRECTION('',(-1.,0.,0.));
#85 = CYLINDRICAL_SURFACE('',#86,3.);
#86 = AXIS2_PLACEMENT_3D('',#87,#88,#89);
#87 = CARTESIAN_POINT('',(-10.25,-40.,187.60520671964));
#88 = DIRECTION('',(0.,1.,0.));
#89 = DIRECTION('',(0.,0.,1.));
#90 = ADVANCED_FACE('',(#91),#116,.T.);
#91 = FACE_BOUND('',#92,.T.);
#92 = EDGE_LOOP('',(#93,#101,#109,#115));
#93 = ORIENTED_EDGE('',*,*,#94,.F.);
#94 = EDGE_CURVE('',#95,#22,#97,.T.);
#95 = VERTEX_POINT('',#96);
#96 = CARTESIAN_POINT('',(-10.25,-40.,190.10520671964));
#97 = LINE('',#98,#99);
#98 = CARTESIAN_POINT('',(-10.25,-39.5,190.60520671964));
#99 = VECTOR('',#100,1.);
#100 = DIRECTION('',(-4.329780281177E-17,0.707106781187,0.707106781187)
  );
#101 = ORIENTED_EDGE('',*,*,#102,.T.);
#102 = EDGE_CURVE('',#95,#103,#105,.T.);
#103 = VERTEX_POINT('',#104);
#104 = CARTESIAN_POINT('',(-7.75,-40.,190.10520671964));
#105 = LINE('',#106,#107);
#106 = CARTESIAN_POINT('',(-10.25,-40.,190.10520671964));
#107 = VECTOR('',#108,1.);
#108 = DIRECTION('',(1.,-0.,-0.));
#109 = ORIENTED_EDGE('',*,*,#110,.T.);
#110 = EDGE_CURVE('',#103,#40,#111,.T.);
#111 = LINE('',#112,#113);
#112 = CARTESIAN_POINT('',(-9.916666666667,-42.16666666666,
    187.93854005298));
#113 = VECTOR('',#114,1.);
#114 = DIRECTION('',(0.57735026919,0.57735026919,0.57735026919));
#115 = ORIENTED_EDGE('',*,*,#47,.F.);
#116 = PLANE('',#117);
#117 = AXIS2_PLACEMENT_3D('',#118,#119,#120);
#118 = CARTESIAN_POINT('',(-10.25,-39.75,190.35520671964));
#119 = DIRECTION('',(1.889513820523E-18,-0.707106781187,0.707106781187)
  );
#120 = DIRECTION('',(1.,1.336088035637E-18,-1.336088035637E-18));
#121 = ADVANCED_FACE('',(#122),#147,.F.);
#122 = FACE_BOUND('',#123,.F.);
#123 = EDGE_LOOP('',(#124,#132,#140,#146));
#124 = ORIENTED_EDGE('',*,*,#125,.F.);
#125 = EDGE_CURVE('',#126,#24,#128,.T.);
#126 = VERTEX_POINT('',#127);
#127 = CARTESIAN_POINT('',(-10.25,4.263256414561E-14,190.10520671964));
#128 = LINE('',#129,#130);
#129 = CARTESIAN_POINT('',(-10.25,-0.5,190.60520671964));
#130 = VECTOR('',#131,1.);
#131 = DIRECTION('',(-4.329780281177E-17,-0.707106781187,0.707106781187)
  );
#132 = ORIENTED_EDGE('',*,*,#133,.T.);
#133 = EDGE_CURVE('',#126,#134,#136,.T.);
#134 = VERTEX_POINT('',#135);
#135 = CARTESIAN_POINT('',(-7.75,4.468647674116E-14,190.10520671964));
#136 = LINE('',#137,#138);
#137 = CARTESIAN_POINT('',(-10.25,4.26312820728E-14,190.10520671964));
#138 = VECTOR('',#139,1.);
#139 = DIRECTION('',(1.,-0.,-0.));
#140 = ORIENTED_EDGE('',*,*,#141,.T.);
#141 = EDGE_CURVE('',#134,#32,#142,.T.);
#142 = LINE('',#143,#144);
#143 = CARTESIAN_POINT('',(-9.916666666667,2.166666666667,
    187.93854005298));
#144 = VECTOR('',#145,1.);
#145 = DIRECTION('',(0.57735026919,-0.57735026919,0.57735026919));
#146 = ORIENTED_EDGE('',*,*,#31,.F.);
#147 = PLANE('',#148);
#148 = AXIS2_PLACEMENT_3D('',#149,#150,#151);
#149 = CARTESIAN_POINT('',(-10.25,-0.25,190.35520671964));
#150 = DIRECTION('',(-1.889513820523E-18,-0.707106781187,-0.707106781187
    ));
#151 = DIRECTION('',(1.,-1.336088035637E-18,-1.336088035637E-18));
#152 = ADVANCED_FACE('',(#153,#178,#189),#200,.T.);
#153 = FACE_BOUND('',#154,.T.);
#154 = EDGE_LOOP('',(#155,#156,#164,#172));
#155 = ORIENTED_EDGE('',*,*,#39,.F.);
#156 = ORIENTED_EDGE('',*,*,#157,.F.);
#157 = EDGE_CURVE('',#158,#40,#160,.T.);
#158 = VERTEX_POINT('',#159);
#159 = CARTESIAN_POINT('',(-7.25,-39.5,178.60520671964));
#160 = LINE('',#161,#162);
#161 = CARTESIAN_POINT('',(-7.25,-39.5,178.60520671964));
#162 = VECTOR('',#163,1.);
#163 = DIRECTION('',(0.,0.,1.));
#164 = ORIENTED_EDGE('',*,*,#165,.T.);
#165 = EDGE_CURVE('',#158,#166,#168,.T.);
#166 = VERTEX_POINT('',#167);
#167 = CARTESIAN_POINT('',(-7.25,-0.5,178.60520671964));
#168 = LINE('',#169,#170);
#169 = CARTESIAN_POINT('',(-7.25,-40.,178.60520671964));
#170 = VECTOR('',#171,1.);
#171 = DIRECTION('',(0.,1.,0.));
#172 = ORIENTED_EDGE('',*,*,#173,.T.);
#173 = EDGE_CURVE('',#166,#32,#174,.T.);
#174 = LINE('',#175,#176);
#175 = CARTESIAN_POINT('',(-7.25,-0.5,178.60520671964));
#176 = VECTOR('',#177,1.);
#177 = DIRECTION('',(0.,0.,1.));
#178 = FACE_BOUND('',#179,.T.);
#179 = EDGE_LOOP('',(#180));
#180 = ORIENTED_EDGE('',*,*,#181,.T.);
#181 = EDGE_CURVE('',#182,#182,#184,.T.);
#182 = VERTEX_POINT('',#183);
#183 = CARTESIAN_POINT('',(-7.25,-11.5,184.60520671964));
#184 = CIRCLE('',#185,1.5);
#185 = AXIS2_PLACEMENT_3D('',#186,#187,#188);
#186 = CARTESIAN_POINT('',(-7.25,-10.,184.60520671964));
#187 = DIRECTION('',(-1.,0.,0.));
#188 = DIRECTION('',(0.,-1.,0.));
#189 = FACE_BOUND('',#190,.T.);
#190 = EDGE_LOOP('',(#191));
#191 = ORIENTED_EDGE('',*,*,#192,.T.);
#192 = EDGE_CURVE('',#193,#193,#195,.T.);
#193 = VERTEX_POINT('',#194);
#194 = CARTESIAN_POINT('',(-7.25,-31.5,184.60520671964));
#195 = CIRCLE('',#196,1.5);
#196 = AXIS2_PLACEMENT_3D('',#197,#198,#199);
#197 = CARTESIAN_POINT('',(-7.25,-30.,184.60520671964));
#198 = DIRECTION('',(-1.,0.,0.));
#199 = DIRECTION('',(0.,-1.,0.));
#200 = PLANE('',#201);
#201 = AXIS2_PLACEMENT_3D('',#202,#203,#204);
#202 = CARTESIAN_POINT('',(-7.25,-20.,184.60520671964));
#203 = DIRECTION('',(1.,0.,0.));
#204 = DIRECTION('',(0.,0.,1.));
#205 = ADVANCED_FACE('',(#206),#225,.T.);
#206 = FACE_BOUND('',#207,.T.);
#207 = EDGE_LOOP('',(#208,#216,#223,#224));
#208 = ORIENTED_EDGE('',*,*,#209,.F.);
#209 = EDGE_CURVE('',#210,#63,#212,.T.);
#210 = VERTEX_POINT('',#211);
#211 = CARTESIAN_POINT('',(-12.75,-40.,187.60520671964));
#212 = LINE('',#213,#214);
#213 = CARTESIAN_POINT('',(-13.,-39.75,187.60520671964));
#214 = VECTOR('',#215,1.);
#215 = DIRECTION('',(-0.707106781187,0.707106781187,-2.90882763039E-35)
  );
#216 = ORIENTED_EDGE('',*,*,#217,.T.);
#217 = EDGE_CURVE('',#210,#95,#218,.T.);
#218 = CIRCLE('',#219,2.5);
#219 = AXIS2_PLACEMENT_3D('',#220,#221,#222);
#220 = CARTESIAN_POINT('',(-10.25,-40.,187.60520671964));
#221 = DIRECTION('',(0.,1.,0.));
#222 = DIRECTION('',(-1.,0.,0.));
#223 = ORIENTED_EDGE('',*,*,#94,.T.);
#224 = ORIENTED_EDGE('',*,*,#62,.F.);
#225 = CONICAL_SURFACE('',#226,3.,0.785398163397);
#226 = AXIS2_PLACEMENT_3D('',#227,#228,#229);
#227 = CARTESIAN_POINT('',(-10.25,-39.5,187.60520671964));
#228 = DIRECTION('',(0.,1.,0.));
#229 = DIRECTION('',(-1.,0.,0.));
#230 = ADVANCED_FACE('',(#231),#250,.T.);
#231 = FACE_BOUND('',#232,.F.);
#232 = EDGE_LOOP('',(#233,#241,#248,#249));
#233 = ORIENTED_EDGE('',*,*,#234,.F.);
#234 = EDGE_CURVE('',#235,#72,#237,.T.);
#235 = VERTEX_POINT('',#236);
#236 = CARTESIAN_POINT('',(-12.75,4.216071936014E-14,187.60520671964));
#237 = LINE('',#238,#239);
#238 = CARTESIAN_POINT('',(-13.,-0.25,187.60520671964));
#239 = VECTOR('',#240,1.);
#240 = DIRECTION('',(-0.707106781187,-0.707106781187,-2.90882763039E-35)
  );
#241 = ORIENTED_EDGE('',*,*,#242,.T.);
#242 = EDGE_CURVE('',#235,#126,#243,.T.);
#243 = CIRCLE('',#244,2.5);
#244 = AXIS2_PLACEMENT_3D('',#245,#246,#247);
#245 = CARTESIAN_POINT('',(-10.25,4.263E-14,187.60520671964));
#246 = DIRECTION('',(0.,1.,0.));
#247 = DIRECTION('',(-1.,0.,0.));
#248 = ORIENTED_EDGE('',*,*,#125,.T.);
#249 = ORIENTED_EDGE('',*,*,#79,.F.);
#250 = CONICAL_SURFACE('',#251,3.,0.785398163397);
#251 = AXIS2_PLACEMENT_3D('',#252,#253,#254);
#252 = CARTESIAN_POINT('',(-10.25,-0.5,187.60520671964));
#253 = DIRECTION('',(-0.,-1.,-0.));
#254 = DIRECTION('',(-1.,0.,0.));
#255 = ADVANCED_FACE('',(#256,#281,#292),#303,.F.);
#256 = FACE_BOUND('',#257,.F.);
#257 = EDGE_LOOP('',(#258,#268,#274,#275));
#258 = ORIENTED_EDGE('',*,*,#259,.T.);
#259 = EDGE_CURVE('',#260,#262,#264,.T.);
#260 = VERTEX_POINT('',#261);
#261 = CARTESIAN_POINT('',(-13.25,-39.5,181.60520671964));
#262 = VERTEX_POINT('',#263);
#263 = CARTESIAN_POINT('',(-13.25,-0.5,181.60520671964));
#264 = LINE('',#265,#266);
#265 = CARTESIAN_POINT('',(-13.25,-40.,181.60520671964));
#266 = VECTOR('',#267,1.);
#267 = DIRECTION('',(0.,1.,0.));
#268 = ORIENTED_EDGE('',*,*,#269,.T.);
#269 = EDGE_CURVE('',#262,#72,#270,.T.);
#270 = LINE('',#271,#272);
#271 = CARTESIAN_POINT('',(-13.25,-0.5,181.60520671964));
#272 = VECTOR('',#273,1.);
#273 = DIRECTION('',(0.,0.,1.));
#274 = ORIENTED_EDGE('',*,*,#71,.F.);
#275 = ORIENTED_EDGE('',*,*,#276,.F.);
#276 = EDGE_CURVE('',#260,#63,#277,.T.);
#277 = LINE('',#278,#279);
#278 = CARTESIAN_POINT('',(-13.25,-39.5,181.60520671964));
#279 = VECTOR('',#280,1.);
#280 = DIRECTION('',(0.,0.,1.));
#281 = FACE_BOUND('',#282,.F.);
#282 = EDGE_LOOP('',(#283));
#283 = ORIENTED_EDGE('',*,*,#284,.T.);
#284 = EDGE_CURVE('',#285,#285,#287,.T.);
#285 = VERTEX_POINT('',#286);
#286 = CARTESIAN_POINT('',(-13.25,-11.5,184.60520671964));
#287 = CIRCLE('',#288,1.5);
#288 = AXIS2_PLACEMENT_3D('',#289,#290,#291);
#289 = CARTESIAN_POINT('',(-13.25,-10.,184.60520671964));
#290 = DIRECTION('',(-1.,0.,0.));
#291 = DIRECTION('',(0.,-1.,0.));
#292 = FACE_BOUND('',#293,.F.);
#293 = EDGE_LOOP('',(#294));
#294 = ORIENTED_EDGE('',*,*,#295,.T.);
#295 = EDGE_CURVE('',#296,#296,#298,.T.);
#296 = VERTEX_POINT('',#297);
#297 = CARTESIAN_POINT('',(-13.25,-31.5,184.60520671964));
#298 = CIRCLE('',#299,1.5);
#299 = AXIS2_PLACEMENT_3D('',#300,#301,#302);
#300 = CARTESIAN_POINT('',(-13.25,-30.,184.60520671964));
#301 = DIRECTION('',(-1.,0.,0.));
#302 = DIRECTION('',(0.,-1.,0.));
#303 = PLANE('',#304);
#304 = AXIS2_PLACEMENT_3D('',#305,#306,#307);
#305 = CARTESIAN_POINT('',(-13.25,-20.,184.60520671964));
#306 = DIRECTION('',(1.,0.,0.));
#307 = DIRECTION('',(0.,0.,1.));
#308 = ADVANCED_FACE('',(#309),#344,.F.);
#309 = FACE_BOUND('',#310,.F.);
#310 = EDGE_LOOP('',(#311,#321,#330,#336,#337,#338));
#311 = ORIENTED_EDGE('',*,*,#312,.T.);
#312 = EDGE_CURVE('',#313,#315,#317,.T.);
#313 = VERTEX_POINT('',#314);
#314 = CARTESIAN_POINT('',(-7.75,-40.,179.10520671964));
#315 = VERTEX_POINT('',#316);
#316 = CARTESIAN_POINT('',(-10.25,-40.,179.10520671964));
#317 = LINE('',#318,#319);
#318 = CARTESIAN_POINT('',(-7.25,-40.,179.10520671964));
#319 = VECTOR('',#320,1.);
#320 = DIRECTION('',(-1.,0.,0.));
#321 = ORIENTED_EDGE('',*,*,#322,.T.);
#322 = EDGE_CURVE('',#315,#323,#325,.T.);
#323 = VERTEX_POINT('',#324);
#324 = CARTESIAN_POINT('',(-12.75,-40.,181.60520671964));
#325 = CIRCLE('',#326,2.5);
#326 = AXIS2_PLACEMENT_3D('',#327,#328,#329);
#327 = CARTESIAN_POINT('',(-10.25,-40.,181.60520671964));
#328 = DIRECTION('',(0.,1.,0.));
#329 = DIRECTION('',(0.,0.,-1.));
#330 = ORIENTED_EDGE('',*,*,#331,.T.);
#331 = EDGE_CURVE('',#323,#210,#332,.T.);
#332 = LINE('',#333,#334);
#333 = CARTESIAN_POINT('',(-12.75,-40.,181.60520671964));
#334 = VECTOR('',#335,1.);
#335 = DIRECTION('',(0.,0.,1.));
#336 = ORIENTED_EDGE('',*,*,#217,.T.);
#337 = ORIENTED_EDGE('',*,*,#102,.T.);
#338 = ORIENTED_EDGE('',*,*,#339,.F.);
#339 = EDGE_CURVE('',#313,#103,#340,.T.);
#340 = LINE('',#341,#342);
#341 = CARTESIAN_POINT('',(-7.75,-40.,178.60520671964));
#342 = VECTOR('',#343,1.);
#343 = DIRECTION('',(0.,0.,1.));
#344 = PLANE('',#345);
#345 = AXIS2_PLACEMENT_3D('',#346,#347,#348);
#346 = CARTESIAN_POINT('',(-7.25,-40.,178.60520671964));
#347 = DIRECTION('',(0.,1.,0.));
#348 = DIRECTION('',(0.,0.,1.));
#349 = ADVANCED_FACE('',(#350),#361,.F.);
#350 = FACE_BOUND('',#351,.F.);
#351 = EDGE_LOOP('',(#352,#358,#359,#360));
#352 = ORIENTED_EDGE('',*,*,#353,.F.);
#353 = EDGE_CURVE('',#313,#158,#354,.T.);
#354 = LINE('',#355,#356);
#355 = CARTESIAN_POINT('',(-7.416666666667,-39.66666666666,
    178.77187338631));
#356 = VECTOR('',#357,1.);
#357 = DIRECTION('',(0.57735026919,0.57735026919,-0.57735026919));
#358 = ORIENTED_EDGE('',*,*,#339,.T.);
#359 = ORIENTED_EDGE('',*,*,#110,.T.);
#360 = ORIENTED_EDGE('',*,*,#157,.F.);
#361 = PLANE('',#362);
#362 = AXIS2_PLACEMENT_3D('',#363,#364,#365);
#363 = CARTESIAN_POINT('',(-7.5,-39.75,178.60520671964));
#364 = DIRECTION('',(-0.707106781187,0.707106781187,1.889513820523E-18)
  );
#365 = DIRECTION('',(1.336088035637E-18,-1.336088035637E-18,1.));
#366 = ADVANCED_FACE('',(#367),#402,.T.);
#367 = FACE_BOUND('',#368,.T.);
#368 = EDGE_LOOP('',(#369,#379,#388,#394,#395,#396));
#369 = ORIENTED_EDGE('',*,*,#370,.T.);
#370 = EDGE_CURVE('',#371,#373,#375,.T.);
#371 = VERTEX_POINT('',#372);
#372 = CARTESIAN_POINT('',(-7.75,4.468647674116E-14,179.10520671964));
#373 = VERTEX_POINT('',#374);
#374 = CARTESIAN_POINT('',(-10.25,4.468647674116E-14,179.10520671964));
#375 = LINE('',#376,#377);
#376 = CARTESIAN_POINT('',(-7.25,4.26312820728E-14,179.10520671964));
#377 = VECTOR('',#378,1.);
#378 = DIRECTION('',(-1.,0.,0.));
#379 = ORIENTED_EDGE('',*,*,#380,.T.);
#380 = EDGE_CURVE('',#373,#381,#383,.T.);
#381 = VERTEX_POINT('',#382);
#382 = CARTESIAN_POINT('',(-12.75,4.263256414561E-14,181.60520671964));
#383 = CIRCLE('',#384,2.5);
#384 = AXIS2_PLACEMENT_3D('',#385,#386,#387);
#385 = CARTESIAN_POINT('',(-10.25,4.263E-14,181.60520671964));
#386 = DIRECTION('',(0.,1.,0.));
#387 = DIRECTION('',(0.,0.,-1.));
#388 = ORIENTED_EDGE('',*,*,#389,.T.);
#389 = EDGE_CURVE('',#381,#235,#390,.T.);
#390 = LINE('',#391,#392);
#391 = CARTESIAN_POINT('',(-12.75,4.26312820728E-14,181.60520671964));
#392 = VECTOR('',#393,1.);
#393 = DIRECTION('',(0.,0.,1.));
#394 = ORIENTED_EDGE('',*,*,#242,.T.);
#395 = ORIENTED_EDGE('',*,*,#133,.T.);
#396 = ORIENTED_EDGE('',*,*,#397,.F.);
#397 = EDGE_CURVE('',#371,#134,#398,.T.);
#398 = LINE('',#399,#400);
#399 = CARTESIAN_POINT('',(-7.75,4.26312820728E-14,178.60520671964));
#400 = VECTOR('',#401,1.);
#401 = DIRECTION('',(0.,0.,1.));
#402 = PLANE('',#403);
#403 = AXIS2_PLACEMENT_3D('',#404,#405,#406);
#404 = CARTESIAN_POINT('',(-7.25,4.263E-14,178.60520671964));
#405 = DIRECTION('',(0.,1.,0.));
#406 = DIRECTION('',(0.,0.,1.));
#407 = ADVANCED_FACE('',(#408),#419,.T.);
#408 = FACE_BOUND('',#409,.F.);
#409 = EDGE_LOOP('',(#410,#416,#417,#418));
#410 = ORIENTED_EDGE('',*,*,#411,.T.);
#411 = EDGE_CURVE('',#371,#166,#412,.T.);
#412 = LINE('',#413,#414);
#413 = CARTESIAN_POINT('',(-7.416666666667,-0.333333333333,
    178.77187338631));
#414 = VECTOR('',#415,1.);
#415 = DIRECTION('',(0.57735026919,-0.57735026919,-0.57735026919));
#416 = ORIENTED_EDGE('',*,*,#173,.T.);
#417 = ORIENTED_EDGE('',*,*,#141,.F.);
#418 = ORIENTED_EDGE('',*,*,#397,.F.);
#419 = PLANE('',#420);
#420 = AXIS2_PLACEMENT_3D('',#421,#422,#423);
#421 = CARTESIAN_POINT('',(-7.5,-0.25,178.60520671964));
#422 = DIRECTION('',(0.707106781187,0.707106781187,-1.889513820523E-18)
  );
#423 = DIRECTION('',(-1.336088035637E-18,-1.336088035637E-18,-1.));
#424 = ADVANCED_FACE('',(#425),#450,.T.);
#425 = FACE_BOUND('',#426,.T.);
#426 = EDGE_LOOP('',(#427,#437,#443,#444));
#427 = ORIENTED_EDGE('',*,*,#428,.T.);
#428 = EDGE_CURVE('',#429,#431,#433,.T.);
#429 = VERTEX_POINT('',#430);
#430 = CARTESIAN_POINT('',(-10.25,-39.5,178.60520671964));
#431 = VERTEX_POINT('',#432);
#432 = CARTESIAN_POINT('',(-10.25,-0.5,178.60520671964));
#433 = LINE('',#434,#435);
#434 = CARTESIAN_POINT('',(-10.25,-40.,178.60520671964));
#435 = VECTOR('',#436,1.);
#436 = DIRECTION('',(0.,1.,0.));
#437 = ORIENTED_EDGE('',*,*,#438,.F.);
#438 = EDGE_CURVE('',#166,#431,#439,.T.);
#439 = LINE('',#440,#441);
#440 = CARTESIAN_POINT('',(-7.25,-0.5,178.60520671964));
#441 = VECTOR('',#442,1.);
#442 = DIRECTION('',(-1.,0.,0.));
#443 = ORIENTED_EDGE('',*,*,#165,.F.);
#444 = ORIENTED_EDGE('',*,*,#445,.T.);
#445 = EDGE_CURVE('',#158,#429,#446,.T.);
#446 = LINE('',#447,#448);
#447 = CARTESIAN_POINT('',(-7.25,-39.5,178.60520671964));
#448 = VECTOR('',#449,1.);
#449 = DIRECTION('',(-1.,0.,0.));
#450 = PLANE('',#451);
#451 = AXIS2_PLACEMENT_3D('',#452,#453,#454);
#452 = CARTESIAN_POINT('',(-7.25,-40.,178.60520671964));
#453 = DIRECTION('',(0.,0.,-1.));
#454 = DIRECTION('',(0.,1.,0.));
#455 = ADVANCED_FACE('',(#456),#467,.F.);
#456 = FACE_BOUND('',#457,.T.);
#457 = EDGE_LOOP('',(#458,#464,#465,#466));
#458 = ORIENTED_EDGE('',*,*,#459,.T.);
#459 = EDGE_CURVE('',#182,#285,#460,.T.);
#460 = LINE('',#461,#462);
#461 = CARTESIAN_POINT('',(-7.25,-11.5,184.60520671964));
#462 = VECTOR('',#463,1.);
#463 = DIRECTION('',(-1.,0.,0.));
#464 = ORIENTED_EDGE('',*,*,#284,.T.);
#465 = ORIENTED_EDGE('',*,*,#459,.F.);
#466 = ORIENTED_EDGE('',*,*,#181,.F.);
#467 = CYLINDRICAL_SURFACE('',#468,1.5);
#468 = AXIS2_PLACEMENT_3D('',#469,#470,#471);
#469 = CARTESIAN_POINT('',(-7.25,-10.,184.60520671964));
#470 = DIRECTION('',(1.,0.,0.));
#471 = DIRECTION('',(0.,-1.,0.));
#472 = ADVANCED_FACE('',(#473),#484,.F.);
#473 = FACE_BOUND('',#474,.T.);
#474 = EDGE_LOOP('',(#475,#481,#482,#483));
#475 = ORIENTED_EDGE('',*,*,#476,.T.);
#476 = EDGE_CURVE('',#193,#296,#477,.T.);
#477 = LINE('',#478,#479);
#478 = CARTESIAN_POINT('',(-7.25,-31.5,184.60520671964));
#479 = VECTOR('',#480,1.);
#480 = DIRECTION('',(-1.,0.,0.));
#481 = ORIENTED_EDGE('',*,*,#295,.T.);
#482 = ORIENTED_EDGE('',*,*,#476,.F.);
#483 = ORIENTED_EDGE('',*,*,#192,.F.);
#484 = CYLINDRICAL_SURFACE('',#485,1.5);
#485 = AXIS2_PLACEMENT_3D('',#486,#487,#488);
#486 = CARTESIAN_POINT('',(-7.25,-30.,184.60520671964));
#487 = DIRECTION('',(1.,0.,0.));
#488 = DIRECTION('',(0.,-1.,0.));
#489 = ADVANCED_FACE('',(#490),#501,.T.);
#490 = FACE_BOUND('',#491,.T.);
#491 = EDGE_LOOP('',(#492,#498,#499,#500));
#492 = ORIENTED_EDGE('',*,*,#493,.F.);
#493 = EDGE_CURVE('',#323,#260,#494,.T.);
#494 = LINE('',#495,#496);
#495 = CARTESIAN_POINT('',(-13.25,-39.5,181.60520671964));
#496 = VECTOR('',#497,1.);
#497 = DIRECTION('',(-0.707106781187,0.707106781187,-4.329780281177E-17)
  );
#498 = ORIENTED_EDGE('',*,*,#331,.T.);
#499 = ORIENTED_EDGE('',*,*,#209,.T.);
#500 = ORIENTED_EDGE('',*,*,#276,.F.);
#501 = PLANE('',#502);
#502 = AXIS2_PLACEMENT_3D('',#503,#504,#505);
#503 = CARTESIAN_POINT('',(-13.,-39.75,181.60520671964));
#504 = DIRECTION('',(-0.707106781187,-0.707106781187,-1.889513820523E-18
    ));
#505 = DIRECTION('',(-1.336088035637E-18,-1.336088035637E-18,1.));
#506 = ADVANCED_FACE('',(#507),#518,.F.);
#507 = FACE_BOUND('',#508,.F.);
#508 = EDGE_LOOP('',(#509,#515,#516,#517));
#509 = ORIENTED_EDGE('',*,*,#510,.F.);
#510 = EDGE_CURVE('',#381,#262,#511,.T.);
#511 = LINE('',#512,#513);
#512 = CARTESIAN_POINT('',(-13.25,-0.5,181.60520671964));
#513 = VECTOR('',#514,1.);
#514 = DIRECTION('',(-0.707106781187,-0.707106781187,-4.329780281177E-17
    ));
#515 = ORIENTED_EDGE('',*,*,#389,.T.);
#516 = ORIENTED_EDGE('',*,*,#234,.T.);
#517 = ORIENTED_EDGE('',*,*,#269,.F.);
#518 = PLANE('',#519);
#519 = AXIS2_PLACEMENT_3D('',#520,#521,#522);
#520 = CARTESIAN_POINT('',(-13.,-0.25,181.60520671964));
#521 = DIRECTION('',(0.707106781187,-0.707106781187,1.889513820523E-18)
  );
#522 = DIRECTION('',(-1.336088035637E-18,1.336088035637E-18,1.));
#523 = ADVANCED_FACE('',(#524),#542,.T.);
#524 = FACE_BOUND('',#525,.T.);
#525 = EDGE_LOOP('',(#526,#527,#534,#535));
#526 = ORIENTED_EDGE('',*,*,#428,.F.);
#527 = ORIENTED_EDGE('',*,*,#528,.T.);
#528 = EDGE_CURVE('',#429,#260,#529,.T.);
#529 = CIRCLE('',#530,3.);
#530 = AXIS2_PLACEMENT_3D('',#531,#532,#533);
#531 = CARTESIAN_POINT('',(-10.25,-39.5,181.60520671964));
#532 = DIRECTION('',(0.,1.,0.));
#533 = DIRECTION('',(0.,0.,-1.));
#534 = ORIENTED_EDGE('',*,*,#259,.T.);
#535 = ORIENTED_EDGE('',*,*,#536,.F.);
#536 = EDGE_CURVE('',#431,#262,#537,.T.);
#537 = CIRCLE('',#538,3.);
#538 = AXIS2_PLACEMENT_3D('',#539,#540,#541);
#539 = CARTESIAN_POINT('',(-10.25,-0.5,181.60520671964));
#540 = DIRECTION('',(0.,1.,0.));
#541 = DIRECTION('',(0.,0.,-1.));
#542 = CYLINDRICAL_SURFACE('',#543,3.);
#543 = AXIS2_PLACEMENT_3D('',#544,#545,#546);
#544 = CARTESIAN_POINT('',(-10.25,-40.,181.60520671964));
#545 = DIRECTION('',(0.,1.,0.));
#546 = DIRECTION('',(0.,0.,-1.));
#547 = ADVANCED_FACE('',(#548),#559,.F.);
#548 = FACE_BOUND('',#549,.T.);
#549 = EDGE_LOOP('',(#550,#551,#552,#558));
#550 = ORIENTED_EDGE('',*,*,#353,.F.);
#551 = ORIENTED_EDGE('',*,*,#312,.T.);
#552 = ORIENTED_EDGE('',*,*,#553,.T.);
#553 = EDGE_CURVE('',#315,#429,#554,.T.);
#554 = LINE('',#555,#556);
#555 = CARTESIAN_POINT('',(-10.25,-39.75,178.85520671964));
#556 = VECTOR('',#557,1.);
#557 = DIRECTION('',(-2.90882763039E-35,0.707106781187,-0.707106781187)
  );
#558 = ORIENTED_EDGE('',*,*,#445,.F.);
#559 = PLANE('',#560);
#560 = AXIS2_PLACEMENT_3D('',#561,#562,#563);
#561 = CARTESIAN_POINT('',(-7.25,-39.75,178.85520671964));
#562 = DIRECTION('',(-1.889513820523E-18,0.707106781187,0.707106781187)
  );
#563 = DIRECTION('',(1.,1.336088035637E-18,1.336088035637E-18));
#564 = ADVANCED_FACE('',(#565),#571,.T.);
#565 = FACE_BOUND('',#566,.T.);
#566 = EDGE_LOOP('',(#567,#568,#569,#570));
#567 = ORIENTED_EDGE('',*,*,#553,.F.);
#568 = ORIENTED_EDGE('',*,*,#322,.T.);
#569 = ORIENTED_EDGE('',*,*,#493,.T.);
#570 = ORIENTED_EDGE('',*,*,#528,.F.);
#571 = CONICAL_SURFACE('',#572,3.,0.785398163397);
#572 = AXIS2_PLACEMENT_3D('',#573,#574,#575);
#573 = CARTESIAN_POINT('',(-10.25,-39.5,181.60520671964));
#574 = DIRECTION('',(0.,1.,0.));
#575 = DIRECTION('',(0.,0.,-1.));
#576 = ADVANCED_FACE('',(#577),#588,.T.);
#577 = FACE_BOUND('',#578,.F.);
#578 = EDGE_LOOP('',(#579,#580,#581,#587));
#579 = ORIENTED_EDGE('',*,*,#411,.F.);
#580 = ORIENTED_EDGE('',*,*,#370,.T.);
#581 = ORIENTED_EDGE('',*,*,#582,.T.);
#582 = EDGE_CURVE('',#373,#431,#583,.T.);
#583 = LINE('',#584,#585);
#584 = CARTESIAN_POINT('',(-10.25,-0.25,178.85520671964));
#585 = VECTOR('',#586,1.);
#586 = DIRECTION('',(-2.90882763039E-35,-0.707106781187,-0.707106781187)
  );
#587 = ORIENTED_EDGE('',*,*,#438,.F.);
#588 = PLANE('',#589);
#589 = AXIS2_PLACEMENT_3D('',#590,#591,#592);
#590 = CARTESIAN_POINT('',(-7.25,-0.25,178.85520671964));
#591 = DIRECTION('',(1.889513820523E-18,0.707106781187,-0.707106781187)
  );
#592 = DIRECTION('',(1.,-1.336088035637E-18,1.336088035637E-18));
#593 = ADVANCED_FACE('',(#594),#600,.T.);
#594 = FACE_BOUND('',#595,.F.);
#595 = EDGE_LOOP('',(#596,#597,#598,#599));
#596 = ORIENTED_EDGE('',*,*,#582,.F.);
#597 = ORIENTED_EDGE('',*,*,#380,.T.);
#598 = ORIENTED_EDGE('',*,*,#510,.T.);
#599 = ORIENTED_EDGE('',*,*,#536,.F.);
#600 = CONICAL_SURFACE('',#601,3.,0.785398163397);
#601 = AXIS2_PLACEMENT_3D('',#602,#603,#604);
#602 = CARTESIAN_POINT('',(-10.25,-0.5,181.60520671964));
#603 = DIRECTION('',(-0.,-1.,-0.));
#604 = DIRECTION('',(0.,0.,-1.));
#605 = ( GEOMETRIC_REPRESENTATION_CONTEXT(3) 
GLOBAL_UNCERTAINTY_ASSIGNED_CONTEXT((#609)) GLOBAL_UNIT_ASSIGNED_CONTEXT
((#606,#607,#608)) REPRESENTATION_CONTEXT('Context #1',
  '3D Context with UNIT and UNCERTAINTY') );
#606 = ( LENGTH_UNIT() NAMED_UNIT(*) SI_UNIT(.MILLI.,.METRE.) );
#607 = ( NAMED_UNIT(*) PLANE_ANGLE_UNIT() SI_UNIT($,.RADIAN.) );
#608 = ( NAMED_UNIT(*) SI_UNIT($,.STERADIAN.) SOLID_ANGLE_UNIT() );
#609 = UNCERTAINTY_MEASURE_WITH_UNIT(LENGTH_MEASURE(1.E-07),#606,
  'distance_accuracy_value','confusion accuracy');
#610 = PRODUCT_RELATED_PRODUCT_CATEGORY('part',$,(#7));
#611 = MECHANICAL_DESIGN_GEOMETRIC_PRESENTATION_REPRESENTATION('',(#612)
  ,#605);
#612 = STYLED_ITEM('color',(#613),#15);
#613 = PRESENTATION_STYLE_ASSIGNMENT((#614,#620));
#614 = SURFACE_STYLE_USAGE(.BOTH.,#615);
#615 = SURFACE_SIDE_STYLE('',(#616));
#616 = SURFACE_STYLE_FILL_AREA(#617);
#617 = FILL_AREA_STYLE('',(#618));
#618 = FILL_AREA_STYLE_COLOUR('',#619);
#619 = COLOUR_RGB('',0.678431390124,0.709803936702,0.741176476869);
#620 = CURVE_STYLE('',#621,POSITIVE_LENGTH_MEASURE(0.1),#622);
#621 = DRAUGHTING_PRE_DEFINED_CURVE_FONT('continuous');
#622 = COLOUR_RGB('',9.803921802644E-02,9.803921802644E-02,
  9.803921802644E-02);
ENDSEC;
END-ISO-10303-21;
