ISO-10303-21;
HEADER;
FILE_DESCRIPTION(('FreeCAD Model'),'2;1');
FILE_NAME('Open CASCADE Shape Model','2026-05-07T10:20:31',(''),(''),
  'Open CASCADE STEP processor 7.8','FreeCAD','Unknown');
FILE_SCHEMA(('AUTOMOTIVE_DESIGN { 1 0 10303 214 1 1 1 1 }'));
ENDSEC;
DATA;
#1 = APPLICATION_PROTOCOL_DEFINITION('international standard',
  'automotive_design',2000,#2);
#2 = APPLICATION_CONTEXT(
  'core data for automotive mechanical design processes');
#3 = SHAPE_DEFINITION_REPRESENTATION(#4,#10);
#4 = PRODUCT_DEFINITION_SHAPE('','',#5);
#5 = PRODUCT_DEFINITION('design','',#6,#9);
#6 = PRODUCT_DEFINITION_FORMATION('','',#7);
#7 = PRODUCT('Body','Body','',(#8));
#8 = PRODUCT_CONTEXT('',#2,'mechanical');
#9 = PRODUCT_DEFINITION_CONTEXT('part definition',#2,'design');
#10 = ADVANCED_BREP_SHAPE_REPRESENTATION('',(#11,#15),#2102);
#11 = AXIS2_PLACEMENT_3D('',#12,#13,#14);
#12 = CARTESIAN_POINT('',(0.,0.,0.));
#13 = DIRECTION('',(0.,0.,1.));
#14 = DIRECTION('',(1.,0.,-0.));
#15 = MANIFOLD_SOLID_BREP('',#16);
#16 = CLOSED_SHELL('',(#17,#57,#90,#121,#152,#185,#210,#235,#266,#472,
    #489,#695,#712,#743,#760,#777,#810,#827,#844,#869,#893,#917,#942,
    #967,#984,#1015,#1039,#1063,#1080,#1111,#1135,#1159,#1176,#1207,
    #1231,#1255,#1272,#1297,#1314,#1331,#1356,#1380,#1404,#1429,#1454,
    #1471,#1502,#1526,#1550,#1567,#1598,#1622,#1646,#1663,#1694,#1718,
    #1742,#1759,#1784,#1801,#1818,#1835,#1852,#1869,#1881,#1903,#1920,
    #1937,#1949,#1971,#1988,#2005,#2017,#2039,#2056,#2073,#2085));
#17 = ADVANCED_FACE('',(#18),#52,.F.);
#18 = FACE_BOUND('',#19,.F.);
#19 = EDGE_LOOP('',(#20,#30,#38,#46));
#20 = ORIENTED_EDGE('',*,*,#21,.T.);
#21 = EDGE_CURVE('',#22,#24,#26,.T.);
#22 = VERTEX_POINT('',#23);
#23 = CARTESIAN_POINT('',(6.,20.,0.5));
#24 = VERTEX_POINT('',#25);
#25 = CARTESIAN_POINT('',(6.,20.,2.5));
#26 = LINE('',#27,#28);
#27 = CARTESIAN_POINT('',(6.,20.,0.));
#28 = VECTOR('',#29,1.);
#29 = DIRECTION('',(0.,0.,1.));
#30 = ORIENTED_EDGE('',*,*,#31,.T.);
#31 = EDGE_CURVE('',#24,#32,#34,.T.);
#32 = VERTEX_POINT('',#33);
#33 = CARTESIAN_POINT('',(-6.,20.,2.5));
#34 = LINE('',#35,#36);
#35 = CARTESIAN_POINT('',(6.,20.,2.5));
#36 = VECTOR('',#37,1.);
#37 = DIRECTION('',(-1.,0.,0.));
#38 = ORIENTED_EDGE('',*,*,#39,.F.);
#39 = EDGE_CURVE('',#40,#32,#42,.T.);
#40 = VERTEX_POINT('',#41);
#41 = CARTESIAN_POINT('',(-6.,20.,0.5));
#42 = LINE('',#43,#44);
#43 = CARTESIAN_POINT('',(-6.,20.,0.));
#44 = VECTOR('',#45,1.);
#45 = DIRECTION('',(0.,0.,1.));
#46 = ORIENTED_EDGE('',*,*,#47,.F.);
#47 = EDGE_CURVE('',#22,#40,#48,.T.);
#48 = LINE('',#49,#50);
#49 = CARTESIAN_POINT('',(6.,20.,0.5));
#50 = VECTOR('',#51,1.);
#51 = DIRECTION('',(-1.,0.,0.));
#52 = PLANE('',#53);
#53 = AXIS2_PLACEMENT_3D('',#54,#55,#56);
#54 = CARTESIAN_POINT('',(10.,20.,0.));
#55 = DIRECTION('',(0.,-1.,0.));
#56 = DIRECTION('',(-1.,0.,0.));
#57 = ADVANCED_FACE('',(#58),#85,.T.);
#58 = FACE_BOUND('',#59,.F.);
#59 = EDGE_LOOP('',(#60,#61,#70,#78));
#60 = ORIENTED_EDGE('',*,*,#21,.F.);
#61 = ORIENTED_EDGE('',*,*,#62,.F.);
#62 = EDGE_CURVE('',#63,#22,#65,.T.);
#63 = VERTEX_POINT('',#64);
#64 = CARTESIAN_POINT('',(10.,16.,0.5));
#65 = CIRCLE('',#66,4.);
#66 = AXIS2_PLACEMENT_3D('',#67,#68,#69);
#67 = CARTESIAN_POINT('',(6.,16.,0.5));
#68 = DIRECTION('',(0.,0.,1.));
#69 = DIRECTION('',(1.,0.,0.));
#70 = ORIENTED_EDGE('',*,*,#71,.T.);
#71 = EDGE_CURVE('',#63,#72,#74,.T.);
#72 = VERTEX_POINT('',#73);
#73 = CARTESIAN_POINT('',(10.,16.,2.5));
#74 = LINE('',#75,#76);
#75 = CARTESIAN_POINT('',(10.,16.,0.));
#76 = VECTOR('',#77,1.);
#77 = DIRECTION('',(0.,0.,1.));
#78 = ORIENTED_EDGE('',*,*,#79,.T.);
#79 = EDGE_CURVE('',#72,#24,#80,.T.);
#80 = CIRCLE('',#81,4.);
#81 = AXIS2_PLACEMENT_3D('',#82,#83,#84);
#82 = CARTESIAN_POINT('',(6.,16.,2.5));
#83 = DIRECTION('',(0.,0.,1.));
#84 = DIRECTION('',(1.,0.,0.));
#85 = CYLINDRICAL_SURFACE('',#86,4.);
#86 = AXIS2_PLACEMENT_3D('',#87,#88,#89);
#87 = CARTESIAN_POINT('',(6.,16.,0.));
#88 = DIRECTION('',(0.,0.,1.));
#89 = DIRECTION('',(0.,1.,0.));
#90 = ADVANCED_FACE('',(#91),#116,.T.);
#91 = FACE_BOUND('',#92,.F.);
#92 = EDGE_LOOP('',(#93,#101,#102,#110));
#93 = ORIENTED_EDGE('',*,*,#94,.F.);
#94 = EDGE_CURVE('',#22,#95,#97,.T.);
#95 = VERTEX_POINT('',#96);
#96 = CARTESIAN_POINT('',(6.,19.5,4.718447854657E-16));
#97 = LINE('',#98,#99);
#98 = CARTESIAN_POINT('',(6.,19.75,0.25));
#99 = VECTOR('',#100,1.);
#100 = DIRECTION('',(-2.90882763039E-35,-0.707106781187,-0.707106781187)
  );
#101 = ORIENTED_EDGE('',*,*,#47,.T.);
#102 = ORIENTED_EDGE('',*,*,#103,.T.);
#103 = EDGE_CURVE('',#40,#104,#106,.T.);
#104 = VERTEX_POINT('',#105);
#105 = CARTESIAN_POINT('',(-6.,19.5,4.440892098501E-16));
#106 = LINE('',#107,#108);
#107 = CARTESIAN_POINT('',(-6.,19.75,0.25));
#108 = VECTOR('',#109,1.);
#109 = DIRECTION('',(-2.90882763039E-35,-0.707106781187,-0.707106781187)
  );
#110 = ORIENTED_EDGE('',*,*,#111,.F.);
#111 = EDGE_CURVE('',#95,#104,#112,.T.);
#112 = LINE('',#113,#114);
#113 = CARTESIAN_POINT('',(6.,19.5,0.));
#114 = VECTOR('',#115,1.);
#115 = DIRECTION('',(-1.,0.,0.));
#116 = PLANE('',#117);
#117 = AXIS2_PLACEMENT_3D('',#118,#119,#120);
#118 = CARTESIAN_POINT('',(6.,19.75,0.25));
#119 = DIRECTION('',(1.889513820523E-18,0.707106781187,-0.707106781187)
  );
#120 = DIRECTION('',(1.,-1.336088035637E-18,1.336088035637E-18));
#121 = ADVANCED_FACE('',(#122),#147,.F.);
#122 = FACE_BOUND('',#123,.T.);
#123 = EDGE_LOOP('',(#124,#132,#133,#141));
#124 = ORIENTED_EDGE('',*,*,#125,.F.);
#125 = EDGE_CURVE('',#24,#126,#128,.T.);
#126 = VERTEX_POINT('',#127);
#127 = CARTESIAN_POINT('',(6.,19.5,3.));
#128 = LINE('',#129,#130);
#129 = CARTESIAN_POINT('',(6.,19.75,2.75));
#130 = VECTOR('',#131,1.);
#131 = DIRECTION('',(-2.90882763039E-35,-0.707106781187,0.707106781187)
  );
#132 = ORIENTED_EDGE('',*,*,#31,.T.);
#133 = ORIENTED_EDGE('',*,*,#134,.T.);
#134 = EDGE_CURVE('',#32,#135,#137,.T.);
#135 = VERTEX_POINT('',#136);
#136 = CARTESIAN_POINT('',(-6.,19.5,3.));
#137 = LINE('',#138,#139);
#138 = CARTESIAN_POINT('',(-6.,19.75,2.75));
#139 = VECTOR('',#140,1.);
#140 = DIRECTION('',(-2.90882763039E-35,-0.707106781187,0.707106781187)
  );
#141 = ORIENTED_EDGE('',*,*,#142,.F.);
#142 = EDGE_CURVE('',#126,#135,#143,.T.);
#143 = LINE('',#144,#145);
#144 = CARTESIAN_POINT('',(6.,19.5,3.));
#145 = VECTOR('',#146,1.);
#146 = DIRECTION('',(-1.,0.,0.));
#147 = PLANE('',#148);
#148 = AXIS2_PLACEMENT_3D('',#149,#150,#151);
#149 = CARTESIAN_POINT('',(6.,19.75,2.75));
#150 = DIRECTION('',(-1.889513820523E-18,-0.707106781187,-0.707106781187
    ));
#151 = DIRECTION('',(1.,-1.336088035637E-18,-1.336088035637E-18));
#152 = ADVANCED_FACE('',(#153),#180,.T.);
#153 = FACE_BOUND('',#154,.T.);
#154 = EDGE_LOOP('',(#155,#156,#165,#173));
#155 = ORIENTED_EDGE('',*,*,#39,.F.);
#156 = ORIENTED_EDGE('',*,*,#157,.T.);
#157 = EDGE_CURVE('',#40,#158,#160,.T.);
#158 = VERTEX_POINT('',#159);
#159 = CARTESIAN_POINT('',(-10.,16.,0.5));
#160 = CIRCLE('',#161,4.);
#161 = AXIS2_PLACEMENT_3D('',#162,#163,#164);
#162 = CARTESIAN_POINT('',(-6.,16.,0.5));
#163 = DIRECTION('',(0.,-0.,1.));
#164 = DIRECTION('',(2.22044604925E-16,1.,0.));
#165 = ORIENTED_EDGE('',*,*,#166,.T.);
#166 = EDGE_CURVE('',#158,#167,#169,.T.);
#167 = VERTEX_POINT('',#168);
#168 = CARTESIAN_POINT('',(-10.,16.,2.5));
#169 = LINE('',#170,#171);
#170 = CARTESIAN_POINT('',(-10.,16.,0.));
#171 = VECTOR('',#172,1.);
#172 = DIRECTION('',(0.,0.,1.));
#173 = ORIENTED_EDGE('',*,*,#174,.F.);
#174 = EDGE_CURVE('',#32,#167,#175,.T.);
#175 = CIRCLE('',#176,4.);
#176 = AXIS2_PLACEMENT_3D('',#177,#178,#179);
#177 = CARTESIAN_POINT('',(-6.,16.,2.5));
#178 = DIRECTION('',(0.,-0.,1.));
#179 = DIRECTION('',(2.22044604925E-16,1.,0.));
#180 = CYLINDRICAL_SURFACE('',#181,4.);
#181 = AXIS2_PLACEMENT_3D('',#182,#183,#184);
#182 = CARTESIAN_POINT('',(-6.,16.,0.));
#183 = DIRECTION('',(0.,0.,1.));
#184 = DIRECTION('',(0.,1.,0.));
#185 = ADVANCED_FACE('',(#186),#205,.T.);
#186 = FACE_BOUND('',#187,.F.);
#187 = EDGE_LOOP('',(#188,#196,#197,#198));
#188 = ORIENTED_EDGE('',*,*,#189,.F.);
#189 = EDGE_CURVE('',#63,#190,#192,.T.);
#190 = VERTEX_POINT('',#191);
#191 = CARTESIAN_POINT('',(9.5,16.,-2.22044604925E-16));
#192 = LINE('',#193,#194);
#193 = CARTESIAN_POINT('',(9.75,16.,0.25));
#194 = VECTOR('',#195,1.);
#195 = DIRECTION('',(-0.707106781187,-2.90882763039E-35,-0.707106781187)
  );
#196 = ORIENTED_EDGE('',*,*,#62,.T.);
#197 = ORIENTED_EDGE('',*,*,#94,.T.);
#198 = ORIENTED_EDGE('',*,*,#199,.F.);
#199 = EDGE_CURVE('',#190,#95,#200,.T.);
#200 = CIRCLE('',#201,3.5);
#201 = AXIS2_PLACEMENT_3D('',#202,#203,#204);
#202 = CARTESIAN_POINT('',(6.,16.,0.));
#203 = DIRECTION('',(0.,0.,1.));
#204 = DIRECTION('',(1.,0.,0.));
#205 = CONICAL_SURFACE('',#206,4.,0.785398163397);
#206 = AXIS2_PLACEMENT_3D('',#207,#208,#209);
#207 = CARTESIAN_POINT('',(6.,16.,0.5));
#208 = DIRECTION('',(0.,0.,1.));
#209 = DIRECTION('',(1.,0.,0.));
#210 = ADVANCED_FACE('',(#211),#230,.T.);
#211 = FACE_BOUND('',#212,.T.);
#212 = EDGE_LOOP('',(#213,#221,#222,#223));
#213 = ORIENTED_EDGE('',*,*,#214,.F.);
#214 = EDGE_CURVE('',#72,#215,#217,.T.);
#215 = VERTEX_POINT('',#216);
#216 = CARTESIAN_POINT('',(9.5,16.,3.));
#217 = LINE('',#218,#219);
#218 = CARTESIAN_POINT('',(9.75,16.,2.75));
#219 = VECTOR('',#220,1.);
#220 = DIRECTION('',(-0.707106781187,-2.90882763039E-35,0.707106781187)
  );
#221 = ORIENTED_EDGE('',*,*,#79,.T.);
#222 = ORIENTED_EDGE('',*,*,#125,.T.);
#223 = ORIENTED_EDGE('',*,*,#224,.F.);
#224 = EDGE_CURVE('',#215,#126,#225,.T.);
#225 = CIRCLE('',#226,3.5);
#226 = AXIS2_PLACEMENT_3D('',#227,#228,#229);
#227 = CARTESIAN_POINT('',(6.,16.,3.));
#228 = DIRECTION('',(0.,0.,1.));
#229 = DIRECTION('',(1.,0.,0.));
#230 = CONICAL_SURFACE('',#231,4.,0.785398163397);
#231 = AXIS2_PLACEMENT_3D('',#232,#233,#234);
#232 = CARTESIAN_POINT('',(6.,16.,2.5));
#233 = DIRECTION('',(-0.,-0.,-1.));
#234 = DIRECTION('',(1.,0.,0.));
#235 = ADVANCED_FACE('',(#236),#261,.T.);
#236 = FACE_BOUND('',#237,.T.);
#237 = EDGE_LOOP('',(#238,#239,#247,#255));
#238 = ORIENTED_EDGE('',*,*,#71,.T.);
#239 = ORIENTED_EDGE('',*,*,#240,.F.);
#240 = EDGE_CURVE('',#241,#72,#243,.T.);
#241 = VERTEX_POINT('',#242);
#242 = CARTESIAN_POINT('',(10.,-10.85281509435,2.5));
#243 = LINE('',#244,#245);
#244 = CARTESIAN_POINT('',(10.,-10.85281509435,2.5));
#245 = VECTOR('',#246,1.);
#246 = DIRECTION('',(0.,1.,0.));
#247 = ORIENTED_EDGE('',*,*,#248,.F.);
#248 = EDGE_CURVE('',#249,#241,#251,.T.);
#249 = VERTEX_POINT('',#250);
#250 = CARTESIAN_POINT('',(10.,-10.85281509435,0.5));
#251 = LINE('',#252,#253);
#252 = CARTESIAN_POINT('',(10.,-10.85281509435,0.));
#253 = VECTOR('',#254,1.);
#254 = DIRECTION('',(0.,0.,1.));
#255 = ORIENTED_EDGE('',*,*,#256,.T.);
#256 = EDGE_CURVE('',#249,#63,#257,.T.);
#257 = LINE('',#258,#259);
#258 = CARTESIAN_POINT('',(10.,-10.85281509435,0.5));
#259 = VECTOR('',#260,1.);
#260 = DIRECTION('',(0.,1.,0.));
#261 = PLANE('',#262);
#262 = AXIS2_PLACEMENT_3D('',#263,#264,#265);
#263 = CARTESIAN_POINT('',(10.,20.,0.));
#264 = DIRECTION('',(1.,0.,0.));
#265 = DIRECTION('',(0.,-1.,0.));
#266 = ADVANCED_FACE('',(#267,#354,#388,#422,#456),#467,.F.);
#267 = FACE_BOUND('',#268,.F.);
#268 = EDGE_LOOP('',(#269,#270,#279,#287,#296,#304,#313,#321,#330,#338,
    #347,#353));
#269 = ORIENTED_EDGE('',*,*,#111,.T.);
#270 = ORIENTED_EDGE('',*,*,#271,.T.);
#271 = EDGE_CURVE('',#104,#272,#274,.T.);
#272 = VERTEX_POINT('',#273);
#273 = CARTESIAN_POINT('',(-9.5,16.,0.));
#274 = CIRCLE('',#275,3.5);
#275 = AXIS2_PLACEMENT_3D('',#276,#277,#278);
#276 = CARTESIAN_POINT('',(-6.,16.,0.));
#277 = DIRECTION('',(0.,-0.,1.));
#278 = DIRECTION('',(2.22044604925E-16,1.,0.));
#279 = ORIENTED_EDGE('',*,*,#280,.T.);
#280 = EDGE_CURVE('',#272,#281,#283,.T.);
#281 = VERTEX_POINT('',#282);
#282 = CARTESIAN_POINT('',(-9.5,-10.85281509435,-2.22044604925E-16));
#283 = LINE('',#284,#285);
#284 = CARTESIAN_POINT('',(-9.5,16.,0.));
#285 = VECTOR('',#286,1.);
#286 = DIRECTION('',(-0.,-1.,-0.));
#287 = ORIENTED_EDGE('',*,*,#288,.T.);
#288 = EDGE_CURVE('',#281,#289,#291,.T.);
#289 = VERTEX_POINT('',#290);
#290 = CARTESIAN_POINT('',(-8.967994064018,-12.70781138436,0.));
#291 = CIRCLE('',#292,3.5);
#292 = AXIS2_PLACEMENT_3D('',#293,#294,#295);
#293 = CARTESIAN_POINT('',(-6.,-10.85281509435,0.));
#294 = DIRECTION('',(0.,0.,1.));
#295 = DIRECTION('',(-1.,0.,0.));
#296 = ORIENTED_EDGE('',*,*,#297,.T.);
#297 = EDGE_CURVE('',#289,#298,#300,.T.);
#298 = VERTEX_POINT('',#299);
#299 = CARTESIAN_POINT('',(-5.75100349799,-17.85499629001,
    7.216449660064E-16));
#300 = LINE('',#301,#302);
#301 = CARTESIAN_POINT('',(-8.967994064018,-12.70781138436,0.));
#302 = VECTOR('',#303,1.);
#303 = DIRECTION('',(0.529998940003,-0.847998304005,0.));
#304 = ORIENTED_EDGE('',*,*,#305,.T.);
#305 = EDGE_CURVE('',#298,#306,#308,.T.);
#306 = VERTEX_POINT('',#307);
#307 = CARTESIAN_POINT('',(-2.783009433972,-19.5,0.));
#308 = CIRCLE('',#309,3.5);
#309 = AXIS2_PLACEMENT_3D('',#310,#311,#312);
#310 = CARTESIAN_POINT('',(-2.783009433972,-16.,0.));
#311 = DIRECTION('',(0.,0.,1.));
#312 = DIRECTION('',(-0.847998304005,-0.529998940003,0.));
#313 = ORIENTED_EDGE('',*,*,#314,.T.);
#314 = EDGE_CURVE('',#306,#315,#317,.T.);
#315 = VERTEX_POINT('',#316);
#316 = CARTESIAN_POINT('',(2.783009433972,-19.5,4.718447854657E-16));
#317 = LINE('',#318,#319);
#318 = CARTESIAN_POINT('',(-2.783009433972,-19.5,0.));
#319 = VECTOR('',#320,1.);
#320 = DIRECTION('',(1.,0.,0.));
#321 = ORIENTED_EDGE('',*,*,#322,.T.);
#322 = EDGE_CURVE('',#315,#323,#325,.T.);
#323 = VERTEX_POINT('',#324);
#324 = CARTESIAN_POINT('',(5.75100349799,-17.85499629001,0.));
#325 = CIRCLE('',#326,3.5);
#326 = AXIS2_PLACEMENT_3D('',#327,#328,#329);
#327 = CARTESIAN_POINT('',(2.783009433972,-16.,0.));
#328 = DIRECTION('',(-0.,0.,1.));
#329 = DIRECTION('',(0.,-1.,0.));
#330 = ORIENTED_EDGE('',*,*,#331,.T.);
#331 = EDGE_CURVE('',#323,#332,#334,.T.);
#332 = VERTEX_POINT('',#333);
#333 = CARTESIAN_POINT('',(8.967994064018,-12.70781138436,
    -5.551115123126E-17));
#334 = LINE('',#335,#336);
#335 = CARTESIAN_POINT('',(5.75100349799,-17.85499629001,0.));
#336 = VECTOR('',#337,1.);
#337 = DIRECTION('',(0.529998940003,0.847998304005,0.));
#338 = ORIENTED_EDGE('',*,*,#339,.T.);
#339 = EDGE_CURVE('',#332,#340,#342,.T.);
#340 = VERTEX_POINT('',#341);
#341 = CARTESIAN_POINT('',(9.5,-10.85281509435,0.));
#342 = CIRCLE('',#343,3.5);
#343 = AXIS2_PLACEMENT_3D('',#344,#345,#346);
#344 = CARTESIAN_POINT('',(6.,-10.85281509435,0.));
#345 = DIRECTION('',(-0.,0.,1.));
#346 = DIRECTION('',(0.847998304005,-0.529998940003,0.));
#347 = ORIENTED_EDGE('',*,*,#348,.T.);
#348 = EDGE_CURVE('',#340,#190,#349,.T.);
#349 = LINE('',#350,#351);
#350 = CARTESIAN_POINT('',(9.5,-10.85281509435,0.));
#351 = VECTOR('',#352,1.);
#352 = DIRECTION('',(0.,1.,0.));
#353 = ORIENTED_EDGE('',*,*,#199,.T.);
#354 = FACE_BOUND('',#355,.F.);
#355 = EDGE_LOOP('',(#356,#366,#374,#382));
#356 = ORIENTED_EDGE('',*,*,#357,.F.);
#357 = EDGE_CURVE('',#358,#360,#362,.T.);
#358 = VERTEX_POINT('',#359);
#359 = CARTESIAN_POINT('',(-8.,11.5,-7.771561172376E-16));
#360 = VERTEX_POINT('',#361);
#361 = CARTESIAN_POINT('',(8.,11.5,-7.771561172376E-16));
#362 = LINE('',#363,#364);
#363 = CARTESIAN_POINT('',(-7.5,11.5,0.));
#364 = VECTOR('',#365,1.);
#365 = DIRECTION('',(1.,0.,0.));
#366 = ORIENTED_EDGE('',*,*,#367,.F.);
#367 = EDGE_CURVE('',#368,#358,#370,.T.);
#368 = VERTEX_POINT('',#369);
#369 = CARTESIAN_POINT('',(-8.,15.5,-7.771561172376E-16));
#370 = LINE('',#371,#372);
#371 = CARTESIAN_POINT('',(-8.,15.,0.));
#372 = VECTOR('',#373,1.);
#373 = DIRECTION('',(0.,-1.,0.));
#374 = ORIENTED_EDGE('',*,*,#375,.F.);
#375 = EDGE_CURVE('',#376,#368,#378,.T.);
#376 = VERTEX_POINT('',#377);
#377 = CARTESIAN_POINT('',(8.,15.5,4.718447854657E-16));
#378 = LINE('',#379,#380);
#379 = CARTESIAN_POINT('',(7.5,15.5,0.));
#380 = VECTOR('',#381,1.);
#381 = DIRECTION('',(-1.,0.,0.));
#382 = ORIENTED_EDGE('',*,*,#383,.F.);
#383 = EDGE_CURVE('',#360,#376,#384,.T.);
#384 = LINE('',#385,#386);
#385 = CARTESIAN_POINT('',(8.,12.,0.));
#386 = VECTOR('',#387,1.);
#387 = DIRECTION('',(0.,1.,0.));
#388 = FACE_BOUND('',#389,.F.);
#389 = EDGE_LOOP('',(#390,#400,#408,#416));
#390 = ORIENTED_EDGE('',*,*,#391,.F.);
#391 = EDGE_CURVE('',#392,#394,#396,.T.);
#392 = VERTEX_POINT('',#393);
#393 = CARTESIAN_POINT('',(-8.,0.5,-5.551115123126E-17));
#394 = VERTEX_POINT('',#395);
#395 = CARTESIAN_POINT('',(8.,0.5,-5.551115123126E-17));
#396 = LINE('',#397,#398);
#397 = CARTESIAN_POINT('',(-7.5,0.5,0.));
#398 = VECTOR('',#399,1.);
#399 = DIRECTION('',(1.,0.,0.));
#400 = ORIENTED_EDGE('',*,*,#401,.F.);
#401 = EDGE_CURVE('',#402,#392,#404,.T.);
#402 = VERTEX_POINT('',#403);
#403 = CARTESIAN_POINT('',(-8.,4.5,-1.665334536938E-16));
#404 = LINE('',#405,#406);
#405 = CARTESIAN_POINT('',(-8.,4.,0.));
#406 = VECTOR('',#407,1.);
#407 = DIRECTION('',(0.,-1.,0.));
#408 = ORIENTED_EDGE('',*,*,#409,.F.);
#409 = EDGE_CURVE('',#410,#402,#412,.T.);
#410 = VERTEX_POINT('',#411);
#411 = CARTESIAN_POINT('',(8.,4.5,4.718447854657E-16));
#412 = LINE('',#413,#414);
#413 = CARTESIAN_POINT('',(7.5,4.5,0.));
#414 = VECTOR('',#415,1.);
#415 = DIRECTION('',(-1.,0.,0.));
#416 = ORIENTED_EDGE('',*,*,#417,.F.);
#417 = EDGE_CURVE('',#394,#410,#418,.T.);
#418 = LINE('',#419,#420);
#419 = CARTESIAN_POINT('',(8.,1.,0.));
#420 = VECTOR('',#421,1.);
#421 = DIRECTION('',(0.,1.,0.));
#422 = FACE_BOUND('',#423,.F.);
#423 = EDGE_LOOP('',(#424,#434,#442,#450));
#424 = ORIENTED_EDGE('',*,*,#425,.F.);
#425 = EDGE_CURVE('',#426,#428,#430,.T.);
#426 = VERTEX_POINT('',#427);
#427 = CARTESIAN_POINT('',(-8.,-10.5,-1.665334536938E-16));
#428 = VERTEX_POINT('',#429);
#429 = CARTESIAN_POINT('',(8.,-10.5,-1.665334536938E-16));
#430 = LINE('',#431,#432);
#431 = CARTESIAN_POINT('',(-7.5,-10.5,0.));
#432 = VECTOR('',#433,1.);
#433 = DIRECTION('',(1.,0.,0.));
#434 = ORIENTED_EDGE('',*,*,#435,.F.);
#435 = EDGE_CURVE('',#436,#426,#438,.T.);
#436 = VERTEX_POINT('',#437);
#437 = CARTESIAN_POINT('',(-8.,-6.5,-1.665334536938E-16));
#438 = LINE('',#439,#440);
#439 = CARTESIAN_POINT('',(-8.,-7.,0.));
#440 = VECTOR('',#441,1.);
#441 = DIRECTION('',(0.,-1.,0.));
#442 = ORIENTED_EDGE('',*,*,#443,.F.);
#443 = EDGE_CURVE('',#444,#436,#446,.T.);
#444 = VERTEX_POINT('',#445);
#445 = CARTESIAN_POINT('',(8.,-6.5,4.718447854657E-16));
#446 = LINE('',#447,#448);
#447 = CARTESIAN_POINT('',(7.5,-6.5,0.));
#448 = VECTOR('',#449,1.);
#449 = DIRECTION('',(-1.,0.,0.));
#450 = ORIENTED_EDGE('',*,*,#451,.F.);
#451 = EDGE_CURVE('',#428,#444,#452,.T.);
#452 = LINE('',#453,#454);
#453 = CARTESIAN_POINT('',(8.,-10.,0.));
#454 = VECTOR('',#455,1.);
#455 = DIRECTION('',(0.,1.,0.));
#456 = FACE_BOUND('',#457,.F.);
#457 = EDGE_LOOP('',(#458));
#458 = ORIENTED_EDGE('',*,*,#459,.F.);
#459 = EDGE_CURVE('',#460,#460,#462,.T.);
#460 = VERTEX_POINT('',#461);
#461 = CARTESIAN_POINT('',(2.25,-16.,0.));
#462 = CIRCLE('',#463,2.25);
#463 = AXIS2_PLACEMENT_3D('',#464,#465,#466);
#464 = CARTESIAN_POINT('',(0.,-16.,0.));
#465 = DIRECTION('',(0.,0.,1.));
#466 = DIRECTION('',(1.,0.,0.));
#467 = PLANE('',#468);
#468 = AXIS2_PLACEMENT_3D('',#469,#470,#471);
#469 = CARTESIAN_POINT('',(-3.862296368599E-18,1.211597003309,0.));
#470 = DIRECTION('',(0.,0.,1.));
#471 = DIRECTION('',(1.,0.,0.));
#472 = ADVANCED_FACE('',(#473),#484,.T.);
#473 = FACE_BOUND('',#474,.F.);
#474 = EDGE_LOOP('',(#475,#476,#477,#483));
#475 = ORIENTED_EDGE('',*,*,#103,.F.);
#476 = ORIENTED_EDGE('',*,*,#157,.T.);
#477 = ORIENTED_EDGE('',*,*,#478,.T.);
#478 = EDGE_CURVE('',#158,#272,#479,.T.);
#479 = LINE('',#480,#481);
#480 = CARTESIAN_POINT('',(-10.,16.,0.5));
#481 = VECTOR('',#482,1.);
#482 = DIRECTION('',(0.707106781187,-2.003070486802E-16,-0.707106781187)
  );
#483 = ORIENTED_EDGE('',*,*,#271,.F.);
#484 = CONICAL_SURFACE('',#485,4.,0.785398163397);
#485 = AXIS2_PLACEMENT_3D('',#486,#487,#488);
#486 = CARTESIAN_POINT('',(-6.,16.,0.5));
#487 = DIRECTION('',(0.,0.,1.));
#488 = DIRECTION('',(2.22044604925E-16,1.,0.));
#489 = ADVANCED_FACE('',(#490,#577,#611,#645,#679),#690,.T.);
#490 = FACE_BOUND('',#491,.T.);
#491 = EDGE_LOOP('',(#492,#493,#502,#510,#519,#527,#536,#544,#553,#561,
    #570,#576));
#492 = ORIENTED_EDGE('',*,*,#142,.T.);
#493 = ORIENTED_EDGE('',*,*,#494,.T.);
#494 = EDGE_CURVE('',#135,#495,#497,.T.);
#495 = VERTEX_POINT('',#496);
#496 = CARTESIAN_POINT('',(-9.5,16.,3.));
#497 = CIRCLE('',#498,3.5);
#498 = AXIS2_PLACEMENT_3D('',#499,#500,#501);
#499 = CARTESIAN_POINT('',(-6.,16.,3.));
#500 = DIRECTION('',(0.,-0.,1.));
#501 = DIRECTION('',(2.22044604925E-16,1.,0.));
#502 = ORIENTED_EDGE('',*,*,#503,.T.);
#503 = EDGE_CURVE('',#495,#504,#506,.T.);
#504 = VERTEX_POINT('',#505);
#505 = CARTESIAN_POINT('',(-9.5,-10.85281509435,3.));
#506 = LINE('',#507,#508);
#507 = CARTESIAN_POINT('',(-9.5,16.,3.));
#508 = VECTOR('',#509,1.);
#509 = DIRECTION('',(-0.,-1.,-0.));
#510 = ORIENTED_EDGE('',*,*,#511,.T.);
#511 = EDGE_CURVE('',#504,#512,#514,.T.);
#512 = VERTEX_POINT('',#513);
#513 = CARTESIAN_POINT('',(-8.967994064018,-12.70781138436,3.));
#514 = CIRCLE('',#515,3.5);
#515 = AXIS2_PLACEMENT_3D('',#516,#517,#518);
#516 = CARTESIAN_POINT('',(-6.,-10.85281509435,3.));
#517 = DIRECTION('',(0.,0.,1.));
#518 = DIRECTION('',(-1.,0.,0.));
#519 = ORIENTED_EDGE('',*,*,#520,.T.);
#520 = EDGE_CURVE('',#512,#521,#523,.T.);
#521 = VERTEX_POINT('',#522);
#522 = CARTESIAN_POINT('',(-5.75100349799,-17.85499629001,3.));
#523 = LINE('',#524,#525);
#524 = CARTESIAN_POINT('',(-8.967994064018,-12.70781138436,3.));
#525 = VECTOR('',#526,1.);
#526 = DIRECTION('',(0.529998940003,-0.847998304005,0.));
#527 = ORIENTED_EDGE('',*,*,#528,.T.);
#528 = EDGE_CURVE('',#521,#529,#531,.T.);
#529 = VERTEX_POINT('',#530);
#530 = CARTESIAN_POINT('',(-2.783009433972,-19.5,3.));
#531 = CIRCLE('',#532,3.5);
#532 = AXIS2_PLACEMENT_3D('',#533,#534,#535);
#533 = CARTESIAN_POINT('',(-2.783009433972,-16.,3.));
#534 = DIRECTION('',(0.,0.,1.));
#535 = DIRECTION('',(-0.847998304005,-0.529998940003,0.));
#536 = ORIENTED_EDGE('',*,*,#537,.T.);
#537 = EDGE_CURVE('',#529,#538,#540,.T.);
#538 = VERTEX_POINT('',#539);
#539 = CARTESIAN_POINT('',(2.783009433972,-19.5,3.));
#540 = LINE('',#541,#542);
#541 = CARTESIAN_POINT('',(-2.783009433972,-19.5,3.));
#542 = VECTOR('',#543,1.);
#543 = DIRECTION('',(1.,0.,0.));
#544 = ORIENTED_EDGE('',*,*,#545,.T.);
#545 = EDGE_CURVE('',#538,#546,#548,.T.);
#546 = VERTEX_POINT('',#547);
#547 = CARTESIAN_POINT('',(5.75100349799,-17.85499629001,3.));
#548 = CIRCLE('',#549,3.5);
#549 = AXIS2_PLACEMENT_3D('',#550,#551,#552);
#550 = CARTESIAN_POINT('',(2.783009433972,-16.,3.));
#551 = DIRECTION('',(-0.,0.,1.));
#552 = DIRECTION('',(0.,-1.,0.));
#553 = ORIENTED_EDGE('',*,*,#554,.T.);
#554 = EDGE_CURVE('',#546,#555,#557,.T.);
#555 = VERTEX_POINT('',#556);
#556 = CARTESIAN_POINT('',(8.967994064018,-12.70781138436,3.));
#557 = LINE('',#558,#559);
#558 = CARTESIAN_POINT('',(5.75100349799,-17.85499629001,3.));
#559 = VECTOR('',#560,1.);
#560 = DIRECTION('',(0.529998940003,0.847998304005,0.));
#561 = ORIENTED_EDGE('',*,*,#562,.T.);
#562 = EDGE_CURVE('',#555,#563,#565,.T.);
#563 = VERTEX_POINT('',#564);
#564 = CARTESIAN_POINT('',(9.5,-10.85281509435,3.));
#565 = CIRCLE('',#566,3.5);
#566 = AXIS2_PLACEMENT_3D('',#567,#568,#569);
#567 = CARTESIAN_POINT('',(6.,-10.85281509435,3.));
#568 = DIRECTION('',(-0.,0.,1.));
#569 = DIRECTION('',(0.847998304005,-0.529998940003,0.));
#570 = ORIENTED_EDGE('',*,*,#571,.T.);
#571 = EDGE_CURVE('',#563,#215,#572,.T.);
#572 = LINE('',#573,#574);
#573 = CARTESIAN_POINT('',(9.5,-10.85281509435,3.));
#574 = VECTOR('',#575,1.);
#575 = DIRECTION('',(0.,1.,0.));
#576 = ORIENTED_EDGE('',*,*,#224,.T.);
#577 = FACE_BOUND('',#578,.T.);
#578 = EDGE_LOOP('',(#579,#589,#597,#605));
#579 = ORIENTED_EDGE('',*,*,#580,.F.);
#580 = EDGE_CURVE('',#581,#583,#585,.T.);
#581 = VERTEX_POINT('',#582);
#582 = CARTESIAN_POINT('',(-8.,11.5,3.));
#583 = VERTEX_POINT('',#584);
#584 = CARTESIAN_POINT('',(8.,11.5,3.));
#585 = LINE('',#586,#587);
#586 = CARTESIAN_POINT('',(-7.5,11.5,3.));
#587 = VECTOR('',#588,1.);
#588 = DIRECTION('',(1.,0.,0.));
#589 = ORIENTED_EDGE('',*,*,#590,.F.);
#590 = EDGE_CURVE('',#591,#581,#593,.T.);
#591 = VERTEX_POINT('',#592);
#592 = CARTESIAN_POINT('',(-8.,15.5,3.));
#593 = LINE('',#594,#595);
#594 = CARTESIAN_POINT('',(-8.,15.,3.));
#595 = VECTOR('',#596,1.);
#596 = DIRECTION('',(0.,-1.,0.));
#597 = ORIENTED_EDGE('',*,*,#598,.F.);
#598 = EDGE_CURVE('',#599,#591,#601,.T.);
#599 = VERTEX_POINT('',#600);
#600 = CARTESIAN_POINT('',(8.,15.5,3.));
#601 = LINE('',#602,#603);
#602 = CARTESIAN_POINT('',(7.5,15.5,3.));
#603 = VECTOR('',#604,1.);
#604 = DIRECTION('',(-1.,0.,0.));
#605 = ORIENTED_EDGE('',*,*,#606,.F.);
#606 = EDGE_CURVE('',#583,#599,#607,.T.);
#607 = LINE('',#608,#609);
#608 = CARTESIAN_POINT('',(8.,12.,3.));
#609 = VECTOR('',#610,1.);
#610 = DIRECTION('',(0.,1.,0.));
#611 = FACE_BOUND('',#612,.T.);
#612 = EDGE_LOOP('',(#613,#623,#631,#639));
#613 = ORIENTED_EDGE('',*,*,#614,.F.);
#614 = EDGE_CURVE('',#615,#617,#619,.T.);
#615 = VERTEX_POINT('',#616);
#616 = CARTESIAN_POINT('',(-8.,0.5,3.));
#617 = VERTEX_POINT('',#618);
#618 = CARTESIAN_POINT('',(8.,0.5,3.));
#619 = LINE('',#620,#621);
#620 = CARTESIAN_POINT('',(-7.5,0.5,3.));
#621 = VECTOR('',#622,1.);
#622 = DIRECTION('',(1.,0.,0.));
#623 = ORIENTED_EDGE('',*,*,#624,.F.);
#624 = EDGE_CURVE('',#625,#615,#627,.T.);
#625 = VERTEX_POINT('',#626);
#626 = CARTESIAN_POINT('',(-8.,4.5,3.));
#627 = LINE('',#628,#629);
#628 = CARTESIAN_POINT('',(-8.,4.,3.));
#629 = VECTOR('',#630,1.);
#630 = DIRECTION('',(0.,-1.,0.));
#631 = ORIENTED_EDGE('',*,*,#632,.F.);
#632 = EDGE_CURVE('',#633,#625,#635,.T.);
#633 = VERTEX_POINT('',#634);
#634 = CARTESIAN_POINT('',(8.,4.5,3.));
#635 = LINE('',#636,#637);
#636 = CARTESIAN_POINT('',(7.5,4.5,3.));
#637 = VECTOR('',#638,1.);
#638 = DIRECTION('',(-1.,0.,0.));
#639 = ORIENTED_EDGE('',*,*,#640,.F.);
#640 = EDGE_CURVE('',#617,#633,#641,.T.);
#641 = LINE('',#642,#643);
#642 = CARTESIAN_POINT('',(8.,1.,3.));
#643 = VECTOR('',#644,1.);
#644 = DIRECTION('',(0.,1.,0.));
#645 = FACE_BOUND('',#646,.T.);
#646 = EDGE_LOOP('',(#647,#657,#665,#673));
#647 = ORIENTED_EDGE('',*,*,#648,.F.);
#648 = EDGE_CURVE('',#649,#651,#653,.T.);
#649 = VERTEX_POINT('',#650);
#650 = CARTESIAN_POINT('',(-8.,-10.5,3.));
#651 = VERTEX_POINT('',#652);
#652 = CARTESIAN_POINT('',(8.,-10.5,3.));
#653 = LINE('',#654,#655);
#654 = CARTESIAN_POINT('',(-7.5,-10.5,3.));
#655 = VECTOR('',#656,1.);
#656 = DIRECTION('',(1.,0.,0.));
#657 = ORIENTED_EDGE('',*,*,#658,.F.);
#658 = EDGE_CURVE('',#659,#649,#661,.T.);
#659 = VERTEX_POINT('',#660);
#660 = CARTESIAN_POINT('',(-8.,-6.5,3.));
#661 = LINE('',#662,#663);
#662 = CARTESIAN_POINT('',(-8.,-7.,3.));
#663 = VECTOR('',#664,1.);
#664 = DIRECTION('',(0.,-1.,0.));
#665 = ORIENTED_EDGE('',*,*,#666,.F.);
#666 = EDGE_CURVE('',#667,#659,#669,.T.);
#667 = VERTEX_POINT('',#668);
#668 = CARTESIAN_POINT('',(8.,-6.5,3.));
#669 = LINE('',#670,#671);
#670 = CARTESIAN_POINT('',(7.5,-6.5,3.));
#671 = VECTOR('',#672,1.);
#672 = DIRECTION('',(-1.,0.,0.));
#673 = ORIENTED_EDGE('',*,*,#674,.F.);
#674 = EDGE_CURVE('',#651,#667,#675,.T.);
#675 = LINE('',#676,#677);
#676 = CARTESIAN_POINT('',(8.,-10.,3.));
#677 = VECTOR('',#678,1.);
#678 = DIRECTION('',(0.,1.,0.));
#679 = FACE_BOUND('',#680,.T.);
#680 = EDGE_LOOP('',(#681));
#681 = ORIENTED_EDGE('',*,*,#682,.F.);
#682 = EDGE_CURVE('',#683,#683,#685,.T.);
#683 = VERTEX_POINT('',#684);
#684 = CARTESIAN_POINT('',(2.25,-16.,3.));
#685 = CIRCLE('',#686,2.25);
#686 = AXIS2_PLACEMENT_3D('',#687,#688,#689);
#687 = CARTESIAN_POINT('',(0.,-16.,3.));
#688 = DIRECTION('',(0.,0.,1.));
#689 = DIRECTION('',(1.,0.,0.));
#690 = PLANE('',#691);
#691 = AXIS2_PLACEMENT_3D('',#692,#693,#694);
#692 = CARTESIAN_POINT('',(-3.862296368599E-18,1.211597003309,3.));
#693 = DIRECTION('',(0.,0.,1.));
#694 = DIRECTION('',(1.,0.,0.));
#695 = ADVANCED_FACE('',(#696),#707,.T.);
#696 = FACE_BOUND('',#697,.T.);
#697 = EDGE_LOOP('',(#698,#699,#700,#706));
#698 = ORIENTED_EDGE('',*,*,#134,.F.);
#699 = ORIENTED_EDGE('',*,*,#174,.T.);
#700 = ORIENTED_EDGE('',*,*,#701,.T.);
#701 = EDGE_CURVE('',#167,#495,#702,.T.);
#702 = LINE('',#703,#704);
#703 = CARTESIAN_POINT('',(-10.,16.,2.5));
#704 = VECTOR('',#705,1.);
#705 = DIRECTION('',(0.707106781187,-2.003070486802E-16,0.707106781187)
  );
#706 = ORIENTED_EDGE('',*,*,#494,.F.);
#707 = CONICAL_SURFACE('',#708,4.,0.785398163397);
#708 = AXIS2_PLACEMENT_3D('',#709,#710,#711);
#709 = CARTESIAN_POINT('',(-6.,16.,2.5));
#710 = DIRECTION('',(-0.,-0.,-1.));
#711 = DIRECTION('',(2.22044604925E-16,1.,0.));
#712 = ADVANCED_FACE('',(#713),#738,.T.);
#713 = FACE_BOUND('',#714,.T.);
#714 = EDGE_LOOP('',(#715,#725,#731,#732));
#715 = ORIENTED_EDGE('',*,*,#716,.T.);
#716 = EDGE_CURVE('',#717,#719,#721,.T.);
#717 = VERTEX_POINT('',#718);
#718 = CARTESIAN_POINT('',(-10.,-10.85281509435,0.5));
#719 = VERTEX_POINT('',#720);
#720 = CARTESIAN_POINT('',(-10.,-10.85281509435,2.5));
#721 = LINE('',#722,#723);
#722 = CARTESIAN_POINT('',(-10.,-10.85281509435,0.));
#723 = VECTOR('',#724,1.);
#724 = DIRECTION('',(0.,0.,1.));
#725 = ORIENTED_EDGE('',*,*,#726,.F.);
#726 = EDGE_CURVE('',#167,#719,#727,.T.);
#727 = LINE('',#728,#729);
#728 = CARTESIAN_POINT('',(-10.,16.,2.5));
#729 = VECTOR('',#730,1.);
#730 = DIRECTION('',(-0.,-1.,-0.));
#731 = ORIENTED_EDGE('',*,*,#166,.F.);
#732 = ORIENTED_EDGE('',*,*,#733,.T.);
#733 = EDGE_CURVE('',#158,#717,#734,.T.);
#734 = LINE('',#735,#736);
#735 = CARTESIAN_POINT('',(-10.,16.,0.5));
#736 = VECTOR('',#737,1.);
#737 = DIRECTION('',(-0.,-1.,-0.));
#738 = PLANE('',#739);
#739 = AXIS2_PLACEMENT_3D('',#740,#741,#742);
#740 = CARTESIAN_POINT('',(-10.,-12.,0.));
#741 = DIRECTION('',(-1.,0.,0.));
#742 = DIRECTION('',(0.,1.,0.));
#743 = ADVANCED_FACE('',(#744),#755,.F.);
#744 = FACE_BOUND('',#745,.F.);
#745 = EDGE_LOOP('',(#746,#752,#753,#754));
#746 = ORIENTED_EDGE('',*,*,#747,.F.);
#747 = EDGE_CURVE('',#249,#340,#748,.T.);
#748 = LINE('',#749,#750);
#749 = CARTESIAN_POINT('',(10.,-10.85281509435,0.5));
#750 = VECTOR('',#751,1.);
#751 = DIRECTION('',(-0.707106781187,-1.176282408726E-16,-0.707106781187
    ));
#752 = ORIENTED_EDGE('',*,*,#256,.T.);
#753 = ORIENTED_EDGE('',*,*,#189,.T.);
#754 = ORIENTED_EDGE('',*,*,#348,.F.);
#755 = PLANE('',#756);
#756 = AXIS2_PLACEMENT_3D('',#757,#758,#759);
#757 = CARTESIAN_POINT('',(9.75,-10.85281509435,0.25));
#758 = DIRECTION('',(-0.707106781187,1.889513820523E-18,0.707106781187)
  );
#759 = DIRECTION('',(1.336088035637E-18,1.,-1.336088035637E-18));
#760 = ADVANCED_FACE('',(#761),#772,.T.);
#761 = FACE_BOUND('',#762,.T.);
#762 = EDGE_LOOP('',(#763,#769,#770,#771));
#763 = ORIENTED_EDGE('',*,*,#764,.F.);
#764 = EDGE_CURVE('',#241,#563,#765,.T.);
#765 = LINE('',#766,#767);
#766 = CARTESIAN_POINT('',(10.,-10.85281509435,2.5));
#767 = VECTOR('',#768,1.);
#768 = DIRECTION('',(-0.707106781187,-1.176282408726E-16,0.707106781187)
  );
#769 = ORIENTED_EDGE('',*,*,#240,.T.);
#770 = ORIENTED_EDGE('',*,*,#214,.T.);
#771 = ORIENTED_EDGE('',*,*,#571,.F.);
#772 = PLANE('',#773);
#773 = AXIS2_PLACEMENT_3D('',#774,#775,#776);
#774 = CARTESIAN_POINT('',(9.75,-10.85281509435,2.75));
#775 = DIRECTION('',(0.707106781187,-1.889513820523E-18,0.707106781187)
  );
#776 = DIRECTION('',(1.336088035637E-18,1.,1.336088035637E-18));
#777 = ADVANCED_FACE('',(#778),#805,.T.);
#778 = FACE_BOUND('',#779,.T.);
#779 = EDGE_LOOP('',(#780,#790,#797,#798));
#780 = ORIENTED_EDGE('',*,*,#781,.F.);
#781 = EDGE_CURVE('',#782,#784,#786,.T.);
#782 = VERTEX_POINT('',#783);
#783 = CARTESIAN_POINT('',(9.39199321602,-12.97281085436,0.5));
#784 = VERTEX_POINT('',#785);
#785 = CARTESIAN_POINT('',(9.39199321602,-12.97281085436,2.5));
#786 = LINE('',#787,#788);
#787 = CARTESIAN_POINT('',(9.39199321602,-12.97281085436,0.));
#788 = VECTOR('',#789,1.);
#789 = DIRECTION('',(0.,0.,1.));
#790 = ORIENTED_EDGE('',*,*,#791,.T.);
#791 = EDGE_CURVE('',#782,#249,#792,.T.);
#792 = CIRCLE('',#793,4.);
#793 = AXIS2_PLACEMENT_3D('',#794,#795,#796);
#794 = CARTESIAN_POINT('',(6.,-10.85281509435,0.5));
#795 = DIRECTION('',(-0.,0.,1.));
#796 = DIRECTION('',(0.847998304005,-0.529998940003,0.));
#797 = ORIENTED_EDGE('',*,*,#248,.T.);
#798 = ORIENTED_EDGE('',*,*,#799,.F.);
#799 = EDGE_CURVE('',#784,#241,#800,.T.);
#800 = CIRCLE('',#801,4.);
#801 = AXIS2_PLACEMENT_3D('',#802,#803,#804);
#802 = CARTESIAN_POINT('',(6.,-10.85281509435,2.5));
#803 = DIRECTION('',(-0.,0.,1.));
#804 = DIRECTION('',(0.847998304005,-0.529998940003,0.));
#805 = CYLINDRICAL_SURFACE('',#806,4.);
#806 = AXIS2_PLACEMENT_3D('',#807,#808,#809);
#807 = CARTESIAN_POINT('',(6.,-10.85281509435,0.));
#808 = DIRECTION('',(0.,0.,1.));
#809 = DIRECTION('',(0.847998304005,-0.529998940003,0.));
#810 = ADVANCED_FACE('',(#811),#822,.F.);
#811 = FACE_BOUND('',#812,.F.);
#812 = EDGE_LOOP('',(#813,#814,#815,#821));
#813 = ORIENTED_EDGE('',*,*,#478,.F.);
#814 = ORIENTED_EDGE('',*,*,#733,.T.);
#815 = ORIENTED_EDGE('',*,*,#816,.T.);
#816 = EDGE_CURVE('',#717,#281,#817,.T.);
#817 = LINE('',#818,#819);
#818 = CARTESIAN_POINT('',(-9.75,-10.85281509435,0.25));
#819 = VECTOR('',#820,1.);
#820 = DIRECTION('',(0.707106781187,2.90882763039E-35,-0.707106781187));
#821 = ORIENTED_EDGE('',*,*,#280,.F.);
#822 = PLANE('',#823);
#823 = AXIS2_PLACEMENT_3D('',#824,#825,#826);
#824 = CARTESIAN_POINT('',(-9.75,16.,0.25));
#825 = DIRECTION('',(0.707106781187,-1.889513820523E-18,0.707106781187)
  );
#826 = DIRECTION('',(-1.336088035637E-18,-1.,-1.336088035637E-18));
#827 = ADVANCED_FACE('',(#828),#839,.T.);
#828 = FACE_BOUND('',#829,.F.);
#829 = EDGE_LOOP('',(#830,#836,#837,#838));
#830 = ORIENTED_EDGE('',*,*,#831,.F.);
#831 = EDGE_CURVE('',#782,#332,#832,.T.);
#832 = LINE('',#833,#834);
#833 = CARTESIAN_POINT('',(9.179993640019,-12.84031111936,0.25));
#834 = VECTOR('',#835,1.);
#835 = DIRECTION('',(-0.599625351197,0.374765844498,-0.707106781187));
#836 = ORIENTED_EDGE('',*,*,#791,.T.);
#837 = ORIENTED_EDGE('',*,*,#747,.T.);
#838 = ORIENTED_EDGE('',*,*,#339,.F.);
#839 = CONICAL_SURFACE('',#840,4.,0.785398163397);
#840 = AXIS2_PLACEMENT_3D('',#841,#842,#843);
#841 = CARTESIAN_POINT('',(6.,-10.85281509435,0.5));
#842 = DIRECTION('',(0.,0.,1.));
#843 = DIRECTION('',(0.847998304005,-0.529998940003,0.));
#844 = ADVANCED_FACE('',(#845),#864,.T.);
#845 = FACE_BOUND('',#846,.F.);
#846 = EDGE_LOOP('',(#847,#848,#857,#863));
#847 = ORIENTED_EDGE('',*,*,#816,.F.);
#848 = ORIENTED_EDGE('',*,*,#849,.T.);
#849 = EDGE_CURVE('',#717,#850,#852,.T.);
#850 = VERTEX_POINT('',#851);
#851 = CARTESIAN_POINT('',(-9.39199321602,-12.97281085436,0.5));
#852 = CIRCLE('',#853,4.);
#853 = AXIS2_PLACEMENT_3D('',#854,#855,#856);
#854 = CARTESIAN_POINT('',(-6.,-10.85281509435,0.5));
#855 = DIRECTION('',(0.,0.,1.));
#856 = DIRECTION('',(-1.,0.,0.));
#857 = ORIENTED_EDGE('',*,*,#858,.T.);
#858 = EDGE_CURVE('',#850,#289,#859,.T.);
#859 = LINE('',#860,#861);
#860 = CARTESIAN_POINT('',(-9.39199321602,-12.97281085436,0.5));
#861 = VECTOR('',#862,1.);
#862 = DIRECTION('',(0.599625351197,0.374765844498,-0.707106781187));
#863 = ORIENTED_EDGE('',*,*,#288,.F.);
#864 = CONICAL_SURFACE('',#865,4.,0.785398163397);
#865 = AXIS2_PLACEMENT_3D('',#866,#867,#868);
#866 = CARTESIAN_POINT('',(-6.,-10.85281509435,0.5));
#867 = DIRECTION('',(0.,0.,1.));
#868 = DIRECTION('',(-1.,0.,0.));
#869 = ADVANCED_FACE('',(#870),#888,.F.);
#870 = FACE_BOUND('',#871,.F.);
#871 = EDGE_LOOP('',(#872,#880,#886,#887));
#872 = ORIENTED_EDGE('',*,*,#873,.F.);
#873 = EDGE_CURVE('',#874,#323,#876,.T.);
#874 = VERTEX_POINT('',#875);
#875 = CARTESIAN_POINT('',(6.175002649992,-18.11999576001,0.5));
#876 = LINE('',#877,#878);
#877 = CARTESIAN_POINT('',(6.175002649992,-18.11999576001,0.5));
#878 = VECTOR('',#879,1.);
#879 = DIRECTION('',(-0.599625351197,0.374765844498,-0.707106781187));
#880 = ORIENTED_EDGE('',*,*,#881,.T.);
#881 = EDGE_CURVE('',#874,#782,#882,.T.);
#882 = LINE('',#883,#884);
#883 = CARTESIAN_POINT('',(6.175002649992,-18.11999576001,0.5));
#884 = VECTOR('',#885,1.);
#885 = DIRECTION('',(0.529998940003,0.847998304005,0.));
#886 = ORIENTED_EDGE('',*,*,#831,.T.);
#887 = ORIENTED_EDGE('',*,*,#331,.F.);
#888 = PLANE('',#889);
#889 = AXIS2_PLACEMENT_3D('',#890,#891,#892);
#890 = CARTESIAN_POINT('',(5.963003073991,-17.98749602501,0.25));
#891 = DIRECTION('',(-0.599625351197,0.374765844498,0.707106781187));
#892 = DIRECTION('',(0.529998940003,0.847998304005,9.573963084966E-17));
#893 = ADVANCED_FACE('',(#894),#912,.T.);
#894 = FACE_BOUND('',#895,.F.);
#895 = EDGE_LOOP('',(#896,#897,#905,#911));
#896 = ORIENTED_EDGE('',*,*,#858,.F.);
#897 = ORIENTED_EDGE('',*,*,#898,.T.);
#898 = EDGE_CURVE('',#850,#899,#901,.T.);
#899 = VERTEX_POINT('',#900);
#900 = CARTESIAN_POINT('',(-6.175002649992,-18.11999576001,0.5));
#901 = LINE('',#902,#903);
#902 = CARTESIAN_POINT('',(-9.39199321602,-12.97281085436,0.5));
#903 = VECTOR('',#904,1.);
#904 = DIRECTION('',(0.529998940003,-0.847998304005,0.));
#905 = ORIENTED_EDGE('',*,*,#906,.T.);
#906 = EDGE_CURVE('',#899,#298,#907,.T.);
#907 = LINE('',#908,#909);
#908 = CARTESIAN_POINT('',(-5.963003073991,-17.98749602501,0.25));
#909 = VECTOR('',#910,1.);
#910 = DIRECTION('',(0.599625351197,0.374765844498,-0.707106781187));
#911 = ORIENTED_EDGE('',*,*,#297,.F.);
#912 = PLANE('',#913);
#913 = AXIS2_PLACEMENT_3D('',#914,#915,#916);
#914 = CARTESIAN_POINT('',(-9.179993640019,-12.84031111936,0.25));
#915 = DIRECTION('',(-0.599625351197,-0.374765844498,-0.707106781187));
#916 = DIRECTION('',(-0.529998940003,0.847998304005,-5.409888310197E-17)
  );
#917 = ADVANCED_FACE('',(#918),#937,.T.);
#918 = FACE_BOUND('',#919,.F.);
#919 = EDGE_LOOP('',(#920,#928,#935,#936));
#920 = ORIENTED_EDGE('',*,*,#921,.F.);
#921 = EDGE_CURVE('',#922,#315,#924,.T.);
#922 = VERTEX_POINT('',#923);
#923 = CARTESIAN_POINT('',(2.783009433972,-20.,0.5));
#924 = LINE('',#925,#926);
#925 = CARTESIAN_POINT('',(2.783009433972,-19.75,0.25));
#926 = VECTOR('',#927,1.);
#927 = DIRECTION('',(2.90882763039E-35,0.707106781187,-0.707106781187));
#928 = ORIENTED_EDGE('',*,*,#929,.T.);
#929 = EDGE_CURVE('',#922,#874,#930,.T.);
#930 = CIRCLE('',#931,4.);
#931 = AXIS2_PLACEMENT_3D('',#932,#933,#934);
#932 = CARTESIAN_POINT('',(2.783009433972,-16.,0.5));
#933 = DIRECTION('',(-0.,0.,1.));
#934 = DIRECTION('',(0.,-1.,0.));
#935 = ORIENTED_EDGE('',*,*,#873,.T.);
#936 = ORIENTED_EDGE('',*,*,#322,.F.);
#937 = CONICAL_SURFACE('',#938,4.,0.785398163397);
#938 = AXIS2_PLACEMENT_3D('',#939,#940,#941);
#939 = CARTESIAN_POINT('',(2.783009433972,-16.,0.5));
#940 = DIRECTION('',(0.,0.,1.));
#941 = DIRECTION('',(0.,-1.,0.));
#942 = ADVANCED_FACE('',(#943),#962,.T.);
#943 = FACE_BOUND('',#944,.F.);
#944 = EDGE_LOOP('',(#945,#946,#955,#961));
#945 = ORIENTED_EDGE('',*,*,#906,.F.);
#946 = ORIENTED_EDGE('',*,*,#947,.T.);
#947 = EDGE_CURVE('',#899,#948,#950,.T.);
#948 = VERTEX_POINT('',#949);
#949 = CARTESIAN_POINT('',(-2.783009433972,-20.,0.5));
#950 = CIRCLE('',#951,4.);
#951 = AXIS2_PLACEMENT_3D('',#952,#953,#954);
#952 = CARTESIAN_POINT('',(-2.783009433972,-16.,0.5));
#953 = DIRECTION('',(0.,0.,1.));
#954 = DIRECTION('',(-0.847998304005,-0.529998940003,0.));
#955 = ORIENTED_EDGE('',*,*,#956,.T.);
#956 = EDGE_CURVE('',#948,#306,#957,.T.);
#957 = LINE('',#958,#959);
#958 = CARTESIAN_POINT('',(-2.783009433972,-20.,0.5));
#959 = VECTOR('',#960,1.);
#960 = DIRECTION('',(-2.062603844654E-17,0.707106781187,-0.707106781187)
  );
#961 = ORIENTED_EDGE('',*,*,#305,.F.);
#962 = CONICAL_SURFACE('',#963,4.,0.785398163397);
#963 = AXIS2_PLACEMENT_3D('',#964,#965,#966);
#964 = CARTESIAN_POINT('',(-2.783009433972,-16.,0.5));
#965 = DIRECTION('',(0.,0.,1.));
#966 = DIRECTION('',(-0.847998304005,-0.529998940003,0.));
#967 = ADVANCED_FACE('',(#968),#979,.T.);
#968 = FACE_BOUND('',#969,.F.);
#969 = EDGE_LOOP('',(#970,#971,#977,#978));
#970 = ORIENTED_EDGE('',*,*,#956,.F.);
#971 = ORIENTED_EDGE('',*,*,#972,.T.);
#972 = EDGE_CURVE('',#948,#922,#973,.T.);
#973 = LINE('',#974,#975);
#974 = CARTESIAN_POINT('',(-2.783009433972,-20.,0.5));
#975 = VECTOR('',#976,1.);
#976 = DIRECTION('',(1.,0.,0.));
#977 = ORIENTED_EDGE('',*,*,#921,.T.);
#978 = ORIENTED_EDGE('',*,*,#314,.F.);
#979 = PLANE('',#980);
#980 = AXIS2_PLACEMENT_3D('',#981,#982,#983);
#981 = CARTESIAN_POINT('',(-2.783009433972,-19.75,0.25));
#982 = DIRECTION('',(-1.889513820523E-18,-0.707106781187,-0.707106781187
    ));
#983 = DIRECTION('',(-1.,1.336088035637E-18,1.336088035637E-18));
#984 = ADVANCED_FACE('',(#985),#1010,.F.);
#985 = FACE_BOUND('',#986,.F.);
#986 = EDGE_LOOP('',(#987,#995,#996,#1004));
#987 = ORIENTED_EDGE('',*,*,#988,.F.);
#988 = EDGE_CURVE('',#358,#989,#991,.T.);
#989 = VERTEX_POINT('',#990);
#990 = CARTESIAN_POINT('',(-7.5,12.,0.5));
#991 = LINE('',#992,#993);
#992 = CARTESIAN_POINT('',(-7.166666666667,12.333333333333,
    0.833333333333));
#993 = VECTOR('',#994,1.);
#994 = DIRECTION('',(0.57735026919,0.57735026919,0.57735026919));
#995 = ORIENTED_EDGE('',*,*,#357,.T.);
#996 = ORIENTED_EDGE('',*,*,#997,.T.);
#997 = EDGE_CURVE('',#360,#998,#1000,.T.);
#998 = VERTEX_POINT('',#999);
#999 = CARTESIAN_POINT('',(7.5,12.,0.5));
#1000 = LINE('',#1001,#1002);
#1001 = CARTESIAN_POINT('',(5.166666666667,14.333333333333,
    2.833333333333));
#1002 = VECTOR('',#1003,1.);
#1003 = DIRECTION('',(-0.57735026919,0.57735026919,0.57735026919));
#1004 = ORIENTED_EDGE('',*,*,#1005,.F.);
#1005 = EDGE_CURVE('',#989,#998,#1006,.T.);
#1006 = LINE('',#1007,#1008);
#1007 = CARTESIAN_POINT('',(-7.5,12.,0.5));
#1008 = VECTOR('',#1009,1.);
#1009 = DIRECTION('',(1.,0.,0.));
#1010 = PLANE('',#1011);
#1011 = AXIS2_PLACEMENT_3D('',#1012,#1013,#1014);
#1012 = CARTESIAN_POINT('',(-7.5,11.75,0.25));
#1013 = DIRECTION('',(1.889513820523E-18,-0.707106781187,0.707106781187)
  );
#1014 = DIRECTION('',(1.,1.336088035637E-18,-1.336088035637E-18));
#1015 = ADVANCED_FACE('',(#1016),#1034,.F.);
#1016 = FACE_BOUND('',#1017,.F.);
#1017 = EDGE_LOOP('',(#1018,#1026,#1027,#1028));
#1018 = ORIENTED_EDGE('',*,*,#1019,.F.);
#1019 = EDGE_CURVE('',#368,#1020,#1022,.T.);
#1020 = VERTEX_POINT('',#1021);
#1021 = CARTESIAN_POINT('',(-7.5,15.,0.5));
#1022 = LINE('',#1023,#1024);
#1023 = CARTESIAN_POINT('',(-5.166666666667,12.666666666667,
    2.833333333333));
#1024 = VECTOR('',#1025,1.);
#1025 = DIRECTION('',(0.57735026919,-0.57735026919,0.57735026919));
#1026 = ORIENTED_EDGE('',*,*,#367,.T.);
#1027 = ORIENTED_EDGE('',*,*,#988,.T.);
#1028 = ORIENTED_EDGE('',*,*,#1029,.F.);
#1029 = EDGE_CURVE('',#1020,#989,#1030,.T.);
#1030 = LINE('',#1031,#1032);
#1031 = CARTESIAN_POINT('',(-7.5,15.,0.5));
#1032 = VECTOR('',#1033,1.);
#1033 = DIRECTION('',(0.,-1.,0.));
#1034 = PLANE('',#1035);
#1035 = AXIS2_PLACEMENT_3D('',#1036,#1037,#1038);
#1036 = CARTESIAN_POINT('',(-7.75,15.,0.25));
#1037 = DIRECTION('',(-0.707106781187,1.889513820523E-18,0.707106781187)
  );
#1038 = DIRECTION('',(-1.336088035637E-18,-1.,1.336088035637E-18));
#1039 = ADVANCED_FACE('',(#1040),#1058,.F.);
#1040 = FACE_BOUND('',#1041,.F.);
#1041 = EDGE_LOOP('',(#1042,#1043,#1044,#1052));
#1042 = ORIENTED_EDGE('',*,*,#997,.F.);
#1043 = ORIENTED_EDGE('',*,*,#383,.T.);
#1044 = ORIENTED_EDGE('',*,*,#1045,.T.);
#1045 = EDGE_CURVE('',#376,#1046,#1048,.T.);
#1046 = VERTEX_POINT('',#1047);
#1047 = CARTESIAN_POINT('',(7.5,15.,0.5));
#1048 = LINE('',#1049,#1050);
#1049 = CARTESIAN_POINT('',(7.166666666667,14.666666666667,
    0.833333333333));
#1050 = VECTOR('',#1051,1.);
#1051 = DIRECTION('',(-0.57735026919,-0.57735026919,0.57735026919));
#1052 = ORIENTED_EDGE('',*,*,#1053,.F.);
#1053 = EDGE_CURVE('',#998,#1046,#1054,.T.);
#1054 = LINE('',#1055,#1056);
#1055 = CARTESIAN_POINT('',(7.5,12.,0.5));
#1056 = VECTOR('',#1057,1.);
#1057 = DIRECTION('',(0.,1.,0.));
#1058 = PLANE('',#1059);
#1059 = AXIS2_PLACEMENT_3D('',#1060,#1061,#1062);
#1060 = CARTESIAN_POINT('',(7.75,12.,0.25));
#1061 = DIRECTION('',(0.707106781187,-1.889513820523E-18,0.707106781187)
  );
#1062 = DIRECTION('',(1.336088035637E-18,1.,1.336088035637E-18));
#1063 = ADVANCED_FACE('',(#1064),#1075,.F.);
#1064 = FACE_BOUND('',#1065,.F.);
#1065 = EDGE_LOOP('',(#1066,#1067,#1068,#1069));
#1066 = ORIENTED_EDGE('',*,*,#1045,.F.);
#1067 = ORIENTED_EDGE('',*,*,#375,.T.);
#1068 = ORIENTED_EDGE('',*,*,#1019,.T.);
#1069 = ORIENTED_EDGE('',*,*,#1070,.F.);
#1070 = EDGE_CURVE('',#1046,#1020,#1071,.T.);
#1071 = LINE('',#1072,#1073);
#1072 = CARTESIAN_POINT('',(7.5,15.,0.5));
#1073 = VECTOR('',#1074,1.);
#1074 = DIRECTION('',(-1.,0.,0.));
#1075 = PLANE('',#1076);
#1076 = AXIS2_PLACEMENT_3D('',#1077,#1078,#1079);
#1077 = CARTESIAN_POINT('',(7.5,15.25,0.25));
#1078 = DIRECTION('',(-1.889513820523E-18,0.707106781187,0.707106781187)
  );
#1079 = DIRECTION('',(-1.,-1.336088035637E-18,-1.336088035637E-18));
#1080 = ADVANCED_FACE('',(#1081),#1106,.F.);
#1081 = FACE_BOUND('',#1082,.F.);
#1082 = EDGE_LOOP('',(#1083,#1091,#1092,#1100));
#1083 = ORIENTED_EDGE('',*,*,#1084,.F.);
#1084 = EDGE_CURVE('',#392,#1085,#1087,.T.);
#1085 = VERTEX_POINT('',#1086);
#1086 = CARTESIAN_POINT('',(-7.5,1.,0.5));
#1087 = LINE('',#1088,#1089);
#1088 = CARTESIAN_POINT('',(-7.166666666667,1.333333333333,
    0.833333333333));
#1089 = VECTOR('',#1090,1.);
#1090 = DIRECTION('',(0.57735026919,0.57735026919,0.57735026919));
#1091 = ORIENTED_EDGE('',*,*,#391,.T.);
#1092 = ORIENTED_EDGE('',*,*,#1093,.T.);
#1093 = EDGE_CURVE('',#394,#1094,#1096,.T.);
#1094 = VERTEX_POINT('',#1095);
#1095 = CARTESIAN_POINT('',(7.5,1.,0.5));
#1096 = LINE('',#1097,#1098);
#1097 = CARTESIAN_POINT('',(5.166666666667,3.333333333333,2.833333333333
    ));
#1098 = VECTOR('',#1099,1.);
#1099 = DIRECTION('',(-0.57735026919,0.57735026919,0.57735026919));
#1100 = ORIENTED_EDGE('',*,*,#1101,.F.);
#1101 = EDGE_CURVE('',#1085,#1094,#1102,.T.);
#1102 = LINE('',#1103,#1104);
#1103 = CARTESIAN_POINT('',(-7.5,1.,0.5));
#1104 = VECTOR('',#1105,1.);
#1105 = DIRECTION('',(1.,0.,0.));
#1106 = PLANE('',#1107);
#1107 = AXIS2_PLACEMENT_3D('',#1108,#1109,#1110);
#1108 = CARTESIAN_POINT('',(-7.5,0.75,0.25));
#1109 = DIRECTION('',(1.889513820523E-18,-0.707106781187,0.707106781187)
  );
#1110 = DIRECTION('',(1.,1.336088035637E-18,-1.336088035637E-18));
#1111 = ADVANCED_FACE('',(#1112),#1130,.F.);
#1112 = FACE_BOUND('',#1113,.F.);
#1113 = EDGE_LOOP('',(#1114,#1122,#1123,#1124));
#1114 = ORIENTED_EDGE('',*,*,#1115,.F.);
#1115 = EDGE_CURVE('',#402,#1116,#1118,.T.);
#1116 = VERTEX_POINT('',#1117);
#1117 = CARTESIAN_POINT('',(-7.5,4.,0.5));
#1118 = LINE('',#1119,#1120);
#1119 = CARTESIAN_POINT('',(-5.166666666667,1.666666666667,
    2.833333333333));
#1120 = VECTOR('',#1121,1.);
#1121 = DIRECTION('',(0.57735026919,-0.57735026919,0.57735026919));
#1122 = ORIENTED_EDGE('',*,*,#401,.T.);
#1123 = ORIENTED_EDGE('',*,*,#1084,.T.);
#1124 = ORIENTED_EDGE('',*,*,#1125,.F.);
#1125 = EDGE_CURVE('',#1116,#1085,#1126,.T.);
#1126 = LINE('',#1127,#1128);
#1127 = CARTESIAN_POINT('',(-7.5,4.,0.5));
#1128 = VECTOR('',#1129,1.);
#1129 = DIRECTION('',(0.,-1.,0.));
#1130 = PLANE('',#1131);
#1131 = AXIS2_PLACEMENT_3D('',#1132,#1133,#1134);
#1132 = CARTESIAN_POINT('',(-7.75,4.,0.25));
#1133 = DIRECTION('',(-0.707106781187,1.889513820523E-18,0.707106781187)
  );
#1134 = DIRECTION('',(-1.336088035637E-18,-1.,1.336088035637E-18));
#1135 = ADVANCED_FACE('',(#1136),#1154,.F.);
#1136 = FACE_BOUND('',#1137,.F.);
#1137 = EDGE_LOOP('',(#1138,#1139,#1140,#1148));
#1138 = ORIENTED_EDGE('',*,*,#1093,.F.);
#1139 = ORIENTED_EDGE('',*,*,#417,.T.);
#1140 = ORIENTED_EDGE('',*,*,#1141,.T.);
#1141 = EDGE_CURVE('',#410,#1142,#1144,.T.);
#1142 = VERTEX_POINT('',#1143);
#1143 = CARTESIAN_POINT('',(7.5,4.,0.5));
#1144 = LINE('',#1145,#1146);
#1145 = CARTESIAN_POINT('',(7.166666666667,3.666666666667,0.833333333333
    ));
#1146 = VECTOR('',#1147,1.);
#1147 = DIRECTION('',(-0.57735026919,-0.57735026919,0.57735026919));
#1148 = ORIENTED_EDGE('',*,*,#1149,.F.);
#1149 = EDGE_CURVE('',#1094,#1142,#1150,.T.);
#1150 = LINE('',#1151,#1152);
#1151 = CARTESIAN_POINT('',(7.5,1.,0.5));
#1152 = VECTOR('',#1153,1.);
#1153 = DIRECTION('',(0.,1.,0.));
#1154 = PLANE('',#1155);
#1155 = AXIS2_PLACEMENT_3D('',#1156,#1157,#1158);
#1156 = CARTESIAN_POINT('',(7.75,1.,0.25));
#1157 = DIRECTION('',(0.707106781187,-1.889513820523E-18,0.707106781187)
  );
#1158 = DIRECTION('',(1.336088035637E-18,1.,1.336088035637E-18));
#1159 = ADVANCED_FACE('',(#1160),#1171,.F.);
#1160 = FACE_BOUND('',#1161,.F.);
#1161 = EDGE_LOOP('',(#1162,#1163,#1164,#1165));
#1162 = ORIENTED_EDGE('',*,*,#1141,.F.);
#1163 = ORIENTED_EDGE('',*,*,#409,.T.);
#1164 = ORIENTED_EDGE('',*,*,#1115,.T.);
#1165 = ORIENTED_EDGE('',*,*,#1166,.F.);
#1166 = EDGE_CURVE('',#1142,#1116,#1167,.T.);
#1167 = LINE('',#1168,#1169);
#1168 = CARTESIAN_POINT('',(7.5,4.,0.5));
#1169 = VECTOR('',#1170,1.);
#1170 = DIRECTION('',(-1.,0.,0.));
#1171 = PLANE('',#1172);
#1172 = AXIS2_PLACEMENT_3D('',#1173,#1174,#1175);
#1173 = CARTESIAN_POINT('',(7.5,4.25,0.25));
#1174 = DIRECTION('',(-1.889513820523E-18,0.707106781187,0.707106781187)
  );
#1175 = DIRECTION('',(-1.,-1.336088035637E-18,-1.336088035637E-18));
#1176 = ADVANCED_FACE('',(#1177),#1202,.F.);
#1177 = FACE_BOUND('',#1178,.F.);
#1178 = EDGE_LOOP('',(#1179,#1187,#1188,#1196));
#1179 = ORIENTED_EDGE('',*,*,#1180,.F.);
#1180 = EDGE_CURVE('',#426,#1181,#1183,.T.);
#1181 = VERTEX_POINT('',#1182);
#1182 = CARTESIAN_POINT('',(-7.5,-10.,0.5));
#1183 = LINE('',#1184,#1185);
#1184 = CARTESIAN_POINT('',(-7.166666666667,-9.666666666667,
    0.833333333333));
#1185 = VECTOR('',#1186,1.);
#1186 = DIRECTION('',(0.57735026919,0.57735026919,0.57735026919));
#1187 = ORIENTED_EDGE('',*,*,#425,.T.);
#1188 = ORIENTED_EDGE('',*,*,#1189,.T.);
#1189 = EDGE_CURVE('',#428,#1190,#1192,.T.);
#1190 = VERTEX_POINT('',#1191);
#1191 = CARTESIAN_POINT('',(7.5,-10.,0.5));
#1192 = LINE('',#1193,#1194);
#1193 = CARTESIAN_POINT('',(5.166666666667,-7.666666666667,
    2.833333333333));
#1194 = VECTOR('',#1195,1.);
#1195 = DIRECTION('',(-0.57735026919,0.57735026919,0.57735026919));
#1196 = ORIENTED_EDGE('',*,*,#1197,.F.);
#1197 = EDGE_CURVE('',#1181,#1190,#1198,.T.);
#1198 = LINE('',#1199,#1200);
#1199 = CARTESIAN_POINT('',(-7.5,-10.,0.5));
#1200 = VECTOR('',#1201,1.);
#1201 = DIRECTION('',(1.,0.,0.));
#1202 = PLANE('',#1203);
#1203 = AXIS2_PLACEMENT_3D('',#1204,#1205,#1206);
#1204 = CARTESIAN_POINT('',(-7.5,-10.25,0.25));
#1205 = DIRECTION('',(1.889513820523E-18,-0.707106781187,0.707106781187)
  );
#1206 = DIRECTION('',(1.,1.336088035637E-18,-1.336088035637E-18));
#1207 = ADVANCED_FACE('',(#1208),#1226,.F.);
#1208 = FACE_BOUND('',#1209,.F.);
#1209 = EDGE_LOOP('',(#1210,#1218,#1219,#1220));
#1210 = ORIENTED_EDGE('',*,*,#1211,.F.);
#1211 = EDGE_CURVE('',#436,#1212,#1214,.T.);
#1212 = VERTEX_POINT('',#1213);
#1213 = CARTESIAN_POINT('',(-7.5,-7.,0.5));
#1214 = LINE('',#1215,#1216);
#1215 = CARTESIAN_POINT('',(-5.166666666667,-9.333333333333,
    2.833333333333));
#1216 = VECTOR('',#1217,1.);
#1217 = DIRECTION('',(0.57735026919,-0.57735026919,0.57735026919));
#1218 = ORIENTED_EDGE('',*,*,#435,.T.);
#1219 = ORIENTED_EDGE('',*,*,#1180,.T.);
#1220 = ORIENTED_EDGE('',*,*,#1221,.F.);
#1221 = EDGE_CURVE('',#1212,#1181,#1222,.T.);
#1222 = LINE('',#1223,#1224);
#1223 = CARTESIAN_POINT('',(-7.5,-7.,0.5));
#1224 = VECTOR('',#1225,1.);
#1225 = DIRECTION('',(0.,-1.,0.));
#1226 = PLANE('',#1227);
#1227 = AXIS2_PLACEMENT_3D('',#1228,#1229,#1230);
#1228 = CARTESIAN_POINT('',(-7.75,-7.,0.25));
#1229 = DIRECTION('',(-0.707106781187,1.889513820523E-18,0.707106781187)
  );
#1230 = DIRECTION('',(-1.336088035637E-18,-1.,1.336088035637E-18));
#1231 = ADVANCED_FACE('',(#1232),#1250,.F.);
#1232 = FACE_BOUND('',#1233,.F.);
#1233 = EDGE_LOOP('',(#1234,#1235,#1236,#1244));
#1234 = ORIENTED_EDGE('',*,*,#1189,.F.);
#1235 = ORIENTED_EDGE('',*,*,#451,.T.);
#1236 = ORIENTED_EDGE('',*,*,#1237,.T.);
#1237 = EDGE_CURVE('',#444,#1238,#1240,.T.);
#1238 = VERTEX_POINT('',#1239);
#1239 = CARTESIAN_POINT('',(7.5,-7.,0.5));
#1240 = LINE('',#1241,#1242);
#1241 = CARTESIAN_POINT('',(7.166666666667,-7.333333333333,
    0.833333333333));
#1242 = VECTOR('',#1243,1.);
#1243 = DIRECTION('',(-0.57735026919,-0.57735026919,0.57735026919));
#1244 = ORIENTED_EDGE('',*,*,#1245,.F.);
#1245 = EDGE_CURVE('',#1190,#1238,#1246,.T.);
#1246 = LINE('',#1247,#1248);
#1247 = CARTESIAN_POINT('',(7.5,-10.,0.5));
#1248 = VECTOR('',#1249,1.);
#1249 = DIRECTION('',(0.,1.,0.));
#1250 = PLANE('',#1251);
#1251 = AXIS2_PLACEMENT_3D('',#1252,#1253,#1254);
#1252 = CARTESIAN_POINT('',(7.75,-10.,0.25));
#1253 = DIRECTION('',(0.707106781187,1.479157021432E-19,0.707106781187)
  );
#1254 = DIRECTION('',(-1.045921960294E-19,1.,-1.045921960294E-19));
#1255 = ADVANCED_FACE('',(#1256),#1267,.F.);
#1256 = FACE_BOUND('',#1257,.F.);
#1257 = EDGE_LOOP('',(#1258,#1259,#1260,#1261));
#1258 = ORIENTED_EDGE('',*,*,#1237,.F.);
#1259 = ORIENTED_EDGE('',*,*,#443,.T.);
#1260 = ORIENTED_EDGE('',*,*,#1211,.T.);
#1261 = ORIENTED_EDGE('',*,*,#1262,.F.);
#1262 = EDGE_CURVE('',#1238,#1212,#1263,.T.);
#1263 = LINE('',#1264,#1265);
#1264 = CARTESIAN_POINT('',(7.5,-7.,0.5));
#1265 = VECTOR('',#1266,1.);
#1266 = DIRECTION('',(-1.,0.,0.));
#1267 = PLANE('',#1268);
#1268 = AXIS2_PLACEMENT_3D('',#1269,#1270,#1271);
#1269 = CARTESIAN_POINT('',(7.5,-6.75,0.25));
#1270 = DIRECTION('',(-1.889513820523E-18,0.707106781187,0.707106781187)
  );
#1271 = DIRECTION('',(-1.,-1.336088035637E-18,-1.336088035637E-18));
#1272 = ADVANCED_FACE('',(#1273),#1292,.F.);
#1273 = FACE_BOUND('',#1274,.F.);
#1274 = EDGE_LOOP('',(#1275,#1283,#1284,#1285));
#1275 = ORIENTED_EDGE('',*,*,#1276,.F.);
#1276 = EDGE_CURVE('',#460,#1277,#1279,.T.);
#1277 = VERTEX_POINT('',#1278);
#1278 = CARTESIAN_POINT('',(1.75,-16.,0.5));
#1279 = LINE('',#1280,#1281);
#1280 = CARTESIAN_POINT('',(1.75,-16.,0.5));
#1281 = VECTOR('',#1282,1.);
#1282 = DIRECTION('',(-0.707106781187,0.,0.707106781187));
#1283 = ORIENTED_EDGE('',*,*,#459,.T.);
#1284 = ORIENTED_EDGE('',*,*,#1276,.T.);
#1285 = ORIENTED_EDGE('',*,*,#1286,.F.);
#1286 = EDGE_CURVE('',#1277,#1277,#1287,.T.);
#1287 = CIRCLE('',#1288,1.75);
#1288 = AXIS2_PLACEMENT_3D('',#1289,#1290,#1291);
#1289 = CARTESIAN_POINT('',(0.,-16.,0.5));
#1290 = DIRECTION('',(0.,0.,1.));
#1291 = DIRECTION('',(1.,0.,0.));
#1292 = CONICAL_SURFACE('',#1293,1.75,0.785398163397);
#1293 = AXIS2_PLACEMENT_3D('',#1294,#1295,#1296);
#1294 = CARTESIAN_POINT('',(0.,-16.,0.5));
#1295 = DIRECTION('',(-0.,-0.,-1.));
#1296 = DIRECTION('',(1.,0.,0.));
#1297 = ADVANCED_FACE('',(#1298),#1309,.T.);
#1298 = FACE_BOUND('',#1299,.T.);
#1299 = EDGE_LOOP('',(#1300,#1301,#1302,#1308));
#1300 = ORIENTED_EDGE('',*,*,#701,.F.);
#1301 = ORIENTED_EDGE('',*,*,#726,.T.);
#1302 = ORIENTED_EDGE('',*,*,#1303,.T.);
#1303 = EDGE_CURVE('',#719,#504,#1304,.T.);
#1304 = LINE('',#1305,#1306);
#1305 = CARTESIAN_POINT('',(-9.75,-10.85281509435,2.75));
#1306 = VECTOR('',#1307,1.);
#1307 = DIRECTION('',(0.707106781187,2.90882763039E-35,0.707106781187));
#1308 = ORIENTED_EDGE('',*,*,#503,.F.);
#1309 = PLANE('',#1310);
#1310 = AXIS2_PLACEMENT_3D('',#1311,#1312,#1313);
#1311 = CARTESIAN_POINT('',(-9.75,16.,2.75));
#1312 = DIRECTION('',(-0.707106781187,1.889513820523E-18,0.707106781187)
  );
#1313 = DIRECTION('',(-1.336088035637E-18,-1.,1.336088035637E-18));
#1314 = ADVANCED_FACE('',(#1315),#1326,.T.);
#1315 = FACE_BOUND('',#1316,.T.);
#1316 = EDGE_LOOP('',(#1317,#1323,#1324,#1325));
#1317 = ORIENTED_EDGE('',*,*,#1318,.F.);
#1318 = EDGE_CURVE('',#784,#555,#1319,.T.);
#1319 = LINE('',#1320,#1321);
#1320 = CARTESIAN_POINT('',(9.179993640019,-12.84031111936,2.75));
#1321 = VECTOR('',#1322,1.);
#1322 = DIRECTION('',(-0.599625351197,0.374765844498,0.707106781187));
#1323 = ORIENTED_EDGE('',*,*,#799,.T.);
#1324 = ORIENTED_EDGE('',*,*,#764,.T.);
#1325 = ORIENTED_EDGE('',*,*,#562,.F.);
#1326 = CONICAL_SURFACE('',#1327,4.,0.785398163397);
#1327 = AXIS2_PLACEMENT_3D('',#1328,#1329,#1330);
#1328 = CARTESIAN_POINT('',(6.,-10.85281509435,2.5));
#1329 = DIRECTION('',(-0.,-0.,-1.));
#1330 = DIRECTION('',(0.847998304005,-0.529998940003,0.));
#1331 = ADVANCED_FACE('',(#1332),#1351,.T.);
#1332 = FACE_BOUND('',#1333,.T.);
#1333 = EDGE_LOOP('',(#1334,#1335,#1344,#1350));
#1334 = ORIENTED_EDGE('',*,*,#1303,.F.);
#1335 = ORIENTED_EDGE('',*,*,#1336,.T.);
#1336 = EDGE_CURVE('',#719,#1337,#1339,.T.);
#1337 = VERTEX_POINT('',#1338);
#1338 = CARTESIAN_POINT('',(-9.39199321602,-12.97281085436,2.5));
#1339 = CIRCLE('',#1340,4.);
#1340 = AXIS2_PLACEMENT_3D('',#1341,#1342,#1343);
#1341 = CARTESIAN_POINT('',(-6.,-10.85281509435,2.5));
#1342 = DIRECTION('',(0.,0.,1.));
#1343 = DIRECTION('',(-1.,0.,0.));
#1344 = ORIENTED_EDGE('',*,*,#1345,.T.);
#1345 = EDGE_CURVE('',#1337,#512,#1346,.T.);
#1346 = LINE('',#1347,#1348);
#1347 = CARTESIAN_POINT('',(-9.39199321602,-12.97281085436,2.5));
#1348 = VECTOR('',#1349,1.);
#1349 = DIRECTION('',(0.599625351197,0.374765844498,0.707106781187));
#1350 = ORIENTED_EDGE('',*,*,#511,.F.);
#1351 = CONICAL_SURFACE('',#1352,4.,0.785398163397);
#1352 = AXIS2_PLACEMENT_3D('',#1353,#1354,#1355);
#1353 = CARTESIAN_POINT('',(-6.,-10.85281509435,2.5));
#1354 = DIRECTION('',(-0.,-0.,-1.));
#1355 = DIRECTION('',(-1.,0.,0.));
#1356 = ADVANCED_FACE('',(#1357),#1375,.T.);
#1357 = FACE_BOUND('',#1358,.T.);
#1358 = EDGE_LOOP('',(#1359,#1367,#1373,#1374));
#1359 = ORIENTED_EDGE('',*,*,#1360,.F.);
#1360 = EDGE_CURVE('',#1361,#546,#1363,.T.);
#1361 = VERTEX_POINT('',#1362);
#1362 = CARTESIAN_POINT('',(6.175002649992,-18.11999576001,2.5));
#1363 = LINE('',#1364,#1365);
#1364 = CARTESIAN_POINT('',(6.175002649992,-18.11999576001,2.5));
#1365 = VECTOR('',#1366,1.);
#1366 = DIRECTION('',(-0.599625351197,0.374765844498,0.707106781187));
#1367 = ORIENTED_EDGE('',*,*,#1368,.T.);
#1368 = EDGE_CURVE('',#1361,#784,#1369,.T.);
#1369 = LINE('',#1370,#1371);
#1370 = CARTESIAN_POINT('',(6.175002649992,-18.11999576001,2.5));
#1371 = VECTOR('',#1372,1.);
#1372 = DIRECTION('',(0.529998940003,0.847998304005,0.));
#1373 = ORIENTED_EDGE('',*,*,#1318,.T.);
#1374 = ORIENTED_EDGE('',*,*,#554,.F.);
#1375 = PLANE('',#1376);
#1376 = AXIS2_PLACEMENT_3D('',#1377,#1378,#1379);
#1377 = CARTESIAN_POINT('',(5.963003073991,-17.98749602501,2.75));
#1378 = DIRECTION('',(0.599625351197,-0.374765844498,0.707106781187));
#1379 = DIRECTION('',(0.529998940003,0.847998304005,-9.573963084966E-17)
  );
#1380 = ADVANCED_FACE('',(#1381),#1399,.F.);
#1381 = FACE_BOUND('',#1382,.T.);
#1382 = EDGE_LOOP('',(#1383,#1384,#1392,#1398));
#1383 = ORIENTED_EDGE('',*,*,#1345,.F.);
#1384 = ORIENTED_EDGE('',*,*,#1385,.T.);
#1385 = EDGE_CURVE('',#1337,#1386,#1388,.T.);
#1386 = VERTEX_POINT('',#1387);
#1387 = CARTESIAN_POINT('',(-6.175002649992,-18.11999576001,2.5));
#1388 = LINE('',#1389,#1390);
#1389 = CARTESIAN_POINT('',(-9.39199321602,-12.97281085436,2.5));
#1390 = VECTOR('',#1391,1.);
#1391 = DIRECTION('',(0.529998940003,-0.847998304005,0.));
#1392 = ORIENTED_EDGE('',*,*,#1393,.T.);
#1393 = EDGE_CURVE('',#1386,#521,#1394,.T.);
#1394 = LINE('',#1395,#1396);
#1395 = CARTESIAN_POINT('',(-5.963003073991,-17.98749602501,2.75));
#1396 = VECTOR('',#1397,1.);
#1397 = DIRECTION('',(0.599625351197,0.374765844498,0.707106781187));
#1398 = ORIENTED_EDGE('',*,*,#520,.F.);
#1399 = PLANE('',#1400);
#1400 = AXIS2_PLACEMENT_3D('',#1401,#1402,#1403);
#1401 = CARTESIAN_POINT('',(-9.179993640019,-12.84031111936,2.75));
#1402 = DIRECTION('',(0.599625351197,0.374765844498,-0.707106781187));
#1403 = DIRECTION('',(-0.529998940003,0.847998304005,5.409888310197E-17)
  );
#1404 = ADVANCED_FACE('',(#1405),#1424,.T.);
#1405 = FACE_BOUND('',#1406,.T.);
#1406 = EDGE_LOOP('',(#1407,#1415,#1422,#1423));
#1407 = ORIENTED_EDGE('',*,*,#1408,.F.);
#1408 = EDGE_CURVE('',#1409,#538,#1411,.T.);
#1409 = VERTEX_POINT('',#1410);
#1410 = CARTESIAN_POINT('',(2.783009433972,-20.,2.5));
#1411 = LINE('',#1412,#1413);
#1412 = CARTESIAN_POINT('',(2.783009433972,-19.75,2.75));
#1413 = VECTOR('',#1414,1.);
#1414 = DIRECTION('',(2.90882763039E-35,0.707106781187,0.707106781187));
#1415 = ORIENTED_EDGE('',*,*,#1416,.T.);
#1416 = EDGE_CURVE('',#1409,#1361,#1417,.T.);
#1417 = CIRCLE('',#1418,4.);
#1418 = AXIS2_PLACEMENT_3D('',#1419,#1420,#1421);
#1419 = CARTESIAN_POINT('',(2.783009433972,-16.,2.5));
#1420 = DIRECTION('',(-0.,0.,1.));
#1421 = DIRECTION('',(0.,-1.,0.));
#1422 = ORIENTED_EDGE('',*,*,#1360,.T.);
#1423 = ORIENTED_EDGE('',*,*,#545,.F.);
#1424 = CONICAL_SURFACE('',#1425,4.,0.785398163397);
#1425 = AXIS2_PLACEMENT_3D('',#1426,#1427,#1428);
#1426 = CARTESIAN_POINT('',(2.783009433972,-16.,2.5));
#1427 = DIRECTION('',(-0.,-0.,-1.));
#1428 = DIRECTION('',(0.,-1.,0.));
#1429 = ADVANCED_FACE('',(#1430),#1449,.T.);
#1430 = FACE_BOUND('',#1431,.T.);
#1431 = EDGE_LOOP('',(#1432,#1433,#1442,#1448));
#1432 = ORIENTED_EDGE('',*,*,#1393,.F.);
#1433 = ORIENTED_EDGE('',*,*,#1434,.T.);
#1434 = EDGE_CURVE('',#1386,#1435,#1437,.T.);
#1435 = VERTEX_POINT('',#1436);
#1436 = CARTESIAN_POINT('',(-2.783009433972,-20.,2.5));
#1437 = CIRCLE('',#1438,4.);
#1438 = AXIS2_PLACEMENT_3D('',#1439,#1440,#1441);
#1439 = CARTESIAN_POINT('',(-2.783009433972,-16.,2.5));
#1440 = DIRECTION('',(0.,0.,1.));
#1441 = DIRECTION('',(-0.847998304005,-0.529998940003,0.));
#1442 = ORIENTED_EDGE('',*,*,#1443,.T.);
#1443 = EDGE_CURVE('',#1435,#529,#1444,.T.);
#1444 = LINE('',#1445,#1446);
#1445 = CARTESIAN_POINT('',(-2.783009433972,-20.,2.5));
#1446 = VECTOR('',#1447,1.);
#1447 = DIRECTION('',(-2.062603844654E-17,0.707106781187,0.707106781187)
  );
#1448 = ORIENTED_EDGE('',*,*,#528,.F.);
#1449 = CONICAL_SURFACE('',#1450,4.,0.785398163397);
#1450 = AXIS2_PLACEMENT_3D('',#1451,#1452,#1453);
#1451 = CARTESIAN_POINT('',(-2.783009433972,-16.,2.5));
#1452 = DIRECTION('',(-0.,-0.,-1.));
#1453 = DIRECTION('',(-0.847998304005,-0.529998940003,0.));
#1454 = ADVANCED_FACE('',(#1455),#1466,.F.);
#1455 = FACE_BOUND('',#1456,.T.);
#1456 = EDGE_LOOP('',(#1457,#1458,#1464,#1465));
#1457 = ORIENTED_EDGE('',*,*,#1443,.F.);
#1458 = ORIENTED_EDGE('',*,*,#1459,.T.);
#1459 = EDGE_CURVE('',#1435,#1409,#1460,.T.);
#1460 = LINE('',#1461,#1462);
#1461 = CARTESIAN_POINT('',(-2.783009433972,-20.,2.5));
#1462 = VECTOR('',#1463,1.);
#1463 = DIRECTION('',(1.,0.,0.));
#1464 = ORIENTED_EDGE('',*,*,#1408,.T.);
#1465 = ORIENTED_EDGE('',*,*,#537,.F.);
#1466 = PLANE('',#1467);
#1467 = AXIS2_PLACEMENT_3D('',#1468,#1469,#1470);
#1468 = CARTESIAN_POINT('',(-2.783009433972,-19.75,2.75));
#1469 = DIRECTION('',(1.889513820523E-18,0.707106781187,-0.707106781187)
  );
#1470 = DIRECTION('',(-1.,1.336088035637E-18,-1.336088035637E-18));
#1471 = ADVANCED_FACE('',(#1472),#1497,.T.);
#1472 = FACE_BOUND('',#1473,.T.);
#1473 = EDGE_LOOP('',(#1474,#1482,#1483,#1491));
#1474 = ORIENTED_EDGE('',*,*,#1475,.F.);
#1475 = EDGE_CURVE('',#581,#1476,#1478,.T.);
#1476 = VERTEX_POINT('',#1477);
#1477 = CARTESIAN_POINT('',(-7.5,12.,2.5));
#1478 = LINE('',#1479,#1480);
#1479 = CARTESIAN_POINT('',(-7.166666666667,12.333333333333,
    2.166666666667));
#1480 = VECTOR('',#1481,1.);
#1481 = DIRECTION('',(0.57735026919,0.57735026919,-0.57735026919));
#1482 = ORIENTED_EDGE('',*,*,#580,.T.);
#1483 = ORIENTED_EDGE('',*,*,#1484,.T.);
#1484 = EDGE_CURVE('',#583,#1485,#1487,.T.);
#1485 = VERTEX_POINT('',#1486);
#1486 = CARTESIAN_POINT('',(7.5,12.,2.5));
#1487 = LINE('',#1488,#1489);
#1488 = CARTESIAN_POINT('',(5.166666666667,14.333333333333,
    0.166666666667));
#1489 = VECTOR('',#1490,1.);
#1490 = DIRECTION('',(-0.57735026919,0.57735026919,-0.57735026919));
#1491 = ORIENTED_EDGE('',*,*,#1492,.F.);
#1492 = EDGE_CURVE('',#1476,#1485,#1493,.T.);
#1493 = LINE('',#1494,#1495);
#1494 = CARTESIAN_POINT('',(-7.5,12.,2.5));
#1495 = VECTOR('',#1496,1.);
#1496 = DIRECTION('',(1.,0.,0.));
#1497 = PLANE('',#1498);
#1498 = AXIS2_PLACEMENT_3D('',#1499,#1500,#1501);
#1499 = CARTESIAN_POINT('',(-7.5,11.75,2.75));
#1500 = DIRECTION('',(-1.889513820523E-18,0.707106781187,0.707106781187)
  );
#1501 = DIRECTION('',(1.,1.336088035637E-18,1.336088035637E-18));
#1502 = ADVANCED_FACE('',(#1503),#1521,.T.);
#1503 = FACE_BOUND('',#1504,.T.);
#1504 = EDGE_LOOP('',(#1505,#1513,#1514,#1515));
#1505 = ORIENTED_EDGE('',*,*,#1506,.F.);
#1506 = EDGE_CURVE('',#591,#1507,#1509,.T.);
#1507 = VERTEX_POINT('',#1508);
#1508 = CARTESIAN_POINT('',(-7.5,15.,2.5));
#1509 = LINE('',#1510,#1511);
#1510 = CARTESIAN_POINT('',(-5.166666666667,12.666666666667,
    0.166666666667));
#1511 = VECTOR('',#1512,1.);
#1512 = DIRECTION('',(0.57735026919,-0.57735026919,-0.57735026919));
#1513 = ORIENTED_EDGE('',*,*,#590,.T.);
#1514 = ORIENTED_EDGE('',*,*,#1475,.T.);
#1515 = ORIENTED_EDGE('',*,*,#1516,.F.);
#1516 = EDGE_CURVE('',#1507,#1476,#1517,.T.);
#1517 = LINE('',#1518,#1519);
#1518 = CARTESIAN_POINT('',(-7.5,15.,2.5));
#1519 = VECTOR('',#1520,1.);
#1520 = DIRECTION('',(0.,-1.,0.));
#1521 = PLANE('',#1522);
#1522 = AXIS2_PLACEMENT_3D('',#1523,#1524,#1525);
#1523 = CARTESIAN_POINT('',(-7.75,15.,2.75));
#1524 = DIRECTION('',(0.707106781187,-1.889513820523E-18,0.707106781187)
  );
#1525 = DIRECTION('',(-1.336088035637E-18,-1.,-1.336088035637E-18));
#1526 = ADVANCED_FACE('',(#1527),#1545,.T.);
#1527 = FACE_BOUND('',#1528,.T.);
#1528 = EDGE_LOOP('',(#1529,#1530,#1531,#1539));
#1529 = ORIENTED_EDGE('',*,*,#1484,.F.);
#1530 = ORIENTED_EDGE('',*,*,#606,.T.);
#1531 = ORIENTED_EDGE('',*,*,#1532,.T.);
#1532 = EDGE_CURVE('',#599,#1533,#1535,.T.);
#1533 = VERTEX_POINT('',#1534);
#1534 = CARTESIAN_POINT('',(7.5,15.,2.5));
#1535 = LINE('',#1536,#1537);
#1536 = CARTESIAN_POINT('',(7.166666666667,14.666666666667,
    2.166666666667));
#1537 = VECTOR('',#1538,1.);
#1538 = DIRECTION('',(-0.57735026919,-0.57735026919,-0.57735026919));
#1539 = ORIENTED_EDGE('',*,*,#1540,.F.);
#1540 = EDGE_CURVE('',#1485,#1533,#1541,.T.);
#1541 = LINE('',#1542,#1543);
#1542 = CARTESIAN_POINT('',(7.5,12.,2.5));
#1543 = VECTOR('',#1544,1.);
#1544 = DIRECTION('',(0.,1.,0.));
#1545 = PLANE('',#1546);
#1546 = AXIS2_PLACEMENT_3D('',#1547,#1548,#1549);
#1547 = CARTESIAN_POINT('',(7.75,12.,2.75));
#1548 = DIRECTION('',(-0.707106781187,1.889513820523E-18,0.707106781187)
  );
#1549 = DIRECTION('',(1.336088035637E-18,1.,-1.336088035637E-18));
#1550 = ADVANCED_FACE('',(#1551),#1562,.T.);
#1551 = FACE_BOUND('',#1552,.T.);
#1552 = EDGE_LOOP('',(#1553,#1554,#1555,#1556));
#1553 = ORIENTED_EDGE('',*,*,#1532,.F.);
#1554 = ORIENTED_EDGE('',*,*,#598,.T.);
#1555 = ORIENTED_EDGE('',*,*,#1506,.T.);
#1556 = ORIENTED_EDGE('',*,*,#1557,.F.);
#1557 = EDGE_CURVE('',#1533,#1507,#1558,.T.);
#1558 = LINE('',#1559,#1560);
#1559 = CARTESIAN_POINT('',(7.5,15.,2.5));
#1560 = VECTOR('',#1561,1.);
#1561 = DIRECTION('',(-1.,0.,0.));
#1562 = PLANE('',#1563);
#1563 = AXIS2_PLACEMENT_3D('',#1564,#1565,#1566);
#1564 = CARTESIAN_POINT('',(7.5,15.25,2.75));
#1565 = DIRECTION('',(1.889513820523E-18,-0.707106781187,0.707106781187)
  );
#1566 = DIRECTION('',(-1.,-1.336088035637E-18,1.336088035637E-18));
#1567 = ADVANCED_FACE('',(#1568),#1593,.T.);
#1568 = FACE_BOUND('',#1569,.T.);
#1569 = EDGE_LOOP('',(#1570,#1578,#1579,#1587));
#1570 = ORIENTED_EDGE('',*,*,#1571,.F.);
#1571 = EDGE_CURVE('',#615,#1572,#1574,.T.);
#1572 = VERTEX_POINT('',#1573);
#1573 = CARTESIAN_POINT('',(-7.5,1.,2.5));
#1574 = LINE('',#1575,#1576);
#1575 = CARTESIAN_POINT('',(-7.166666666667,1.333333333333,
    2.166666666667));
#1576 = VECTOR('',#1577,1.);
#1577 = DIRECTION('',(0.57735026919,0.57735026919,-0.57735026919));
#1578 = ORIENTED_EDGE('',*,*,#614,.T.);
#1579 = ORIENTED_EDGE('',*,*,#1580,.T.);
#1580 = EDGE_CURVE('',#617,#1581,#1583,.T.);
#1581 = VERTEX_POINT('',#1582);
#1582 = CARTESIAN_POINT('',(7.5,1.,2.5));
#1583 = LINE('',#1584,#1585);
#1584 = CARTESIAN_POINT('',(5.166666666667,3.333333333333,0.166666666667
    ));
#1585 = VECTOR('',#1586,1.);
#1586 = DIRECTION('',(-0.57735026919,0.57735026919,-0.57735026919));
#1587 = ORIENTED_EDGE('',*,*,#1588,.F.);
#1588 = EDGE_CURVE('',#1572,#1581,#1589,.T.);
#1589 = LINE('',#1590,#1591);
#1590 = CARTESIAN_POINT('',(-7.5,1.,2.5));
#1591 = VECTOR('',#1592,1.);
#1592 = DIRECTION('',(1.,0.,0.));
#1593 = PLANE('',#1594);
#1594 = AXIS2_PLACEMENT_3D('',#1595,#1596,#1597);
#1595 = CARTESIAN_POINT('',(-7.5,0.75,2.75));
#1596 = DIRECTION('',(-1.889513820523E-18,0.707106781187,0.707106781187)
  );
#1597 = DIRECTION('',(1.,1.336088035637E-18,1.336088035637E-18));
#1598 = ADVANCED_FACE('',(#1599),#1617,.T.);
#1599 = FACE_BOUND('',#1600,.T.);
#1600 = EDGE_LOOP('',(#1601,#1609,#1610,#1611));
#1601 = ORIENTED_EDGE('',*,*,#1602,.F.);
#1602 = EDGE_CURVE('',#625,#1603,#1605,.T.);
#1603 = VERTEX_POINT('',#1604);
#1604 = CARTESIAN_POINT('',(-7.5,4.,2.5));
#1605 = LINE('',#1606,#1607);
#1606 = CARTESIAN_POINT('',(-5.166666666667,1.666666666667,
    0.166666666667));
#1607 = VECTOR('',#1608,1.);
#1608 = DIRECTION('',(0.57735026919,-0.57735026919,-0.57735026919));
#1609 = ORIENTED_EDGE('',*,*,#624,.T.);
#1610 = ORIENTED_EDGE('',*,*,#1571,.T.);
#1611 = ORIENTED_EDGE('',*,*,#1612,.F.);
#1612 = EDGE_CURVE('',#1603,#1572,#1613,.T.);
#1613 = LINE('',#1614,#1615);
#1614 = CARTESIAN_POINT('',(-7.5,4.,2.5));
#1615 = VECTOR('',#1616,1.);
#1616 = DIRECTION('',(0.,-1.,0.));
#1617 = PLANE('',#1618);
#1618 = AXIS2_PLACEMENT_3D('',#1619,#1620,#1621);
#1619 = CARTESIAN_POINT('',(-7.75,4.,2.75));
#1620 = DIRECTION('',(0.707106781187,-1.889513820523E-18,0.707106781187)
  );
#1621 = DIRECTION('',(-1.336088035637E-18,-1.,-1.336088035637E-18));
#1622 = ADVANCED_FACE('',(#1623),#1641,.T.);
#1623 = FACE_BOUND('',#1624,.T.);
#1624 = EDGE_LOOP('',(#1625,#1626,#1627,#1635));
#1625 = ORIENTED_EDGE('',*,*,#1580,.F.);
#1626 = ORIENTED_EDGE('',*,*,#640,.T.);
#1627 = ORIENTED_EDGE('',*,*,#1628,.T.);
#1628 = EDGE_CURVE('',#633,#1629,#1631,.T.);
#1629 = VERTEX_POINT('',#1630);
#1630 = CARTESIAN_POINT('',(7.5,4.,2.5));
#1631 = LINE('',#1632,#1633);
#1632 = CARTESIAN_POINT('',(7.166666666667,3.666666666667,2.166666666667
    ));
#1633 = VECTOR('',#1634,1.);
#1634 = DIRECTION('',(-0.57735026919,-0.57735026919,-0.57735026919));
#1635 = ORIENTED_EDGE('',*,*,#1636,.F.);
#1636 = EDGE_CURVE('',#1581,#1629,#1637,.T.);
#1637 = LINE('',#1638,#1639);
#1638 = CARTESIAN_POINT('',(7.5,1.,2.5));
#1639 = VECTOR('',#1640,1.);
#1640 = DIRECTION('',(0.,1.,0.));
#1641 = PLANE('',#1642);
#1642 = AXIS2_PLACEMENT_3D('',#1643,#1644,#1645);
#1643 = CARTESIAN_POINT('',(7.75,1.,2.75));
#1644 = DIRECTION('',(-0.707106781187,1.889513820523E-18,0.707106781187)
  );
#1645 = DIRECTION('',(1.336088035637E-18,1.,-1.336088035637E-18));
#1646 = ADVANCED_FACE('',(#1647),#1658,.T.);
#1647 = FACE_BOUND('',#1648,.T.);
#1648 = EDGE_LOOP('',(#1649,#1650,#1651,#1652));
#1649 = ORIENTED_EDGE('',*,*,#1628,.F.);
#1650 = ORIENTED_EDGE('',*,*,#632,.T.);
#1651 = ORIENTED_EDGE('',*,*,#1602,.T.);
#1652 = ORIENTED_EDGE('',*,*,#1653,.F.);
#1653 = EDGE_CURVE('',#1629,#1603,#1654,.T.);
#1654 = LINE('',#1655,#1656);
#1655 = CARTESIAN_POINT('',(7.5,4.,2.5));
#1656 = VECTOR('',#1657,1.);
#1657 = DIRECTION('',(-1.,0.,0.));
#1658 = PLANE('',#1659);
#1659 = AXIS2_PLACEMENT_3D('',#1660,#1661,#1662);
#1660 = CARTESIAN_POINT('',(7.5,4.25,2.75));
#1661 = DIRECTION('',(1.889513820523E-18,-0.707106781187,0.707106781187)
  );
#1662 = DIRECTION('',(-1.,-1.336088035637E-18,1.336088035637E-18));
#1663 = ADVANCED_FACE('',(#1664),#1689,.T.);
#1664 = FACE_BOUND('',#1665,.T.);
#1665 = EDGE_LOOP('',(#1666,#1674,#1675,#1683));
#1666 = ORIENTED_EDGE('',*,*,#1667,.F.);
#1667 = EDGE_CURVE('',#649,#1668,#1670,.T.);
#1668 = VERTEX_POINT('',#1669);
#1669 = CARTESIAN_POINT('',(-7.5,-10.,2.5));
#1670 = LINE('',#1671,#1672);
#1671 = CARTESIAN_POINT('',(-7.166666666667,-9.666666666667,
    2.166666666667));
#1672 = VECTOR('',#1673,1.);
#1673 = DIRECTION('',(0.57735026919,0.57735026919,-0.57735026919));
#1674 = ORIENTED_EDGE('',*,*,#648,.T.);
#1675 = ORIENTED_EDGE('',*,*,#1676,.T.);
#1676 = EDGE_CURVE('',#651,#1677,#1679,.T.);
#1677 = VERTEX_POINT('',#1678);
#1678 = CARTESIAN_POINT('',(7.5,-10.,2.5));
#1679 = LINE('',#1680,#1681);
#1680 = CARTESIAN_POINT('',(5.166666666667,-7.666666666667,
    0.166666666667));
#1681 = VECTOR('',#1682,1.);
#1682 = DIRECTION('',(-0.57735026919,0.57735026919,-0.57735026919));
#1683 = ORIENTED_EDGE('',*,*,#1684,.F.);
#1684 = EDGE_CURVE('',#1668,#1677,#1685,.T.);
#1685 = LINE('',#1686,#1687);
#1686 = CARTESIAN_POINT('',(-7.5,-10.,2.5));
#1687 = VECTOR('',#1688,1.);
#1688 = DIRECTION('',(1.,0.,0.));
#1689 = PLANE('',#1690);
#1690 = AXIS2_PLACEMENT_3D('',#1691,#1692,#1693);
#1691 = CARTESIAN_POINT('',(-7.5,-10.25,2.75));
#1692 = DIRECTION('',(-1.889513820523E-18,0.707106781187,0.707106781187)
  );
#1693 = DIRECTION('',(1.,1.336088035637E-18,1.336088035637E-18));
#1694 = ADVANCED_FACE('',(#1695),#1713,.T.);
#1695 = FACE_BOUND('',#1696,.T.);
#1696 = EDGE_LOOP('',(#1697,#1705,#1706,#1707));
#1697 = ORIENTED_EDGE('',*,*,#1698,.F.);
#1698 = EDGE_CURVE('',#659,#1699,#1701,.T.);
#1699 = VERTEX_POINT('',#1700);
#1700 = CARTESIAN_POINT('',(-7.5,-7.,2.5));
#1701 = LINE('',#1702,#1703);
#1702 = CARTESIAN_POINT('',(-5.166666666667,-9.333333333333,
    0.166666666667));
#1703 = VECTOR('',#1704,1.);
#1704 = DIRECTION('',(0.57735026919,-0.57735026919,-0.57735026919));
#1705 = ORIENTED_EDGE('',*,*,#658,.T.);
#1706 = ORIENTED_EDGE('',*,*,#1667,.T.);
#1707 = ORIENTED_EDGE('',*,*,#1708,.F.);
#1708 = EDGE_CURVE('',#1699,#1668,#1709,.T.);
#1709 = LINE('',#1710,#1711);
#1710 = CARTESIAN_POINT('',(-7.5,-7.,2.5));
#1711 = VECTOR('',#1712,1.);
#1712 = DIRECTION('',(0.,-1.,0.));
#1713 = PLANE('',#1714);
#1714 = AXIS2_PLACEMENT_3D('',#1715,#1716,#1717);
#1715 = CARTESIAN_POINT('',(-7.75,-7.,2.75));
#1716 = DIRECTION('',(0.707106781187,-1.889513820523E-18,0.707106781187)
  );
#1717 = DIRECTION('',(-1.336088035637E-18,-1.,-1.336088035637E-18));
#1718 = ADVANCED_FACE('',(#1719),#1737,.T.);
#1719 = FACE_BOUND('',#1720,.T.);
#1720 = EDGE_LOOP('',(#1721,#1722,#1723,#1731));
#1721 = ORIENTED_EDGE('',*,*,#1676,.F.);
#1722 = ORIENTED_EDGE('',*,*,#674,.T.);
#1723 = ORIENTED_EDGE('',*,*,#1724,.T.);
#1724 = EDGE_CURVE('',#667,#1725,#1727,.T.);
#1725 = VERTEX_POINT('',#1726);
#1726 = CARTESIAN_POINT('',(7.5,-7.,2.5));
#1727 = LINE('',#1728,#1729);
#1728 = CARTESIAN_POINT('',(7.166666666667,-7.333333333333,
    2.166666666667));
#1729 = VECTOR('',#1730,1.);
#1730 = DIRECTION('',(-0.57735026919,-0.57735026919,-0.57735026919));
#1731 = ORIENTED_EDGE('',*,*,#1732,.F.);
#1732 = EDGE_CURVE('',#1677,#1725,#1733,.T.);
#1733 = LINE('',#1734,#1735);
#1734 = CARTESIAN_POINT('',(7.5,-10.,2.5));
#1735 = VECTOR('',#1736,1.);
#1736 = DIRECTION('',(0.,1.,0.));
#1737 = PLANE('',#1738);
#1738 = AXIS2_PLACEMENT_3D('',#1739,#1740,#1741);
#1739 = CARTESIAN_POINT('',(7.75,-10.,2.75));
#1740 = DIRECTION('',(-0.707106781187,-1.479157021432E-19,0.707106781187
    ));
#1741 = DIRECTION('',(-1.045921960294E-19,1.,1.045921960294E-19));
#1742 = ADVANCED_FACE('',(#1743),#1754,.T.);
#1743 = FACE_BOUND('',#1744,.T.);
#1744 = EDGE_LOOP('',(#1745,#1746,#1747,#1748));
#1745 = ORIENTED_EDGE('',*,*,#1724,.F.);
#1746 = ORIENTED_EDGE('',*,*,#666,.T.);
#1747 = ORIENTED_EDGE('',*,*,#1698,.T.);
#1748 = ORIENTED_EDGE('',*,*,#1749,.F.);
#1749 = EDGE_CURVE('',#1725,#1699,#1750,.T.);
#1750 = LINE('',#1751,#1752);
#1751 = CARTESIAN_POINT('',(7.5,-7.,2.5));
#1752 = VECTOR('',#1753,1.);
#1753 = DIRECTION('',(-1.,0.,0.));
#1754 = PLANE('',#1755);
#1755 = AXIS2_PLACEMENT_3D('',#1756,#1757,#1758);
#1756 = CARTESIAN_POINT('',(7.5,-6.75,2.75));
#1757 = DIRECTION('',(1.889513820523E-18,-0.707106781187,0.707106781187)
  );
#1758 = DIRECTION('',(-1.,-1.336088035637E-18,1.336088035637E-18));
#1759 = ADVANCED_FACE('',(#1760),#1779,.F.);
#1760 = FACE_BOUND('',#1761,.T.);
#1761 = EDGE_LOOP('',(#1762,#1770,#1771,#1772));
#1762 = ORIENTED_EDGE('',*,*,#1763,.F.);
#1763 = EDGE_CURVE('',#683,#1764,#1766,.T.);
#1764 = VERTEX_POINT('',#1765);
#1765 = CARTESIAN_POINT('',(1.75,-16.,2.5));
#1766 = LINE('',#1767,#1768);
#1767 = CARTESIAN_POINT('',(1.75,-16.,2.5));
#1768 = VECTOR('',#1769,1.);
#1769 = DIRECTION('',(-0.707106781187,-0.,-0.707106781187));
#1770 = ORIENTED_EDGE('',*,*,#682,.T.);
#1771 = ORIENTED_EDGE('',*,*,#1763,.T.);
#1772 = ORIENTED_EDGE('',*,*,#1773,.F.);
#1773 = EDGE_CURVE('',#1764,#1764,#1774,.T.);
#1774 = CIRCLE('',#1775,1.75);
#1775 = AXIS2_PLACEMENT_3D('',#1776,#1777,#1778);
#1776 = CARTESIAN_POINT('',(0.,-16.,2.5));
#1777 = DIRECTION('',(0.,0.,1.));
#1778 = DIRECTION('',(1.,0.,0.));
#1779 = CONICAL_SURFACE('',#1780,1.75,0.785398163397);
#1780 = AXIS2_PLACEMENT_3D('',#1781,#1782,#1783);
#1781 = CARTESIAN_POINT('',(0.,-16.,2.5));
#1782 = DIRECTION('',(0.,0.,1.));
#1783 = DIRECTION('',(1.,0.,0.));
#1784 = ADVANCED_FACE('',(#1785),#1796,.T.);
#1785 = FACE_BOUND('',#1786,.T.);
#1786 = EDGE_LOOP('',(#1787,#1788,#1789,#1795));
#1787 = ORIENTED_EDGE('',*,*,#716,.F.);
#1788 = ORIENTED_EDGE('',*,*,#849,.T.);
#1789 = ORIENTED_EDGE('',*,*,#1790,.T.);
#1790 = EDGE_CURVE('',#850,#1337,#1791,.T.);
#1791 = LINE('',#1792,#1793);
#1792 = CARTESIAN_POINT('',(-9.39199321602,-12.97281085436,0.));
#1793 = VECTOR('',#1794,1.);
#1794 = DIRECTION('',(0.,0.,1.));
#1795 = ORIENTED_EDGE('',*,*,#1336,.F.);
#1796 = CYLINDRICAL_SURFACE('',#1797,4.);
#1797 = AXIS2_PLACEMENT_3D('',#1798,#1799,#1800);
#1798 = CARTESIAN_POINT('',(-6.,-10.85281509435,0.));
#1799 = DIRECTION('',(0.,0.,1.));
#1800 = DIRECTION('',(-1.,0.,0.));
#1801 = ADVANCED_FACE('',(#1802),#1813,.T.);
#1802 = FACE_BOUND('',#1803,.T.);
#1803 = EDGE_LOOP('',(#1804,#1805,#1806,#1812));
#1804 = ORIENTED_EDGE('',*,*,#781,.T.);
#1805 = ORIENTED_EDGE('',*,*,#1368,.F.);
#1806 = ORIENTED_EDGE('',*,*,#1807,.F.);
#1807 = EDGE_CURVE('',#874,#1361,#1808,.T.);
#1808 = LINE('',#1809,#1810);
#1809 = CARTESIAN_POINT('',(6.175002649992,-18.11999576001,0.));
#1810 = VECTOR('',#1811,1.);
#1811 = DIRECTION('',(0.,0.,1.));
#1812 = ORIENTED_EDGE('',*,*,#881,.T.);
#1813 = PLANE('',#1814);
#1814 = AXIS2_PLACEMENT_3D('',#1815,#1816,#1817);
#1815 = CARTESIAN_POINT('',(10.,-12.,0.));
#1816 = DIRECTION('',(0.847998304005,-0.529998940003,0.));
#1817 = DIRECTION('',(-0.529998940003,-0.847998304005,0.));
#1818 = ADVANCED_FACE('',(#1819),#1830,.F.);
#1819 = FACE_BOUND('',#1820,.F.);
#1820 = EDGE_LOOP('',(#1821,#1822,#1823,#1829));
#1821 = ORIENTED_EDGE('',*,*,#1790,.T.);
#1822 = ORIENTED_EDGE('',*,*,#1385,.T.);
#1823 = ORIENTED_EDGE('',*,*,#1824,.F.);
#1824 = EDGE_CURVE('',#899,#1386,#1825,.T.);
#1825 = LINE('',#1826,#1827);
#1826 = CARTESIAN_POINT('',(-6.175002649992,-18.11999576001,0.));
#1827 = VECTOR('',#1828,1.);
#1828 = DIRECTION('',(0.,0.,1.));
#1829 = ORIENTED_EDGE('',*,*,#898,.F.);
#1830 = PLANE('',#1831);
#1831 = AXIS2_PLACEMENT_3D('',#1832,#1833,#1834);
#1832 = CARTESIAN_POINT('',(-10.,-12.,0.));
#1833 = DIRECTION('',(0.847998304005,0.529998940003,0.));
#1834 = DIRECTION('',(0.529998940003,-0.847998304005,0.));
#1835 = ADVANCED_FACE('',(#1836),#1847,.T.);
#1836 = FACE_BOUND('',#1837,.T.);
#1837 = EDGE_LOOP('',(#1838,#1844,#1845,#1846));
#1838 = ORIENTED_EDGE('',*,*,#1839,.F.);
#1839 = EDGE_CURVE('',#922,#1409,#1840,.T.);
#1840 = LINE('',#1841,#1842);
#1841 = CARTESIAN_POINT('',(2.783009433972,-20.,0.));
#1842 = VECTOR('',#1843,1.);
#1843 = DIRECTION('',(0.,0.,1.));
#1844 = ORIENTED_EDGE('',*,*,#929,.T.);
#1845 = ORIENTED_EDGE('',*,*,#1807,.T.);
#1846 = ORIENTED_EDGE('',*,*,#1416,.F.);
#1847 = CYLINDRICAL_SURFACE('',#1848,4.);
#1848 = AXIS2_PLACEMENT_3D('',#1849,#1850,#1851);
#1849 = CARTESIAN_POINT('',(2.783009433972,-16.,0.));
#1850 = DIRECTION('',(0.,0.,1.));
#1851 = DIRECTION('',(0.,-1.,0.));
#1852 = ADVANCED_FACE('',(#1853),#1864,.T.);
#1853 = FACE_BOUND('',#1854,.T.);
#1854 = EDGE_LOOP('',(#1855,#1856,#1857,#1863));
#1855 = ORIENTED_EDGE('',*,*,#1824,.F.);
#1856 = ORIENTED_EDGE('',*,*,#947,.T.);
#1857 = ORIENTED_EDGE('',*,*,#1858,.T.);
#1858 = EDGE_CURVE('',#948,#1435,#1859,.T.);
#1859 = LINE('',#1860,#1861);
#1860 = CARTESIAN_POINT('',(-2.783009433972,-20.,0.));
#1861 = VECTOR('',#1862,1.);
#1862 = DIRECTION('',(0.,0.,1.));
#1863 = ORIENTED_EDGE('',*,*,#1434,.F.);
#1864 = CYLINDRICAL_SURFACE('',#1865,4.);
#1865 = AXIS2_PLACEMENT_3D('',#1866,#1867,#1868);
#1866 = CARTESIAN_POINT('',(-2.783009433972,-16.,0.));
#1867 = DIRECTION('',(0.,0.,1.));
#1868 = DIRECTION('',(-0.847998304005,-0.529998940003,0.));
#1869 = ADVANCED_FACE('',(#1870),#1876,.F.);
#1870 = FACE_BOUND('',#1871,.F.);
#1871 = EDGE_LOOP('',(#1872,#1873,#1874,#1875));
#1872 = ORIENTED_EDGE('',*,*,#1858,.T.);
#1873 = ORIENTED_EDGE('',*,*,#1459,.T.);
#1874 = ORIENTED_EDGE('',*,*,#1839,.F.);
#1875 = ORIENTED_EDGE('',*,*,#972,.F.);
#1876 = PLANE('',#1877);
#1877 = AXIS2_PLACEMENT_3D('',#1878,#1879,#1880);
#1878 = CARTESIAN_POINT('',(-5.,-20.,0.));
#1879 = DIRECTION('',(0.,1.,0.));
#1880 = DIRECTION('',(1.,0.,0.));
#1881 = ADVANCED_FACE('',(#1882),#1898,.T.);
#1882 = FACE_BOUND('',#1883,.T.);
#1883 = EDGE_LOOP('',(#1884,#1890,#1891,#1897));
#1884 = ORIENTED_EDGE('',*,*,#1885,.T.);
#1885 = EDGE_CURVE('',#989,#1476,#1886,.T.);
#1886 = LINE('',#1887,#1888);
#1887 = CARTESIAN_POINT('',(-7.5,12.,0.));
#1888 = VECTOR('',#1889,1.);
#1889 = DIRECTION('',(0.,0.,1.));
#1890 = ORIENTED_EDGE('',*,*,#1492,.T.);
#1891 = ORIENTED_EDGE('',*,*,#1892,.F.);
#1892 = EDGE_CURVE('',#998,#1485,#1893,.T.);
#1893 = LINE('',#1894,#1895);
#1894 = CARTESIAN_POINT('',(7.5,12.,0.));
#1895 = VECTOR('',#1896,1.);
#1896 = DIRECTION('',(0.,0.,1.));
#1897 = ORIENTED_EDGE('',*,*,#1005,.F.);
#1898 = PLANE('',#1899);
#1899 = AXIS2_PLACEMENT_3D('',#1900,#1901,#1902);
#1900 = CARTESIAN_POINT('',(-7.5,12.,0.));
#1901 = DIRECTION('',(0.,1.,0.));
#1902 = DIRECTION('',(1.,0.,0.));
#1903 = ADVANCED_FACE('',(#1904),#1915,.T.);
#1904 = FACE_BOUND('',#1905,.T.);
#1905 = EDGE_LOOP('',(#1906,#1912,#1913,#1914));
#1906 = ORIENTED_EDGE('',*,*,#1907,.T.);
#1907 = EDGE_CURVE('',#1020,#1507,#1908,.T.);
#1908 = LINE('',#1909,#1910);
#1909 = CARTESIAN_POINT('',(-7.5,15.,0.));
#1910 = VECTOR('',#1911,1.);
#1911 = DIRECTION('',(0.,0.,1.));
#1912 = ORIENTED_EDGE('',*,*,#1516,.T.);
#1913 = ORIENTED_EDGE('',*,*,#1885,.F.);
#1914 = ORIENTED_EDGE('',*,*,#1029,.F.);
#1915 = PLANE('',#1916);
#1916 = AXIS2_PLACEMENT_3D('',#1917,#1918,#1919);
#1917 = CARTESIAN_POINT('',(-7.5,15.,0.));
#1918 = DIRECTION('',(1.,0.,0.));
#1919 = DIRECTION('',(0.,-1.,0.));
#1920 = ADVANCED_FACE('',(#1921),#1932,.T.);
#1921 = FACE_BOUND('',#1922,.T.);
#1922 = EDGE_LOOP('',(#1923,#1924,#1925,#1931));
#1923 = ORIENTED_EDGE('',*,*,#1892,.T.);
#1924 = ORIENTED_EDGE('',*,*,#1540,.T.);
#1925 = ORIENTED_EDGE('',*,*,#1926,.F.);
#1926 = EDGE_CURVE('',#1046,#1533,#1927,.T.);
#1927 = LINE('',#1928,#1929);
#1928 = CARTESIAN_POINT('',(7.5,15.,0.));
#1929 = VECTOR('',#1930,1.);
#1930 = DIRECTION('',(0.,0.,1.));
#1931 = ORIENTED_EDGE('',*,*,#1053,.F.);
#1932 = PLANE('',#1933);
#1933 = AXIS2_PLACEMENT_3D('',#1934,#1935,#1936);
#1934 = CARTESIAN_POINT('',(7.5,12.,0.));
#1935 = DIRECTION('',(-1.,0.,0.));
#1936 = DIRECTION('',(0.,1.,0.));
#1937 = ADVANCED_FACE('',(#1938),#1944,.T.);
#1938 = FACE_BOUND('',#1939,.T.);
#1939 = EDGE_LOOP('',(#1940,#1941,#1942,#1943));
#1940 = ORIENTED_EDGE('',*,*,#1926,.T.);
#1941 = ORIENTED_EDGE('',*,*,#1557,.T.);
#1942 = ORIENTED_EDGE('',*,*,#1907,.F.);
#1943 = ORIENTED_EDGE('',*,*,#1070,.F.);
#1944 = PLANE('',#1945);
#1945 = AXIS2_PLACEMENT_3D('',#1946,#1947,#1948);
#1946 = CARTESIAN_POINT('',(7.5,15.,0.));
#1947 = DIRECTION('',(0.,-1.,0.));
#1948 = DIRECTION('',(-1.,0.,0.));
#1949 = ADVANCED_FACE('',(#1950),#1966,.T.);
#1950 = FACE_BOUND('',#1951,.T.);
#1951 = EDGE_LOOP('',(#1952,#1958,#1959,#1965));
#1952 = ORIENTED_EDGE('',*,*,#1953,.T.);
#1953 = EDGE_CURVE('',#1085,#1572,#1954,.T.);
#1954 = LINE('',#1955,#1956);
#1955 = CARTESIAN_POINT('',(-7.5,1.,0.));
#1956 = VECTOR('',#1957,1.);
#1957 = DIRECTION('',(0.,0.,1.));
#1958 = ORIENTED_EDGE('',*,*,#1588,.T.);
#1959 = ORIENTED_EDGE('',*,*,#1960,.F.);
#1960 = EDGE_CURVE('',#1094,#1581,#1961,.T.);
#1961 = LINE('',#1962,#1963);
#1962 = CARTESIAN_POINT('',(7.5,1.,0.));
#1963 = VECTOR('',#1964,1.);
#1964 = DIRECTION('',(0.,0.,1.));
#1965 = ORIENTED_EDGE('',*,*,#1101,.F.);
#1966 = PLANE('',#1967);
#1967 = AXIS2_PLACEMENT_3D('',#1968,#1969,#1970);
#1968 = CARTESIAN_POINT('',(-7.5,1.,0.));
#1969 = DIRECTION('',(0.,1.,0.));
#1970 = DIRECTION('',(1.,0.,0.));
#1971 = ADVANCED_FACE('',(#1972),#1983,.T.);
#1972 = FACE_BOUND('',#1973,.T.);
#1973 = EDGE_LOOP('',(#1974,#1980,#1981,#1982));
#1974 = ORIENTED_EDGE('',*,*,#1975,.T.);
#1975 = EDGE_CURVE('',#1116,#1603,#1976,.T.);
#1976 = LINE('',#1977,#1978);
#1977 = CARTESIAN_POINT('',(-7.5,4.,0.));
#1978 = VECTOR('',#1979,1.);
#1979 = DIRECTION('',(0.,0.,1.));
#1980 = ORIENTED_EDGE('',*,*,#1612,.T.);
#1981 = ORIENTED_EDGE('',*,*,#1953,.F.);
#1982 = ORIENTED_EDGE('',*,*,#1125,.F.);
#1983 = PLANE('',#1984);
#1984 = AXIS2_PLACEMENT_3D('',#1985,#1986,#1987);
#1985 = CARTESIAN_POINT('',(-7.5,4.,0.));
#1986 = DIRECTION('',(1.,0.,0.));
#1987 = DIRECTION('',(0.,-1.,0.));
#1988 = ADVANCED_FACE('',(#1989),#2000,.T.);
#1989 = FACE_BOUND('',#1990,.T.);
#1990 = EDGE_LOOP('',(#1991,#1992,#1993,#1999));
#1991 = ORIENTED_EDGE('',*,*,#1960,.T.);
#1992 = ORIENTED_EDGE('',*,*,#1636,.T.);
#1993 = ORIENTED_EDGE('',*,*,#1994,.F.);
#1994 = EDGE_CURVE('',#1142,#1629,#1995,.T.);
#1995 = LINE('',#1996,#1997);
#1996 = CARTESIAN_POINT('',(7.5,4.,0.));
#1997 = VECTOR('',#1998,1.);
#1998 = DIRECTION('',(0.,0.,1.));
#1999 = ORIENTED_EDGE('',*,*,#1149,.F.);
#2000 = PLANE('',#2001);
#2001 = AXIS2_PLACEMENT_3D('',#2002,#2003,#2004);
#2002 = CARTESIAN_POINT('',(7.5,1.,0.));
#2003 = DIRECTION('',(-1.,0.,0.));
#2004 = DIRECTION('',(0.,1.,0.));
#2005 = ADVANCED_FACE('',(#2006),#2012,.T.);
#2006 = FACE_BOUND('',#2007,.T.);
#2007 = EDGE_LOOP('',(#2008,#2009,#2010,#2011));
#2008 = ORIENTED_EDGE('',*,*,#1994,.T.);
#2009 = ORIENTED_EDGE('',*,*,#1653,.T.);
#2010 = ORIENTED_EDGE('',*,*,#1975,.F.);
#2011 = ORIENTED_EDGE('',*,*,#1166,.F.);
#2012 = PLANE('',#2013);
#2013 = AXIS2_PLACEMENT_3D('',#2014,#2015,#2016);
#2014 = CARTESIAN_POINT('',(7.5,4.,0.));
#2015 = DIRECTION('',(0.,-1.,0.));
#2016 = DIRECTION('',(-1.,0.,0.));
#2017 = ADVANCED_FACE('',(#2018),#2034,.T.);
#2018 = FACE_BOUND('',#2019,.T.);
#2019 = EDGE_LOOP('',(#2020,#2026,#2027,#2033));
#2020 = ORIENTED_EDGE('',*,*,#2021,.T.);
#2021 = EDGE_CURVE('',#1181,#1668,#2022,.T.);
#2022 = LINE('',#2023,#2024);
#2023 = CARTESIAN_POINT('',(-7.5,-10.,0.));
#2024 = VECTOR('',#2025,1.);
#2025 = DIRECTION('',(0.,0.,1.));
#2026 = ORIENTED_EDGE('',*,*,#1684,.T.);
#2027 = ORIENTED_EDGE('',*,*,#2028,.F.);
#2028 = EDGE_CURVE('',#1190,#1677,#2029,.T.);
#2029 = LINE('',#2030,#2031);
#2030 = CARTESIAN_POINT('',(7.5,-10.,0.));
#2031 = VECTOR('',#2032,1.);
#2032 = DIRECTION('',(0.,0.,1.));
#2033 = ORIENTED_EDGE('',*,*,#1197,.F.);
#2034 = PLANE('',#2035);
#2035 = AXIS2_PLACEMENT_3D('',#2036,#2037,#2038);
#2036 = CARTESIAN_POINT('',(-7.5,-10.,0.));
#2037 = DIRECTION('',(0.,1.,0.));
#2038 = DIRECTION('',(1.,0.,0.));
#2039 = ADVANCED_FACE('',(#2040),#2051,.T.);
#2040 = FACE_BOUND('',#2041,.T.);
#2041 = EDGE_LOOP('',(#2042,#2048,#2049,#2050));
#2042 = ORIENTED_EDGE('',*,*,#2043,.T.);
#2043 = EDGE_CURVE('',#1212,#1699,#2044,.T.);
#2044 = LINE('',#2045,#2046);
#2045 = CARTESIAN_POINT('',(-7.5,-7.,0.));
#2046 = VECTOR('',#2047,1.);
#2047 = DIRECTION('',(0.,0.,1.));
#2048 = ORIENTED_EDGE('',*,*,#1708,.T.);
#2049 = ORIENTED_EDGE('',*,*,#2021,.F.);
#2050 = ORIENTED_EDGE('',*,*,#1221,.F.);
#2051 = PLANE('',#2052);
#2052 = AXIS2_PLACEMENT_3D('',#2053,#2054,#2055);
#2053 = CARTESIAN_POINT('',(-7.5,-7.,0.));
#2054 = DIRECTION('',(1.,0.,0.));
#2055 = DIRECTION('',(0.,-1.,0.));
#2056 = ADVANCED_FACE('',(#2057),#2068,.T.);
#2057 = FACE_BOUND('',#2058,.T.);
#2058 = EDGE_LOOP('',(#2059,#2060,#2061,#2067));
#2059 = ORIENTED_EDGE('',*,*,#2028,.T.);
#2060 = ORIENTED_EDGE('',*,*,#1732,.T.);
#2061 = ORIENTED_EDGE('',*,*,#2062,.F.);
#2062 = EDGE_CURVE('',#1238,#1725,#2063,.T.);
#2063 = LINE('',#2064,#2065);
#2064 = CARTESIAN_POINT('',(7.5,-7.,0.));
#2065 = VECTOR('',#2066,1.);
#2066 = DIRECTION('',(0.,0.,1.));
#2067 = ORIENTED_EDGE('',*,*,#1245,.F.);
#2068 = PLANE('',#2069);
#2069 = AXIS2_PLACEMENT_3D('',#2070,#2071,#2072);
#2070 = CARTESIAN_POINT('',(7.5,-10.,0.));
#2071 = DIRECTION('',(-1.,0.,0.));
#2072 = DIRECTION('',(0.,1.,0.));
#2073 = ADVANCED_FACE('',(#2074),#2080,.T.);
#2074 = FACE_BOUND('',#2075,.T.);
#2075 = EDGE_LOOP('',(#2076,#2077,#2078,#2079));
#2076 = ORIENTED_EDGE('',*,*,#2062,.T.);
#2077 = ORIENTED_EDGE('',*,*,#1749,.T.);
#2078 = ORIENTED_EDGE('',*,*,#2043,.F.);
#2079 = ORIENTED_EDGE('',*,*,#1262,.F.);
#2080 = PLANE('',#2081);
#2081 = AXIS2_PLACEMENT_3D('',#2082,#2083,#2084);
#2082 = CARTESIAN_POINT('',(7.5,-7.,0.));
#2083 = DIRECTION('',(0.,-1.,0.));
#2084 = DIRECTION('',(-1.,0.,0.));
#2085 = ADVANCED_FACE('',(#2086),#2097,.F.);
#2086 = FACE_BOUND('',#2087,.T.);
#2087 = EDGE_LOOP('',(#2088,#2094,#2095,#2096));
#2088 = ORIENTED_EDGE('',*,*,#2089,.T.);
#2089 = EDGE_CURVE('',#1277,#1764,#2090,.T.);
#2090 = LINE('',#2091,#2092);
#2091 = CARTESIAN_POINT('',(1.75,-16.,0.));
#2092 = VECTOR('',#2093,1.);
#2093 = DIRECTION('',(0.,0.,1.));
#2094 = ORIENTED_EDGE('',*,*,#1773,.T.);
#2095 = ORIENTED_EDGE('',*,*,#2089,.F.);
#2096 = ORIENTED_EDGE('',*,*,#1286,.F.);
#2097 = CYLINDRICAL_SURFACE('',#2098,1.75);
#2098 = AXIS2_PLACEMENT_3D('',#2099,#2100,#2101);
#2099 = CARTESIAN_POINT('',(0.,-16.,0.));
#2100 = DIRECTION('',(-0.,-0.,-1.));
#2101 = DIRECTION('',(1.,0.,0.));
#2102 = ( GEOMETRIC_REPRESENTATION_CONTEXT(3) 
GLOBAL_UNCERTAINTY_ASSIGNED_CONTEXT((#2106)) 
GLOBAL_UNIT_ASSIGNED_CONTEXT((#2103,#2104,#2105)) REPRESENTATION_CONTEXT
('Context #1','3D Context with UNIT and UNCERTAINTY') );
#2103 = ( LENGTH_UNIT() NAMED_UNIT(*) SI_UNIT(.MILLI.,.METRE.) );
#2104 = ( NAMED_UNIT(*) PLANE_ANGLE_UNIT() SI_UNIT($,.RADIAN.) );
#2105 = ( NAMED_UNIT(*) SI_UNIT($,.STERADIAN.) SOLID_ANGLE_UNIT() );
#2106 = UNCERTAINTY_MEASURE_WITH_UNIT(LENGTH_MEASURE(1.E-07),#2103,
  'distance_accuracy_value','confusion accuracy');
#2107 = PRODUCT_RELATED_PRODUCT_CATEGORY('part',$,(#7));
#2108 = MECHANICAL_DESIGN_GEOMETRIC_PRESENTATION_REPRESENTATION('',(
    #2109),#2102);
#2109 = STYLED_ITEM('color',(#2110),#15);
#2110 = PRESENTATION_STYLE_ASSIGNMENT((#2111,#2117));
#2111 = SURFACE_STYLE_USAGE(.BOTH.,#2112);
#2112 = SURFACE_SIDE_STYLE('',(#2113));
#2113 = SURFACE_STYLE_FILL_AREA(#2114);
#2114 = FILL_AREA_STYLE('',(#2115));
#2115 = FILL_AREA_STYLE_COLOUR('',#2116);
#2116 = COLOUR_RGB('',0.678431390124,0.709803936702,0.741176476869);
#2117 = CURVE_STYLE('',#2118,POSITIVE_LENGTH_MEASURE(0.1),#2119);
#2118 = DRAUGHTING_PRE_DEFINED_CURVE_FONT('continuous');
#2119 = COLOUR_RGB('',9.803921802644E-02,9.803921802644E-02,
  9.803921802644E-02);
ENDSEC;
END-ISO-10303-21;
