ISO-10303-21;
HEADER;
FILE_DESCRIPTION(('FreeCAD Model'),'2;1');
FILE_NAME('Open CASCADE Shape Model','2026-05-07T09:55:28',(''),(''),
  'Open CASCADE STEP processor 7.8','FreeCAD','Unknown');
FILE_SCHEMA(('AUTOMOTIVE_DESIGN { 1 0 10303 214 1 1 1 1 }'));
ENDSEC;
DATA;
#1 = APPLICATION_PROTOCOL_DEFINITION('international standard',
  'automotive_design',2000,#2);
#2 = APPLICATION_CONTEXT(
  'core data for automotive mechanical design processes');
#3 = SHAPE_DEFINITION_REPRESENTATION(#4,#10);
#4 = PRODUCT_DEFINITION_SHAPE('','',#5);
#5 = PRODUCT_DEFINITION('design','',#6,#9);
#6 = PRODUCT_DEFINITION_FORMATION('','',#7);
#7 = PRODUCT('bearing_holder','bearing_holder','',(#8));
#8 = PRODUCT_CONTEXT('',#2,'mechanical');
#9 = PRODUCT_DEFINITION_CONTEXT('part definition',#2,'design');
#10 = ADVANCED_BREP_SHAPE_REPRESENTATION('',(#11,#15),#150);
#11 = AXIS2_PLACEMENT_3D('',#12,#13,#14);
#12 = CARTESIAN_POINT('',(0.,0.,0.));
#13 = DIRECTION('',(0.,0.,1.));
#14 = DIRECTION('',(1.,0.,-0.));
#15 = MANIFOLD_SOLID_BREP('',#16);
#16 = CLOSED_SHELL('',(#17,#45,#69,#89,#114,#134));
#17 = ADVANCED_FACE('',(#18,#29),#40,.T.);
#18 = FACE_BOUND('',#19,.T.);
#19 = EDGE_LOOP('',(#20));
#20 = ORIENTED_EDGE('',*,*,#21,.F.);
#21 = EDGE_CURVE('',#22,#22,#24,.T.);
#22 = VERTEX_POINT('',#23);
#23 = CARTESIAN_POINT('',(31.,122.,5.));
#24 = CIRCLE('',#25,5.);
#25 = AXIS2_PLACEMENT_3D('',#26,#27,#28);
#26 = CARTESIAN_POINT('',(36.,122.,5.));
#27 = DIRECTION('',(0.,1.,-2.22044604925E-16));
#28 = DIRECTION('',(-1.,0.,0.));
#29 = FACE_BOUND('',#30,.T.);
#30 = EDGE_LOOP('',(#31));
#31 = ORIENTED_EDGE('',*,*,#32,.T.);
#32 = EDGE_CURVE('',#33,#33,#35,.T.);
#33 = VERTEX_POINT('',#34);
#34 = CARTESIAN_POINT('',(34.25,122.,5.));
#35 = CIRCLE('',#36,1.75);
#36 = AXIS2_PLACEMENT_3D('',#37,#38,#39);
#37 = CARTESIAN_POINT('',(36.,122.,5.));
#38 = DIRECTION('',(0.,1.,-2.22044604925E-16));
#39 = DIRECTION('',(-1.,0.,0.));
#40 = PLANE('',#41);
#41 = AXIS2_PLACEMENT_3D('',#42,#43,#44);
#42 = CARTESIAN_POINT('',(36.,122.,5.));
#43 = DIRECTION('',(-0.,-1.,-0.));
#44 = DIRECTION('',(0.,0.,-1.));
#45 = ADVANCED_FACE('',(#46),#64,.T.);
#46 = FACE_BOUND('',#47,.F.);
#47 = EDGE_LOOP('',(#48,#49,#56,#63));
#48 = ORIENTED_EDGE('',*,*,#21,.F.);
#49 = ORIENTED_EDGE('',*,*,#50,.F.);
#50 = EDGE_CURVE('',#51,#22,#53,.T.);
#51 = VERTEX_POINT('',#52);
#52 = CARTESIAN_POINT('',(31.,127.,5.));
#53 = B_SPLINE_CURVE_WITH_KNOTS('',1,(#54,#55),.UNSPECIFIED.,.F.,.F.,(2,
    2),(-2.,3.),.PIECEWISE_BEZIER_KNOTS.);
#54 = CARTESIAN_POINT('',(31.,127.,5.));
#55 = CARTESIAN_POINT('',(31.,122.,5.));
#56 = ORIENTED_EDGE('',*,*,#57,.T.);
#57 = EDGE_CURVE('',#51,#51,#58,.T.);
#58 = CIRCLE('',#59,5.);
#59 = AXIS2_PLACEMENT_3D('',#60,#61,#62);
#60 = CARTESIAN_POINT('',(36.,127.,5.));
#61 = DIRECTION('',(0.,1.,-2.22044604925E-16));
#62 = DIRECTION('',(-1.,0.,0.));
#63 = ORIENTED_EDGE('',*,*,#50,.T.);
#64 = CYLINDRICAL_SURFACE('',#65,5.);
#65 = AXIS2_PLACEMENT_3D('',#66,#67,#68);
#66 = CARTESIAN_POINT('',(36.,125.,5.));
#67 = DIRECTION('',(0.,-1.,2.22044604925E-16));
#68 = DIRECTION('',(-1.,0.,0.));
#69 = ADVANCED_FACE('',(#70,#73),#84,.T.);
#70 = FACE_BOUND('',#71,.T.);
#71 = EDGE_LOOP('',(#72));
#72 = ORIENTED_EDGE('',*,*,#57,.T.);
#73 = FACE_BOUND('',#74,.F.);
#74 = EDGE_LOOP('',(#75));
#75 = ORIENTED_EDGE('',*,*,#76,.T.);
#76 = EDGE_CURVE('',#77,#77,#79,.T.);
#77 = VERTEX_POINT('',#78);
#78 = CARTESIAN_POINT('',(31.9,127.,5.));
#79 = CIRCLE('',#80,4.1);
#80 = AXIS2_PLACEMENT_3D('',#81,#82,#83);
#81 = CARTESIAN_POINT('',(36.,127.,5.));
#82 = DIRECTION('',(0.,1.,-2.22044604925E-16));
#83 = DIRECTION('',(-1.,0.,0.));
#84 = PLANE('',#85);
#85 = AXIS2_PLACEMENT_3D('',#86,#87,#88);
#86 = CARTESIAN_POINT('',(36.,127.,5.));
#87 = DIRECTION('',(0.,1.,-2.22044604925E-16));
#88 = DIRECTION('',(-1.,0.,0.));
#89 = ADVANCED_FACE('',(#90),#109,.T.);
#90 = FACE_BOUND('',#91,.F.);
#91 = EDGE_LOOP('',(#92,#93,#101,#108));
#92 = ORIENTED_EDGE('',*,*,#76,.F.);
#93 = ORIENTED_EDGE('',*,*,#94,.T.);
#94 = EDGE_CURVE('',#77,#95,#97,.T.);
#95 = VERTEX_POINT('',#96);
#96 = CARTESIAN_POINT('',(31.9,134.,5.));
#97 = LINE('',#98,#99);
#98 = CARTESIAN_POINT('',(31.9,125.,5.));
#99 = VECTOR('',#100,1.);
#100 = DIRECTION('',(0.,1.,-2.22044604925E-16));
#101 = ORIENTED_EDGE('',*,*,#102,.T.);
#102 = EDGE_CURVE('',#95,#95,#103,.T.);
#103 = CIRCLE('',#104,4.1);
#104 = AXIS2_PLACEMENT_3D('',#105,#106,#107);
#105 = CARTESIAN_POINT('',(36.,134.,5.));
#106 = DIRECTION('',(0.,1.,-2.22044604925E-16));
#107 = DIRECTION('',(-1.,0.,0.));
#108 = ORIENTED_EDGE('',*,*,#94,.F.);
#109 = CYLINDRICAL_SURFACE('',#110,4.1);
#110 = AXIS2_PLACEMENT_3D('',#111,#112,#113);
#111 = CARTESIAN_POINT('',(36.,125.,5.));
#112 = DIRECTION('',(0.,-1.,2.22044604925E-16));
#113 = DIRECTION('',(-1.,0.,0.));
#114 = ADVANCED_FACE('',(#115,#118),#129,.T.);
#115 = FACE_BOUND('',#116,.T.);
#116 = EDGE_LOOP('',(#117));
#117 = ORIENTED_EDGE('',*,*,#102,.T.);
#118 = FACE_BOUND('',#119,.F.);
#119 = EDGE_LOOP('',(#120));
#120 = ORIENTED_EDGE('',*,*,#121,.T.);
#121 = EDGE_CURVE('',#122,#122,#124,.T.);
#122 = VERTEX_POINT('',#123);
#123 = CARTESIAN_POINT('',(34.25,134.,5.));
#124 = CIRCLE('',#125,1.75);
#125 = AXIS2_PLACEMENT_3D('',#126,#127,#128);
#126 = CARTESIAN_POINT('',(36.,134.,5.));
#127 = DIRECTION('',(0.,1.,-2.22044604925E-16));
#128 = DIRECTION('',(-1.,0.,0.));
#129 = PLANE('',#130);
#130 = AXIS2_PLACEMENT_3D('',#131,#132,#133);
#131 = CARTESIAN_POINT('',(36.,134.,5.));
#132 = DIRECTION('',(0.,1.,-2.22044604925E-16));
#133 = DIRECTION('',(-1.,0.,0.));
#134 = ADVANCED_FACE('',(#135),#145,.F.);
#135 = FACE_BOUND('',#136,.F.);
#136 = EDGE_LOOP('',(#137,#138,#143,#144));
#137 = ORIENTED_EDGE('',*,*,#121,.F.);
#138 = ORIENTED_EDGE('',*,*,#139,.F.);
#139 = EDGE_CURVE('',#33,#122,#140,.T.);
#140 = B_SPLINE_CURVE_WITH_KNOTS('',1,(#141,#142),.UNSPECIFIED.,.F.,.F.,
  (2,2),(-3.,9.),.PIECEWISE_BEZIER_KNOTS.);
#141 = CARTESIAN_POINT('',(34.25,122.,5.));
#142 = CARTESIAN_POINT('',(34.25,134.,5.));
#143 = ORIENTED_EDGE('',*,*,#32,.T.);
#144 = ORIENTED_EDGE('',*,*,#139,.T.);
#145 = CYLINDRICAL_SURFACE('',#146,1.75);
#146 = AXIS2_PLACEMENT_3D('',#147,#148,#149);
#147 = CARTESIAN_POINT('',(36.,125.,5.));
#148 = DIRECTION('',(0.,1.,-2.22044604925E-16));
#149 = DIRECTION('',(-1.,0.,0.));
#150 = ( GEOMETRIC_REPRESENTATION_CONTEXT(3) 
GLOBAL_UNCERTAINTY_ASSIGNED_CONTEXT((#154)) GLOBAL_UNIT_ASSIGNED_CONTEXT
((#151,#152,#153)) REPRESENTATION_CONTEXT('Context #1',
  '3D Context with UNIT and UNCERTAINTY') );
#151 = ( LENGTH_UNIT() NAMED_UNIT(*) SI_UNIT(.MILLI.,.METRE.) );
#152 = ( NAMED_UNIT(*) PLANE_ANGLE_UNIT() SI_UNIT($,.RADIAN.) );
#153 = ( NAMED_UNIT(*) SI_UNIT($,.STERADIAN.) SOLID_ANGLE_UNIT() );
#154 = UNCERTAINTY_MEASURE_WITH_UNIT(LENGTH_MEASURE(5.E-06),#151,
  'distance_accuracy_value','confusion accuracy');
#155 = PRODUCT_RELATED_PRODUCT_CATEGORY('part',$,(#7));
#156 = MECHANICAL_DESIGN_GEOMETRIC_PRESENTATION_REPRESENTATION('',(#157)
  ,#150);
#157 = STYLED_ITEM('color',(#158),#15);
#158 = PRESENTATION_STYLE_ASSIGNMENT((#159,#165));
#159 = SURFACE_STYLE_USAGE(.BOTH.,#160);
#160 = SURFACE_SIDE_STYLE('',(#161));
#161 = SURFACE_STYLE_FILL_AREA(#162);
#162 = FILL_AREA_STYLE('',(#163));
#163 = FILL_AREA_STYLE_COLOUR('',#164);
#164 = COLOUR_RGB('',0.678431390124,0.709803936702,0.741176476869);
#165 = CURVE_STYLE('',#166,POSITIVE_LENGTH_MEASURE(0.1),#167);
#166 = DRAUGHTING_PRE_DEFINED_CURVE_FONT('continuous');
#167 = COLOUR_RGB('',9.803921802644E-02,9.803921802644E-02,
  9.803921802644E-02);
ENDSEC;
END-ISO-10303-21;
