ISO-10303-21;
HEADER;
FILE_DESCRIPTION(('FreeCAD Model'),'2;1');
FILE_NAME('Open CASCADE Shape Model','2026-05-01T22:32:36',(''),(''),
  'Open CASCADE STEP processor 7.8','FreeCAD','Unknown');
FILE_SCHEMA(('AUTOMOTIVE_DESIGN { 1 0 10303 214 1 1 1 1 }'));
ENDSEC;
DATA;
#1 = APPLICATION_PROTOCOL_DEFINITION('international standard',
  'automotive_design',2000,#2);
#2 = APPLICATION_CONTEXT(
  'core data for automotive mechanical design processes');
#3 = SHAPE_DEFINITION_REPRESENTATION(#4,#10);
#4 = PRODUCT_DEFINITION_SHAPE('','',#5);
#5 = PRODUCT_DEFINITION('design','',#6,#9);
#6 = PRODUCT_DEFINITION_FORMATION('','',#7);
#7 = PRODUCT('Flap001','Flap001','',(#8));
#8 = PRODUCT_CONTEXT('',#2,'mechanical');
#9 = PRODUCT_DEFINITION_CONTEXT('part definition',#2,'design');
#10 = ADVANCED_BREP_SHAPE_REPRESENTATION('',(#11,#15),#1192);
#11 = AXIS2_PLACEMENT_3D('',#12,#13,#14);
#12 = CARTESIAN_POINT('',(0.,0.,0.));
#13 = DIRECTION('',(0.,0.,1.));
#14 = DIRECTION('',(1.,0.,-0.));
#15 = MANIFOLD_SOLID_BREP('',#16);
#16 = CLOSED_SHELL('',(#17,#103,#153,#177,#208,#239,#264,#288,#313,#330,
    #355,#462,#486,#510,#527,#558,#661,#678,#703,#727,#752,#776,#793,
    #818,#843,#868,#885,#902,#919,#936,#948,#979,#1003,#1027,#1052,#1076
    ,#1094,#1119,#1144,#1169));
#17 = ADVANCED_FACE('',(#18,#87),#98,.F.);
#18 = FACE_BOUND('',#19,.F.);
#19 = EDGE_LOOP('',(#20,#31,#39,#48,#56,#65,#73,#81));
#20 = ORIENTED_EDGE('',*,*,#21,.F.);
#21 = EDGE_CURVE('',#22,#24,#26,.T.);
#22 = VERTEX_POINT('',#23);
#23 = CARTESIAN_POINT('',(6.75,3.5,32.186424910909));
#24 = VERTEX_POINT('',#25);
#25 = CARTESIAN_POINT('',(6.75,4.998163853212,34.));
#26 = CIRCLE('',#27,5.0053);
#27 = AXIS2_PLACEMENT_3D('',#28,#29,#30);
#28 = CARTESIAN_POINT('',(6.75,7.99993,29.9947));
#29 = DIRECTION('',(-1.,0.,0.));
#30 = DIRECTION('',(0.,-1.,0.));
#31 = ORIENTED_EDGE('',*,*,#32,.T.);
#32 = EDGE_CURVE('',#22,#33,#35,.T.);
#33 = VERTEX_POINT('',#34);
#34 = CARTESIAN_POINT('',(6.75,3.5,29.));
#35 = LINE('',#36,#37);
#36 = CARTESIAN_POINT('',(6.75,3.5,35.));
#37 = VECTOR('',#38,1.);
#38 = DIRECTION('',(-0.,-0.,-1.));
#39 = ORIENTED_EDGE('',*,*,#40,.T.);
#40 = EDGE_CURVE('',#33,#41,#43,.T.);
#41 = VERTEX_POINT('',#42);
#42 = CARTESIAN_POINT('',(6.75,7.5,25.));
#43 = CIRCLE('',#44,4.);
#44 = AXIS2_PLACEMENT_3D('',#45,#46,#47);
#45 = CARTESIAN_POINT('',(6.75,7.5,29.));
#46 = DIRECTION('',(1.,0.,-0.));
#47 = DIRECTION('',(0.,0.,1.));
#48 = ORIENTED_EDGE('',*,*,#49,.T.);
#49 = EDGE_CURVE('',#41,#50,#52,.T.);
#50 = VERTEX_POINT('',#51);
#51 = CARTESIAN_POINT('',(6.75,9.5,25.));
#52 = LINE('',#53,#54);
#53 = CARTESIAN_POINT('',(6.75,3.5,25.));
#54 = VECTOR('',#55,1.);
#55 = DIRECTION('',(0.,1.,0.));
#56 = ORIENTED_EDGE('',*,*,#57,.T.);
#57 = EDGE_CURVE('',#50,#58,#60,.T.);
#58 = VERTEX_POINT('',#59);
#59 = CARTESIAN_POINT('',(6.75,13.5,29.));
#60 = CIRCLE('',#61,4.);
#61 = AXIS2_PLACEMENT_3D('',#62,#63,#64);
#62 = CARTESIAN_POINT('',(6.75,9.5,29.));
#63 = DIRECTION('',(1.,-0.,0.));
#64 = DIRECTION('',(0.,0.,-1.));
#65 = ORIENTED_EDGE('',*,*,#66,.F.);
#66 = EDGE_CURVE('',#67,#58,#69,.T.);
#67 = VERTEX_POINT('',#68);
#68 = CARTESIAN_POINT('',(6.75,13.5,32.));
#69 = LINE('',#70,#71);
#70 = CARTESIAN_POINT('',(6.75,13.5,35.));
#71 = VECTOR('',#72,1.);
#72 = DIRECTION('',(-0.,-0.,-1.));
#73 = ORIENTED_EDGE('',*,*,#74,.F.);
#74 = EDGE_CURVE('',#75,#67,#77,.T.);
#75 = VERTEX_POINT('',#76);
#76 = CARTESIAN_POINT('',(6.75,13.5,34.));
#77 = LINE('',#78,#79);
#78 = CARTESIAN_POINT('',(6.75,13.5,35.));
#79 = VECTOR('',#80,1.);
#80 = DIRECTION('',(-0.,-0.,-1.));
#81 = ORIENTED_EDGE('',*,*,#82,.F.);
#82 = EDGE_CURVE('',#24,#75,#83,.T.);
#83 = LINE('',#84,#85);
#84 = CARTESIAN_POINT('',(6.75,3.5,34.));
#85 = VECTOR('',#86,1.);
#86 = DIRECTION('',(0.,1.,0.));
#87 = FACE_BOUND('',#88,.F.);
#88 = EDGE_LOOP('',(#89));
#89 = ORIENTED_EDGE('',*,*,#90,.F.);
#90 = EDGE_CURVE('',#91,#91,#93,.T.);
#91 = VERTEX_POINT('',#92);
#92 = CARTESIAN_POINT('',(6.75,9.49993,29.9947));
#93 = CIRCLE('',#94,1.5);
#94 = AXIS2_PLACEMENT_3D('',#95,#96,#97);
#95 = CARTESIAN_POINT('',(6.75,7.99993,29.9947));
#96 = DIRECTION('',(1.,0.,0.));
#97 = DIRECTION('',(0.,1.,0.));
#98 = PLANE('',#99);
#99 = AXIS2_PLACEMENT_3D('',#100,#101,#102);
#100 = CARTESIAN_POINT('',(6.75,3.5,35.));
#101 = DIRECTION('',(1.,0.,0.));
#102 = DIRECTION('',(0.,1.,0.));
#103 = ADVANCED_FACE('',(#104),#148,.T.);
#104 = FACE_BOUND('',#105,.T.);
#105 = EDGE_LOOP('',(#106,#107,#115,#124,#133,#141));
#106 = ORIENTED_EDGE('',*,*,#21,.F.);
#107 = ORIENTED_EDGE('',*,*,#108,.F.);
#108 = EDGE_CURVE('',#109,#22,#111,.T.);
#109 = VERTEX_POINT('',#110);
#110 = CARTESIAN_POINT('',(38.25,3.5,32.186424910909));
#111 = LINE('',#112,#113);
#112 = CARTESIAN_POINT('',(6.75,3.5,32.186424910909));
#113 = VECTOR('',#114,1.);
#114 = DIRECTION('',(-1.,0.,0.));
#115 = ORIENTED_EDGE('',*,*,#116,.T.);
#116 = EDGE_CURVE('',#109,#117,#119,.T.);
#117 = VERTEX_POINT('',#118);
#118 = CARTESIAN_POINT('',(38.25,4.998163853212,34.));
#119 = CIRCLE('',#120,5.0053);
#120 = AXIS2_PLACEMENT_3D('',#121,#122,#123);
#121 = CARTESIAN_POINT('',(38.25,7.99993,29.9947));
#122 = DIRECTION('',(-1.,0.,0.));
#123 = DIRECTION('',(0.,-1.,0.));
#124 = ORIENTED_EDGE('',*,*,#125,.F.);
#125 = EDGE_CURVE('',#126,#117,#128,.T.);
#126 = VERTEX_POINT('',#127);
#127 = CARTESIAN_POINT('',(37.25,7.99993,35.));
#128 = ELLIPSE('',#129,7.078563143746,5.0053);
#129 = AXIS2_PLACEMENT_3D('',#130,#131,#132);
#130 = CARTESIAN_POINT('',(42.2553,7.99993,29.9947));
#131 = DIRECTION('',(0.707106781187,1.E-17,0.707106781187));
#132 = DIRECTION('',(-0.707106781187,1.E-17,0.707106781187));
#133 = ORIENTED_EDGE('',*,*,#134,.F.);
#134 = EDGE_CURVE('',#135,#126,#137,.T.);
#135 = VERTEX_POINT('',#136);
#136 = CARTESIAN_POINT('',(7.75,7.99993,35.));
#137 = LINE('',#138,#139);
#138 = CARTESIAN_POINT('',(6.75,7.99993,35.));
#139 = VECTOR('',#140,1.);
#140 = DIRECTION('',(1.,0.,0.));
#141 = ORIENTED_EDGE('',*,*,#142,.T.);
#142 = EDGE_CURVE('',#135,#24,#143,.T.);
#143 = ELLIPSE('',#144,7.078563143746,5.0053);
#144 = AXIS2_PLACEMENT_3D('',#145,#146,#147);
#145 = CARTESIAN_POINT('',(2.7447,7.99993,29.9947));
#146 = DIRECTION('',(0.707106781187,-1.E-17,-0.707106781187));
#147 = DIRECTION('',(-0.707106781187,-1.E-17,-0.707106781187));
#148 = CYLINDRICAL_SURFACE('',#149,5.0053);
#149 = AXIS2_PLACEMENT_3D('',#150,#151,#152);
#150 = CARTESIAN_POINT('',(6.75,7.99993,29.9947));
#151 = DIRECTION('',(-1.,0.,0.));
#152 = DIRECTION('',(0.,-1.,0.));
#153 = ADVANCED_FACE('',(#154),#172,.F.);
#154 = FACE_BOUND('',#155,.F.);
#155 = EDGE_LOOP('',(#156,#157,#158,#166));
#156 = ORIENTED_EDGE('',*,*,#142,.T.);
#157 = ORIENTED_EDGE('',*,*,#82,.T.);
#158 = ORIENTED_EDGE('',*,*,#159,.F.);
#159 = EDGE_CURVE('',#160,#75,#162,.T.);
#160 = VERTEX_POINT('',#161);
#161 = CARTESIAN_POINT('',(7.75,14.5,35.));
#162 = LINE('',#163,#164);
#163 = CARTESIAN_POINT('',(5.416666666667,12.166666666667,
    32.666666666667));
#164 = VECTOR('',#165,1.);
#165 = DIRECTION('',(-0.57735026919,-0.57735026919,-0.57735026919));
#166 = ORIENTED_EDGE('',*,*,#167,.F.);
#167 = EDGE_CURVE('',#135,#160,#168,.T.);
#168 = LINE('',#169,#170);
#169 = CARTESIAN_POINT('',(7.75,3.5,35.));
#170 = VECTOR('',#171,1.);
#171 = DIRECTION('',(0.,1.,0.));
#172 = PLANE('',#173);
#173 = AXIS2_PLACEMENT_3D('',#174,#175,#176);
#174 = CARTESIAN_POINT('',(7.25,3.5,34.5));
#175 = DIRECTION('',(0.707106781187,-1.E-17,-0.707106781187));
#176 = DIRECTION('',(7.071067811865E-18,1.,-7.071067811865E-18));
#177 = ADVANCED_FACE('',(#178),#203,.F.);
#178 = FACE_BOUND('',#179,.F.);
#179 = EDGE_LOOP('',(#180,#190,#196,#197));
#180 = ORIENTED_EDGE('',*,*,#181,.F.);
#181 = EDGE_CURVE('',#182,#184,#186,.T.);
#182 = VERTEX_POINT('',#183);
#183 = CARTESIAN_POINT('',(5.,13.5,34.));
#184 = VERTEX_POINT('',#185);
#185 = CARTESIAN_POINT('',(5.,13.5,32.));
#186 = LINE('',#187,#188);
#187 = CARTESIAN_POINT('',(5.,13.5,35.));
#188 = VECTOR('',#189,1.);
#189 = DIRECTION('',(-0.,-0.,-1.));
#190 = ORIENTED_EDGE('',*,*,#191,.F.);
#191 = EDGE_CURVE('',#75,#182,#192,.T.);
#192 = LINE('',#193,#194);
#193 = CARTESIAN_POINT('',(6.75,13.5,34.));
#194 = VECTOR('',#195,1.);
#195 = DIRECTION('',(-1.,0.,0.));
#196 = ORIENTED_EDGE('',*,*,#74,.T.);
#197 = ORIENTED_EDGE('',*,*,#198,.T.);
#198 = EDGE_CURVE('',#67,#184,#199,.T.);
#199 = LINE('',#200,#201);
#200 = CARTESIAN_POINT('',(40.,13.5,32.));
#201 = VECTOR('',#202,1.);
#202 = DIRECTION('',(-1.,-0.,-0.));
#203 = PLANE('',#204);
#204 = AXIS2_PLACEMENT_3D('',#205,#206,#207);
#205 = CARTESIAN_POINT('',(6.75,13.5,35.));
#206 = DIRECTION('',(0.,1.,0.));
#207 = DIRECTION('',(-1.,0.,0.));
#208 = ADVANCED_FACE('',(#209),#234,.F.);
#209 = FACE_BOUND('',#210,.F.);
#210 = EDGE_LOOP('',(#211,#221,#227,#228));
#211 = ORIENTED_EDGE('',*,*,#212,.F.);
#212 = EDGE_CURVE('',#213,#215,#217,.T.);
#213 = VERTEX_POINT('',#214);
#214 = CARTESIAN_POINT('',(38.25,13.5,32.));
#215 = VERTEX_POINT('',#216);
#216 = CARTESIAN_POINT('',(38.25,13.5,29.));
#217 = LINE('',#218,#219);
#218 = CARTESIAN_POINT('',(38.25,13.5,35.));
#219 = VECTOR('',#220,1.);
#220 = DIRECTION('',(-0.,-0.,-1.));
#221 = ORIENTED_EDGE('',*,*,#222,.T.);
#222 = EDGE_CURVE('',#213,#67,#223,.T.);
#223 = LINE('',#224,#225);
#224 = CARTESIAN_POINT('',(40.,13.5,32.));
#225 = VECTOR('',#226,1.);
#226 = DIRECTION('',(-1.,-0.,-0.));
#227 = ORIENTED_EDGE('',*,*,#66,.T.);
#228 = ORIENTED_EDGE('',*,*,#229,.F.);
#229 = EDGE_CURVE('',#215,#58,#230,.T.);
#230 = LINE('',#231,#232);
#231 = CARTESIAN_POINT('',(38.25,13.5,29.));
#232 = VECTOR('',#233,1.);
#233 = DIRECTION('',(-1.,-0.,-0.));
#234 = PLANE('',#235);
#235 = AXIS2_PLACEMENT_3D('',#236,#237,#238);
#236 = CARTESIAN_POINT('',(40.,13.5,32.));
#237 = DIRECTION('',(0.,-1.,0.));
#238 = DIRECTION('',(0.,0.,-1.));
#239 = ADVANCED_FACE('',(#240),#259,.T.);
#240 = FACE_BOUND('',#241,.F.);
#241 = EDGE_LOOP('',(#242,#251,#252,#253));
#242 = ORIENTED_EDGE('',*,*,#243,.T.);
#243 = EDGE_CURVE('',#244,#215,#246,.T.);
#244 = VERTEX_POINT('',#245);
#245 = CARTESIAN_POINT('',(38.25,9.5,25.));
#246 = CIRCLE('',#247,4.);
#247 = AXIS2_PLACEMENT_3D('',#248,#249,#250);
#248 = CARTESIAN_POINT('',(38.25,9.5,29.));
#249 = DIRECTION('',(1.,-0.,0.));
#250 = DIRECTION('',(0.,0.,-1.));
#251 = ORIENTED_EDGE('',*,*,#229,.T.);
#252 = ORIENTED_EDGE('',*,*,#57,.F.);
#253 = ORIENTED_EDGE('',*,*,#254,.F.);
#254 = EDGE_CURVE('',#244,#50,#255,.T.);
#255 = LINE('',#256,#257);
#256 = CARTESIAN_POINT('',(38.25,9.5,25.));
#257 = VECTOR('',#258,1.);
#258 = DIRECTION('',(-1.,-0.,-0.));
#259 = CYLINDRICAL_SURFACE('',#260,4.);
#260 = AXIS2_PLACEMENT_3D('',#261,#262,#263);
#261 = CARTESIAN_POINT('',(38.25,9.5,29.));
#262 = DIRECTION('',(-1.,-0.,-0.));
#263 = DIRECTION('',(0.,0.,-1.));
#264 = ADVANCED_FACE('',(#265),#283,.F.);
#265 = FACE_BOUND('',#266,.F.);
#266 = EDGE_LOOP('',(#267,#268,#276,#282));
#267 = ORIENTED_EDGE('',*,*,#49,.F.);
#268 = ORIENTED_EDGE('',*,*,#269,.T.);
#269 = EDGE_CURVE('',#41,#270,#272,.T.);
#270 = VERTEX_POINT('',#271);
#271 = CARTESIAN_POINT('',(38.25,7.5,25.));
#272 = LINE('',#273,#274);
#273 = CARTESIAN_POINT('',(6.75,7.5,25.));
#274 = VECTOR('',#275,1.);
#275 = DIRECTION('',(1.,0.,0.));
#276 = ORIENTED_EDGE('',*,*,#277,.T.);
#277 = EDGE_CURVE('',#270,#244,#278,.T.);
#278 = LINE('',#279,#280);
#279 = CARTESIAN_POINT('',(38.25,3.5,25.));
#280 = VECTOR('',#281,1.);
#281 = DIRECTION('',(0.,1.,0.));
#282 = ORIENTED_EDGE('',*,*,#254,.T.);
#283 = PLANE('',#284);
#284 = AXIS2_PLACEMENT_3D('',#285,#286,#287);
#285 = CARTESIAN_POINT('',(22.5,68.356382978723,25.));
#286 = DIRECTION('',(0.,0.,1.));
#287 = DIRECTION('',(1.,0.,0.));
#288 = ADVANCED_FACE('',(#289),#308,.T.);
#289 = FACE_BOUND('',#290,.T.);
#290 = EDGE_LOOP('',(#291,#292,#293,#302));
#291 = ORIENTED_EDGE('',*,*,#40,.T.);
#292 = ORIENTED_EDGE('',*,*,#269,.T.);
#293 = ORIENTED_EDGE('',*,*,#294,.F.);
#294 = EDGE_CURVE('',#295,#270,#297,.T.);
#295 = VERTEX_POINT('',#296);
#296 = CARTESIAN_POINT('',(38.25,3.5,29.));
#297 = CIRCLE('',#298,4.);
#298 = AXIS2_PLACEMENT_3D('',#299,#300,#301);
#299 = CARTESIAN_POINT('',(38.25,7.5,29.));
#300 = DIRECTION('',(1.,0.,-0.));
#301 = DIRECTION('',(0.,0.,1.));
#302 = ORIENTED_EDGE('',*,*,#303,.F.);
#303 = EDGE_CURVE('',#33,#295,#304,.T.);
#304 = LINE('',#305,#306);
#305 = CARTESIAN_POINT('',(6.75,3.5,29.));
#306 = VECTOR('',#307,1.);
#307 = DIRECTION('',(1.,0.,0.));
#308 = CYLINDRICAL_SURFACE('',#309,4.);
#309 = AXIS2_PLACEMENT_3D('',#310,#311,#312);
#310 = CARTESIAN_POINT('',(6.75,7.5,29.));
#311 = DIRECTION('',(1.,0.,0.));
#312 = DIRECTION('',(0.,-1.,0.));
#313 = ADVANCED_FACE('',(#314),#325,.T.);
#314 = FACE_BOUND('',#315,.T.);
#315 = EDGE_LOOP('',(#316,#317,#318,#319));
#316 = ORIENTED_EDGE('',*,*,#108,.T.);
#317 = ORIENTED_EDGE('',*,*,#32,.T.);
#318 = ORIENTED_EDGE('',*,*,#303,.T.);
#319 = ORIENTED_EDGE('',*,*,#320,.F.);
#320 = EDGE_CURVE('',#109,#295,#321,.T.);
#321 = LINE('',#322,#323);
#322 = CARTESIAN_POINT('',(38.25,3.5,35.));
#323 = VECTOR('',#324,1.);
#324 = DIRECTION('',(-0.,-0.,-1.));
#325 = PLANE('',#326);
#326 = AXIS2_PLACEMENT_3D('',#327,#328,#329);
#327 = CARTESIAN_POINT('',(22.5,3.5,30.));
#328 = DIRECTION('',(-0.,-1.,-0.));
#329 = DIRECTION('',(0.,0.,-1.));
#330 = ADVANCED_FACE('',(#331),#350,.F.);
#331 = FACE_BOUND('',#332,.F.);
#332 = EDGE_LOOP('',(#333,#342,#348,#349));
#333 = ORIENTED_EDGE('',*,*,#334,.F.);
#334 = EDGE_CURVE('',#335,#335,#337,.T.);
#335 = VERTEX_POINT('',#336);
#336 = CARTESIAN_POINT('',(38.25,9.49993,29.9947));
#337 = CIRCLE('',#338,1.5);
#338 = AXIS2_PLACEMENT_3D('',#339,#340,#341);
#339 = CARTESIAN_POINT('',(38.25,7.99993,29.9947));
#340 = DIRECTION('',(1.,0.,0.));
#341 = DIRECTION('',(0.,1.,0.));
#342 = ORIENTED_EDGE('',*,*,#343,.T.);
#343 = EDGE_CURVE('',#335,#91,#344,.T.);
#344 = LINE('',#345,#346);
#345 = CARTESIAN_POINT('',(38.25,9.49993,29.9947));
#346 = VECTOR('',#347,1.);
#347 = DIRECTION('',(-1.,-0.,-0.));
#348 = ORIENTED_EDGE('',*,*,#90,.T.);
#349 = ORIENTED_EDGE('',*,*,#343,.F.);
#350 = CYLINDRICAL_SURFACE('',#351,1.5);
#351 = AXIS2_PLACEMENT_3D('',#352,#353,#354);
#352 = CARTESIAN_POINT('',(38.25,7.99993,29.9947));
#353 = DIRECTION('',(1.,0.,0.));
#354 = DIRECTION('',(0.,1.,0.));
#355 = ADVANCED_FACE('',(#356,#424,#435,#446),#457,.T.);
#356 = FACE_BOUND('',#357,.T.);
#357 = EDGE_LOOP('',(#358,#368,#374,#375,#376,#384,#392,#400,#409,#417)
  );
#358 = ORIENTED_EDGE('',*,*,#359,.F.);
#359 = EDGE_CURVE('',#360,#362,#364,.T.);
#360 = VERTEX_POINT('',#361);
#361 = CARTESIAN_POINT('',(6.,14.5,35.));
#362 = VERTEX_POINT('',#363);
#363 = CARTESIAN_POINT('',(6.,125.,35.));
#364 = LINE('',#365,#366);
#365 = CARTESIAN_POINT('',(6.,13.5,35.));
#366 = VECTOR('',#367,1.);
#367 = DIRECTION('',(0.,1.,0.));
#368 = ORIENTED_EDGE('',*,*,#369,.F.);
#369 = EDGE_CURVE('',#160,#360,#370,.T.);
#370 = LINE('',#371,#372);
#371 = CARTESIAN_POINT('',(6.75,14.5,35.));
#372 = VECTOR('',#373,1.);
#373 = DIRECTION('',(-1.,0.,0.));
#374 = ORIENTED_EDGE('',*,*,#167,.F.);
#375 = ORIENTED_EDGE('',*,*,#134,.T.);
#376 = ORIENTED_EDGE('',*,*,#377,.T.);
#377 = EDGE_CURVE('',#126,#378,#380,.T.);
#378 = VERTEX_POINT('',#379);
#379 = CARTESIAN_POINT('',(37.25,14.5,35.));
#380 = LINE('',#381,#382);
#381 = CARTESIAN_POINT('',(37.25,3.5,35.));
#382 = VECTOR('',#383,1.);
#383 = DIRECTION('',(0.,1.,0.));
#384 = ORIENTED_EDGE('',*,*,#385,.F.);
#385 = EDGE_CURVE('',#386,#378,#388,.T.);
#386 = VERTEX_POINT('',#387);
#387 = CARTESIAN_POINT('',(39.,14.5,35.));
#388 = LINE('',#389,#390);
#389 = CARTESIAN_POINT('',(40.,14.5,35.));
#390 = VECTOR('',#391,1.);
#391 = DIRECTION('',(-1.,0.,0.));
#392 = ORIENTED_EDGE('',*,*,#393,.F.);
#393 = EDGE_CURVE('',#394,#386,#396,.T.);
#394 = VERTEX_POINT('',#395);
#395 = CARTESIAN_POINT('',(39.,125.,35.));
#396 = LINE('',#397,#398);
#397 = CARTESIAN_POINT('',(39.,125.,35.));
#398 = VECTOR('',#399,1.);
#399 = DIRECTION('',(0.,-1.,0.));
#400 = ORIENTED_EDGE('',*,*,#401,.F.);
#401 = EDGE_CURVE('',#402,#394,#404,.T.);
#402 = VERTEX_POINT('',#403);
#403 = CARTESIAN_POINT('',(32.,132.,35.));
#404 = CIRCLE('',#405,7.);
#405 = AXIS2_PLACEMENT_3D('',#406,#407,#408);
#406 = CARTESIAN_POINT('',(32.,125.,35.));
#407 = DIRECTION('',(0.,0.,-1.));
#408 = DIRECTION('',(0.,1.,0.));
#409 = ORIENTED_EDGE('',*,*,#410,.F.);
#410 = EDGE_CURVE('',#411,#402,#413,.T.);
#411 = VERTEX_POINT('',#412);
#412 = CARTESIAN_POINT('',(13.,132.,35.));
#413 = LINE('',#414,#415);
#414 = CARTESIAN_POINT('',(13.,132.,35.));
#415 = VECTOR('',#416,1.);
#416 = DIRECTION('',(1.,0.,0.));
#417 = ORIENTED_EDGE('',*,*,#418,.F.);
#418 = EDGE_CURVE('',#362,#411,#419,.T.);
#419 = CIRCLE('',#420,7.);
#420 = AXIS2_PLACEMENT_3D('',#421,#422,#423);
#421 = CARTESIAN_POINT('',(13.,125.,35.));
#422 = DIRECTION('',(0.,0.,-1.));
#423 = DIRECTION('',(-1.,0.,0.));
#424 = FACE_BOUND('',#425,.T.);
#425 = EDGE_LOOP('',(#426));
#426 = ORIENTED_EDGE('',*,*,#427,.F.);
#427 = EDGE_CURVE('',#428,#428,#430,.T.);
#428 = VERTEX_POINT('',#429);
#429 = CARTESIAN_POINT('',(18.,103.,35.));
#430 = CIRCLE('',#431,3.);
#431 = AXIS2_PLACEMENT_3D('',#432,#433,#434);
#432 = CARTESIAN_POINT('',(15.,103.,35.));
#433 = DIRECTION('',(0.,0.,1.));
#434 = DIRECTION('',(1.,0.,0.));
#435 = FACE_BOUND('',#436,.T.);
#436 = EDGE_LOOP('',(#437));
#437 = ORIENTED_EDGE('',*,*,#438,.F.);
#438 = EDGE_CURVE('',#439,#439,#441,.T.);
#439 = VERTEX_POINT('',#440);
#440 = CARTESIAN_POINT('',(33.,103.,35.));
#441 = CIRCLE('',#442,3.);
#442 = AXIS2_PLACEMENT_3D('',#443,#444,#445);
#443 = CARTESIAN_POINT('',(30.,103.,35.));
#444 = DIRECTION('',(0.,0.,1.));
#445 = DIRECTION('',(1.,0.,0.));
#446 = FACE_BOUND('',#447,.T.);
#447 = EDGE_LOOP('',(#448));
#448 = ORIENTED_EDGE('',*,*,#449,.F.);
#449 = EDGE_CURVE('',#450,#450,#452,.T.);
#450 = VERTEX_POINT('',#451);
#451 = CARTESIAN_POINT('',(25.,128.,35.));
#452 = CIRCLE('',#453,2.5);
#453 = AXIS2_PLACEMENT_3D('',#454,#455,#456);
#454 = CARTESIAN_POINT('',(22.5,128.,35.));
#455 = DIRECTION('',(0.,0.,1.));
#456 = DIRECTION('',(1.,0.,0.));
#457 = PLANE('',#458);
#458 = AXIS2_PLACEMENT_3D('',#459,#460,#461);
#459 = CARTESIAN_POINT('',(22.5,68.356382978723,35.));
#460 = DIRECTION('',(0.,0.,1.));
#461 = DIRECTION('',(1.,0.,0.));
#462 = ADVANCED_FACE('',(#463),#481,.T.);
#463 = FACE_BOUND('',#464,.F.);
#464 = EDGE_LOOP('',(#465,#473,#474,#475));
#465 = ORIENTED_EDGE('',*,*,#466,.F.);
#466 = EDGE_CURVE('',#117,#467,#469,.T.);
#467 = VERTEX_POINT('',#468);
#468 = CARTESIAN_POINT('',(38.25,13.5,34.));
#469 = LINE('',#470,#471);
#470 = CARTESIAN_POINT('',(38.25,3.5,34.));
#471 = VECTOR('',#472,1.);
#472 = DIRECTION('',(0.,1.,0.));
#473 = ORIENTED_EDGE('',*,*,#125,.F.);
#474 = ORIENTED_EDGE('',*,*,#377,.T.);
#475 = ORIENTED_EDGE('',*,*,#476,.T.);
#476 = EDGE_CURVE('',#378,#467,#477,.T.);
#477 = LINE('',#478,#479);
#478 = CARTESIAN_POINT('',(39.875,11.875,32.375));
#479 = VECTOR('',#480,1.);
#480 = DIRECTION('',(0.57735026919,-0.57735026919,-0.57735026919));
#481 = PLANE('',#482);
#482 = AXIS2_PLACEMENT_3D('',#483,#484,#485);
#483 = CARTESIAN_POINT('',(37.75,3.5,34.5));
#484 = DIRECTION('',(0.707106781187,1.E-17,0.707106781187));
#485 = DIRECTION('',(7.071067811865E-18,-1.,7.071067811865E-18));
#486 = ADVANCED_FACE('',(#487,#502),#505,.T.);
#487 = FACE_BOUND('',#488,.T.);
#488 = EDGE_LOOP('',(#489,#490,#491,#492,#493,#494,#495,#501));
#489 = ORIENTED_EDGE('',*,*,#116,.F.);
#490 = ORIENTED_EDGE('',*,*,#320,.T.);
#491 = ORIENTED_EDGE('',*,*,#294,.T.);
#492 = ORIENTED_EDGE('',*,*,#277,.T.);
#493 = ORIENTED_EDGE('',*,*,#243,.T.);
#494 = ORIENTED_EDGE('',*,*,#212,.F.);
#495 = ORIENTED_EDGE('',*,*,#496,.F.);
#496 = EDGE_CURVE('',#467,#213,#497,.T.);
#497 = LINE('',#498,#499);
#498 = CARTESIAN_POINT('',(38.25,13.5,35.));
#499 = VECTOR('',#500,1.);
#500 = DIRECTION('',(-0.,-0.,-1.));
#501 = ORIENTED_EDGE('',*,*,#466,.F.);
#502 = FACE_BOUND('',#503,.T.);
#503 = EDGE_LOOP('',(#504));
#504 = ORIENTED_EDGE('',*,*,#334,.F.);
#505 = PLANE('',#506);
#506 = AXIS2_PLACEMENT_3D('',#507,#508,#509);
#507 = CARTESIAN_POINT('',(38.25,3.5,35.));
#508 = DIRECTION('',(1.,0.,0.));
#509 = DIRECTION('',(0.,1.,0.));
#510 = ADVANCED_FACE('',(#511),#522,.F.);
#511 = FACE_BOUND('',#512,.T.);
#512 = EDGE_LOOP('',(#513,#514,#515,#521));
#513 = ORIENTED_EDGE('',*,*,#159,.F.);
#514 = ORIENTED_EDGE('',*,*,#369,.T.);
#515 = ORIENTED_EDGE('',*,*,#516,.T.);
#516 = EDGE_CURVE('',#360,#182,#517,.T.);
#517 = LINE('',#518,#519);
#518 = CARTESIAN_POINT('',(5.625,14.125,34.625));
#519 = VECTOR('',#520,1.);
#520 = DIRECTION('',(-0.57735026919,-0.57735026919,-0.57735026919));
#521 = ORIENTED_EDGE('',*,*,#191,.F.);
#522 = PLANE('',#523);
#523 = AXIS2_PLACEMENT_3D('',#524,#525,#526);
#524 = CARTESIAN_POINT('',(6.75,14.,34.5));
#525 = DIRECTION('',(-1.E-17,0.707106781187,-0.707106781187));
#526 = DIRECTION('',(1.,7.071067811865E-18,-7.071067811865E-18));
#527 = ADVANCED_FACE('',(#528),#553,.F.);
#528 = FACE_BOUND('',#529,.F.);
#529 = EDGE_LOOP('',(#530,#540,#546,#547));
#530 = ORIENTED_EDGE('',*,*,#531,.F.);
#531 = EDGE_CURVE('',#532,#534,#536,.T.);
#532 = VERTEX_POINT('',#533);
#533 = CARTESIAN_POINT('',(5.,125.,34.));
#534 = VERTEX_POINT('',#535);
#535 = CARTESIAN_POINT('',(5.,125.,32.));
#536 = LINE('',#537,#538);
#537 = CARTESIAN_POINT('',(5.,125.,35.));
#538 = VECTOR('',#539,1.);
#539 = DIRECTION('',(-0.,-0.,-1.));
#540 = ORIENTED_EDGE('',*,*,#541,.F.);
#541 = EDGE_CURVE('',#182,#532,#542,.T.);
#542 = LINE('',#543,#544);
#543 = CARTESIAN_POINT('',(5.,13.5,34.));
#544 = VECTOR('',#545,1.);
#545 = DIRECTION('',(0.,1.,0.));
#546 = ORIENTED_EDGE('',*,*,#181,.T.);
#547 = ORIENTED_EDGE('',*,*,#548,.F.);
#548 = EDGE_CURVE('',#534,#184,#549,.T.);
#549 = LINE('',#550,#551);
#550 = CARTESIAN_POINT('',(5.,73.25,32.));
#551 = VECTOR('',#552,1.);
#552 = DIRECTION('',(0.,-1.,0.));
#553 = PLANE('',#554);
#554 = AXIS2_PLACEMENT_3D('',#555,#556,#557);
#555 = CARTESIAN_POINT('',(5.,13.5,35.));
#556 = DIRECTION('',(1.,0.,0.));
#557 = DIRECTION('',(0.,1.,0.));
#558 = ADVANCED_FACE('',(#559,#604),#656,.F.);
#559 = FACE_BOUND('',#560,.F.);
#560 = EDGE_LOOP('',(#561,#571,#580,#588,#595,#596,#597,#598));
#561 = ORIENTED_EDGE('',*,*,#562,.F.);
#562 = EDGE_CURVE('',#563,#565,#567,.T.);
#563 = VERTEX_POINT('',#564);
#564 = CARTESIAN_POINT('',(40.,125.,32.));
#565 = VERTEX_POINT('',#566);
#566 = CARTESIAN_POINT('',(40.,13.5,32.));
#567 = LINE('',#568,#569);
#568 = CARTESIAN_POINT('',(40.,133.,32.));
#569 = VECTOR('',#570,1.);
#570 = DIRECTION('',(0.,-1.,0.));
#571 = ORIENTED_EDGE('',*,*,#572,.F.);
#572 = EDGE_CURVE('',#573,#563,#575,.T.);
#573 = VERTEX_POINT('',#574);
#574 = CARTESIAN_POINT('',(32.,133.,32.));
#575 = CIRCLE('',#576,8.);
#576 = AXIS2_PLACEMENT_3D('',#577,#578,#579);
#577 = CARTESIAN_POINT('',(32.,125.,32.));
#578 = DIRECTION('',(0.,0.,-1.));
#579 = DIRECTION('',(0.,1.,0.));
#580 = ORIENTED_EDGE('',*,*,#581,.T.);
#581 = EDGE_CURVE('',#573,#582,#584,.T.);
#582 = VERTEX_POINT('',#583);
#583 = CARTESIAN_POINT('',(13.,133.,32.));
#584 = LINE('',#585,#586);
#585 = CARTESIAN_POINT('',(40.,133.,32.));
#586 = VECTOR('',#587,1.);
#587 = DIRECTION('',(-1.,-0.,-0.));
#588 = ORIENTED_EDGE('',*,*,#589,.F.);
#589 = EDGE_CURVE('',#534,#582,#590,.T.);
#590 = CIRCLE('',#591,8.);
#591 = AXIS2_PLACEMENT_3D('',#592,#593,#594);
#592 = CARTESIAN_POINT('',(13.,125.,32.));
#593 = DIRECTION('',(0.,0.,-1.));
#594 = DIRECTION('',(0.,1.,0.));
#595 = ORIENTED_EDGE('',*,*,#548,.T.);
#596 = ORIENTED_EDGE('',*,*,#198,.F.);
#597 = ORIENTED_EDGE('',*,*,#222,.F.);
#598 = ORIENTED_EDGE('',*,*,#599,.F.);
#599 = EDGE_CURVE('',#565,#213,#600,.T.);
#600 = LINE('',#601,#602);
#601 = CARTESIAN_POINT('',(40.,13.5,32.));
#602 = VECTOR('',#603,1.);
#603 = DIRECTION('',(-1.,-0.,-0.));
#604 = FACE_BOUND('',#605,.F.);
#605 = EDGE_LOOP('',(#606,#616,#625,#633,#642,#650));
#606 = ORIENTED_EDGE('',*,*,#607,.F.);
#607 = EDGE_CURVE('',#608,#610,#612,.T.);
#608 = VERTEX_POINT('',#609);
#609 = CARTESIAN_POINT('',(5.5,125.,32.));
#610 = VERTEX_POINT('',#611);
#611 = CARTESIAN_POINT('',(5.5,16.5,32.));
#612 = LINE('',#613,#614);
#613 = CARTESIAN_POINT('',(5.5,125.,32.));
#614 = VECTOR('',#615,1.);
#615 = DIRECTION('',(0.,-1.,0.));
#616 = ORIENTED_EDGE('',*,*,#617,.T.);
#617 = EDGE_CURVE('',#608,#618,#620,.T.);
#618 = VERTEX_POINT('',#619);
#619 = CARTESIAN_POINT('',(10.5,130.,32.));
#620 = CIRCLE('',#621,5.);
#621 = AXIS2_PLACEMENT_3D('',#622,#623,#624);
#622 = CARTESIAN_POINT('',(10.5,125.,32.));
#623 = DIRECTION('',(0.,0.,-1.));
#624 = DIRECTION('',(1.1E-16,1.,0.));
#625 = ORIENTED_EDGE('',*,*,#626,.F.);
#626 = EDGE_CURVE('',#627,#618,#629,.T.);
#627 = VERTEX_POINT('',#628);
#628 = CARTESIAN_POINT('',(34.5,130.,32.));
#629 = LINE('',#630,#631);
#630 = CARTESIAN_POINT('',(34.5,130.,32.));
#631 = VECTOR('',#632,1.);
#632 = DIRECTION('',(-1.,0.,0.));
#633 = ORIENTED_EDGE('',*,*,#634,.T.);
#634 = EDGE_CURVE('',#627,#635,#637,.T.);
#635 = VERTEX_POINT('',#636);
#636 = CARTESIAN_POINT('',(39.5,125.,32.));
#637 = CIRCLE('',#638,5.);
#638 = AXIS2_PLACEMENT_3D('',#639,#640,#641);
#639 = CARTESIAN_POINT('',(34.5,125.,32.));
#640 = DIRECTION('',(0.,0.,-1.));
#641 = DIRECTION('',(1.1E-16,1.,0.));
#642 = ORIENTED_EDGE('',*,*,#643,.T.);
#643 = EDGE_CURVE('',#635,#644,#646,.T.);
#644 = VERTEX_POINT('',#645);
#645 = CARTESIAN_POINT('',(39.5,16.5,32.));
#646 = LINE('',#647,#648);
#647 = CARTESIAN_POINT('',(39.5,125.,32.));
#648 = VECTOR('',#649,1.);
#649 = DIRECTION('',(0.,-1.,0.));
#650 = ORIENTED_EDGE('',*,*,#651,.T.);
#651 = EDGE_CURVE('',#644,#610,#652,.T.);
#652 = LINE('',#653,#654);
#653 = CARTESIAN_POINT('',(39.5,16.5,32.));
#654 = VECTOR('',#655,1.);
#655 = DIRECTION('',(-1.,0.,0.));
#656 = PLANE('',#657);
#657 = AXIS2_PLACEMENT_3D('',#658,#659,#660);
#658 = CARTESIAN_POINT('',(40.,133.,32.));
#659 = DIRECTION('',(0.,0.,1.));
#660 = DIRECTION('',(0.,-1.,0.));
#661 = ADVANCED_FACE('',(#662),#673,.F.);
#662 = FACE_BOUND('',#663,.T.);
#663 = EDGE_LOOP('',(#664,#665,#666,#672));
#664 = ORIENTED_EDGE('',*,*,#516,.F.);
#665 = ORIENTED_EDGE('',*,*,#359,.T.);
#666 = ORIENTED_EDGE('',*,*,#667,.T.);
#667 = EDGE_CURVE('',#362,#532,#668,.T.);
#668 = LINE('',#669,#670);
#669 = CARTESIAN_POINT('',(5.5,125.,34.5));
#670 = VECTOR('',#671,1.);
#671 = DIRECTION('',(-0.707106781187,-0.,-0.707106781187));
#672 = ORIENTED_EDGE('',*,*,#541,.F.);
#673 = PLANE('',#674);
#674 = AXIS2_PLACEMENT_3D('',#675,#676,#677);
#675 = CARTESIAN_POINT('',(5.5,13.5,34.5));
#676 = DIRECTION('',(0.707106781187,-1.E-17,-0.707106781187));
#677 = DIRECTION('',(-7.071067811865E-18,-1.,7.071067811865E-18));
#678 = ADVANCED_FACE('',(#679),#698,.T.);
#679 = FACE_BOUND('',#680,.T.);
#680 = EDGE_LOOP('',(#681,#682,#683,#691));
#681 = ORIENTED_EDGE('',*,*,#667,.F.);
#682 = ORIENTED_EDGE('',*,*,#418,.T.);
#683 = ORIENTED_EDGE('',*,*,#684,.T.);
#684 = EDGE_CURVE('',#411,#685,#687,.T.);
#685 = VERTEX_POINT('',#686);
#686 = CARTESIAN_POINT('',(13.,133.,34.));
#687 = LINE('',#688,#689);
#688 = CARTESIAN_POINT('',(13.,133.,34.));
#689 = VECTOR('',#690,1.);
#690 = DIRECTION('',(-4.E-17,0.707106781187,-0.707106781187));
#691 = ORIENTED_EDGE('',*,*,#692,.F.);
#692 = EDGE_CURVE('',#532,#685,#693,.T.);
#693 = CIRCLE('',#694,8.);
#694 = AXIS2_PLACEMENT_3D('',#695,#696,#697);
#695 = CARTESIAN_POINT('',(13.,125.,34.));
#696 = DIRECTION('',(0.,0.,-1.));
#697 = DIRECTION('',(-1.,0.,0.));
#698 = CONICAL_SURFACE('',#699,8.,0.785398163397);
#699 = AXIS2_PLACEMENT_3D('',#700,#701,#702);
#700 = CARTESIAN_POINT('',(13.,125.,34.));
#701 = DIRECTION('',(-0.,-0.,-1.));
#702 = DIRECTION('',(-1.,0.,0.));
#703 = ADVANCED_FACE('',(#704),#722,.T.);
#704 = FACE_BOUND('',#705,.T.);
#705 = EDGE_LOOP('',(#706,#707,#708,#716));
#706 = ORIENTED_EDGE('',*,*,#684,.F.);
#707 = ORIENTED_EDGE('',*,*,#410,.T.);
#708 = ORIENTED_EDGE('',*,*,#709,.T.);
#709 = EDGE_CURVE('',#402,#710,#712,.T.);
#710 = VERTEX_POINT('',#711);
#711 = CARTESIAN_POINT('',(32.,133.,34.));
#712 = LINE('',#713,#714);
#713 = CARTESIAN_POINT('',(32.,132.5,34.5));
#714 = VECTOR('',#715,1.);
#715 = DIRECTION('',(0.,0.707106781187,-0.707106781187));
#716 = ORIENTED_EDGE('',*,*,#717,.F.);
#717 = EDGE_CURVE('',#685,#710,#718,.T.);
#718 = LINE('',#719,#720);
#719 = CARTESIAN_POINT('',(13.,133.,34.));
#720 = VECTOR('',#721,1.);
#721 = DIRECTION('',(1.,0.,0.));
#722 = PLANE('',#723);
#723 = AXIS2_PLACEMENT_3D('',#724,#725,#726);
#724 = CARTESIAN_POINT('',(13.,132.5,34.5));
#725 = DIRECTION('',(1.E-17,0.707106781187,0.707106781187));
#726 = DIRECTION('',(1.,-7.071067811865E-18,-7.071067811865E-18));
#727 = ADVANCED_FACE('',(#728),#747,.T.);
#728 = FACE_BOUND('',#729,.T.);
#729 = EDGE_LOOP('',(#730,#731,#732,#740));
#730 = ORIENTED_EDGE('',*,*,#709,.F.);
#731 = ORIENTED_EDGE('',*,*,#401,.T.);
#732 = ORIENTED_EDGE('',*,*,#733,.T.);
#733 = EDGE_CURVE('',#394,#734,#736,.T.);
#734 = VERTEX_POINT('',#735);
#735 = CARTESIAN_POINT('',(40.,125.,34.));
#736 = LINE('',#737,#738);
#737 = CARTESIAN_POINT('',(40.,125.,34.));
#738 = VECTOR('',#739,1.);
#739 = DIRECTION('',(0.707106781187,4.E-17,-0.707106781187));
#740 = ORIENTED_EDGE('',*,*,#741,.F.);
#741 = EDGE_CURVE('',#710,#734,#742,.T.);
#742 = CIRCLE('',#743,8.);
#743 = AXIS2_PLACEMENT_3D('',#744,#745,#746);
#744 = CARTESIAN_POINT('',(32.,125.,34.));
#745 = DIRECTION('',(0.,0.,-1.));
#746 = DIRECTION('',(0.,1.,0.));
#747 = CONICAL_SURFACE('',#748,8.,0.785398163397);
#748 = AXIS2_PLACEMENT_3D('',#749,#750,#751);
#749 = CARTESIAN_POINT('',(32.,125.,34.));
#750 = DIRECTION('',(-0.,-0.,-1.));
#751 = DIRECTION('',(0.,1.,0.));
#752 = ADVANCED_FACE('',(#753),#771,.F.);
#753 = FACE_BOUND('',#754,.T.);
#754 = EDGE_LOOP('',(#755,#756,#757,#765));
#755 = ORIENTED_EDGE('',*,*,#733,.F.);
#756 = ORIENTED_EDGE('',*,*,#393,.T.);
#757 = ORIENTED_EDGE('',*,*,#758,.T.);
#758 = EDGE_CURVE('',#386,#759,#761,.T.);
#759 = VERTEX_POINT('',#760);
#760 = CARTESIAN_POINT('',(40.,13.5,34.));
#761 = LINE('',#762,#763);
#762 = CARTESIAN_POINT('',(21.083333333333,32.416666666667,
    52.916666666667));
#763 = VECTOR('',#764,1.);
#764 = DIRECTION('',(0.57735026919,-0.57735026919,-0.57735026919));
#765 = ORIENTED_EDGE('',*,*,#766,.F.);
#766 = EDGE_CURVE('',#734,#759,#767,.T.);
#767 = LINE('',#768,#769);
#768 = CARTESIAN_POINT('',(40.,125.,34.));
#769 = VECTOR('',#770,1.);
#770 = DIRECTION('',(0.,-1.,0.));
#771 = PLANE('',#772);
#772 = AXIS2_PLACEMENT_3D('',#773,#774,#775);
#773 = CARTESIAN_POINT('',(39.5,125.,34.5));
#774 = DIRECTION('',(-0.707106781187,1.E-17,-0.707106781187));
#775 = DIRECTION('',(7.071067811865E-18,1.,7.071067811865E-18));
#776 = ADVANCED_FACE('',(#777),#788,.F.);
#777 = FACE_BOUND('',#778,.T.);
#778 = EDGE_LOOP('',(#779,#780,#781,#782));
#779 = ORIENTED_EDGE('',*,*,#758,.F.);
#780 = ORIENTED_EDGE('',*,*,#385,.T.);
#781 = ORIENTED_EDGE('',*,*,#476,.T.);
#782 = ORIENTED_EDGE('',*,*,#783,.F.);
#783 = EDGE_CURVE('',#759,#467,#784,.T.);
#784 = LINE('',#785,#786);
#785 = CARTESIAN_POINT('',(40.,13.5,34.));
#786 = VECTOR('',#787,1.);
#787 = DIRECTION('',(-1.,0.,0.));
#788 = PLANE('',#789);
#789 = AXIS2_PLACEMENT_3D('',#790,#791,#792);
#790 = CARTESIAN_POINT('',(40.,14.,34.5));
#791 = DIRECTION('',(-1.E-17,0.707106781187,-0.707106781187));
#792 = DIRECTION('',(1.,7.071067811865E-18,-7.071067811865E-18));
#793 = ADVANCED_FACE('',(#794),#813,.F.);
#794 = FACE_BOUND('',#795,.T.);
#795 = EDGE_LOOP('',(#796,#804,#805,#806));
#796 = ORIENTED_EDGE('',*,*,#797,.F.);
#797 = EDGE_CURVE('',#428,#798,#800,.T.);
#798 = VERTEX_POINT('',#799);
#799 = CARTESIAN_POINT('',(17.,103.,34.));
#800 = LINE('',#801,#802);
#801 = CARTESIAN_POINT('',(17.,103.,34.));
#802 = VECTOR('',#803,1.);
#803 = DIRECTION('',(-0.707106781187,-0.,-0.707106781187));
#804 = ORIENTED_EDGE('',*,*,#427,.T.);
#805 = ORIENTED_EDGE('',*,*,#797,.T.);
#806 = ORIENTED_EDGE('',*,*,#807,.F.);
#807 = EDGE_CURVE('',#798,#798,#808,.T.);
#808 = CIRCLE('',#809,2.);
#809 = AXIS2_PLACEMENT_3D('',#810,#811,#812);
#810 = CARTESIAN_POINT('',(15.,103.,34.));
#811 = DIRECTION('',(0.,0.,1.));
#812 = DIRECTION('',(1.,0.,0.));
#813 = CONICAL_SURFACE('',#814,2.,0.785398163397);
#814 = AXIS2_PLACEMENT_3D('',#815,#816,#817);
#815 = CARTESIAN_POINT('',(15.,103.,34.));
#816 = DIRECTION('',(0.,0.,1.));
#817 = DIRECTION('',(1.,0.,0.));
#818 = ADVANCED_FACE('',(#819),#838,.F.);
#819 = FACE_BOUND('',#820,.T.);
#820 = EDGE_LOOP('',(#821,#829,#830,#831));
#821 = ORIENTED_EDGE('',*,*,#822,.F.);
#822 = EDGE_CURVE('',#439,#823,#825,.T.);
#823 = VERTEX_POINT('',#824);
#824 = CARTESIAN_POINT('',(32.,103.,34.));
#825 = LINE('',#826,#827);
#826 = CARTESIAN_POINT('',(32.,103.,34.));
#827 = VECTOR('',#828,1.);
#828 = DIRECTION('',(-0.707106781187,-0.,-0.707106781187));
#829 = ORIENTED_EDGE('',*,*,#438,.T.);
#830 = ORIENTED_EDGE('',*,*,#822,.T.);
#831 = ORIENTED_EDGE('',*,*,#832,.F.);
#832 = EDGE_CURVE('',#823,#823,#833,.T.);
#833 = CIRCLE('',#834,2.);
#834 = AXIS2_PLACEMENT_3D('',#835,#836,#837);
#835 = CARTESIAN_POINT('',(30.,103.,34.));
#836 = DIRECTION('',(0.,0.,1.));
#837 = DIRECTION('',(1.,0.,0.));
#838 = CONICAL_SURFACE('',#839,2.,0.785398163397);
#839 = AXIS2_PLACEMENT_3D('',#840,#841,#842);
#840 = CARTESIAN_POINT('',(30.,103.,34.));
#841 = DIRECTION('',(0.,0.,1.));
#842 = DIRECTION('',(1.,0.,0.));
#843 = ADVANCED_FACE('',(#844),#863,.F.);
#844 = FACE_BOUND('',#845,.T.);
#845 = EDGE_LOOP('',(#846,#854,#855,#856));
#846 = ORIENTED_EDGE('',*,*,#847,.F.);
#847 = EDGE_CURVE('',#450,#848,#850,.T.);
#848 = VERTEX_POINT('',#849);
#849 = CARTESIAN_POINT('',(24.,128.,34.));
#850 = LINE('',#851,#852);
#851 = CARTESIAN_POINT('',(24.,128.,34.));
#852 = VECTOR('',#853,1.);
#853 = DIRECTION('',(-0.707106781187,-0.,-0.707106781187));
#854 = ORIENTED_EDGE('',*,*,#449,.T.);
#855 = ORIENTED_EDGE('',*,*,#847,.T.);
#856 = ORIENTED_EDGE('',*,*,#857,.F.);
#857 = EDGE_CURVE('',#848,#848,#858,.T.);
#858 = CIRCLE('',#859,1.5);
#859 = AXIS2_PLACEMENT_3D('',#860,#861,#862);
#860 = CARTESIAN_POINT('',(22.5,128.,34.));
#861 = DIRECTION('',(0.,0.,1.));
#862 = DIRECTION('',(1.,0.,0.));
#863 = CONICAL_SURFACE('',#864,1.5,0.785398163397);
#864 = AXIS2_PLACEMENT_3D('',#865,#866,#867);
#865 = CARTESIAN_POINT('',(22.5,128.,34.));
#866 = DIRECTION('',(0.,0.,1.));
#867 = DIRECTION('',(1.,0.,0.));
#868 = ADVANCED_FACE('',(#869),#880,.F.);
#869 = FACE_BOUND('',#870,.F.);
#870 = EDGE_LOOP('',(#871,#872,#873,#879));
#871 = ORIENTED_EDGE('',*,*,#496,.F.);
#872 = ORIENTED_EDGE('',*,*,#783,.F.);
#873 = ORIENTED_EDGE('',*,*,#874,.T.);
#874 = EDGE_CURVE('',#759,#565,#875,.T.);
#875 = LINE('',#876,#877);
#876 = CARTESIAN_POINT('',(40.,13.5,35.));
#877 = VECTOR('',#878,1.);
#878 = DIRECTION('',(-0.,-0.,-1.));
#879 = ORIENTED_EDGE('',*,*,#599,.T.);
#880 = PLANE('',#881);
#881 = AXIS2_PLACEMENT_3D('',#882,#883,#884);
#882 = CARTESIAN_POINT('',(40.,13.5,35.));
#883 = DIRECTION('',(0.,1.,0.));
#884 = DIRECTION('',(-1.,0.,0.));
#885 = ADVANCED_FACE('',(#886),#897,.T.);
#886 = FACE_BOUND('',#887,.T.);
#887 = EDGE_LOOP('',(#888,#889,#890,#896));
#888 = ORIENTED_EDGE('',*,*,#531,.F.);
#889 = ORIENTED_EDGE('',*,*,#692,.T.);
#890 = ORIENTED_EDGE('',*,*,#891,.T.);
#891 = EDGE_CURVE('',#685,#582,#892,.T.);
#892 = LINE('',#893,#894);
#893 = CARTESIAN_POINT('',(13.,133.,35.));
#894 = VECTOR('',#895,1.);
#895 = DIRECTION('',(-0.,-0.,-1.));
#896 = ORIENTED_EDGE('',*,*,#589,.F.);
#897 = CYLINDRICAL_SURFACE('',#898,8.);
#898 = AXIS2_PLACEMENT_3D('',#899,#900,#901);
#899 = CARTESIAN_POINT('',(13.,125.,35.));
#900 = DIRECTION('',(-0.,-0.,-1.));
#901 = DIRECTION('',(-1.,0.,0.));
#902 = ADVANCED_FACE('',(#903),#914,.F.);
#903 = FACE_BOUND('',#904,.F.);
#904 = EDGE_LOOP('',(#905,#911,#912,#913));
#905 = ORIENTED_EDGE('',*,*,#906,.T.);
#906 = EDGE_CURVE('',#734,#563,#907,.T.);
#907 = LINE('',#908,#909);
#908 = CARTESIAN_POINT('',(40.,125.,35.));
#909 = VECTOR('',#910,1.);
#910 = DIRECTION('',(-0.,-0.,-1.));
#911 = ORIENTED_EDGE('',*,*,#562,.T.);
#912 = ORIENTED_EDGE('',*,*,#874,.F.);
#913 = ORIENTED_EDGE('',*,*,#766,.F.);
#914 = PLANE('',#915);
#915 = AXIS2_PLACEMENT_3D('',#916,#917,#918);
#916 = CARTESIAN_POINT('',(40.,133.,35.));
#917 = DIRECTION('',(-1.,0.,0.));
#918 = DIRECTION('',(0.,-1.,0.));
#919 = ADVANCED_FACE('',(#920),#931,.T.);
#920 = FACE_BOUND('',#921,.T.);
#921 = EDGE_LOOP('',(#922,#928,#929,#930));
#922 = ORIENTED_EDGE('',*,*,#923,.F.);
#923 = EDGE_CURVE('',#710,#573,#924,.T.);
#924 = LINE('',#925,#926);
#925 = CARTESIAN_POINT('',(32.,133.,35.));
#926 = VECTOR('',#927,1.);
#927 = DIRECTION('',(-0.,-0.,-1.));
#928 = ORIENTED_EDGE('',*,*,#741,.T.);
#929 = ORIENTED_EDGE('',*,*,#906,.T.);
#930 = ORIENTED_EDGE('',*,*,#572,.F.);
#931 = CYLINDRICAL_SURFACE('',#932,8.);
#932 = AXIS2_PLACEMENT_3D('',#933,#934,#935);
#933 = CARTESIAN_POINT('',(32.,125.,35.));
#934 = DIRECTION('',(-0.,-0.,-1.));
#935 = DIRECTION('',(0.,1.,0.));
#936 = ADVANCED_FACE('',(#937),#943,.T.);
#937 = FACE_BOUND('',#938,.T.);
#938 = EDGE_LOOP('',(#939,#940,#941,#942));
#939 = ORIENTED_EDGE('',*,*,#923,.T.);
#940 = ORIENTED_EDGE('',*,*,#581,.T.);
#941 = ORIENTED_EDGE('',*,*,#891,.F.);
#942 = ORIENTED_EDGE('',*,*,#717,.T.);
#943 = PLANE('',#944);
#944 = AXIS2_PLACEMENT_3D('',#945,#946,#947);
#945 = CARTESIAN_POINT('',(22.5,133.,30.));
#946 = DIRECTION('',(0.,1.,0.));
#947 = DIRECTION('',(0.,0.,1.));
#948 = ADVANCED_FACE('',(#949),#974,.T.);
#949 = FACE_BOUND('',#950,.T.);
#950 = EDGE_LOOP('',(#951,#959,#967,#973));
#951 = ORIENTED_EDGE('',*,*,#952,.T.);
#952 = EDGE_CURVE('',#608,#953,#955,.T.);
#953 = VERTEX_POINT('',#954);
#954 = CARTESIAN_POINT('',(5.5,125.,33.));
#955 = LINE('',#956,#957);
#956 = CARTESIAN_POINT('',(5.5,125.,32.));
#957 = VECTOR('',#958,1.);
#958 = DIRECTION('',(0.,0.,1.));
#959 = ORIENTED_EDGE('',*,*,#960,.T.);
#960 = EDGE_CURVE('',#953,#961,#963,.T.);
#961 = VERTEX_POINT('',#962);
#962 = CARTESIAN_POINT('',(5.5,16.5,33.));
#963 = LINE('',#964,#965);
#964 = CARTESIAN_POINT('',(5.5,125.,33.));
#965 = VECTOR('',#966,1.);
#966 = DIRECTION('',(0.,-1.,0.));
#967 = ORIENTED_EDGE('',*,*,#968,.F.);
#968 = EDGE_CURVE('',#610,#961,#969,.T.);
#969 = LINE('',#970,#971);
#970 = CARTESIAN_POINT('',(5.5,16.5,32.));
#971 = VECTOR('',#972,1.);
#972 = DIRECTION('',(0.,0.,1.));
#973 = ORIENTED_EDGE('',*,*,#607,.F.);
#974 = PLANE('',#975);
#975 = AXIS2_PLACEMENT_3D('',#976,#977,#978);
#976 = CARTESIAN_POINT('',(5.5,125.,32.));
#977 = DIRECTION('',(1.,0.,0.));
#978 = DIRECTION('',(0.,-1.,0.));
#979 = ADVANCED_FACE('',(#980),#998,.F.);
#980 = FACE_BOUND('',#981,.F.);
#981 = EDGE_LOOP('',(#982,#990,#996,#997));
#982 = ORIENTED_EDGE('',*,*,#983,.T.);
#983 = EDGE_CURVE('',#644,#984,#986,.T.);
#984 = VERTEX_POINT('',#985);
#985 = CARTESIAN_POINT('',(39.5,16.5,33.));
#986 = LINE('',#987,#988);
#987 = CARTESIAN_POINT('',(39.5,16.5,32.));
#988 = VECTOR('',#989,1.);
#989 = DIRECTION('',(0.,0.,1.));
#990 = ORIENTED_EDGE('',*,*,#991,.T.);
#991 = EDGE_CURVE('',#984,#961,#992,.T.);
#992 = LINE('',#993,#994);
#993 = CARTESIAN_POINT('',(6.75,16.5,33.));
#994 = VECTOR('',#995,1.);
#995 = DIRECTION('',(-1.,0.,0.));
#996 = ORIENTED_EDGE('',*,*,#968,.F.);
#997 = ORIENTED_EDGE('',*,*,#651,.F.);
#998 = PLANE('',#999);
#999 = AXIS2_PLACEMENT_3D('',#1000,#1001,#1002);
#1000 = CARTESIAN_POINT('',(22.5,16.5,32.5));
#1001 = DIRECTION('',(-0.,-1.,-0.));
#1002 = DIRECTION('',(0.,0.,-1.));
#1003 = ADVANCED_FACE('',(#1004),#1022,.F.);
#1004 = FACE_BOUND('',#1005,.F.);
#1005 = EDGE_LOOP('',(#1006,#1014,#1020,#1021));
#1006 = ORIENTED_EDGE('',*,*,#1007,.T.);
#1007 = EDGE_CURVE('',#635,#1008,#1010,.T.);
#1008 = VERTEX_POINT('',#1009);
#1009 = CARTESIAN_POINT('',(39.5,125.,33.));
#1010 = LINE('',#1011,#1012);
#1011 = CARTESIAN_POINT('',(39.5,125.,32.));
#1012 = VECTOR('',#1013,1.);
#1013 = DIRECTION('',(0.,0.,1.));
#1014 = ORIENTED_EDGE('',*,*,#1015,.T.);
#1015 = EDGE_CURVE('',#1008,#984,#1016,.T.);
#1016 = LINE('',#1017,#1018);
#1017 = CARTESIAN_POINT('',(39.5,125.,33.));
#1018 = VECTOR('',#1019,1.);
#1019 = DIRECTION('',(0.,-1.,0.));
#1020 = ORIENTED_EDGE('',*,*,#983,.F.);
#1021 = ORIENTED_EDGE('',*,*,#643,.F.);
#1022 = PLANE('',#1023);
#1023 = AXIS2_PLACEMENT_3D('',#1024,#1025,#1026);
#1024 = CARTESIAN_POINT('',(39.5,125.,32.));
#1025 = DIRECTION('',(1.,0.,0.));
#1026 = DIRECTION('',(0.,-1.,0.));
#1027 = ADVANCED_FACE('',(#1028),#1047,.F.);
#1028 = FACE_BOUND('',#1029,.F.);
#1029 = EDGE_LOOP('',(#1030,#1038,#1045,#1046));
#1030 = ORIENTED_EDGE('',*,*,#1031,.T.);
#1031 = EDGE_CURVE('',#627,#1032,#1034,.T.);
#1032 = VERTEX_POINT('',#1033);
#1033 = CARTESIAN_POINT('',(34.5,130.,33.));
#1034 = LINE('',#1035,#1036);
#1035 = CARTESIAN_POINT('',(34.5,130.,32.));
#1036 = VECTOR('',#1037,1.);
#1037 = DIRECTION('',(0.,0.,1.));
#1038 = ORIENTED_EDGE('',*,*,#1039,.T.);
#1039 = EDGE_CURVE('',#1032,#1008,#1040,.T.);
#1040 = CIRCLE('',#1041,5.);
#1041 = AXIS2_PLACEMENT_3D('',#1042,#1043,#1044);
#1042 = CARTESIAN_POINT('',(34.5,125.,33.));
#1043 = DIRECTION('',(0.,0.,-1.));
#1044 = DIRECTION('',(1.1E-16,1.,0.));
#1045 = ORIENTED_EDGE('',*,*,#1007,.F.);
#1046 = ORIENTED_EDGE('',*,*,#634,.F.);
#1047 = CYLINDRICAL_SURFACE('',#1048,5.);
#1048 = AXIS2_PLACEMENT_3D('',#1049,#1050,#1051);
#1049 = CARTESIAN_POINT('',(34.5,125.,32.));
#1050 = DIRECTION('',(0.,0.,-1.));
#1051 = DIRECTION('',(1.1E-16,1.,0.));
#1052 = ADVANCED_FACE('',(#1053),#1071,.T.);
#1053 = FACE_BOUND('',#1054,.T.);
#1054 = EDGE_LOOP('',(#1055,#1056,#1064,#1070));
#1055 = ORIENTED_EDGE('',*,*,#1031,.T.);
#1056 = ORIENTED_EDGE('',*,*,#1057,.T.);
#1057 = EDGE_CURVE('',#1032,#1058,#1060,.T.);
#1058 = VERTEX_POINT('',#1059);
#1059 = CARTESIAN_POINT('',(10.5,130.,33.));
#1060 = LINE('',#1061,#1062);
#1061 = CARTESIAN_POINT('',(34.5,130.,33.));
#1062 = VECTOR('',#1063,1.);
#1063 = DIRECTION('',(-1.,0.,0.));
#1064 = ORIENTED_EDGE('',*,*,#1065,.F.);
#1065 = EDGE_CURVE('',#618,#1058,#1066,.T.);
#1066 = LINE('',#1067,#1068);
#1067 = CARTESIAN_POINT('',(10.5,130.,32.));
#1068 = VECTOR('',#1069,1.);
#1069 = DIRECTION('',(0.,0.,1.));
#1070 = ORIENTED_EDGE('',*,*,#626,.F.);
#1071 = PLANE('',#1072);
#1072 = AXIS2_PLACEMENT_3D('',#1073,#1074,#1075);
#1073 = CARTESIAN_POINT('',(34.5,130.,32.));
#1074 = DIRECTION('',(0.,-1.,0.));
#1075 = DIRECTION('',(-1.,0.,0.));
#1076 = ADVANCED_FACE('',(#1077),#1089,.F.);
#1077 = FACE_BOUND('',#1078,.F.);
#1078 = EDGE_LOOP('',(#1079,#1080,#1087,#1088));
#1079 = ORIENTED_EDGE('',*,*,#952,.T.);
#1080 = ORIENTED_EDGE('',*,*,#1081,.T.);
#1081 = EDGE_CURVE('',#953,#1058,#1082,.T.);
#1082 = CIRCLE('',#1083,5.);
#1083 = AXIS2_PLACEMENT_3D('',#1084,#1085,#1086);
#1084 = CARTESIAN_POINT('',(10.5,125.,33.));
#1085 = DIRECTION('',(0.,0.,-1.));
#1086 = DIRECTION('',(1.1E-16,1.,0.));
#1087 = ORIENTED_EDGE('',*,*,#1065,.F.);
#1088 = ORIENTED_EDGE('',*,*,#617,.F.);
#1089 = CYLINDRICAL_SURFACE('',#1090,5.);
#1090 = AXIS2_PLACEMENT_3D('',#1091,#1092,#1093);
#1091 = CARTESIAN_POINT('',(10.5,125.,32.));
#1092 = DIRECTION('',(0.,0.,-1.));
#1093 = DIRECTION('',(1.1E-16,1.,0.));
#1094 = ADVANCED_FACE('',(#1095),#1114,.F.);
#1095 = FACE_BOUND('',#1096,.F.);
#1096 = EDGE_LOOP('',(#1097,#1105,#1106,#1107));
#1097 = ORIENTED_EDGE('',*,*,#1098,.F.);
#1098 = EDGE_CURVE('',#798,#1099,#1101,.T.);
#1099 = VERTEX_POINT('',#1100);
#1100 = CARTESIAN_POINT('',(17.,103.,33.));
#1101 = LINE('',#1102,#1103);
#1102 = CARTESIAN_POINT('',(17.,103.,35.));
#1103 = VECTOR('',#1104,1.);
#1104 = DIRECTION('',(-0.,-0.,-1.));
#1105 = ORIENTED_EDGE('',*,*,#807,.F.);
#1106 = ORIENTED_EDGE('',*,*,#1098,.T.);
#1107 = ORIENTED_EDGE('',*,*,#1108,.T.);
#1108 = EDGE_CURVE('',#1099,#1099,#1109,.T.);
#1109 = CIRCLE('',#1110,2.);
#1110 = AXIS2_PLACEMENT_3D('',#1111,#1112,#1113);
#1111 = CARTESIAN_POINT('',(15.,103.,33.));
#1112 = DIRECTION('',(0.,0.,1.));
#1113 = DIRECTION('',(1.,0.,0.));
#1114 = CYLINDRICAL_SURFACE('',#1115,2.);
#1115 = AXIS2_PLACEMENT_3D('',#1116,#1117,#1118);
#1116 = CARTESIAN_POINT('',(15.,103.,35.));
#1117 = DIRECTION('',(0.,0.,1.));
#1118 = DIRECTION('',(1.,0.,0.));
#1119 = ADVANCED_FACE('',(#1120),#1139,.F.);
#1120 = FACE_BOUND('',#1121,.F.);
#1121 = EDGE_LOOP('',(#1122,#1130,#1131,#1132));
#1122 = ORIENTED_EDGE('',*,*,#1123,.F.);
#1123 = EDGE_CURVE('',#823,#1124,#1126,.T.);
#1124 = VERTEX_POINT('',#1125);
#1125 = CARTESIAN_POINT('',(32.,103.,33.));
#1126 = LINE('',#1127,#1128);
#1127 = CARTESIAN_POINT('',(32.,103.,35.));
#1128 = VECTOR('',#1129,1.);
#1129 = DIRECTION('',(-0.,-0.,-1.));
#1130 = ORIENTED_EDGE('',*,*,#832,.F.);
#1131 = ORIENTED_EDGE('',*,*,#1123,.T.);
#1132 = ORIENTED_EDGE('',*,*,#1133,.T.);
#1133 = EDGE_CURVE('',#1124,#1124,#1134,.T.);
#1134 = CIRCLE('',#1135,2.);
#1135 = AXIS2_PLACEMENT_3D('',#1136,#1137,#1138);
#1136 = CARTESIAN_POINT('',(30.,103.,33.));
#1137 = DIRECTION('',(0.,0.,1.));
#1138 = DIRECTION('',(1.,0.,0.));
#1139 = CYLINDRICAL_SURFACE('',#1140,2.);
#1140 = AXIS2_PLACEMENT_3D('',#1141,#1142,#1143);
#1141 = CARTESIAN_POINT('',(30.,103.,35.));
#1142 = DIRECTION('',(0.,0.,1.));
#1143 = DIRECTION('',(1.,0.,0.));
#1144 = ADVANCED_FACE('',(#1145),#1164,.F.);
#1145 = FACE_BOUND('',#1146,.F.);
#1146 = EDGE_LOOP('',(#1147,#1155,#1156,#1157));
#1147 = ORIENTED_EDGE('',*,*,#1148,.F.);
#1148 = EDGE_CURVE('',#848,#1149,#1151,.T.);
#1149 = VERTEX_POINT('',#1150);
#1150 = CARTESIAN_POINT('',(24.,128.,33.));
#1151 = LINE('',#1152,#1153);
#1152 = CARTESIAN_POINT('',(24.,128.,35.));
#1153 = VECTOR('',#1154,1.);
#1154 = DIRECTION('',(-0.,-0.,-1.));
#1155 = ORIENTED_EDGE('',*,*,#857,.F.);
#1156 = ORIENTED_EDGE('',*,*,#1148,.T.);
#1157 = ORIENTED_EDGE('',*,*,#1158,.T.);
#1158 = EDGE_CURVE('',#1149,#1149,#1159,.T.);
#1159 = CIRCLE('',#1160,1.5);
#1160 = AXIS2_PLACEMENT_3D('',#1161,#1162,#1163);
#1161 = CARTESIAN_POINT('',(22.5,128.,33.));
#1162 = DIRECTION('',(0.,0.,1.));
#1163 = DIRECTION('',(1.,0.,0.));
#1164 = CYLINDRICAL_SURFACE('',#1165,1.5);
#1165 = AXIS2_PLACEMENT_3D('',#1166,#1167,#1168);
#1166 = CARTESIAN_POINT('',(22.5,128.,35.));
#1167 = DIRECTION('',(0.,0.,1.));
#1168 = DIRECTION('',(1.,0.,0.));
#1169 = ADVANCED_FACE('',(#1170,#1178,#1181,#1184),#1187,.F.);
#1170 = FACE_BOUND('',#1171,.F.);
#1171 = EDGE_LOOP('',(#1172,#1173,#1174,#1175,#1176,#1177));
#1172 = ORIENTED_EDGE('',*,*,#1015,.F.);
#1173 = ORIENTED_EDGE('',*,*,#1039,.F.);
#1174 = ORIENTED_EDGE('',*,*,#1057,.T.);
#1175 = ORIENTED_EDGE('',*,*,#1081,.F.);
#1176 = ORIENTED_EDGE('',*,*,#960,.T.);
#1177 = ORIENTED_EDGE('',*,*,#991,.F.);
#1178 = FACE_BOUND('',#1179,.F.);
#1179 = EDGE_LOOP('',(#1180));
#1180 = ORIENTED_EDGE('',*,*,#1108,.F.);
#1181 = FACE_BOUND('',#1182,.F.);
#1182 = EDGE_LOOP('',(#1183));
#1183 = ORIENTED_EDGE('',*,*,#1133,.F.);
#1184 = FACE_BOUND('',#1185,.F.);
#1185 = EDGE_LOOP('',(#1186));
#1186 = ORIENTED_EDGE('',*,*,#1158,.F.);
#1187 = PLANE('',#1188);
#1188 = AXIS2_PLACEMENT_3D('',#1189,#1190,#1191);
#1189 = CARTESIAN_POINT('',(22.5,72.361722248452,33.));
#1190 = DIRECTION('',(0.,0.,1.));
#1191 = DIRECTION('',(1.,0.,0.));
#1192 = ( GEOMETRIC_REPRESENTATION_CONTEXT(3) 
GLOBAL_UNCERTAINTY_ASSIGNED_CONTEXT((#1196)) 
GLOBAL_UNIT_ASSIGNED_CONTEXT((#1193,#1194,#1195)) REPRESENTATION_CONTEXT
('Context #1','3D Context with UNIT and UNCERTAINTY') );
#1193 = ( LENGTH_UNIT() NAMED_UNIT(*) SI_UNIT(.MILLI.,.METRE.) );
#1194 = ( NAMED_UNIT(*) PLANE_ANGLE_UNIT() SI_UNIT($,.RADIAN.) );
#1195 = ( NAMED_UNIT(*) SI_UNIT($,.STERADIAN.) SOLID_ANGLE_UNIT() );
#1196 = UNCERTAINTY_MEASURE_WITH_UNIT(LENGTH_MEASURE(5.E-06),#1193,
  'distance_accuracy_value','confusion accuracy');
#1197 = PRODUCT_RELATED_PRODUCT_CATEGORY('part',$,(#7));
#1198 = MECHANICAL_DESIGN_GEOMETRIC_PRESENTATION_REPRESENTATION('',(
    #1199),#1192);
#1199 = STYLED_ITEM('color',(#1200),#15);
#1200 = PRESENTATION_STYLE_ASSIGNMENT((#1201,#1207));
#1201 = SURFACE_STYLE_USAGE(.BOTH.,#1202);
#1202 = SURFACE_SIDE_STYLE('',(#1203));
#1203 = SURFACE_STYLE_FILL_AREA(#1204);
#1204 = FILL_AREA_STYLE('',(#1205));
#1205 = FILL_AREA_STYLE_COLOUR('',#1206);
#1206 = COLOUR_RGB('',0.678431390124,0.709803936702,0.741176476869);
#1207 = CURVE_STYLE('',#1208,POSITIVE_LENGTH_MEASURE(0.1),#1209);
#1208 = DRAUGHTING_PRE_DEFINED_CURVE_FONT('continuous');
#1209 = COLOUR_RGB('',9.803921802644E-02,9.803921802644E-02,
  9.803921802644E-02);
ENDSEC;
END-ISO-10303-21;
