ISO-10303-21;
HEADER;
FILE_DESCRIPTION(('FreeCAD Model'),'2;1');
FILE_NAME('Open CASCADE Shape Model','2026-05-07T09:57:04',(''),(''),
  'Open CASCADE STEP processor 7.8','FreeCAD','Unknown');
FILE_SCHEMA(('AUTOMOTIVE_DESIGN { 1 0 10303 214 1 1 1 1 }'));
ENDSEC;
DATA;
#1 = APPLICATION_PROTOCOL_DEFINITION('international standard',
  'automotive_design',2000,#2);
#2 = APPLICATION_CONTEXT(
  'core data for automotive mechanical design processes');
#3 = SHAPE_DEFINITION_REPRESENTATION(#4,#10);
#4 = PRODUCT_DEFINITION_SHAPE('','',#5);
#5 = PRODUCT_DEFINITION('design','',#6,#9);
#6 = PRODUCT_DEFINITION_FORMATION('','',#7);
#7 = PRODUCT('sunshade_small','sunshade_small','',(#8));
#8 = PRODUCT_CONTEXT('',#2,'mechanical');
#9 = PRODUCT_DEFINITION_CONTEXT('part definition',#2,'design');
#10 = ADVANCED_BREP_SHAPE_REPRESENTATION('',(#11,#15),#2263);
#11 = AXIS2_PLACEMENT_3D('',#12,#13,#14);
#12 = CARTESIAN_POINT('',(0.,0.,0.));
#13 = DIRECTION('',(0.,0.,1.));
#14 = DIRECTION('',(1.,0.,-0.));
#15 = MANIFOLD_SOLID_BREP('',#16);
#16 = CLOSED_SHELL('',(#17,#190,#222,#247,#272,#296,#321,#346,#370,#394,
    #419,#444,#468,#492,#516,#541,#565,#589,#606,#631,#656,#687,#712,
    #737,#761,#786,#811,#835,#859,#884,#909,#933,#957,#981,#1006,#1030,
    #1054,#1071,#1091,#1111,#1143,#1168,#1193,#1217,#1242,#1267,#1291,
    #1315,#1340,#1365,#1389,#1413,#1437,#1462,#1486,#1510,#1527,#1552,
    #1577,#1765,#1940,#1962,#1979,#1996,#2013,#2030,#2047,#2064,#2081,
    #2098,#2115,#2132,#2149,#2166,#2183,#2200,#2217,#2234,#2251));
#17 = ADVANCED_FACE('',(#18,#163,#174),#185,.T.);
#18 = FACE_BOUND('',#19,.T.);
#19 = EDGE_LOOP('',(#20,#30,#39,#47,#56,#64,#73,#81,#90,#98,#106,#114,
    #122,#130,#139,#147,#156));
#20 = ORIENTED_EDGE('',*,*,#21,.F.);
#21 = EDGE_CURVE('',#22,#24,#26,.T.);
#22 = VERTEX_POINT('',#23);
#23 = CARTESIAN_POINT('',(3.025357742104E-15,13.076685693234,
    35.373956252651));
#24 = VERTEX_POINT('',#25);
#25 = CARTESIAN_POINT('',(5.245803791354E-15,119.52333103409,
    54.470906036217));
#26 = LINE('',#27,#28);
#27 = CARTESIAN_POINT('',(0.,13.003228055301,35.360777661458));
#28 = VECTOR('',#29,1.);
#29 = DIRECTION('',(0.,0.984285446915,0.176584707693));
#30 = ORIENTED_EDGE('',*,*,#31,.T.);
#31 = EDGE_CURVE('',#22,#32,#34,.T.);
#32 = VERTEX_POINT('',#33);
#33 = CARTESIAN_POINT('',(-1.360023205166E-15,12.7,34.272059531468));
#34 = CIRCLE('',#35,1.8);
#35 = AXIS2_PLACEMENT_3D('',#36,#37,#38);
#36 = CARTESIAN_POINT('',(0.,14.5,34.272059531468));
#37 = DIRECTION('',(1.,0.,0.));
#38 = DIRECTION('',(0.,-0.766044443119,0.642787609687));
#39 = ORIENTED_EDGE('',*,*,#40,.T.);
#40 = EDGE_CURVE('',#32,#41,#43,.T.);
#41 = VERTEX_POINT('',#42);
#42 = CARTESIAN_POINT('',(-2.775557561563E-17,12.7,30.));
#43 = LINE('',#44,#45);
#44 = CARTESIAN_POINT('',(0.,12.7,34.272059531468));
#45 = VECTOR('',#46,1.);
#46 = DIRECTION('',(-0.,-0.,-1.));
#47 = ORIENTED_EDGE('',*,*,#48,.T.);
#48 = EDGE_CURVE('',#41,#49,#51,.T.);
#49 = VERTEX_POINT('',#50);
#50 = CARTESIAN_POINT('',(3.885780586188E-16,8.,25.3));
#51 = CIRCLE('',#52,4.7);
#52 = AXIS2_PLACEMENT_3D('',#53,#54,#55);
#53 = CARTESIAN_POINT('',(0.,8.,30.));
#54 = DIRECTION('',(-1.,0.,0.));
#55 = DIRECTION('',(0.,1.,0.));
#56 = ORIENTED_EDGE('',*,*,#57,.T.);
#57 = EDGE_CURVE('',#49,#58,#60,.T.);
#58 = VERTEX_POINT('',#59);
#59 = CARTESIAN_POINT('',(-2.775557561563E-17,7.,25.3));
#60 = LINE('',#61,#62);
#61 = CARTESIAN_POINT('',(0.,8.,25.3));
#62 = VECTOR('',#63,1.);
#63 = DIRECTION('',(0.,-1.,0.));
#64 = ORIENTED_EDGE('',*,*,#65,.T.);
#65 = EDGE_CURVE('',#58,#66,#68,.T.);
#66 = VERTEX_POINT('',#67);
#67 = CARTESIAN_POINT('',(3.885780586188E-16,5.2,23.5));
#68 = CIRCLE('',#69,1.8);
#69 = AXIS2_PLACEMENT_3D('',#70,#71,#72);
#70 = CARTESIAN_POINT('',(0.,7.,23.5));
#71 = DIRECTION('',(1.,0.,-0.));
#72 = DIRECTION('',(0.,0.,1.));
#73 = ORIENTED_EDGE('',*,*,#74,.T.);
#74 = EDGE_CURVE('',#66,#75,#77,.T.);
#75 = VERTEX_POINT('',#76);
#76 = CARTESIAN_POINT('',(5.551115123126E-17,5.2,2.));
#77 = LINE('',#78,#79);
#78 = CARTESIAN_POINT('',(0.,5.2,23.5));
#79 = VECTOR('',#80,1.);
#80 = DIRECTION('',(0.,0.,-1.));
#81 = ORIENTED_EDGE('',*,*,#82,.T.);
#82 = EDGE_CURVE('',#75,#83,#85,.T.);
#83 = VERTEX_POINT('',#84);
#84 = CARTESIAN_POINT('',(-8.326672684689E-17,7.,0.2));
#85 = CIRCLE('',#86,1.8);
#86 = AXIS2_PLACEMENT_3D('',#87,#88,#89);
#87 = CARTESIAN_POINT('',(0.,7.,2.));
#88 = DIRECTION('',(1.,0.,0.));
#89 = DIRECTION('',(0.,-1.,0.));
#90 = ORIENTED_EDGE('',*,*,#91,.T.);
#91 = EDGE_CURVE('',#83,#92,#94,.T.);
#92 = VERTEX_POINT('',#93);
#93 = CARTESIAN_POINT('',(0.,21.917157287525,0.2));
#94 = LINE('',#95,#96);
#95 = CARTESIAN_POINT('',(0.,7.,0.2));
#96 = VECTOR('',#97,1.);
#97 = DIRECTION('',(0.,1.,0.));
#98 = ORIENTED_EDGE('',*,*,#99,.F.);
#99 = EDGE_CURVE('',#100,#92,#102,.T.);
#100 = VERTEX_POINT('',#101);
#101 = CARTESIAN_POINT('',(-1.804112415016E-16,24.917157287525,3.2));
#102 = LINE('',#103,#104);
#103 = CARTESIAN_POINT('',(0.,24.858578643763,3.141421356237));
#104 = VECTOR('',#105,1.);
#105 = DIRECTION('',(0.,-0.707106781187,-0.707106781187));
#106 = ORIENTED_EDGE('',*,*,#107,.T.);
#107 = EDGE_CURVE('',#100,#108,#110,.T.);
#108 = VERTEX_POINT('',#109);
#109 = CARTESIAN_POINT('',(4.163336342344E-17,105.08284271247,3.2));
#110 = LINE('',#111,#112);
#111 = CARTESIAN_POINT('',(0.,25.,3.2));
#112 = VECTOR('',#113,1.);
#113 = DIRECTION('',(0.,1.,0.));
#114 = ORIENTED_EDGE('',*,*,#115,.F.);
#115 = EDGE_CURVE('',#116,#108,#118,.T.);
#116 = VERTEX_POINT('',#117);
#117 = CARTESIAN_POINT('',(2.775557561563E-17,108.08284271247,0.2));
#118 = LINE('',#119,#120);
#119 = CARTESIAN_POINT('',(0.,108.14142135623,0.141421356237));
#120 = VECTOR('',#121,1.);
#121 = DIRECTION('',(0.,-0.707106781187,0.707106781187));
#122 = ORIENTED_EDGE('',*,*,#123,.F.);
#123 = EDGE_CURVE('',#124,#116,#126,.T.);
#124 = VERTEX_POINT('',#125);
#125 = CARTESIAN_POINT('',(-8.326672684689E-17,123.,0.2));
#126 = LINE('',#127,#128);
#127 = CARTESIAN_POINT('',(0.,123.,0.2));
#128 = VECTOR('',#129,1.);
#129 = DIRECTION('',(0.,-1.,0.));
#130 = ORIENTED_EDGE('',*,*,#131,.F.);
#131 = EDGE_CURVE('',#132,#124,#134,.T.);
#132 = VERTEX_POINT('',#133);
#133 = CARTESIAN_POINT('',(1.415534356397E-14,124.8,2.));
#134 = CIRCLE('',#135,1.8);
#135 = AXIS2_PLACEMENT_3D('',#136,#137,#138);
#136 = CARTESIAN_POINT('',(0.,123.,2.));
#137 = DIRECTION('',(-1.,0.,-0.));
#138 = DIRECTION('',(0.,1.,-3.330669073875E-16));
#139 = ORIENTED_EDGE('',*,*,#140,.F.);
#140 = EDGE_CURVE('',#141,#132,#143,.T.);
#141 = VERTEX_POINT('',#142);
#142 = CARTESIAN_POINT('',(3.885780586188E-16,124.80018237861,
    34.991460785411));
#143 = LINE('',#144,#145);
#144 = CARTESIAN_POINT('',(0.,124.8,35.));
#145 = VECTOR('',#146,1.);
#146 = DIRECTION('',(0.,0.,-1.));
#147 = ORIENTED_EDGE('',*,*,#148,.F.);
#148 = EDGE_CURVE('',#149,#141,#151,.T.);
#149 = VERTEX_POINT('',#150);
#150 = CARTESIAN_POINT('',(-1.360023205166E-15,122.76636441883,
    52.248965687706));
#151 = CIRCLE('',#152,116.5738475459);
#152 = AXIS2_PLACEMENT_3D('',#153,#154,#155);
#153 = CARTESIAN_POINT('',(0.,8.332637719575,30.014215287161));
#154 = DIRECTION('',(-1.,0.,0.));
#155 = DIRECTION('',(0.,0.981641501145,0.190735322447));
#156 = ORIENTED_EDGE('',*,*,#157,.F.);
#157 = EDGE_CURVE('',#24,#149,#158,.T.);
#158 = CIRCLE('',#159,2.8);
#159 = AXIS2_PLACEMENT_3D('',#160,#161,#162);
#160 = CARTESIAN_POINT('',(0.,120.01776821563,51.714906784855));
#161 = DIRECTION('',(-1.,0.,0.));
#162 = DIRECTION('',(0.,-0.176584707693,0.984285446915));
#163 = FACE_BOUND('',#164,.F.);
#164 = EDGE_LOOP('',(#165));
#165 = ORIENTED_EDGE('',*,*,#166,.T.);
#166 = EDGE_CURVE('',#167,#167,#169,.T.);
#167 = VERTEX_POINT('',#168);
#168 = CARTESIAN_POINT('',(0.,11.75,15.));
#169 = CIRCLE('',#170,1.75);
#170 = AXIS2_PLACEMENT_3D('',#171,#172,#173);
#171 = CARTESIAN_POINT('',(0.,10.,15.));
#172 = DIRECTION('',(1.,0.,0.));
#173 = DIRECTION('',(0.,1.,0.));
#174 = FACE_BOUND('',#175,.F.);
#175 = EDGE_LOOP('',(#176));
#176 = ORIENTED_EDGE('',*,*,#177,.T.);
#177 = EDGE_CURVE('',#178,#178,#180,.T.);
#178 = VERTEX_POINT('',#179);
#179 = CARTESIAN_POINT('',(0.,116.75,15.));
#180 = CIRCLE('',#181,1.75);
#181 = AXIS2_PLACEMENT_3D('',#182,#183,#184);
#182 = CARTESIAN_POINT('',(0.,115.,15.));
#183 = DIRECTION('',(1.,0.,0.));
#184 = DIRECTION('',(0.,1.,0.));
#185 = PLANE('',#186);
#186 = AXIS2_PLACEMENT_3D('',#187,#188,#189);
#187 = CARTESIAN_POINT('',(0.,68.542119969793,22.725472871014));
#188 = DIRECTION('',(1.,0.,0.));
#189 = DIRECTION('',(0.,0.,1.));
#190 = ADVANCED_FACE('',(#191),#217,.T.);
#191 = FACE_BOUND('',#192,.T.);
#192 = EDGE_LOOP('',(#193,#202,#203,#211));
#193 = ORIENTED_EDGE('',*,*,#194,.F.);
#194 = EDGE_CURVE('',#22,#195,#197,.T.);
#195 = VERTEX_POINT('',#196);
#196 = CARTESIAN_POINT('',(-0.2,12.967911113762,35.557634750841));
#197 = PARABOLA('',#198,0.164078313512);
#198 = AXIS2_PLACEMENT_3D('',#199,#200,#201);
#199 = CARTESIAN_POINT('',(1.56795822374,14.540975029233,34.043664188019
    ));
#200 = DIRECTION('',(0.707106781187,-0.124864244264,0.695994914137));
#201 = DIRECTION('',(-0.707106781187,-0.124864244264,0.695994914137));
#202 = ORIENTED_EDGE('',*,*,#21,.T.);
#203 = ORIENTED_EDGE('',*,*,#204,.T.);
#204 = EDGE_CURVE('',#24,#205,#207,.T.);
#205 = VERTEX_POINT('',#206);
#206 = CARTESIAN_POINT('',(-0.2,119.48801409255,54.6677631256));
#207 = LINE('',#208,#209);
#208 = CARTESIAN_POINT('',(-1.E-01,119.50567256332,54.569334580909));
#209 = VECTOR('',#210,1.);
#210 = DIRECTION('',(-0.707106781187,-0.124864244264,0.695994914137));
#211 = ORIENTED_EDGE('',*,*,#212,.F.);
#212 = EDGE_CURVE('',#195,#205,#213,.T.);
#213 = LINE('',#214,#215);
#214 = CARTESIAN_POINT('',(-0.2,12.967911113762,35.557634750841));
#215 = VECTOR('',#216,1.);
#216 = DIRECTION('',(0.,0.984285446915,0.176584707693));
#217 = PLANE('',#218);
#218 = AXIS2_PLACEMENT_3D('',#219,#220,#221);
#219 = CARTESIAN_POINT('',(-0.1,12.985569584531,35.459206206149));
#220 = DIRECTION('',(0.707106781187,-0.124864244264,0.695994914137));
#221 = DIRECTION('',(2.057080705234E-17,0.984285446915,0.176584707693));
#222 = ADVANCED_FACE('',(#223),#242,.T.);
#223 = FACE_BOUND('',#224,.F.);
#224 = EDGE_LOOP('',(#225,#226,#227,#235));
#225 = ORIENTED_EDGE('',*,*,#194,.F.);
#226 = ORIENTED_EDGE('',*,*,#31,.T.);
#227 = ORIENTED_EDGE('',*,*,#228,.T.);
#228 = EDGE_CURVE('',#32,#229,#231,.T.);
#229 = VERTEX_POINT('',#230);
#230 = CARTESIAN_POINT('',(-0.2,12.5,34.272059531468));
#231 = LINE('',#232,#233);
#232 = CARTESIAN_POINT('',(-0.2,12.5,34.272059531468));
#233 = VECTOR('',#234,1.);
#234 = DIRECTION('',(-0.707106781187,-0.707106781187,-4.041881129336E-16
    ));
#235 = ORIENTED_EDGE('',*,*,#236,.F.);
#236 = EDGE_CURVE('',#195,#229,#237,.T.);
#237 = CIRCLE('',#238,2.);
#238 = AXIS2_PLACEMENT_3D('',#239,#240,#241);
#239 = CARTESIAN_POINT('',(-0.2,14.5,34.272059531468));
#240 = DIRECTION('',(1.,0.,0.));
#241 = DIRECTION('',(0.,-0.766044443119,0.642787609687));
#242 = CONICAL_SURFACE('',#243,2.,0.785398163397);
#243 = AXIS2_PLACEMENT_3D('',#244,#245,#246);
#244 = CARTESIAN_POINT('',(-0.2,14.5,34.272059531468));
#245 = DIRECTION('',(-1.,0.,0.));
#246 = DIRECTION('',(0.,-0.766044443119,0.642787609687));
#247 = ADVANCED_FACE('',(#248),#267,.T.);
#248 = FACE_BOUND('',#249,.T.);
#249 = EDGE_LOOP('',(#250,#251,#252,#260));
#250 = ORIENTED_EDGE('',*,*,#204,.F.);
#251 = ORIENTED_EDGE('',*,*,#157,.T.);
#252 = ORIENTED_EDGE('',*,*,#253,.T.);
#253 = EDGE_CURVE('',#149,#254,#256,.T.);
#254 = VERTEX_POINT('',#255);
#255 = CARTESIAN_POINT('',(-0.2,122.96269271906,52.287112752195));
#256 = LINE('',#257,#258);
#257 = CARTESIAN_POINT('',(-0.2,122.96269271906,52.287112752195));
#258 = VECTOR('',#259,1.);
#259 = DIRECTION('',(-0.707106781187,0.694125362154,0.134870239914));
#260 = ORIENTED_EDGE('',*,*,#261,.F.);
#261 = EDGE_CURVE('',#205,#254,#262,.T.);
#262 = CIRCLE('',#263,3.);
#263 = AXIS2_PLACEMENT_3D('',#264,#265,#266);
#264 = CARTESIAN_POINT('',(-0.2,120.01776821563,51.714906784855));
#265 = DIRECTION('',(-1.,0.,0.));
#266 = DIRECTION('',(0.,-0.176584707693,0.984285446915));
#267 = CONICAL_SURFACE('',#268,3.,0.785398163397);
#268 = AXIS2_PLACEMENT_3D('',#269,#270,#271);
#269 = CARTESIAN_POINT('',(-0.2,120.01776821563,51.714906784855));
#270 = DIRECTION('',(-1.,0.,0.));
#271 = DIRECTION('',(0.,-0.176584707693,0.984285446915));
#272 = ADVANCED_FACE('',(#273),#291,.T.);
#273 = FACE_BOUND('',#274,.F.);
#274 = EDGE_LOOP('',(#275,#276,#277,#285));
#275 = ORIENTED_EDGE('',*,*,#228,.F.);
#276 = ORIENTED_EDGE('',*,*,#40,.T.);
#277 = ORIENTED_EDGE('',*,*,#278,.T.);
#278 = EDGE_CURVE('',#41,#279,#281,.T.);
#279 = VERTEX_POINT('',#280);
#280 = CARTESIAN_POINT('',(-0.2,12.5,30.));
#281 = LINE('',#282,#283);
#282 = CARTESIAN_POINT('',(-0.1,12.6,30.));
#283 = VECTOR('',#284,1.);
#284 = DIRECTION('',(-0.707106781187,-0.707106781187,4.671380403949E-35)
  );
#285 = ORIENTED_EDGE('',*,*,#286,.F.);
#286 = EDGE_CURVE('',#229,#279,#287,.T.);
#287 = LINE('',#288,#289);
#288 = CARTESIAN_POINT('',(-0.2,12.5,34.272059531468));
#289 = VECTOR('',#290,1.);
#290 = DIRECTION('',(-0.,-0.,-1.));
#291 = PLANE('',#292);
#292 = AXIS2_PLACEMENT_3D('',#293,#294,#295);
#293 = CARTESIAN_POINT('',(-0.1,12.6,34.272059531468));
#294 = DIRECTION('',(0.707106781187,-0.707106781187,1.582009838555E-18)
  );
#295 = DIRECTION('',(-1.118649884746E-18,1.118649884746E-18,1.));
#296 = ADVANCED_FACE('',(#297),#316,.T.);
#297 = FACE_BOUND('',#298,.T.);
#298 = EDGE_LOOP('',(#299,#300,#301,#309));
#299 = ORIENTED_EDGE('',*,*,#253,.F.);
#300 = ORIENTED_EDGE('',*,*,#148,.T.);
#301 = ORIENTED_EDGE('',*,*,#302,.T.);
#302 = EDGE_CURVE('',#141,#303,#305,.T.);
#303 = VERTEX_POINT('',#304);
#304 = CARTESIAN_POINT('',(-0.2,125.,35.));
#305 = LINE('',#306,#307);
#306 = CARTESIAN_POINT('',(-0.2,125.,35.));
#307 = VECTOR('',#308,1.);
#308 = DIRECTION('',(-0.707106781187,0.706461975394,3.019068270914E-02)
  );
#309 = ORIENTED_EDGE('',*,*,#310,.F.);
#310 = EDGE_CURVE('',#254,#303,#311,.T.);
#311 = CIRCLE('',#312,116.7738475459);
#312 = AXIS2_PLACEMENT_3D('',#313,#314,#315);
#313 = CARTESIAN_POINT('',(-0.2,8.332637719575,30.014215287161));
#314 = DIRECTION('',(-1.,0.,0.));
#315 = DIRECTION('',(0.,0.981641501145,0.190735322447));
#316 = CONICAL_SURFACE('',#317,116.7738475459,0.785398163397);
#317 = AXIS2_PLACEMENT_3D('',#318,#319,#320);
#318 = CARTESIAN_POINT('',(-0.2,8.332637719575,30.014215287161));
#319 = DIRECTION('',(-1.,0.,0.));
#320 = DIRECTION('',(0.,0.981641501145,0.190735322447));
#321 = ADVANCED_FACE('',(#322),#341,.F.);
#322 = FACE_BOUND('',#323,.F.);
#323 = EDGE_LOOP('',(#324,#325,#326,#334));
#324 = ORIENTED_EDGE('',*,*,#278,.F.);
#325 = ORIENTED_EDGE('',*,*,#48,.T.);
#326 = ORIENTED_EDGE('',*,*,#327,.T.);
#327 = EDGE_CURVE('',#49,#328,#330,.T.);
#328 = VERTEX_POINT('',#329);
#329 = CARTESIAN_POINT('',(-0.2,8.,25.5));
#330 = LINE('',#331,#332);
#331 = CARTESIAN_POINT('',(-0.2,8.,25.5));
#332 = VECTOR('',#333,1.);
#333 = DIRECTION('',(-0.707106781187,-4.329780281177E-17,0.707106781187)
  );
#334 = ORIENTED_EDGE('',*,*,#335,.F.);
#335 = EDGE_CURVE('',#279,#328,#336,.T.);
#336 = CIRCLE('',#337,4.5);
#337 = AXIS2_PLACEMENT_3D('',#338,#339,#340);
#338 = CARTESIAN_POINT('',(-0.2,8.,30.));
#339 = DIRECTION('',(-1.,0.,0.));
#340 = DIRECTION('',(0.,1.,0.));
#341 = CONICAL_SURFACE('',#342,4.5,0.785398163397);
#342 = AXIS2_PLACEMENT_3D('',#343,#344,#345);
#343 = CARTESIAN_POINT('',(-0.2,8.,30.));
#344 = DIRECTION('',(1.,0.,0.));
#345 = DIRECTION('',(0.,1.,0.));
#346 = ADVANCED_FACE('',(#347),#365,.T.);
#347 = FACE_BOUND('',#348,.T.);
#348 = EDGE_LOOP('',(#349,#350,#351,#359));
#349 = ORIENTED_EDGE('',*,*,#302,.F.);
#350 = ORIENTED_EDGE('',*,*,#140,.T.);
#351 = ORIENTED_EDGE('',*,*,#352,.T.);
#352 = EDGE_CURVE('',#132,#353,#355,.T.);
#353 = VERTEX_POINT('',#354);
#354 = CARTESIAN_POINT('',(-0.2,125.,2.));
#355 = LINE('',#356,#357);
#356 = CARTESIAN_POINT('',(-0.1,124.9,2.));
#357 = VECTOR('',#358,1.);
#358 = DIRECTION('',(-0.707106781187,0.707106781187,2.546674562192E-35)
  );
#359 = ORIENTED_EDGE('',*,*,#360,.F.);
#360 = EDGE_CURVE('',#303,#353,#361,.T.);
#361 = LINE('',#362,#363);
#362 = CARTESIAN_POINT('',(-0.2,125.,35.));
#363 = VECTOR('',#364,1.);
#364 = DIRECTION('',(0.,0.,-1.));
#365 = PLANE('',#366);
#366 = AXIS2_PLACEMENT_3D('',#367,#368,#369);
#367 = CARTESIAN_POINT('',(-0.1,124.9,35.));
#368 = DIRECTION('',(0.707106781187,0.707106781187,-8.851325217576E-19)
  );
#369 = DIRECTION('',(-6.258832083835E-19,-6.258832083835E-19,-1.));
#370 = ADVANCED_FACE('',(#371),#389,.T.);
#371 = FACE_BOUND('',#372,.F.);
#372 = EDGE_LOOP('',(#373,#374,#375,#383));
#373 = ORIENTED_EDGE('',*,*,#327,.F.);
#374 = ORIENTED_EDGE('',*,*,#57,.T.);
#375 = ORIENTED_EDGE('',*,*,#376,.T.);
#376 = EDGE_CURVE('',#58,#377,#379,.T.);
#377 = VERTEX_POINT('',#378);
#378 = CARTESIAN_POINT('',(-0.2,7.,25.5));
#379 = LINE('',#380,#381);
#380 = CARTESIAN_POINT('',(-0.1,7.,25.4));
#381 = VECTOR('',#382,1.);
#382 = DIRECTION('',(-0.707106781187,3.950392906287E-36,0.707106781187)
  );
#383 = ORIENTED_EDGE('',*,*,#384,.F.);
#384 = EDGE_CURVE('',#328,#377,#385,.T.);
#385 = LINE('',#386,#387);
#386 = CARTESIAN_POINT('',(-0.2,8.,25.5));
#387 = VECTOR('',#388,1.);
#388 = DIRECTION('',(0.,-1.,0.));
#389 = PLANE('',#390);
#390 = AXIS2_PLACEMENT_3D('',#391,#392,#393);
#391 = CARTESIAN_POINT('',(-0.1,8.,25.4));
#392 = DIRECTION('',(0.707106781187,1.122071079915E-18,0.707106781187));
#393 = DIRECTION('',(-7.934240695811E-19,1.,-7.934240695811E-19));
#394 = ADVANCED_FACE('',(#395),#414,.T.);
#395 = FACE_BOUND('',#396,.T.);
#396 = EDGE_LOOP('',(#397,#398,#399,#407));
#397 = ORIENTED_EDGE('',*,*,#352,.F.);
#398 = ORIENTED_EDGE('',*,*,#131,.T.);
#399 = ORIENTED_EDGE('',*,*,#400,.T.);
#400 = EDGE_CURVE('',#124,#401,#403,.T.);
#401 = VERTEX_POINT('',#402);
#402 = CARTESIAN_POINT('',(-0.2,123.,0.));
#403 = LINE('',#404,#405);
#404 = CARTESIAN_POINT('',(-0.2,123.,0.));
#405 = VECTOR('',#406,1.);
#406 = DIRECTION('',(-0.707106781187,-1.922160659908E-16,-0.707106781187
    ));
#407 = ORIENTED_EDGE('',*,*,#408,.F.);
#408 = EDGE_CURVE('',#353,#401,#409,.T.);
#409 = CIRCLE('',#410,2.);
#410 = AXIS2_PLACEMENT_3D('',#411,#412,#413);
#411 = CARTESIAN_POINT('',(-0.2,123.,2.));
#412 = DIRECTION('',(-1.,0.,-0.));
#413 = DIRECTION('',(0.,1.,-3.330669073875E-16));
#414 = CONICAL_SURFACE('',#415,2.,0.785398163397);
#415 = AXIS2_PLACEMENT_3D('',#416,#417,#418);
#416 = CARTESIAN_POINT('',(-0.2,123.,2.));
#417 = DIRECTION('',(-1.,0.,0.));
#418 = DIRECTION('',(0.,1.,-3.330669073875E-16));
#419 = ADVANCED_FACE('',(#420),#439,.T.);
#420 = FACE_BOUND('',#421,.F.);
#421 = EDGE_LOOP('',(#422,#423,#424,#432));
#422 = ORIENTED_EDGE('',*,*,#376,.F.);
#423 = ORIENTED_EDGE('',*,*,#65,.T.);
#424 = ORIENTED_EDGE('',*,*,#425,.T.);
#425 = EDGE_CURVE('',#66,#426,#428,.T.);
#426 = VERTEX_POINT('',#427);
#427 = CARTESIAN_POINT('',(-0.2,5.,23.5));
#428 = LINE('',#429,#430);
#429 = CARTESIAN_POINT('',(-0.2,5.,23.5));
#430 = VECTOR('',#431,1.);
#431 = DIRECTION('',(-0.707106781187,-0.707106781187,4.329780281177E-17)
  );
#432 = ORIENTED_EDGE('',*,*,#433,.F.);
#433 = EDGE_CURVE('',#377,#426,#434,.T.);
#434 = CIRCLE('',#435,2.);
#435 = AXIS2_PLACEMENT_3D('',#436,#437,#438);
#436 = CARTESIAN_POINT('',(-0.2,7.,23.5));
#437 = DIRECTION('',(1.,0.,-0.));
#438 = DIRECTION('',(0.,0.,1.));
#439 = CONICAL_SURFACE('',#440,2.,0.785398163397);
#440 = AXIS2_PLACEMENT_3D('',#441,#442,#443);
#441 = CARTESIAN_POINT('',(-0.2,7.,23.5));
#442 = DIRECTION('',(-1.,0.,0.));
#443 = DIRECTION('',(0.,0.,1.));
#444 = ADVANCED_FACE('',(#445),#463,.T.);
#445 = FACE_BOUND('',#446,.T.);
#446 = EDGE_LOOP('',(#447,#448,#449,#457));
#447 = ORIENTED_EDGE('',*,*,#400,.F.);
#448 = ORIENTED_EDGE('',*,*,#123,.T.);
#449 = ORIENTED_EDGE('',*,*,#450,.T.);
#450 = EDGE_CURVE('',#116,#451,#453,.T.);
#451 = VERTEX_POINT('',#452);
#452 = CARTESIAN_POINT('',(-0.2,108.,-2.775557561563E-17));
#453 = LINE('',#454,#455);
#454 = CARTESIAN_POINT('',(1.322675916373,108.63071301566,1.522675916373
    ));
#455 = VECTOR('',#456,1.);
#456 = DIRECTION('',(-0.678598344546,-0.281084637715,-0.678598344546));
#457 = ORIENTED_EDGE('',*,*,#458,.F.);
#458 = EDGE_CURVE('',#401,#451,#459,.T.);
#459 = LINE('',#460,#461);
#460 = CARTESIAN_POINT('',(-0.2,123.,-6.530723674266E-18));
#461 = VECTOR('',#462,1.);
#462 = DIRECTION('',(0.,-1.,0.));
#463 = PLANE('',#464);
#464 = AXIS2_PLACEMENT_3D('',#465,#466,#467);
#465 = CARTESIAN_POINT('',(-0.1,123.,0.1));
#466 = DIRECTION('',(0.707106781187,7.424115154561E-19,-0.707106781187)
  );
#467 = DIRECTION('',(5.2496421701E-19,-1.,-5.2496421701E-19));
#468 = ADVANCED_FACE('',(#469),#487,.T.);
#469 = FACE_BOUND('',#470,.F.);
#470 = EDGE_LOOP('',(#471,#472,#473,#481));
#471 = ORIENTED_EDGE('',*,*,#425,.F.);
#472 = ORIENTED_EDGE('',*,*,#74,.T.);
#473 = ORIENTED_EDGE('',*,*,#474,.T.);
#474 = EDGE_CURVE('',#75,#475,#477,.T.);
#475 = VERTEX_POINT('',#476);
#476 = CARTESIAN_POINT('',(-0.2,5.,2.));
#477 = LINE('',#478,#479);
#478 = CARTESIAN_POINT('',(-0.1,5.1,2.));
#479 = VECTOR('',#480,1.);
#480 = DIRECTION('',(-0.707106781187,-0.707106781187,-3.062520440621E-35
    ));
#481 = ORIENTED_EDGE('',*,*,#482,.F.);
#482 = EDGE_CURVE('',#426,#475,#483,.T.);
#483 = LINE('',#484,#485);
#484 = CARTESIAN_POINT('',(-0.2,5.,23.5));
#485 = VECTOR('',#486,1.);
#486 = DIRECTION('',(0.,0.,-1.));
#487 = PLANE('',#488);
#488 = AXIS2_PLACEMENT_3D('',#489,#490,#491);
#489 = CARTESIAN_POINT('',(-0.1,5.1,23.5));
#490 = DIRECTION('',(0.707106781187,-0.707106781187,-1.120897699776E-18)
  );
#491 = DIRECTION('',(7.925943645282E-19,-7.925943645282E-19,1.));
#492 = ADVANCED_FACE('',(#493),#511,.T.);
#493 = FACE_BOUND('',#494,.T.);
#494 = EDGE_LOOP('',(#495,#496,#497,#505));
#495 = ORIENTED_EDGE('',*,*,#450,.F.);
#496 = ORIENTED_EDGE('',*,*,#115,.T.);
#497 = ORIENTED_EDGE('',*,*,#498,.T.);
#498 = EDGE_CURVE('',#108,#499,#501,.T.);
#499 = VERTEX_POINT('',#500);
#500 = CARTESIAN_POINT('',(-0.2,105.,3.));
#501 = LINE('',#502,#503);
#502 = CARTESIAN_POINT('',(-8.142271865663,101.71020327718,
    -4.942271865663));
#503 = VECTOR('',#504,1.);
#504 = DIRECTION('',(-0.678598344546,-0.281084637715,-0.678598344546));
#505 = ORIENTED_EDGE('',*,*,#506,.F.);
#506 = EDGE_CURVE('',#451,#499,#507,.T.);
#507 = LINE('',#508,#509);
#508 = CARTESIAN_POINT('',(-0.2,108.,-8.940972061643E-15));
#509 = VECTOR('',#510,1.);
#510 = DIRECTION('',(0.,-0.707106781187,0.707106781187));
#511 = PLANE('',#512);
#512 = AXIS2_PLACEMENT_3D('',#513,#514,#515);
#513 = CARTESIAN_POINT('',(-0.1,108.07071067811,7.071067811865E-02));
#514 = DIRECTION('',(0.707106781187,-0.5,-0.5));
#515 = DIRECTION('',(8.326672684692E-17,-0.707106781187,0.707106781187)
  );
#516 = ADVANCED_FACE('',(#517),#536,.T.);
#517 = FACE_BOUND('',#518,.F.);
#518 = EDGE_LOOP('',(#519,#520,#521,#529));
#519 = ORIENTED_EDGE('',*,*,#474,.F.);
#520 = ORIENTED_EDGE('',*,*,#82,.T.);
#521 = ORIENTED_EDGE('',*,*,#522,.T.);
#522 = EDGE_CURVE('',#83,#523,#525,.T.);
#523 = VERTEX_POINT('',#524);
#524 = CARTESIAN_POINT('',(-0.2,7.,0.));
#525 = LINE('',#526,#527);
#526 = CARTESIAN_POINT('',(-0.2,7.,0.));
#527 = VECTOR('',#528,1.);
#528 = DIRECTION('',(-0.707106781187,-4.329780281177E-17,-0.707106781187
    ));
#529 = ORIENTED_EDGE('',*,*,#530,.F.);
#530 = EDGE_CURVE('',#475,#523,#531,.T.);
#531 = CIRCLE('',#532,2.);
#532 = AXIS2_PLACEMENT_3D('',#533,#534,#535);
#533 = CARTESIAN_POINT('',(-0.2,7.,2.));
#534 = DIRECTION('',(1.,0.,0.));
#535 = DIRECTION('',(0.,-1.,0.));
#536 = CONICAL_SURFACE('',#537,2.,0.785398163397);
#537 = AXIS2_PLACEMENT_3D('',#538,#539,#540);
#538 = CARTESIAN_POINT('',(-0.2,7.,2.));
#539 = DIRECTION('',(-1.,0.,0.));
#540 = DIRECTION('',(0.,-1.,0.));
#541 = ADVANCED_FACE('',(#542),#560,.T.);
#542 = FACE_BOUND('',#543,.F.);
#543 = EDGE_LOOP('',(#544,#552,#553,#554));
#544 = ORIENTED_EDGE('',*,*,#545,.F.);
#545 = EDGE_CURVE('',#100,#546,#548,.T.);
#546 = VERTEX_POINT('',#547);
#547 = CARTESIAN_POINT('',(-0.2,25.,3.));
#548 = LINE('',#549,#550);
#549 = CARTESIAN_POINT('',(-0.107900857356,24.961851286034,
    3.092099142644));
#550 = VECTOR('',#551,1.);
#551 = DIRECTION('',(-0.678598344546,0.281084637715,-0.678598344546));
#552 = ORIENTED_EDGE('',*,*,#107,.T.);
#553 = ORIENTED_EDGE('',*,*,#498,.T.);
#554 = ORIENTED_EDGE('',*,*,#555,.F.);
#555 = EDGE_CURVE('',#546,#499,#556,.T.);
#556 = LINE('',#557,#558);
#557 = CARTESIAN_POINT('',(-0.2,25.,3.));
#558 = VECTOR('',#559,1.);
#559 = DIRECTION('',(0.,1.,0.));
#560 = PLANE('',#561);
#561 = AXIS2_PLACEMENT_3D('',#562,#563,#564);
#562 = CARTESIAN_POINT('',(-0.1,25.,3.1));
#563 = DIRECTION('',(0.707106781187,4.620807566278E-19,-0.707106781187)
  );
#564 = DIRECTION('',(3.267404364674E-19,-1.,-3.267404364674E-19));
#565 = ADVANCED_FACE('',(#566),#584,.T.);
#566 = FACE_BOUND('',#567,.F.);
#567 = EDGE_LOOP('',(#568,#569,#570,#578));
#568 = ORIENTED_EDGE('',*,*,#522,.F.);
#569 = ORIENTED_EDGE('',*,*,#91,.T.);
#570 = ORIENTED_EDGE('',*,*,#571,.T.);
#571 = EDGE_CURVE('',#92,#572,#574,.T.);
#572 = VERTEX_POINT('',#573);
#573 = CARTESIAN_POINT('',(-0.2,22.,0.));
#574 = LINE('',#575,#576);
#575 = CARTESIAN_POINT('',(1.727304131458,21.201684489932,1.927304131458
    ));
#576 = VECTOR('',#577,1.);
#577 = DIRECTION('',(-0.678598344546,0.281084637715,-0.678598344546));
#578 = ORIENTED_EDGE('',*,*,#579,.F.);
#579 = EDGE_CURVE('',#523,#572,#580,.T.);
#580 = LINE('',#581,#582);
#581 = CARTESIAN_POINT('',(-0.2,7.,-5.635441068133E-18));
#582 = VECTOR('',#583,1.);
#583 = DIRECTION('',(0.,1.,0.));
#584 = PLANE('',#585);
#585 = AXIS2_PLACEMENT_3D('',#586,#587,#588);
#586 = CARTESIAN_POINT('',(-0.1,7.,0.1));
#587 = DIRECTION('',(0.707106781187,7.424115154561E-19,-0.707106781187)
  );
#588 = DIRECTION('',(5.2496421701E-19,-1.,-5.2496421701E-19));
#589 = ADVANCED_FACE('',(#590),#601,.T.);
#590 = FACE_BOUND('',#591,.T.);
#591 = EDGE_LOOP('',(#592,#593,#594,#595));
#592 = ORIENTED_EDGE('',*,*,#545,.F.);
#593 = ORIENTED_EDGE('',*,*,#99,.T.);
#594 = ORIENTED_EDGE('',*,*,#571,.T.);
#595 = ORIENTED_EDGE('',*,*,#596,.F.);
#596 = EDGE_CURVE('',#546,#572,#597,.T.);
#597 = LINE('',#598,#599);
#598 = CARTESIAN_POINT('',(-0.2,25.,3.));
#599 = VECTOR('',#600,1.);
#600 = DIRECTION('',(0.,-0.707106781187,-0.707106781187));
#601 = PLANE('',#602);
#602 = AXIS2_PLACEMENT_3D('',#603,#604,#605);
#603 = CARTESIAN_POINT('',(-0.1,24.929289321881,3.070710678119));
#604 = DIRECTION('',(0.707106781187,0.5,-0.5));
#605 = DIRECTION('',(-1.232595164408E-32,-0.707106781187,-0.707106781187
    ));
#606 = ADVANCED_FACE('',(#607),#626,.F.);
#607 = FACE_BOUND('',#608,.F.);
#608 = EDGE_LOOP('',(#609,#610,#618,#625));
#609 = ORIENTED_EDGE('',*,*,#166,.F.);
#610 = ORIENTED_EDGE('',*,*,#611,.T.);
#611 = EDGE_CURVE('',#167,#612,#614,.T.);
#612 = VERTEX_POINT('',#613);
#613 = CARTESIAN_POINT('',(-1.,11.75,15.));
#614 = LINE('',#615,#616);
#615 = CARTESIAN_POINT('',(0.,11.75,15.));
#616 = VECTOR('',#617,1.);
#617 = DIRECTION('',(-1.,-0.,-0.));
#618 = ORIENTED_EDGE('',*,*,#619,.T.);
#619 = EDGE_CURVE('',#612,#612,#620,.T.);
#620 = CIRCLE('',#621,1.75);
#621 = AXIS2_PLACEMENT_3D('',#622,#623,#624);
#622 = CARTESIAN_POINT('',(-1.,10.,15.));
#623 = DIRECTION('',(1.,0.,0.));
#624 = DIRECTION('',(0.,1.,0.));
#625 = ORIENTED_EDGE('',*,*,#611,.F.);
#626 = CYLINDRICAL_SURFACE('',#627,1.75);
#627 = AXIS2_PLACEMENT_3D('',#628,#629,#630);
#628 = CARTESIAN_POINT('',(0.,10.,15.));
#629 = DIRECTION('',(1.,0.,0.));
#630 = DIRECTION('',(0.,1.,0.));
#631 = ADVANCED_FACE('',(#632),#651,.F.);
#632 = FACE_BOUND('',#633,.F.);
#633 = EDGE_LOOP('',(#634,#635,#643,#650));
#634 = ORIENTED_EDGE('',*,*,#177,.F.);
#635 = ORIENTED_EDGE('',*,*,#636,.T.);
#636 = EDGE_CURVE('',#178,#637,#639,.T.);
#637 = VERTEX_POINT('',#638);
#638 = CARTESIAN_POINT('',(-1.,116.75,15.));
#639 = LINE('',#640,#641);
#640 = CARTESIAN_POINT('',(0.,116.75,15.));
#641 = VECTOR('',#642,1.);
#642 = DIRECTION('',(-1.,-0.,-0.));
#643 = ORIENTED_EDGE('',*,*,#644,.T.);
#644 = EDGE_CURVE('',#637,#637,#645,.T.);
#645 = CIRCLE('',#646,1.75);
#646 = AXIS2_PLACEMENT_3D('',#647,#648,#649);
#647 = CARTESIAN_POINT('',(-1.,115.,15.));
#648 = DIRECTION('',(1.,0.,0.));
#649 = DIRECTION('',(0.,1.,0.));
#650 = ORIENTED_EDGE('',*,*,#636,.F.);
#651 = CYLINDRICAL_SURFACE('',#652,1.75);
#652 = AXIS2_PLACEMENT_3D('',#653,#654,#655);
#653 = CARTESIAN_POINT('',(0.,115.,15.));
#654 = DIRECTION('',(1.,0.,0.));
#655 = DIRECTION('',(0.,1.,0.));
#656 = ADVANCED_FACE('',(#657),#682,.T.);
#657 = FACE_BOUND('',#658,.T.);
#658 = EDGE_LOOP('',(#659,#667,#675,#681));
#659 = ORIENTED_EDGE('',*,*,#660,.T.);
#660 = EDGE_CURVE('',#205,#661,#663,.T.);
#661 = VERTEX_POINT('',#662);
#662 = CARTESIAN_POINT('',(-1.8,119.48801409255,54.6677631256));
#663 = LINE('',#664,#665);
#664 = CARTESIAN_POINT('',(0.,119.48801409255,54.6677631256));
#665 = VECTOR('',#666,1.);
#666 = DIRECTION('',(-1.,-0.,-0.));
#667 = ORIENTED_EDGE('',*,*,#668,.F.);
#668 = EDGE_CURVE('',#669,#661,#671,.T.);
#669 = VERTEX_POINT('',#670);
#670 = CARTESIAN_POINT('',(-1.8,12.967911113762,35.557634750841));
#671 = LINE('',#672,#673);
#672 = CARTESIAN_POINT('',(-1.8,12.967911113762,35.557634750841));
#673 = VECTOR('',#674,1.);
#674 = DIRECTION('',(0.,0.984285446915,0.176584707693));
#675 = ORIENTED_EDGE('',*,*,#676,.F.);
#676 = EDGE_CURVE('',#195,#669,#677,.T.);
#677 = LINE('',#678,#679);
#678 = CARTESIAN_POINT('',(-1.5,12.967911113762,35.557634750841));
#679 = VECTOR('',#680,1.);
#680 = DIRECTION('',(-1.,0.,0.));
#681 = ORIENTED_EDGE('',*,*,#212,.T.);
#682 = PLANE('',#683);
#683 = AXIS2_PLACEMENT_3D('',#684,#685,#686);
#684 = CARTESIAN_POINT('',(-1.,66.227962603157,45.11269893822));
#685 = DIRECTION('',(-8.095081794941E-16,-0.176584707693,0.984285446915)
  );
#686 = DIRECTION('',(-2.974566519064E-34,0.984285446915,0.176584707693)
  );
#687 = ADVANCED_FACE('',(#688),#707,.T.);
#688 = FACE_BOUND('',#689,.T.);
#689 = EDGE_LOOP('',(#690,#698,#699,#700));
#690 = ORIENTED_EDGE('',*,*,#691,.F.);
#691 = EDGE_CURVE('',#229,#692,#694,.T.);
#692 = VERTEX_POINT('',#693);
#693 = CARTESIAN_POINT('',(-1.8,12.5,34.272059531468));
#694 = LINE('',#695,#696);
#695 = CARTESIAN_POINT('',(0.,12.5,34.272059531468));
#696 = VECTOR('',#697,1.);
#697 = DIRECTION('',(-1.,-0.,-0.));
#698 = ORIENTED_EDGE('',*,*,#236,.F.);
#699 = ORIENTED_EDGE('',*,*,#676,.T.);
#700 = ORIENTED_EDGE('',*,*,#701,.T.);
#701 = EDGE_CURVE('',#669,#692,#702,.T.);
#702 = CIRCLE('',#703,2.);
#703 = AXIS2_PLACEMENT_3D('',#704,#705,#706);
#704 = CARTESIAN_POINT('',(-1.8,14.5,34.272059531468));
#705 = DIRECTION('',(1.,0.,0.));
#706 = DIRECTION('',(0.,-0.766044443119,0.642787609687));
#707 = CYLINDRICAL_SURFACE('',#708,2.);
#708 = AXIS2_PLACEMENT_3D('',#709,#710,#711);
#709 = CARTESIAN_POINT('',(0.,14.5,34.272059531468));
#710 = DIRECTION('',(1.,0.,0.));
#711 = DIRECTION('',(0.,0.,-1.));
#712 = ADVANCED_FACE('',(#713),#732,.T.);
#713 = FACE_BOUND('',#714,.F.);
#714 = EDGE_LOOP('',(#715,#723,#724,#725));
#715 = ORIENTED_EDGE('',*,*,#716,.F.);
#716 = EDGE_CURVE('',#254,#717,#719,.T.);
#717 = VERTEX_POINT('',#718);
#718 = CARTESIAN_POINT('',(-1.8,122.96269271906,52.287112752195));
#719 = LINE('',#720,#721);
#720 = CARTESIAN_POINT('',(-1.5,122.96269271906,52.287112752195));
#721 = VECTOR('',#722,1.);
#722 = DIRECTION('',(-1.,0.,0.));
#723 = ORIENTED_EDGE('',*,*,#261,.F.);
#724 = ORIENTED_EDGE('',*,*,#660,.T.);
#725 = ORIENTED_EDGE('',*,*,#726,.T.);
#726 = EDGE_CURVE('',#661,#717,#727,.T.);
#727 = CIRCLE('',#728,3.);
#728 = AXIS2_PLACEMENT_3D('',#729,#730,#731);
#729 = CARTESIAN_POINT('',(-1.8,120.01776821563,51.714906784855));
#730 = DIRECTION('',(-1.,0.,0.));
#731 = DIRECTION('',(0.,-0.176584707693,0.984285446915));
#732 = CYLINDRICAL_SURFACE('',#733,3.);
#733 = AXIS2_PLACEMENT_3D('',#734,#735,#736);
#734 = CARTESIAN_POINT('',(0.,120.01776821563,51.714906784855));
#735 = DIRECTION('',(-1.,-0.,-0.));
#736 = DIRECTION('',(0.,0.981641501145,0.190735322447));
#737 = ADVANCED_FACE('',(#738),#756,.T.);
#738 = FACE_BOUND('',#739,.T.);
#739 = EDGE_LOOP('',(#740,#741,#749,#755));
#740 = ORIENTED_EDGE('',*,*,#691,.T.);
#741 = ORIENTED_EDGE('',*,*,#742,.T.);
#742 = EDGE_CURVE('',#692,#743,#745,.T.);
#743 = VERTEX_POINT('',#744);
#744 = CARTESIAN_POINT('',(-1.8,12.5,30.));
#745 = LINE('',#746,#747);
#746 = CARTESIAN_POINT('',(-1.8,12.5,34.272059531468));
#747 = VECTOR('',#748,1.);
#748 = DIRECTION('',(-0.,-0.,-1.));
#749 = ORIENTED_EDGE('',*,*,#750,.F.);
#750 = EDGE_CURVE('',#279,#743,#751,.T.);
#751 = LINE('',#752,#753);
#752 = CARTESIAN_POINT('',(-1.5,12.5,30.));
#753 = VECTOR('',#754,1.);
#754 = DIRECTION('',(-1.,0.,0.));
#755 = ORIENTED_EDGE('',*,*,#286,.F.);
#756 = PLANE('',#757);
#757 = AXIS2_PLACEMENT_3D('',#758,#759,#760);
#758 = CARTESIAN_POINT('',(-1.,12.5,32.136029765734));
#759 = DIRECTION('',(-0.,-1.,-0.));
#760 = DIRECTION('',(0.,0.,-1.));
#761 = ADVANCED_FACE('',(#762),#781,.T.);
#762 = FACE_BOUND('',#763,.T.);
#763 = EDGE_LOOP('',(#764,#765,#766,#774));
#764 = ORIENTED_EDGE('',*,*,#716,.F.);
#765 = ORIENTED_EDGE('',*,*,#310,.T.);
#766 = ORIENTED_EDGE('',*,*,#767,.T.);
#767 = EDGE_CURVE('',#303,#768,#770,.T.);
#768 = VERTEX_POINT('',#769);
#769 = CARTESIAN_POINT('',(-1.8,125.,35.));
#770 = LINE('',#771,#772);
#771 = CARTESIAN_POINT('',(-1.5,125.,35.));
#772 = VECTOR('',#773,1.);
#773 = DIRECTION('',(-1.,0.,0.));
#774 = ORIENTED_EDGE('',*,*,#775,.F.);
#775 = EDGE_CURVE('',#717,#768,#776,.T.);
#776 = CIRCLE('',#777,116.7738475459);
#777 = AXIS2_PLACEMENT_3D('',#778,#779,#780);
#778 = CARTESIAN_POINT('',(-1.8,8.332637719575,30.014215287161));
#779 = DIRECTION('',(-1.,0.,0.));
#780 = DIRECTION('',(0.,0.981641501145,0.190735322447));
#781 = CYLINDRICAL_SURFACE('',#782,116.7738475459);
#782 = AXIS2_PLACEMENT_3D('',#783,#784,#785);
#783 = CARTESIAN_POINT('',(0.,8.332637719575,30.014215287161));
#784 = DIRECTION('',(1.,0.,0.));
#785 = DIRECTION('',(0.,1.,0.));
#786 = ADVANCED_FACE('',(#787),#806,.F.);
#787 = FACE_BOUND('',#788,.T.);
#788 = EDGE_LOOP('',(#789,#797,#798,#799));
#789 = ORIENTED_EDGE('',*,*,#790,.F.);
#790 = EDGE_CURVE('',#328,#791,#793,.T.);
#791 = VERTEX_POINT('',#792);
#792 = CARTESIAN_POINT('',(-1.8,8.,25.5));
#793 = LINE('',#794,#795);
#794 = CARTESIAN_POINT('',(0.,8.,25.5));
#795 = VECTOR('',#796,1.);
#796 = DIRECTION('',(-1.,-0.,-0.));
#797 = ORIENTED_EDGE('',*,*,#335,.F.);
#798 = ORIENTED_EDGE('',*,*,#750,.T.);
#799 = ORIENTED_EDGE('',*,*,#800,.T.);
#800 = EDGE_CURVE('',#743,#791,#801,.T.);
#801 = CIRCLE('',#802,4.5);
#802 = AXIS2_PLACEMENT_3D('',#803,#804,#805);
#803 = CARTESIAN_POINT('',(-1.8,8.,30.));
#804 = DIRECTION('',(-1.,0.,0.));
#805 = DIRECTION('',(0.,1.,0.));
#806 = CYLINDRICAL_SURFACE('',#807,4.5);
#807 = AXIS2_PLACEMENT_3D('',#808,#809,#810);
#808 = CARTESIAN_POINT('',(0.,8.,30.));
#809 = DIRECTION('',(1.,0.,0.));
#810 = DIRECTION('',(0.,-1.,0.));
#811 = ADVANCED_FACE('',(#812),#830,.T.);
#812 = FACE_BOUND('',#813,.T.);
#813 = EDGE_LOOP('',(#814,#822,#828,#829));
#814 = ORIENTED_EDGE('',*,*,#815,.T.);
#815 = EDGE_CURVE('',#353,#816,#818,.T.);
#816 = VERTEX_POINT('',#817);
#817 = CARTESIAN_POINT('',(-1.8,125.,2.));
#818 = LINE('',#819,#820);
#819 = CARTESIAN_POINT('',(0.,125.,2.));
#820 = VECTOR('',#821,1.);
#821 = DIRECTION('',(-1.,-0.,-0.));
#822 = ORIENTED_EDGE('',*,*,#823,.F.);
#823 = EDGE_CURVE('',#768,#816,#824,.T.);
#824 = LINE('',#825,#826);
#825 = CARTESIAN_POINT('',(-1.8,125.,35.));
#826 = VECTOR('',#827,1.);
#827 = DIRECTION('',(0.,0.,-1.));
#828 = ORIENTED_EDGE('',*,*,#767,.F.);
#829 = ORIENTED_EDGE('',*,*,#360,.T.);
#830 = PLANE('',#831);
#831 = AXIS2_PLACEMENT_3D('',#832,#833,#834);
#832 = CARTESIAN_POINT('',(-1.,125.,18.5));
#833 = DIRECTION('',(0.,1.,0.));
#834 = DIRECTION('',(0.,0.,1.));
#835 = ADVANCED_FACE('',(#836),#854,.T.);
#836 = FACE_BOUND('',#837,.T.);
#837 = EDGE_LOOP('',(#838,#839,#847,#853));
#838 = ORIENTED_EDGE('',*,*,#790,.T.);
#839 = ORIENTED_EDGE('',*,*,#840,.T.);
#840 = EDGE_CURVE('',#791,#841,#843,.T.);
#841 = VERTEX_POINT('',#842);
#842 = CARTESIAN_POINT('',(-1.8,7.,25.5));
#843 = LINE('',#844,#845);
#844 = CARTESIAN_POINT('',(-1.8,8.,25.5));
#845 = VECTOR('',#846,1.);
#846 = DIRECTION('',(0.,-1.,0.));
#847 = ORIENTED_EDGE('',*,*,#848,.F.);
#848 = EDGE_CURVE('',#377,#841,#849,.T.);
#849 = LINE('',#850,#851);
#850 = CARTESIAN_POINT('',(-1.5,7.,25.5));
#851 = VECTOR('',#852,1.);
#852 = DIRECTION('',(-1.,0.,0.));
#853 = ORIENTED_EDGE('',*,*,#384,.F.);
#854 = PLANE('',#855);
#855 = AXIS2_PLACEMENT_3D('',#856,#857,#858);
#856 = CARTESIAN_POINT('',(-1.,7.5,25.5));
#857 = DIRECTION('',(0.,0.,1.));
#858 = DIRECTION('',(1.,0.,0.));
#859 = ADVANCED_FACE('',(#860),#879,.T.);
#860 = FACE_BOUND('',#861,.T.);
#861 = EDGE_LOOP('',(#862,#863,#864,#872));
#862 = ORIENTED_EDGE('',*,*,#815,.F.);
#863 = ORIENTED_EDGE('',*,*,#408,.T.);
#864 = ORIENTED_EDGE('',*,*,#865,.T.);
#865 = EDGE_CURVE('',#401,#866,#868,.T.);
#866 = VERTEX_POINT('',#867);
#867 = CARTESIAN_POINT('',(-1.8,123.,0.));
#868 = LINE('',#869,#870);
#869 = CARTESIAN_POINT('',(-1.5,123.,-2.22044604925E-16));
#870 = VECTOR('',#871,1.);
#871 = DIRECTION('',(-1.,0.,0.));
#872 = ORIENTED_EDGE('',*,*,#873,.F.);
#873 = EDGE_CURVE('',#816,#866,#874,.T.);
#874 = CIRCLE('',#875,2.);
#875 = AXIS2_PLACEMENT_3D('',#876,#877,#878);
#876 = CARTESIAN_POINT('',(-1.8,123.,2.));
#877 = DIRECTION('',(-1.,0.,-0.));
#878 = DIRECTION('',(0.,1.,-3.330669073875E-16));
#879 = CYLINDRICAL_SURFACE('',#880,2.);
#880 = AXIS2_PLACEMENT_3D('',#881,#882,#883);
#881 = CARTESIAN_POINT('',(0.,123.,2.));
#882 = DIRECTION('',(1.,0.,0.));
#883 = DIRECTION('',(0.,0.,-1.));
#884 = ADVANCED_FACE('',(#885),#904,.T.);
#885 = FACE_BOUND('',#886,.T.);
#886 = EDGE_LOOP('',(#887,#895,#896,#897));
#887 = ORIENTED_EDGE('',*,*,#888,.F.);
#888 = EDGE_CURVE('',#426,#889,#891,.T.);
#889 = VERTEX_POINT('',#890);
#890 = CARTESIAN_POINT('',(-1.8,5.,23.5));
#891 = LINE('',#892,#893);
#892 = CARTESIAN_POINT('',(0.,5.,23.5));
#893 = VECTOR('',#894,1.);
#894 = DIRECTION('',(-1.,-0.,-0.));
#895 = ORIENTED_EDGE('',*,*,#433,.F.);
#896 = ORIENTED_EDGE('',*,*,#848,.T.);
#897 = ORIENTED_EDGE('',*,*,#898,.T.);
#898 = EDGE_CURVE('',#841,#889,#899,.T.);
#899 = CIRCLE('',#900,2.);
#900 = AXIS2_PLACEMENT_3D('',#901,#902,#903);
#901 = CARTESIAN_POINT('',(-1.8,7.,23.5));
#902 = DIRECTION('',(1.,0.,-0.));
#903 = DIRECTION('',(0.,0.,1.));
#904 = CYLINDRICAL_SURFACE('',#905,2.);
#905 = AXIS2_PLACEMENT_3D('',#906,#907,#908);
#906 = CARTESIAN_POINT('',(0.,7.,23.5));
#907 = DIRECTION('',(1.,0.,0.));
#908 = DIRECTION('',(0.,0.,-1.));
#909 = ADVANCED_FACE('',(#910),#928,.T.);
#910 = FACE_BOUND('',#911,.T.);
#911 = EDGE_LOOP('',(#912,#920,#926,#927));
#912 = ORIENTED_EDGE('',*,*,#913,.T.);
#913 = EDGE_CURVE('',#451,#914,#916,.T.);
#914 = VERTEX_POINT('',#915);
#915 = CARTESIAN_POINT('',(-1.8,108.,-1.665334536938E-16));
#916 = LINE('',#917,#918);
#917 = CARTESIAN_POINT('',(0.,108.,0.));
#918 = VECTOR('',#919,1.);
#919 = DIRECTION('',(-1.,-0.,-0.));
#920 = ORIENTED_EDGE('',*,*,#921,.F.);
#921 = EDGE_CURVE('',#866,#914,#922,.T.);
#922 = LINE('',#923,#924);
#923 = CARTESIAN_POINT('',(-1.8,123.,-6.530723674266E-18));
#924 = VECTOR('',#925,1.);
#925 = DIRECTION('',(0.,-1.,0.));
#926 = ORIENTED_EDGE('',*,*,#865,.F.);
#927 = ORIENTED_EDGE('',*,*,#458,.T.);
#928 = PLANE('',#929);
#929 = AXIS2_PLACEMENT_3D('',#930,#931,#932);
#930 = CARTESIAN_POINT('',(-1.,115.5,-1.306144734853E-17));
#931 = DIRECTION('',(-0.,-0.,-1.));
#932 = DIRECTION('',(-1.,0.,0.));
#933 = ADVANCED_FACE('',(#934),#952,.T.);
#934 = FACE_BOUND('',#935,.T.);
#935 = EDGE_LOOP('',(#936,#937,#945,#951));
#936 = ORIENTED_EDGE('',*,*,#888,.T.);
#937 = ORIENTED_EDGE('',*,*,#938,.T.);
#938 = EDGE_CURVE('',#889,#939,#941,.T.);
#939 = VERTEX_POINT('',#940);
#940 = CARTESIAN_POINT('',(-1.8,5.,2.));
#941 = LINE('',#942,#943);
#942 = CARTESIAN_POINT('',(-1.8,5.,23.5));
#943 = VECTOR('',#944,1.);
#944 = DIRECTION('',(0.,0.,-1.));
#945 = ORIENTED_EDGE('',*,*,#946,.F.);
#946 = EDGE_CURVE('',#475,#939,#947,.T.);
#947 = LINE('',#948,#949);
#948 = CARTESIAN_POINT('',(-1.5,5.,2.));
#949 = VECTOR('',#950,1.);
#950 = DIRECTION('',(-1.,0.,0.));
#951 = ORIENTED_EDGE('',*,*,#482,.F.);
#952 = PLANE('',#953);
#953 = AXIS2_PLACEMENT_3D('',#954,#955,#956);
#954 = CARTESIAN_POINT('',(-1.,5.,12.75));
#955 = DIRECTION('',(-0.,-1.,-0.));
#956 = DIRECTION('',(0.,0.,-1.));
#957 = ADVANCED_FACE('',(#958),#976,.T.);
#958 = FACE_BOUND('',#959,.T.);
#959 = EDGE_LOOP('',(#960,#961,#962,#970));
#960 = ORIENTED_EDGE('',*,*,#913,.F.);
#961 = ORIENTED_EDGE('',*,*,#506,.T.);
#962 = ORIENTED_EDGE('',*,*,#963,.T.);
#963 = EDGE_CURVE('',#499,#964,#966,.T.);
#964 = VERTEX_POINT('',#965);
#965 = CARTESIAN_POINT('',(-1.8,105.,3.));
#966 = LINE('',#967,#968);
#967 = CARTESIAN_POINT('',(0.,105.,3.));
#968 = VECTOR('',#969,1.);
#969 = DIRECTION('',(-1.,-0.,-0.));
#970 = ORIENTED_EDGE('',*,*,#971,.F.);
#971 = EDGE_CURVE('',#914,#964,#972,.T.);
#972 = LINE('',#973,#974);
#973 = CARTESIAN_POINT('',(-1.8,108.,-1.399448954164E-14));
#974 = VECTOR('',#975,1.);
#975 = DIRECTION('',(0.,-0.707106781187,0.707106781187));
#976 = PLANE('',#977);
#977 = AXIS2_PLACEMENT_3D('',#978,#979,#980);
#978 = CARTESIAN_POINT('',(-1.,106.5,1.5));
#979 = DIRECTION('',(-0.,-0.707106781187,-0.707106781187));
#980 = DIRECTION('',(0.,-0.707106781187,0.707106781187));
#981 = ADVANCED_FACE('',(#982),#1001,.T.);
#982 = FACE_BOUND('',#983,.T.);
#983 = EDGE_LOOP('',(#984,#992,#993,#994));
#984 = ORIENTED_EDGE('',*,*,#985,.F.);
#985 = EDGE_CURVE('',#523,#986,#988,.T.);
#986 = VERTEX_POINT('',#987);
#987 = CARTESIAN_POINT('',(-1.8,7.,0.));
#988 = LINE('',#989,#990);
#989 = CARTESIAN_POINT('',(0.,7.,-2.220446075837E-16));
#990 = VECTOR('',#991,1.);
#991 = DIRECTION('',(-1.,-0.,-0.));
#992 = ORIENTED_EDGE('',*,*,#530,.F.);
#993 = ORIENTED_EDGE('',*,*,#946,.T.);
#994 = ORIENTED_EDGE('',*,*,#995,.T.);
#995 = EDGE_CURVE('',#939,#986,#996,.T.);
#996 = CIRCLE('',#997,2.);
#997 = AXIS2_PLACEMENT_3D('',#998,#999,#1000);
#998 = CARTESIAN_POINT('',(-1.8,7.,2.));
#999 = DIRECTION('',(1.,0.,0.));
#1000 = DIRECTION('',(0.,-1.,0.));
#1001 = CYLINDRICAL_SURFACE('',#1002,2.);
#1002 = AXIS2_PLACEMENT_3D('',#1003,#1004,#1005);
#1003 = CARTESIAN_POINT('',(0.,7.,2.));
#1004 = DIRECTION('',(1.,0.,0.));
#1005 = DIRECTION('',(0.,0.,-1.));
#1006 = ADVANCED_FACE('',(#1007),#1025,.T.);
#1007 = FACE_BOUND('',#1008,.T.);
#1008 = EDGE_LOOP('',(#1009,#1017,#1023,#1024));
#1009 = ORIENTED_EDGE('',*,*,#1010,.T.);
#1010 = EDGE_CURVE('',#546,#1011,#1013,.T.);
#1011 = VERTEX_POINT('',#1012);
#1012 = CARTESIAN_POINT('',(-1.8,25.,3.));
#1013 = LINE('',#1014,#1015);
#1014 = CARTESIAN_POINT('',(0.,25.,3.));
#1015 = VECTOR('',#1016,1.);
#1016 = DIRECTION('',(-1.,-0.,-0.));
#1017 = ORIENTED_EDGE('',*,*,#1018,.T.);
#1018 = EDGE_CURVE('',#1011,#964,#1019,.T.);
#1019 = LINE('',#1020,#1021);
#1020 = CARTESIAN_POINT('',(-1.8,25.,3.));
#1021 = VECTOR('',#1022,1.);
#1022 = DIRECTION('',(0.,1.,0.));
#1023 = ORIENTED_EDGE('',*,*,#963,.F.);
#1024 = ORIENTED_EDGE('',*,*,#555,.F.);
#1025 = PLANE('',#1026);
#1026 = AXIS2_PLACEMENT_3D('',#1027,#1028,#1029);
#1027 = CARTESIAN_POINT('',(-1.,65.,3.));
#1028 = DIRECTION('',(-0.,-0.,-1.));
#1029 = DIRECTION('',(-1.,0.,0.));
#1030 = ADVANCED_FACE('',(#1031),#1049,.T.);
#1031 = FACE_BOUND('',#1032,.T.);
#1032 = EDGE_LOOP('',(#1033,#1034,#1042,#1048));
#1033 = ORIENTED_EDGE('',*,*,#985,.T.);
#1034 = ORIENTED_EDGE('',*,*,#1035,.T.);
#1035 = EDGE_CURVE('',#986,#1036,#1038,.T.);
#1036 = VERTEX_POINT('',#1037);
#1037 = CARTESIAN_POINT('',(-1.8,22.,-1.110223024625E-16));
#1038 = LINE('',#1039,#1040);
#1039 = CARTESIAN_POINT('',(-1.8,7.,-5.635441068133E-18));
#1040 = VECTOR('',#1041,1.);
#1041 = DIRECTION('',(0.,1.,0.));
#1042 = ORIENTED_EDGE('',*,*,#1043,.F.);
#1043 = EDGE_CURVE('',#572,#1036,#1044,.T.);
#1044 = LINE('',#1045,#1046);
#1045 = CARTESIAN_POINT('',(-1.5,22.,3.043961126724E-17));
#1046 = VECTOR('',#1047,1.);
#1047 = DIRECTION('',(-1.,0.,0.));
#1048 = ORIENTED_EDGE('',*,*,#579,.F.);
#1049 = PLANE('',#1050);
#1050 = AXIS2_PLACEMENT_3D('',#1051,#1052,#1053);
#1051 = CARTESIAN_POINT('',(-1.,14.5,-1.127088213627E-17));
#1052 = DIRECTION('',(-0.,-0.,-1.));
#1053 = DIRECTION('',(-1.,0.,0.));
#1054 = ADVANCED_FACE('',(#1055),#1066,.T.);
#1055 = FACE_BOUND('',#1056,.T.);
#1056 = EDGE_LOOP('',(#1057,#1058,#1059,#1060));
#1057 = ORIENTED_EDGE('',*,*,#1010,.F.);
#1058 = ORIENTED_EDGE('',*,*,#596,.T.);
#1059 = ORIENTED_EDGE('',*,*,#1043,.T.);
#1060 = ORIENTED_EDGE('',*,*,#1061,.F.);
#1061 = EDGE_CURVE('',#1011,#1036,#1062,.T.);
#1062 = LINE('',#1063,#1064);
#1063 = CARTESIAN_POINT('',(-1.8,25.,3.));
#1064 = VECTOR('',#1065,1.);
#1065 = DIRECTION('',(0.,-0.707106781187,-0.707106781187));
#1066 = PLANE('',#1067);
#1067 = AXIS2_PLACEMENT_3D('',#1068,#1069,#1070);
#1068 = CARTESIAN_POINT('',(-1.,23.5,1.5));
#1069 = DIRECTION('',(0.,0.707106781187,-0.707106781187));
#1070 = DIRECTION('',(0.,0.707106781187,0.707106781187));
#1071 = ADVANCED_FACE('',(#1072,#1083),#1086,.T.);
#1072 = FACE_BOUND('',#1073,.T.);
#1073 = EDGE_LOOP('',(#1074));
#1074 = ORIENTED_EDGE('',*,*,#1075,.T.);
#1075 = EDGE_CURVE('',#1076,#1076,#1078,.T.);
#1076 = VERTEX_POINT('',#1077);
#1077 = CARTESIAN_POINT('',(-1.,10.,18.));
#1078 = CIRCLE('',#1079,3.);
#1079 = AXIS2_PLACEMENT_3D('',#1080,#1081,#1082);
#1080 = CARTESIAN_POINT('',(-1.,10.,15.));
#1081 = DIRECTION('',(-1.,0.,0.));
#1082 = DIRECTION('',(0.,0.,1.));
#1083 = FACE_BOUND('',#1084,.T.);
#1084 = EDGE_LOOP('',(#1085));
#1085 = ORIENTED_EDGE('',*,*,#619,.T.);
#1086 = PLANE('',#1087);
#1087 = AXIS2_PLACEMENT_3D('',#1088,#1089,#1090);
#1088 = CARTESIAN_POINT('',(-1.,10.,15.));
#1089 = DIRECTION('',(-1.,-0.,-0.));
#1090 = DIRECTION('',(0.,0.,1.));
#1091 = ADVANCED_FACE('',(#1092,#1103),#1106,.T.);
#1092 = FACE_BOUND('',#1093,.T.);
#1093 = EDGE_LOOP('',(#1094));
#1094 = ORIENTED_EDGE('',*,*,#1095,.T.);
#1095 = EDGE_CURVE('',#1096,#1096,#1098,.T.);
#1096 = VERTEX_POINT('',#1097);
#1097 = CARTESIAN_POINT('',(-1.,115.,18.));
#1098 = CIRCLE('',#1099,3.);
#1099 = AXIS2_PLACEMENT_3D('',#1100,#1101,#1102);
#1100 = CARTESIAN_POINT('',(-1.,115.,15.));
#1101 = DIRECTION('',(-1.,0.,0.));
#1102 = DIRECTION('',(0.,0.,1.));
#1103 = FACE_BOUND('',#1104,.T.);
#1104 = EDGE_LOOP('',(#1105));
#1105 = ORIENTED_EDGE('',*,*,#644,.T.);
#1106 = PLANE('',#1107);
#1107 = AXIS2_PLACEMENT_3D('',#1108,#1109,#1110);
#1108 = CARTESIAN_POINT('',(-1.,115.,15.));
#1109 = DIRECTION('',(-1.,-0.,-0.));
#1110 = DIRECTION('',(0.,0.,1.));
#1111 = ADVANCED_FACE('',(#1112),#1138,.F.);
#1112 = FACE_BOUND('',#1113,.F.);
#1113 = EDGE_LOOP('',(#1114,#1123,#1131,#1137));
#1114 = ORIENTED_EDGE('',*,*,#1115,.F.);
#1115 = EDGE_CURVE('',#1116,#669,#1118,.T.);
#1116 = VERTEX_POINT('',#1117);
#1117 = CARTESIAN_POINT('',(-2.,13.076685693234,35.373956252651));
#1118 = PARABOLA('',#1119,0.164078313512);
#1119 = AXIS2_PLACEMENT_3D('',#1120,#1121,#1122);
#1120 = CARTESIAN_POINT('',(-3.56795822374,14.540975029233,
    34.043664188019));
#1121 = DIRECTION('',(0.707106781187,0.124864244264,-0.695994914137));
#1122 = DIRECTION('',(0.707106781187,-0.124864244264,0.695994914137));
#1123 = ORIENTED_EDGE('',*,*,#1124,.T.);
#1124 = EDGE_CURVE('',#1116,#1125,#1127,.T.);
#1125 = VERTEX_POINT('',#1126);
#1126 = CARTESIAN_POINT('',(-2.,119.52333103409,54.470906036217));
#1127 = LINE('',#1128,#1129);
#1128 = CARTESIAN_POINT('',(-2.,13.003228055301,35.360777661458));
#1129 = VECTOR('',#1130,1.);
#1130 = DIRECTION('',(0.,0.984285446915,0.176584707693));
#1131 = ORIENTED_EDGE('',*,*,#1132,.T.);
#1132 = EDGE_CURVE('',#1125,#661,#1133,.T.);
#1133 = LINE('',#1134,#1135);
#1134 = CARTESIAN_POINT('',(-1.9,119.50567256332,54.569334580909));
#1135 = VECTOR('',#1136,1.);
#1136 = DIRECTION('',(0.707106781187,-0.124864244264,0.695994914137));
#1137 = ORIENTED_EDGE('',*,*,#668,.F.);
#1138 = PLANE('',#1139);
#1139 = AXIS2_PLACEMENT_3D('',#1140,#1141,#1142);
#1140 = CARTESIAN_POINT('',(-1.9,12.985569584531,35.459206206149));
#1141 = DIRECTION('',(0.707106781187,0.124864244264,-0.695994914137));
#1142 = DIRECTION('',(-1.513085539274E-17,0.984285446915,0.176584707693)
  );
#1143 = ADVANCED_FACE('',(#1144),#1163,.T.);
#1144 = FACE_BOUND('',#1145,.T.);
#1145 = EDGE_LOOP('',(#1146,#1147,#1156,#1162));
#1146 = ORIENTED_EDGE('',*,*,#1115,.F.);
#1147 = ORIENTED_EDGE('',*,*,#1148,.T.);
#1148 = EDGE_CURVE('',#1116,#1149,#1151,.T.);
#1149 = VERTEX_POINT('',#1150);
#1150 = CARTESIAN_POINT('',(-2.,12.7,34.272059531468));
#1151 = CIRCLE('',#1152,1.8);
#1152 = AXIS2_PLACEMENT_3D('',#1153,#1154,#1155);
#1153 = CARTESIAN_POINT('',(-2.,14.5,34.272059531468));
#1154 = DIRECTION('',(1.,0.,0.));
#1155 = DIRECTION('',(0.,-0.766044443119,0.642787609687));
#1156 = ORIENTED_EDGE('',*,*,#1157,.T.);
#1157 = EDGE_CURVE('',#1149,#692,#1158,.T.);
#1158 = LINE('',#1159,#1160);
#1159 = CARTESIAN_POINT('',(-1.8,12.5,34.272059531468));
#1160 = VECTOR('',#1161,1.);
#1161 = DIRECTION('',(0.707106781187,-0.707106781187,-3.883355037431E-16
    ));
#1162 = ORIENTED_EDGE('',*,*,#701,.F.);
#1163 = CONICAL_SURFACE('',#1164,2.,0.785398163397);
#1164 = AXIS2_PLACEMENT_3D('',#1165,#1166,#1167);
#1165 = CARTESIAN_POINT('',(-1.8,14.5,34.272059531468));
#1166 = DIRECTION('',(1.,0.,0.));
#1167 = DIRECTION('',(0.,-0.766044443119,0.642787609687));
#1168 = ADVANCED_FACE('',(#1169),#1188,.T.);
#1169 = FACE_BOUND('',#1170,.F.);
#1170 = EDGE_LOOP('',(#1171,#1172,#1181,#1187));
#1171 = ORIENTED_EDGE('',*,*,#1132,.F.);
#1172 = ORIENTED_EDGE('',*,*,#1173,.T.);
#1173 = EDGE_CURVE('',#1125,#1174,#1176,.T.);
#1174 = VERTEX_POINT('',#1175);
#1175 = CARTESIAN_POINT('',(-2.,122.76636441883,52.248965687706));
#1176 = CIRCLE('',#1177,2.8);
#1177 = AXIS2_PLACEMENT_3D('',#1178,#1179,#1180);
#1178 = CARTESIAN_POINT('',(-2.,120.01776821563,51.714906784855));
#1179 = DIRECTION('',(-1.,0.,0.));
#1180 = DIRECTION('',(0.,-0.176584707693,0.984285446915));
#1181 = ORIENTED_EDGE('',*,*,#1182,.T.);
#1182 = EDGE_CURVE('',#1174,#717,#1183,.T.);
#1183 = LINE('',#1184,#1185);
#1184 = CARTESIAN_POINT('',(-1.8,122.96269271906,52.287112752195));
#1185 = VECTOR('',#1186,1.);
#1186 = DIRECTION('',(0.707106781187,0.694125362154,0.134870239914));
#1187 = ORIENTED_EDGE('',*,*,#726,.F.);
#1188 = CONICAL_SURFACE('',#1189,3.,0.785398163397);
#1189 = AXIS2_PLACEMENT_3D('',#1190,#1191,#1192);
#1190 = CARTESIAN_POINT('',(-1.8,120.01776821563,51.714906784855));
#1191 = DIRECTION('',(1.,0.,0.));
#1192 = DIRECTION('',(0.,-0.176584707693,0.984285446915));
#1193 = ADVANCED_FACE('',(#1194),#1212,.F.);
#1194 = FACE_BOUND('',#1195,.T.);
#1195 = EDGE_LOOP('',(#1196,#1197,#1205,#1211));
#1196 = ORIENTED_EDGE('',*,*,#1157,.F.);
#1197 = ORIENTED_EDGE('',*,*,#1198,.T.);
#1198 = EDGE_CURVE('',#1149,#1199,#1201,.T.);
#1199 = VERTEX_POINT('',#1200);
#1200 = CARTESIAN_POINT('',(-2.,12.7,30.));
#1201 = LINE('',#1202,#1203);
#1202 = CARTESIAN_POINT('',(-2.,12.7,34.272059531468));
#1203 = VECTOR('',#1204,1.);
#1204 = DIRECTION('',(-0.,-0.,-1.));
#1205 = ORIENTED_EDGE('',*,*,#1206,.T.);
#1206 = EDGE_CURVE('',#1199,#743,#1207,.T.);
#1207 = LINE('',#1208,#1209);
#1208 = CARTESIAN_POINT('',(-1.9,12.6,30.));
#1209 = VECTOR('',#1210,1.);
#1210 = DIRECTION('',(0.707106781187,-0.707106781187,-6.33513333289E-36)
  );
#1211 = ORIENTED_EDGE('',*,*,#742,.F.);
#1212 = PLANE('',#1213);
#1213 = AXIS2_PLACEMENT_3D('',#1214,#1215,#1216);
#1214 = CARTESIAN_POINT('',(-1.9,12.6,34.272059531468));
#1215 = DIRECTION('',(0.707106781187,0.707106781187,1.534073880901E-19)
  );
#1216 = DIRECTION('',(-1.084754044026E-19,-1.084754044026E-19,1.));
#1217 = ADVANCED_FACE('',(#1218),#1237,.T.);
#1218 = FACE_BOUND('',#1219,.F.);
#1219 = EDGE_LOOP('',(#1220,#1221,#1230,#1236));
#1220 = ORIENTED_EDGE('',*,*,#1182,.F.);
#1221 = ORIENTED_EDGE('',*,*,#1222,.T.);
#1222 = EDGE_CURVE('',#1174,#1223,#1225,.T.);
#1223 = VERTEX_POINT('',#1224);
#1224 = CARTESIAN_POINT('',(-2.,124.80018237861,34.991460785411));
#1225 = CIRCLE('',#1226,116.5738475459);
#1226 = AXIS2_PLACEMENT_3D('',#1227,#1228,#1229);
#1227 = CARTESIAN_POINT('',(-2.,8.332637719575,30.014215287161));
#1228 = DIRECTION('',(-1.,0.,0.));
#1229 = DIRECTION('',(0.,0.981641501145,0.190735322447));
#1230 = ORIENTED_EDGE('',*,*,#1231,.T.);
#1231 = EDGE_CURVE('',#1223,#768,#1232,.T.);
#1232 = LINE('',#1233,#1234);
#1233 = CARTESIAN_POINT('',(-1.8,125.,35.));
#1234 = VECTOR('',#1235,1.);
#1235 = DIRECTION('',(0.707106781187,0.706461975394,3.019068270914E-02)
  );
#1236 = ORIENTED_EDGE('',*,*,#775,.F.);
#1237 = CONICAL_SURFACE('',#1238,116.7738475459,0.785398163397);
#1238 = AXIS2_PLACEMENT_3D('',#1239,#1240,#1241);
#1239 = CARTESIAN_POINT('',(-1.8,8.332637719575,30.014215287161));
#1240 = DIRECTION('',(1.,0.,0.));
#1241 = DIRECTION('',(0.,0.981641501145,0.190735322447));
#1242 = ADVANCED_FACE('',(#1243),#1262,.F.);
#1243 = FACE_BOUND('',#1244,.T.);
#1244 = EDGE_LOOP('',(#1245,#1246,#1255,#1261));
#1245 = ORIENTED_EDGE('',*,*,#1206,.F.);
#1246 = ORIENTED_EDGE('',*,*,#1247,.T.);
#1247 = EDGE_CURVE('',#1199,#1248,#1250,.T.);
#1248 = VERTEX_POINT('',#1249);
#1249 = CARTESIAN_POINT('',(-2.,8.,25.3));
#1250 = CIRCLE('',#1251,4.7);
#1251 = AXIS2_PLACEMENT_3D('',#1252,#1253,#1254);
#1252 = CARTESIAN_POINT('',(-2.,8.,30.));
#1253 = DIRECTION('',(-1.,0.,0.));
#1254 = DIRECTION('',(0.,1.,0.));
#1255 = ORIENTED_EDGE('',*,*,#1256,.T.);
#1256 = EDGE_CURVE('',#1248,#791,#1257,.T.);
#1257 = LINE('',#1258,#1259);
#1258 = CARTESIAN_POINT('',(-1.8,8.,25.5));
#1259 = VECTOR('',#1260,1.);
#1260 = DIRECTION('',(0.707106781187,-4.329780281177E-17,0.707106781187)
  );
#1261 = ORIENTED_EDGE('',*,*,#800,.F.);
#1262 = CONICAL_SURFACE('',#1263,4.5,0.785398163397);
#1263 = AXIS2_PLACEMENT_3D('',#1264,#1265,#1266);
#1264 = CARTESIAN_POINT('',(-1.8,8.,30.));
#1265 = DIRECTION('',(-1.,-0.,-0.));
#1266 = DIRECTION('',(0.,1.,0.));
#1267 = ADVANCED_FACE('',(#1268),#1286,.F.);
#1268 = FACE_BOUND('',#1269,.F.);
#1269 = EDGE_LOOP('',(#1270,#1271,#1279,#1285));
#1270 = ORIENTED_EDGE('',*,*,#1231,.F.);
#1271 = ORIENTED_EDGE('',*,*,#1272,.T.);
#1272 = EDGE_CURVE('',#1223,#1273,#1275,.T.);
#1273 = VERTEX_POINT('',#1274);
#1274 = CARTESIAN_POINT('',(-2.,124.8,2.));
#1275 = LINE('',#1276,#1277);
#1276 = CARTESIAN_POINT('',(-2.,124.8,35.));
#1277 = VECTOR('',#1278,1.);
#1278 = DIRECTION('',(0.,0.,-1.));
#1279 = ORIENTED_EDGE('',*,*,#1280,.T.);
#1280 = EDGE_CURVE('',#1273,#816,#1281,.T.);
#1281 = LINE('',#1282,#1283);
#1282 = CARTESIAN_POINT('',(-1.9,124.9,2.));
#1283 = VECTOR('',#1284,1.);
#1284 = DIRECTION('',(0.707106781187,0.707106781187,-1.404498983546E-36)
  );
#1285 = ORIENTED_EDGE('',*,*,#823,.F.);
#1286 = PLANE('',#1287);
#1287 = AXIS2_PLACEMENT_3D('',#1288,#1289,#1290);
#1288 = CARTESIAN_POINT('',(-1.9,124.9,35.));
#1289 = DIRECTION('',(0.707106781187,-0.707106781187,-8.492512345349E-20
    ));
#1290 = DIRECTION('',(-6.005113068707E-20,6.005113068706E-20,-1.));
#1291 = ADVANCED_FACE('',(#1292),#1310,.F.);
#1292 = FACE_BOUND('',#1293,.T.);
#1293 = EDGE_LOOP('',(#1294,#1295,#1303,#1309));
#1294 = ORIENTED_EDGE('',*,*,#1256,.F.);
#1295 = ORIENTED_EDGE('',*,*,#1296,.T.);
#1296 = EDGE_CURVE('',#1248,#1297,#1299,.T.);
#1297 = VERTEX_POINT('',#1298);
#1298 = CARTESIAN_POINT('',(-2.,7.,25.3));
#1299 = LINE('',#1300,#1301);
#1300 = CARTESIAN_POINT('',(-2.,8.,25.3));
#1301 = VECTOR('',#1302,1.);
#1302 = DIRECTION('',(0.,-1.,0.));
#1303 = ORIENTED_EDGE('',*,*,#1304,.T.);
#1304 = EDGE_CURVE('',#1297,#841,#1305,.T.);
#1305 = LINE('',#1306,#1307);
#1306 = CARTESIAN_POINT('',(-1.9,7.,25.4));
#1307 = VECTOR('',#1308,1.);
#1308 = DIRECTION('',(0.707106781187,1.284063198785E-35,0.707106781187)
  );
#1309 = ORIENTED_EDGE('',*,*,#840,.F.);
#1310 = PLANE('',#1311);
#1311 = AXIS2_PLACEMENT_3D('',#1312,#1313,#1314);
#1312 = CARTESIAN_POINT('',(-1.9,8.,25.4));
#1313 = DIRECTION('',(0.707106781187,8.645704402888E-19,-0.707106781187)
  );
#1314 = DIRECTION('',(-6.113436211416E-19,1.,6.113436211416E-19));
#1315 = ADVANCED_FACE('',(#1316),#1335,.T.);
#1316 = FACE_BOUND('',#1317,.F.);
#1317 = EDGE_LOOP('',(#1318,#1319,#1328,#1334));
#1318 = ORIENTED_EDGE('',*,*,#1280,.F.);
#1319 = ORIENTED_EDGE('',*,*,#1320,.T.);
#1320 = EDGE_CURVE('',#1273,#1321,#1323,.T.);
#1321 = VERTEX_POINT('',#1322);
#1322 = CARTESIAN_POINT('',(-2.,123.,0.2));
#1323 = CIRCLE('',#1324,1.8);
#1324 = AXIS2_PLACEMENT_3D('',#1325,#1326,#1327);
#1325 = CARTESIAN_POINT('',(-2.,123.,2.));
#1326 = DIRECTION('',(-1.,0.,-0.));
#1327 = DIRECTION('',(0.,1.,-3.330669073875E-16));
#1328 = ORIENTED_EDGE('',*,*,#1329,.T.);
#1329 = EDGE_CURVE('',#1321,#866,#1330,.T.);
#1330 = LINE('',#1331,#1332);
#1331 = CARTESIAN_POINT('',(-1.8,123.,0.));
#1332 = VECTOR('',#1333,1.);
#1333 = DIRECTION('',(0.707106781187,-1.922160659908E-16,-0.707106781187
    ));
#1334 = ORIENTED_EDGE('',*,*,#873,.F.);
#1335 = CONICAL_SURFACE('',#1336,2.,0.785398163397);
#1336 = AXIS2_PLACEMENT_3D('',#1337,#1338,#1339);
#1337 = CARTESIAN_POINT('',(-1.8,123.,2.));
#1338 = DIRECTION('',(1.,0.,0.));
#1339 = DIRECTION('',(0.,1.,-3.330669073875E-16));
#1340 = ADVANCED_FACE('',(#1341),#1360,.T.);
#1341 = FACE_BOUND('',#1342,.T.);
#1342 = EDGE_LOOP('',(#1343,#1344,#1353,#1359));
#1343 = ORIENTED_EDGE('',*,*,#1304,.F.);
#1344 = ORIENTED_EDGE('',*,*,#1345,.T.);
#1345 = EDGE_CURVE('',#1297,#1346,#1348,.T.);
#1346 = VERTEX_POINT('',#1347);
#1347 = CARTESIAN_POINT('',(-2.,5.2,23.5));
#1348 = CIRCLE('',#1349,1.8);
#1349 = AXIS2_PLACEMENT_3D('',#1350,#1351,#1352);
#1350 = CARTESIAN_POINT('',(-2.,7.,23.5));
#1351 = DIRECTION('',(1.,0.,-0.));
#1352 = DIRECTION('',(0.,0.,1.));
#1353 = ORIENTED_EDGE('',*,*,#1354,.T.);
#1354 = EDGE_CURVE('',#1346,#889,#1355,.T.);
#1355 = LINE('',#1356,#1357);
#1356 = CARTESIAN_POINT('',(-1.8,5.,23.5));
#1357 = VECTOR('',#1358,1.);
#1358 = DIRECTION('',(0.707106781187,-0.707106781187,4.329780281177E-17)
  );
#1359 = ORIENTED_EDGE('',*,*,#898,.F.);
#1360 = CONICAL_SURFACE('',#1361,2.,0.785398163397);
#1361 = AXIS2_PLACEMENT_3D('',#1362,#1363,#1364);
#1362 = CARTESIAN_POINT('',(-1.8,7.,23.5));
#1363 = DIRECTION('',(1.,0.,0.));
#1364 = DIRECTION('',(0.,0.,1.));
#1365 = ADVANCED_FACE('',(#1366),#1384,.F.);
#1366 = FACE_BOUND('',#1367,.F.);
#1367 = EDGE_LOOP('',(#1368,#1369,#1377,#1383));
#1368 = ORIENTED_EDGE('',*,*,#1329,.F.);
#1369 = ORIENTED_EDGE('',*,*,#1370,.T.);
#1370 = EDGE_CURVE('',#1321,#1371,#1373,.T.);
#1371 = VERTEX_POINT('',#1372);
#1372 = CARTESIAN_POINT('',(-2.,108.08284271247,0.2));
#1373 = LINE('',#1374,#1375);
#1374 = CARTESIAN_POINT('',(-2.,123.,0.2));
#1375 = VECTOR('',#1376,1.);
#1376 = DIRECTION('',(0.,-1.,0.));
#1377 = ORIENTED_EDGE('',*,*,#1378,.T.);
#1378 = EDGE_CURVE('',#1371,#914,#1379,.T.);
#1379 = LINE('',#1380,#1381);
#1380 = CARTESIAN_POINT('',(-3.322675916373,108.63071301566,
    1.522675916373));
#1381 = VECTOR('',#1382,1.);
#1382 = DIRECTION('',(0.678598344546,-0.281084637715,-0.678598344546));
#1383 = ORIENTED_EDGE('',*,*,#921,.F.);
#1384 = PLANE('',#1385);
#1385 = AXIS2_PLACEMENT_3D('',#1386,#1387,#1388);
#1386 = CARTESIAN_POINT('',(-1.9,123.,0.1));
#1387 = DIRECTION('',(0.707106781187,-2.244024213054E-18,0.707106781187)
  );
#1388 = DIRECTION('',(-1.586764738197E-18,-1.,-1.586764738197E-18));
#1389 = ADVANCED_FACE('',(#1390),#1408,.F.);
#1390 = FACE_BOUND('',#1391,.T.);
#1391 = EDGE_LOOP('',(#1392,#1393,#1401,#1407));
#1392 = ORIENTED_EDGE('',*,*,#1354,.F.);
#1393 = ORIENTED_EDGE('',*,*,#1394,.T.);
#1394 = EDGE_CURVE('',#1346,#1395,#1397,.T.);
#1395 = VERTEX_POINT('',#1396);
#1396 = CARTESIAN_POINT('',(-2.,5.2,2.));
#1397 = LINE('',#1398,#1399);
#1398 = CARTESIAN_POINT('',(-2.,5.2,23.5));
#1399 = VECTOR('',#1400,1.);
#1400 = DIRECTION('',(0.,0.,-1.));
#1401 = ORIENTED_EDGE('',*,*,#1402,.T.);
#1402 = EDGE_CURVE('',#1395,#939,#1403,.T.);
#1403 = LINE('',#1404,#1405);
#1404 = CARTESIAN_POINT('',(-1.9,5.1,2.));
#1405 = VECTOR('',#1406,1.);
#1406 = DIRECTION('',(0.707106781187,-0.707106781187,-9.332468614962E-35
    ));
#1407 = ORIENTED_EDGE('',*,*,#938,.F.);
#1408 = PLANE('',#1409);
#1409 = AXIS2_PLACEMENT_3D('',#1410,#1411,#1412);
#1410 = CARTESIAN_POINT('',(-1.9,5.1,23.5));
#1411 = DIRECTION('',(0.707106781187,0.707106781187,1.605926522382E-18)
  );
#1412 = DIRECTION('',(-1.135561534063E-18,-1.135561534063E-18,1.));
#1413 = ADVANCED_FACE('',(#1414),#1432,.F.);
#1414 = FACE_BOUND('',#1415,.F.);
#1415 = EDGE_LOOP('',(#1416,#1417,#1425,#1431));
#1416 = ORIENTED_EDGE('',*,*,#1378,.F.);
#1417 = ORIENTED_EDGE('',*,*,#1418,.T.);
#1418 = EDGE_CURVE('',#1371,#1419,#1421,.T.);
#1419 = VERTEX_POINT('',#1420);
#1420 = CARTESIAN_POINT('',(-2.,105.08284271247,3.2));
#1421 = LINE('',#1422,#1423);
#1422 = CARTESIAN_POINT('',(-2.,108.14142135623,0.141421356237));
#1423 = VECTOR('',#1424,1.);
#1424 = DIRECTION('',(0.,-0.707106781187,0.707106781187));
#1425 = ORIENTED_EDGE('',*,*,#1426,.T.);
#1426 = EDGE_CURVE('',#1419,#964,#1427,.T.);
#1427 = LINE('',#1428,#1429);
#1428 = CARTESIAN_POINT('',(6.142271865663,101.71020327718,
    -4.942271865663));
#1429 = VECTOR('',#1430,1.);
#1430 = DIRECTION('',(0.678598344546,-0.281084637715,-0.678598344546));
#1431 = ORIENTED_EDGE('',*,*,#971,.F.);
#1432 = PLANE('',#1433);
#1433 = AXIS2_PLACEMENT_3D('',#1434,#1435,#1436);
#1434 = CARTESIAN_POINT('',(-1.9,108.07071067811,7.071067811864E-02));
#1435 = DIRECTION('',(0.707106781187,0.5,0.5));
#1436 = DIRECTION('',(-1.110223024626E-16,-0.707106781187,0.707106781187
    ));
#1437 = ADVANCED_FACE('',(#1438),#1457,.T.);
#1438 = FACE_BOUND('',#1439,.T.);
#1439 = EDGE_LOOP('',(#1440,#1441,#1450,#1456));
#1440 = ORIENTED_EDGE('',*,*,#1402,.F.);
#1441 = ORIENTED_EDGE('',*,*,#1442,.T.);
#1442 = EDGE_CURVE('',#1395,#1443,#1445,.T.);
#1443 = VERTEX_POINT('',#1444);
#1444 = CARTESIAN_POINT('',(-2.,7.,0.2));
#1445 = CIRCLE('',#1446,1.8);
#1446 = AXIS2_PLACEMENT_3D('',#1447,#1448,#1449);
#1447 = CARTESIAN_POINT('',(-2.,7.,2.));
#1448 = DIRECTION('',(1.,0.,0.));
#1449 = DIRECTION('',(0.,-1.,0.));
#1450 = ORIENTED_EDGE('',*,*,#1451,.T.);
#1451 = EDGE_CURVE('',#1443,#986,#1452,.T.);
#1452 = LINE('',#1453,#1454);
#1453 = CARTESIAN_POINT('',(-1.8,7.,0.));
#1454 = VECTOR('',#1455,1.);
#1455 = DIRECTION('',(0.707106781187,-4.329780281177E-17,-0.707106781187
    ));
#1456 = ORIENTED_EDGE('',*,*,#995,.F.);
#1457 = CONICAL_SURFACE('',#1458,2.,0.785398163397);
#1458 = AXIS2_PLACEMENT_3D('',#1459,#1460,#1461);
#1459 = CARTESIAN_POINT('',(-1.8,7.,2.));
#1460 = DIRECTION('',(1.,0.,0.));
#1461 = DIRECTION('',(0.,-1.,0.));
#1462 = ADVANCED_FACE('',(#1463),#1481,.F.);
#1463 = FACE_BOUND('',#1464,.T.);
#1464 = EDGE_LOOP('',(#1465,#1473,#1479,#1480));
#1465 = ORIENTED_EDGE('',*,*,#1466,.F.);
#1466 = EDGE_CURVE('',#1467,#1011,#1469,.T.);
#1467 = VERTEX_POINT('',#1468);
#1468 = CARTESIAN_POINT('',(-2.,24.917157287525,3.2));
#1469 = LINE('',#1470,#1471);
#1470 = CARTESIAN_POINT('',(-1.892099142644,24.961851286034,
    3.092099142644));
#1471 = VECTOR('',#1472,1.);
#1472 = DIRECTION('',(0.678598344546,0.281084637715,-0.678598344546));
#1473 = ORIENTED_EDGE('',*,*,#1474,.T.);
#1474 = EDGE_CURVE('',#1467,#1419,#1475,.T.);
#1475 = LINE('',#1476,#1477);
#1476 = CARTESIAN_POINT('',(-2.,25.,3.2));
#1477 = VECTOR('',#1478,1.);
#1478 = DIRECTION('',(0.,1.,0.));
#1479 = ORIENTED_EDGE('',*,*,#1426,.T.);
#1480 = ORIENTED_EDGE('',*,*,#1018,.F.);
#1481 = PLANE('',#1482);
#1482 = AXIS2_PLACEMENT_3D('',#1483,#1484,#1485);
#1483 = CARTESIAN_POINT('',(-1.9,25.,3.1));
#1484 = DIRECTION('',(0.707106781187,-2.282762275812E-19,0.707106781187)
  );
#1485 = DIRECTION('',(-1.614156685063E-19,-1.,-1.614156685063E-19));
#1486 = ADVANCED_FACE('',(#1487),#1505,.F.);
#1487 = FACE_BOUND('',#1488,.T.);
#1488 = EDGE_LOOP('',(#1489,#1490,#1498,#1504));
#1489 = ORIENTED_EDGE('',*,*,#1451,.F.);
#1490 = ORIENTED_EDGE('',*,*,#1491,.T.);
#1491 = EDGE_CURVE('',#1443,#1492,#1494,.T.);
#1492 = VERTEX_POINT('',#1493);
#1493 = CARTESIAN_POINT('',(-2.,21.917157287525,0.2));
#1494 = LINE('',#1495,#1496);
#1495 = CARTESIAN_POINT('',(-2.,7.,0.2));
#1496 = VECTOR('',#1497,1.);
#1497 = DIRECTION('',(0.,1.,0.));
#1498 = ORIENTED_EDGE('',*,*,#1499,.T.);
#1499 = EDGE_CURVE('',#1492,#1036,#1500,.T.);
#1500 = LINE('',#1501,#1502);
#1501 = CARTESIAN_POINT('',(-3.727304131458,21.201684489932,
    1.927304131458));
#1502 = VECTOR('',#1503,1.);
#1503 = DIRECTION('',(0.678598344546,0.281084637715,-0.678598344546));
#1504 = ORIENTED_EDGE('',*,*,#1035,.F.);
#1505 = PLANE('',#1506);
#1506 = AXIS2_PLACEMENT_3D('',#1507,#1508,#1509);
#1507 = CARTESIAN_POINT('',(-1.9,7.,0.1));
#1508 = DIRECTION('',(0.707106781187,-2.244024213054E-18,0.707106781187)
  );
#1509 = DIRECTION('',(-1.586764738197E-18,-1.,-1.586764738197E-18));
#1510 = ADVANCED_FACE('',(#1511),#1522,.F.);
#1511 = FACE_BOUND('',#1512,.F.);
#1512 = EDGE_LOOP('',(#1513,#1514,#1520,#1521));
#1513 = ORIENTED_EDGE('',*,*,#1466,.F.);
#1514 = ORIENTED_EDGE('',*,*,#1515,.T.);
#1515 = EDGE_CURVE('',#1467,#1492,#1516,.T.);
#1516 = LINE('',#1517,#1518);
#1517 = CARTESIAN_POINT('',(-2.,24.858578643763,3.141421356237));
#1518 = VECTOR('',#1519,1.);
#1519 = DIRECTION('',(0.,-0.707106781187,-0.707106781187));
#1520 = ORIENTED_EDGE('',*,*,#1499,.T.);
#1521 = ORIENTED_EDGE('',*,*,#1061,.F.);
#1522 = PLANE('',#1523);
#1523 = AXIS2_PLACEMENT_3D('',#1524,#1525,#1526);
#1524 = CARTESIAN_POINT('',(-1.9,24.929289321881,3.070710678119));
#1525 = DIRECTION('',(0.707106781187,-0.5,0.5));
#1526 = DIRECTION('',(-5.551115123126E-17,-0.707106781187,
    -0.707106781187));
#1527 = ADVANCED_FACE('',(#1528),#1547,.F.);
#1528 = FACE_BOUND('',#1529,.T.);
#1529 = EDGE_LOOP('',(#1530,#1538,#1545,#1546));
#1530 = ORIENTED_EDGE('',*,*,#1531,.F.);
#1531 = EDGE_CURVE('',#1532,#1076,#1534,.T.);
#1532 = VERTEX_POINT('',#1533);
#1533 = CARTESIAN_POINT('',(-1.5,10.,18.));
#1534 = LINE('',#1535,#1536);
#1535 = CARTESIAN_POINT('',(-1.5,10.,18.));
#1536 = VECTOR('',#1537,1.);
#1537 = DIRECTION('',(1.,0.,0.));
#1538 = ORIENTED_EDGE('',*,*,#1539,.T.);
#1539 = EDGE_CURVE('',#1532,#1532,#1540,.T.);
#1540 = CIRCLE('',#1541,3.);
#1541 = AXIS2_PLACEMENT_3D('',#1542,#1543,#1544);
#1542 = CARTESIAN_POINT('',(-1.5,10.,15.));
#1543 = DIRECTION('',(-1.,0.,0.));
#1544 = DIRECTION('',(0.,0.,1.));
#1545 = ORIENTED_EDGE('',*,*,#1531,.T.);
#1546 = ORIENTED_EDGE('',*,*,#1075,.F.);
#1547 = CYLINDRICAL_SURFACE('',#1548,3.);
#1548 = AXIS2_PLACEMENT_3D('',#1549,#1550,#1551);
#1549 = CARTESIAN_POINT('',(-1.5,10.,15.));
#1550 = DIRECTION('',(1.,0.,0.));
#1551 = DIRECTION('',(0.,0.,1.));
#1552 = ADVANCED_FACE('',(#1553),#1572,.F.);
#1553 = FACE_BOUND('',#1554,.T.);
#1554 = EDGE_LOOP('',(#1555,#1563,#1570,#1571));
#1555 = ORIENTED_EDGE('',*,*,#1556,.F.);
#1556 = EDGE_CURVE('',#1557,#1096,#1559,.T.);
#1557 = VERTEX_POINT('',#1558);
#1558 = CARTESIAN_POINT('',(-1.5,115.,18.));
#1559 = LINE('',#1560,#1561);
#1560 = CARTESIAN_POINT('',(-1.5,115.,18.));
#1561 = VECTOR('',#1562,1.);
#1562 = DIRECTION('',(1.,0.,0.));
#1563 = ORIENTED_EDGE('',*,*,#1564,.T.);
#1564 = EDGE_CURVE('',#1557,#1557,#1565,.T.);
#1565 = CIRCLE('',#1566,3.);
#1566 = AXIS2_PLACEMENT_3D('',#1567,#1568,#1569);
#1567 = CARTESIAN_POINT('',(-1.5,115.,15.));
#1568 = DIRECTION('',(-1.,0.,0.));
#1569 = DIRECTION('',(0.,0.,1.));
#1570 = ORIENTED_EDGE('',*,*,#1556,.T.);
#1571 = ORIENTED_EDGE('',*,*,#1095,.F.);
#1572 = CYLINDRICAL_SURFACE('',#1573,3.);
#1573 = AXIS2_PLACEMENT_3D('',#1574,#1575,#1576);
#1574 = CARTESIAN_POINT('',(-1.5,115.,15.));
#1575 = DIRECTION('',(1.,0.,0.));
#1576 = DIRECTION('',(0.,0.,1.));
#1577 = ADVANCED_FACE('',(#1578,#1597),#1760,.F.);
#1578 = FACE_BOUND('',#1579,.F.);
#1579 = EDGE_LOOP('',(#1580,#1581,#1582,#1583,#1584,#1585,#1586,#1587,
    #1588,#1589,#1590,#1591,#1592,#1593,#1594,#1595,#1596));
#1580 = ORIENTED_EDGE('',*,*,#1124,.F.);
#1581 = ORIENTED_EDGE('',*,*,#1148,.T.);
#1582 = ORIENTED_EDGE('',*,*,#1198,.T.);
#1583 = ORIENTED_EDGE('',*,*,#1247,.T.);
#1584 = ORIENTED_EDGE('',*,*,#1296,.T.);
#1585 = ORIENTED_EDGE('',*,*,#1345,.T.);
#1586 = ORIENTED_EDGE('',*,*,#1394,.T.);
#1587 = ORIENTED_EDGE('',*,*,#1442,.T.);
#1588 = ORIENTED_EDGE('',*,*,#1491,.T.);
#1589 = ORIENTED_EDGE('',*,*,#1515,.F.);
#1590 = ORIENTED_EDGE('',*,*,#1474,.T.);
#1591 = ORIENTED_EDGE('',*,*,#1418,.F.);
#1592 = ORIENTED_EDGE('',*,*,#1370,.F.);
#1593 = ORIENTED_EDGE('',*,*,#1320,.F.);
#1594 = ORIENTED_EDGE('',*,*,#1272,.F.);
#1595 = ORIENTED_EDGE('',*,*,#1222,.F.);
#1596 = ORIENTED_EDGE('',*,*,#1173,.F.);
#1597 = FACE_BOUND('',#1598,.F.);
#1598 = EDGE_LOOP('',(#1599,#1609,#1618,#1627,#1635,#1644,#1652,#1660,
    #1669,#1677,#1686,#1694,#1702,#1711,#1719,#1728,#1736,#1745,#1753));
#1599 = ORIENTED_EDGE('',*,*,#1600,.T.);
#1600 = EDGE_CURVE('',#1601,#1603,#1605,.T.);
#1601 = VERTEX_POINT('',#1602);
#1602 = CARTESIAN_POINT('',(-2.,13.574361668975,34.650468939565));
#1603 = VERTEX_POINT('',#1604);
#1604 = CARTESIAN_POINT('',(-2.,119.66459880024,53.683477678682));
#1605 = LINE('',#1606,#1607);
#1606 = CARTESIAN_POINT('',(-2.,13.574361668975,34.650468939565));
#1607 = VECTOR('',#1608,1.);
#1608 = DIRECTION('',(0.,0.984285446915,0.176584707693));
#1609 = ORIENTED_EDGE('',*,*,#1610,.T.);
#1610 = EDGE_CURVE('',#1603,#1611,#1613,.T.);
#1611 = VERTEX_POINT('',#1612);
#1612 = CARTESIAN_POINT('',(-2.,121.98105121792,52.096377429746));
#1613 = CIRCLE('',#1614,2.);
#1614 = AXIS2_PLACEMENT_3D('',#1615,#1616,#1617);
#1615 = CARTESIAN_POINT('',(-2.,120.01776821563,51.714906784852));
#1616 = DIRECTION('',(-1.,-0.,-0.));
#1617 = DIRECTION('',(0.,0.,-1.));
#1618 = ORIENTED_EDGE('',*,*,#1619,.T.);
#1619 = EDGE_CURVE('',#1611,#1620,#1622,.T.);
#1620 = VERTEX_POINT('',#1621);
#1621 = CARTESIAN_POINT('',(-2.,124.,34.978596282997));
#1622 = CIRCLE('',#1623,115.7738475459);
#1623 = AXIS2_PLACEMENT_3D('',#1624,#1625,#1626);
#1624 = CARTESIAN_POINT('',(-2.,8.332637719575,30.014215287161));
#1625 = DIRECTION('',(-1.,0.,0.));
#1626 = DIRECTION('',(0.,1.,0.));
#1627 = ORIENTED_EDGE('',*,*,#1628,.T.);
#1628 = EDGE_CURVE('',#1620,#1629,#1631,.T.);
#1629 = VERTEX_POINT('',#1630);
#1630 = CARTESIAN_POINT('',(-2.,124.,2.));
#1631 = LINE('',#1632,#1633);
#1632 = CARTESIAN_POINT('',(-2.,124.,34.978596282997));
#1633 = VECTOR('',#1634,1.);
#1634 = DIRECTION('',(0.,0.,-1.));
#1635 = ORIENTED_EDGE('',*,*,#1636,.T.);
#1636 = EDGE_CURVE('',#1629,#1637,#1639,.T.);
#1637 = VERTEX_POINT('',#1638);
#1638 = CARTESIAN_POINT('',(-2.,123.,1.));
#1639 = CIRCLE('',#1640,1.);
#1640 = AXIS2_PLACEMENT_3D('',#1641,#1642,#1643);
#1641 = CARTESIAN_POINT('',(-2.,123.,2.));
#1642 = DIRECTION('',(-1.,-0.,-0.));
#1643 = DIRECTION('',(0.,0.,-1.));
#1644 = ORIENTED_EDGE('',*,*,#1645,.T.);
#1645 = EDGE_CURVE('',#1637,#1646,#1648,.T.);
#1646 = VERTEX_POINT('',#1647);
#1647 = CARTESIAN_POINT('',(-2.,108.41421356237,1.));
#1648 = LINE('',#1649,#1650);
#1649 = CARTESIAN_POINT('',(-2.,123.,1.));
#1650 = VECTOR('',#1651,1.);
#1651 = DIRECTION('',(0.,-1.,-1.37010195019E-16));
#1652 = ORIENTED_EDGE('',*,*,#1653,.T.);
#1653 = EDGE_CURVE('',#1646,#1654,#1656,.T.);
#1654 = VERTEX_POINT('',#1655);
#1655 = CARTESIAN_POINT('',(-2.,105.70710678118,3.707106781187));
#1656 = LINE('',#1657,#1658);
#1657 = CARTESIAN_POINT('',(-2.,108.41421356237,1.));
#1658 = VECTOR('',#1659,1.);
#1659 = DIRECTION('',(0.,-0.707106781187,0.707106781187));
#1660 = ORIENTED_EDGE('',*,*,#1661,.F.);
#1661 = EDGE_CURVE('',#1662,#1654,#1664,.T.);
#1662 = VERTEX_POINT('',#1663);
#1663 = CARTESIAN_POINT('',(-2.,105.,4.));
#1664 = CIRCLE('',#1665,1.);
#1665 = AXIS2_PLACEMENT_3D('',#1666,#1667,#1668);
#1666 = CARTESIAN_POINT('',(-2.,105.,3.));
#1667 = DIRECTION('',(-1.,-0.,0.));
#1668 = DIRECTION('',(-0.,0.707106781187,-0.707106781187));
#1669 = ORIENTED_EDGE('',*,*,#1670,.F.);
#1670 = EDGE_CURVE('',#1671,#1662,#1673,.T.);
#1671 = VERTEX_POINT('',#1672);
#1672 = CARTESIAN_POINT('',(-2.,25.,4.));
#1673 = LINE('',#1674,#1675);
#1674 = CARTESIAN_POINT('',(-2.,25.,4.));
#1675 = VECTOR('',#1676,1.);
#1676 = DIRECTION('',(0.,1.,0.));
#1677 = ORIENTED_EDGE('',*,*,#1678,.F.);
#1678 = EDGE_CURVE('',#1679,#1671,#1681,.T.);
#1679 = VERTEX_POINT('',#1680);
#1680 = CARTESIAN_POINT('',(-2.,24.292893218813,3.707106781187));
#1681 = CIRCLE('',#1682,1.);
#1682 = AXIS2_PLACEMENT_3D('',#1683,#1684,#1685);
#1683 = CARTESIAN_POINT('',(-2.,25.,3.));
#1684 = DIRECTION('',(-1.,0.,0.));
#1685 = DIRECTION('',(0.,1.,0.));
#1686 = ORIENTED_EDGE('',*,*,#1687,.T.);
#1687 = EDGE_CURVE('',#1679,#1688,#1690,.T.);
#1688 = VERTEX_POINT('',#1689);
#1689 = CARTESIAN_POINT('',(-2.,21.585786437627,1.));
#1690 = LINE('',#1691,#1692);
#1691 = CARTESIAN_POINT('',(-2.,24.292893218813,3.707106781187));
#1692 = VECTOR('',#1693,1.);
#1693 = DIRECTION('',(0.,-0.707106781187,-0.707106781187));
#1694 = ORIENTED_EDGE('',*,*,#1695,.T.);
#1695 = EDGE_CURVE('',#1688,#1696,#1698,.T.);
#1696 = VERTEX_POINT('',#1697);
#1697 = CARTESIAN_POINT('',(-2.,7.,1.));
#1698 = LINE('',#1699,#1700);
#1699 = CARTESIAN_POINT('',(-2.,21.585786437627,1.));
#1700 = VECTOR('',#1701,1.);
#1701 = DIRECTION('',(0.,-1.,1.141751625159E-16));
#1702 = ORIENTED_EDGE('',*,*,#1703,.T.);
#1703 = EDGE_CURVE('',#1696,#1704,#1706,.T.);
#1704 = VERTEX_POINT('',#1705);
#1705 = CARTESIAN_POINT('',(-2.,6.,2.));
#1706 = CIRCLE('',#1707,1.);
#1707 = AXIS2_PLACEMENT_3D('',#1708,#1709,#1710);
#1708 = CARTESIAN_POINT('',(-2.,7.,2.));
#1709 = DIRECTION('',(-1.,-0.,-0.));
#1710 = DIRECTION('',(0.,0.,-1.));
#1711 = ORIENTED_EDGE('',*,*,#1712,.F.);
#1712 = EDGE_CURVE('',#1713,#1704,#1715,.T.);
#1713 = VERTEX_POINT('',#1714);
#1714 = CARTESIAN_POINT('',(-2.,6.,23.5));
#1715 = LINE('',#1716,#1717);
#1716 = CARTESIAN_POINT('',(-2.,6.,23.5));
#1717 = VECTOR('',#1718,1.);
#1718 = DIRECTION('',(0.,0.,-1.));
#1719 = ORIENTED_EDGE('',*,*,#1720,.T.);
#1720 = EDGE_CURVE('',#1713,#1721,#1723,.T.);
#1721 = VERTEX_POINT('',#1722);
#1722 = CARTESIAN_POINT('',(-2.,7.,24.5));
#1723 = CIRCLE('',#1724,1.);
#1724 = AXIS2_PLACEMENT_3D('',#1725,#1726,#1727);
#1725 = CARTESIAN_POINT('',(-2.,7.,23.5));
#1726 = DIRECTION('',(-1.,-0.,-0.));
#1727 = DIRECTION('',(0.,0.,-1.));
#1728 = ORIENTED_EDGE('',*,*,#1729,.F.);
#1729 = EDGE_CURVE('',#1730,#1721,#1732,.T.);
#1730 = VERTEX_POINT('',#1731);
#1731 = CARTESIAN_POINT('',(-2.,8.,24.5));
#1732 = LINE('',#1733,#1734);
#1733 = CARTESIAN_POINT('',(-2.,8.,24.5));
#1734 = VECTOR('',#1735,1.);
#1735 = DIRECTION('',(0.,-1.,0.));
#1736 = ORIENTED_EDGE('',*,*,#1737,.F.);
#1737 = EDGE_CURVE('',#1738,#1730,#1740,.T.);
#1738 = VERTEX_POINT('',#1739);
#1739 = CARTESIAN_POINT('',(-2.,13.5,30.));
#1740 = CIRCLE('',#1741,5.5);
#1741 = AXIS2_PLACEMENT_3D('',#1742,#1743,#1744);
#1742 = CARTESIAN_POINT('',(-2.,8.,30.));
#1743 = DIRECTION('',(-1.,0.,0.));
#1744 = DIRECTION('',(0.,-1.,0.));
#1745 = ORIENTED_EDGE('',*,*,#1746,.T.);
#1746 = EDGE_CURVE('',#1738,#1747,#1749,.T.);
#1747 = VERTEX_POINT('',#1748);
#1748 = CARTESIAN_POINT('',(-2.,13.5,34.272059531468));
#1749 = LINE('',#1750,#1751);
#1750 = CARTESIAN_POINT('',(-2.,13.5,30.));
#1751 = VECTOR('',#1752,1.);
#1752 = DIRECTION('',(0.,0.,1.));
#1753 = ORIENTED_EDGE('',*,*,#1754,.T.);
#1754 = EDGE_CURVE('',#1747,#1601,#1755,.T.);
#1755 = CIRCLE('',#1756,1.);
#1756 = AXIS2_PLACEMENT_3D('',#1757,#1758,#1759);
#1757 = CARTESIAN_POINT('',(-2.,14.5,34.272059531468));
#1758 = DIRECTION('',(-1.,-0.,-0.));
#1759 = DIRECTION('',(0.,0.,-1.));
#1760 = PLANE('',#1761);
#1761 = AXIS2_PLACEMENT_3D('',#1762,#1763,#1764);
#1762 = CARTESIAN_POINT('',(-2.,68.682192241023,23.045496283708));
#1763 = DIRECTION('',(1.,0.,0.));
#1764 = DIRECTION('',(0.,0.,1.));
#1765 = ADVANCED_FACE('',(#1766,#1929,#1932),#1935,.F.);
#1766 = FACE_BOUND('',#1767,.F.);
#1767 = EDGE_LOOP('',(#1768,#1778,#1787,#1795,#1804,#1812,#1821,#1829,
    #1838,#1846,#1854,#1863,#1871,#1880,#1888,#1896,#1905,#1913,#1922));
#1768 = ORIENTED_EDGE('',*,*,#1769,.F.);
#1769 = EDGE_CURVE('',#1770,#1772,#1774,.T.);
#1770 = VERTEX_POINT('',#1771);
#1771 = CARTESIAN_POINT('',(-1.5,13.574361668975,34.650468939565));
#1772 = VERTEX_POINT('',#1773);
#1773 = CARTESIAN_POINT('',(-1.5,119.66459880024,53.683477678682));
#1774 = LINE('',#1775,#1776);
#1775 = CARTESIAN_POINT('',(-1.5,13.574361668975,34.650468939565));
#1776 = VECTOR('',#1777,1.);
#1777 = DIRECTION('',(0.,0.984285446915,0.176584707693));
#1778 = ORIENTED_EDGE('',*,*,#1779,.F.);
#1779 = EDGE_CURVE('',#1780,#1770,#1782,.T.);
#1780 = VERTEX_POINT('',#1781);
#1781 = CARTESIAN_POINT('',(-1.5,13.5,34.272059531468));
#1782 = CIRCLE('',#1783,1.);
#1783 = AXIS2_PLACEMENT_3D('',#1784,#1785,#1786);
#1784 = CARTESIAN_POINT('',(-1.5,14.5,34.272059531468));
#1785 = DIRECTION('',(-1.,-0.,-0.));
#1786 = DIRECTION('',(0.,0.,-1.));
#1787 = ORIENTED_EDGE('',*,*,#1788,.F.);
#1788 = EDGE_CURVE('',#1789,#1780,#1791,.T.);
#1789 = VERTEX_POINT('',#1790);
#1790 = CARTESIAN_POINT('',(-1.5,13.5,30.));
#1791 = LINE('',#1792,#1793);
#1792 = CARTESIAN_POINT('',(-1.5,13.5,30.));
#1793 = VECTOR('',#1794,1.);
#1794 = DIRECTION('',(0.,0.,1.));
#1795 = ORIENTED_EDGE('',*,*,#1796,.T.);
#1796 = EDGE_CURVE('',#1789,#1797,#1799,.T.);
#1797 = VERTEX_POINT('',#1798);
#1798 = CARTESIAN_POINT('',(-1.5,8.,24.5));
#1799 = CIRCLE('',#1800,5.5);
#1800 = AXIS2_PLACEMENT_3D('',#1801,#1802,#1803);
#1801 = CARTESIAN_POINT('',(-1.5,8.,30.));
#1802 = DIRECTION('',(-1.,0.,0.));
#1803 = DIRECTION('',(0.,-1.,0.));
#1804 = ORIENTED_EDGE('',*,*,#1805,.T.);
#1805 = EDGE_CURVE('',#1797,#1806,#1808,.T.);
#1806 = VERTEX_POINT('',#1807);
#1807 = CARTESIAN_POINT('',(-1.5,7.,24.5));
#1808 = LINE('',#1809,#1810);
#1809 = CARTESIAN_POINT('',(-1.5,8.,24.5));
#1810 = VECTOR('',#1811,1.);
#1811 = DIRECTION('',(0.,-1.,0.));
#1812 = ORIENTED_EDGE('',*,*,#1813,.F.);
#1813 = EDGE_CURVE('',#1814,#1806,#1816,.T.);
#1814 = VERTEX_POINT('',#1815);
#1815 = CARTESIAN_POINT('',(-1.5,6.,23.5));
#1816 = CIRCLE('',#1817,1.);
#1817 = AXIS2_PLACEMENT_3D('',#1818,#1819,#1820);
#1818 = CARTESIAN_POINT('',(-1.5,7.,23.5));
#1819 = DIRECTION('',(-1.,-0.,-0.));
#1820 = DIRECTION('',(0.,0.,-1.));
#1821 = ORIENTED_EDGE('',*,*,#1822,.T.);
#1822 = EDGE_CURVE('',#1814,#1823,#1825,.T.);
#1823 = VERTEX_POINT('',#1824);
#1824 = CARTESIAN_POINT('',(-1.5,6.,2.));
#1825 = LINE('',#1826,#1827);
#1826 = CARTESIAN_POINT('',(-1.5,6.,23.5));
#1827 = VECTOR('',#1828,1.);
#1828 = DIRECTION('',(0.,0.,-1.));
#1829 = ORIENTED_EDGE('',*,*,#1830,.F.);
#1830 = EDGE_CURVE('',#1831,#1823,#1833,.T.);
#1831 = VERTEX_POINT('',#1832);
#1832 = CARTESIAN_POINT('',(-1.5,7.,1.));
#1833 = CIRCLE('',#1834,1.);
#1834 = AXIS2_PLACEMENT_3D('',#1835,#1836,#1837);
#1835 = CARTESIAN_POINT('',(-1.5,7.,2.));
#1836 = DIRECTION('',(-1.,-0.,-0.));
#1837 = DIRECTION('',(0.,0.,-1.));
#1838 = ORIENTED_EDGE('',*,*,#1839,.F.);
#1839 = EDGE_CURVE('',#1840,#1831,#1842,.T.);
#1840 = VERTEX_POINT('',#1841);
#1841 = CARTESIAN_POINT('',(-1.5,21.585786437627,1.));
#1842 = LINE('',#1843,#1844);
#1843 = CARTESIAN_POINT('',(-1.5,21.585786437627,1.));
#1844 = VECTOR('',#1845,1.);
#1845 = DIRECTION('',(0.,-1.,1.141751625159E-16));
#1846 = ORIENTED_EDGE('',*,*,#1847,.F.);
#1847 = EDGE_CURVE('',#1848,#1840,#1850,.T.);
#1848 = VERTEX_POINT('',#1849);
#1849 = CARTESIAN_POINT('',(-1.5,24.292893218813,3.707106781187));
#1850 = LINE('',#1851,#1852);
#1851 = CARTESIAN_POINT('',(-1.5,24.292893218813,3.707106781187));
#1852 = VECTOR('',#1853,1.);
#1853 = DIRECTION('',(0.,-0.707106781187,-0.707106781187));
#1854 = ORIENTED_EDGE('',*,*,#1855,.T.);
#1855 = EDGE_CURVE('',#1848,#1856,#1858,.T.);
#1856 = VERTEX_POINT('',#1857);
#1857 = CARTESIAN_POINT('',(-1.5,25.,4.));
#1858 = CIRCLE('',#1859,1.);
#1859 = AXIS2_PLACEMENT_3D('',#1860,#1861,#1862);
#1860 = CARTESIAN_POINT('',(-1.5,25.,3.));
#1861 = DIRECTION('',(-1.,0.,0.));
#1862 = DIRECTION('',(0.,1.,0.));
#1863 = ORIENTED_EDGE('',*,*,#1864,.T.);
#1864 = EDGE_CURVE('',#1856,#1865,#1867,.T.);
#1865 = VERTEX_POINT('',#1866);
#1866 = CARTESIAN_POINT('',(-1.5,105.,4.));
#1867 = LINE('',#1868,#1869);
#1868 = CARTESIAN_POINT('',(-1.5,25.,4.));
#1869 = VECTOR('',#1870,1.);
#1870 = DIRECTION('',(0.,1.,0.));
#1871 = ORIENTED_EDGE('',*,*,#1872,.T.);
#1872 = EDGE_CURVE('',#1865,#1873,#1875,.T.);
#1873 = VERTEX_POINT('',#1874);
#1874 = CARTESIAN_POINT('',(-1.5,105.70710678118,3.707106781187));
#1875 = CIRCLE('',#1876,1.);
#1876 = AXIS2_PLACEMENT_3D('',#1877,#1878,#1879);
#1877 = CARTESIAN_POINT('',(-1.5,105.,3.));
#1878 = DIRECTION('',(-1.,-0.,0.));
#1879 = DIRECTION('',(-0.,0.707106781187,-0.707106781187));
#1880 = ORIENTED_EDGE('',*,*,#1881,.F.);
#1881 = EDGE_CURVE('',#1882,#1873,#1884,.T.);
#1882 = VERTEX_POINT('',#1883);
#1883 = CARTESIAN_POINT('',(-1.5,108.41421356237,1.));
#1884 = LINE('',#1885,#1886);
#1885 = CARTESIAN_POINT('',(-1.5,108.41421356237,1.));
#1886 = VECTOR('',#1887,1.);
#1887 = DIRECTION('',(0.,-0.707106781187,0.707106781187));
#1888 = ORIENTED_EDGE('',*,*,#1889,.F.);
#1889 = EDGE_CURVE('',#1890,#1882,#1892,.T.);
#1890 = VERTEX_POINT('',#1891);
#1891 = CARTESIAN_POINT('',(-1.5,123.,1.));
#1892 = LINE('',#1893,#1894);
#1893 = CARTESIAN_POINT('',(-1.5,123.,1.));
#1894 = VECTOR('',#1895,1.);
#1895 = DIRECTION('',(0.,-1.,-1.37010195019E-16));
#1896 = ORIENTED_EDGE('',*,*,#1897,.F.);
#1897 = EDGE_CURVE('',#1898,#1890,#1900,.T.);
#1898 = VERTEX_POINT('',#1899);
#1899 = CARTESIAN_POINT('',(-1.5,124.,2.));
#1900 = CIRCLE('',#1901,1.);
#1901 = AXIS2_PLACEMENT_3D('',#1902,#1903,#1904);
#1902 = CARTESIAN_POINT('',(-1.5,123.,2.));
#1903 = DIRECTION('',(-1.,-0.,-0.));
#1904 = DIRECTION('',(0.,0.,-1.));
#1905 = ORIENTED_EDGE('',*,*,#1906,.F.);
#1906 = EDGE_CURVE('',#1907,#1898,#1909,.T.);
#1907 = VERTEX_POINT('',#1908);
#1908 = CARTESIAN_POINT('',(-1.5,124.,34.978596282997));
#1909 = LINE('',#1910,#1911);
#1910 = CARTESIAN_POINT('',(-1.5,124.,34.978596282997));
#1911 = VECTOR('',#1912,1.);
#1912 = DIRECTION('',(0.,0.,-1.));
#1913 = ORIENTED_EDGE('',*,*,#1914,.F.);
#1914 = EDGE_CURVE('',#1915,#1907,#1917,.T.);
#1915 = VERTEX_POINT('',#1916);
#1916 = CARTESIAN_POINT('',(-1.5,121.98105121792,52.096377429746));
#1917 = CIRCLE('',#1918,115.7738475459);
#1918 = AXIS2_PLACEMENT_3D('',#1919,#1920,#1921);
#1919 = CARTESIAN_POINT('',(-1.5,8.332637719575,30.014215287161));
#1920 = DIRECTION('',(-1.,0.,0.));
#1921 = DIRECTION('',(0.,1.,0.));
#1922 = ORIENTED_EDGE('',*,*,#1923,.F.);
#1923 = EDGE_CURVE('',#1772,#1915,#1924,.T.);
#1924 = CIRCLE('',#1925,2.);
#1925 = AXIS2_PLACEMENT_3D('',#1926,#1927,#1928);
#1926 = CARTESIAN_POINT('',(-1.5,120.01776821563,51.714906784852));
#1927 = DIRECTION('',(-1.,-0.,-0.));
#1928 = DIRECTION('',(0.,0.,-1.));
#1929 = FACE_BOUND('',#1930,.F.);
#1930 = EDGE_LOOP('',(#1931));
#1931 = ORIENTED_EDGE('',*,*,#1564,.T.);
#1932 = FACE_BOUND('',#1933,.F.);
#1933 = EDGE_LOOP('',(#1934));
#1934 = ORIENTED_EDGE('',*,*,#1539,.T.);
#1935 = PLANE('',#1936);
#1936 = AXIS2_PLACEMENT_3D('',#1937,#1938,#1939);
#1937 = CARTESIAN_POINT('',(-1.5,68.542119969793,22.725472871014));
#1938 = DIRECTION('',(1.,0.,0.));
#1939 = DIRECTION('',(0.,0.,1.));
#1940 = ADVANCED_FACE('',(#1941),#1957,.T.);
#1941 = FACE_BOUND('',#1942,.T.);
#1942 = EDGE_LOOP('',(#1943,#1949,#1950,#1956));
#1943 = ORIENTED_EDGE('',*,*,#1944,.T.);
#1944 = EDGE_CURVE('',#1770,#1601,#1945,.T.);
#1945 = LINE('',#1946,#1947);
#1946 = CARTESIAN_POINT('',(-1.5,13.574361668975,34.650468939565));
#1947 = VECTOR('',#1948,1.);
#1948 = DIRECTION('',(-1.,0.,0.));
#1949 = ORIENTED_EDGE('',*,*,#1600,.T.);
#1950 = ORIENTED_EDGE('',*,*,#1951,.F.);
#1951 = EDGE_CURVE('',#1772,#1603,#1952,.T.);
#1952 = LINE('',#1953,#1954);
#1953 = CARTESIAN_POINT('',(-1.5,119.66459880024,53.683477678682));
#1954 = VECTOR('',#1955,1.);
#1955 = DIRECTION('',(-1.,0.,0.));
#1956 = ORIENTED_EDGE('',*,*,#1769,.F.);
#1957 = PLANE('',#1958);
#1958 = AXIS2_PLACEMENT_3D('',#1959,#1960,#1961);
#1959 = CARTESIAN_POINT('',(-1.5,13.574361668975,34.650468939565));
#1960 = DIRECTION('',(0.,0.176584707693,-0.984285446915));
#1961 = DIRECTION('',(0.,0.984285446915,0.176584707693));
#1962 = ADVANCED_FACE('',(#1963),#1974,.F.);
#1963 = FACE_BOUND('',#1964,.T.);
#1964 = EDGE_LOOP('',(#1965,#1966,#1967,#1973));
#1965 = ORIENTED_EDGE('',*,*,#1951,.T.);
#1966 = ORIENTED_EDGE('',*,*,#1610,.T.);
#1967 = ORIENTED_EDGE('',*,*,#1968,.F.);
#1968 = EDGE_CURVE('',#1915,#1611,#1969,.T.);
#1969 = LINE('',#1970,#1971);
#1970 = CARTESIAN_POINT('',(-1.5,121.98105121792,52.096377429746));
#1971 = VECTOR('',#1972,1.);
#1972 = DIRECTION('',(-1.,0.,0.));
#1973 = ORIENTED_EDGE('',*,*,#1923,.F.);
#1974 = CYLINDRICAL_SURFACE('',#1975,2.);
#1975 = AXIS2_PLACEMENT_3D('',#1976,#1977,#1978);
#1976 = CARTESIAN_POINT('',(-1.5,120.01776821563,51.714906784852));
#1977 = DIRECTION('',(1.,0.,0.));
#1978 = DIRECTION('',(0.,0.,-1.));
#1979 = ADVANCED_FACE('',(#1980),#1991,.F.);
#1980 = FACE_BOUND('',#1981,.T.);
#1981 = EDGE_LOOP('',(#1982,#1983,#1984,#1990));
#1982 = ORIENTED_EDGE('',*,*,#1968,.T.);
#1983 = ORIENTED_EDGE('',*,*,#1619,.T.);
#1984 = ORIENTED_EDGE('',*,*,#1985,.F.);
#1985 = EDGE_CURVE('',#1907,#1620,#1986,.T.);
#1986 = LINE('',#1987,#1988);
#1987 = CARTESIAN_POINT('',(-1.5,124.,34.978596282997));
#1988 = VECTOR('',#1989,1.);
#1989 = DIRECTION('',(-1.,0.,0.));
#1990 = ORIENTED_EDGE('',*,*,#1914,.F.);
#1991 = CYLINDRICAL_SURFACE('',#1992,115.7738475459);
#1992 = AXIS2_PLACEMENT_3D('',#1993,#1994,#1995);
#1993 = CARTESIAN_POINT('',(-1.5,8.332637719575,30.014215287161));
#1994 = DIRECTION('',(1.,0.,0.));
#1995 = DIRECTION('',(0.,1.,0.));
#1996 = ADVANCED_FACE('',(#1997),#2008,.T.);
#1997 = FACE_BOUND('',#1998,.T.);
#1998 = EDGE_LOOP('',(#1999,#2000,#2001,#2007));
#1999 = ORIENTED_EDGE('',*,*,#1985,.T.);
#2000 = ORIENTED_EDGE('',*,*,#1628,.T.);
#2001 = ORIENTED_EDGE('',*,*,#2002,.F.);
#2002 = EDGE_CURVE('',#1898,#1629,#2003,.T.);
#2003 = LINE('',#2004,#2005);
#2004 = CARTESIAN_POINT('',(-1.5,124.,2.));
#2005 = VECTOR('',#2006,1.);
#2006 = DIRECTION('',(-1.,0.,0.));
#2007 = ORIENTED_EDGE('',*,*,#1906,.F.);
#2008 = PLANE('',#2009);
#2009 = AXIS2_PLACEMENT_3D('',#2010,#2011,#2012);
#2010 = CARTESIAN_POINT('',(-1.5,124.,34.978596282997));
#2011 = DIRECTION('',(-0.,-1.,-0.));
#2012 = DIRECTION('',(0.,0.,-1.));
#2013 = ADVANCED_FACE('',(#2014),#2025,.F.);
#2014 = FACE_BOUND('',#2015,.T.);
#2015 = EDGE_LOOP('',(#2016,#2017,#2018,#2024));
#2016 = ORIENTED_EDGE('',*,*,#2002,.T.);
#2017 = ORIENTED_EDGE('',*,*,#1636,.T.);
#2018 = ORIENTED_EDGE('',*,*,#2019,.F.);
#2019 = EDGE_CURVE('',#1890,#1637,#2020,.T.);
#2020 = LINE('',#2021,#2022);
#2021 = CARTESIAN_POINT('',(-1.5,123.,1.));
#2022 = VECTOR('',#2023,1.);
#2023 = DIRECTION('',(-1.,0.,0.));
#2024 = ORIENTED_EDGE('',*,*,#1897,.F.);
#2025 = CYLINDRICAL_SURFACE('',#2026,1.);
#2026 = AXIS2_PLACEMENT_3D('',#2027,#2028,#2029);
#2027 = CARTESIAN_POINT('',(-1.5,123.,2.));
#2028 = DIRECTION('',(1.,0.,0.));
#2029 = DIRECTION('',(0.,0.,-1.));
#2030 = ADVANCED_FACE('',(#2031),#2042,.T.);
#2031 = FACE_BOUND('',#2032,.T.);
#2032 = EDGE_LOOP('',(#2033,#2034,#2035,#2041));
#2033 = ORIENTED_EDGE('',*,*,#2019,.T.);
#2034 = ORIENTED_EDGE('',*,*,#1645,.T.);
#2035 = ORIENTED_EDGE('',*,*,#2036,.F.);
#2036 = EDGE_CURVE('',#1882,#1646,#2037,.T.);
#2037 = LINE('',#2038,#2039);
#2038 = CARTESIAN_POINT('',(-1.5,108.41421356237,1.));
#2039 = VECTOR('',#2040,1.);
#2040 = DIRECTION('',(-1.,0.,0.));
#2041 = ORIENTED_EDGE('',*,*,#1889,.F.);
#2042 = PLANE('',#2043);
#2043 = AXIS2_PLACEMENT_3D('',#2044,#2045,#2046);
#2044 = CARTESIAN_POINT('',(-1.5,123.,1.));
#2045 = DIRECTION('',(0.,-1.37010195019E-16,1.));
#2046 = DIRECTION('',(0.,-1.,-1.37010195019E-16));
#2047 = ADVANCED_FACE('',(#2048),#2059,.T.);
#2048 = FACE_BOUND('',#2049,.T.);
#2049 = EDGE_LOOP('',(#2050,#2051,#2052,#2058));
#2050 = ORIENTED_EDGE('',*,*,#2036,.T.);
#2051 = ORIENTED_EDGE('',*,*,#1653,.T.);
#2052 = ORIENTED_EDGE('',*,*,#2053,.F.);
#2053 = EDGE_CURVE('',#1873,#1654,#2054,.T.);
#2054 = LINE('',#2055,#2056);
#2055 = CARTESIAN_POINT('',(-1.5,105.70710678118,3.707106781187));
#2056 = VECTOR('',#2057,1.);
#2057 = DIRECTION('',(-1.,0.,0.));
#2058 = ORIENTED_EDGE('',*,*,#1881,.F.);
#2059 = PLANE('',#2060);
#2060 = AXIS2_PLACEMENT_3D('',#2061,#2062,#2063);
#2061 = CARTESIAN_POINT('',(-1.5,108.41421356237,1.));
#2062 = DIRECTION('',(0.,0.707106781187,0.707106781187));
#2063 = DIRECTION('',(0.,-0.707106781187,0.707106781187));
#2064 = ADVANCED_FACE('',(#2065),#2076,.T.);
#2065 = FACE_BOUND('',#2066,.F.);
#2066 = EDGE_LOOP('',(#2067,#2073,#2074,#2075));
#2067 = ORIENTED_EDGE('',*,*,#2068,.T.);
#2068 = EDGE_CURVE('',#1865,#1662,#2069,.T.);
#2069 = LINE('',#2070,#2071);
#2070 = CARTESIAN_POINT('',(-1.5,105.,4.));
#2071 = VECTOR('',#2072,1.);
#2072 = DIRECTION('',(-1.,0.,0.));
#2073 = ORIENTED_EDGE('',*,*,#1661,.T.);
#2074 = ORIENTED_EDGE('',*,*,#2053,.F.);
#2075 = ORIENTED_EDGE('',*,*,#1872,.F.);
#2076 = CYLINDRICAL_SURFACE('',#2077,1.);
#2077 = AXIS2_PLACEMENT_3D('',#2078,#2079,#2080);
#2078 = CARTESIAN_POINT('',(-1.5,105.,3.));
#2079 = DIRECTION('',(1.,0.,0.));
#2080 = DIRECTION('',(0.,0.707106781187,-0.707106781187));
#2081 = ADVANCED_FACE('',(#2082),#2093,.F.);
#2082 = FACE_BOUND('',#2083,.F.);
#2083 = EDGE_LOOP('',(#2084,#2090,#2091,#2092));
#2084 = ORIENTED_EDGE('',*,*,#2085,.T.);
#2085 = EDGE_CURVE('',#1856,#1671,#2086,.T.);
#2086 = LINE('',#2087,#2088);
#2087 = CARTESIAN_POINT('',(-1.5,25.,4.));
#2088 = VECTOR('',#2089,1.);
#2089 = DIRECTION('',(-1.,0.,0.));
#2090 = ORIENTED_EDGE('',*,*,#1670,.T.);
#2091 = ORIENTED_EDGE('',*,*,#2068,.F.);
#2092 = ORIENTED_EDGE('',*,*,#1864,.F.);
#2093 = PLANE('',#2094);
#2094 = AXIS2_PLACEMENT_3D('',#2095,#2096,#2097);
#2095 = CARTESIAN_POINT('',(-1.5,25.,4.));
#2096 = DIRECTION('',(0.,0.,-1.));
#2097 = DIRECTION('',(0.,1.,0.));
#2098 = ADVANCED_FACE('',(#2099),#2110,.T.);
#2099 = FACE_BOUND('',#2100,.F.);
#2100 = EDGE_LOOP('',(#2101,#2107,#2108,#2109));
#2101 = ORIENTED_EDGE('',*,*,#2102,.T.);
#2102 = EDGE_CURVE('',#1848,#1679,#2103,.T.);
#2103 = LINE('',#2104,#2105);
#2104 = CARTESIAN_POINT('',(-1.5,24.292893218813,3.707106781187));
#2105 = VECTOR('',#2106,1.);
#2106 = DIRECTION('',(-1.,0.,0.));
#2107 = ORIENTED_EDGE('',*,*,#1678,.T.);
#2108 = ORIENTED_EDGE('',*,*,#2085,.F.);
#2109 = ORIENTED_EDGE('',*,*,#1855,.F.);
#2110 = CYLINDRICAL_SURFACE('',#2111,1.);
#2111 = AXIS2_PLACEMENT_3D('',#2112,#2113,#2114);
#2112 = CARTESIAN_POINT('',(-1.5,25.,3.));
#2113 = DIRECTION('',(1.,0.,0.));
#2114 = DIRECTION('',(0.,1.,0.));
#2115 = ADVANCED_FACE('',(#2116),#2127,.T.);
#2116 = FACE_BOUND('',#2117,.T.);
#2117 = EDGE_LOOP('',(#2118,#2119,#2120,#2126));
#2118 = ORIENTED_EDGE('',*,*,#2102,.T.);
#2119 = ORIENTED_EDGE('',*,*,#1687,.T.);
#2120 = ORIENTED_EDGE('',*,*,#2121,.F.);
#2121 = EDGE_CURVE('',#1840,#1688,#2122,.T.);
#2122 = LINE('',#2123,#2124);
#2123 = CARTESIAN_POINT('',(-1.5,21.585786437627,1.));
#2124 = VECTOR('',#2125,1.);
#2125 = DIRECTION('',(-1.,0.,0.));
#2126 = ORIENTED_EDGE('',*,*,#1847,.F.);
#2127 = PLANE('',#2128);
#2128 = AXIS2_PLACEMENT_3D('',#2129,#2130,#2131);
#2129 = CARTESIAN_POINT('',(-1.5,24.292893218813,3.707106781187));
#2130 = DIRECTION('',(0.,-0.707106781187,0.707106781187));
#2131 = DIRECTION('',(0.,-0.707106781187,-0.707106781187));
#2132 = ADVANCED_FACE('',(#2133),#2144,.T.);
#2133 = FACE_BOUND('',#2134,.T.);
#2134 = EDGE_LOOP('',(#2135,#2136,#2137,#2143));
#2135 = ORIENTED_EDGE('',*,*,#2121,.T.);
#2136 = ORIENTED_EDGE('',*,*,#1695,.T.);
#2137 = ORIENTED_EDGE('',*,*,#2138,.F.);
#2138 = EDGE_CURVE('',#1831,#1696,#2139,.T.);
#2139 = LINE('',#2140,#2141);
#2140 = CARTESIAN_POINT('',(-1.5,7.,1.));
#2141 = VECTOR('',#2142,1.);
#2142 = DIRECTION('',(-1.,0.,0.));
#2143 = ORIENTED_EDGE('',*,*,#1839,.F.);
#2144 = PLANE('',#2145);
#2145 = AXIS2_PLACEMENT_3D('',#2146,#2147,#2148);
#2146 = CARTESIAN_POINT('',(-1.5,21.585786437627,1.));
#2147 = DIRECTION('',(0.,1.141751625159E-16,1.));
#2148 = DIRECTION('',(0.,-1.,1.141751625159E-16));
#2149 = ADVANCED_FACE('',(#2150),#2161,.F.);
#2150 = FACE_BOUND('',#2151,.T.);
#2151 = EDGE_LOOP('',(#2152,#2153,#2154,#2160));
#2152 = ORIENTED_EDGE('',*,*,#2138,.T.);
#2153 = ORIENTED_EDGE('',*,*,#1703,.T.);
#2154 = ORIENTED_EDGE('',*,*,#2155,.F.);
#2155 = EDGE_CURVE('',#1823,#1704,#2156,.T.);
#2156 = LINE('',#2157,#2158);
#2157 = CARTESIAN_POINT('',(-1.5,6.,2.));
#2158 = VECTOR('',#2159,1.);
#2159 = DIRECTION('',(-1.,0.,0.));
#2160 = ORIENTED_EDGE('',*,*,#1830,.F.);
#2161 = CYLINDRICAL_SURFACE('',#2162,1.);
#2162 = AXIS2_PLACEMENT_3D('',#2163,#2164,#2165);
#2163 = CARTESIAN_POINT('',(-1.5,7.,2.));
#2164 = DIRECTION('',(1.,0.,0.));
#2165 = DIRECTION('',(0.,0.,-1.));
#2166 = ADVANCED_FACE('',(#2167),#2178,.F.);
#2167 = FACE_BOUND('',#2168,.F.);
#2168 = EDGE_LOOP('',(#2169,#2175,#2176,#2177));
#2169 = ORIENTED_EDGE('',*,*,#2170,.T.);
#2170 = EDGE_CURVE('',#1814,#1713,#2171,.T.);
#2171 = LINE('',#2172,#2173);
#2172 = CARTESIAN_POINT('',(-1.5,6.,23.5));
#2173 = VECTOR('',#2174,1.);
#2174 = DIRECTION('',(-1.,0.,0.));
#2175 = ORIENTED_EDGE('',*,*,#1712,.T.);
#2176 = ORIENTED_EDGE('',*,*,#2155,.F.);
#2177 = ORIENTED_EDGE('',*,*,#1822,.F.);
#2178 = PLANE('',#2179);
#2179 = AXIS2_PLACEMENT_3D('',#2180,#2181,#2182);
#2180 = CARTESIAN_POINT('',(-1.5,6.,23.5));
#2181 = DIRECTION('',(-0.,-1.,-0.));
#2182 = DIRECTION('',(0.,0.,-1.));
#2183 = ADVANCED_FACE('',(#2184),#2195,.F.);
#2184 = FACE_BOUND('',#2185,.T.);
#2185 = EDGE_LOOP('',(#2186,#2187,#2188,#2194));
#2186 = ORIENTED_EDGE('',*,*,#2170,.T.);
#2187 = ORIENTED_EDGE('',*,*,#1720,.T.);
#2188 = ORIENTED_EDGE('',*,*,#2189,.F.);
#2189 = EDGE_CURVE('',#1806,#1721,#2190,.T.);
#2190 = LINE('',#2191,#2192);
#2191 = CARTESIAN_POINT('',(-1.5,7.,24.5));
#2192 = VECTOR('',#2193,1.);
#2193 = DIRECTION('',(-1.,0.,0.));
#2194 = ORIENTED_EDGE('',*,*,#1813,.F.);
#2195 = CYLINDRICAL_SURFACE('',#2196,1.);
#2196 = AXIS2_PLACEMENT_3D('',#2197,#2198,#2199);
#2197 = CARTESIAN_POINT('',(-1.5,7.,23.5));
#2198 = DIRECTION('',(1.,0.,0.));
#2199 = DIRECTION('',(0.,0.,-1.));
#2200 = ADVANCED_FACE('',(#2201),#2212,.F.);
#2201 = FACE_BOUND('',#2202,.F.);
#2202 = EDGE_LOOP('',(#2203,#2209,#2210,#2211));
#2203 = ORIENTED_EDGE('',*,*,#2204,.T.);
#2204 = EDGE_CURVE('',#1797,#1730,#2205,.T.);
#2205 = LINE('',#2206,#2207);
#2206 = CARTESIAN_POINT('',(-1.5,8.,24.5));
#2207 = VECTOR('',#2208,1.);
#2208 = DIRECTION('',(-1.,0.,0.));
#2209 = ORIENTED_EDGE('',*,*,#1729,.T.);
#2210 = ORIENTED_EDGE('',*,*,#2189,.F.);
#2211 = ORIENTED_EDGE('',*,*,#1805,.F.);
#2212 = PLANE('',#2213);
#2213 = AXIS2_PLACEMENT_3D('',#2214,#2215,#2216);
#2214 = CARTESIAN_POINT('',(-1.5,8.,24.5));
#2215 = DIRECTION('',(0.,0.,1.));
#2216 = DIRECTION('',(0.,-1.,0.));
#2217 = ADVANCED_FACE('',(#2218),#2229,.T.);
#2218 = FACE_BOUND('',#2219,.F.);
#2219 = EDGE_LOOP('',(#2220,#2226,#2227,#2228));
#2220 = ORIENTED_EDGE('',*,*,#2221,.T.);
#2221 = EDGE_CURVE('',#1789,#1738,#2222,.T.);
#2222 = LINE('',#2223,#2224);
#2223 = CARTESIAN_POINT('',(-1.5,13.5,30.));
#2224 = VECTOR('',#2225,1.);
#2225 = DIRECTION('',(-1.,0.,0.));
#2226 = ORIENTED_EDGE('',*,*,#1737,.T.);
#2227 = ORIENTED_EDGE('',*,*,#2204,.F.);
#2228 = ORIENTED_EDGE('',*,*,#1796,.F.);
#2229 = CYLINDRICAL_SURFACE('',#2230,5.5);
#2230 = AXIS2_PLACEMENT_3D('',#2231,#2232,#2233);
#2231 = CARTESIAN_POINT('',(-1.5,8.,30.));
#2232 = DIRECTION('',(1.,0.,0.));
#2233 = DIRECTION('',(0.,-1.,0.));
#2234 = ADVANCED_FACE('',(#2235),#2246,.T.);
#2235 = FACE_BOUND('',#2236,.T.);
#2236 = EDGE_LOOP('',(#2237,#2238,#2239,#2245));
#2237 = ORIENTED_EDGE('',*,*,#2221,.T.);
#2238 = ORIENTED_EDGE('',*,*,#1746,.T.);
#2239 = ORIENTED_EDGE('',*,*,#2240,.F.);
#2240 = EDGE_CURVE('',#1780,#1747,#2241,.T.);
#2241 = LINE('',#2242,#2243);
#2242 = CARTESIAN_POINT('',(-1.5,13.5,34.272059531468));
#2243 = VECTOR('',#2244,1.);
#2244 = DIRECTION('',(-1.,0.,0.));
#2245 = ORIENTED_EDGE('',*,*,#1788,.F.);
#2246 = PLANE('',#2247);
#2247 = AXIS2_PLACEMENT_3D('',#2248,#2249,#2250);
#2248 = CARTESIAN_POINT('',(-1.5,13.5,30.));
#2249 = DIRECTION('',(0.,1.,0.));
#2250 = DIRECTION('',(0.,0.,1.));
#2251 = ADVANCED_FACE('',(#2252),#2258,.F.);
#2252 = FACE_BOUND('',#2253,.T.);
#2253 = EDGE_LOOP('',(#2254,#2255,#2256,#2257));
#2254 = ORIENTED_EDGE('',*,*,#2240,.T.);
#2255 = ORIENTED_EDGE('',*,*,#1754,.T.);
#2256 = ORIENTED_EDGE('',*,*,#1944,.F.);
#2257 = ORIENTED_EDGE('',*,*,#1779,.F.);
#2258 = CYLINDRICAL_SURFACE('',#2259,1.);
#2259 = AXIS2_PLACEMENT_3D('',#2260,#2261,#2262);
#2260 = CARTESIAN_POINT('',(-1.5,14.5,34.272059531468));
#2261 = DIRECTION('',(1.,0.,0.));
#2262 = DIRECTION('',(0.,0.,-1.));
#2263 = ( GEOMETRIC_REPRESENTATION_CONTEXT(3) 
GLOBAL_UNCERTAINTY_ASSIGNED_CONTEXT((#2267)) 
GLOBAL_UNIT_ASSIGNED_CONTEXT((#2264,#2265,#2266)) REPRESENTATION_CONTEXT
('Context #1','3D Context with UNIT and UNCERTAINTY') );
#2264 = ( LENGTH_UNIT() NAMED_UNIT(*) SI_UNIT(.MILLI.,.METRE.) );
#2265 = ( NAMED_UNIT(*) PLANE_ANGLE_UNIT() SI_UNIT($,.RADIAN.) );
#2266 = ( NAMED_UNIT(*) SI_UNIT($,.STERADIAN.) SOLID_ANGLE_UNIT() );
#2267 = UNCERTAINTY_MEASURE_WITH_UNIT(LENGTH_MEASURE(2.E-04),#2264,
  'distance_accuracy_value','confusion accuracy');
#2268 = PRODUCT_RELATED_PRODUCT_CATEGORY('part',$,(#7));
#2269 = MECHANICAL_DESIGN_GEOMETRIC_PRESENTATION_REPRESENTATION('',(
    #2270),#2263);
#2270 = STYLED_ITEM('color',(#2271),#15);
#2271 = PRESENTATION_STYLE_ASSIGNMENT((#2272,#2278));
#2272 = SURFACE_STYLE_USAGE(.BOTH.,#2273);
#2273 = SURFACE_SIDE_STYLE('',(#2274));
#2274 = SURFACE_STYLE_FILL_AREA(#2275);
#2275 = FILL_AREA_STYLE('',(#2276));
#2276 = FILL_AREA_STYLE_COLOUR('',#2277);
#2277 = COLOUR_RGB('',0.678431390124,0.709803936702,0.741176476869);
#2278 = CURVE_STYLE('',#2279,POSITIVE_LENGTH_MEASURE(0.1),#2280);
#2279 = DRAUGHTING_PRE_DEFINED_CURVE_FONT('continuous');
#2280 = COLOUR_RGB('',9.803921802644E-02,9.803921802644E-02,
  9.803921802644E-02);
ENDSEC;
END-ISO-10303-21;
