ISO-10303-21;
HEADER;
FILE_DESCRIPTION(('FreeCAD Model'),'2;1');
FILE_NAME('Open CASCADE Shape Model','2026-05-01T22:30:51',(''),(''),
  'Open CASCADE STEP processor 7.8','FreeCAD','Unknown');
FILE_SCHEMA(('AUTOMOTIVE_DESIGN { 1 0 10303 214 1 1 1 1 }'));
ENDSEC;
DATA;
#1 = APPLICATION_PROTOCOL_DEFINITION('international standard',
  'automotive_design',2000,#2);
#2 = APPLICATION_CONTEXT(
  'core data for automotive mechanical design processes');
#3 = SHAPE_DEFINITION_REPRESENTATION(#4,#10);
#4 = PRODUCT_DEFINITION_SHAPE('','',#5);
#5 = PRODUCT_DEFINITION('design','',#6,#9);
#6 = PRODUCT_DEFINITION_FORMATION('','',#7);
#7 = PRODUCT('sunshade','sunshade','',(#8));
#8 = PRODUCT_CONTEXT('',#2,'mechanical');
#9 = PRODUCT_DEFINITION_CONTEXT('part definition',#2,'design');
#10 = ADVANCED_BREP_SHAPE_REPRESENTATION('',(#11,#15),#2077);
#11 = AXIS2_PLACEMENT_3D('',#12,#13,#14);
#12 = CARTESIAN_POINT('',(0.,0.,0.));
#13 = DIRECTION('',(0.,0.,1.));
#14 = DIRECTION('',(1.,0.,-0.));
#15 = MANIFOLD_SOLID_BREP('',#16);
#16 = CLOSED_SHELL('',(#17,#65,#96,#127,#160,#199,#230,#261,#294,#327,
    #360,#391,#422,#455,#488,#519,#550,#574,#598,#629,#653,#678,#702,
    #726,#750,#775,#800,#825,#849,#873,#898,#923,#947,#971,#989,#1013,
    #1262,#1279,#1296,#1313,#1330,#1347,#1364,#1381,#1398,#1415,#1432,
    #1449,#1466,#1478,#1509,#1534,#1559,#1584,#1616,#1640,#1664,#1689,
    #1713,#1738,#1762,#1786,#1810,#1835,#1852,#1899,#1924,#1944,#1969,
    #1994,#2014,#2046));
#17 = ADVANCED_FACE('',(#18),#60,.T.);
#18 = FACE_BOUND('',#19,.T.);
#19 = EDGE_LOOP('',(#20,#30,#38,#46,#54));
#20 = ORIENTED_EDGE('',*,*,#21,.F.);
#21 = EDGE_CURVE('',#22,#24,#26,.T.);
#22 = VERTEX_POINT('',#23);
#23 = CARTESIAN_POINT('',(-0.2,108.,0.));
#24 = VERTEX_POINT('',#25);
#25 = CARTESIAN_POINT('',(-1.8,108.,0.));
#26 = LINE('',#27,#28);
#27 = CARTESIAN_POINT('',(0.,108.,0.));
#28 = VECTOR('',#29,1.);
#29 = DIRECTION('',(-1.,0.,0.));
#30 = ORIENTED_EDGE('',*,*,#31,.F.);
#31 = EDGE_CURVE('',#32,#22,#34,.T.);
#32 = VERTEX_POINT('',#33);
#33 = CARTESIAN_POINT('',(0.,107.8,0.2));
#34 = LINE('',#35,#36);
#35 = CARTESIAN_POINT('',(0.2,107.6,0.4));
#36 = VECTOR('',#37,1.);
#37 = DIRECTION('',(-0.57735026919,0.57735026919,-0.57735026919));
#38 = ORIENTED_EDGE('',*,*,#39,.T.);
#39 = EDGE_CURVE('',#32,#40,#42,.T.);
#40 = VERTEX_POINT('',#41);
#41 = CARTESIAN_POINT('',(0.,105.,3.));
#42 = LINE('',#43,#44);
#43 = CARTESIAN_POINT('',(0.,108.,0.));
#44 = VECTOR('',#45,1.);
#45 = DIRECTION('',(0.,-0.707106781187,0.707106781187));
#46 = ORIENTED_EDGE('',*,*,#47,.T.);
#47 = EDGE_CURVE('',#40,#48,#50,.T.);
#48 = VERTEX_POINT('',#49);
#49 = CARTESIAN_POINT('',(-1.8,105.,3.));
#50 = LINE('',#51,#52);
#51 = CARTESIAN_POINT('',(0.,105.,3.));
#52 = VECTOR('',#53,1.);
#53 = DIRECTION('',(-1.,0.,0.));
#54 = ORIENTED_EDGE('',*,*,#55,.F.);
#55 = EDGE_CURVE('',#24,#48,#56,.T.);
#56 = LINE('',#57,#58);
#57 = CARTESIAN_POINT('',(-1.8,108.,-7.98E-15));
#58 = VECTOR('',#59,1.);
#59 = DIRECTION('',(0.,-0.707106781187,0.707106781187));
#60 = PLANE('',#61);
#61 = AXIS2_PLACEMENT_3D('',#62,#63,#64);
#62 = CARTESIAN_POINT('',(-1.,106.5,1.5));
#63 = DIRECTION('',(-0.,-0.707106781187,-0.707106781187));
#64 = DIRECTION('',(0.,-0.707106781187,0.707106781187));
#65 = ADVANCED_FACE('',(#66),#91,.T.);
#66 = FACE_BOUND('',#67,.F.);
#67 = EDGE_LOOP('',(#68,#69,#77,#85));
#68 = ORIENTED_EDGE('',*,*,#31,.F.);
#69 = ORIENTED_EDGE('',*,*,#70,.T.);
#70 = EDGE_CURVE('',#32,#71,#73,.T.);
#71 = VERTEX_POINT('',#72);
#72 = CARTESIAN_POINT('',(0.,123.,0.2));
#73 = LINE('',#74,#75);
#74 = CARTESIAN_POINT('',(0.,108.,0.2));
#75 = VECTOR('',#76,1.);
#76 = DIRECTION('',(0.,1.,0.));
#77 = ORIENTED_EDGE('',*,*,#78,.T.);
#78 = EDGE_CURVE('',#71,#79,#81,.T.);
#79 = VERTEX_POINT('',#80);
#80 = CARTESIAN_POINT('',(-0.2,123.,0.));
#81 = LINE('',#82,#83);
#82 = CARTESIAN_POINT('',(-0.1,123.,0.1));
#83 = VECTOR('',#84,1.);
#84 = DIRECTION('',(-0.707106781187,0.,-0.707106781187));
#85 = ORIENTED_EDGE('',*,*,#86,.F.);
#86 = EDGE_CURVE('',#22,#79,#87,.T.);
#87 = LINE('',#88,#89);
#88 = CARTESIAN_POINT('',(-0.2,108.,-1.E-17));
#89 = VECTOR('',#90,1.);
#90 = DIRECTION('',(0.,1.,0.));
#91 = PLANE('',#92);
#92 = AXIS2_PLACEMENT_3D('',#93,#94,#95);
#93 = CARTESIAN_POINT('',(-0.1,108.,0.1));
#94 = DIRECTION('',(0.707106781187,0.,-0.707106781187));
#95 = DIRECTION('',(-0.,-1.,-0.));
#96 = ADVANCED_FACE('',(#97),#122,.T.);
#97 = FACE_BOUND('',#98,.T.);
#98 = EDGE_LOOP('',(#99,#109,#115,#116));
#99 = ORIENTED_EDGE('',*,*,#100,.T.);
#100 = EDGE_CURVE('',#101,#103,#105,.T.);
#101 = VERTEX_POINT('',#102);
#102 = CARTESIAN_POINT('',(0.,25.,3.));
#103 = VERTEX_POINT('',#104);
#104 = CARTESIAN_POINT('',(-1.8,25.,3.));
#105 = LINE('',#106,#107);
#106 = CARTESIAN_POINT('',(0.,25.,3.));
#107 = VECTOR('',#108,1.);
#108 = DIRECTION('',(-1.,0.,0.));
#109 = ORIENTED_EDGE('',*,*,#110,.T.);
#110 = EDGE_CURVE('',#103,#48,#111,.T.);
#111 = LINE('',#112,#113);
#112 = CARTESIAN_POINT('',(-1.8,25.,3.));
#113 = VECTOR('',#114,1.);
#114 = DIRECTION('',(0.,1.,0.));
#115 = ORIENTED_EDGE('',*,*,#47,.F.);
#116 = ORIENTED_EDGE('',*,*,#117,.F.);
#117 = EDGE_CURVE('',#101,#40,#118,.T.);
#118 = LINE('',#119,#120);
#119 = CARTESIAN_POINT('',(0.,25.,3.));
#120 = VECTOR('',#121,1.);
#121 = DIRECTION('',(0.,1.,0.));
#122 = PLANE('',#123);
#123 = AXIS2_PLACEMENT_3D('',#124,#125,#126);
#124 = CARTESIAN_POINT('',(-1.,65.,3.));
#125 = DIRECTION('',(-0.,-0.,-1.));
#126 = DIRECTION('',(-1.,0.,0.));
#127 = ADVANCED_FACE('',(#128),#155,.T.);
#128 = FACE_BOUND('',#129,.F.);
#129 = EDGE_LOOP('',(#130,#131,#140,#148));
#130 = ORIENTED_EDGE('',*,*,#78,.F.);
#131 = ORIENTED_EDGE('',*,*,#132,.T.);
#132 = EDGE_CURVE('',#71,#133,#135,.T.);
#133 = VERTEX_POINT('',#134);
#134 = CARTESIAN_POINT('',(0.,124.8,2.));
#135 = CIRCLE('',#136,1.8);
#136 = AXIS2_PLACEMENT_3D('',#137,#138,#139);
#137 = CARTESIAN_POINT('',(0.,123.,2.));
#138 = DIRECTION('',(1.,-0.,0.));
#139 = DIRECTION('',(0.,0.,-1.));
#140 = ORIENTED_EDGE('',*,*,#141,.T.);
#141 = EDGE_CURVE('',#133,#142,#144,.T.);
#142 = VERTEX_POINT('',#143);
#143 = CARTESIAN_POINT('',(-0.2,125.,2.));
#144 = LINE('',#145,#146);
#145 = CARTESIAN_POINT('',(-0.2,125.,2.));
#146 = VECTOR('',#147,1.);
#147 = DIRECTION('',(-0.707106781187,0.707106781187,-4.E-17));
#148 = ORIENTED_EDGE('',*,*,#149,.F.);
#149 = EDGE_CURVE('',#79,#142,#150,.T.);
#150 = CIRCLE('',#151,2.);
#151 = AXIS2_PLACEMENT_3D('',#152,#153,#154);
#152 = CARTESIAN_POINT('',(-0.2,123.,2.));
#153 = DIRECTION('',(1.,-0.,0.));
#154 = DIRECTION('',(0.,0.,-1.));
#155 = CONICAL_SURFACE('',#156,2.,0.785398163397);
#156 = AXIS2_PLACEMENT_3D('',#157,#158,#159);
#157 = CARTESIAN_POINT('',(-0.2,123.,2.));
#158 = DIRECTION('',(-1.,0.,0.));
#159 = DIRECTION('',(0.,0.,-1.));
#160 = ADVANCED_FACE('',(#161),#194,.T.);
#161 = FACE_BOUND('',#162,.T.);
#162 = EDGE_LOOP('',(#163,#164,#172,#180,#188));
#163 = ORIENTED_EDGE('',*,*,#100,.F.);
#164 = ORIENTED_EDGE('',*,*,#165,.T.);
#165 = EDGE_CURVE('',#101,#166,#168,.T.);
#166 = VERTEX_POINT('',#167);
#167 = CARTESIAN_POINT('',(0.,22.2,0.2));
#168 = LINE('',#169,#170);
#169 = CARTESIAN_POINT('',(0.,25.,3.));
#170 = VECTOR('',#171,1.);
#171 = DIRECTION('',(0.,-0.707106781187,-0.707106781187));
#172 = ORIENTED_EDGE('',*,*,#173,.T.);
#173 = EDGE_CURVE('',#166,#174,#176,.T.);
#174 = VERTEX_POINT('',#175);
#175 = CARTESIAN_POINT('',(-0.2,22.,0.));
#176 = LINE('',#177,#178);
#177 = CARTESIAN_POINT('',(-2.3,19.9,-2.1));
#178 = VECTOR('',#179,1.);
#179 = DIRECTION('',(-0.57735026919,-0.57735026919,-0.57735026919));
#180 = ORIENTED_EDGE('',*,*,#181,.T.);
#181 = EDGE_CURVE('',#174,#182,#184,.T.);
#182 = VERTEX_POINT('',#183);
#183 = CARTESIAN_POINT('',(-1.8,22.,0.));
#184 = LINE('',#185,#186);
#185 = CARTESIAN_POINT('',(-1.5,22.,3.E-17));
#186 = VECTOR('',#187,1.);
#187 = DIRECTION('',(-1.,0.,0.));
#188 = ORIENTED_EDGE('',*,*,#189,.F.);
#189 = EDGE_CURVE('',#103,#182,#190,.T.);
#190 = LINE('',#191,#192);
#191 = CARTESIAN_POINT('',(-1.8,25.,3.));
#192 = VECTOR('',#193,1.);
#193 = DIRECTION('',(0.,-0.707106781187,-0.707106781187));
#194 = PLANE('',#195);
#195 = AXIS2_PLACEMENT_3D('',#196,#197,#198);
#196 = CARTESIAN_POINT('',(-1.,23.5,1.5));
#197 = DIRECTION('',(0.,0.707106781187,-0.707106781187));
#198 = DIRECTION('',(0.,0.707106781187,0.707106781187));
#199 = ADVANCED_FACE('',(#200),#225,.T.);
#200 = FACE_BOUND('',#201,.F.);
#201 = EDGE_LOOP('',(#202,#203,#211,#219));
#202 = ORIENTED_EDGE('',*,*,#141,.F.);
#203 = ORIENTED_EDGE('',*,*,#204,.T.);
#204 = EDGE_CURVE('',#133,#205,#207,.T.);
#205 = VERTEX_POINT('',#206);
#206 = CARTESIAN_POINT('',(1.4E-14,124.8,35.));
#207 = LINE('',#208,#209);
#208 = CARTESIAN_POINT('',(0.,124.8,2.));
#209 = VECTOR('',#210,1.);
#210 = DIRECTION('',(0.,0.,1.));
#211 = ORIENTED_EDGE('',*,*,#212,.T.);
#212 = EDGE_CURVE('',#205,#213,#215,.T.);
#213 = VERTEX_POINT('',#214);
#214 = CARTESIAN_POINT('',(-0.2,125.,35.));
#215 = LINE('',#216,#217);
#216 = CARTESIAN_POINT('',(-1.E-01,124.9,35.));
#217 = VECTOR('',#218,1.);
#218 = DIRECTION('',(-0.707106781187,0.707106781187,0.));
#219 = ORIENTED_EDGE('',*,*,#220,.F.);
#220 = EDGE_CURVE('',#142,#213,#221,.T.);
#221 = LINE('',#222,#223);
#222 = CARTESIAN_POINT('',(-0.2,125.,2.));
#223 = VECTOR('',#224,1.);
#224 = DIRECTION('',(0.,0.,1.));
#225 = PLANE('',#226);
#226 = AXIS2_PLACEMENT_3D('',#227,#228,#229);
#227 = CARTESIAN_POINT('',(-0.1,124.9,2.));
#228 = DIRECTION('',(0.707106781187,0.707106781187,0.));
#229 = DIRECTION('',(-0.,-0.,-1.));
#230 = ADVANCED_FACE('',(#231),#256,.T.);
#231 = FACE_BOUND('',#232,.F.);
#232 = EDGE_LOOP('',(#233,#243,#249,#250));
#233 = ORIENTED_EDGE('',*,*,#234,.F.);
#234 = EDGE_CURVE('',#235,#237,#239,.T.);
#235 = VERTEX_POINT('',#236);
#236 = CARTESIAN_POINT('',(0.,7.,0.2));
#237 = VERTEX_POINT('',#238);
#238 = CARTESIAN_POINT('',(-0.2,7.,0.));
#239 = LINE('',#240,#241);
#240 = CARTESIAN_POINT('',(-0.2,7.,0.));
#241 = VECTOR('',#242,1.);
#242 = DIRECTION('',(-0.707106781187,-4.E-17,-0.707106781187));
#243 = ORIENTED_EDGE('',*,*,#244,.T.);
#244 = EDGE_CURVE('',#235,#166,#245,.T.);
#245 = LINE('',#246,#247);
#246 = CARTESIAN_POINT('',(0.,7.,0.2));
#247 = VECTOR('',#248,1.);
#248 = DIRECTION('',(0.,1.,0.));
#249 = ORIENTED_EDGE('',*,*,#173,.T.);
#250 = ORIENTED_EDGE('',*,*,#251,.F.);
#251 = EDGE_CURVE('',#237,#174,#252,.T.);
#252 = LINE('',#253,#254);
#253 = CARTESIAN_POINT('',(-0.2,7.,-1.E-17));
#254 = VECTOR('',#255,1.);
#255 = DIRECTION('',(0.,1.,0.));
#256 = PLANE('',#257);
#257 = AXIS2_PLACEMENT_3D('',#258,#259,#260);
#258 = CARTESIAN_POINT('',(-0.1,7.,0.1));
#259 = DIRECTION('',(0.707106781187,0.,-0.707106781187));
#260 = DIRECTION('',(-0.,-1.,-0.));
#261 = ADVANCED_FACE('',(#262),#289,.T.);
#262 = FACE_BOUND('',#263,.F.);
#263 = EDGE_LOOP('',(#264,#265,#274,#282));
#264 = ORIENTED_EDGE('',*,*,#212,.F.);
#265 = ORIENTED_EDGE('',*,*,#266,.T.);
#266 = EDGE_CURVE('',#205,#267,#269,.T.);
#267 = VERTEX_POINT('',#268);
#268 = CARTESIAN_POINT('',(0.,84.800082248183,118.00394115854));
#269 = CIRCLE('',#270,116.5738475459);
#270 = AXIS2_PLACEMENT_3D('',#271,#272,#273);
#271 = CARTESIAN_POINT('',(0.,8.332637719575,30.014215287161));
#272 = DIRECTION('',(1.,0.,-0.));
#273 = DIRECTION('',(0.,0.999088106903,4.269607294458E-02));
#274 = ORIENTED_EDGE('',*,*,#275,.T.);
#275 = EDGE_CURVE('',#267,#276,#278,.T.);
#276 = VERTEX_POINT('',#277);
#277 = CARTESIAN_POINT('',(-0.2,84.931273670853,118.15490079095));
#278 = LINE('',#279,#280);
#279 = CARTESIAN_POINT('',(-0.2,84.931273670853,118.15490079095));
#280 = VECTOR('',#281,1.);
#281 = DIRECTION('',(-0.707106781187,0.463831723019,0.533722898817));
#282 = ORIENTED_EDGE('',*,*,#283,.F.);
#283 = EDGE_CURVE('',#213,#276,#284,.T.);
#284 = CIRCLE('',#285,116.7738475459);
#285 = AXIS2_PLACEMENT_3D('',#286,#287,#288);
#286 = CARTESIAN_POINT('',(-0.2,8.332637719575,30.014215287161));
#287 = DIRECTION('',(1.,0.,-0.));
#288 = DIRECTION('',(0.,0.999088106903,4.269607294458E-02));
#289 = CONICAL_SURFACE('',#290,116.7738475459,0.785398163397);
#290 = AXIS2_PLACEMENT_3D('',#291,#292,#293);
#291 = CARTESIAN_POINT('',(-0.2,8.332637719575,30.014215287161));
#292 = DIRECTION('',(-1.,0.,0.));
#293 = DIRECTION('',(0.,0.999088106903,4.269607294458E-02));
#294 = ADVANCED_FACE('',(#295),#322,.T.);
#295 = FACE_BOUND('',#296,.F.);
#296 = EDGE_LOOP('',(#297,#307,#314,#315));
#297 = ORIENTED_EDGE('',*,*,#298,.F.);
#298 = EDGE_CURVE('',#299,#301,#303,.T.);
#299 = VERTEX_POINT('',#300);
#300 = CARTESIAN_POINT('',(0.,5.2,2.));
#301 = VERTEX_POINT('',#302);
#302 = CARTESIAN_POINT('',(-0.2,5.,2.));
#303 = LINE('',#304,#305);
#304 = CARTESIAN_POINT('',(-0.1,5.1,2.));
#305 = VECTOR('',#306,1.);
#306 = DIRECTION('',(-0.707106781187,-0.707106781187,-0.));
#307 = ORIENTED_EDGE('',*,*,#308,.T.);
#308 = EDGE_CURVE('',#299,#235,#309,.T.);
#309 = CIRCLE('',#310,1.8);
#310 = AXIS2_PLACEMENT_3D('',#311,#312,#313);
#311 = CARTESIAN_POINT('',(0.,7.,2.));
#312 = DIRECTION('',(1.,0.,0.));
#313 = DIRECTION('',(0.,-1.,0.));
#314 = ORIENTED_EDGE('',*,*,#234,.T.);
#315 = ORIENTED_EDGE('',*,*,#316,.F.);
#316 = EDGE_CURVE('',#301,#237,#317,.T.);
#317 = CIRCLE('',#318,2.);
#318 = AXIS2_PLACEMENT_3D('',#319,#320,#321);
#319 = CARTESIAN_POINT('',(-0.2,7.,2.));
#320 = DIRECTION('',(1.,0.,0.));
#321 = DIRECTION('',(0.,-1.,0.));
#322 = CONICAL_SURFACE('',#323,2.,0.785398163397);
#323 = AXIS2_PLACEMENT_3D('',#324,#325,#326);
#324 = CARTESIAN_POINT('',(-0.2,7.,2.));
#325 = DIRECTION('',(-1.,0.,0.));
#326 = DIRECTION('',(0.,-1.,0.));
#327 = ADVANCED_FACE('',(#328),#355,.T.);
#328 = FACE_BOUND('',#329,.F.);
#329 = EDGE_LOOP('',(#330,#331,#340,#348));
#330 = ORIENTED_EDGE('',*,*,#275,.F.);
#331 = ORIENTED_EDGE('',*,*,#332,.T.);
#332 = EDGE_CURVE('',#267,#333,#335,.T.);
#333 = VERTEX_POINT('',#334);
#334 = CARTESIAN_POINT('',(-1.E-15,82.240479446534,117.80232216427));
#335 = CIRCLE('',#336,1.8);
#336 = AXIS2_PLACEMENT_3D('',#337,#338,#339);
#337 = CARTESIAN_POINT('',(0.,83.619359444148,116.64530446684));
#338 = DIRECTION('',(1.,0.,-0.));
#339 = DIRECTION('',(0.,0.655957113353,0.754798162055));
#340 = ORIENTED_EDGE('',*,*,#341,.T.);
#341 = EDGE_CURVE('',#333,#342,#344,.T.);
#342 = VERTEX_POINT('',#343);
#343 = CARTESIAN_POINT('',(-0.2,82.08727055791,117.93087968621));
#344 = LINE('',#345,#346);
#345 = CARTESIAN_POINT('',(-0.2,82.08727055791,117.93087968621));
#346 = VECTOR('',#347,1.);
#347 = DIRECTION('',(-0.707106781187,-0.54167522042,0.454519477672));
#348 = ORIENTED_EDGE('',*,*,#349,.F.);
#349 = EDGE_CURVE('',#276,#342,#350,.T.);
#350 = CIRCLE('',#351,2.);
#351 = AXIS2_PLACEMENT_3D('',#352,#353,#354);
#352 = CARTESIAN_POINT('',(-0.2,83.619359444148,116.64530446684));
#353 = DIRECTION('',(1.,0.,-0.));
#354 = DIRECTION('',(0.,0.655957113353,0.754798162055));
#355 = CONICAL_SURFACE('',#356,2.,0.785398163397);
#356 = AXIS2_PLACEMENT_3D('',#357,#358,#359);
#357 = CARTESIAN_POINT('',(-0.2,83.619359444148,116.64530446684));
#358 = DIRECTION('',(-1.,0.,0.));
#359 = DIRECTION('',(0.,0.655957113353,0.754798162055));
#360 = ADVANCED_FACE('',(#361),#386,.T.);
#361 = FACE_BOUND('',#362,.F.);
#362 = EDGE_LOOP('',(#363,#373,#379,#380));
#363 = ORIENTED_EDGE('',*,*,#364,.F.);
#364 = EDGE_CURVE('',#365,#367,#369,.T.);
#365 = VERTEX_POINT('',#366);
#366 = CARTESIAN_POINT('',(0.,5.2,23.5));
#367 = VERTEX_POINT('',#368);
#368 = CARTESIAN_POINT('',(-0.2,5.,23.5));
#369 = LINE('',#370,#371);
#370 = CARTESIAN_POINT('',(-0.2,5.,23.5));
#371 = VECTOR('',#372,1.);
#372 = DIRECTION('',(-0.707106781187,-0.707106781187,4.E-17));
#373 = ORIENTED_EDGE('',*,*,#374,.T.);
#374 = EDGE_CURVE('',#365,#299,#375,.T.);
#375 = LINE('',#376,#377);
#376 = CARTESIAN_POINT('',(0.,5.2,23.5));
#377 = VECTOR('',#378,1.);
#378 = DIRECTION('',(0.,0.,-1.));
#379 = ORIENTED_EDGE('',*,*,#298,.T.);
#380 = ORIENTED_EDGE('',*,*,#381,.F.);
#381 = EDGE_CURVE('',#367,#301,#382,.T.);
#382 = LINE('',#383,#384);
#383 = CARTESIAN_POINT('',(-0.2,5.,23.5));
#384 = VECTOR('',#385,1.);
#385 = DIRECTION('',(0.,0.,-1.));
#386 = PLANE('',#387);
#387 = AXIS2_PLACEMENT_3D('',#388,#389,#390);
#388 = CARTESIAN_POINT('',(-0.1,5.1,23.5));
#389 = DIRECTION('',(0.707106781187,-0.707106781187,0.));
#390 = DIRECTION('',(0.,0.,1.));
#391 = ADVANCED_FACE('',(#392),#417,.T.);
#392 = FACE_BOUND('',#393,.F.);
#393 = EDGE_LOOP('',(#394,#395,#403,#411));
#394 = ORIENTED_EDGE('',*,*,#341,.F.);
#395 = ORIENTED_EDGE('',*,*,#396,.T.);
#396 = EDGE_CURVE('',#333,#397,#399,.T.);
#397 = VERTEX_POINT('',#398);
#398 = CARTESIAN_POINT('',(1.3E-14,13.121120002386,35.429077228903));
#399 = LINE('',#400,#401);
#400 = CARTESIAN_POINT('',(0.,82.240479446534,117.80232216427));
#401 = VECTOR('',#402,1.);
#402 = DIRECTION('',(0.,-0.642787609687,-0.766044443119));
#403 = ORIENTED_EDGE('',*,*,#404,.T.);
#404 = EDGE_CURVE('',#397,#405,#407,.T.);
#405 = VERTEX_POINT('',#406);
#406 = CARTESIAN_POINT('',(-0.2,12.967911113762,35.557634750841));
#407 = LINE('',#408,#409);
#408 = CARTESIAN_POINT('',(-9.999999999999E-02,13.044515558074,
    35.493355989872));
#409 = VECTOR('',#410,1.);
#410 = DIRECTION('',(-0.707106781187,-0.54167522042,0.454519477672));
#411 = ORIENTED_EDGE('',*,*,#412,.F.);
#412 = EDGE_CURVE('',#342,#405,#413,.T.);
#413 = LINE('',#414,#415);
#414 = CARTESIAN_POINT('',(-0.2,82.08727055791,117.93087968621));
#415 = VECTOR('',#416,1.);
#416 = DIRECTION('',(0.,-0.642787609687,-0.766044443119));
#417 = PLANE('',#418);
#418 = AXIS2_PLACEMENT_3D('',#419,#420,#421);
#419 = CARTESIAN_POINT('',(-0.1,82.163875002222,117.86660092524));
#420 = DIRECTION('',(0.707106781187,-0.54167522042,0.454519477672));
#421 = DIRECTION('',(-6.761273633144E-17,0.642787609687,0.766044443119)
  );
#422 = ADVANCED_FACE('',(#423),#450,.T.);
#423 = FACE_BOUND('',#424,.F.);
#424 = EDGE_LOOP('',(#425,#435,#442,#443));
#425 = ORIENTED_EDGE('',*,*,#426,.F.);
#426 = EDGE_CURVE('',#427,#429,#431,.T.);
#427 = VERTEX_POINT('',#428);
#428 = CARTESIAN_POINT('',(0.,7.,25.3));
#429 = VERTEX_POINT('',#430);
#430 = CARTESIAN_POINT('',(-0.2,7.,25.5));
#431 = LINE('',#432,#433);
#432 = CARTESIAN_POINT('',(-0.1,7.,25.4));
#433 = VECTOR('',#434,1.);
#434 = DIRECTION('',(-0.707106781187,0.,0.707106781187));
#435 = ORIENTED_EDGE('',*,*,#436,.T.);
#436 = EDGE_CURVE('',#427,#365,#437,.T.);
#437 = CIRCLE('',#438,1.8);
#438 = AXIS2_PLACEMENT_3D('',#439,#440,#441);
#439 = CARTESIAN_POINT('',(0.,7.,23.5));
#440 = DIRECTION('',(1.,0.,-0.));
#441 = DIRECTION('',(0.,0.,1.));
#442 = ORIENTED_EDGE('',*,*,#364,.T.);
#443 = ORIENTED_EDGE('',*,*,#444,.F.);
#444 = EDGE_CURVE('',#429,#367,#445,.T.);
#445 = CIRCLE('',#446,2.);
#446 = AXIS2_PLACEMENT_3D('',#447,#448,#449);
#447 = CARTESIAN_POINT('',(-0.2,7.,23.5));
#448 = DIRECTION('',(1.,0.,-0.));
#449 = DIRECTION('',(0.,0.,1.));
#450 = CONICAL_SURFACE('',#451,2.,0.785398163397);
#451 = AXIS2_PLACEMENT_3D('',#452,#453,#454);
#452 = CARTESIAN_POINT('',(-0.2,7.,23.5));
#453 = DIRECTION('',(-1.,0.,0.));
#454 = DIRECTION('',(0.,0.,1.));
#455 = ADVANCED_FACE('',(#456),#483,.T.);
#456 = FACE_BOUND('',#457,.F.);
#457 = EDGE_LOOP('',(#458,#459,#468,#476));
#458 = ORIENTED_EDGE('',*,*,#404,.F.);
#459 = ORIENTED_EDGE('',*,*,#460,.T.);
#460 = EDGE_CURVE('',#397,#461,#463,.T.);
#461 = VERTEX_POINT('',#462);
#462 = CARTESIAN_POINT('',(-1.E-15,12.7,34.272059531468));
#463 = CIRCLE('',#464,1.8);
#464 = AXIS2_PLACEMENT_3D('',#465,#466,#467);
#465 = CARTESIAN_POINT('',(0.,14.5,34.272059531468));
#466 = DIRECTION('',(1.,0.,0.));
#467 = DIRECTION('',(0.,-0.766044443119,0.642787609687));
#468 = ORIENTED_EDGE('',*,*,#469,.T.);
#469 = EDGE_CURVE('',#461,#470,#472,.T.);
#470 = VERTEX_POINT('',#471);
#471 = CARTESIAN_POINT('',(-0.2,12.5,34.272059531468));
#472 = LINE('',#473,#474);
#473 = CARTESIAN_POINT('',(-0.2,12.5,34.272059531468));
#474 = VECTOR('',#475,1.);
#475 = DIRECTION('',(-0.707106781187,-0.707106781187,2.11E-15));
#476 = ORIENTED_EDGE('',*,*,#477,.F.);
#477 = EDGE_CURVE('',#405,#470,#478,.T.);
#478 = CIRCLE('',#479,2.);
#479 = AXIS2_PLACEMENT_3D('',#480,#481,#482);
#480 = CARTESIAN_POINT('',(-0.2,14.5,34.272059531468));
#481 = DIRECTION('',(1.,0.,0.));
#482 = DIRECTION('',(0.,-0.766044443119,0.642787609687));
#483 = CONICAL_SURFACE('',#484,2.,0.785398163397);
#484 = AXIS2_PLACEMENT_3D('',#485,#486,#487);
#485 = CARTESIAN_POINT('',(-0.2,14.5,34.272059531468));
#486 = DIRECTION('',(-1.,0.,0.));
#487 = DIRECTION('',(0.,-0.766044443119,0.642787609687));
#488 = ADVANCED_FACE('',(#489),#514,.T.);
#489 = FACE_BOUND('',#490,.F.);
#490 = EDGE_LOOP('',(#491,#501,#507,#508));
#491 = ORIENTED_EDGE('',*,*,#492,.F.);
#492 = EDGE_CURVE('',#493,#495,#497,.T.);
#493 = VERTEX_POINT('',#494);
#494 = CARTESIAN_POINT('',(0.,8.,25.3));
#495 = VERTEX_POINT('',#496);
#496 = CARTESIAN_POINT('',(-0.2,8.,25.5));
#497 = LINE('',#498,#499);
#498 = CARTESIAN_POINT('',(-0.2,8.,25.5));
#499 = VECTOR('',#500,1.);
#500 = DIRECTION('',(-0.707106781187,-4.E-17,0.707106781187));
#501 = ORIENTED_EDGE('',*,*,#502,.T.);
#502 = EDGE_CURVE('',#493,#427,#503,.T.);
#503 = LINE('',#504,#505);
#504 = CARTESIAN_POINT('',(0.,8.,25.3));
#505 = VECTOR('',#506,1.);
#506 = DIRECTION('',(0.,-1.,0.));
#507 = ORIENTED_EDGE('',*,*,#426,.T.);
#508 = ORIENTED_EDGE('',*,*,#509,.F.);
#509 = EDGE_CURVE('',#495,#429,#510,.T.);
#510 = LINE('',#511,#512);
#511 = CARTESIAN_POINT('',(-0.2,8.,25.5));
#512 = VECTOR('',#513,1.);
#513 = DIRECTION('',(0.,-1.,0.));
#514 = PLANE('',#515);
#515 = AXIS2_PLACEMENT_3D('',#516,#517,#518);
#516 = CARTESIAN_POINT('',(-0.1,8.,25.4));
#517 = DIRECTION('',(0.707106781187,0.,0.707106781187));
#518 = DIRECTION('',(0.,1.,0.));
#519 = ADVANCED_FACE('',(#520),#545,.T.);
#520 = FACE_BOUND('',#521,.F.);
#521 = EDGE_LOOP('',(#522,#523,#531,#539));
#522 = ORIENTED_EDGE('',*,*,#469,.F.);
#523 = ORIENTED_EDGE('',*,*,#524,.T.);
#524 = EDGE_CURVE('',#461,#525,#527,.T.);
#525 = VERTEX_POINT('',#526);
#526 = CARTESIAN_POINT('',(0.,12.7,30.));
#527 = LINE('',#528,#529);
#528 = CARTESIAN_POINT('',(0.,12.7,34.272059531468));
#529 = VECTOR('',#530,1.);
#530 = DIRECTION('',(-0.,-0.,-1.));
#531 = ORIENTED_EDGE('',*,*,#532,.T.);
#532 = EDGE_CURVE('',#525,#533,#535,.T.);
#533 = VERTEX_POINT('',#534);
#534 = CARTESIAN_POINT('',(-0.2,12.5,30.));
#535 = LINE('',#536,#537);
#536 = CARTESIAN_POINT('',(-0.1,12.6,30.));
#537 = VECTOR('',#538,1.);
#538 = DIRECTION('',(-0.707106781187,-0.707106781187,0.));
#539 = ORIENTED_EDGE('',*,*,#540,.F.);
#540 = EDGE_CURVE('',#470,#533,#541,.T.);
#541 = LINE('',#542,#543);
#542 = CARTESIAN_POINT('',(-0.2,12.5,34.272059531468));
#543 = VECTOR('',#544,1.);
#544 = DIRECTION('',(-0.,-0.,-1.));
#545 = PLANE('',#546);
#546 = AXIS2_PLACEMENT_3D('',#547,#548,#549);
#547 = CARTESIAN_POINT('',(-0.1,12.6,34.272059531468));
#548 = DIRECTION('',(0.707106781187,-0.707106781187,0.));
#549 = DIRECTION('',(0.,0.,1.));
#550 = ADVANCED_FACE('',(#551),#569,.F.);
#551 = FACE_BOUND('',#552,.F.);
#552 = EDGE_LOOP('',(#553,#554,#561,#562));
#553 = ORIENTED_EDGE('',*,*,#532,.F.);
#554 = ORIENTED_EDGE('',*,*,#555,.T.);
#555 = EDGE_CURVE('',#525,#493,#556,.T.);
#556 = CIRCLE('',#557,4.7);
#557 = AXIS2_PLACEMENT_3D('',#558,#559,#560);
#558 = CARTESIAN_POINT('',(0.,8.,30.));
#559 = DIRECTION('',(-1.,0.,0.));
#560 = DIRECTION('',(0.,1.,0.));
#561 = ORIENTED_EDGE('',*,*,#492,.T.);
#562 = ORIENTED_EDGE('',*,*,#563,.F.);
#563 = EDGE_CURVE('',#533,#495,#564,.T.);
#564 = CIRCLE('',#565,4.5);
#565 = AXIS2_PLACEMENT_3D('',#566,#567,#568);
#566 = CARTESIAN_POINT('',(-0.2,8.,30.));
#567 = DIRECTION('',(-1.,0.,0.));
#568 = DIRECTION('',(0.,1.,0.));
#569 = CONICAL_SURFACE('',#570,4.5,0.785398163397);
#570 = AXIS2_PLACEMENT_3D('',#571,#572,#573);
#571 = CARTESIAN_POINT('',(-0.2,8.,30.));
#572 = DIRECTION('',(1.,0.,0.));
#573 = DIRECTION('',(0.,1.,0.));
#574 = ADVANCED_FACE('',(#575),#593,.T.);
#575 = FACE_BOUND('',#576,.T.);
#576 = EDGE_LOOP('',(#577,#578,#586,#592));
#577 = ORIENTED_EDGE('',*,*,#21,.T.);
#578 = ORIENTED_EDGE('',*,*,#579,.F.);
#579 = EDGE_CURVE('',#580,#24,#582,.T.);
#580 = VERTEX_POINT('',#581);
#581 = CARTESIAN_POINT('',(-1.8,123.,0.));
#582 = LINE('',#583,#584);
#583 = CARTESIAN_POINT('',(-1.8,123.,-1.E-17));
#584 = VECTOR('',#585,1.);
#585 = DIRECTION('',(0.,-1.,0.));
#586 = ORIENTED_EDGE('',*,*,#587,.F.);
#587 = EDGE_CURVE('',#79,#580,#588,.T.);
#588 = LINE('',#589,#590);
#589 = CARTESIAN_POINT('',(-1.5,123.,-2.2E-16));
#590 = VECTOR('',#591,1.);
#591 = DIRECTION('',(-1.,0.,0.));
#592 = ORIENTED_EDGE('',*,*,#86,.F.);
#593 = PLANE('',#594);
#594 = AXIS2_PLACEMENT_3D('',#595,#596,#597);
#595 = CARTESIAN_POINT('',(-1.,115.5,-2.E-17));
#596 = DIRECTION('',(-0.,-0.,-1.));
#597 = DIRECTION('',(-1.,0.,0.));
#598 = ADVANCED_FACE('',(#599),#624,.T.);
#599 = FACE_BOUND('',#600,.T.);
#600 = EDGE_LOOP('',(#601,#609,#610,#618));
#601 = ORIENTED_EDGE('',*,*,#602,.F.);
#602 = EDGE_CURVE('',#24,#603,#605,.T.);
#603 = VERTEX_POINT('',#604);
#604 = CARTESIAN_POINT('',(-2.,108.08284271247,0.2));
#605 = LINE('',#606,#607);
#606 = CARTESIAN_POINT('',(-3.322675916373,108.63071301566,
    1.522675916373));
#607 = VECTOR('',#608,1.);
#608 = DIRECTION('',(-0.678598344546,0.281084637715,0.678598344546));
#609 = ORIENTED_EDGE('',*,*,#55,.T.);
#610 = ORIENTED_EDGE('',*,*,#611,.T.);
#611 = EDGE_CURVE('',#48,#612,#614,.T.);
#612 = VERTEX_POINT('',#613);
#613 = CARTESIAN_POINT('',(-2.,105.08284271247,3.2));
#614 = LINE('',#615,#616);
#615 = CARTESIAN_POINT('',(6.142271865663,101.71020327718,
    -4.942271865663));
#616 = VECTOR('',#617,1.);
#617 = DIRECTION('',(-0.678598344546,0.281084637715,0.678598344546));
#618 = ORIENTED_EDGE('',*,*,#619,.F.);
#619 = EDGE_CURVE('',#603,#612,#620,.T.);
#620 = LINE('',#621,#622);
#621 = CARTESIAN_POINT('',(-2.,108.14142135623,0.141421356237));
#622 = VECTOR('',#623,1.);
#623 = DIRECTION('',(0.,-0.707106781187,0.707106781187));
#624 = PLANE('',#625);
#625 = AXIS2_PLACEMENT_3D('',#626,#627,#628);
#626 = CARTESIAN_POINT('',(-1.9,108.07071067811,7.071067811865E-02));
#627 = DIRECTION('',(-0.707106781187,-0.5,-0.5));
#628 = DIRECTION('',(-1.387778780782E-16,-0.707106781187,0.707106781187)
  );
#629 = ADVANCED_FACE('',(#630),#648,.T.);
#630 = FACE_BOUND('',#631,.F.);
#631 = EDGE_LOOP('',(#632,#640,#641,#642));
#632 = ORIENTED_EDGE('',*,*,#633,.F.);
#633 = EDGE_CURVE('',#103,#634,#636,.T.);
#634 = VERTEX_POINT('',#635);
#635 = CARTESIAN_POINT('',(-2.,24.917157287525,3.2));
#636 = LINE('',#637,#638);
#637 = CARTESIAN_POINT('',(-1.892099142644,24.961851286034,
    3.092099142644));
#638 = VECTOR('',#639,1.);
#639 = DIRECTION('',(-0.678598344546,-0.281084637715,0.678598344546));
#640 = ORIENTED_EDGE('',*,*,#110,.T.);
#641 = ORIENTED_EDGE('',*,*,#611,.T.);
#642 = ORIENTED_EDGE('',*,*,#643,.F.);
#643 = EDGE_CURVE('',#634,#612,#644,.T.);
#644 = LINE('',#645,#646);
#645 = CARTESIAN_POINT('',(-2.,25.,3.2));
#646 = VECTOR('',#647,1.);
#647 = DIRECTION('',(0.,1.,0.));
#648 = PLANE('',#649);
#649 = AXIS2_PLACEMENT_3D('',#650,#651,#652);
#650 = CARTESIAN_POINT('',(-1.9,25.,3.1));
#651 = DIRECTION('',(-0.707106781187,-0.,-0.707106781187));
#652 = DIRECTION('',(0.,-1.,0.));
#653 = ADVANCED_FACE('',(#654),#673,.T.);
#654 = FACE_BOUND('',#655,.F.);
#655 = EDGE_LOOP('',(#656,#657,#658,#666));
#656 = ORIENTED_EDGE('',*,*,#587,.F.);
#657 = ORIENTED_EDGE('',*,*,#149,.T.);
#658 = ORIENTED_EDGE('',*,*,#659,.T.);
#659 = EDGE_CURVE('',#142,#660,#662,.T.);
#660 = VERTEX_POINT('',#661);
#661 = CARTESIAN_POINT('',(-1.8,125.,2.));
#662 = LINE('',#663,#664);
#663 = CARTESIAN_POINT('',(0.,125.,2.));
#664 = VECTOR('',#665,1.);
#665 = DIRECTION('',(-1.,0.,0.));
#666 = ORIENTED_EDGE('',*,*,#667,.T.);
#667 = EDGE_CURVE('',#660,#580,#668,.T.);
#668 = CIRCLE('',#669,2.);
#669 = AXIS2_PLACEMENT_3D('',#670,#671,#672);
#670 = CARTESIAN_POINT('',(-1.8,123.,2.));
#671 = DIRECTION('',(-1.,0.,0.));
#672 = DIRECTION('',(0.,1.,-3.3E-16));
#673 = CYLINDRICAL_SURFACE('',#674,2.);
#674 = AXIS2_PLACEMENT_3D('',#675,#676,#677);
#675 = CARTESIAN_POINT('',(0.,123.,2.));
#676 = DIRECTION('',(-1.,0.,0.));
#677 = DIRECTION('',(0.,0.,-1.));
#678 = ADVANCED_FACE('',(#679),#697,.T.);
#679 = FACE_BOUND('',#680,.T.);
#680 = EDGE_LOOP('',(#681,#682,#683,#691));
#681 = ORIENTED_EDGE('',*,*,#633,.F.);
#682 = ORIENTED_EDGE('',*,*,#189,.T.);
#683 = ORIENTED_EDGE('',*,*,#684,.T.);
#684 = EDGE_CURVE('',#182,#685,#687,.T.);
#685 = VERTEX_POINT('',#686);
#686 = CARTESIAN_POINT('',(-2.,21.917157287525,0.2));
#687 = LINE('',#688,#689);
#688 = CARTESIAN_POINT('',(-2.296727357729,21.794248791627,
    0.496727357729));
#689 = VECTOR('',#690,1.);
#690 = DIRECTION('',(-0.678598344546,-0.281084637715,0.678598344546));
#691 = ORIENTED_EDGE('',*,*,#692,.F.);
#692 = EDGE_CURVE('',#634,#685,#693,.T.);
#693 = LINE('',#694,#695);
#694 = CARTESIAN_POINT('',(-2.,24.858578643763,3.141421356237));
#695 = VECTOR('',#696,1.);
#696 = DIRECTION('',(0.,-0.707106781187,-0.707106781187));
#697 = PLANE('',#698);
#698 = AXIS2_PLACEMENT_3D('',#699,#700,#701);
#699 = CARTESIAN_POINT('',(-1.9,24.929289321881,3.070710678119));
#700 = DIRECTION('',(-0.707106781187,0.5,-0.5));
#701 = DIRECTION('',(-5.551115123126E-17,-0.707106781187,-0.707106781187
    ));
#702 = ADVANCED_FACE('',(#703),#721,.T.);
#703 = FACE_BOUND('',#704,.T.);
#704 = EDGE_LOOP('',(#705,#713,#719,#720));
#705 = ORIENTED_EDGE('',*,*,#706,.T.);
#706 = EDGE_CURVE('',#237,#707,#709,.T.);
#707 = VERTEX_POINT('',#708);
#708 = CARTESIAN_POINT('',(-1.8,7.,0.));
#709 = LINE('',#710,#711);
#710 = CARTESIAN_POINT('',(0.,7.,-4.4E-16));
#711 = VECTOR('',#712,1.);
#712 = DIRECTION('',(-1.,0.,0.));
#713 = ORIENTED_EDGE('',*,*,#714,.F.);
#714 = EDGE_CURVE('',#182,#707,#715,.T.);
#715 = LINE('',#716,#717);
#716 = CARTESIAN_POINT('',(-1.8,22.,-1.E-17));
#717 = VECTOR('',#718,1.);
#718 = DIRECTION('',(0.,-1.,0.));
#719 = ORIENTED_EDGE('',*,*,#181,.F.);
#720 = ORIENTED_EDGE('',*,*,#251,.F.);
#721 = PLANE('',#722);
#722 = AXIS2_PLACEMENT_3D('',#723,#724,#725);
#723 = CARTESIAN_POINT('',(-1.,14.5,-2.E-17));
#724 = DIRECTION('',(-0.,-0.,-1.));
#725 = DIRECTION('',(-1.,0.,0.));
#726 = ADVANCED_FACE('',(#727),#745,.T.);
#727 = FACE_BOUND('',#728,.T.);
#728 = EDGE_LOOP('',(#729,#730,#738,#744));
#729 = ORIENTED_EDGE('',*,*,#659,.T.);
#730 = ORIENTED_EDGE('',*,*,#731,.F.);
#731 = EDGE_CURVE('',#732,#660,#734,.T.);
#732 = VERTEX_POINT('',#733);
#733 = CARTESIAN_POINT('',(-1.8,125.,35.));
#734 = LINE('',#735,#736);
#735 = CARTESIAN_POINT('',(-1.8,125.,35.));
#736 = VECTOR('',#737,1.);
#737 = DIRECTION('',(0.,0.,-1.));
#738 = ORIENTED_EDGE('',*,*,#739,.F.);
#739 = EDGE_CURVE('',#213,#732,#740,.T.);
#740 = LINE('',#741,#742);
#741 = CARTESIAN_POINT('',(-1.5,125.,35.));
#742 = VECTOR('',#743,1.);
#743 = DIRECTION('',(-1.,0.,0.));
#744 = ORIENTED_EDGE('',*,*,#220,.F.);
#745 = PLANE('',#746);
#746 = AXIS2_PLACEMENT_3D('',#747,#748,#749);
#747 = CARTESIAN_POINT('',(-1.,125.,18.5));
#748 = DIRECTION('',(0.,1.,0.));
#749 = DIRECTION('',(0.,0.,1.));
#750 = ADVANCED_FACE('',(#751),#770,.T.);
#751 = FACE_BOUND('',#752,.F.);
#752 = EDGE_LOOP('',(#753,#754,#755,#763));
#753 = ORIENTED_EDGE('',*,*,#739,.F.);
#754 = ORIENTED_EDGE('',*,*,#283,.T.);
#755 = ORIENTED_EDGE('',*,*,#756,.T.);
#756 = EDGE_CURVE('',#276,#757,#759,.T.);
#757 = VERTEX_POINT('',#758);
#758 = CARTESIAN_POINT('',(-1.8,84.931273670853,118.15490079095));
#759 = LINE('',#760,#761);
#760 = CARTESIAN_POINT('',(0.,84.931273670853,118.15490079095));
#761 = VECTOR('',#762,1.);
#762 = DIRECTION('',(-1.,-0.,-0.));
#763 = ORIENTED_EDGE('',*,*,#764,.T.);
#764 = EDGE_CURVE('',#757,#732,#765,.T.);
#765 = CIRCLE('',#766,116.7738475459);
#766 = AXIS2_PLACEMENT_3D('',#767,#768,#769);
#767 = CARTESIAN_POINT('',(-1.8,8.332637719575,30.014215287161));
#768 = DIRECTION('',(-1.,0.,0.));
#769 = DIRECTION('',(0.,0.655957113353,0.754798162055));
#770 = CYLINDRICAL_SURFACE('',#771,116.7738475459);
#771 = AXIS2_PLACEMENT_3D('',#772,#773,#774);
#772 = CARTESIAN_POINT('',(0.,8.332637719575,30.014215287161));
#773 = DIRECTION('',(1.,0.,0.));
#774 = DIRECTION('',(0.,-1.,0.));
#775 = ADVANCED_FACE('',(#776),#795,.T.);
#776 = FACE_BOUND('',#777,.F.);
#777 = EDGE_LOOP('',(#778,#786,#787,#788));
#778 = ORIENTED_EDGE('',*,*,#779,.F.);
#779 = EDGE_CURVE('',#301,#780,#782,.T.);
#780 = VERTEX_POINT('',#781);
#781 = CARTESIAN_POINT('',(-1.8,5.,2.));
#782 = LINE('',#783,#784);
#783 = CARTESIAN_POINT('',(-1.5,5.,2.));
#784 = VECTOR('',#785,1.);
#785 = DIRECTION('',(-1.,0.,0.));
#786 = ORIENTED_EDGE('',*,*,#316,.T.);
#787 = ORIENTED_EDGE('',*,*,#706,.T.);
#788 = ORIENTED_EDGE('',*,*,#789,.T.);
#789 = EDGE_CURVE('',#707,#780,#790,.T.);
#790 = CIRCLE('',#791,2.);
#791 = AXIS2_PLACEMENT_3D('',#792,#793,#794);
#792 = CARTESIAN_POINT('',(-1.8,7.,2.));
#793 = DIRECTION('',(-1.,0.,0.));
#794 = DIRECTION('',(-0.,-4.4E-16,-1.));
#795 = CYLINDRICAL_SURFACE('',#796,2.);
#796 = AXIS2_PLACEMENT_3D('',#797,#798,#799);
#797 = CARTESIAN_POINT('',(0.,7.,2.));
#798 = DIRECTION('',(-1.,0.,0.));
#799 = DIRECTION('',(0.,-1.,0.));
#800 = ADVANCED_FACE('',(#801),#820,.T.);
#801 = FACE_BOUND('',#802,.T.);
#802 = EDGE_LOOP('',(#803,#811,#812,#813));
#803 = ORIENTED_EDGE('',*,*,#804,.F.);
#804 = EDGE_CURVE('',#342,#805,#807,.T.);
#805 = VERTEX_POINT('',#806);
#806 = CARTESIAN_POINT('',(-1.8,82.08727055791,117.93087968621));
#807 = LINE('',#808,#809);
#808 = CARTESIAN_POINT('',(0.,82.08727055791,117.93087968621));
#809 = VECTOR('',#810,1.);
#810 = DIRECTION('',(-1.,-0.,-0.));
#811 = ORIENTED_EDGE('',*,*,#349,.F.);
#812 = ORIENTED_EDGE('',*,*,#756,.T.);
#813 = ORIENTED_EDGE('',*,*,#814,.F.);
#814 = EDGE_CURVE('',#805,#757,#815,.T.);
#815 = CIRCLE('',#816,2.);
#816 = AXIS2_PLACEMENT_3D('',#817,#818,#819);
#817 = CARTESIAN_POINT('',(-1.8,83.619359444148,116.64530446684));
#818 = DIRECTION('',(-1.,0.,0.));
#819 = DIRECTION('',(0.,-0.766044443119,0.642787609687));
#820 = CYLINDRICAL_SURFACE('',#821,2.);
#821 = AXIS2_PLACEMENT_3D('',#822,#823,#824);
#822 = CARTESIAN_POINT('',(0.,83.619359444148,116.64530446684));
#823 = DIRECTION('',(-1.,-0.,-0.));
#824 = DIRECTION('',(0.,-0.766044443119,0.642787609687));
#825 = ADVANCED_FACE('',(#826),#844,.T.);
#826 = FACE_BOUND('',#827,.T.);
#827 = EDGE_LOOP('',(#828,#836,#842,#843));
#828 = ORIENTED_EDGE('',*,*,#829,.T.);
#829 = EDGE_CURVE('',#367,#830,#832,.T.);
#830 = VERTEX_POINT('',#831);
#831 = CARTESIAN_POINT('',(-1.8,5.,23.5));
#832 = LINE('',#833,#834);
#833 = CARTESIAN_POINT('',(0.,5.,23.5));
#834 = VECTOR('',#835,1.);
#835 = DIRECTION('',(-1.,0.,0.));
#836 = ORIENTED_EDGE('',*,*,#837,.F.);
#837 = EDGE_CURVE('',#780,#830,#838,.T.);
#838 = LINE('',#839,#840);
#839 = CARTESIAN_POINT('',(-1.8,5.,2.));
#840 = VECTOR('',#841,1.);
#841 = DIRECTION('',(0.,0.,1.));
#842 = ORIENTED_EDGE('',*,*,#779,.F.);
#843 = ORIENTED_EDGE('',*,*,#381,.F.);
#844 = PLANE('',#845);
#845 = AXIS2_PLACEMENT_3D('',#846,#847,#848);
#846 = CARTESIAN_POINT('',(-1.,5.,12.75));
#847 = DIRECTION('',(-0.,-1.,-0.));
#848 = DIRECTION('',(0.,0.,-1.));
#849 = ADVANCED_FACE('',(#850),#868,.T.);
#850 = FACE_BOUND('',#851,.T.);
#851 = EDGE_LOOP('',(#852,#853,#861,#867));
#852 = ORIENTED_EDGE('',*,*,#804,.T.);
#853 = ORIENTED_EDGE('',*,*,#854,.F.);
#854 = EDGE_CURVE('',#855,#805,#857,.T.);
#855 = VERTEX_POINT('',#856);
#856 = CARTESIAN_POINT('',(-1.8,12.967911113762,35.557634750841));
#857 = LINE('',#858,#859);
#858 = CARTESIAN_POINT('',(-1.8,12.967911113762,35.557634750841));
#859 = VECTOR('',#860,1.);
#860 = DIRECTION('',(0.,0.642787609687,0.766044443119));
#861 = ORIENTED_EDGE('',*,*,#862,.F.);
#862 = EDGE_CURVE('',#405,#855,#863,.T.);
#863 = LINE('',#864,#865);
#864 = CARTESIAN_POINT('',(-1.5,12.967911113762,35.557634750841));
#865 = VECTOR('',#866,1.);
#866 = DIRECTION('',(-1.,0.,0.));
#867 = ORIENTED_EDGE('',*,*,#412,.F.);
#868 = PLANE('',#869);
#869 = AXIS2_PLACEMENT_3D('',#870,#871,#872);
#870 = CARTESIAN_POINT('',(-1.,47.527590835836,76.744257218528));
#871 = DIRECTION('',(0.,-0.766044443119,0.642787609687));
#872 = DIRECTION('',(0.,-0.642787609687,-0.766044443119));
#873 = ADVANCED_FACE('',(#874),#893,.T.);
#874 = FACE_BOUND('',#875,.F.);
#875 = EDGE_LOOP('',(#876,#884,#885,#886));
#876 = ORIENTED_EDGE('',*,*,#877,.F.);
#877 = EDGE_CURVE('',#429,#878,#880,.T.);
#878 = VERTEX_POINT('',#879);
#879 = CARTESIAN_POINT('',(-1.8,7.,25.5));
#880 = LINE('',#881,#882);
#881 = CARTESIAN_POINT('',(-1.5,7.,25.5));
#882 = VECTOR('',#883,1.);
#883 = DIRECTION('',(-1.,0.,0.));
#884 = ORIENTED_EDGE('',*,*,#444,.T.);
#885 = ORIENTED_EDGE('',*,*,#829,.T.);
#886 = ORIENTED_EDGE('',*,*,#887,.T.);
#887 = EDGE_CURVE('',#830,#878,#888,.T.);
#888 = CIRCLE('',#889,2.);
#889 = AXIS2_PLACEMENT_3D('',#890,#891,#892);
#890 = CARTESIAN_POINT('',(-1.8,7.,23.5));
#891 = DIRECTION('',(-1.,0.,0.));
#892 = DIRECTION('',(0.,-1.,0.));
#893 = CYLINDRICAL_SURFACE('',#894,2.);
#894 = AXIS2_PLACEMENT_3D('',#895,#896,#897);
#895 = CARTESIAN_POINT('',(0.,7.,23.5));
#896 = DIRECTION('',(-1.,0.,0.));
#897 = DIRECTION('',(0.,0.,1.));
#898 = ADVANCED_FACE('',(#899),#918,.T.);
#899 = FACE_BOUND('',#900,.F.);
#900 = EDGE_LOOP('',(#901,#902,#903,#911));
#901 = ORIENTED_EDGE('',*,*,#862,.F.);
#902 = ORIENTED_EDGE('',*,*,#477,.T.);
#903 = ORIENTED_EDGE('',*,*,#904,.T.);
#904 = EDGE_CURVE('',#470,#905,#907,.T.);
#905 = VERTEX_POINT('',#906);
#906 = CARTESIAN_POINT('',(-1.8,12.5,34.272059531468));
#907 = LINE('',#908,#909);
#908 = CARTESIAN_POINT('',(0.,12.5,34.272059531468));
#909 = VECTOR('',#910,1.);
#910 = DIRECTION('',(-1.,0.,0.));
#911 = ORIENTED_EDGE('',*,*,#912,.T.);
#912 = EDGE_CURVE('',#905,#855,#913,.T.);
#913 = CIRCLE('',#914,2.);
#914 = AXIS2_PLACEMENT_3D('',#915,#916,#917);
#915 = CARTESIAN_POINT('',(-1.8,14.5,34.272059531468));
#916 = DIRECTION('',(-1.,0.,0.));
#917 = DIRECTION('',(0.,-1.,0.));
#918 = CYLINDRICAL_SURFACE('',#919,2.);
#919 = AXIS2_PLACEMENT_3D('',#920,#921,#922);
#920 = CARTESIAN_POINT('',(0.,14.5,34.272059531468));
#921 = DIRECTION('',(-1.,0.,0.));
#922 = DIRECTION('',(0.,-0.766044443119,0.642787609687));
#923 = ADVANCED_FACE('',(#924),#942,.T.);
#924 = FACE_BOUND('',#925,.T.);
#925 = EDGE_LOOP('',(#926,#934,#940,#941));
#926 = ORIENTED_EDGE('',*,*,#927,.T.);
#927 = EDGE_CURVE('',#495,#928,#930,.T.);
#928 = VERTEX_POINT('',#929);
#929 = CARTESIAN_POINT('',(-1.8,8.,25.5));
#930 = LINE('',#931,#932);
#931 = CARTESIAN_POINT('',(0.,8.,25.5));
#932 = VECTOR('',#933,1.);
#933 = DIRECTION('',(-1.,0.,0.));
#934 = ORIENTED_EDGE('',*,*,#935,.F.);
#935 = EDGE_CURVE('',#878,#928,#936,.T.);
#936 = LINE('',#937,#938);
#937 = CARTESIAN_POINT('',(-1.8,7.,25.5));
#938 = VECTOR('',#939,1.);
#939 = DIRECTION('',(0.,1.,0.));
#940 = ORIENTED_EDGE('',*,*,#877,.F.);
#941 = ORIENTED_EDGE('',*,*,#509,.F.);
#942 = PLANE('',#943);
#943 = AXIS2_PLACEMENT_3D('',#944,#945,#946);
#944 = CARTESIAN_POINT('',(-1.,7.5,25.5));
#945 = DIRECTION('',(0.,0.,1.));
#946 = DIRECTION('',(1.,0.,0.));
#947 = ADVANCED_FACE('',(#948),#966,.T.);
#948 = FACE_BOUND('',#949,.T.);
#949 = EDGE_LOOP('',(#950,#951,#959,#965));
#950 = ORIENTED_EDGE('',*,*,#904,.T.);
#951 = ORIENTED_EDGE('',*,*,#952,.F.);
#952 = EDGE_CURVE('',#953,#905,#955,.T.);
#953 = VERTEX_POINT('',#954);
#954 = CARTESIAN_POINT('',(-1.8,12.5,30.));
#955 = LINE('',#956,#957);
#956 = CARTESIAN_POINT('',(-1.8,12.5,30.));
#957 = VECTOR('',#958,1.);
#958 = DIRECTION('',(0.,0.,1.));
#959 = ORIENTED_EDGE('',*,*,#960,.F.);
#960 = EDGE_CURVE('',#533,#953,#961,.T.);
#961 = LINE('',#962,#963);
#962 = CARTESIAN_POINT('',(-1.5,12.5,30.));
#963 = VECTOR('',#964,1.);
#964 = DIRECTION('',(-1.,0.,0.));
#965 = ORIENTED_EDGE('',*,*,#540,.F.);
#966 = PLANE('',#967);
#967 = AXIS2_PLACEMENT_3D('',#968,#969,#970);
#968 = CARTESIAN_POINT('',(-1.,12.5,32.136029765734));
#969 = DIRECTION('',(-0.,-1.,-0.));
#970 = DIRECTION('',(0.,0.,-1.));
#971 = ADVANCED_FACE('',(#972),#984,.F.);
#972 = FACE_BOUND('',#973,.T.);
#973 = EDGE_LOOP('',(#974,#975,#976,#977));
#974 = ORIENTED_EDGE('',*,*,#927,.F.);
#975 = ORIENTED_EDGE('',*,*,#563,.F.);
#976 = ORIENTED_EDGE('',*,*,#960,.T.);
#977 = ORIENTED_EDGE('',*,*,#978,.F.);
#978 = EDGE_CURVE('',#928,#953,#979,.T.);
#979 = CIRCLE('',#980,4.5);
#980 = AXIS2_PLACEMENT_3D('',#981,#982,#983);
#981 = CARTESIAN_POINT('',(-1.8,8.,30.));
#982 = DIRECTION('',(1.,-0.,0.));
#983 = DIRECTION('',(0.,0.,-1.));
#984 = CYLINDRICAL_SURFACE('',#985,4.5);
#985 = AXIS2_PLACEMENT_3D('',#986,#987,#988);
#986 = CARTESIAN_POINT('',(0.,8.,30.));
#987 = DIRECTION('',(1.,0.,0.));
#988 = DIRECTION('',(0.,-1.,0.));
#989 = ADVANCED_FACE('',(#990),#1008,.T.);
#990 = FACE_BOUND('',#991,.T.);
#991 = EDGE_LOOP('',(#992,#1000,#1001,#1002));
#992 = ORIENTED_EDGE('',*,*,#993,.F.);
#993 = EDGE_CURVE('',#580,#994,#996,.T.);
#994 = VERTEX_POINT('',#995);
#995 = CARTESIAN_POINT('',(-2.,123.,0.2));
#996 = LINE('',#997,#998);
#997 = CARTESIAN_POINT('',(-1.8,123.,0.));
#998 = VECTOR('',#999,1.);
#999 = DIRECTION('',(-0.707106781187,1.9E-16,0.707106781187));
#1000 = ORIENTED_EDGE('',*,*,#579,.T.);
#1001 = ORIENTED_EDGE('',*,*,#602,.T.);
#1002 = ORIENTED_EDGE('',*,*,#1003,.F.);
#1003 = EDGE_CURVE('',#994,#603,#1004,.T.);
#1004 = LINE('',#1005,#1006);
#1005 = CARTESIAN_POINT('',(-2.,123.,0.2));
#1006 = VECTOR('',#1007,1.);
#1007 = DIRECTION('',(0.,-1.,0.));
#1008 = PLANE('',#1009);
#1009 = AXIS2_PLACEMENT_3D('',#1010,#1011,#1012);
#1010 = CARTESIAN_POINT('',(-1.9,123.,0.1));
#1011 = DIRECTION('',(-0.707106781187,-0.,-0.707106781187));
#1012 = DIRECTION('',(0.,-1.,0.));
#1013 = ADVANCED_FACE('',(#1014,#1129),#1257,.T.);
#1014 = FACE_BOUND('',#1015,.T.);
#1015 = EDGE_LOOP('',(#1016,#1024,#1033,#1041,#1050,#1058,#1067,#1075,
    #1084,#1092,#1101,#1110,#1118,#1125,#1126,#1127,#1128));
#1016 = ORIENTED_EDGE('',*,*,#1017,.T.);
#1017 = EDGE_CURVE('',#685,#1018,#1020,.T.);
#1018 = VERTEX_POINT('',#1019);
#1019 = CARTESIAN_POINT('',(-2.,7.,0.2));
#1020 = LINE('',#1021,#1022);
#1021 = CARTESIAN_POINT('',(-2.,22.,0.2));
#1022 = VECTOR('',#1023,1.);
#1023 = DIRECTION('',(0.,-1.,0.));
#1024 = ORIENTED_EDGE('',*,*,#1025,.T.);
#1025 = EDGE_CURVE('',#1018,#1026,#1028,.T.);
#1026 = VERTEX_POINT('',#1027);
#1027 = CARTESIAN_POINT('',(-2.,5.2,2.));
#1028 = CIRCLE('',#1029,1.8);
#1029 = AXIS2_PLACEMENT_3D('',#1030,#1031,#1032);
#1030 = CARTESIAN_POINT('',(-2.,7.,2.));
#1031 = DIRECTION('',(-1.,0.,0.));
#1032 = DIRECTION('',(-0.,-4.4E-16,-1.));
#1033 = ORIENTED_EDGE('',*,*,#1034,.T.);
#1034 = EDGE_CURVE('',#1026,#1035,#1037,.T.);
#1035 = VERTEX_POINT('',#1036);
#1036 = CARTESIAN_POINT('',(-2.,5.2,23.5));
#1037 = LINE('',#1038,#1039);
#1038 = CARTESIAN_POINT('',(-2.,5.2,2.));
#1039 = VECTOR('',#1040,1.);
#1040 = DIRECTION('',(0.,0.,1.));
#1041 = ORIENTED_EDGE('',*,*,#1042,.T.);
#1042 = EDGE_CURVE('',#1035,#1043,#1045,.T.);
#1043 = VERTEX_POINT('',#1044);
#1044 = CARTESIAN_POINT('',(-2.,7.,25.3));
#1045 = CIRCLE('',#1046,1.8);
#1046 = AXIS2_PLACEMENT_3D('',#1047,#1048,#1049);
#1047 = CARTESIAN_POINT('',(-2.,7.,23.5));
#1048 = DIRECTION('',(-1.,0.,0.));
#1049 = DIRECTION('',(0.,-1.,0.));
#1050 = ORIENTED_EDGE('',*,*,#1051,.T.);
#1051 = EDGE_CURVE('',#1043,#1052,#1054,.T.);
#1052 = VERTEX_POINT('',#1053);
#1053 = CARTESIAN_POINT('',(-2.,8.,25.3));
#1054 = LINE('',#1055,#1056);
#1055 = CARTESIAN_POINT('',(-2.,7.,25.3));
#1056 = VECTOR('',#1057,1.);
#1057 = DIRECTION('',(0.,1.,0.));
#1058 = ORIENTED_EDGE('',*,*,#1059,.T.);
#1059 = EDGE_CURVE('',#1052,#1060,#1062,.T.);
#1060 = VERTEX_POINT('',#1061);
#1061 = CARTESIAN_POINT('',(-2.,12.7,30.));
#1062 = CIRCLE('',#1063,4.7);
#1063 = AXIS2_PLACEMENT_3D('',#1064,#1065,#1066);
#1064 = CARTESIAN_POINT('',(-2.,8.,30.));
#1065 = DIRECTION('',(1.,-0.,0.));
#1066 = DIRECTION('',(0.,0.,-1.));
#1067 = ORIENTED_EDGE('',*,*,#1068,.T.);
#1068 = EDGE_CURVE('',#1060,#1069,#1071,.T.);
#1069 = VERTEX_POINT('',#1070);
#1070 = CARTESIAN_POINT('',(-2.,12.7,34.272059531468));
#1071 = LINE('',#1072,#1073);
#1072 = CARTESIAN_POINT('',(-2.,12.7,30.));
#1073 = VECTOR('',#1074,1.);
#1074 = DIRECTION('',(0.,0.,1.));
#1075 = ORIENTED_EDGE('',*,*,#1076,.T.);
#1076 = EDGE_CURVE('',#1069,#1077,#1079,.T.);
#1077 = VERTEX_POINT('',#1078);
#1078 = CARTESIAN_POINT('',(-2.,13.121120002386,35.429077228903));
#1079 = CIRCLE('',#1080,1.8);
#1080 = AXIS2_PLACEMENT_3D('',#1081,#1082,#1083);
#1081 = CARTESIAN_POINT('',(-2.,14.5,34.272059531468));
#1082 = DIRECTION('',(-1.,0.,0.));
#1083 = DIRECTION('',(0.,-1.,0.));
#1084 = ORIENTED_EDGE('',*,*,#1085,.T.);
#1085 = EDGE_CURVE('',#1077,#1086,#1088,.T.);
#1086 = VERTEX_POINT('',#1087);
#1087 = CARTESIAN_POINT('',(-2.,82.240479446534,117.80232216427));
#1088 = LINE('',#1089,#1090);
#1089 = CARTESIAN_POINT('',(-2.,13.121120002386,35.429077228903));
#1090 = VECTOR('',#1091,1.);
#1091 = DIRECTION('',(0.,0.642787609687,0.766044443119));
#1092 = ORIENTED_EDGE('',*,*,#1093,.T.);
#1093 = EDGE_CURVE('',#1086,#1094,#1096,.T.);
#1094 = VERTEX_POINT('',#1095);
#1095 = CARTESIAN_POINT('',(-2.,84.800082248183,118.00394115854));
#1096 = CIRCLE('',#1097,1.8);
#1097 = AXIS2_PLACEMENT_3D('',#1098,#1099,#1100);
#1098 = CARTESIAN_POINT('',(-2.,83.619359444148,116.64530446684));
#1099 = DIRECTION('',(-1.,0.,0.));
#1100 = DIRECTION('',(0.,-0.766044443119,0.642787609687));
#1101 = ORIENTED_EDGE('',*,*,#1102,.T.);
#1102 = EDGE_CURVE('',#1094,#1103,#1105,.T.);
#1103 = VERTEX_POINT('',#1104);
#1104 = CARTESIAN_POINT('',(-2.,124.80018237861,34.991460785411));
#1105 = CIRCLE('',#1106,116.5738475459);
#1106 = AXIS2_PLACEMENT_3D('',#1107,#1108,#1109);
#1107 = CARTESIAN_POINT('',(-2.,8.332637719575,30.014215287161));
#1108 = DIRECTION('',(-1.,0.,0.));
#1109 = DIRECTION('',(0.,0.655957113353,0.754798162055));
#1110 = ORIENTED_EDGE('',*,*,#1111,.T.);
#1111 = EDGE_CURVE('',#1103,#1112,#1114,.T.);
#1112 = VERTEX_POINT('',#1113);
#1113 = CARTESIAN_POINT('',(-2.,124.8,2.));
#1114 = LINE('',#1115,#1116);
#1115 = CARTESIAN_POINT('',(-2.,124.8,35.));
#1116 = VECTOR('',#1117,1.);
#1117 = DIRECTION('',(0.,0.,-1.));
#1118 = ORIENTED_EDGE('',*,*,#1119,.T.);
#1119 = EDGE_CURVE('',#1112,#994,#1120,.T.);
#1120 = CIRCLE('',#1121,1.8);
#1121 = AXIS2_PLACEMENT_3D('',#1122,#1123,#1124);
#1122 = CARTESIAN_POINT('',(-2.,123.,2.));
#1123 = DIRECTION('',(-1.,0.,0.));
#1124 = DIRECTION('',(0.,1.,-3.3E-16));
#1125 = ORIENTED_EDGE('',*,*,#1003,.T.);
#1126 = ORIENTED_EDGE('',*,*,#619,.T.);
#1127 = ORIENTED_EDGE('',*,*,#643,.F.);
#1128 = ORIENTED_EDGE('',*,*,#692,.T.);
#1129 = FACE_BOUND('',#1130,.T.);
#1130 = EDGE_LOOP('',(#1131,#1141,#1150,#1159,#1168,#1176,#1184,#1192,
    #1201,#1209,#1218,#1226,#1234,#1242,#1251));
#1131 = ORIENTED_EDGE('',*,*,#1132,.F.);
#1132 = EDGE_CURVE('',#1133,#1135,#1137,.T.);
#1133 = VERTEX_POINT('',#1134);
#1134 = CARTESIAN_POINT('',(-2.,14.5,30.));
#1135 = VERTEX_POINT('',#1136);
#1136 = CARTESIAN_POINT('',(-2.,14.5,34.272059531468));
#1137 = LINE('',#1138,#1139);
#1138 = CARTESIAN_POINT('',(-2.,14.5,32.136029765734));
#1139 = VECTOR('',#1140,1.);
#1140 = DIRECTION('',(0.,-8.3E-16,1.));
#1141 = ORIENTED_EDGE('',*,*,#1142,.T.);
#1142 = EDGE_CURVE('',#1133,#1143,#1145,.T.);
#1143 = VERTEX_POINT('',#1144);
#1144 = CARTESIAN_POINT('',(-2.,8.,23.5));
#1145 = CIRCLE('',#1146,6.5);
#1146 = AXIS2_PLACEMENT_3D('',#1147,#1148,#1149);
#1147 = CARTESIAN_POINT('',(-2.,8.,30.));
#1148 = DIRECTION('',(-1.,0.,0.));
#1149 = DIRECTION('',(0.,-1.,0.));
#1150 = ORIENTED_EDGE('',*,*,#1151,.T.);
#1151 = EDGE_CURVE('',#1143,#1152,#1154,.T.);
#1152 = VERTEX_POINT('',#1153);
#1153 = CARTESIAN_POINT('',(-2.,7.5,23.563508326896));
#1154 = CIRCLE('',#1155,2.);
#1155 = AXIS2_PLACEMENT_3D('',#1156,#1157,#1158);
#1156 = CARTESIAN_POINT('',(-2.,8.,25.5));
#1157 = DIRECTION('',(-1.,0.,0.));
#1158 = DIRECTION('',(0.,1.,1.2E-16));
#1159 = ORIENTED_EDGE('',*,*,#1160,.T.);
#1160 = EDGE_CURVE('',#1152,#1161,#1163,.T.);
#1161 = VERTEX_POINT('',#1162);
#1162 = CARTESIAN_POINT('',(-2.,7.,23.5));
#1163 = CIRCLE('',#1164,2.);
#1164 = AXIS2_PLACEMENT_3D('',#1165,#1166,#1167);
#1165 = CARTESIAN_POINT('',(-2.,7.,25.5));
#1166 = DIRECTION('',(-1.,-0.,0.));
#1167 = DIRECTION('',(0.,-1.,-1.E-16));
#1168 = ORIENTED_EDGE('',*,*,#1169,.T.);
#1169 = EDGE_CURVE('',#1161,#1170,#1172,.T.);
#1170 = VERTEX_POINT('',#1171);
#1171 = CARTESIAN_POINT('',(-2.,7.,2.));
#1172 = LINE('',#1173,#1174);
#1173 = CARTESIAN_POINT('',(-2.,7.,23.5));
#1174 = VECTOR('',#1175,1.);
#1175 = DIRECTION('',(0.,-4.E-17,-1.));
#1176 = ORIENTED_EDGE('',*,*,#1177,.F.);
#1177 = EDGE_CURVE('',#1178,#1170,#1180,.T.);
#1178 = VERTEX_POINT('',#1179);
#1179 = CARTESIAN_POINT('',(-2.,21.171572875254,2.));
#1180 = LINE('',#1181,#1182);
#1181 = CARTESIAN_POINT('',(-2.,21.171572875254,2.));
#1182 = VECTOR('',#1183,1.);
#1183 = DIRECTION('',(0.,-1.,2.E-17));
#1184 = ORIENTED_EDGE('',*,*,#1185,.F.);
#1185 = EDGE_CURVE('',#1186,#1178,#1188,.T.);
#1186 = VERTEX_POINT('',#1187);
#1187 = CARTESIAN_POINT('',(-2.,23.585786437627,4.414213562373));
#1188 = LINE('',#1189,#1190);
#1189 = CARTESIAN_POINT('',(-2.,23.585786437627,4.414213562373));
#1190 = VECTOR('',#1191,1.);
#1191 = DIRECTION('',(0.,-0.707106781187,-0.707106781187));
#1192 = ORIENTED_EDGE('',*,*,#1193,.T.);
#1193 = EDGE_CURVE('',#1186,#1194,#1196,.T.);
#1194 = VERTEX_POINT('',#1195);
#1195 = CARTESIAN_POINT('',(-2.,25.,5.));
#1196 = CIRCLE('',#1197,2.);
#1197 = AXIS2_PLACEMENT_3D('',#1198,#1199,#1200);
#1198 = CARTESIAN_POINT('',(-2.,25.,3.));
#1199 = DIRECTION('',(-1.,-0.,0.));
#1200 = DIRECTION('',(-0.,1.,-1.2E-16));
#1201 = ORIENTED_EDGE('',*,*,#1202,.T.);
#1202 = EDGE_CURVE('',#1194,#1203,#1205,.T.);
#1203 = VERTEX_POINT('',#1204);
#1204 = CARTESIAN_POINT('',(-2.,105.,5.));
#1205 = LINE('',#1206,#1207);
#1206 = CARTESIAN_POINT('',(-2.,25.,5.));
#1207 = VECTOR('',#1208,1.);
#1208 = DIRECTION('',(0.,1.,0.));
#1209 = ORIENTED_EDGE('',*,*,#1210,.T.);
#1210 = EDGE_CURVE('',#1203,#1211,#1213,.T.);
#1211 = VERTEX_POINT('',#1212);
#1212 = CARTESIAN_POINT('',(-2.,106.41421356237,4.414213562373));
#1213 = CIRCLE('',#1214,2.);
#1214 = AXIS2_PLACEMENT_3D('',#1215,#1216,#1217);
#1215 = CARTESIAN_POINT('',(-2.,105.,3.));
#1216 = DIRECTION('',(-1.,-0.,0.));
#1217 = DIRECTION('',(-0.,0.707106781187,-0.707106781187));
#1218 = ORIENTED_EDGE('',*,*,#1219,.F.);
#1219 = EDGE_CURVE('',#1220,#1211,#1222,.T.);
#1220 = VERTEX_POINT('',#1221);
#1221 = CARTESIAN_POINT('',(-2.,108.82842712474,2.));
#1222 = LINE('',#1223,#1224);
#1223 = CARTESIAN_POINT('',(-2.,108.82842712474,2.));
#1224 = VECTOR('',#1225,1.);
#1225 = DIRECTION('',(0.,-0.707106781187,0.707106781187));
#1226 = ORIENTED_EDGE('',*,*,#1227,.F.);
#1227 = EDGE_CURVE('',#1228,#1220,#1230,.T.);
#1228 = VERTEX_POINT('',#1229);
#1229 = CARTESIAN_POINT('',(-2.,123.,2.));
#1230 = LINE('',#1231,#1232);
#1231 = CARTESIAN_POINT('',(-2.,123.,2.));
#1232 = VECTOR('',#1233,1.);
#1233 = DIRECTION('',(0.,-1.,-2.8E-16));
#1234 = ORIENTED_EDGE('',*,*,#1235,.F.);
#1235 = EDGE_CURVE('',#1236,#1228,#1238,.T.);
#1236 = VERTEX_POINT('',#1237);
#1237 = CARTESIAN_POINT('',(-2.,123.,34.957099884322));
#1238 = LINE('',#1239,#1240);
#1239 = CARTESIAN_POINT('',(-2.,123.,34.957099884322));
#1240 = VECTOR('',#1241,1.);
#1241 = DIRECTION('',(0.,0.,-1.));
#1242 = ORIENTED_EDGE('',*,*,#1243,.F.);
#1243 = EDGE_CURVE('',#1244,#1236,#1246,.T.);
#1244 = VERTEX_POINT('',#1245);
#1245 = CARTESIAN_POINT('',(-2.,83.619359444148,116.64530446684));
#1246 = CIRCLE('',#1247,114.7738475459);
#1247 = AXIS2_PLACEMENT_3D('',#1248,#1249,#1250);
#1248 = CARTESIAN_POINT('',(-2.,8.332637719575,30.014215287161));
#1249 = DIRECTION('',(-1.,0.,0.));
#1250 = DIRECTION('',(0.,-1.,0.));
#1251 = ORIENTED_EDGE('',*,*,#1252,.T.);
#1252 = EDGE_CURVE('',#1244,#1135,#1253,.T.);
#1253 = LINE('',#1254,#1255);
#1254 = CARTESIAN_POINT('',(-2.,83.619359444148,116.64530446684));
#1255 = VECTOR('',#1256,1.);
#1256 = DIRECTION('',(0.,-0.642787609687,-0.766044443119));
#1257 = PLANE('',#1258);
#1258 = AXIS2_PLACEMENT_3D('',#1259,#1260,#1261);
#1259 = CARTESIAN_POINT('',(-2.,70.541949729765,44.188731206668));
#1260 = DIRECTION('',(-1.,0.,0.));
#1261 = DIRECTION('',(0.,-1.,0.));
#1262 = ADVANCED_FACE('',(#1263),#1274,.T.);
#1263 = FACE_BOUND('',#1264,.T.);
#1264 = EDGE_LOOP('',(#1265,#1271,#1272,#1273));
#1265 = ORIENTED_EDGE('',*,*,#1266,.F.);
#1266 = EDGE_CURVE('',#660,#1112,#1267,.T.);
#1267 = LINE('',#1268,#1269);
#1268 = CARTESIAN_POINT('',(-1.9,124.9,2.));
#1269 = VECTOR('',#1270,1.);
#1270 = DIRECTION('',(-0.707106781187,-0.707106781187,-0.));
#1271 = ORIENTED_EDGE('',*,*,#667,.T.);
#1272 = ORIENTED_EDGE('',*,*,#993,.T.);
#1273 = ORIENTED_EDGE('',*,*,#1119,.F.);
#1274 = CONICAL_SURFACE('',#1275,2.,0.785398163397);
#1275 = AXIS2_PLACEMENT_3D('',#1276,#1277,#1278);
#1276 = CARTESIAN_POINT('',(-1.8,123.,2.));
#1277 = DIRECTION('',(1.,0.,0.));
#1278 = DIRECTION('',(0.,1.,-3.3E-16));
#1279 = ADVANCED_FACE('',(#1280),#1291,.T.);
#1280 = FACE_BOUND('',#1281,.T.);
#1281 = EDGE_LOOP('',(#1282,#1283,#1284,#1290));
#1282 = ORIENTED_EDGE('',*,*,#684,.F.);
#1283 = ORIENTED_EDGE('',*,*,#714,.T.);
#1284 = ORIENTED_EDGE('',*,*,#1285,.T.);
#1285 = EDGE_CURVE('',#707,#1018,#1286,.T.);
#1286 = LINE('',#1287,#1288);
#1287 = CARTESIAN_POINT('',(-1.9,7.,0.1));
#1288 = VECTOR('',#1289,1.);
#1289 = DIRECTION('',(-0.707106781187,0.,0.707106781187));
#1290 = ORIENTED_EDGE('',*,*,#1017,.F.);
#1291 = PLANE('',#1292);
#1292 = AXIS2_PLACEMENT_3D('',#1293,#1294,#1295);
#1293 = CARTESIAN_POINT('',(-1.9,22.,0.1));
#1294 = DIRECTION('',(-0.707106781187,-0.,-0.707106781187));
#1295 = DIRECTION('',(0.,-1.,0.));
#1296 = ADVANCED_FACE('',(#1297),#1308,.T.);
#1297 = FACE_BOUND('',#1298,.T.);
#1298 = EDGE_LOOP('',(#1299,#1305,#1306,#1307));
#1299 = ORIENTED_EDGE('',*,*,#1300,.F.);
#1300 = EDGE_CURVE('',#732,#1103,#1301,.T.);
#1301 = LINE('',#1302,#1303);
#1302 = CARTESIAN_POINT('',(-1.8,125.,35.));
#1303 = VECTOR('',#1304,1.);
#1304 = DIRECTION('',(-0.707106781187,-0.706461975394,
    -3.019068270914E-02));
#1305 = ORIENTED_EDGE('',*,*,#731,.T.);
#1306 = ORIENTED_EDGE('',*,*,#1266,.T.);
#1307 = ORIENTED_EDGE('',*,*,#1111,.F.);
#1308 = PLANE('',#1309);
#1309 = AXIS2_PLACEMENT_3D('',#1310,#1311,#1312);
#1310 = CARTESIAN_POINT('',(-1.9,124.9,35.));
#1311 = DIRECTION('',(-0.707106781187,0.707106781187,0.));
#1312 = DIRECTION('',(0.,0.,-1.));
#1313 = ADVANCED_FACE('',(#1314),#1325,.T.);
#1314 = FACE_BOUND('',#1315,.T.);
#1315 = EDGE_LOOP('',(#1316,#1322,#1323,#1324));
#1316 = ORIENTED_EDGE('',*,*,#1317,.F.);
#1317 = EDGE_CURVE('',#757,#1094,#1318,.T.);
#1318 = LINE('',#1319,#1320);
#1319 = CARTESIAN_POINT('',(-1.8,84.931273670853,118.15490079095));
#1320 = VECTOR('',#1321,1.);
#1321 = DIRECTION('',(-0.707106781187,-0.463831723019,-0.533722898817));
#1322 = ORIENTED_EDGE('',*,*,#764,.T.);
#1323 = ORIENTED_EDGE('',*,*,#1300,.T.);
#1324 = ORIENTED_EDGE('',*,*,#1102,.F.);
#1325 = CONICAL_SURFACE('',#1326,116.7738475459,0.785398163397);
#1326 = AXIS2_PLACEMENT_3D('',#1327,#1328,#1329);
#1327 = CARTESIAN_POINT('',(-1.8,8.332637719575,30.014215287161));
#1328 = DIRECTION('',(1.,0.,0.));
#1329 = DIRECTION('',(0.,0.655957113353,0.754798162055));
#1330 = ADVANCED_FACE('',(#1331),#1342,.T.);
#1331 = FACE_BOUND('',#1332,.T.);
#1332 = EDGE_LOOP('',(#1333,#1334,#1335,#1341));
#1333 = ORIENTED_EDGE('',*,*,#1285,.F.);
#1334 = ORIENTED_EDGE('',*,*,#789,.T.);
#1335 = ORIENTED_EDGE('',*,*,#1336,.T.);
#1336 = EDGE_CURVE('',#780,#1026,#1337,.T.);
#1337 = LINE('',#1338,#1339);
#1338 = CARTESIAN_POINT('',(-1.8,5.,2.));
#1339 = VECTOR('',#1340,1.);
#1340 = DIRECTION('',(-0.707106781187,0.707106781187,4.E-17));
#1341 = ORIENTED_EDGE('',*,*,#1025,.F.);
#1342 = CONICAL_SURFACE('',#1343,2.,0.785398163397);
#1343 = AXIS2_PLACEMENT_3D('',#1344,#1345,#1346);
#1344 = CARTESIAN_POINT('',(-1.8,7.,2.));
#1345 = DIRECTION('',(1.,0.,0.));
#1346 = DIRECTION('',(-0.,-4.4E-16,-1.));
#1347 = ADVANCED_FACE('',(#1348),#1359,.T.);
#1348 = FACE_BOUND('',#1349,.T.);
#1349 = EDGE_LOOP('',(#1350,#1356,#1357,#1358));
#1350 = ORIENTED_EDGE('',*,*,#1351,.F.);
#1351 = EDGE_CURVE('',#805,#1086,#1352,.T.);
#1352 = LINE('',#1353,#1354);
#1353 = CARTESIAN_POINT('',(-1.9,82.163875002222,117.86660092524));
#1354 = VECTOR('',#1355,1.);
#1355 = DIRECTION('',(-0.707106781187,0.54167522042,-0.454519477672));
#1356 = ORIENTED_EDGE('',*,*,#814,.T.);
#1357 = ORIENTED_EDGE('',*,*,#1317,.T.);
#1358 = ORIENTED_EDGE('',*,*,#1093,.F.);
#1359 = CONICAL_SURFACE('',#1360,2.,0.785398163397);
#1360 = AXIS2_PLACEMENT_3D('',#1361,#1362,#1363);
#1361 = CARTESIAN_POINT('',(-1.8,83.619359444148,116.64530446684));
#1362 = DIRECTION('',(1.,0.,0.));
#1363 = DIRECTION('',(0.,-0.766044443119,0.642787609687));
#1364 = ADVANCED_FACE('',(#1365),#1376,.T.);
#1365 = FACE_BOUND('',#1366,.T.);
#1366 = EDGE_LOOP('',(#1367,#1368,#1369,#1375));
#1367 = ORIENTED_EDGE('',*,*,#1336,.F.);
#1368 = ORIENTED_EDGE('',*,*,#837,.T.);
#1369 = ORIENTED_EDGE('',*,*,#1370,.T.);
#1370 = EDGE_CURVE('',#830,#1035,#1371,.T.);
#1371 = LINE('',#1372,#1373);
#1372 = CARTESIAN_POINT('',(-1.9,5.1,23.5));
#1373 = VECTOR('',#1374,1.);
#1374 = DIRECTION('',(-0.707106781187,0.707106781187,0.));
#1375 = ORIENTED_EDGE('',*,*,#1034,.F.);
#1376 = PLANE('',#1377);
#1377 = AXIS2_PLACEMENT_3D('',#1378,#1379,#1380);
#1378 = CARTESIAN_POINT('',(-1.9,5.1,2.));
#1379 = DIRECTION('',(-0.707106781187,-0.707106781187,0.));
#1380 = DIRECTION('',(0.,0.,1.));
#1381 = ADVANCED_FACE('',(#1382),#1393,.T.);
#1382 = FACE_BOUND('',#1383,.T.);
#1383 = EDGE_LOOP('',(#1384,#1390,#1391,#1392));
#1384 = ORIENTED_EDGE('',*,*,#1385,.F.);
#1385 = EDGE_CURVE('',#855,#1077,#1386,.T.);
#1386 = LINE('',#1387,#1388);
#1387 = CARTESIAN_POINT('',(-1.8,12.967911113762,35.557634750841));
#1388 = VECTOR('',#1389,1.);
#1389 = DIRECTION('',(-0.707106781187,0.54167522042,-0.454519477672));
#1390 = ORIENTED_EDGE('',*,*,#854,.T.);
#1391 = ORIENTED_EDGE('',*,*,#1351,.T.);
#1392 = ORIENTED_EDGE('',*,*,#1085,.F.);
#1393 = PLANE('',#1394);
#1394 = AXIS2_PLACEMENT_3D('',#1395,#1396,#1397);
#1395 = CARTESIAN_POINT('',(-1.9,13.044515558074,35.493355989872));
#1396 = DIRECTION('',(-0.707106781187,-0.54167522042,0.454519477672));
#1397 = DIRECTION('',(1.848769670795E-16,0.642787609687,0.766044443119)
  );
#1398 = ADVANCED_FACE('',(#1399),#1410,.T.);
#1399 = FACE_BOUND('',#1400,.T.);
#1400 = EDGE_LOOP('',(#1401,#1402,#1403,#1409));
#1401 = ORIENTED_EDGE('',*,*,#1370,.F.);
#1402 = ORIENTED_EDGE('',*,*,#887,.T.);
#1403 = ORIENTED_EDGE('',*,*,#1404,.T.);
#1404 = EDGE_CURVE('',#878,#1043,#1405,.T.);
#1405 = LINE('',#1406,#1407);
#1406 = CARTESIAN_POINT('',(-1.8,7.,25.5));
#1407 = VECTOR('',#1408,1.);
#1408 = DIRECTION('',(-0.707106781187,4.E-17,-0.707106781187));
#1409 = ORIENTED_EDGE('',*,*,#1042,.F.);
#1410 = CONICAL_SURFACE('',#1411,2.,0.785398163397);
#1411 = AXIS2_PLACEMENT_3D('',#1412,#1413,#1414);
#1412 = CARTESIAN_POINT('',(-1.8,7.,23.5));
#1413 = DIRECTION('',(1.,0.,0.));
#1414 = DIRECTION('',(0.,-1.,0.));
#1415 = ADVANCED_FACE('',(#1416),#1427,.T.);
#1416 = FACE_BOUND('',#1417,.T.);
#1417 = EDGE_LOOP('',(#1418,#1424,#1425,#1426));
#1418 = ORIENTED_EDGE('',*,*,#1419,.F.);
#1419 = EDGE_CURVE('',#905,#1069,#1420,.T.);
#1420 = LINE('',#1421,#1422);
#1421 = CARTESIAN_POINT('',(-1.9,12.6,34.272059531468));
#1422 = VECTOR('',#1423,1.);
#1423 = DIRECTION('',(-0.707106781187,0.707106781187,0.));
#1424 = ORIENTED_EDGE('',*,*,#912,.T.);
#1425 = ORIENTED_EDGE('',*,*,#1385,.T.);
#1426 = ORIENTED_EDGE('',*,*,#1076,.F.);
#1427 = CONICAL_SURFACE('',#1428,2.,0.785398163397);
#1428 = AXIS2_PLACEMENT_3D('',#1429,#1430,#1431);
#1429 = CARTESIAN_POINT('',(-1.8,14.5,34.272059531468));
#1430 = DIRECTION('',(1.,0.,0.));
#1431 = DIRECTION('',(0.,-1.,0.));
#1432 = ADVANCED_FACE('',(#1433),#1444,.T.);
#1433 = FACE_BOUND('',#1434,.T.);
#1434 = EDGE_LOOP('',(#1435,#1436,#1437,#1443));
#1435 = ORIENTED_EDGE('',*,*,#1404,.F.);
#1436 = ORIENTED_EDGE('',*,*,#935,.T.);
#1437 = ORIENTED_EDGE('',*,*,#1438,.T.);
#1438 = EDGE_CURVE('',#928,#1052,#1439,.T.);
#1439 = LINE('',#1440,#1441);
#1440 = CARTESIAN_POINT('',(-1.9,8.,25.4));
#1441 = VECTOR('',#1442,1.);
#1442 = DIRECTION('',(-0.707106781187,0.,-0.707106781187));
#1443 = ORIENTED_EDGE('',*,*,#1051,.F.);
#1444 = PLANE('',#1445);
#1445 = AXIS2_PLACEMENT_3D('',#1446,#1447,#1448);
#1446 = CARTESIAN_POINT('',(-1.9,7.,25.4));
#1447 = DIRECTION('',(-0.707106781187,0.,0.707106781187));
#1448 = DIRECTION('',(0.,1.,0.));
#1449 = ADVANCED_FACE('',(#1450),#1461,.T.);
#1450 = FACE_BOUND('',#1451,.T.);
#1451 = EDGE_LOOP('',(#1452,#1458,#1459,#1460));
#1452 = ORIENTED_EDGE('',*,*,#1453,.F.);
#1453 = EDGE_CURVE('',#953,#1060,#1454,.T.);
#1454 = LINE('',#1455,#1456);
#1455 = CARTESIAN_POINT('',(-1.8,12.5,30.));
#1456 = VECTOR('',#1457,1.);
#1457 = DIRECTION('',(-0.707106781187,0.707106781187,-4.E-17));
#1458 = ORIENTED_EDGE('',*,*,#952,.T.);
#1459 = ORIENTED_EDGE('',*,*,#1419,.T.);
#1460 = ORIENTED_EDGE('',*,*,#1068,.F.);
#1461 = PLANE('',#1462);
#1462 = AXIS2_PLACEMENT_3D('',#1463,#1464,#1465);
#1463 = CARTESIAN_POINT('',(-1.9,12.6,30.));
#1464 = DIRECTION('',(-0.707106781187,-0.707106781187,0.));
#1465 = DIRECTION('',(0.,0.,1.));
#1466 = ADVANCED_FACE('',(#1467),#1473,.F.);
#1467 = FACE_BOUND('',#1468,.T.);
#1468 = EDGE_LOOP('',(#1469,#1470,#1471,#1472));
#1469 = ORIENTED_EDGE('',*,*,#1438,.F.);
#1470 = ORIENTED_EDGE('',*,*,#978,.T.);
#1471 = ORIENTED_EDGE('',*,*,#1453,.T.);
#1472 = ORIENTED_EDGE('',*,*,#1059,.F.);
#1473 = CONICAL_SURFACE('',#1474,4.5,0.785398163397);
#1474 = AXIS2_PLACEMENT_3D('',#1475,#1476,#1477);
#1475 = CARTESIAN_POINT('',(-1.8,8.,30.));
#1476 = DIRECTION('',(-1.,0.,0.));
#1477 = DIRECTION('',(0.,0.,-1.));
#1478 = ADVANCED_FACE('',(#1479),#1504,.T.);
#1479 = FACE_BOUND('',#1480,.T.);
#1480 = EDGE_LOOP('',(#1481,#1489,#1497,#1503));
#1481 = ORIENTED_EDGE('',*,*,#1482,.F.);
#1482 = EDGE_CURVE('',#1483,#1135,#1485,.T.);
#1483 = VERTEX_POINT('',#1484);
#1484 = CARTESIAN_POINT('',(-1.5,14.5,34.272059531468));
#1485 = LINE('',#1486,#1487);
#1486 = CARTESIAN_POINT('',(-1.5,14.5,34.272059531468));
#1487 = VECTOR('',#1488,1.);
#1488 = DIRECTION('',(-1.,0.,0.));
#1489 = ORIENTED_EDGE('',*,*,#1490,.F.);
#1490 = EDGE_CURVE('',#1491,#1483,#1493,.T.);
#1491 = VERTEX_POINT('',#1492);
#1492 = CARTESIAN_POINT('',(-1.5,14.5,30.));
#1493 = LINE('',#1494,#1495);
#1494 = CARTESIAN_POINT('',(-1.5,14.5,30.));
#1495 = VECTOR('',#1496,1.);
#1496 = DIRECTION('',(0.,0.,1.));
#1497 = ORIENTED_EDGE('',*,*,#1498,.T.);
#1498 = EDGE_CURVE('',#1491,#1133,#1499,.T.);
#1499 = LINE('',#1500,#1501);
#1500 = CARTESIAN_POINT('',(-1.5,14.5,30.));
#1501 = VECTOR('',#1502,1.);
#1502 = DIRECTION('',(-1.,0.,0.));
#1503 = ORIENTED_EDGE('',*,*,#1132,.T.);
#1504 = PLANE('',#1505);
#1505 = AXIS2_PLACEMENT_3D('',#1506,#1507,#1508);
#1506 = CARTESIAN_POINT('',(-1.75,14.5,32.136029765734));
#1507 = DIRECTION('',(0.,1.,4.2E-16));
#1508 = DIRECTION('',(0.,-4.2E-16,1.));
#1509 = ADVANCED_FACE('',(#1510),#1529,.T.);
#1510 = FACE_BOUND('',#1511,.F.);
#1511 = EDGE_LOOP('',(#1512,#1513,#1514,#1522));
#1512 = ORIENTED_EDGE('',*,*,#1498,.T.);
#1513 = ORIENTED_EDGE('',*,*,#1142,.T.);
#1514 = ORIENTED_EDGE('',*,*,#1515,.F.);
#1515 = EDGE_CURVE('',#1516,#1143,#1518,.T.);
#1516 = VERTEX_POINT('',#1517);
#1517 = CARTESIAN_POINT('',(-1.5,8.,23.5));
#1518 = LINE('',#1519,#1520);
#1519 = CARTESIAN_POINT('',(-1.5,8.,23.5));
#1520 = VECTOR('',#1521,1.);
#1521 = DIRECTION('',(-1.,0.,0.));
#1522 = ORIENTED_EDGE('',*,*,#1523,.F.);
#1523 = EDGE_CURVE('',#1491,#1516,#1524,.T.);
#1524 = CIRCLE('',#1525,6.5);
#1525 = AXIS2_PLACEMENT_3D('',#1526,#1527,#1528);
#1526 = CARTESIAN_POINT('',(-1.5,8.,30.));
#1527 = DIRECTION('',(-1.,0.,0.));
#1528 = DIRECTION('',(0.,-1.,0.));
#1529 = CYLINDRICAL_SURFACE('',#1530,6.5);
#1530 = AXIS2_PLACEMENT_3D('',#1531,#1532,#1533);
#1531 = CARTESIAN_POINT('',(-1.5,8.,30.));
#1532 = DIRECTION('',(1.,0.,0.));
#1533 = DIRECTION('',(0.,-1.,0.));
#1534 = ADVANCED_FACE('',(#1535),#1554,.T.);
#1535 = FACE_BOUND('',#1536,.F.);
#1536 = EDGE_LOOP('',(#1537,#1538,#1539,#1547));
#1537 = ORIENTED_EDGE('',*,*,#1515,.T.);
#1538 = ORIENTED_EDGE('',*,*,#1151,.T.);
#1539 = ORIENTED_EDGE('',*,*,#1540,.F.);
#1540 = EDGE_CURVE('',#1541,#1152,#1543,.T.);
#1541 = VERTEX_POINT('',#1542);
#1542 = CARTESIAN_POINT('',(-1.5,7.5,23.563508326896));
#1543 = LINE('',#1544,#1545);
#1544 = CARTESIAN_POINT('',(-1.5,7.5,23.563508326896));
#1545 = VECTOR('',#1546,1.);
#1546 = DIRECTION('',(-1.,0.,0.));
#1547 = ORIENTED_EDGE('',*,*,#1548,.F.);
#1548 = EDGE_CURVE('',#1516,#1541,#1549,.T.);
#1549 = CIRCLE('',#1550,2.);
#1550 = AXIS2_PLACEMENT_3D('',#1551,#1552,#1553);
#1551 = CARTESIAN_POINT('',(-1.5,8.,25.5));
#1552 = DIRECTION('',(-1.,0.,0.));
#1553 = DIRECTION('',(0.,1.,1.2E-16));
#1554 = CYLINDRICAL_SURFACE('',#1555,2.);
#1555 = AXIS2_PLACEMENT_3D('',#1556,#1557,#1558);
#1556 = CARTESIAN_POINT('',(-1.5,8.,25.5));
#1557 = DIRECTION('',(1.,0.,0.));
#1558 = DIRECTION('',(0.,1.,1.2E-16));
#1559 = ADVANCED_FACE('',(#1560),#1579,.T.);
#1560 = FACE_BOUND('',#1561,.F.);
#1561 = EDGE_LOOP('',(#1562,#1563,#1564,#1572));
#1562 = ORIENTED_EDGE('',*,*,#1540,.T.);
#1563 = ORIENTED_EDGE('',*,*,#1160,.T.);
#1564 = ORIENTED_EDGE('',*,*,#1565,.F.);
#1565 = EDGE_CURVE('',#1566,#1161,#1568,.T.);
#1566 = VERTEX_POINT('',#1567);
#1567 = CARTESIAN_POINT('',(-1.5,7.,23.5));
#1568 = LINE('',#1569,#1570);
#1569 = CARTESIAN_POINT('',(-1.5,7.,23.5));
#1570 = VECTOR('',#1571,1.);
#1571 = DIRECTION('',(-1.,0.,0.));
#1572 = ORIENTED_EDGE('',*,*,#1573,.F.);
#1573 = EDGE_CURVE('',#1541,#1566,#1574,.T.);
#1574 = CIRCLE('',#1575,2.);
#1575 = AXIS2_PLACEMENT_3D('',#1576,#1577,#1578);
#1576 = CARTESIAN_POINT('',(-1.5,7.,25.5));
#1577 = DIRECTION('',(-1.,-0.,0.));
#1578 = DIRECTION('',(0.,-1.,-1.E-16));
#1579 = CYLINDRICAL_SURFACE('',#1580,2.);
#1580 = AXIS2_PLACEMENT_3D('',#1581,#1582,#1583);
#1581 = CARTESIAN_POINT('',(-1.5,7.,25.5));
#1582 = DIRECTION('',(1.,0.,0.));
#1583 = DIRECTION('',(0.,-1.,-1.E-16));
#1584 = ADVANCED_FACE('',(#1585),#1611,.F.);
#1585 = FACE_BOUND('',#1586,.F.);
#1586 = EDGE_LOOP('',(#1587,#1588,#1589,#1597,#1605));
#1587 = ORIENTED_EDGE('',*,*,#1565,.T.);
#1588 = ORIENTED_EDGE('',*,*,#1169,.T.);
#1589 = ORIENTED_EDGE('',*,*,#1590,.F.);
#1590 = EDGE_CURVE('',#1591,#1170,#1593,.T.);
#1591 = VERTEX_POINT('',#1592);
#1592 = CARTESIAN_POINT('',(-1.5,7.,2.));
#1593 = LINE('',#1594,#1595);
#1594 = CARTESIAN_POINT('',(-1.5,7.,2.));
#1595 = VECTOR('',#1596,1.);
#1596 = DIRECTION('',(-1.,0.,0.));
#1597 = ORIENTED_EDGE('',*,*,#1598,.F.);
#1598 = EDGE_CURVE('',#1599,#1591,#1601,.T.);
#1599 = VERTEX_POINT('',#1600);
#1600 = CARTESIAN_POINT('',(-1.5,7.,15.));
#1601 = LINE('',#1602,#1603);
#1602 = CARTESIAN_POINT('',(-1.5,7.,23.5));
#1603 = VECTOR('',#1604,1.);
#1604 = DIRECTION('',(0.,-4.E-17,-1.));
#1605 = ORIENTED_EDGE('',*,*,#1606,.F.);
#1606 = EDGE_CURVE('',#1566,#1599,#1607,.T.);
#1607 = LINE('',#1608,#1609);
#1608 = CARTESIAN_POINT('',(-1.5,7.,23.5));
#1609 = VECTOR('',#1610,1.);
#1610 = DIRECTION('',(0.,-4.E-17,-1.));
#1611 = PLANE('',#1612);
#1612 = AXIS2_PLACEMENT_3D('',#1613,#1614,#1615);
#1613 = CARTESIAN_POINT('',(-1.5,7.,23.5));
#1614 = DIRECTION('',(0.,-1.,4.E-17));
#1615 = DIRECTION('',(0.,-4.E-17,-1.));
#1616 = ADVANCED_FACE('',(#1617),#1635,.T.);
#1617 = FACE_BOUND('',#1618,.T.);
#1618 = EDGE_LOOP('',(#1619,#1627,#1628,#1629));
#1619 = ORIENTED_EDGE('',*,*,#1620,.T.);
#1620 = EDGE_CURVE('',#1621,#1178,#1623,.T.);
#1621 = VERTEX_POINT('',#1622);
#1622 = CARTESIAN_POINT('',(-1.5,21.171572875254,2.));
#1623 = LINE('',#1624,#1625);
#1624 = CARTESIAN_POINT('',(-1.5,21.171572875254,2.));
#1625 = VECTOR('',#1626,1.);
#1626 = DIRECTION('',(-1.,0.,0.));
#1627 = ORIENTED_EDGE('',*,*,#1177,.T.);
#1628 = ORIENTED_EDGE('',*,*,#1590,.F.);
#1629 = ORIENTED_EDGE('',*,*,#1630,.F.);
#1630 = EDGE_CURVE('',#1621,#1591,#1631,.T.);
#1631 = LINE('',#1632,#1633);
#1632 = CARTESIAN_POINT('',(-1.5,21.171572875254,2.));
#1633 = VECTOR('',#1634,1.);
#1634 = DIRECTION('',(0.,-1.,2.E-17));
#1635 = PLANE('',#1636);
#1636 = AXIS2_PLACEMENT_3D('',#1637,#1638,#1639);
#1637 = CARTESIAN_POINT('',(-1.5,21.171572875254,2.));
#1638 = DIRECTION('',(0.,2.E-17,1.));
#1639 = DIRECTION('',(0.,-1.,2.E-17));
#1640 = ADVANCED_FACE('',(#1641),#1659,.T.);
#1641 = FACE_BOUND('',#1642,.T.);
#1642 = EDGE_LOOP('',(#1643,#1651,#1652,#1653));
#1643 = ORIENTED_EDGE('',*,*,#1644,.T.);
#1644 = EDGE_CURVE('',#1645,#1186,#1647,.T.);
#1645 = VERTEX_POINT('',#1646);
#1646 = CARTESIAN_POINT('',(-1.5,23.585786437627,4.414213562373));
#1647 = LINE('',#1648,#1649);
#1648 = CARTESIAN_POINT('',(-1.5,23.585786437627,4.414213562373));
#1649 = VECTOR('',#1650,1.);
#1650 = DIRECTION('',(-1.,0.,0.));
#1651 = ORIENTED_EDGE('',*,*,#1185,.T.);
#1652 = ORIENTED_EDGE('',*,*,#1620,.F.);
#1653 = ORIENTED_EDGE('',*,*,#1654,.F.);
#1654 = EDGE_CURVE('',#1645,#1621,#1655,.T.);
#1655 = LINE('',#1656,#1657);
#1656 = CARTESIAN_POINT('',(-1.5,23.585786437627,4.414213562373));
#1657 = VECTOR('',#1658,1.);
#1658 = DIRECTION('',(0.,-0.707106781187,-0.707106781187));
#1659 = PLANE('',#1660);
#1660 = AXIS2_PLACEMENT_3D('',#1661,#1662,#1663);
#1661 = CARTESIAN_POINT('',(-1.5,23.585786437627,4.414213562373));
#1662 = DIRECTION('',(0.,-0.707106781187,0.707106781187));
#1663 = DIRECTION('',(0.,-0.707106781187,-0.707106781187));
#1664 = ADVANCED_FACE('',(#1665),#1684,.T.);
#1665 = FACE_BOUND('',#1666,.F.);
#1666 = EDGE_LOOP('',(#1667,#1668,#1669,#1677));
#1667 = ORIENTED_EDGE('',*,*,#1644,.T.);
#1668 = ORIENTED_EDGE('',*,*,#1193,.T.);
#1669 = ORIENTED_EDGE('',*,*,#1670,.F.);
#1670 = EDGE_CURVE('',#1671,#1194,#1673,.T.);
#1671 = VERTEX_POINT('',#1672);
#1672 = CARTESIAN_POINT('',(-1.5,25.,5.));
#1673 = LINE('',#1674,#1675);
#1674 = CARTESIAN_POINT('',(-1.5,25.,5.));
#1675 = VECTOR('',#1676,1.);
#1676 = DIRECTION('',(-1.,0.,0.));
#1677 = ORIENTED_EDGE('',*,*,#1678,.F.);
#1678 = EDGE_CURVE('',#1645,#1671,#1679,.T.);
#1679 = CIRCLE('',#1680,2.);
#1680 = AXIS2_PLACEMENT_3D('',#1681,#1682,#1683);
#1681 = CARTESIAN_POINT('',(-1.5,25.,3.));
#1682 = DIRECTION('',(-1.,-0.,0.));
#1683 = DIRECTION('',(-0.,1.,-1.2E-16));
#1684 = CYLINDRICAL_SURFACE('',#1685,2.);
#1685 = AXIS2_PLACEMENT_3D('',#1686,#1687,#1688);
#1686 = CARTESIAN_POINT('',(-1.5,25.,3.));
#1687 = DIRECTION('',(1.,0.,0.));
#1688 = DIRECTION('',(0.,1.,-1.2E-16));
#1689 = ADVANCED_FACE('',(#1690),#1708,.F.);
#1690 = FACE_BOUND('',#1691,.F.);
#1691 = EDGE_LOOP('',(#1692,#1693,#1694,#1702));
#1692 = ORIENTED_EDGE('',*,*,#1670,.T.);
#1693 = ORIENTED_EDGE('',*,*,#1202,.T.);
#1694 = ORIENTED_EDGE('',*,*,#1695,.F.);
#1695 = EDGE_CURVE('',#1696,#1203,#1698,.T.);
#1696 = VERTEX_POINT('',#1697);
#1697 = CARTESIAN_POINT('',(-1.5,105.,5.));
#1698 = LINE('',#1699,#1700);
#1699 = CARTESIAN_POINT('',(-1.5,105.,5.));
#1700 = VECTOR('',#1701,1.);
#1701 = DIRECTION('',(-1.,0.,0.));
#1702 = ORIENTED_EDGE('',*,*,#1703,.F.);
#1703 = EDGE_CURVE('',#1671,#1696,#1704,.T.);
#1704 = LINE('',#1705,#1706);
#1705 = CARTESIAN_POINT('',(-1.5,25.,5.));
#1706 = VECTOR('',#1707,1.);
#1707 = DIRECTION('',(0.,1.,0.));
#1708 = PLANE('',#1709);
#1709 = AXIS2_PLACEMENT_3D('',#1710,#1711,#1712);
#1710 = CARTESIAN_POINT('',(-1.5,25.,5.));
#1711 = DIRECTION('',(0.,0.,-1.));
#1712 = DIRECTION('',(0.,1.,0.));
#1713 = ADVANCED_FACE('',(#1714),#1733,.T.);
#1714 = FACE_BOUND('',#1715,.F.);
#1715 = EDGE_LOOP('',(#1716,#1717,#1718,#1726));
#1716 = ORIENTED_EDGE('',*,*,#1695,.T.);
#1717 = ORIENTED_EDGE('',*,*,#1210,.T.);
#1718 = ORIENTED_EDGE('',*,*,#1719,.F.);
#1719 = EDGE_CURVE('',#1720,#1211,#1722,.T.);
#1720 = VERTEX_POINT('',#1721);
#1721 = CARTESIAN_POINT('',(-1.5,106.41421356237,4.414213562373));
#1722 = LINE('',#1723,#1724);
#1723 = CARTESIAN_POINT('',(-1.5,106.41421356237,4.414213562373));
#1724 = VECTOR('',#1725,1.);
#1725 = DIRECTION('',(-1.,0.,0.));
#1726 = ORIENTED_EDGE('',*,*,#1727,.F.);
#1727 = EDGE_CURVE('',#1696,#1720,#1728,.T.);
#1728 = CIRCLE('',#1729,2.);
#1729 = AXIS2_PLACEMENT_3D('',#1730,#1731,#1732);
#1730 = CARTESIAN_POINT('',(-1.5,105.,3.));
#1731 = DIRECTION('',(-1.,-0.,0.));
#1732 = DIRECTION('',(-0.,0.707106781187,-0.707106781187));
#1733 = CYLINDRICAL_SURFACE('',#1734,2.);
#1734 = AXIS2_PLACEMENT_3D('',#1735,#1736,#1737);
#1735 = CARTESIAN_POINT('',(-1.5,105.,3.));
#1736 = DIRECTION('',(1.,0.,0.));
#1737 = DIRECTION('',(0.,0.707106781187,-0.707106781187));
#1738 = ADVANCED_FACE('',(#1739),#1757,.T.);
#1739 = FACE_BOUND('',#1740,.T.);
#1740 = EDGE_LOOP('',(#1741,#1749,#1750,#1751));
#1741 = ORIENTED_EDGE('',*,*,#1742,.T.);
#1742 = EDGE_CURVE('',#1743,#1220,#1745,.T.);
#1743 = VERTEX_POINT('',#1744);
#1744 = CARTESIAN_POINT('',(-1.5,108.82842712474,2.));
#1745 = LINE('',#1746,#1747);
#1746 = CARTESIAN_POINT('',(-1.5,108.82842712474,2.));
#1747 = VECTOR('',#1748,1.);
#1748 = DIRECTION('',(-1.,0.,0.));
#1749 = ORIENTED_EDGE('',*,*,#1219,.T.);
#1750 = ORIENTED_EDGE('',*,*,#1719,.F.);
#1751 = ORIENTED_EDGE('',*,*,#1752,.F.);
#1752 = EDGE_CURVE('',#1743,#1720,#1753,.T.);
#1753 = LINE('',#1754,#1755);
#1754 = CARTESIAN_POINT('',(-1.5,108.82842712474,2.));
#1755 = VECTOR('',#1756,1.);
#1756 = DIRECTION('',(0.,-0.707106781187,0.707106781187));
#1757 = PLANE('',#1758);
#1758 = AXIS2_PLACEMENT_3D('',#1759,#1760,#1761);
#1759 = CARTESIAN_POINT('',(-1.5,108.82842712474,2.));
#1760 = DIRECTION('',(0.,0.707106781187,0.707106781187));
#1761 = DIRECTION('',(0.,-0.707106781187,0.707106781187));
#1762 = ADVANCED_FACE('',(#1763),#1781,.T.);
#1763 = FACE_BOUND('',#1764,.T.);
#1764 = EDGE_LOOP('',(#1765,#1773,#1774,#1775));
#1765 = ORIENTED_EDGE('',*,*,#1766,.T.);
#1766 = EDGE_CURVE('',#1767,#1228,#1769,.T.);
#1767 = VERTEX_POINT('',#1768);
#1768 = CARTESIAN_POINT('',(-1.5,123.,2.));
#1769 = LINE('',#1770,#1771);
#1770 = CARTESIAN_POINT('',(-1.5,123.,2.));
#1771 = VECTOR('',#1772,1.);
#1772 = DIRECTION('',(-1.,0.,0.));
#1773 = ORIENTED_EDGE('',*,*,#1227,.T.);
#1774 = ORIENTED_EDGE('',*,*,#1742,.F.);
#1775 = ORIENTED_EDGE('',*,*,#1776,.F.);
#1776 = EDGE_CURVE('',#1767,#1743,#1777,.T.);
#1777 = LINE('',#1778,#1779);
#1778 = CARTESIAN_POINT('',(-1.5,123.,2.));
#1779 = VECTOR('',#1780,1.);
#1780 = DIRECTION('',(0.,-1.,-2.8E-16));
#1781 = PLANE('',#1782);
#1782 = AXIS2_PLACEMENT_3D('',#1783,#1784,#1785);
#1783 = CARTESIAN_POINT('',(-1.5,123.,2.));
#1784 = DIRECTION('',(0.,-2.8E-16,1.));
#1785 = DIRECTION('',(0.,-1.,-2.8E-16));
#1786 = ADVANCED_FACE('',(#1787),#1805,.T.);
#1787 = FACE_BOUND('',#1788,.T.);
#1788 = EDGE_LOOP('',(#1789,#1797,#1798,#1799));
#1789 = ORIENTED_EDGE('',*,*,#1790,.T.);
#1790 = EDGE_CURVE('',#1791,#1236,#1793,.T.);
#1791 = VERTEX_POINT('',#1792);
#1792 = CARTESIAN_POINT('',(-1.5,123.,34.957099884322));
#1793 = LINE('',#1794,#1795);
#1794 = CARTESIAN_POINT('',(-1.5,123.,34.957099884322));
#1795 = VECTOR('',#1796,1.);
#1796 = DIRECTION('',(-1.,0.,0.));
#1797 = ORIENTED_EDGE('',*,*,#1235,.T.);
#1798 = ORIENTED_EDGE('',*,*,#1766,.F.);
#1799 = ORIENTED_EDGE('',*,*,#1800,.F.);
#1800 = EDGE_CURVE('',#1791,#1767,#1801,.T.);
#1801 = LINE('',#1802,#1803);
#1802 = CARTESIAN_POINT('',(-1.5,123.,34.957099884322));
#1803 = VECTOR('',#1804,1.);
#1804 = DIRECTION('',(0.,0.,-1.));
#1805 = PLANE('',#1806);
#1806 = AXIS2_PLACEMENT_3D('',#1807,#1808,#1809);
#1807 = CARTESIAN_POINT('',(-1.5,123.,34.957099884322));
#1808 = DIRECTION('',(-0.,-1.,-0.));
#1809 = DIRECTION('',(0.,0.,-1.));
#1810 = ADVANCED_FACE('',(#1811),#1830,.F.);
#1811 = FACE_BOUND('',#1812,.T.);
#1812 = EDGE_LOOP('',(#1813,#1821,#1822,#1823));
#1813 = ORIENTED_EDGE('',*,*,#1814,.T.);
#1814 = EDGE_CURVE('',#1815,#1244,#1817,.T.);
#1815 = VERTEX_POINT('',#1816);
#1816 = CARTESIAN_POINT('',(-1.5,83.619359444148,116.64530446684));
#1817 = LINE('',#1818,#1819);
#1818 = CARTESIAN_POINT('',(-1.5,83.619359444148,116.64530446684));
#1819 = VECTOR('',#1820,1.);
#1820 = DIRECTION('',(-1.,0.,0.));
#1821 = ORIENTED_EDGE('',*,*,#1243,.T.);
#1822 = ORIENTED_EDGE('',*,*,#1790,.F.);
#1823 = ORIENTED_EDGE('',*,*,#1824,.F.);
#1824 = EDGE_CURVE('',#1815,#1791,#1825,.T.);
#1825 = CIRCLE('',#1826,114.7738475459);
#1826 = AXIS2_PLACEMENT_3D('',#1827,#1828,#1829);
#1827 = CARTESIAN_POINT('',(-1.5,8.332637719575,30.014215287161));
#1828 = DIRECTION('',(-1.,0.,0.));
#1829 = DIRECTION('',(0.,-1.,0.));
#1830 = CYLINDRICAL_SURFACE('',#1831,114.7738475459);
#1831 = AXIS2_PLACEMENT_3D('',#1832,#1833,#1834);
#1832 = CARTESIAN_POINT('',(-1.5,8.332637719575,30.014215287161));
#1833 = DIRECTION('',(1.,0.,0.));
#1834 = DIRECTION('',(0.,-1.,0.));
#1835 = ADVANCED_FACE('',(#1836),#1847,.F.);
#1836 = FACE_BOUND('',#1837,.F.);
#1837 = EDGE_LOOP('',(#1838,#1839,#1840,#1841));
#1838 = ORIENTED_EDGE('',*,*,#1814,.T.);
#1839 = ORIENTED_EDGE('',*,*,#1252,.T.);
#1840 = ORIENTED_EDGE('',*,*,#1482,.F.);
#1841 = ORIENTED_EDGE('',*,*,#1842,.F.);
#1842 = EDGE_CURVE('',#1815,#1483,#1843,.T.);
#1843 = LINE('',#1844,#1845);
#1844 = CARTESIAN_POINT('',(-1.5,83.619359444148,116.64530446684));
#1845 = VECTOR('',#1846,1.);
#1846 = DIRECTION('',(0.,-0.642787609687,-0.766044443119));
#1847 = PLANE('',#1848);
#1848 = AXIS2_PLACEMENT_3D('',#1849,#1850,#1851);
#1849 = CARTESIAN_POINT('',(-1.5,83.619359444148,116.64530446684));
#1850 = DIRECTION('',(0.,-0.766044443119,0.642787609687));
#1851 = DIRECTION('',(0.,-0.642787609687,-0.766044443119));
#1852 = ADVANCED_FACE('',(#1853,#1872,#1883),#1894,.T.);
#1853 = FACE_BOUND('',#1854,.T.);
#1854 = EDGE_LOOP('',(#1855,#1856,#1857,#1858,#1859,#1860,#1861,#1862,
    #1863,#1864,#1865,#1866,#1867,#1868,#1869,#1870,#1871));
#1855 = ORIENTED_EDGE('',*,*,#39,.F.);
#1856 = ORIENTED_EDGE('',*,*,#70,.T.);
#1857 = ORIENTED_EDGE('',*,*,#132,.T.);
#1858 = ORIENTED_EDGE('',*,*,#204,.T.);
#1859 = ORIENTED_EDGE('',*,*,#266,.T.);
#1860 = ORIENTED_EDGE('',*,*,#332,.T.);
#1861 = ORIENTED_EDGE('',*,*,#396,.T.);
#1862 = ORIENTED_EDGE('',*,*,#460,.T.);
#1863 = ORIENTED_EDGE('',*,*,#524,.T.);
#1864 = ORIENTED_EDGE('',*,*,#555,.T.);
#1865 = ORIENTED_EDGE('',*,*,#502,.T.);
#1866 = ORIENTED_EDGE('',*,*,#436,.T.);
#1867 = ORIENTED_EDGE('',*,*,#374,.T.);
#1868 = ORIENTED_EDGE('',*,*,#308,.T.);
#1869 = ORIENTED_EDGE('',*,*,#244,.T.);
#1870 = ORIENTED_EDGE('',*,*,#165,.F.);
#1871 = ORIENTED_EDGE('',*,*,#117,.T.);
#1872 = FACE_BOUND('',#1873,.T.);
#1873 = EDGE_LOOP('',(#1874));
#1874 = ORIENTED_EDGE('',*,*,#1875,.F.);
#1875 = EDGE_CURVE('',#1876,#1876,#1878,.T.);
#1876 = VERTEX_POINT('',#1877);
#1877 = CARTESIAN_POINT('',(0.,115.,16.75));
#1878 = CIRCLE('',#1879,1.75);
#1879 = AXIS2_PLACEMENT_3D('',#1880,#1881,#1882);
#1880 = CARTESIAN_POINT('',(0.,115.,15.));
#1881 = DIRECTION('',(1.,0.,-0.));
#1882 = DIRECTION('',(0.,0.,1.));
#1883 = FACE_BOUND('',#1884,.T.);
#1884 = EDGE_LOOP('',(#1885));
#1885 = ORIENTED_EDGE('',*,*,#1886,.F.);
#1886 = EDGE_CURVE('',#1887,#1887,#1889,.T.);
#1887 = VERTEX_POINT('',#1888);
#1888 = CARTESIAN_POINT('',(0.,10.,16.75));
#1889 = CIRCLE('',#1890,1.75);
#1890 = AXIS2_PLACEMENT_3D('',#1891,#1892,#1893);
#1891 = CARTESIAN_POINT('',(0.,10.,15.));
#1892 = DIRECTION('',(1.,0.,-0.));
#1893 = DIRECTION('',(0.,0.,1.));
#1894 = PLANE('',#1895);
#1895 = AXIS2_PLACEMENT_3D('',#1896,#1897,#1898);
#1896 = CARTESIAN_POINT('',(0.,70.522331421148,44.140112168736));
#1897 = DIRECTION('',(1.,0.,0.));
#1898 = DIRECTION('',(0.,0.,1.));
#1899 = ADVANCED_FACE('',(#1900),#1919,.F.);
#1900 = FACE_BOUND('',#1901,.T.);
#1901 = EDGE_LOOP('',(#1902,#1910,#1917,#1918));
#1902 = ORIENTED_EDGE('',*,*,#1903,.F.);
#1903 = EDGE_CURVE('',#1904,#1876,#1906,.T.);
#1904 = VERTEX_POINT('',#1905);
#1905 = CARTESIAN_POINT('',(-1.,115.,16.75));
#1906 = LINE('',#1907,#1908);
#1907 = CARTESIAN_POINT('',(-1.,115.,16.75));
#1908 = VECTOR('',#1909,1.);
#1909 = DIRECTION('',(1.,0.,-6.E-17));
#1910 = ORIENTED_EDGE('',*,*,#1911,.T.);
#1911 = EDGE_CURVE('',#1904,#1904,#1912,.T.);
#1912 = CIRCLE('',#1913,1.75);
#1913 = AXIS2_PLACEMENT_3D('',#1914,#1915,#1916);
#1914 = CARTESIAN_POINT('',(-1.,115.,15.));
#1915 = DIRECTION('',(-1.,0.,0.));
#1916 = DIRECTION('',(0.,0.,1.));
#1917 = ORIENTED_EDGE('',*,*,#1903,.T.);
#1918 = ORIENTED_EDGE('',*,*,#1875,.T.);
#1919 = CYLINDRICAL_SURFACE('',#1920,1.75);
#1920 = AXIS2_PLACEMENT_3D('',#1921,#1922,#1923);
#1921 = CARTESIAN_POINT('',(-1.,115.,15.));
#1922 = DIRECTION('',(1.,0.,0.));
#1923 = DIRECTION('',(0.,0.,1.));
#1924 = ADVANCED_FACE('',(#1925,#1936),#1939,.F.);
#1925 = FACE_BOUND('',#1926,.T.);
#1926 = EDGE_LOOP('',(#1927));
#1927 = ORIENTED_EDGE('',*,*,#1928,.T.);
#1928 = EDGE_CURVE('',#1929,#1929,#1931,.T.);
#1929 = VERTEX_POINT('',#1930);
#1930 = CARTESIAN_POINT('',(-1.,115.,18.));
#1931 = CIRCLE('',#1932,3.);
#1932 = AXIS2_PLACEMENT_3D('',#1933,#1934,#1935);
#1933 = CARTESIAN_POINT('',(-1.,115.,15.));
#1934 = DIRECTION('',(-1.,0.,0.));
#1935 = DIRECTION('',(0.,0.,1.));
#1936 = FACE_BOUND('',#1937,.T.);
#1937 = EDGE_LOOP('',(#1938));
#1938 = ORIENTED_EDGE('',*,*,#1911,.F.);
#1939 = PLANE('',#1940);
#1940 = AXIS2_PLACEMENT_3D('',#1941,#1942,#1943);
#1941 = CARTESIAN_POINT('',(-1.,115.,15.));
#1942 = DIRECTION('',(1.,0.,0.));
#1943 = DIRECTION('',(-0.,-0.,-1.));
#1944 = ADVANCED_FACE('',(#1945),#1964,.F.);
#1945 = FACE_BOUND('',#1946,.T.);
#1946 = EDGE_LOOP('',(#1947,#1955,#1962,#1963));
#1947 = ORIENTED_EDGE('',*,*,#1948,.F.);
#1948 = EDGE_CURVE('',#1949,#1929,#1951,.T.);
#1949 = VERTEX_POINT('',#1950);
#1950 = CARTESIAN_POINT('',(-1.5,115.,18.));
#1951 = LINE('',#1952,#1953);
#1952 = CARTESIAN_POINT('',(-1.5,115.,18.));
#1953 = VECTOR('',#1954,1.);
#1954 = DIRECTION('',(1.,0.,0.));
#1955 = ORIENTED_EDGE('',*,*,#1956,.T.);
#1956 = EDGE_CURVE('',#1949,#1949,#1957,.T.);
#1957 = CIRCLE('',#1958,3.);
#1958 = AXIS2_PLACEMENT_3D('',#1959,#1960,#1961);
#1959 = CARTESIAN_POINT('',(-1.5,115.,15.));
#1960 = DIRECTION('',(-1.,0.,0.));
#1961 = DIRECTION('',(0.,0.,1.));
#1962 = ORIENTED_EDGE('',*,*,#1948,.T.);
#1963 = ORIENTED_EDGE('',*,*,#1928,.F.);
#1964 = CYLINDRICAL_SURFACE('',#1965,3.);
#1965 = AXIS2_PLACEMENT_3D('',#1966,#1967,#1968);
#1966 = CARTESIAN_POINT('',(-1.5,115.,15.));
#1967 = DIRECTION('',(1.,0.,0.));
#1968 = DIRECTION('',(0.,0.,1.));
#1969 = ADVANCED_FACE('',(#1970),#1989,.F.);
#1970 = FACE_BOUND('',#1971,.T.);
#1971 = EDGE_LOOP('',(#1972,#1980,#1987,#1988));
#1972 = ORIENTED_EDGE('',*,*,#1973,.F.);
#1973 = EDGE_CURVE('',#1974,#1887,#1976,.T.);
#1974 = VERTEX_POINT('',#1975);
#1975 = CARTESIAN_POINT('',(-1.,10.,16.75));
#1976 = LINE('',#1977,#1978);
#1977 = CARTESIAN_POINT('',(-1.,10.,16.75));
#1978 = VECTOR('',#1979,1.);
#1979 = DIRECTION('',(1.,0.,-6.E-17));
#1980 = ORIENTED_EDGE('',*,*,#1981,.T.);
#1981 = EDGE_CURVE('',#1974,#1974,#1982,.T.);
#1982 = CIRCLE('',#1983,1.75);
#1983 = AXIS2_PLACEMENT_3D('',#1984,#1985,#1986);
#1984 = CARTESIAN_POINT('',(-1.,10.,15.));
#1985 = DIRECTION('',(-1.,0.,0.));
#1986 = DIRECTION('',(0.,0.,1.));
#1987 = ORIENTED_EDGE('',*,*,#1973,.T.);
#1988 = ORIENTED_EDGE('',*,*,#1886,.T.);
#1989 = CYLINDRICAL_SURFACE('',#1990,1.75);
#1990 = AXIS2_PLACEMENT_3D('',#1991,#1992,#1993);
#1991 = CARTESIAN_POINT('',(-1.,10.,15.));
#1992 = DIRECTION('',(1.,0.,0.));
#1993 = DIRECTION('',(0.,0.,1.));
#1994 = ADVANCED_FACE('',(#1995,#2006),#2009,.F.);
#1995 = FACE_BOUND('',#1996,.T.);
#1996 = EDGE_LOOP('',(#1997));
#1997 = ORIENTED_EDGE('',*,*,#1998,.T.);
#1998 = EDGE_CURVE('',#1999,#1999,#2001,.T.);
#1999 = VERTEX_POINT('',#2000);
#2000 = CARTESIAN_POINT('',(-1.,10.,18.));
#2001 = CIRCLE('',#2002,3.);
#2002 = AXIS2_PLACEMENT_3D('',#2003,#2004,#2005);
#2003 = CARTESIAN_POINT('',(-1.,10.,15.));
#2004 = DIRECTION('',(-1.,0.,0.));
#2005 = DIRECTION('',(0.,0.,1.));
#2006 = FACE_BOUND('',#2007,.T.);
#2007 = EDGE_LOOP('',(#2008));
#2008 = ORIENTED_EDGE('',*,*,#1981,.F.);
#2009 = PLANE('',#2010);
#2010 = AXIS2_PLACEMENT_3D('',#2011,#2012,#2013);
#2011 = CARTESIAN_POINT('',(-1.,10.,15.));
#2012 = DIRECTION('',(1.,0.,0.));
#2013 = DIRECTION('',(-0.,-0.,-1.));
#2014 = ADVANCED_FACE('',(#2015),#2041,.F.);
#2015 = FACE_BOUND('',#2016,.T.);
#2016 = EDGE_LOOP('',(#2017,#2025,#2032,#2039,#2040));
#2017 = ORIENTED_EDGE('',*,*,#2018,.F.);
#2018 = EDGE_CURVE('',#2019,#1999,#2021,.T.);
#2019 = VERTEX_POINT('',#2020);
#2020 = CARTESIAN_POINT('',(-1.5,10.,18.));
#2021 = LINE('',#2022,#2023);
#2022 = CARTESIAN_POINT('',(-1.5,10.,18.));
#2023 = VECTOR('',#2024,1.);
#2024 = DIRECTION('',(1.,0.,0.));
#2025 = ORIENTED_EDGE('',*,*,#2026,.T.);
#2026 = EDGE_CURVE('',#2019,#1599,#2027,.T.);
#2027 = CIRCLE('',#2028,3.);
#2028 = AXIS2_PLACEMENT_3D('',#2029,#2030,#2031);
#2029 = CARTESIAN_POINT('',(-1.5,10.,15.));
#2030 = DIRECTION('',(-1.,0.,0.));
#2031 = DIRECTION('',(0.,0.,1.));
#2032 = ORIENTED_EDGE('',*,*,#2033,.T.);
#2033 = EDGE_CURVE('',#1599,#2019,#2034,.T.);
#2034 = CIRCLE('',#2035,3.);
#2035 = AXIS2_PLACEMENT_3D('',#2036,#2037,#2038);
#2036 = CARTESIAN_POINT('',(-1.5,10.,15.));
#2037 = DIRECTION('',(-1.,0.,0.));
#2038 = DIRECTION('',(0.,0.,1.));
#2039 = ORIENTED_EDGE('',*,*,#2018,.T.);
#2040 = ORIENTED_EDGE('',*,*,#1998,.F.);
#2041 = CYLINDRICAL_SURFACE('',#2042,3.);
#2042 = AXIS2_PLACEMENT_3D('',#2043,#2044,#2045);
#2043 = CARTESIAN_POINT('',(-1.5,10.,15.));
#2044 = DIRECTION('',(1.,0.,0.));
#2045 = DIRECTION('',(0.,0.,1.));
#2046 = ADVANCED_FACE('',(#2047,#2065,#2068),#2072,.T.);
#2047 = FACE_BOUND('',#2048,.T.);
#2048 = EDGE_LOOP('',(#2049,#2050,#2051,#2052,#2053,#2054,#2055,#2056,
    #2057,#2058,#2059,#2060,#2061,#2062,#2063,#2064));
#2049 = ORIENTED_EDGE('',*,*,#1490,.T.);
#2050 = ORIENTED_EDGE('',*,*,#1842,.F.);
#2051 = ORIENTED_EDGE('',*,*,#1824,.T.);
#2052 = ORIENTED_EDGE('',*,*,#1800,.T.);
#2053 = ORIENTED_EDGE('',*,*,#1776,.T.);
#2054 = ORIENTED_EDGE('',*,*,#1752,.T.);
#2055 = ORIENTED_EDGE('',*,*,#1727,.F.);
#2056 = ORIENTED_EDGE('',*,*,#1703,.F.);
#2057 = ORIENTED_EDGE('',*,*,#1678,.F.);
#2058 = ORIENTED_EDGE('',*,*,#1654,.T.);
#2059 = ORIENTED_EDGE('',*,*,#1630,.T.);
#2060 = ORIENTED_EDGE('',*,*,#1598,.F.);
#2061 = ORIENTED_EDGE('',*,*,#1606,.F.);
#2062 = ORIENTED_EDGE('',*,*,#1573,.F.);
#2063 = ORIENTED_EDGE('',*,*,#1548,.F.);
#2064 = ORIENTED_EDGE('',*,*,#1523,.F.);
#2065 = FACE_BOUND('',#2066,.T.);
#2066 = EDGE_LOOP('',(#2067));
#2067 = ORIENTED_EDGE('',*,*,#1956,.F.);
#2068 = FACE_BOUND('',#2069,.T.);
#2069 = EDGE_LOOP('',(#2070,#2071));
#2070 = ORIENTED_EDGE('',*,*,#2026,.F.);
#2071 = ORIENTED_EDGE('',*,*,#2033,.F.);
#2072 = PLANE('',#2073);
#2073 = AXIS2_PLACEMENT_3D('',#2074,#2075,#2076);
#2074 = CARTESIAN_POINT('',(-1.5,70.571479859701,44.213916784249));
#2075 = DIRECTION('',(-1.,-0.,-0.));
#2076 = DIRECTION('',(0.,0.,-1.));
#2077 = ( GEOMETRIC_REPRESENTATION_CONTEXT(3) 
GLOBAL_UNCERTAINTY_ASSIGNED_CONTEXT((#2081)) 
GLOBAL_UNIT_ASSIGNED_CONTEXT((#2078,#2079,#2080)) REPRESENTATION_CONTEXT
('Context #1','3D Context with UNIT and UNCERTAINTY') );
#2078 = ( LENGTH_UNIT() NAMED_UNIT(*) SI_UNIT(.MILLI.,.METRE.) );
#2079 = ( NAMED_UNIT(*) PLANE_ANGLE_UNIT() SI_UNIT($,.RADIAN.) );
#2080 = ( NAMED_UNIT(*) SI_UNIT($,.STERADIAN.) SOLID_ANGLE_UNIT() );
#2081 = UNCERTAINTY_MEASURE_WITH_UNIT(LENGTH_MEASURE(2.E-04),#2078,
  'distance_accuracy_value','confusion accuracy');
#2082 = PRODUCT_RELATED_PRODUCT_CATEGORY('part',$,(#7));
#2083 = MECHANICAL_DESIGN_GEOMETRIC_PRESENTATION_REPRESENTATION('',(
    #2084),#2077);
#2084 = STYLED_ITEM('color',(#2085),#15);
#2085 = PRESENTATION_STYLE_ASSIGNMENT((#2086,#2092));
#2086 = SURFACE_STYLE_USAGE(.BOTH.,#2087);
#2087 = SURFACE_SIDE_STYLE('',(#2088));
#2088 = SURFACE_STYLE_FILL_AREA(#2089);
#2089 = FILL_AREA_STYLE('',(#2090));
#2090 = FILL_AREA_STYLE_COLOUR('',#2091);
#2091 = COLOUR_RGB('',0.678431390124,0.709803936702,0.741176476869);
#2092 = CURVE_STYLE('',#2093,POSITIVE_LENGTH_MEASURE(0.1),#2094);
#2093 = DRAUGHTING_PRE_DEFINED_CURVE_FONT('continuous');
#2094 = COLOUR_RGB('',9.803921802644E-02,9.803921802644E-02,
  9.803921802644E-02);
ENDSEC;
END-ISO-10303-21;
