ISO-10303-21;
HEADER;
FILE_DESCRIPTION(('FreeCAD Model'),'2;1');
FILE_NAME('Open CASCADE Shape Model','2026-05-01T22:35:56',(''),(''),
  'Open CASCADE STEP processor 7.8','FreeCAD','Unknown');
FILE_SCHEMA(('AUTOMOTIVE_DESIGN { 1 0 10303 214 1 1 1 1 }'));
ENDSEC;
DATA;
#1 = APPLICATION_PROTOCOL_DEFINITION('international standard',
  'automotive_design',2000,#2);
#2 = APPLICATION_CONTEXT(
  'core data for automotive mechanical design processes');
#3 = SHAPE_DEFINITION_REPRESENTATION(#4,#10);
#4 = PRODUCT_DEFINITION_SHAPE('','',#5);
#5 = PRODUCT_DEFINITION('design','',#6,#9);
#6 = PRODUCT_DEFINITION_FORMATION('','',#7);
#7 = PRODUCT('bearing_collar','bearing_collar','',(#8));
#8 = PRODUCT_CONTEXT('',#2,'mechanical');
#9 = PRODUCT_DEFINITION_CONTEXT('part definition',#2,'design');
#10 = ADVANCED_BREP_SHAPE_REPRESENTATION('',(#11,#15),#373);
#11 = AXIS2_PLACEMENT_3D('',#12,#13,#14);
#12 = CARTESIAN_POINT('',(0.,0.,0.));
#13 = DIRECTION('',(0.,0.,1.));
#14 = DIRECTION('',(1.,0.,-0.));
#15 = MANIFOLD_SOLID_BREP('',#16);
#16 = CLOSED_SHELL('',(#17,#45,#70,#94,#122,#147,#171,#196,#216,#245,
    #277,#295,#320,#345,#357));
#17 = ADVANCED_FACE('',(#18,#29),#40,.T.);
#18 = FACE_BOUND('',#19,.T.);
#19 = EDGE_LOOP('',(#20));
#20 = ORIENTED_EDGE('',*,*,#21,.T.);
#21 = EDGE_CURVE('',#22,#22,#24,.T.);
#22 = VERTEX_POINT('',#23);
#23 = CARTESIAN_POINT('',(20.5,139.,5.));
#24 = CIRCLE('',#25,15.5);
#25 = AXIS2_PLACEMENT_3D('',#26,#27,#28);
#26 = CARTESIAN_POINT('',(36.,139.,5.));
#27 = DIRECTION('',(0.,1.,-0.));
#28 = DIRECTION('',(-1.,0.,0.));
#29 = FACE_BOUND('',#30,.T.);
#30 = EDGE_LOOP('',(#31));
#31 = ORIENTED_EDGE('',*,*,#32,.F.);
#32 = EDGE_CURVE('',#33,#33,#35,.T.);
#33 = VERTEX_POINT('',#34);
#34 = CARTESIAN_POINT('',(26.,139.,5.));
#35 = CIRCLE('',#36,10.);
#36 = AXIS2_PLACEMENT_3D('',#37,#38,#39);
#37 = CARTESIAN_POINT('',(36.,139.,5.));
#38 = DIRECTION('',(0.,1.,-2.2E-16));
#39 = DIRECTION('',(-1.,0.,0.));
#40 = PLANE('',#41);
#41 = AXIS2_PLACEMENT_3D('',#42,#43,#44);
#42 = CARTESIAN_POINT('',(36.,139.,5.));
#43 = DIRECTION('',(0.,1.,0.));
#44 = DIRECTION('',(0.,0.,1.));
#45 = ADVANCED_FACE('',(#46),#65,.T.);
#46 = FACE_BOUND('',#47,.T.);
#47 = EDGE_LOOP('',(#48,#56,#63,#64));
#48 = ORIENTED_EDGE('',*,*,#49,.F.);
#49 = EDGE_CURVE('',#50,#22,#52,.T.);
#50 = VERTEX_POINT('',#51);
#51 = CARTESIAN_POINT('',(20.,138.5,5.));
#52 = LINE('',#53,#54);
#53 = CARTESIAN_POINT('',(20.,138.5,5.));
#54 = VECTOR('',#55,1.);
#55 = DIRECTION('',(0.707106781187,0.707106781187,4.E-17));
#56 = ORIENTED_EDGE('',*,*,#57,.T.);
#57 = EDGE_CURVE('',#50,#50,#58,.T.);
#58 = CIRCLE('',#59,16.);
#59 = AXIS2_PLACEMENT_3D('',#60,#61,#62);
#60 = CARTESIAN_POINT('',(36.,138.5,5.));
#61 = DIRECTION('',(0.,1.,-0.));
#62 = DIRECTION('',(-1.,0.,0.));
#63 = ORIENTED_EDGE('',*,*,#49,.T.);
#64 = ORIENTED_EDGE('',*,*,#21,.F.);
#65 = CONICAL_SURFACE('',#66,16.,0.785398163397);
#66 = AXIS2_PLACEMENT_3D('',#67,#68,#69);
#67 = CARTESIAN_POINT('',(36.,138.5,5.));
#68 = DIRECTION('',(-0.,-1.,-0.));
#69 = DIRECTION('',(-1.,0.,0.));
#70 = ADVANCED_FACE('',(#71),#89,.T.);
#71 = FACE_BOUND('',#72,.T.);
#72 = EDGE_LOOP('',(#73,#80,#87,#88));
#73 = ORIENTED_EDGE('',*,*,#74,.F.);
#74 = EDGE_CURVE('',#75,#50,#77,.T.);
#75 = VERTEX_POINT('',#76);
#76 = CARTESIAN_POINT('',(20.,137.,5.));
#77 = B_SPLINE_CURVE_WITH_KNOTS('',1,(#78,#79),.UNSPECIFIED.,.F.,.F.,(2,
    2),(-1.,1.),.PIECEWISE_BEZIER_KNOTS.);
#78 = CARTESIAN_POINT('',(20.,137.,5.));
#79 = CARTESIAN_POINT('',(20.,139.,5.));
#80 = ORIENTED_EDGE('',*,*,#81,.T.);
#81 = EDGE_CURVE('',#75,#75,#82,.T.);
#82 = CIRCLE('',#83,16.);
#83 = AXIS2_PLACEMENT_3D('',#84,#85,#86);
#84 = CARTESIAN_POINT('',(36.,137.,5.));
#85 = DIRECTION('',(0.,1.,-2.2E-16));
#86 = DIRECTION('',(-1.,0.,0.));
#87 = ORIENTED_EDGE('',*,*,#74,.T.);
#88 = ORIENTED_EDGE('',*,*,#57,.F.);
#89 = CYLINDRICAL_SURFACE('',#90,16.);
#90 = AXIS2_PLACEMENT_3D('',#91,#92,#93);
#91 = CARTESIAN_POINT('',(36.,138.,5.));
#92 = DIRECTION('',(0.,1.,-2.2E-16));
#93 = DIRECTION('',(-1.,0.,0.));
#94 = ADVANCED_FACE('',(#95,#106),#117,.T.);
#95 = FACE_BOUND('',#96,.T.);
#96 = EDGE_LOOP('',(#97));
#97 = ORIENTED_EDGE('',*,*,#98,.T.);
#98 = EDGE_CURVE('',#99,#99,#101,.T.);
#99 = VERTEX_POINT('',#100);
#100 = CARTESIAN_POINT('',(51.5,127.,5.));
#101 = CIRCLE('',#102,15.5);
#102 = AXIS2_PLACEMENT_3D('',#103,#104,#105);
#103 = CARTESIAN_POINT('',(36.,127.,5.));
#104 = DIRECTION('',(0.,-1.,0.));
#105 = DIRECTION('',(1.,0.,0.));
#106 = FACE_BOUND('',#107,.T.);
#107 = EDGE_LOOP('',(#108));
#108 = ORIENTED_EDGE('',*,*,#109,.T.);
#109 = EDGE_CURVE('',#110,#110,#112,.T.);
#110 = VERTEX_POINT('',#111);
#111 = CARTESIAN_POINT('',(24.9,127.,5.));
#112 = CIRCLE('',#113,11.1);
#113 = AXIS2_PLACEMENT_3D('',#114,#115,#116);
#114 = CARTESIAN_POINT('',(36.,127.,5.));
#115 = DIRECTION('',(0.,1.,-2.2E-16));
#116 = DIRECTION('',(-1.,0.,0.));
#117 = PLANE('',#118);
#118 = AXIS2_PLACEMENT_3D('',#119,#120,#121);
#119 = CARTESIAN_POINT('',(36.,127.,5.));
#120 = DIRECTION('',(-0.,-1.,-0.));
#121 = DIRECTION('',(0.,0.,-1.));
#122 = ADVANCED_FACE('',(#123),#142,.T.);
#123 = FACE_BOUND('',#124,.F.);
#124 = EDGE_LOOP('',(#125,#133,#134,#135));
#125 = ORIENTED_EDGE('',*,*,#126,.F.);
#126 = EDGE_CURVE('',#99,#127,#129,.T.);
#127 = VERTEX_POINT('',#128);
#128 = CARTESIAN_POINT('',(52.,127.5,5.));
#129 = LINE('',#130,#131);
#130 = CARTESIAN_POINT('',(52.,127.5,5.));
#131 = VECTOR('',#132,1.);
#132 = DIRECTION('',(0.707106781187,0.707106781187,0.));
#133 = ORIENTED_EDGE('',*,*,#98,.T.);
#134 = ORIENTED_EDGE('',*,*,#126,.T.);
#135 = ORIENTED_EDGE('',*,*,#136,.F.);
#136 = EDGE_CURVE('',#127,#127,#137,.T.);
#137 = CIRCLE('',#138,16.);
#138 = AXIS2_PLACEMENT_3D('',#139,#140,#141);
#139 = CARTESIAN_POINT('',(36.,127.5,5.));
#140 = DIRECTION('',(0.,-1.,0.));
#141 = DIRECTION('',(1.,0.,0.));
#142 = CONICAL_SURFACE('',#143,16.,0.785398163397);
#143 = AXIS2_PLACEMENT_3D('',#144,#145,#146);
#144 = CARTESIAN_POINT('',(36.,127.5,5.));
#145 = DIRECTION('',(0.,1.,0.));
#146 = DIRECTION('',(1.,0.,0.));
#147 = ADVANCED_FACE('',(#148),#166,.F.);
#148 = FACE_BOUND('',#149,.T.);
#149 = EDGE_LOOP('',(#150,#159,#164,#165));
#150 = ORIENTED_EDGE('',*,*,#151,.T.);
#151 = EDGE_CURVE('',#152,#152,#154,.T.);
#152 = VERTEX_POINT('',#153);
#153 = CARTESIAN_POINT('',(24.9,133.,5.));
#154 = CIRCLE('',#155,11.1);
#155 = AXIS2_PLACEMENT_3D('',#156,#157,#158);
#156 = CARTESIAN_POINT('',(36.,133.,5.));
#157 = DIRECTION('',(0.,1.,-0.));
#158 = DIRECTION('',(-1.,0.,0.));
#159 = ORIENTED_EDGE('',*,*,#160,.T.);
#160 = EDGE_CURVE('',#152,#110,#161,.T.);
#161 = B_SPLINE_CURVE_WITH_KNOTS('',1,(#162,#163),.UNSPECIFIED.,.F.,.F.,
  (2,2),(-1.,11.),.PIECEWISE_BEZIER_KNOTS.);
#162 = CARTESIAN_POINT('',(24.9,139.,5.));
#163 = CARTESIAN_POINT('',(24.9,127.,5.));
#164 = ORIENTED_EDGE('',*,*,#109,.F.);
#165 = ORIENTED_EDGE('',*,*,#160,.F.);
#166 = CYLINDRICAL_SURFACE('',#167,11.1);
#167 = AXIS2_PLACEMENT_3D('',#168,#169,#170);
#168 = CARTESIAN_POINT('',(36.,138.,5.));
#169 = DIRECTION('',(0.,-1.,2.2E-16));
#170 = DIRECTION('',(-1.,0.,0.));
#171 = ADVANCED_FACE('',(#172),#191,.T.);
#172 = FACE_BOUND('',#173,.T.);
#173 = EDGE_LOOP('',(#174,#182,#189,#190));
#174 = ORIENTED_EDGE('',*,*,#175,.T.);
#175 = EDGE_CURVE('',#127,#176,#178,.T.);
#176 = VERTEX_POINT('',#177);
#177 = CARTESIAN_POINT('',(52.,128.,5.));
#178 = LINE('',#179,#180);
#179 = CARTESIAN_POINT('',(52.,127.,5.));
#180 = VECTOR('',#181,1.);
#181 = DIRECTION('',(0.,1.,-2.2E-16));
#182 = ORIENTED_EDGE('',*,*,#183,.T.);
#183 = EDGE_CURVE('',#176,#176,#184,.T.);
#184 = CIRCLE('',#185,16.);
#185 = AXIS2_PLACEMENT_3D('',#186,#187,#188);
#186 = CARTESIAN_POINT('',(36.,128.,5.));
#187 = DIRECTION('',(0.,-1.,0.));
#188 = DIRECTION('',(1.,0.,0.));
#189 = ORIENTED_EDGE('',*,*,#175,.F.);
#190 = ORIENTED_EDGE('',*,*,#136,.F.);
#191 = CYLINDRICAL_SURFACE('',#192,16.);
#192 = AXIS2_PLACEMENT_3D('',#193,#194,#195);
#193 = CARTESIAN_POINT('',(36.,127.,5.));
#194 = DIRECTION('',(0.,-1.,2.2E-16));
#195 = DIRECTION('',(1.,0.,0.));
#196 = ADVANCED_FACE('',(#197,#200),#211,.F.);
#197 = FACE_BOUND('',#198,.F.);
#198 = EDGE_LOOP('',(#199));
#199 = ORIENTED_EDGE('',*,*,#151,.T.);
#200 = FACE_BOUND('',#201,.T.);
#201 = EDGE_LOOP('',(#202));
#202 = ORIENTED_EDGE('',*,*,#203,.T.);
#203 = EDGE_CURVE('',#204,#204,#206,.T.);
#204 = VERTEX_POINT('',#205);
#205 = CARTESIAN_POINT('',(26.,133.,5.));
#206 = CIRCLE('',#207,10.);
#207 = AXIS2_PLACEMENT_3D('',#208,#209,#210);
#208 = CARTESIAN_POINT('',(36.,133.,5.));
#209 = DIRECTION('',(0.,1.,-2.2E-16));
#210 = DIRECTION('',(-1.,0.,0.));
#211 = PLANE('',#212);
#212 = AXIS2_PLACEMENT_3D('',#213,#214,#215);
#213 = CARTESIAN_POINT('',(36.,133.,5.));
#214 = DIRECTION('',(0.,1.,0.));
#215 = DIRECTION('',(-1.,0.,0.));
#216 = ADVANCED_FACE('',(#217,#237),#240,.T.);
#217 = FACE_BOUND('',#218,.T.);
#218 = EDGE_LOOP('',(#219,#230));
#219 = ORIENTED_EDGE('',*,*,#220,.T.);
#220 = EDGE_CURVE('',#221,#223,#225,.T.);
#221 = VERTEX_POINT('',#222);
#222 = CARTESIAN_POINT('',(20.5,128.,5.));
#223 = VERTEX_POINT('',#224);
#224 = CARTESIAN_POINT('',(51.5,128.,5.));
#225 = CIRCLE('',#226,15.5);
#226 = AXIS2_PLACEMENT_3D('',#227,#228,#229);
#227 = CARTESIAN_POINT('',(36.,128.,5.));
#228 = DIRECTION('',(-0.,-1.,0.));
#229 = DIRECTION('',(-1.,0.,3.E-16));
#230 = ORIENTED_EDGE('',*,*,#231,.T.);
#231 = EDGE_CURVE('',#223,#221,#232,.T.);
#232 = CIRCLE('',#233,15.5);
#233 = AXIS2_PLACEMENT_3D('',#234,#235,#236);
#234 = CARTESIAN_POINT('',(36.,128.,5.));
#235 = DIRECTION('',(0.,-1.,0.));
#236 = DIRECTION('',(1.,0.,1.5E-16));
#237 = FACE_BOUND('',#238,.F.);
#238 = EDGE_LOOP('',(#239));
#239 = ORIENTED_EDGE('',*,*,#183,.T.);
#240 = PLANE('',#241);
#241 = AXIS2_PLACEMENT_3D('',#242,#243,#244);
#242 = CARTESIAN_POINT('',(36.,128.,5.));
#243 = DIRECTION('',(0.,1.,0.));
#244 = DIRECTION('',(0.,0.,1.));
#245 = ADVANCED_FACE('',(#246),#272,.T.);
#246 = FACE_BOUND('',#247,.T.);
#247 = EDGE_LOOP('',(#248,#256,#265,#271));
#248 = ORIENTED_EDGE('',*,*,#249,.F.);
#249 = EDGE_CURVE('',#250,#221,#252,.T.);
#250 = VERTEX_POINT('',#251);
#251 = CARTESIAN_POINT('',(24.,131.5,5.));
#252 = LINE('',#253,#254);
#253 = CARTESIAN_POINT('',(24.,131.5,5.));
#254 = VECTOR('',#255,1.);
#255 = DIRECTION('',(-0.707106781187,-0.707106781187,2.1E-16));
#256 = ORIENTED_EDGE('',*,*,#257,.T.);
#257 = EDGE_CURVE('',#250,#258,#260,.T.);
#258 = VERTEX_POINT('',#259);
#259 = CARTESIAN_POINT('',(48.,131.5,5.));
#260 = CIRCLE('',#261,12.);
#261 = AXIS2_PLACEMENT_3D('',#262,#263,#264);
#262 = CARTESIAN_POINT('',(36.,131.5,5.));
#263 = DIRECTION('',(-0.,-1.,0.));
#264 = DIRECTION('',(-1.,0.,3.E-16));
#265 = ORIENTED_EDGE('',*,*,#266,.T.);
#266 = EDGE_CURVE('',#258,#223,#267,.T.);
#267 = LINE('',#268,#269);
#268 = CARTESIAN_POINT('',(48.,131.5,5.));
#269 = VECTOR('',#270,1.);
#270 = DIRECTION('',(0.707106781187,-0.707106781187,-3.E-16));
#271 = ORIENTED_EDGE('',*,*,#220,.F.);
#272 = CONICAL_SURFACE('',#273,12.,0.785398163397);
#273 = AXIS2_PLACEMENT_3D('',#274,#275,#276);
#274 = CARTESIAN_POINT('',(36.,131.5,5.));
#275 = DIRECTION('',(-0.,-1.,-0.));
#276 = DIRECTION('',(-1.,0.,3.E-16));
#277 = ADVANCED_FACE('',(#278),#290,.T.);
#278 = FACE_BOUND('',#279,.T.);
#279 = EDGE_LOOP('',(#280,#281,#288,#289));
#280 = ORIENTED_EDGE('',*,*,#266,.F.);
#281 = ORIENTED_EDGE('',*,*,#282,.T.);
#282 = EDGE_CURVE('',#258,#250,#283,.T.);
#283 = CIRCLE('',#284,12.);
#284 = AXIS2_PLACEMENT_3D('',#285,#286,#287);
#285 = CARTESIAN_POINT('',(36.,131.5,5.));
#286 = DIRECTION('',(0.,-1.,0.));
#287 = DIRECTION('',(1.,0.,1.5E-16));
#288 = ORIENTED_EDGE('',*,*,#249,.T.);
#289 = ORIENTED_EDGE('',*,*,#231,.F.);
#290 = CONICAL_SURFACE('',#291,12.,0.785398163397);
#291 = AXIS2_PLACEMENT_3D('',#292,#293,#294);
#292 = CARTESIAN_POINT('',(36.,131.5,5.));
#293 = DIRECTION('',(-0.,-1.,-0.));
#294 = DIRECTION('',(1.,0.,1.5E-16));
#295 = ADVANCED_FACE('',(#296),#315,.T.);
#296 = FACE_BOUND('',#297,.T.);
#297 = EDGE_LOOP('',(#298,#305,#312,#313,#314));
#298 = ORIENTED_EDGE('',*,*,#299,.T.);
#299 = EDGE_CURVE('',#250,#300,#302,.T.);
#300 = VERTEX_POINT('',#301);
#301 = CARTESIAN_POINT('',(24.,133.5,5.));
#302 = B_SPLINE_CURVE_WITH_KNOTS('',1,(#303,#304),.UNSPECIFIED.,.F.,.F.,
  (2,2),(-7.,4.),.PIECEWISE_BEZIER_KNOTS.);
#303 = CARTESIAN_POINT('',(24.,127.,5.));
#304 = CARTESIAN_POINT('',(24.,138.,5.));
#305 = ORIENTED_EDGE('',*,*,#306,.F.);
#306 = EDGE_CURVE('',#300,#300,#307,.T.);
#307 = CIRCLE('',#308,12.);
#308 = AXIS2_PLACEMENT_3D('',#309,#310,#311);
#309 = CARTESIAN_POINT('',(36.,133.5,5.));
#310 = DIRECTION('',(0.,1.,0.));
#311 = DIRECTION('',(-1.,0.,-7.E-17));
#312 = ORIENTED_EDGE('',*,*,#299,.F.);
#313 = ORIENTED_EDGE('',*,*,#282,.F.);
#314 = ORIENTED_EDGE('',*,*,#257,.F.);
#315 = CYLINDRICAL_SURFACE('',#316,12.);
#316 = AXIS2_PLACEMENT_3D('',#317,#318,#319);
#317 = CARTESIAN_POINT('',(36.,134.,5.));
#318 = DIRECTION('',(0.,1.,-2.2E-16));
#319 = DIRECTION('',(-1.,0.,0.));
#320 = ADVANCED_FACE('',(#321),#340,.T.);
#321 = FACE_BOUND('',#322,.F.);
#322 = EDGE_LOOP('',(#323,#331,#338,#339));
#323 = ORIENTED_EDGE('',*,*,#324,.F.);
#324 = EDGE_CURVE('',#325,#300,#327,.T.);
#325 = VERTEX_POINT('',#326);
#326 = CARTESIAN_POINT('',(20.5,137.,5.));
#327 = LINE('',#328,#329);
#328 = CARTESIAN_POINT('',(24.,133.5,5.));
#329 = VECTOR('',#330,1.);
#330 = DIRECTION('',(0.707106781187,-0.707106781187,5.E-17));
#331 = ORIENTED_EDGE('',*,*,#332,.T.);
#332 = EDGE_CURVE('',#325,#325,#333,.T.);
#333 = CIRCLE('',#334,15.5);
#334 = AXIS2_PLACEMENT_3D('',#335,#336,#337);
#335 = CARTESIAN_POINT('',(36.,137.,5.));
#336 = DIRECTION('',(0.,1.,0.));
#337 = DIRECTION('',(-1.,0.,-7.E-17));
#338 = ORIENTED_EDGE('',*,*,#324,.T.);
#339 = ORIENTED_EDGE('',*,*,#306,.F.);
#340 = CONICAL_SURFACE('',#341,12.,0.785398163397);
#341 = AXIS2_PLACEMENT_3D('',#342,#343,#344);
#342 = CARTESIAN_POINT('',(36.,133.5,5.));
#343 = DIRECTION('',(0.,1.,0.));
#344 = DIRECTION('',(-1.,0.,-7.E-17));
#345 = ADVANCED_FACE('',(#346,#349),#352,.F.);
#346 = FACE_BOUND('',#347,.F.);
#347 = EDGE_LOOP('',(#348));
#348 = ORIENTED_EDGE('',*,*,#332,.F.);
#349 = FACE_BOUND('',#350,.F.);
#350 = EDGE_LOOP('',(#351));
#351 = ORIENTED_EDGE('',*,*,#81,.T.);
#352 = PLANE('',#353);
#353 = AXIS2_PLACEMENT_3D('',#354,#355,#356);
#354 = CARTESIAN_POINT('',(36.,137.,5.));
#355 = DIRECTION('',(0.,1.,0.));
#356 = DIRECTION('',(0.,0.,1.));
#357 = ADVANCED_FACE('',(#358),#368,.F.);
#358 = FACE_BOUND('',#359,.F.);
#359 = EDGE_LOOP('',(#360,#361,#366,#367));
#360 = ORIENTED_EDGE('',*,*,#32,.F.);
#361 = ORIENTED_EDGE('',*,*,#362,.F.);
#362 = EDGE_CURVE('',#204,#33,#363,.T.);
#363 = B_SPLINE_CURVE_WITH_KNOTS('',1,(#364,#365),.UNSPECIFIED.,.F.,.F.,
  (2,2),(-5.,1.),.PIECEWISE_BEZIER_KNOTS.);
#364 = CARTESIAN_POINT('',(26.,133.,5.));
#365 = CARTESIAN_POINT('',(26.,139.,5.));
#366 = ORIENTED_EDGE('',*,*,#203,.T.);
#367 = ORIENTED_EDGE('',*,*,#362,.T.);
#368 = CYLINDRICAL_SURFACE('',#369,10.);
#369 = AXIS2_PLACEMENT_3D('',#370,#371,#372);
#370 = CARTESIAN_POINT('',(36.,138.,5.));
#371 = DIRECTION('',(0.,1.,-2.2E-16));
#372 = DIRECTION('',(-1.,0.,0.));
#373 = ( GEOMETRIC_REPRESENTATION_CONTEXT(3) 
GLOBAL_UNCERTAINTY_ASSIGNED_CONTEXT((#377)) GLOBAL_UNIT_ASSIGNED_CONTEXT
((#374,#375,#376)) REPRESENTATION_CONTEXT('Context #1',
  '3D Context with UNIT and UNCERTAINTY') );
#374 = ( LENGTH_UNIT() NAMED_UNIT(*) SI_UNIT(.MILLI.,.METRE.) );
#375 = ( NAMED_UNIT(*) PLANE_ANGLE_UNIT() SI_UNIT($,.RADIAN.) );
#376 = ( NAMED_UNIT(*) SI_UNIT($,.STERADIAN.) SOLID_ANGLE_UNIT() );
#377 = UNCERTAINTY_MEASURE_WITH_UNIT(LENGTH_MEASURE(5.E-06),#374,
  'distance_accuracy_value','confusion accuracy');
#378 = PRODUCT_RELATED_PRODUCT_CATEGORY('part',$,(#7));
#379 = MECHANICAL_DESIGN_GEOMETRIC_PRESENTATION_REPRESENTATION('',(#380)
  ,#373);
#380 = STYLED_ITEM('color',(#381),#15);
#381 = PRESENTATION_STYLE_ASSIGNMENT((#382,#388));
#382 = SURFACE_STYLE_USAGE(.BOTH.,#383);
#383 = SURFACE_SIDE_STYLE('',(#384));
#384 = SURFACE_STYLE_FILL_AREA(#385);
#385 = FILL_AREA_STYLE('',(#386));
#386 = FILL_AREA_STYLE_COLOUR('',#387);
#387 = COLOUR_RGB('',0.678431390124,0.709803936702,0.741176476869);
#388 = CURVE_STYLE('',#389,POSITIVE_LENGTH_MEASURE(0.1),#390);
#389 = DRAUGHTING_PRE_DEFINED_CURVE_FONT('continuous');
#390 = COLOUR_RGB('',9.803921802644E-02,9.803921802644E-02,
  9.803921802644E-02);
ENDSEC;
END-ISO-10303-21;
