ISO-10303-21;
HEADER;
FILE_DESCRIPTION(('FreeCAD Model'),'2;1');
FILE_NAME('Open CASCADE Shape Model','2026-05-07T10:03:25',(''),(''),
  'Open CASCADE STEP processor 7.8','FreeCAD','Unknown');
FILE_SCHEMA(('AUTOMOTIVE_DESIGN { 1 0 10303 214 1 1 1 1 }'));
ENDSEC;
DATA;
#1 = APPLICATION_PROTOCOL_DEFINITION('international standard',
  'automotive_design',2000,#2);
#2 = APPLICATION_CONTEXT(
  'core data for automotive mechanical design processes');
#3 = SHAPE_DEFINITION_REPRESENTATION(#4,#10);
#4 = PRODUCT_DEFINITION_SHAPE('','',#5);
#5 = PRODUCT_DEFINITION('design','',#6,#9);
#6 = PRODUCT_DEFINITION_FORMATION('','',#7);
#7 = PRODUCT('Body','Body','',(#8));
#8 = PRODUCT_CONTEXT('',#2,'mechanical');
#9 = PRODUCT_DEFINITION_CONTEXT('part definition',#2,'design');
#10 = ADVANCED_BREP_SHAPE_REPRESENTATION('',(#11,#15),#1465);
#11 = AXIS2_PLACEMENT_3D('',#12,#13,#14);
#12 = CARTESIAN_POINT('',(0.,0.,0.));
#13 = DIRECTION('',(0.,0.,1.));
#14 = DIRECTION('',(1.,0.,-0.));
#15 = MANIFOLD_SOLID_BREP('',#16);
#16 = CLOSED_SHELL('',(#17,#111,#166,#190,#296,#352,#400,#424,#448,#497,
    #522,#547,#571,#595,#619,#686,#710,#727,#758,#782,#838,#862,#950,
    #974,#1030,#1047,#1064,#1104,#1121,#1153,#1177,#1194,#1217,#1229,
    #1261,#1285,#1310,#1327,#1344,#1361,#1373,#1390,#1407,#1424,#1436,
    #1453));
#17 = ADVANCED_FACE('',(#18,#84,#95),#106,.T.);
#18 = FACE_BOUND('',#19,.T.);
#19 = EDGE_LOOP('',(#20,#30,#38,#46,#54,#62,#70,#78));
#20 = ORIENTED_EDGE('',*,*,#21,.F.);
#21 = EDGE_CURVE('',#22,#24,#26,.T.);
#22 = VERTEX_POINT('',#23);
#23 = CARTESIAN_POINT('',(-14.5,2.,8.5));
#24 = VERTEX_POINT('',#25);
#25 = CARTESIAN_POINT('',(-14.5,2.,-18.4));
#26 = LINE('',#27,#28);
#27 = CARTESIAN_POINT('',(-14.5,2.,8.5));
#28 = VECTOR('',#29,1.);
#29 = DIRECTION('',(0.,0.,-1.));
#30 = ORIENTED_EDGE('',*,*,#31,.F.);
#31 = EDGE_CURVE('',#32,#22,#34,.T.);
#32 = VERTEX_POINT('',#33);
#33 = CARTESIAN_POINT('',(14.5,2.,8.5));
#34 = LINE('',#35,#36);
#35 = CARTESIAN_POINT('',(-4.099999904633,2.,8.5));
#36 = VECTOR('',#37,1.);
#37 = DIRECTION('',(-1.,0.,0.));
#38 = ORIENTED_EDGE('',*,*,#39,.F.);
#39 = EDGE_CURVE('',#40,#32,#42,.T.);
#40 = VERTEX_POINT('',#41);
#41 = CARTESIAN_POINT('',(14.5,2.,-18.4));
#42 = LINE('',#43,#44);
#43 = CARTESIAN_POINT('',(14.5,2.,-18.6));
#44 = VECTOR('',#45,1.);
#45 = DIRECTION('',(0.,0.,1.));
#46 = ORIENTED_EDGE('',*,*,#47,.F.);
#47 = EDGE_CURVE('',#48,#40,#50,.T.);
#48 = VERTEX_POINT('',#49);
#49 = CARTESIAN_POINT('',(3.5,2.,-18.4));
#50 = LINE('',#51,#52);
#51 = CARTESIAN_POINT('',(3.5,2.,-18.4));
#52 = VECTOR('',#53,1.);
#53 = DIRECTION('',(1.,0.,0.));
#54 = ORIENTED_EDGE('',*,*,#55,.T.);
#55 = EDGE_CURVE('',#48,#56,#58,.T.);
#56 = VERTEX_POINT('',#57);
#57 = CARTESIAN_POINT('',(3.5,2.,-0.4));
#58 = LINE('',#59,#60);
#59 = CARTESIAN_POINT('',(3.5,2.,-7.725803149479));
#60 = VECTOR('',#61,1.);
#61 = DIRECTION('',(0.,0.,1.));
#62 = ORIENTED_EDGE('',*,*,#63,.F.);
#63 = EDGE_CURVE('',#64,#56,#66,.T.);
#64 = VERTEX_POINT('',#65);
#65 = CARTESIAN_POINT('',(-3.5,2.,-0.4));
#66 = LINE('',#67,#68);
#67 = CARTESIAN_POINT('',(-3.5,2.,-0.4));
#68 = VECTOR('',#69,1.);
#69 = DIRECTION('',(1.,0.,0.));
#70 = ORIENTED_EDGE('',*,*,#71,.T.);
#71 = EDGE_CURVE('',#64,#72,#74,.T.);
#72 = VERTEX_POINT('',#73);
#73 = CARTESIAN_POINT('',(-3.5,2.,-18.4));
#74 = LINE('',#75,#76);
#75 = CARTESIAN_POINT('',(-3.5,2.,-4.4));
#76 = VECTOR('',#77,1.);
#77 = DIRECTION('',(0.,0.,-1.));
#78 = ORIENTED_EDGE('',*,*,#79,.T.);
#79 = EDGE_CURVE('',#72,#24,#80,.T.);
#80 = LINE('',#81,#82);
#81 = CARTESIAN_POINT('',(-3.5,2.,-18.4));
#82 = VECTOR('',#83,1.);
#83 = DIRECTION('',(-1.,0.,0.));
#84 = FACE_BOUND('',#85,.T.);
#85 = EDGE_LOOP('',(#86));
#86 = ORIENTED_EDGE('',*,*,#87,.T.);
#87 = EDGE_CURVE('',#88,#88,#90,.T.);
#88 = VERTEX_POINT('',#89);
#89 = CARTESIAN_POINT('',(-9.599999904633,2.,-5.05));
#90 = CIRCLE('',#91,2.);
#91 = AXIS2_PLACEMENT_3D('',#92,#93,#94);
#92 = CARTESIAN_POINT('',(-11.59999990463,2.,-5.05));
#93 = DIRECTION('',(0.,-1.,2.2E-16));
#94 = DIRECTION('',(1.,0.,0.));
#95 = FACE_BOUND('',#96,.T.);
#96 = EDGE_LOOP('',(#97));
#97 = ORIENTED_EDGE('',*,*,#98,.T.);
#98 = EDGE_CURVE('',#99,#99,#101,.T.);
#99 = VERTEX_POINT('',#100);
#100 = CARTESIAN_POINT('',(13.599999904633,2.,-5.05));
#101 = CIRCLE('',#102,2.);
#102 = AXIS2_PLACEMENT_3D('',#103,#104,#105);
#103 = CARTESIAN_POINT('',(11.599999904633,2.,-5.05));
#104 = DIRECTION('',(0.,-1.,2.2E-16));
#105 = DIRECTION('',(1.,0.,0.));
#106 = PLANE('',#107);
#107 = AXIS2_PLACEMENT_3D('',#108,#109,#110);
#108 = CARTESIAN_POINT('',(4.8E-16,2.,-5.279614873838));
#109 = DIRECTION('',(0.,1.,0.));
#110 = DIRECTION('',(0.,0.,1.));
#111 = ADVANCED_FACE('',(#112),#161,.T.);
#112 = FACE_BOUND('',#113,.T.);
#113 = EDGE_LOOP('',(#114,#122,#123,#131,#139,#147,#155));
#114 = ORIENTED_EDGE('',*,*,#115,.F.);
#115 = EDGE_CURVE('',#22,#116,#118,.T.);
#116 = VERTEX_POINT('',#117);
#117 = CARTESIAN_POINT('',(-14.8,1.7,8.5));
#118 = LINE('',#119,#120);
#119 = CARTESIAN_POINT('',(-12.4375,4.0625,8.5));
#120 = VECTOR('',#121,1.);
#121 = DIRECTION('',(-0.707106781187,-0.707106781187,0.));
#122 = ORIENTED_EDGE('',*,*,#21,.T.);
#123 = ORIENTED_EDGE('',*,*,#124,.T.);
#124 = EDGE_CURVE('',#24,#125,#127,.T.);
#125 = VERTEX_POINT('',#126);
#126 = CARTESIAN_POINT('',(-14.7,1.8,-18.6));
#127 = LINE('',#128,#129);
#128 = CARTESIAN_POINT('',(-8.3,8.2,-12.2));
#129 = VECTOR('',#130,1.);
#130 = DIRECTION('',(-0.57735026919,-0.57735026919,-0.57735026919));
#131 = ORIENTED_EDGE('',*,*,#132,.T.);
#132 = EDGE_CURVE('',#125,#133,#135,.T.);
#133 = VERTEX_POINT('',#134);
#134 = CARTESIAN_POINT('',(-14.8,1.7,-18.6));
#135 = LINE('',#136,#137);
#136 = CARTESIAN_POINT('',(-12.48599627733,4.014003722663,-18.6));
#137 = VECTOR('',#138,1.);
#138 = DIRECTION('',(-0.707106781187,-0.707106781187,0.));
#139 = ORIENTED_EDGE('',*,*,#140,.T.);
#140 = EDGE_CURVE('',#133,#141,#143,.T.);
#141 = VERTEX_POINT('',#142);
#142 = CARTESIAN_POINT('',(-15.,1.5,-18.4));
#143 = LINE('',#144,#145);
#144 = CARTESIAN_POINT('',(-21.2,-4.7,-12.2));
#145 = VECTOR('',#146,1.);
#146 = DIRECTION('',(-0.57735026919,-0.57735026919,0.57735026919));
#147 = ORIENTED_EDGE('',*,*,#148,.F.);
#148 = EDGE_CURVE('',#149,#141,#151,.T.);
#149 = VERTEX_POINT('',#150);
#150 = CARTESIAN_POINT('',(-15.,1.5,8.3));
#151 = LINE('',#152,#153);
#152 = CARTESIAN_POINT('',(-15.,1.5,8.5));
#153 = VECTOR('',#154,1.);
#154 = DIRECTION('',(0.,0.,-1.));
#155 = ORIENTED_EDGE('',*,*,#156,.F.);
#156 = EDGE_CURVE('',#116,#149,#157,.T.);
#157 = LINE('',#158,#159);
#158 = CARTESIAN_POINT('',(-16.68333333333,-0.183333333333,
    6.616666666667));
#159 = VECTOR('',#160,1.);
#160 = DIRECTION('',(-0.57735026919,-0.57735026919,-0.57735026919));
#161 = PLANE('',#162);
#162 = AXIS2_PLACEMENT_3D('',#163,#164,#165);
#163 = CARTESIAN_POINT('',(-14.75,1.75,8.5));
#164 = DIRECTION('',(-0.707106781187,0.707106781187,0.));
#165 = DIRECTION('',(0.,0.,-1.));
#166 = ADVANCED_FACE('',(#167),#185,.T.);
#167 = FACE_BOUND('',#168,.F.);
#168 = EDGE_LOOP('',(#169,#177,#178,#179));
#169 = ORIENTED_EDGE('',*,*,#170,.F.);
#170 = EDGE_CURVE('',#72,#171,#173,.T.);
#171 = VERTEX_POINT('',#172);
#172 = CARTESIAN_POINT('',(-3.5,1.8,-18.6));
#173 = LINE('',#174,#175);
#174 = CARTESIAN_POINT('',(-3.5,3.287195119819,-17.11280488018));
#175 = VECTOR('',#176,1.);
#176 = DIRECTION('',(0.,-0.707106781187,-0.707106781187));
#177 = ORIENTED_EDGE('',*,*,#79,.T.);
#178 = ORIENTED_EDGE('',*,*,#124,.T.);
#179 = ORIENTED_EDGE('',*,*,#180,.F.);
#180 = EDGE_CURVE('',#171,#125,#181,.T.);
#181 = LINE('',#182,#183);
#182 = CARTESIAN_POINT('',(-3.5,1.8,-18.6));
#183 = VECTOR('',#184,1.);
#184 = DIRECTION('',(-1.,0.,0.));
#185 = PLANE('',#186);
#186 = AXIS2_PLACEMENT_3D('',#187,#188,#189);
#187 = CARTESIAN_POINT('',(-3.5,1.9,-18.5));
#188 = DIRECTION('',(8.631764869025E-19,0.707106781187,-0.707106781187)
  );
#189 = DIRECTION('',(1.,-6.103579472496E-19,6.103579472496E-19));
#190 = ADVANCED_FACE('',(#191,#225),#291,.T.);
#191 = FACE_BOUND('',#192,.T.);
#192 = EDGE_LOOP('',(#193,#201,#202,#203,#211,#219));
#193 = ORIENTED_EDGE('',*,*,#194,.F.);
#194 = EDGE_CURVE('',#32,#195,#197,.T.);
#195 = VERTEX_POINT('',#196);
#196 = CARTESIAN_POINT('',(14.8,1.7,8.5));
#197 = LINE('',#198,#199);
#198 = CARTESIAN_POINT('',(12.4375,4.0625,8.5));
#199 = VECTOR('',#200,1.);
#200 = DIRECTION('',(0.707106781187,-0.707106781187,0.));
#201 = ORIENTED_EDGE('',*,*,#31,.T.);
#202 = ORIENTED_EDGE('',*,*,#115,.T.);
#203 = ORIENTED_EDGE('',*,*,#204,.F.);
#204 = EDGE_CURVE('',#205,#116,#207,.T.);
#205 = VERTEX_POINT('',#206);
#206 = CARTESIAN_POINT('',(-14.8,-9.3,8.5));
#207 = LINE('',#208,#209);
#208 = CARTESIAN_POINT('',(-14.8,-9.5,8.5));
#209 = VECTOR('',#210,1.);
#210 = DIRECTION('',(0.,1.,-2.2E-16));
#211 = ORIENTED_EDGE('',*,*,#212,.F.);
#212 = EDGE_CURVE('',#213,#205,#215,.T.);
#213 = VERTEX_POINT('',#214);
#214 = CARTESIAN_POINT('',(14.8,-9.3,8.5));
#215 = LINE('',#216,#217);
#216 = CARTESIAN_POINT('',(15.,-9.3,8.5));
#217 = VECTOR('',#218,1.);
#218 = DIRECTION('',(-1.,0.,0.));
#219 = ORIENTED_EDGE('',*,*,#220,.T.);
#220 = EDGE_CURVE('',#213,#195,#221,.T.);
#221 = LINE('',#222,#223);
#222 = CARTESIAN_POINT('',(14.8,-9.5,8.5));
#223 = VECTOR('',#224,1.);
#224 = DIRECTION('',(0.,1.,-2.2E-16));
#225 = FACE_BOUND('',#226,.T.);
#226 = EDGE_LOOP('',(#227,#237,#245,#253,#261,#269,#277,#285));
#227 = ORIENTED_EDGE('',*,*,#228,.T.);
#228 = EDGE_CURVE('',#229,#231,#233,.T.);
#229 = VERTEX_POINT('',#230);
#230 = CARTESIAN_POINT('',(2.200000047684,-6.199999809265,8.5));
#231 = VERTEX_POINT('',#232);
#232 = CARTESIAN_POINT('',(-2.200000047684,-6.199999809265,8.5));
#233 = LINE('',#234,#235);
#234 = CARTESIAN_POINT('',(2.200000047684,-6.199999809265,8.5));
#235 = VECTOR('',#236,1.);
#236 = DIRECTION('',(-1.,0.,0.));
#237 = ORIENTED_EDGE('',*,*,#238,.T.);
#238 = EDGE_CURVE('',#231,#239,#241,.T.);
#239 = VERTEX_POINT('',#240);
#240 = CARTESIAN_POINT('',(-2.200000047684,-7.5,8.5));
#241 = LINE('',#242,#243);
#242 = CARTESIAN_POINT('',(-2.200000047684,-6.199999809265,8.5));
#243 = VECTOR('',#244,1.);
#244 = DIRECTION('',(0.,-1.,0.));
#245 = ORIENTED_EDGE('',*,*,#246,.T.);
#246 = EDGE_CURVE('',#239,#247,#249,.T.);
#247 = VERTEX_POINT('',#248);
#248 = CARTESIAN_POINT('',(-6.199999809265,-7.5,8.5));
#249 = LINE('',#250,#251);
#250 = CARTESIAN_POINT('',(-2.200000047684,-7.5,8.5));
#251 = VECTOR('',#252,1.);
#252 = DIRECTION('',(-1.,-2.2E-16,0.));
#253 = ORIENTED_EDGE('',*,*,#254,.T.);
#254 = EDGE_CURVE('',#247,#255,#257,.T.);
#255 = VERTEX_POINT('',#256);
#256 = CARTESIAN_POINT('',(-6.199999809265,-1.E-15,8.5));
#257 = LINE('',#258,#259);
#258 = CARTESIAN_POINT('',(-6.199999809265,-7.5,8.5));
#259 = VECTOR('',#260,1.);
#260 = DIRECTION('',(-1.2E-16,1.,0.));
#261 = ORIENTED_EDGE('',*,*,#262,.T.);
#262 = EDGE_CURVE('',#255,#263,#265,.T.);
#263 = VERTEX_POINT('',#264);
#264 = CARTESIAN_POINT('',(6.199999809265,1.E-15,8.5));
#265 = LINE('',#266,#267);
#266 = CARTESIAN_POINT('',(-6.199999809265,-7.6E-16,8.5));
#267 = VECTOR('',#268,1.);
#268 = DIRECTION('',(1.,1.2E-16,0.));
#269 = ORIENTED_EDGE('',*,*,#270,.T.);
#270 = EDGE_CURVE('',#263,#271,#273,.T.);
#271 = VERTEX_POINT('',#272);
#272 = CARTESIAN_POINT('',(6.199999809265,-7.5,8.5));
#273 = LINE('',#274,#275);
#274 = CARTESIAN_POINT('',(6.199999809265,7.6E-16,8.5));
#275 = VECTOR('',#276,1.);
#276 = DIRECTION('',(1.2E-16,-1.,0.));
#277 = ORIENTED_EDGE('',*,*,#278,.T.);
#278 = EDGE_CURVE('',#271,#279,#281,.T.);
#279 = VERTEX_POINT('',#280);
#280 = CARTESIAN_POINT('',(2.200000047684,-7.5,8.5));
#281 = LINE('',#282,#283);
#282 = CARTESIAN_POINT('',(6.199999809265,-7.5,8.5));
#283 = VECTOR('',#284,1.);
#284 = DIRECTION('',(-1.,-2.2E-16,0.));
#285 = ORIENTED_EDGE('',*,*,#286,.F.);
#286 = EDGE_CURVE('',#229,#279,#287,.T.);
#287 = LINE('',#288,#289);
#288 = CARTESIAN_POINT('',(2.200000047684,-6.199999809265,8.5));
#289 = VECTOR('',#290,1.);
#290 = DIRECTION('',(0.,-1.,0.));
#291 = PLANE('',#292);
#292 = AXIS2_PLACEMENT_3D('',#293,#294,#295);
#293 = CARTESIAN_POINT('',(0.,-3.75,8.5));
#294 = DIRECTION('',(0.,0.,1.));
#295 = DIRECTION('',(1.,0.,0.));
#296 = ADVANCED_FACE('',(#297),#347,.T.);
#297 = FACE_BOUND('',#298,.T.);
#298 = EDGE_LOOP('',(#299,#300,#308,#316,#324,#332,#340,#346));
#299 = ORIENTED_EDGE('',*,*,#71,.F.);
#300 = ORIENTED_EDGE('',*,*,#301,.T.);
#301 = EDGE_CURVE('',#64,#302,#304,.T.);
#302 = VERTEX_POINT('',#303);
#303 = CARTESIAN_POINT('',(-3.5,-2.,-4.4));
#304 = LINE('',#305,#306);
#305 = CARTESIAN_POINT('',(-3.5,-2.162804880181,-4.562804880181));
#306 = VECTOR('',#307,1.);
#307 = DIRECTION('',(0.,-0.707106781187,-0.707106781187));
#308 = ORIENTED_EDGE('',*,*,#309,.F.);
#309 = EDGE_CURVE('',#310,#302,#312,.T.);
#310 = VERTEX_POINT('',#311);
#311 = CARTESIAN_POINT('',(-3.5,-2.200000047684,-4.4));
#312 = LINE('',#313,#314);
#313 = CARTESIAN_POINT('',(-3.5,-2.200000047684,-4.4));
#314 = VECTOR('',#315,1.);
#315 = DIRECTION('',(0.,1.,0.));
#316 = ORIENTED_EDGE('',*,*,#317,.F.);
#317 = EDGE_CURVE('',#318,#310,#320,.T.);
#318 = VERTEX_POINT('',#319);
#319 = CARTESIAN_POINT('',(-3.5,-2.200000047684,0.));
#320 = LINE('',#321,#322);
#321 = CARTESIAN_POINT('',(-3.5,-2.200000047684,0.));
#322 = VECTOR('',#323,1.);
#323 = DIRECTION('',(-0.,-0.,-1.));
#324 = ORIENTED_EDGE('',*,*,#325,.T.);
#325 = EDGE_CURVE('',#318,#326,#328,.T.);
#326 = VERTEX_POINT('',#327);
#327 = CARTESIAN_POINT('',(-3.5,-4.,0.));
#328 = LINE('',#329,#330);
#329 = CARTESIAN_POINT('',(-3.5,-2.200000047684,0.));
#330 = VECTOR('',#331,1.);
#331 = DIRECTION('',(0.,-1.,0.));
#332 = ORIENTED_EDGE('',*,*,#333,.T.);
#333 = EDGE_CURVE('',#326,#334,#336,.T.);
#334 = VERTEX_POINT('',#335);
#335 = CARTESIAN_POINT('',(-3.5,-4.,-18.6));
#336 = LINE('',#337,#338);
#337 = CARTESIAN_POINT('',(-3.5,-4.,-7.4));
#338 = VECTOR('',#339,1.);
#339 = DIRECTION('',(0.,0.,-1.));
#340 = ORIENTED_EDGE('',*,*,#341,.F.);
#341 = EDGE_CURVE('',#171,#334,#342,.T.);
#342 = LINE('',#343,#344);
#343 = CARTESIAN_POINT('',(-3.5,-4.055664512407,-18.6));
#344 = VECTOR('',#345,1.);
#345 = DIRECTION('',(0.,-1.,0.));
#346 = ORIENTED_EDGE('',*,*,#170,.F.);
#347 = PLANE('',#348);
#348 = AXIS2_PLACEMENT_3D('',#349,#350,#351);
#349 = CARTESIAN_POINT('',(-3.5,-1.375609760362,-9.675609760362));
#350 = DIRECTION('',(1.,0.,0.));
#351 = DIRECTION('',(0.,0.,1.));
#352 = ADVANCED_FACE('',(#353),#395,.T.);
#353 = FACE_BOUND('',#354,.T.);
#354 = EDGE_LOOP('',(#355,#365,#371,#372,#373,#381,#389));
#355 = ORIENTED_EDGE('',*,*,#356,.F.);
#356 = EDGE_CURVE('',#357,#359,#361,.T.);
#357 = VERTEX_POINT('',#358);
#358 = CARTESIAN_POINT('',(14.7,1.8,-18.6));
#359 = VERTEX_POINT('',#360);
#360 = CARTESIAN_POINT('',(14.8,1.7,-18.6));
#361 = LINE('',#362,#363);
#362 = CARTESIAN_POINT('',(12.469416955775,4.030583044225,-18.6));
#363 = VECTOR('',#364,1.);
#364 = DIRECTION('',(0.707106781187,-0.707106781187,0.));
#365 = ORIENTED_EDGE('',*,*,#366,.F.);
#366 = EDGE_CURVE('',#40,#357,#367,.T.);
#367 = LINE('',#368,#369);
#368 = CARTESIAN_POINT('',(12.816666666667,3.683333333333,
    -16.71666666666));
#369 = VECTOR('',#370,1.);
#370 = DIRECTION('',(0.57735026919,-0.57735026919,-0.57735026919));
#371 = ORIENTED_EDGE('',*,*,#39,.T.);
#372 = ORIENTED_EDGE('',*,*,#194,.T.);
#373 = ORIENTED_EDGE('',*,*,#374,.T.);
#374 = EDGE_CURVE('',#195,#375,#377,.T.);
#375 = VERTEX_POINT('',#376);
#376 = CARTESIAN_POINT('',(15.,1.5,8.3));
#377 = LINE('',#378,#379);
#378 = CARTESIAN_POINT('',(21.2,-4.7,2.1));
#379 = VECTOR('',#380,1.);
#380 = DIRECTION('',(0.57735026919,-0.57735026919,-0.57735026919));
#381 = ORIENTED_EDGE('',*,*,#382,.F.);
#382 = EDGE_CURVE('',#383,#375,#385,.T.);
#383 = VERTEX_POINT('',#384);
#384 = CARTESIAN_POINT('',(15.,1.5,-18.4));
#385 = LINE('',#386,#387);
#386 = CARTESIAN_POINT('',(15.,1.5,-18.6));
#387 = VECTOR('',#388,1.);
#388 = DIRECTION('',(0.,0.,1.));
#389 = ORIENTED_EDGE('',*,*,#390,.F.);
#390 = EDGE_CURVE('',#359,#383,#391,.T.);
#391 = LINE('',#392,#393);
#392 = CARTESIAN_POINT('',(16.683333333333,-0.183333333333,
    -16.71666666666));
#393 = VECTOR('',#394,1.);
#394 = DIRECTION('',(0.57735026919,-0.57735026919,0.57735026919));
#395 = PLANE('',#396);
#396 = AXIS2_PLACEMENT_3D('',#397,#398,#399);
#397 = CARTESIAN_POINT('',(14.75,1.75,-18.6));
#398 = DIRECTION('',(0.707106781187,0.707106781187,0.));
#399 = DIRECTION('',(0.,0.,1.));
#400 = ADVANCED_FACE('',(#401),#419,.F.);
#401 = FACE_BOUND('',#402,.T.);
#402 = EDGE_LOOP('',(#403,#404,#405,#413));
#403 = ORIENTED_EDGE('',*,*,#301,.F.);
#404 = ORIENTED_EDGE('',*,*,#63,.T.);
#405 = ORIENTED_EDGE('',*,*,#406,.T.);
#406 = EDGE_CURVE('',#56,#407,#409,.T.);
#407 = VERTEX_POINT('',#408);
#408 = CARTESIAN_POINT('',(3.5,-2.,-4.4));
#409 = LINE('',#410,#411);
#410 = CARTESIAN_POINT('',(3.5,-2.162804880181,-4.562804880181));
#411 = VECTOR('',#412,1.);
#412 = DIRECTION('',(0.,-0.707106781187,-0.707106781187));
#413 = ORIENTED_EDGE('',*,*,#414,.F.);
#414 = EDGE_CURVE('',#302,#407,#415,.T.);
#415 = LINE('',#416,#417);
#416 = CARTESIAN_POINT('',(-3.5,-2.,-4.4));
#417 = VECTOR('',#418,1.);
#418 = DIRECTION('',(1.,0.,0.));
#419 = PLANE('',#420);
#420 = AXIS2_PLACEMENT_3D('',#421,#422,#423);
#421 = CARTESIAN_POINT('',(-3.5,0.,-2.4));
#422 = DIRECTION('',(-1.E-17,-0.707106781187,0.707106781187));
#423 = DIRECTION('',(-1.,7.071067811865E-18,-7.071067811865E-18));
#424 = ADVANCED_FACE('',(#425),#443,.T.);
#425 = FACE_BOUND('',#426,.T.);
#426 = EDGE_LOOP('',(#427,#435,#436,#437));
#427 = ORIENTED_EDGE('',*,*,#428,.F.);
#428 = EDGE_CURVE('',#48,#429,#431,.T.);
#429 = VERTEX_POINT('',#430);
#430 = CARTESIAN_POINT('',(3.5,1.8,-18.6));
#431 = LINE('',#432,#433);
#432 = CARTESIAN_POINT('',(3.5,3.287195119819,-17.11280488018));
#433 = VECTOR('',#434,1.);
#434 = DIRECTION('',(0.,-0.707106781187,-0.707106781187));
#435 = ORIENTED_EDGE('',*,*,#47,.T.);
#436 = ORIENTED_EDGE('',*,*,#366,.T.);
#437 = ORIENTED_EDGE('',*,*,#438,.F.);
#438 = EDGE_CURVE('',#429,#357,#439,.T.);
#439 = LINE('',#440,#441);
#440 = CARTESIAN_POINT('',(3.5,1.8,-18.6));
#441 = VECTOR('',#442,1.);
#442 = DIRECTION('',(1.,0.,0.));
#443 = PLANE('',#444);
#444 = AXIS2_PLACEMENT_3D('',#445,#446,#447);
#445 = CARTESIAN_POINT('',(3.5,1.9,-18.5));
#446 = DIRECTION('',(8.631764869025E-19,0.707106781187,-0.707106781187)
  );
#447 = DIRECTION('',(1.,-6.103579472496E-19,6.103579472496E-19));
#448 = ADVANCED_FACE('',(#449),#492,.T.);
#449 = FACE_BOUND('',#450,.T.);
#450 = EDGE_LOOP('',(#451,#452,#453,#461,#469,#477,#485,#491));
#451 = ORIENTED_EDGE('',*,*,#55,.F.);
#452 = ORIENTED_EDGE('',*,*,#428,.T.);
#453 = ORIENTED_EDGE('',*,*,#454,.F.);
#454 = EDGE_CURVE('',#455,#429,#457,.T.);
#455 = VERTEX_POINT('',#456);
#456 = CARTESIAN_POINT('',(3.5,-4.,-18.6));
#457 = LINE('',#458,#459);
#458 = CARTESIAN_POINT('',(3.5,-4.,-18.6));
#459 = VECTOR('',#460,1.);
#460 = DIRECTION('',(0.,1.,0.));
#461 = ORIENTED_EDGE('',*,*,#462,.F.);
#462 = EDGE_CURVE('',#463,#455,#465,.T.);
#463 = VERTEX_POINT('',#464);
#464 = CARTESIAN_POINT('',(3.5,-4.,0.));
#465 = LINE('',#466,#467);
#466 = CARTESIAN_POINT('',(3.5,-4.,-18.1));
#467 = VECTOR('',#468,1.);
#468 = DIRECTION('',(0.,0.,-1.));
#469 = ORIENTED_EDGE('',*,*,#470,.T.);
#470 = EDGE_CURVE('',#463,#471,#473,.T.);
#471 = VERTEX_POINT('',#472);
#472 = CARTESIAN_POINT('',(3.5,-2.200000047684,0.));
#473 = LINE('',#474,#475);
#474 = CARTESIAN_POINT('',(3.5,-4.,0.));
#475 = VECTOR('',#476,1.);
#476 = DIRECTION('',(0.,1.,0.));
#477 = ORIENTED_EDGE('',*,*,#478,.T.);
#478 = EDGE_CURVE('',#471,#479,#481,.T.);
#479 = VERTEX_POINT('',#480);
#480 = CARTESIAN_POINT('',(3.5,-2.200000047684,-4.4));
#481 = LINE('',#482,#483);
#482 = CARTESIAN_POINT('',(3.5,-2.200000047684,0.));
#483 = VECTOR('',#484,1.);
#484 = DIRECTION('',(-0.,-0.,-1.));
#485 = ORIENTED_EDGE('',*,*,#486,.T.);
#486 = EDGE_CURVE('',#479,#407,#487,.T.);
#487 = LINE('',#488,#489);
#488 = CARTESIAN_POINT('',(3.5,-2.200000047684,-4.4));
#489 = VECTOR('',#490,1.);
#490 = DIRECTION('',(0.,1.,0.));
#491 = ORIENTED_EDGE('',*,*,#406,.F.);
#492 = PLANE('',#493);
#493 = AXIS2_PLACEMENT_3D('',#494,#495,#496);
#494 = CARTESIAN_POINT('',(3.5,-1.375609760362,-9.675609760362));
#495 = DIRECTION('',(-1.,-0.,-0.));
#496 = DIRECTION('',(0.,0.,-1.));
#497 = ADVANCED_FACE('',(#498),#517,.F.);
#498 = FACE_BOUND('',#499,.F.);
#499 = EDGE_LOOP('',(#500,#509,#515,#516));
#500 = ORIENTED_EDGE('',*,*,#501,.F.);
#501 = EDGE_CURVE('',#502,#502,#504,.T.);
#502 = VERTEX_POINT('',#503);
#503 = CARTESIAN_POINT('',(-9.599999904633,-9.5,-5.05));
#504 = CIRCLE('',#505,2.);
#505 = AXIS2_PLACEMENT_3D('',#506,#507,#508);
#506 = CARTESIAN_POINT('',(-11.59999990463,-9.5,-5.05));
#507 = DIRECTION('',(0.,-1.,0.));
#508 = DIRECTION('',(1.,0.,0.));
#509 = ORIENTED_EDGE('',*,*,#510,.T.);
#510 = EDGE_CURVE('',#502,#88,#511,.T.);
#511 = LINE('',#512,#513);
#512 = CARTESIAN_POINT('',(-9.599999904633,-9.5,-5.05));
#513 = VECTOR('',#514,1.);
#514 = DIRECTION('',(0.,1.,-2.2E-16));
#515 = ORIENTED_EDGE('',*,*,#87,.T.);
#516 = ORIENTED_EDGE('',*,*,#510,.F.);
#517 = CYLINDRICAL_SURFACE('',#518,2.);
#518 = AXIS2_PLACEMENT_3D('',#519,#520,#521);
#519 = CARTESIAN_POINT('',(-11.59999990463,-9.5,-5.05));
#520 = DIRECTION('',(0.,-1.,2.2E-16));
#521 = DIRECTION('',(1.,0.,0.));
#522 = ADVANCED_FACE('',(#523),#542,.F.);
#523 = FACE_BOUND('',#524,.F.);
#524 = EDGE_LOOP('',(#525,#534,#540,#541));
#525 = ORIENTED_EDGE('',*,*,#526,.F.);
#526 = EDGE_CURVE('',#527,#527,#529,.T.);
#527 = VERTEX_POINT('',#528);
#528 = CARTESIAN_POINT('',(13.599999904633,-9.5,-5.05));
#529 = CIRCLE('',#530,2.);
#530 = AXIS2_PLACEMENT_3D('',#531,#532,#533);
#531 = CARTESIAN_POINT('',(11.599999904633,-9.5,-5.05));
#532 = DIRECTION('',(0.,-1.,0.));
#533 = DIRECTION('',(1.,0.,0.));
#534 = ORIENTED_EDGE('',*,*,#535,.T.);
#535 = EDGE_CURVE('',#527,#99,#536,.T.);
#536 = LINE('',#537,#538);
#537 = CARTESIAN_POINT('',(13.599999904633,-9.5,-5.05));
#538 = VECTOR('',#539,1.);
#539 = DIRECTION('',(0.,1.,-2.2E-16));
#540 = ORIENTED_EDGE('',*,*,#98,.T.);
#541 = ORIENTED_EDGE('',*,*,#535,.F.);
#542 = CYLINDRICAL_SURFACE('',#543,2.);
#543 = AXIS2_PLACEMENT_3D('',#544,#545,#546);
#544 = CARTESIAN_POINT('',(11.599999904633,-9.5,-5.05));
#545 = DIRECTION('',(0.,-1.,2.2E-16));
#546 = DIRECTION('',(1.,0.,0.));
#547 = ADVANCED_FACE('',(#548),#566,.T.);
#548 = FACE_BOUND('',#549,.T.);
#549 = EDGE_LOOP('',(#550,#558,#559,#560));
#550 = ORIENTED_EDGE('',*,*,#551,.F.);
#551 = EDGE_CURVE('',#205,#552,#554,.T.);
#552 = VERTEX_POINT('',#553);
#553 = CARTESIAN_POINT('',(-15.,-9.5,8.3));
#554 = LINE('',#555,#556);
#555 = CARTESIAN_POINT('',(-9.933333333333,-4.433333333333,
    13.366666666667));
#556 = VECTOR('',#557,1.);
#557 = DIRECTION('',(-0.57735026919,-0.57735026919,-0.57735026919));
#558 = ORIENTED_EDGE('',*,*,#204,.T.);
#559 = ORIENTED_EDGE('',*,*,#156,.T.);
#560 = ORIENTED_EDGE('',*,*,#561,.F.);
#561 = EDGE_CURVE('',#552,#149,#562,.T.);
#562 = LINE('',#563,#564);
#563 = CARTESIAN_POINT('',(-15.,-9.5,8.3));
#564 = VECTOR('',#565,1.);
#565 = DIRECTION('',(0.,1.,-2.2E-16));
#566 = PLANE('',#567);
#567 = AXIS2_PLACEMENT_3D('',#568,#569,#570);
#568 = CARTESIAN_POINT('',(-14.9,-9.5,8.4));
#569 = DIRECTION('',(-0.707106781187,7.341111181764E-19,0.707106781187)
  );
#570 = DIRECTION('',(-1.094809050502E-16,1.,-1.105190949498E-16));
#571 = ADVANCED_FACE('',(#572),#590,.T.);
#572 = FACE_BOUND('',#573,.T.);
#573 = EDGE_LOOP('',(#574,#575,#583,#589));
#574 = ORIENTED_EDGE('',*,*,#148,.T.);
#575 = ORIENTED_EDGE('',*,*,#576,.F.);
#576 = EDGE_CURVE('',#577,#141,#579,.T.);
#577 = VERTEX_POINT('',#578);
#578 = CARTESIAN_POINT('',(-15.,-9.5,-18.4));
#579 = LINE('',#580,#581);
#580 = CARTESIAN_POINT('',(-15.,-9.5,-18.4));
#581 = VECTOR('',#582,1.);
#582 = DIRECTION('',(0.,1.,-2.2E-16));
#583 = ORIENTED_EDGE('',*,*,#584,.F.);
#584 = EDGE_CURVE('',#552,#577,#585,.T.);
#585 = LINE('',#586,#587);
#586 = CARTESIAN_POINT('',(-15.,-9.5,8.5));
#587 = VECTOR('',#588,1.);
#588 = DIRECTION('',(0.,0.,-1.));
#589 = ORIENTED_EDGE('',*,*,#561,.T.);
#590 = PLANE('',#591);
#591 = AXIS2_PLACEMENT_3D('',#592,#593,#594);
#592 = CARTESIAN_POINT('',(-15.,-9.5,8.5));
#593 = DIRECTION('',(-1.,0.,0.));
#594 = DIRECTION('',(0.,-2.2E-16,-1.));
#595 = ADVANCED_FACE('',(#596),#614,.T.);
#596 = FACE_BOUND('',#597,.F.);
#597 = EDGE_LOOP('',(#598,#606,#612,#613));
#598 = ORIENTED_EDGE('',*,*,#599,.F.);
#599 = EDGE_CURVE('',#600,#577,#602,.T.);
#600 = VERTEX_POINT('',#601);
#601 = CARTESIAN_POINT('',(-14.8,-9.3,-18.6));
#602 = LINE('',#603,#604);
#603 = CARTESIAN_POINT('',(-14.93333333333,-9.433333333333,
    -18.46666666666));
#604 = VECTOR('',#605,1.);
#605 = DIRECTION('',(-0.57735026919,-0.57735026919,0.57735026919));
#606 = ORIENTED_EDGE('',*,*,#607,.T.);
#607 = EDGE_CURVE('',#600,#133,#608,.T.);
#608 = LINE('',#609,#610);
#609 = CARTESIAN_POINT('',(-14.8,-9.5,-18.6));
#610 = VECTOR('',#611,1.);
#611 = DIRECTION('',(0.,1.,-2.2E-16));
#612 = ORIENTED_EDGE('',*,*,#140,.T.);
#613 = ORIENTED_EDGE('',*,*,#576,.F.);
#614 = PLANE('',#615);
#615 = AXIS2_PLACEMENT_3D('',#616,#617,#618);
#616 = CARTESIAN_POINT('',(-14.9,-9.5,-18.5));
#617 = DIRECTION('',(-0.707106781187,-7.341111181764E-19,-0.707106781187
    ));
#618 = DIRECTION('',(-1.094809050502E-16,-1.,1.105190949498E-16));
#619 = ADVANCED_FACE('',(#620),#681,.T.);
#620 = FACE_BOUND('',#621,.T.);
#621 = EDGE_LOOP('',(#622,#623,#624,#625,#633,#641,#649,#657,#663,#664,
    #665,#666,#674,#680));
#622 = ORIENTED_EDGE('',*,*,#132,.F.);
#623 = ORIENTED_EDGE('',*,*,#180,.F.);
#624 = ORIENTED_EDGE('',*,*,#341,.T.);
#625 = ORIENTED_EDGE('',*,*,#626,.T.);
#626 = EDGE_CURVE('',#334,#627,#629,.T.);
#627 = VERTEX_POINT('',#628);
#628 = CARTESIAN_POINT('',(-2.436678,-4.,-18.6));
#629 = LINE('',#630,#631);
#630 = CARTESIAN_POINT('',(-3.5,-4.,-18.6));
#631 = VECTOR('',#632,1.);
#632 = DIRECTION('',(1.,0.,0.));
#633 = ORIENTED_EDGE('',*,*,#634,.T.);
#634 = EDGE_CURVE('',#627,#635,#637,.T.);
#635 = VERTEX_POINT('',#636);
#636 = CARTESIAN_POINT('',(-2.436678,-5.462317,-18.6));
#637 = LINE('',#638,#639);
#638 = CARTESIAN_POINT('',(-2.436678,-4.,-18.6));
#639 = VECTOR('',#640,1.);
#640 = DIRECTION('',(0.,-1.,0.));
#641 = ORIENTED_EDGE('',*,*,#642,.T.);
#642 = EDGE_CURVE('',#635,#643,#645,.T.);
#643 = VERTEX_POINT('',#644);
#644 = CARTESIAN_POINT('',(0.2161964,-5.462317,-18.6));
#645 = LINE('',#646,#647);
#646 = CARTESIAN_POINT('',(-2.436678,-5.462317,-18.6));
#647 = VECTOR('',#648,1.);
#648 = DIRECTION('',(1.,0.,0.));
#649 = ORIENTED_EDGE('',*,*,#650,.T.);
#650 = EDGE_CURVE('',#643,#651,#653,.T.);
#651 = VERTEX_POINT('',#652);
#652 = CARTESIAN_POINT('',(0.2161964,-4.,-18.6));
#653 = LINE('',#654,#655);
#654 = CARTESIAN_POINT('',(0.2161964,-5.462317,-18.6));
#655 = VECTOR('',#656,1.);
#656 = DIRECTION('',(0.,1.,0.));
#657 = ORIENTED_EDGE('',*,*,#658,.F.);
#658 = EDGE_CURVE('',#455,#651,#659,.T.);
#659 = LINE('',#660,#661);
#660 = CARTESIAN_POINT('',(3.5,-4.,-18.6));
#661 = VECTOR('',#662,1.);
#662 = DIRECTION('',(-1.,0.,0.));
#663 = ORIENTED_EDGE('',*,*,#454,.T.);
#664 = ORIENTED_EDGE('',*,*,#438,.T.);
#665 = ORIENTED_EDGE('',*,*,#356,.T.);
#666 = ORIENTED_EDGE('',*,*,#667,.F.);
#667 = EDGE_CURVE('',#668,#359,#670,.T.);
#668 = VERTEX_POINT('',#669);
#669 = CARTESIAN_POINT('',(14.8,-9.3,-18.6));
#670 = LINE('',#671,#672);
#671 = CARTESIAN_POINT('',(14.8,-9.5,-18.6));
#672 = VECTOR('',#673,1.);
#673 = DIRECTION('',(0.,1.,-2.2E-16));
#674 = ORIENTED_EDGE('',*,*,#675,.F.);
#675 = EDGE_CURVE('',#600,#668,#676,.T.);
#676 = LINE('',#677,#678);
#677 = CARTESIAN_POINT('',(-15.,-9.3,-18.6));
#678 = VECTOR('',#679,1.);
#679 = DIRECTION('',(1.,0.,0.));
#680 = ORIENTED_EDGE('',*,*,#607,.T.);
#681 = PLANE('',#682);
#682 = AXIS2_PLACEMENT_3D('',#683,#684,#685);
#683 = CARTESIAN_POINT('',(-3.315864312413E-02,-3.910826466224,-18.6));
#684 = DIRECTION('',(-0.,-0.,-1.));
#685 = DIRECTION('',(-1.,0.,0.));
#686 = ADVANCED_FACE('',(#687),#705,.T.);
#687 = FACE_BOUND('',#688,.F.);
#688 = EDGE_LOOP('',(#689,#697,#698,#699));
#689 = ORIENTED_EDGE('',*,*,#690,.F.);
#690 = EDGE_CURVE('',#213,#691,#693,.T.);
#691 = VERTEX_POINT('',#692);
#692 = CARTESIAN_POINT('',(15.,-9.5,8.3));
#693 = LINE('',#694,#695);
#694 = CARTESIAN_POINT('',(14.933333333333,-9.433333333333,
    8.366666666667));
#695 = VECTOR('',#696,1.);
#696 = DIRECTION('',(0.57735026919,-0.57735026919,-0.57735026919));
#697 = ORIENTED_EDGE('',*,*,#220,.T.);
#698 = ORIENTED_EDGE('',*,*,#374,.T.);
#699 = ORIENTED_EDGE('',*,*,#700,.F.);
#700 = EDGE_CURVE('',#691,#375,#701,.T.);
#701 = LINE('',#702,#703);
#702 = CARTESIAN_POINT('',(15.,-9.5,8.3));
#703 = VECTOR('',#704,1.);
#704 = DIRECTION('',(0.,1.,-2.2E-16));
#705 = PLANE('',#706);
#706 = AXIS2_PLACEMENT_3D('',#707,#708,#709);
#707 = CARTESIAN_POINT('',(14.9,-9.5,8.4));
#708 = DIRECTION('',(0.707106781187,-7.341111181764E-19,0.707106781187)
  );
#709 = DIRECTION('',(-1.105190949498E-16,-1.,1.094809050502E-16));
#710 = ADVANCED_FACE('',(#711),#722,.T.);
#711 = FACE_BOUND('',#712,.T.);
#712 = EDGE_LOOP('',(#713,#714,#715,#716));
#713 = ORIENTED_EDGE('',*,*,#690,.F.);
#714 = ORIENTED_EDGE('',*,*,#212,.T.);
#715 = ORIENTED_EDGE('',*,*,#551,.T.);
#716 = ORIENTED_EDGE('',*,*,#717,.F.);
#717 = EDGE_CURVE('',#691,#552,#718,.T.);
#718 = LINE('',#719,#720);
#719 = CARTESIAN_POINT('',(15.,-9.5,8.3));
#720 = VECTOR('',#721,1.);
#721 = DIRECTION('',(-1.,0.,0.));
#722 = PLANE('',#723);
#723 = AXIS2_PLACEMENT_3D('',#724,#725,#726);
#724 = CARTESIAN_POINT('',(15.,-9.4,8.4));
#725 = DIRECTION('',(7.341111181764E-19,-0.707106781187,0.707106781187)
  );
#726 = DIRECTION('',(-1.,-5.19094949807E-19,5.19094949807E-19));
#727 = ADVANCED_FACE('',(#728),#753,.T.);
#728 = FACE_BOUND('',#729,.T.);
#729 = EDGE_LOOP('',(#730,#731,#739,#747));
#730 = ORIENTED_EDGE('',*,*,#228,.F.);
#731 = ORIENTED_EDGE('',*,*,#732,.T.);
#732 = EDGE_CURVE('',#229,#733,#735,.T.);
#733 = VERTEX_POINT('',#734);
#734 = CARTESIAN_POINT('',(2.200000047684,-6.199999809265,0.));
#735 = LINE('',#736,#737);
#736 = CARTESIAN_POINT('',(2.200000047684,-6.199999809265,8.5));
#737 = VECTOR('',#738,1.);
#738 = DIRECTION('',(-0.,-0.,-1.));
#739 = ORIENTED_EDGE('',*,*,#740,.F.);
#740 = EDGE_CURVE('',#741,#733,#743,.T.);
#741 = VERTEX_POINT('',#742);
#742 = CARTESIAN_POINT('',(-2.200000047684,-6.199999809265,0.));
#743 = LINE('',#744,#745);
#744 = CARTESIAN_POINT('',(1.100000023842,-6.199999809265,0.));
#745 = VECTOR('',#746,1.);
#746 = DIRECTION('',(1.,0.,0.));
#747 = ORIENTED_EDGE('',*,*,#748,.F.);
#748 = EDGE_CURVE('',#231,#741,#749,.T.);
#749 = LINE('',#750,#751);
#750 = CARTESIAN_POINT('',(-2.200000047684,-6.199999809265,8.5));
#751 = VECTOR('',#752,1.);
#752 = DIRECTION('',(-0.,-0.,-1.));
#753 = PLANE('',#754);
#754 = AXIS2_PLACEMENT_3D('',#755,#756,#757);
#755 = CARTESIAN_POINT('',(2.200000047684,-6.199999809265,8.5));
#756 = DIRECTION('',(0.,1.,0.));
#757 = DIRECTION('',(-1.,0.,0.));
#758 = ADVANCED_FACE('',(#759),#777,.T.);
#759 = FACE_BOUND('',#760,.T.);
#760 = EDGE_LOOP('',(#761,#762,#763,#771));
#761 = ORIENTED_EDGE('',*,*,#238,.F.);
#762 = ORIENTED_EDGE('',*,*,#748,.T.);
#763 = ORIENTED_EDGE('',*,*,#764,.F.);
#764 = EDGE_CURVE('',#765,#741,#767,.T.);
#765 = VERTEX_POINT('',#766);
#766 = CARTESIAN_POINT('',(-2.200000047684,-7.5,0.));
#767 = LINE('',#768,#769);
#768 = CARTESIAN_POINT('',(-2.200000047684,-5.002594244166,0.));
#769 = VECTOR('',#770,1.);
#770 = DIRECTION('',(0.,1.,0.));
#771 = ORIENTED_EDGE('',*,*,#772,.F.);
#772 = EDGE_CURVE('',#239,#765,#773,.T.);
#773 = LINE('',#774,#775);
#774 = CARTESIAN_POINT('',(-2.200000047684,-7.5,8.5));
#775 = VECTOR('',#776,1.);
#776 = DIRECTION('',(-0.,-0.,-1.));
#777 = PLANE('',#778);
#778 = AXIS2_PLACEMENT_3D('',#779,#780,#781);
#779 = CARTESIAN_POINT('',(-2.200000047684,-6.199999809265,8.5));
#780 = DIRECTION('',(-1.,0.,0.));
#781 = DIRECTION('',(0.,-1.,0.));
#782 = ADVANCED_FACE('',(#783),#833,.T.);
#783 = FACE_BOUND('',#784,.T.);
#784 = EDGE_LOOP('',(#785,#786,#787,#795,#803,#811,#819,#827));
#785 = ORIENTED_EDGE('',*,*,#246,.F.);
#786 = ORIENTED_EDGE('',*,*,#772,.T.);
#787 = ORIENTED_EDGE('',*,*,#788,.F.);
#788 = EDGE_CURVE('',#789,#765,#791,.T.);
#789 = VERTEX_POINT('',#790);
#790 = CARTESIAN_POINT('',(-6.199999809265,-7.5,0.));
#791 = LINE('',#792,#793);
#792 = CARTESIAN_POINT('',(-1.100000023842,-7.5,0.));
#793 = VECTOR('',#794,1.);
#794 = DIRECTION('',(1.,2.2E-16,0.));
#795 = ORIENTED_EDGE('',*,*,#796,.F.);
#796 = EDGE_CURVE('',#797,#789,#799,.T.);
#797 = VERTEX_POINT('',#798);
#798 = CARTESIAN_POINT('',(-6.199999809265,-7.5,3.));
#799 = LINE('',#800,#801);
#800 = CARTESIAN_POINT('',(-6.199999809265,-7.5,8.5));
#801 = VECTOR('',#802,1.);
#802 = DIRECTION('',(-0.,-0.,-1.));
#803 = ORIENTED_EDGE('',*,*,#804,.F.);
#804 = EDGE_CURVE('',#805,#797,#807,.T.);
#805 = VERTEX_POINT('',#806);
#806 = CARTESIAN_POINT('',(-7.199999809265,-7.5,3.));
#807 = LINE('',#808,#809);
#808 = CARTESIAN_POINT('',(-7.199999809265,-7.5,3.));
#809 = VECTOR('',#810,1.);
#810 = DIRECTION('',(1.,0.,0.));
#811 = ORIENTED_EDGE('',*,*,#812,.T.);
#812 = EDGE_CURVE('',#805,#813,#815,.T.);
#813 = VERTEX_POINT('',#814);
#814 = CARTESIAN_POINT('',(-7.199999809265,-7.5,5.));
#815 = LINE('',#816,#817);
#816 = CARTESIAN_POINT('',(-7.199999809265,-7.5,3.));
#817 = VECTOR('',#818,1.);
#818 = DIRECTION('',(0.,0.,1.));
#819 = ORIENTED_EDGE('',*,*,#820,.T.);
#820 = EDGE_CURVE('',#813,#821,#823,.T.);
#821 = VERTEX_POINT('',#822);
#822 = CARTESIAN_POINT('',(-6.199999809265,-7.5,5.));
#823 = LINE('',#824,#825);
#824 = CARTESIAN_POINT('',(-7.199999809265,-7.5,5.));
#825 = VECTOR('',#826,1.);
#826 = DIRECTION('',(1.,0.,0.));
#827 = ORIENTED_EDGE('',*,*,#828,.F.);
#828 = EDGE_CURVE('',#247,#821,#829,.T.);
#829 = LINE('',#830,#831);
#830 = CARTESIAN_POINT('',(-6.199999809265,-7.5,8.5));
#831 = VECTOR('',#832,1.);
#832 = DIRECTION('',(-0.,-0.,-1.));
#833 = PLANE('',#834);
#834 = AXIS2_PLACEMENT_3D('',#835,#836,#837);
#835 = CARTESIAN_POINT('',(-4.459259183482,-7.5,4.231481481154));
#836 = DIRECTION('',(0.,1.,0.));
#837 = DIRECTION('',(0.,0.,1.));
#838 = ADVANCED_FACE('',(#839),#857,.T.);
#839 = FACE_BOUND('',#840,.T.);
#840 = EDGE_LOOP('',(#841,#842,#843,#851));
#841 = ORIENTED_EDGE('',*,*,#254,.F.);
#842 = ORIENTED_EDGE('',*,*,#828,.T.);
#843 = ORIENTED_EDGE('',*,*,#844,.T.);
#844 = EDGE_CURVE('',#821,#845,#847,.T.);
#845 = VERTEX_POINT('',#846);
#846 = CARTESIAN_POINT('',(-6.199999809265,-2.E-15,5.));
#847 = LINE('',#848,#849);
#848 = CARTESIAN_POINT('',(-6.199999809265,-7.5,5.));
#849 = VECTOR('',#850,1.);
#850 = DIRECTION('',(0.,1.,0.));
#851 = ORIENTED_EDGE('',*,*,#852,.F.);
#852 = EDGE_CURVE('',#255,#845,#853,.T.);
#853 = LINE('',#854,#855);
#854 = CARTESIAN_POINT('',(-6.199999809265,-8.2E-16,8.5));
#855 = VECTOR('',#856,1.);
#856 = DIRECTION('',(-0.,-0.,-1.));
#857 = PLANE('',#858);
#858 = AXIS2_PLACEMENT_3D('',#859,#860,#861);
#859 = CARTESIAN_POINT('',(-6.199999809265,-7.5,8.5));
#860 = DIRECTION('',(1.,1.2E-16,0.));
#861 = DIRECTION('',(-1.2E-16,1.,0.));
#862 = ADVANCED_FACE('',(#863),#945,.T.);
#863 = FACE_BOUND('',#864,.T.);
#864 = EDGE_LOOP('',(#865,#866,#867,#875,#883,#891,#899,#907,#915,#923,
    #931,#939));
#865 = ORIENTED_EDGE('',*,*,#262,.F.);
#866 = ORIENTED_EDGE('',*,*,#852,.T.);
#867 = ORIENTED_EDGE('',*,*,#868,.T.);
#868 = EDGE_CURVE('',#845,#869,#871,.T.);
#869 = VERTEX_POINT('',#870);
#870 = CARTESIAN_POINT('',(-7.199999809265,-1.E-15,5.));
#871 = LINE('',#872,#873);
#872 = CARTESIAN_POINT('',(-6.199999809265,-1.5E-15,5.));
#873 = VECTOR('',#874,1.);
#874 = DIRECTION('',(-1.,8.3E-16,0.));
#875 = ORIENTED_EDGE('',*,*,#876,.F.);
#876 = EDGE_CURVE('',#877,#869,#879,.T.);
#877 = VERTEX_POINT('',#878);
#878 = CARTESIAN_POINT('',(-7.199999809265,-1.E-15,3.));
#879 = LINE('',#880,#881);
#880 = CARTESIAN_POINT('',(-7.199999809265,-1.55E-15,3.));
#881 = VECTOR('',#882,1.);
#882 = DIRECTION('',(0.,0.,1.));
#883 = ORIENTED_EDGE('',*,*,#884,.F.);
#884 = EDGE_CURVE('',#885,#877,#887,.T.);
#885 = VERTEX_POINT('',#886);
#886 = CARTESIAN_POINT('',(-6.199999809265,-2.E-15,3.));
#887 = LINE('',#888,#889);
#888 = CARTESIAN_POINT('',(-6.199999809265,-1.5E-15,3.));
#889 = VECTOR('',#890,1.);
#890 = DIRECTION('',(-1.,8.3E-16,0.));
#891 = ORIENTED_EDGE('',*,*,#892,.T.);
#892 = EDGE_CURVE('',#885,#893,#895,.T.);
#893 = VERTEX_POINT('',#894);
#894 = CARTESIAN_POINT('',(-6.199999809265,-1.E-15,0.));
#895 = LINE('',#896,#897);
#896 = CARTESIAN_POINT('',(-6.199999809265,-8.2E-16,8.5));
#897 = VECTOR('',#898,1.);
#898 = DIRECTION('',(-0.,-0.,-1.));
#899 = ORIENTED_EDGE('',*,*,#900,.F.);
#900 = EDGE_CURVE('',#901,#893,#903,.T.);
#901 = VERTEX_POINT('',#902);
#902 = CARTESIAN_POINT('',(6.199999809265,1.E-15,0.));
#903 = LINE('',#904,#905);
#904 = CARTESIAN_POINT('',(-3.099999904633,-3.8E-16,0.));
#905 = VECTOR('',#906,1.);
#906 = DIRECTION('',(-1.,-1.2E-16,0.));
#907 = ORIENTED_EDGE('',*,*,#908,.F.);
#908 = EDGE_CURVE('',#909,#901,#911,.T.);
#909 = VERTEX_POINT('',#910);
#910 = CARTESIAN_POINT('',(6.199999809265,-1.E-15,3.));
#911 = LINE('',#912,#913);
#912 = CARTESIAN_POINT('',(6.199999809265,7.6E-16,8.5));
#913 = VECTOR('',#914,1.);
#914 = DIRECTION('',(-0.,-0.,-1.));
#915 = ORIENTED_EDGE('',*,*,#916,.F.);
#916 = EDGE_CURVE('',#917,#909,#919,.T.);
#917 = VERTEX_POINT('',#918);
#918 = CARTESIAN_POINT('',(7.199999809265,-1.E-15,3.));
#919 = LINE('',#920,#921);
#920 = CARTESIAN_POINT('',(7.199999809265,-6.7E-16,3.));
#921 = VECTOR('',#922,1.);
#922 = DIRECTION('',(-1.,-8.3E-16,0.));
#923 = ORIENTED_EDGE('',*,*,#924,.T.);
#924 = EDGE_CURVE('',#917,#925,#927,.T.);
#925 = VERTEX_POINT('',#926);
#926 = CARTESIAN_POINT('',(7.199999809265,-1.E-15,5.));
#927 = LINE('',#928,#929);
#928 = CARTESIAN_POINT('',(7.199999809265,2.2E-16,3.));
#929 = VECTOR('',#930,1.);
#930 = DIRECTION('',(0.,0.,1.));
#931 = ORIENTED_EDGE('',*,*,#932,.T.);
#932 = EDGE_CURVE('',#925,#933,#935,.T.);
#933 = VERTEX_POINT('',#934);
#934 = CARTESIAN_POINT('',(6.199999809265,-1.E-15,5.));
#935 = LINE('',#936,#937);
#936 = CARTESIAN_POINT('',(7.199999809265,-6.7E-16,5.));
#937 = VECTOR('',#938,1.);
#938 = DIRECTION('',(-1.,-8.3E-16,0.));
#939 = ORIENTED_EDGE('',*,*,#940,.F.);
#940 = EDGE_CURVE('',#263,#933,#941,.T.);
#941 = LINE('',#942,#943);
#942 = CARTESIAN_POINT('',(6.199999809265,7.6E-16,8.5));
#943 = VECTOR('',#944,1.);
#944 = DIRECTION('',(-0.,-0.,-1.));
#945 = PLANE('',#946);
#946 = AXIS2_PLACEMENT_3D('',#947,#948,#949);
#947 = CARTESIAN_POINT('',(-4.7E-16,-1.6E-16,4.228165938501));
#948 = DIRECTION('',(-0.,-1.,-0.));
#949 = DIRECTION('',(0.,0.,-1.));
#950 = ADVANCED_FACE('',(#951),#969,.T.);
#951 = FACE_BOUND('',#952,.T.);
#952 = EDGE_LOOP('',(#953,#954,#955,#963));
#953 = ORIENTED_EDGE('',*,*,#270,.F.);
#954 = ORIENTED_EDGE('',*,*,#940,.T.);
#955 = ORIENTED_EDGE('',*,*,#956,.F.);
#956 = EDGE_CURVE('',#957,#933,#959,.T.);
#957 = VERTEX_POINT('',#958);
#958 = CARTESIAN_POINT('',(6.199999809265,-7.5,5.));
#959 = LINE('',#960,#961);
#960 = CARTESIAN_POINT('',(6.199999809265,-7.5,5.));
#961 = VECTOR('',#962,1.);
#962 = DIRECTION('',(0.,1.,0.));
#963 = ORIENTED_EDGE('',*,*,#964,.F.);
#964 = EDGE_CURVE('',#271,#957,#965,.T.);
#965 = LINE('',#966,#967);
#966 = CARTESIAN_POINT('',(6.199999809265,-7.5,8.5));
#967 = VECTOR('',#968,1.);
#968 = DIRECTION('',(-0.,-0.,-1.));
#969 = PLANE('',#970);
#970 = AXIS2_PLACEMENT_3D('',#971,#972,#973);
#971 = CARTESIAN_POINT('',(6.199999809265,7.6E-16,8.5));
#972 = DIRECTION('',(-1.,-1.2E-16,0.));
#973 = DIRECTION('',(1.2E-16,-1.,0.));
#974 = ADVANCED_FACE('',(#975),#1025,.T.);
#975 = FACE_BOUND('',#976,.T.);
#976 = EDGE_LOOP('',(#977,#978,#979,#987,#995,#1003,#1011,#1019));
#977 = ORIENTED_EDGE('',*,*,#278,.F.);
#978 = ORIENTED_EDGE('',*,*,#964,.T.);
#979 = ORIENTED_EDGE('',*,*,#980,.T.);
#980 = EDGE_CURVE('',#957,#981,#983,.T.);
#981 = VERTEX_POINT('',#982);
#982 = CARTESIAN_POINT('',(7.199999809265,-7.5,5.));
#983 = LINE('',#984,#985);
#984 = CARTESIAN_POINT('',(6.199999809265,-7.5,5.));
#985 = VECTOR('',#986,1.);
#986 = DIRECTION('',(1.,0.,0.));
#987 = ORIENTED_EDGE('',*,*,#988,.F.);
#988 = EDGE_CURVE('',#989,#981,#991,.T.);
#989 = VERTEX_POINT('',#990);
#990 = CARTESIAN_POINT('',(7.199999809265,-7.5,3.));
#991 = LINE('',#992,#993);
#992 = CARTESIAN_POINT('',(7.199999809265,-7.5,3.));
#993 = VECTOR('',#994,1.);
#994 = DIRECTION('',(0.,0.,1.));
#995 = ORIENTED_EDGE('',*,*,#996,.F.);
#996 = EDGE_CURVE('',#997,#989,#999,.T.);
#997 = VERTEX_POINT('',#998);
#998 = CARTESIAN_POINT('',(6.199999809265,-7.5,3.));
#999 = LINE('',#1000,#1001);
#1000 = CARTESIAN_POINT('',(6.199999809265,-7.5,3.));
#1001 = VECTOR('',#1002,1.);
#1002 = DIRECTION('',(1.,0.,0.));
#1003 = ORIENTED_EDGE('',*,*,#1004,.T.);
#1004 = EDGE_CURVE('',#997,#1005,#1007,.T.);
#1005 = VERTEX_POINT('',#1006);
#1006 = CARTESIAN_POINT('',(6.199999809265,-7.5,0.));
#1007 = LINE('',#1008,#1009);
#1008 = CARTESIAN_POINT('',(6.199999809265,-7.5,8.5));
#1009 = VECTOR('',#1010,1.);
#1010 = DIRECTION('',(-0.,-0.,-1.));
#1011 = ORIENTED_EDGE('',*,*,#1012,.F.);
#1012 = EDGE_CURVE('',#1013,#1005,#1015,.T.);
#1013 = VERTEX_POINT('',#1014);
#1014 = CARTESIAN_POINT('',(2.200000047684,-7.5,0.));
#1015 = LINE('',#1016,#1017);
#1016 = CARTESIAN_POINT('',(3.099999904633,-7.5,0.));
#1017 = VECTOR('',#1018,1.);
#1018 = DIRECTION('',(1.,2.2E-16,0.));
#1019 = ORIENTED_EDGE('',*,*,#1020,.F.);
#1020 = EDGE_CURVE('',#279,#1013,#1021,.T.);
#1021 = LINE('',#1022,#1023);
#1022 = CARTESIAN_POINT('',(2.200000047684,-7.5,8.5));
#1023 = VECTOR('',#1024,1.);
#1024 = DIRECTION('',(-0.,-0.,-1.));
#1025 = PLANE('',#1026);
#1026 = AXIS2_PLACEMENT_3D('',#1027,#1028,#1029);
#1027 = CARTESIAN_POINT('',(4.459259183482,-7.5,4.231481481154));
#1028 = DIRECTION('',(0.,1.,0.));
#1029 = DIRECTION('',(0.,0.,1.));
#1030 = ADVANCED_FACE('',(#1031),#1042,.F.);
#1031 = FACE_BOUND('',#1032,.F.);
#1032 = EDGE_LOOP('',(#1033,#1034,#1035,#1041));
#1033 = ORIENTED_EDGE('',*,*,#286,.F.);
#1034 = ORIENTED_EDGE('',*,*,#732,.T.);
#1035 = ORIENTED_EDGE('',*,*,#1036,.F.);
#1036 = EDGE_CURVE('',#1013,#733,#1037,.T.);
#1037 = LINE('',#1038,#1039);
#1038 = CARTESIAN_POINT('',(2.200000047684,-5.002594244166,0.));
#1039 = VECTOR('',#1040,1.);
#1040 = DIRECTION('',(0.,1.,0.));
#1041 = ORIENTED_EDGE('',*,*,#1020,.F.);
#1042 = PLANE('',#1043);
#1043 = AXIS2_PLACEMENT_3D('',#1044,#1045,#1046);
#1044 = CARTESIAN_POINT('',(2.200000047684,-6.199999809265,8.5));
#1045 = DIRECTION('',(-1.,0.,0.));
#1046 = DIRECTION('',(0.,-1.,0.));
#1047 = ADVANCED_FACE('',(#1048),#1059,.F.);
#1048 = FACE_BOUND('',#1049,.F.);
#1049 = EDGE_LOOP('',(#1050,#1051,#1052,#1053));
#1050 = ORIENTED_EDGE('',*,*,#486,.T.);
#1051 = ORIENTED_EDGE('',*,*,#414,.F.);
#1052 = ORIENTED_EDGE('',*,*,#309,.F.);
#1053 = ORIENTED_EDGE('',*,*,#1054,.F.);
#1054 = EDGE_CURVE('',#479,#310,#1055,.T.);
#1055 = LINE('',#1056,#1057);
#1056 = CARTESIAN_POINT('',(-3.5,-2.200000047684,-4.4));
#1057 = VECTOR('',#1058,1.);
#1058 = DIRECTION('',(-1.,0.,0.));
#1059 = PLANE('',#1060);
#1060 = AXIS2_PLACEMENT_3D('',#1061,#1062,#1063);
#1061 = CARTESIAN_POINT('',(3.9E-16,-3.594141694112,-4.4));
#1062 = DIRECTION('',(0.,0.,1.));
#1063 = DIRECTION('',(1.,0.,0.));
#1064 = ADVANCED_FACE('',(#1065),#1099,.T.);
#1065 = FACE_BOUND('',#1066,.T.);
#1066 = EDGE_LOOP('',(#1067,#1075,#1083,#1089,#1090,#1091,#1097,#1098));
#1067 = ORIENTED_EDGE('',*,*,#1068,.F.);
#1068 = EDGE_CURVE('',#1069,#651,#1071,.T.);
#1069 = VERTEX_POINT('',#1070);
#1070 = CARTESIAN_POINT('',(0.2161964,-4.,-6.4));
#1071 = LINE('',#1072,#1073);
#1072 = CARTESIAN_POINT('',(0.2161964,-4.,-18.1));
#1073 = VECTOR('',#1074,1.);
#1074 = DIRECTION('',(0.,0.,-1.));
#1075 = ORIENTED_EDGE('',*,*,#1076,.T.);
#1076 = EDGE_CURVE('',#1069,#1077,#1079,.T.);
#1077 = VERTEX_POINT('',#1078);
#1078 = CARTESIAN_POINT('',(-2.436678,-4.,-6.4));
#1079 = LINE('',#1080,#1081);
#1080 = CARTESIAN_POINT('',(0.2161964,-4.,-6.4));
#1081 = VECTOR('',#1082,1.);
#1082 = DIRECTION('',(-1.,-6.E-17,0.));
#1083 = ORIENTED_EDGE('',*,*,#1084,.F.);
#1084 = EDGE_CURVE('',#627,#1077,#1085,.T.);
#1085 = LINE('',#1086,#1087);
#1086 = CARTESIAN_POINT('',(-2.436678,-4.,-11.51119433913));
#1087 = VECTOR('',#1088,1.);
#1088 = DIRECTION('',(0.,0.,1.));
#1089 = ORIENTED_EDGE('',*,*,#626,.F.);
#1090 = ORIENTED_EDGE('',*,*,#333,.F.);
#1091 = ORIENTED_EDGE('',*,*,#1092,.F.);
#1092 = EDGE_CURVE('',#463,#326,#1093,.T.);
#1093 = LINE('',#1094,#1095);
#1094 = CARTESIAN_POINT('',(3.5,-4.,0.));
#1095 = VECTOR('',#1096,1.);
#1096 = DIRECTION('',(-1.,-6.E-17,0.));
#1097 = ORIENTED_EDGE('',*,*,#462,.T.);
#1098 = ORIENTED_EDGE('',*,*,#658,.T.);
#1099 = PLANE('',#1100);
#1100 = AXIS2_PLACEMENT_3D('',#1101,#1102,#1103);
#1101 = CARTESIAN_POINT('',(-0.337899373913,-4.,-10.02238867826));
#1102 = DIRECTION('',(0.,1.,0.));
#1103 = DIRECTION('',(0.,0.,1.));
#1104 = ADVANCED_FACE('',(#1105),#1116,.F.);
#1105 = FACE_BOUND('',#1106,.F.);
#1106 = EDGE_LOOP('',(#1107,#1113,#1114,#1115));
#1107 = ORIENTED_EDGE('',*,*,#1108,.F.);
#1108 = EDGE_CURVE('',#471,#318,#1109,.T.);
#1109 = LINE('',#1110,#1111);
#1110 = CARTESIAN_POINT('',(3.5,-2.200000047684,0.));
#1111 = VECTOR('',#1112,1.);
#1112 = DIRECTION('',(-1.,-1.3E-16,0.));
#1113 = ORIENTED_EDGE('',*,*,#478,.T.);
#1114 = ORIENTED_EDGE('',*,*,#1054,.T.);
#1115 = ORIENTED_EDGE('',*,*,#317,.F.);
#1116 = PLANE('',#1117);
#1117 = AXIS2_PLACEMENT_3D('',#1118,#1119,#1120);
#1118 = CARTESIAN_POINT('',(3.5,-2.200000047684,0.));
#1119 = DIRECTION('',(-1.3E-16,1.,0.));
#1120 = DIRECTION('',(-1.,-1.3E-16,0.));
#1121 = ADVANCED_FACE('',(#1122,#1142),#1148,.T.);
#1122 = FACE_BOUND('',#1123,.T.);
#1123 = EDGE_LOOP('',(#1124,#1125,#1126,#1127,#1128,#1134,#1135,#1141));
#1124 = ORIENTED_EDGE('',*,*,#764,.T.);
#1125 = ORIENTED_EDGE('',*,*,#740,.T.);
#1126 = ORIENTED_EDGE('',*,*,#1036,.F.);
#1127 = ORIENTED_EDGE('',*,*,#1012,.T.);
#1128 = ORIENTED_EDGE('',*,*,#1129,.T.);
#1129 = EDGE_CURVE('',#1005,#901,#1130,.T.);
#1130 = LINE('',#1131,#1132);
#1131 = CARTESIAN_POINT('',(6.199999809265,-1.902594339534,0.));
#1132 = VECTOR('',#1133,1.);
#1133 = DIRECTION('',(-1.2E-16,1.,0.));
#1134 = ORIENTED_EDGE('',*,*,#900,.T.);
#1135 = ORIENTED_EDGE('',*,*,#1136,.T.);
#1136 = EDGE_CURVE('',#893,#789,#1137,.T.);
#1137 = LINE('',#1138,#1139);
#1138 = CARTESIAN_POINT('',(-6.199999809265,-5.652594339534,0.));
#1139 = VECTOR('',#1140,1.);
#1140 = DIRECTION('',(1.2E-16,-1.,0.));
#1141 = ORIENTED_EDGE('',*,*,#788,.T.);
#1142 = FACE_BOUND('',#1143,.T.);
#1143 = EDGE_LOOP('',(#1144,#1145,#1146,#1147));
#1144 = ORIENTED_EDGE('',*,*,#470,.F.);
#1145 = ORIENTED_EDGE('',*,*,#1092,.T.);
#1146 = ORIENTED_EDGE('',*,*,#325,.F.);
#1147 = ORIENTED_EDGE('',*,*,#1108,.F.);
#1148 = PLANE('',#1149);
#1149 = AXIS2_PLACEMENT_3D('',#1150,#1151,#1152);
#1150 = CARTESIAN_POINT('',(3.9E-16,-3.594141694112,0.));
#1151 = DIRECTION('',(0.,0.,1.));
#1152 = DIRECTION('',(1.,0.,0.));
#1153 = ADVANCED_FACE('',(#1154),#1172,.T.);
#1154 = FACE_BOUND('',#1155,.T.);
#1155 = EDGE_LOOP('',(#1156,#1164,#1165,#1166));
#1156 = ORIENTED_EDGE('',*,*,#1157,.F.);
#1157 = EDGE_CURVE('',#668,#1158,#1160,.T.);
#1158 = VERTEX_POINT('',#1159);
#1159 = CARTESIAN_POINT('',(15.,-9.5,-18.4));
#1160 = LINE('',#1161,#1162);
#1161 = CARTESIAN_POINT('',(9.933333333333,-4.433333333333,
    -23.46666666666));
#1162 = VECTOR('',#1163,1.);
#1163 = DIRECTION('',(0.57735026919,-0.57735026919,0.57735026919));
#1164 = ORIENTED_EDGE('',*,*,#667,.T.);
#1165 = ORIENTED_EDGE('',*,*,#390,.T.);
#1166 = ORIENTED_EDGE('',*,*,#1167,.F.);
#1167 = EDGE_CURVE('',#1158,#383,#1168,.T.);
#1168 = LINE('',#1169,#1170);
#1169 = CARTESIAN_POINT('',(15.,-9.5,-18.4));
#1170 = VECTOR('',#1171,1.);
#1171 = DIRECTION('',(0.,1.,-2.2E-16));
#1172 = PLANE('',#1173);
#1173 = AXIS2_PLACEMENT_3D('',#1174,#1175,#1176);
#1174 = CARTESIAN_POINT('',(14.9,-9.5,-18.5));
#1175 = DIRECTION('',(0.707106781187,-2.824727568162E-19,-0.707106781187
    ));
#1176 = DIRECTION('',(-1.098002615982E-16,1.,-1.101997384018E-16));
#1177 = ADVANCED_FACE('',(#1178),#1189,.T.);
#1178 = FACE_BOUND('',#1179,.T.);
#1179 = EDGE_LOOP('',(#1180,#1181,#1182,#1188));
#1180 = ORIENTED_EDGE('',*,*,#382,.T.);
#1181 = ORIENTED_EDGE('',*,*,#700,.F.);
#1182 = ORIENTED_EDGE('',*,*,#1183,.F.);
#1183 = EDGE_CURVE('',#1158,#691,#1184,.T.);
#1184 = LINE('',#1185,#1186);
#1185 = CARTESIAN_POINT('',(15.,-9.5,-18.6));
#1186 = VECTOR('',#1187,1.);
#1187 = DIRECTION('',(0.,0.,1.));
#1188 = ORIENTED_EDGE('',*,*,#1167,.T.);
#1189 = PLANE('',#1190);
#1190 = AXIS2_PLACEMENT_3D('',#1191,#1192,#1193);
#1191 = CARTESIAN_POINT('',(15.,-9.5,-18.6));
#1192 = DIRECTION('',(1.,0.,0.));
#1193 = DIRECTION('',(0.,2.2E-16,1.));
#1194 = ADVANCED_FACE('',(#1195,#1206,#1209),#1212,.T.);
#1195 = FACE_BOUND('',#1196,.T.);
#1196 = EDGE_LOOP('',(#1197,#1198,#1204,#1205));
#1197 = ORIENTED_EDGE('',*,*,#584,.T.);
#1198 = ORIENTED_EDGE('',*,*,#1199,.T.);
#1199 = EDGE_CURVE('',#577,#1158,#1200,.T.);
#1200 = LINE('',#1201,#1202);
#1201 = CARTESIAN_POINT('',(-15.,-9.5,-18.4));
#1202 = VECTOR('',#1203,1.);
#1203 = DIRECTION('',(1.,0.,0.));
#1204 = ORIENTED_EDGE('',*,*,#1183,.T.);
#1205 = ORIENTED_EDGE('',*,*,#717,.T.);
#1206 = FACE_BOUND('',#1207,.T.);
#1207 = EDGE_LOOP('',(#1208));
#1208 = ORIENTED_EDGE('',*,*,#501,.F.);
#1209 = FACE_BOUND('',#1210,.T.);
#1210 = EDGE_LOOP('',(#1211));
#1211 = ORIENTED_EDGE('',*,*,#526,.F.);
#1212 = PLANE('',#1213);
#1213 = AXIS2_PLACEMENT_3D('',#1214,#1215,#1216);
#1214 = CARTESIAN_POINT('',(-2.5E-16,-9.5,-5.05));
#1215 = DIRECTION('',(-0.,-1.,-0.));
#1216 = DIRECTION('',(0.,0.,-1.));
#1217 = ADVANCED_FACE('',(#1218),#1224,.T.);
#1218 = FACE_BOUND('',#1219,.T.);
#1219 = EDGE_LOOP('',(#1220,#1221,#1222,#1223));
#1220 = ORIENTED_EDGE('',*,*,#599,.F.);
#1221 = ORIENTED_EDGE('',*,*,#675,.T.);
#1222 = ORIENTED_EDGE('',*,*,#1157,.T.);
#1223 = ORIENTED_EDGE('',*,*,#1199,.F.);
#1224 = PLANE('',#1225);
#1225 = AXIS2_PLACEMENT_3D('',#1226,#1227,#1228);
#1226 = CARTESIAN_POINT('',(-15.,-9.4,-18.5));
#1227 = DIRECTION('',(-7.341111181764E-19,-0.707106781187,
    -0.707106781187));
#1228 = DIRECTION('',(1.,-5.19094949807E-19,-5.19094949807E-19));
#1229 = ADVANCED_FACE('',(#1230),#1256,.T.);
#1230 = FACE_BOUND('',#1231,.T.);
#1231 = EDGE_LOOP('',(#1232,#1242,#1248,#1249,#1250));
#1232 = ORIENTED_EDGE('',*,*,#1233,.T.);
#1233 = EDGE_CURVE('',#1234,#1236,#1238,.T.);
#1234 = VERTEX_POINT('',#1235);
#1235 = CARTESIAN_POINT('',(-2.436678,-5.,-7.4));
#1236 = VERTEX_POINT('',#1237);
#1237 = CARTESIAN_POINT('',(-2.436678,-5.462317,-7.4));
#1238 = LINE('',#1239,#1240);
#1239 = CARTESIAN_POINT('',(-2.436678,-4.3722321,-7.4));
#1240 = VECTOR('',#1241,1.);
#1241 = DIRECTION('',(0.,-1.,0.));
#1242 = ORIENTED_EDGE('',*,*,#1243,.T.);
#1243 = EDGE_CURVE('',#1236,#635,#1244,.T.);
#1244 = LINE('',#1245,#1246);
#1245 = CARTESIAN_POINT('',(-2.436678,-5.462317,-7.4));
#1246 = VECTOR('',#1247,1.);
#1247 = DIRECTION('',(0.,0.,-1.));
#1248 = ORIENTED_EDGE('',*,*,#634,.F.);
#1249 = ORIENTED_EDGE('',*,*,#1084,.T.);
#1250 = ORIENTED_EDGE('',*,*,#1251,.T.);
#1251 = EDGE_CURVE('',#1077,#1234,#1252,.T.);
#1252 = LINE('',#1253,#1254);
#1253 = CARTESIAN_POINT('',(-2.436678,-6.082789625,-8.482789625));
#1254 = VECTOR('',#1255,1.);
#1255 = DIRECTION('',(0.,-0.707106781187,-0.707106781187));
#1256 = PLANE('',#1257);
#1257 = AXIS2_PLACEMENT_3D('',#1258,#1259,#1260);
#1258 = CARTESIAN_POINT('',(-2.436678,-4.7311585,-13.));
#1259 = DIRECTION('',(1.,0.,0.));
#1260 = DIRECTION('',(0.,0.,1.));
#1261 = ADVANCED_FACE('',(#1262),#1280,.T.);
#1262 = FACE_BOUND('',#1263,.T.);
#1263 = EDGE_LOOP('',(#1264,#1265,#1273,#1279));
#1264 = ORIENTED_EDGE('',*,*,#1243,.F.);
#1265 = ORIENTED_EDGE('',*,*,#1266,.T.);
#1266 = EDGE_CURVE('',#1236,#1267,#1269,.T.);
#1267 = VERTEX_POINT('',#1268);
#1268 = CARTESIAN_POINT('',(0.2161964,-5.462317,-7.4));
#1269 = LINE('',#1270,#1271);
#1270 = CARTESIAN_POINT('',(-2.436678,-5.462317,-7.4));
#1271 = VECTOR('',#1272,1.);
#1272 = DIRECTION('',(1.,0.,0.));
#1273 = ORIENTED_EDGE('',*,*,#1274,.T.);
#1274 = EDGE_CURVE('',#1267,#643,#1275,.T.);
#1275 = LINE('',#1276,#1277);
#1276 = CARTESIAN_POINT('',(0.2161964,-5.462317,-7.4));
#1277 = VECTOR('',#1278,1.);
#1278 = DIRECTION('',(0.,0.,-1.));
#1279 = ORIENTED_EDGE('',*,*,#642,.F.);
#1280 = PLANE('',#1281);
#1281 = AXIS2_PLACEMENT_3D('',#1282,#1283,#1284);
#1282 = CARTESIAN_POINT('',(-1.1102408,-5.462317,-13.));
#1283 = DIRECTION('',(0.,1.,0.));
#1284 = DIRECTION('',(0.,0.,1.));
#1285 = ADVANCED_FACE('',(#1286),#1305,.T.);
#1286 = FACE_BOUND('',#1287,.T.);
#1287 = EDGE_LOOP('',(#1288,#1296,#1302,#1303,#1304));
#1288 = ORIENTED_EDGE('',*,*,#1289,.T.);
#1289 = EDGE_CURVE('',#1267,#1290,#1292,.T.);
#1290 = VERTEX_POINT('',#1291);
#1291 = CARTESIAN_POINT('',(0.2161964,-5.,-7.4));
#1292 = LINE('',#1293,#1294);
#1293 = CARTESIAN_POINT('',(0.2161964,-4.3722321,-7.4));
#1294 = VECTOR('',#1295,1.);
#1295 = DIRECTION('',(0.,1.,0.));
#1296 = ORIENTED_EDGE('',*,*,#1297,.F.);
#1297 = EDGE_CURVE('',#1069,#1290,#1298,.T.);
#1298 = LINE('',#1299,#1300);
#1299 = CARTESIAN_POINT('',(0.2161964,-6.082789625,-8.482789625));
#1300 = VECTOR('',#1301,1.);
#1301 = DIRECTION('',(0.,-0.707106781187,-0.707106781187));
#1302 = ORIENTED_EDGE('',*,*,#1068,.T.);
#1303 = ORIENTED_EDGE('',*,*,#650,.F.);
#1304 = ORIENTED_EDGE('',*,*,#1274,.F.);
#1305 = PLANE('',#1306);
#1306 = AXIS2_PLACEMENT_3D('',#1307,#1308,#1309);
#1307 = CARTESIAN_POINT('',(0.2161964,-4.7311585,-13.));
#1308 = DIRECTION('',(-1.,-0.,-0.));
#1309 = DIRECTION('',(0.,0.,-1.));
#1310 = ADVANCED_FACE('',(#1311),#1322,.T.);
#1311 = FACE_BOUND('',#1312,.T.);
#1312 = EDGE_LOOP('',(#1313,#1319,#1320,#1321));
#1313 = ORIENTED_EDGE('',*,*,#1314,.F.);
#1314 = EDGE_CURVE('',#797,#885,#1315,.T.);
#1315 = LINE('',#1316,#1317);
#1316 = CARTESIAN_POINT('',(-6.199999809265,-7.5,3.));
#1317 = VECTOR('',#1318,1.);
#1318 = DIRECTION('',(0.,1.,0.));
#1319 = ORIENTED_EDGE('',*,*,#796,.T.);
#1320 = ORIENTED_EDGE('',*,*,#1136,.F.);
#1321 = ORIENTED_EDGE('',*,*,#892,.F.);
#1322 = PLANE('',#1323);
#1323 = AXIS2_PLACEMENT_3D('',#1324,#1325,#1326);
#1324 = CARTESIAN_POINT('',(-6.199999809265,-7.5,8.5));
#1325 = DIRECTION('',(1.,1.2E-16,0.));
#1326 = DIRECTION('',(-1.2E-16,1.,0.));
#1327 = ADVANCED_FACE('',(#1328),#1339,.T.);
#1328 = FACE_BOUND('',#1329,.T.);
#1329 = EDGE_LOOP('',(#1330,#1331,#1332,#1338));
#1330 = ORIENTED_EDGE('',*,*,#1314,.T.);
#1331 = ORIENTED_EDGE('',*,*,#884,.T.);
#1332 = ORIENTED_EDGE('',*,*,#1333,.T.);
#1333 = EDGE_CURVE('',#877,#805,#1334,.T.);
#1334 = LINE('',#1335,#1336);
#1335 = CARTESIAN_POINT('',(-7.199999809265,-6.7E-16,3.));
#1336 = VECTOR('',#1337,1.);
#1337 = DIRECTION('',(0.,-1.,0.));
#1338 = ORIENTED_EDGE('',*,*,#804,.T.);
#1339 = PLANE('',#1340);
#1340 = AXIS2_PLACEMENT_3D('',#1341,#1342,#1343);
#1341 = CARTESIAN_POINT('',(-6.699999809265,-3.75,3.));
#1342 = DIRECTION('',(0.,0.,1.));
#1343 = DIRECTION('',(-1.,0.,0.));
#1344 = ADVANCED_FACE('',(#1345),#1356,.T.);
#1345 = FACE_BOUND('',#1346,.T.);
#1346 = EDGE_LOOP('',(#1347,#1348,#1354,#1355));
#1347 = ORIENTED_EDGE('',*,*,#876,.T.);
#1348 = ORIENTED_EDGE('',*,*,#1349,.T.);
#1349 = EDGE_CURVE('',#869,#813,#1350,.T.);
#1350 = LINE('',#1351,#1352);
#1351 = CARTESIAN_POINT('',(-7.199999809265,-6.7E-16,5.));
#1352 = VECTOR('',#1353,1.);
#1353 = DIRECTION('',(0.,-1.,0.));
#1354 = ORIENTED_EDGE('',*,*,#812,.F.);
#1355 = ORIENTED_EDGE('',*,*,#1333,.F.);
#1356 = PLANE('',#1357);
#1357 = AXIS2_PLACEMENT_3D('',#1358,#1359,#1360);
#1358 = CARTESIAN_POINT('',(-7.199999809265,-1.55E-15,3.));
#1359 = DIRECTION('',(1.,1.2E-16,0.));
#1360 = DIRECTION('',(1.2E-16,-1.,0.));
#1361 = ADVANCED_FACE('',(#1362),#1368,.F.);
#1362 = FACE_BOUND('',#1363,.F.);
#1363 = EDGE_LOOP('',(#1364,#1365,#1366,#1367));
#1364 = ORIENTED_EDGE('',*,*,#844,.T.);
#1365 = ORIENTED_EDGE('',*,*,#868,.T.);
#1366 = ORIENTED_EDGE('',*,*,#1349,.T.);
#1367 = ORIENTED_EDGE('',*,*,#820,.T.);
#1368 = PLANE('',#1369);
#1369 = AXIS2_PLACEMENT_3D('',#1370,#1371,#1372);
#1370 = CARTESIAN_POINT('',(-6.699999809265,-3.75,5.));
#1371 = DIRECTION('',(0.,0.,1.));
#1372 = DIRECTION('',(-1.,0.,0.));
#1373 = ADVANCED_FACE('',(#1374),#1385,.T.);
#1374 = FACE_BOUND('',#1375,.T.);
#1375 = EDGE_LOOP('',(#1376,#1382,#1383,#1384));
#1376 = ORIENTED_EDGE('',*,*,#1377,.T.);
#1377 = EDGE_CURVE('',#997,#909,#1378,.T.);
#1378 = LINE('',#1379,#1380);
#1379 = CARTESIAN_POINT('',(6.199999809265,-7.5,3.));
#1380 = VECTOR('',#1381,1.);
#1381 = DIRECTION('',(0.,1.,0.));
#1382 = ORIENTED_EDGE('',*,*,#908,.T.);
#1383 = ORIENTED_EDGE('',*,*,#1129,.F.);
#1384 = ORIENTED_EDGE('',*,*,#1004,.F.);
#1385 = PLANE('',#1386);
#1386 = AXIS2_PLACEMENT_3D('',#1387,#1388,#1389);
#1387 = CARTESIAN_POINT('',(6.199999809265,7.6E-16,8.5));
#1388 = DIRECTION('',(-1.,-1.2E-16,0.));
#1389 = DIRECTION('',(1.2E-16,-1.,0.));
#1390 = ADVANCED_FACE('',(#1391),#1402,.T.);
#1391 = FACE_BOUND('',#1392,.T.);
#1392 = EDGE_LOOP('',(#1393,#1399,#1400,#1401));
#1393 = ORIENTED_EDGE('',*,*,#1394,.T.);
#1394 = EDGE_CURVE('',#989,#917,#1395,.T.);
#1395 = LINE('',#1396,#1397);
#1396 = CARTESIAN_POINT('',(7.199999809265,-7.5,3.));
#1397 = VECTOR('',#1398,1.);
#1398 = DIRECTION('',(0.,1.,0.));
#1399 = ORIENTED_EDGE('',*,*,#916,.T.);
#1400 = ORIENTED_EDGE('',*,*,#1377,.F.);
#1401 = ORIENTED_EDGE('',*,*,#996,.T.);
#1402 = PLANE('',#1403);
#1403 = AXIS2_PLACEMENT_3D('',#1404,#1405,#1406);
#1404 = CARTESIAN_POINT('',(6.699999809265,-3.75,3.));
#1405 = DIRECTION('',(0.,0.,1.));
#1406 = DIRECTION('',(-1.,0.,0.));
#1407 = ADVANCED_FACE('',(#1408),#1419,.T.);
#1408 = FACE_BOUND('',#1409,.T.);
#1409 = EDGE_LOOP('',(#1410,#1411,#1417,#1418));
#1410 = ORIENTED_EDGE('',*,*,#988,.T.);
#1411 = ORIENTED_EDGE('',*,*,#1412,.T.);
#1412 = EDGE_CURVE('',#981,#925,#1413,.T.);
#1413 = LINE('',#1414,#1415);
#1414 = CARTESIAN_POINT('',(7.199999809265,-7.5,5.));
#1415 = VECTOR('',#1416,1.);
#1416 = DIRECTION('',(0.,1.,0.));
#1417 = ORIENTED_EDGE('',*,*,#924,.F.);
#1418 = ORIENTED_EDGE('',*,*,#1394,.F.);
#1419 = PLANE('',#1420);
#1420 = AXIS2_PLACEMENT_3D('',#1421,#1422,#1423);
#1421 = CARTESIAN_POINT('',(7.199999809265,-7.5,3.));
#1422 = DIRECTION('',(-1.,-1.2E-16,0.));
#1423 = DIRECTION('',(-1.2E-16,1.,0.));
#1424 = ADVANCED_FACE('',(#1425),#1431,.F.);
#1425 = FACE_BOUND('',#1426,.F.);
#1426 = EDGE_LOOP('',(#1427,#1428,#1429,#1430));
#1427 = ORIENTED_EDGE('',*,*,#1412,.T.);
#1428 = ORIENTED_EDGE('',*,*,#932,.T.);
#1429 = ORIENTED_EDGE('',*,*,#956,.F.);
#1430 = ORIENTED_EDGE('',*,*,#980,.T.);
#1431 = PLANE('',#1432);
#1432 = AXIS2_PLACEMENT_3D('',#1433,#1434,#1435);
#1433 = CARTESIAN_POINT('',(6.699999809265,-3.75,5.));
#1434 = DIRECTION('',(0.,0.,1.));
#1435 = DIRECTION('',(-1.,0.,0.));
#1436 = ADVANCED_FACE('',(#1437),#1448,.F.);
#1437 = FACE_BOUND('',#1438,.F.);
#1438 = EDGE_LOOP('',(#1439,#1440,#1441,#1442));
#1439 = ORIENTED_EDGE('',*,*,#1297,.F.);
#1440 = ORIENTED_EDGE('',*,*,#1076,.T.);
#1441 = ORIENTED_EDGE('',*,*,#1251,.T.);
#1442 = ORIENTED_EDGE('',*,*,#1443,.F.);
#1443 = EDGE_CURVE('',#1290,#1234,#1444,.T.);
#1444 = LINE('',#1445,#1446);
#1445 = CARTESIAN_POINT('',(0.2161964,-5.,-7.4));
#1446 = VECTOR('',#1447,1.);
#1447 = DIRECTION('',(-1.,-6.E-17,0.));
#1448 = PLANE('',#1449);
#1449 = AXIS2_PLACEMENT_3D('',#1450,#1451,#1452);
#1450 = CARTESIAN_POINT('',(0.2161964,-4.5,-6.9));
#1451 = DIRECTION('',(-1.E-17,-0.707106781187,0.707106781187));
#1452 = DIRECTION('',(-1.,-2.792893218813E-17,-4.207106781187E-17));
#1453 = ADVANCED_FACE('',(#1454),#1460,.F.);
#1454 = FACE_BOUND('',#1455,.F.);
#1455 = EDGE_LOOP('',(#1456,#1457,#1458,#1459));
#1456 = ORIENTED_EDGE('',*,*,#1289,.T.);
#1457 = ORIENTED_EDGE('',*,*,#1443,.T.);
#1458 = ORIENTED_EDGE('',*,*,#1233,.T.);
#1459 = ORIENTED_EDGE('',*,*,#1266,.T.);
#1460 = PLANE('',#1461);
#1461 = AXIS2_PLACEMENT_3D('',#1462,#1463,#1464);
#1462 = CARTESIAN_POINT('',(3.9E-16,-3.594141694112,-7.4));
#1463 = DIRECTION('',(0.,0.,1.));
#1464 = DIRECTION('',(1.,0.,0.));
#1465 = ( GEOMETRIC_REPRESENTATION_CONTEXT(3) 
GLOBAL_UNCERTAINTY_ASSIGNED_CONTEXT((#1469)) 
GLOBAL_UNIT_ASSIGNED_CONTEXT((#1466,#1467,#1468)) REPRESENTATION_CONTEXT
('Context #1','3D Context with UNIT and UNCERTAINTY') );
#1466 = ( LENGTH_UNIT() NAMED_UNIT(*) SI_UNIT(.MILLI.,.METRE.) );
#1467 = ( NAMED_UNIT(*) PLANE_ANGLE_UNIT() SI_UNIT($,.RADIAN.) );
#1468 = ( NAMED_UNIT(*) SI_UNIT($,.STERADIAN.) SOLID_ANGLE_UNIT() );
#1469 = UNCERTAINTY_MEASURE_WITH_UNIT(LENGTH_MEASURE(5.E-06),#1466,
  'distance_accuracy_value','confusion accuracy');
#1470 = PRODUCT_RELATED_PRODUCT_CATEGORY('part',$,(#7));
#1471 = MECHANICAL_DESIGN_GEOMETRIC_PRESENTATION_REPRESENTATION('',(
    #1472),#1465);
#1472 = STYLED_ITEM('color',(#1473),#15);
#1473 = PRESENTATION_STYLE_ASSIGNMENT((#1474,#1480));
#1474 = SURFACE_STYLE_USAGE(.BOTH.,#1475);
#1475 = SURFACE_SIDE_STYLE('',(#1476));
#1476 = SURFACE_STYLE_FILL_AREA(#1477);
#1477 = FILL_AREA_STYLE('',(#1478));
#1478 = FILL_AREA_STYLE_COLOUR('',#1479);
#1479 = COLOUR_RGB('',0.678431390124,0.709803936702,0.741176476869);
#1480 = CURVE_STYLE('',#1481,POSITIVE_LENGTH_MEASURE(0.1),#1482);
#1481 = DRAUGHTING_PRE_DEFINED_CURVE_FONT('continuous');
#1482 = COLOUR_RGB('',9.803921802644E-02,9.803921802644E-02,
  9.803921802644E-02);
ENDSEC;
END-ISO-10303-21;
