ISO-10303-21;
HEADER;
FILE_DESCRIPTION(('FreeCAD Model'),'2;1');
FILE_NAME('Open CASCADE Shape Model','2026-05-07T10:02:13',(''),(''),
  'Open CASCADE STEP processor 7.8','FreeCAD','Unknown');
FILE_SCHEMA(('AUTOMOTIVE_DESIGN { 1 0 10303 214 1 1 1 1 }'));
ENDSEC;
DATA;
#1 = APPLICATION_PROTOCOL_DEFINITION('international standard',
  'automotive_design',2000,#2);
#2 = APPLICATION_CONTEXT(
  'core data for automotive mechanical design processes');
#3 = SHAPE_DEFINITION_REPRESENTATION(#4,#10);
#4 = PRODUCT_DEFINITION_SHAPE('','',#5);
#5 = PRODUCT_DEFINITION('design','',#6,#9);
#6 = PRODUCT_DEFINITION_FORMATION('','',#7);
#7 = PRODUCT('Body001','Body001','',(#8));
#8 = PRODUCT_CONTEXT('',#2,'mechanical');
#9 = PRODUCT_DEFINITION_CONTEXT('part definition',#2,'design');
#10 = ADVANCED_BREP_SHAPE_REPRESENTATION('',(#11,#15),#1123);
#11 = AXIS2_PLACEMENT_3D('',#12,#13,#14);
#12 = CARTESIAN_POINT('',(0.,0.,0.));
#13 = DIRECTION('',(0.,0.,1.));
#14 = DIRECTION('',(1.,0.,-0.));
#15 = MANIFOLD_SOLID_BREP('',#16);
#16 = CLOSED_SHELL('',(#17,#89,#143,#174,#311,#342,#366,#526,#543,#567,
    #598,#622,#657,#681,#698,#722,#753,#775,#792,#825,#837,#859,#876,
    #898,#915,#932,#956,#973,#989,#1005,#1027,#1039,#1056,#1067,#1083,
    #1095,#1109));
#17 = ADVANCED_FACE('',(#18),#84,.T.);
#18 = FACE_BOUND('',#19,.T.);
#19 = EDGE_LOOP('',(#20,#30,#38,#46,#54,#62,#70,#78));
#20 = ORIENTED_EDGE('',*,*,#21,.F.);
#21 = EDGE_CURVE('',#22,#24,#26,.T.);
#22 = VERTEX_POINT('',#23);
#23 = CARTESIAN_POINT('',(-15.2,-9.5,8.5));
#24 = VERTEX_POINT('',#25);
#25 = CARTESIAN_POINT('',(-16.,-9.5,8.5));
#26 = LINE('',#27,#28);
#27 = CARTESIAN_POINT('',(-7.5,-9.5,8.5));
#28 = VECTOR('',#29,1.);
#29 = DIRECTION('',(-1.,0.,0.));
#30 = ORIENTED_EDGE('',*,*,#31,.T.);
#31 = EDGE_CURVE('',#22,#32,#34,.T.);
#32 = VERTEX_POINT('',#33);
#33 = CARTESIAN_POINT('',(-15.2,2.,8.5));
#34 = LINE('',#35,#36);
#35 = CARTESIAN_POINT('',(-15.2,-6.625,8.5));
#36 = VECTOR('',#37,1.);
#37 = DIRECTION('',(0.,1.,0.));
#38 = ORIENTED_EDGE('',*,*,#39,.F.);
#39 = EDGE_CURVE('',#40,#32,#42,.T.);
#40 = VERTEX_POINT('',#41);
#41 = CARTESIAN_POINT('',(15.2,2.,8.5));
#42 = LINE('',#43,#44);
#43 = CARTESIAN_POINT('',(-15.,2.,8.5));
#44 = VECTOR('',#45,1.);
#45 = DIRECTION('',(-1.,0.,0.));
#46 = ORIENTED_EDGE('',*,*,#47,.F.);
#47 = EDGE_CURVE('',#48,#40,#50,.T.);
#48 = VERTEX_POINT('',#49);
#49 = CARTESIAN_POINT('',(15.2,-9.5,8.5));
#50 = LINE('',#51,#52);
#51 = CARTESIAN_POINT('',(15.2,-6.625,8.5));
#52 = VECTOR('',#53,1.);
#53 = DIRECTION('',(0.,1.,0.));
#54 = ORIENTED_EDGE('',*,*,#55,.T.);
#55 = EDGE_CURVE('',#48,#56,#58,.T.);
#56 = VERTEX_POINT('',#57);
#57 = CARTESIAN_POINT('',(16.,-9.5,8.5));
#58 = LINE('',#59,#60);
#59 = CARTESIAN_POINT('',(7.5,-9.5,8.5));
#60 = VECTOR('',#61,1.);
#61 = DIRECTION('',(1.,0.,0.));
#62 = ORIENTED_EDGE('',*,*,#63,.F.);
#63 = EDGE_CURVE('',#64,#56,#66,.T.);
#64 = VERTEX_POINT('',#65);
#65 = CARTESIAN_POINT('',(16.,4.,8.5));
#66 = LINE('',#67,#68);
#67 = CARTESIAN_POINT('',(16.,4.,8.5));
#68 = VECTOR('',#69,1.);
#69 = DIRECTION('',(0.,-1.,0.));
#70 = ORIENTED_EDGE('',*,*,#71,.F.);
#71 = EDGE_CURVE('',#72,#64,#74,.T.);
#72 = VERTEX_POINT('',#73);
#73 = CARTESIAN_POINT('',(-16.,4.,8.5));
#74 = LINE('',#75,#76);
#75 = CARTESIAN_POINT('',(-8.5,4.,8.5));
#76 = VECTOR('',#77,1.);
#77 = DIRECTION('',(1.,0.,0.));
#78 = ORIENTED_EDGE('',*,*,#79,.F.);
#79 = EDGE_CURVE('',#24,#72,#80,.T.);
#80 = LINE('',#81,#82);
#81 = CARTESIAN_POINT('',(-16.,-9.5,8.5));
#82 = VECTOR('',#83,1.);
#83 = DIRECTION('',(0.,1.,0.));
#84 = PLANE('',#85);
#85 = AXIS2_PLACEMENT_3D('',#86,#87,#88);
#86 = CARTESIAN_POINT('',(0.,-3.75,8.5));
#87 = DIRECTION('',(0.,0.,1.));
#88 = DIRECTION('',(1.,0.,0.));
#89 = ADVANCED_FACE('',(#90),#138,.T.);
#90 = FACE_BOUND('',#91,.T.);
#91 = EDGE_LOOP('',(#92,#100,#101,#109,#117,#123,#124,#132));
#92 = ORIENTED_EDGE('',*,*,#93,.F.);
#93 = EDGE_CURVE('',#56,#94,#96,.T.);
#94 = VERTEX_POINT('',#95);
#95 = CARTESIAN_POINT('',(16.,-9.5,-19.6));
#96 = LINE('',#97,#98);
#97 = CARTESIAN_POINT('',(16.,-9.5,8.5));
#98 = VECTOR('',#99,1.);
#99 = DIRECTION('',(-0.,-0.,-1.));
#100 = ORIENTED_EDGE('',*,*,#55,.F.);
#101 = ORIENTED_EDGE('',*,*,#102,.F.);
#102 = EDGE_CURVE('',#103,#48,#105,.T.);
#103 = VERTEX_POINT('',#104);
#104 = CARTESIAN_POINT('',(15.2,-9.5,-18.6));
#105 = LINE('',#106,#107);
#106 = CARTESIAN_POINT('',(15.2,-9.5,-18.6));
#107 = VECTOR('',#108,1.);
#108 = DIRECTION('',(0.,0.,1.));
#109 = ORIENTED_EDGE('',*,*,#110,.F.);
#110 = EDGE_CURVE('',#111,#103,#113,.T.);
#111 = VERTEX_POINT('',#112);
#112 = CARTESIAN_POINT('',(-15.2,-9.5,-18.6));
#113 = LINE('',#114,#115);
#114 = CARTESIAN_POINT('',(15.,-9.5,-18.6));
#115 = VECTOR('',#116,1.);
#116 = DIRECTION('',(1.,0.,0.));
#117 = ORIENTED_EDGE('',*,*,#118,.T.);
#118 = EDGE_CURVE('',#111,#22,#119,.T.);
#119 = LINE('',#120,#121);
#120 = CARTESIAN_POINT('',(-15.2,-9.5,-18.6));
#121 = VECTOR('',#122,1.);
#122 = DIRECTION('',(0.,0.,1.));
#123 = ORIENTED_EDGE('',*,*,#21,.T.);
#124 = ORIENTED_EDGE('',*,*,#125,.F.);
#125 = EDGE_CURVE('',#126,#24,#128,.T.);
#126 = VERTEX_POINT('',#127);
#127 = CARTESIAN_POINT('',(-16.,-9.5,-19.6));
#128 = LINE('',#129,#130);
#129 = CARTESIAN_POINT('',(-16.,-9.5,-20.6));
#130 = VECTOR('',#131,1.);
#131 = DIRECTION('',(0.,0.,1.));
#132 = ORIENTED_EDGE('',*,*,#133,.F.);
#133 = EDGE_CURVE('',#94,#126,#134,.T.);
#134 = LINE('',#135,#136);
#135 = CARTESIAN_POINT('',(17.,-9.5,-19.6));
#136 = VECTOR('',#137,1.);
#137 = DIRECTION('',(-1.,0.,0.));
#138 = PLANE('',#139);
#139 = AXIS2_PLACEMENT_3D('',#140,#141,#142);
#140 = CARTESIAN_POINT('',(0.,-9.5,-10.25620842572));
#141 = DIRECTION('',(-0.,-1.,-0.));
#142 = DIRECTION('',(0.,0.,-1.));
#143 = ADVANCED_FACE('',(#144),#169,.T.);
#144 = FACE_BOUND('',#145,.T.);
#145 = EDGE_LOOP('',(#146,#154,#155,#163));
#146 = ORIENTED_EDGE('',*,*,#147,.F.);
#147 = EDGE_CURVE('',#24,#148,#150,.T.);
#148 = VERTEX_POINT('',#149);
#149 = CARTESIAN_POINT('',(-17.,-8.5,7.5));
#150 = LINE('',#151,#152);
#151 = CARTESIAN_POINT('',(-21.18333333333,-4.316666666667,
    3.316666666667));
#152 = VECTOR('',#153,1.);
#153 = DIRECTION('',(-0.57735026919,0.57735026919,-0.57735026919));
#154 = ORIENTED_EDGE('',*,*,#79,.T.);
#155 = ORIENTED_EDGE('',*,*,#156,.F.);
#156 = EDGE_CURVE('',#157,#72,#159,.T.);
#157 = VERTEX_POINT('',#158);
#158 = CARTESIAN_POINT('',(-17.,3.,7.5));
#159 = LINE('',#160,#161);
#160 = CARTESIAN_POINT('',(-23.43333333333,-3.433333333333,
    1.066666666667));
#161 = VECTOR('',#162,1.);
#162 = DIRECTION('',(0.57735026919,0.57735026919,0.57735026919));
#163 = ORIENTED_EDGE('',*,*,#164,.F.);
#164 = EDGE_CURVE('',#148,#157,#165,.T.);
#165 = LINE('',#166,#167);
#166 = CARTESIAN_POINT('',(-17.,-9.5,7.5));
#167 = VECTOR('',#168,1.);
#168 = DIRECTION('',(0.,1.,0.));
#169 = PLANE('',#170);
#170 = AXIS2_PLACEMENT_3D('',#171,#172,#173);
#171 = CARTESIAN_POINT('',(-16.5,-9.5,8.));
#172 = DIRECTION('',(-0.707106781187,-1.E-17,0.707106781187));
#173 = DIRECTION('',(-7.071067811865E-18,1.,7.071067811865E-18));
#174 = ADVANCED_FACE('',(#175,#200,#234,#270),#306,.T.);
#175 = FACE_BOUND('',#176,.T.);
#176 = EDGE_LOOP('',(#177,#178,#186,#194));
#177 = ORIENTED_EDGE('',*,*,#71,.T.);
#178 = ORIENTED_EDGE('',*,*,#179,.F.);
#179 = EDGE_CURVE('',#180,#64,#182,.T.);
#180 = VERTEX_POINT('',#181);
#181 = CARTESIAN_POINT('',(16.,4.,-19.6));
#182 = LINE('',#183,#184);
#183 = CARTESIAN_POINT('',(16.,4.,-20.6));
#184 = VECTOR('',#185,1.);
#185 = DIRECTION('',(0.,0.,1.));
#186 = ORIENTED_EDGE('',*,*,#187,.F.);
#187 = EDGE_CURVE('',#188,#180,#190,.T.);
#188 = VERTEX_POINT('',#189);
#189 = CARTESIAN_POINT('',(-16.,4.,-19.6));
#190 = LINE('',#191,#192);
#191 = CARTESIAN_POINT('',(-17.,4.,-19.6));
#192 = VECTOR('',#193,1.);
#193 = DIRECTION('',(1.,0.,0.));
#194 = ORIENTED_EDGE('',*,*,#195,.T.);
#195 = EDGE_CURVE('',#188,#72,#196,.T.);
#196 = LINE('',#197,#198);
#197 = CARTESIAN_POINT('',(-16.,4.,-20.6));
#198 = VECTOR('',#199,1.);
#199 = DIRECTION('',(0.,0.,1.));
#200 = FACE_BOUND('',#201,.T.);
#201 = EDGE_LOOP('',(#202,#212,#220,#228));
#202 = ORIENTED_EDGE('',*,*,#203,.F.);
#203 = EDGE_CURVE('',#204,#206,#208,.T.);
#204 = VERTEX_POINT('',#205);
#205 = CARTESIAN_POINT('',(-2.6338554,4.,-7.656096));
#206 = VERTEX_POINT('',#207);
#207 = CARTESIAN_POINT('',(0.3836827,4.,-7.656096));
#208 = LINE('',#209,#210);
#209 = CARTESIAN_POINT('',(0.3661446,4.,-7.656096));
#210 = VECTOR('',#211,1.);
#211 = DIRECTION('',(1.,0.,0.));
#212 = ORIENTED_EDGE('',*,*,#213,.F.);
#213 = EDGE_CURVE('',#214,#204,#216,.T.);
#214 = VERTEX_POINT('',#215);
#215 = CARTESIAN_POINT('',(-2.6338554,4.,-18.565646));
#216 = LINE('',#217,#218);
#217 = CARTESIAN_POINT('',(-2.6338554,4.,-18.565646));
#218 = VECTOR('',#219,1.);
#219 = DIRECTION('',(0.,0.,1.));
#220 = ORIENTED_EDGE('',*,*,#221,.F.);
#221 = EDGE_CURVE('',#222,#214,#224,.T.);
#222 = VERTEX_POINT('',#223);
#223 = CARTESIAN_POINT('',(0.3836827,4.,-18.565646));
#224 = LINE('',#225,#226);
#225 = CARTESIAN_POINT('',(0.3661446,4.,-18.565646));
#226 = VECTOR('',#227,1.);
#227 = DIRECTION('',(-1.,0.,0.));
#228 = ORIENTED_EDGE('',*,*,#229,.F.);
#229 = EDGE_CURVE('',#206,#222,#230,.T.);
#230 = LINE('',#231,#232);
#231 = CARTESIAN_POINT('',(0.3836827,4.,-13.128048));
#232 = VECTOR('',#233,1.);
#233 = DIRECTION('',(0.,-2.2E-16,-1.));
#234 = FACE_BOUND('',#235,.T.);
#235 = EDGE_LOOP('',(#236,#247,#256,#264));
#236 = ORIENTED_EDGE('',*,*,#237,.F.);
#237 = EDGE_CURVE('',#238,#240,#242,.T.);
#238 = VERTEX_POINT('',#239);
#239 = CARTESIAN_POINT('',(-13.09999990463,4.,-5.05));
#240 = VERTEX_POINT('',#241);
#241 = CARTESIAN_POINT('',(-12.54137140417,4.,-3.882173086519));
#242 = CIRCLE('',#243,1.5);
#243 = AXIS2_PLACEMENT_3D('',#244,#245,#246);
#244 = CARTESIAN_POINT('',(-11.59999990463,4.,-5.05));
#245 = DIRECTION('',(0.,1.,-0.));
#246 = DIRECTION('',(-1.,0.,0.));
#247 = ORIENTED_EDGE('',*,*,#248,.F.);
#248 = EDGE_CURVE('',#249,#238,#251,.T.);
#249 = VERTEX_POINT('',#250);
#250 = CARTESIAN_POINT('',(-10.65862840509,4.,-3.882173086519));
#251 = CIRCLE('',#252,1.5);
#252 = AXIS2_PLACEMENT_3D('',#253,#254,#255);
#253 = CARTESIAN_POINT('',(-11.59999990463,4.,-5.05));
#254 = DIRECTION('',(0.,1.,-0.));
#255 = DIRECTION('',(-1.,0.,0.));
#256 = ORIENTED_EDGE('',*,*,#257,.T.);
#257 = EDGE_CURVE('',#249,#258,#260,.T.);
#258 = VERTEX_POINT('',#259);
#259 = CARTESIAN_POINT('',(-11.59999990463,4.,-3.05));
#260 = LINE('',#261,#262);
#261 = CARTESIAN_POINT('',(-10.65862840509,4.,-3.882173086519));
#262 = VECTOR('',#263,1.);
#263 = DIRECTION('',(-0.749225057969,0.,0.662315493183));
#264 = ORIENTED_EDGE('',*,*,#265,.T.);
#265 = EDGE_CURVE('',#258,#240,#266,.T.);
#266 = LINE('',#267,#268);
#267 = CARTESIAN_POINT('',(-11.59999990463,4.,-3.05));
#268 = VECTOR('',#269,1.);
#269 = DIRECTION('',(-0.749225057969,0.,-0.662315493183));
#270 = FACE_BOUND('',#271,.T.);
#271 = EDGE_LOOP('',(#272,#283,#292,#300));
#272 = ORIENTED_EDGE('',*,*,#273,.F.);
#273 = EDGE_CURVE('',#274,#276,#278,.T.);
#274 = VERTEX_POINT('',#275);
#275 = CARTESIAN_POINT('',(10.1,4.,-5.05));
#276 = VERTEX_POINT('',#277);
#277 = CARTESIAN_POINT('',(10.658628500458,4.,-3.882173086519));
#278 = CIRCLE('',#279,1.5);
#279 = AXIS2_PLACEMENT_3D('',#280,#281,#282);
#280 = CARTESIAN_POINT('',(11.6,4.,-5.05));
#281 = DIRECTION('',(0.,1.,-0.));
#282 = DIRECTION('',(-1.,0.,0.));
#283 = ORIENTED_EDGE('',*,*,#284,.F.);
#284 = EDGE_CURVE('',#285,#274,#287,.T.);
#285 = VERTEX_POINT('',#286);
#286 = CARTESIAN_POINT('',(12.541371499542,4.,-3.882173086519));
#287 = CIRCLE('',#288,1.5);
#288 = AXIS2_PLACEMENT_3D('',#289,#290,#291);
#289 = CARTESIAN_POINT('',(11.6,4.,-5.05));
#290 = DIRECTION('',(0.,1.,-0.));
#291 = DIRECTION('',(-1.,0.,0.));
#292 = ORIENTED_EDGE('',*,*,#293,.T.);
#293 = EDGE_CURVE('',#285,#294,#296,.T.);
#294 = VERTEX_POINT('',#295);
#295 = CARTESIAN_POINT('',(11.6,4.,-3.05));
#296 = LINE('',#297,#298);
#297 = CARTESIAN_POINT('',(12.541371499542,4.,-3.882173086519));
#298 = VECTOR('',#299,1.);
#299 = DIRECTION('',(-0.749225057969,0.,0.662315493183));
#300 = ORIENTED_EDGE('',*,*,#301,.F.);
#301 = EDGE_CURVE('',#276,#294,#302,.T.);
#302 = LINE('',#303,#304);
#303 = CARTESIAN_POINT('',(10.658628500458,4.,-3.882173086519));
#304 = VECTOR('',#305,1.);
#305 = DIRECTION('',(0.749225057969,0.,0.662315493183));
#306 = PLANE('',#307);
#307 = AXIS2_PLACEMENT_3D('',#308,#309,#310);
#308 = CARTESIAN_POINT('',(0.,4.,-6.05));
#309 = DIRECTION('',(0.,1.,0.));
#310 = DIRECTION('',(0.,0.,1.));
#311 = ADVANCED_FACE('',(#312),#337,.T.);
#312 = FACE_BOUND('',#313,.T.);
#313 = EDGE_LOOP('',(#314,#322,#323,#331));
#314 = ORIENTED_EDGE('',*,*,#315,.F.);
#315 = EDGE_CURVE('',#64,#316,#318,.T.);
#316 = VERTEX_POINT('',#317);
#317 = CARTESIAN_POINT('',(17.,3.,7.5));
#318 = LINE('',#319,#320);
#319 = CARTESIAN_POINT('',(21.183333333333,-1.183333333333,
    3.316666666667));
#320 = VECTOR('',#321,1.);
#321 = DIRECTION('',(0.57735026919,-0.57735026919,-0.57735026919));
#322 = ORIENTED_EDGE('',*,*,#63,.T.);
#323 = ORIENTED_EDGE('',*,*,#324,.T.);
#324 = EDGE_CURVE('',#56,#325,#327,.T.);
#325 = VERTEX_POINT('',#326);
#326 = CARTESIAN_POINT('',(17.,-8.5,7.5));
#327 = LINE('',#328,#329);
#328 = CARTESIAN_POINT('',(18.583333333333,-6.916666666667,
    5.916666666667));
#329 = VECTOR('',#330,1.);
#330 = DIRECTION('',(0.57735026919,0.57735026919,-0.57735026919));
#331 = ORIENTED_EDGE('',*,*,#332,.F.);
#332 = EDGE_CURVE('',#316,#325,#333,.T.);
#333 = LINE('',#334,#335);
#334 = CARTESIAN_POINT('',(17.,4.,7.5));
#335 = VECTOR('',#336,1.);
#336 = DIRECTION('',(0.,-1.,0.));
#337 = PLANE('',#338);
#338 = AXIS2_PLACEMENT_3D('',#339,#340,#341);
#339 = CARTESIAN_POINT('',(16.5,4.,8.));
#340 = DIRECTION('',(0.707106781187,1.E-17,0.707106781187));
#341 = DIRECTION('',(7.071067811865E-18,-1.,7.071067811865E-18));
#342 = ADVANCED_FACE('',(#343),#361,.T.);
#343 = FACE_BOUND('',#344,.T.);
#344 = EDGE_LOOP('',(#345,#353,#354,#355));
#345 = ORIENTED_EDGE('',*,*,#346,.F.);
#346 = EDGE_CURVE('',#103,#347,#349,.T.);
#347 = VERTEX_POINT('',#348);
#348 = CARTESIAN_POINT('',(15.2,2.,-18.6));
#349 = LINE('',#350,#351);
#350 = CARTESIAN_POINT('',(15.2,-9.5,-18.6));
#351 = VECTOR('',#352,1.);
#352 = DIRECTION('',(0.,1.,0.));
#353 = ORIENTED_EDGE('',*,*,#102,.T.);
#354 = ORIENTED_EDGE('',*,*,#47,.T.);
#355 = ORIENTED_EDGE('',*,*,#356,.F.);
#356 = EDGE_CURVE('',#347,#40,#357,.T.);
#357 = LINE('',#358,#359);
#358 = CARTESIAN_POINT('',(15.2,2.,-18.6));
#359 = VECTOR('',#360,1.);
#360 = DIRECTION('',(0.,0.,1.));
#361 = PLANE('',#362);
#362 = AXIS2_PLACEMENT_3D('',#363,#364,#365);
#363 = CARTESIAN_POINT('',(15.2,-9.5,-18.6));
#364 = DIRECTION('',(-1.,0.,0.));
#365 = DIRECTION('',(0.,1.,0.));
#366 = ADVANCED_FACE('',(#367,#449,#485),#521,.T.);
#367 = FACE_BOUND('',#368,.T.);
#368 = EDGE_LOOP('',(#369,#370,#371,#379,#387,#395,#403,#411,#419,#427,
    #435,#443));
#369 = ORIENTED_EDGE('',*,*,#356,.T.);
#370 = ORIENTED_EDGE('',*,*,#39,.T.);
#371 = ORIENTED_EDGE('',*,*,#372,.F.);
#372 = EDGE_CURVE('',#373,#32,#375,.T.);
#373 = VERTEX_POINT('',#374);
#374 = CARTESIAN_POINT('',(-15.2,2.,-18.6));
#375 = LINE('',#376,#377);
#376 = CARTESIAN_POINT('',(-15.2,2.,-18.6));
#377 = VECTOR('',#378,1.);
#378 = DIRECTION('',(0.,0.,1.));
#379 = ORIENTED_EDGE('',*,*,#380,.F.);
#380 = EDGE_CURVE('',#381,#373,#383,.T.);
#381 = VERTEX_POINT('',#382);
#382 = CARTESIAN_POINT('',(0.3836827,2.,-18.6));
#383 = LINE('',#384,#385);
#384 = CARTESIAN_POINT('',(-15.,2.,-18.6));
#385 = VECTOR('',#386,1.);
#386 = DIRECTION('',(-1.,0.,0.));
#387 = ORIENTED_EDGE('',*,*,#388,.F.);
#388 = EDGE_CURVE('',#389,#381,#391,.T.);
#389 = VERTEX_POINT('',#390);
#390 = CARTESIAN_POINT('',(0.3836827,2.,-18.565646));
#391 = LINE('',#392,#393);
#392 = CARTESIAN_POINT('',(0.3836827,2.,-18.6));
#393 = VECTOR('',#394,1.);
#394 = DIRECTION('',(0.,0.,-1.));
#395 = ORIENTED_EDGE('',*,*,#396,.F.);
#396 = EDGE_CURVE('',#397,#389,#399,.T.);
#397 = VERTEX_POINT('',#398);
#398 = CARTESIAN_POINT('',(-2.6338554,2.,-18.565646));
#399 = LINE('',#400,#401);
#400 = CARTESIAN_POINT('',(0.3661446,2.,-18.565646));
#401 = VECTOR('',#402,1.);
#402 = DIRECTION('',(1.,0.,0.));
#403 = ORIENTED_EDGE('',*,*,#404,.T.);
#404 = EDGE_CURVE('',#397,#405,#407,.T.);
#405 = VERTEX_POINT('',#406);
#406 = CARTESIAN_POINT('',(-2.6338554,2.,-7.656096));
#407 = LINE('',#408,#409);
#408 = CARTESIAN_POINT('',(-2.6338554,2.,-18.582823));
#409 = VECTOR('',#410,1.);
#410 = DIRECTION('',(0.,0.,1.));
#411 = ORIENTED_EDGE('',*,*,#412,.T.);
#412 = EDGE_CURVE('',#405,#413,#415,.T.);
#413 = VERTEX_POINT('',#414);
#414 = CARTESIAN_POINT('',(0.3836827,2.,-7.656096));
#415 = LINE('',#416,#417);
#416 = CARTESIAN_POINT('',(-8.8169277,2.,-7.656096));
#417 = VECTOR('',#418,1.);
#418 = DIRECTION('',(1.,0.,0.));
#419 = ORIENTED_EDGE('',*,*,#420,.T.);
#420 = EDGE_CURVE('',#413,#421,#423,.T.);
#421 = VERTEX_POINT('',#422);
#422 = CARTESIAN_POINT('',(0.3836827,2.,-8.6));
#423 = LINE('',#424,#425);
#424 = CARTESIAN_POINT('',(0.3836827,2.,-13.128048));
#425 = VECTOR('',#426,1.);
#426 = DIRECTION('',(0.,0.,-1.));
#427 = ORIENTED_EDGE('',*,*,#428,.T.);
#428 = EDGE_CURVE('',#421,#429,#431,.T.);
#429 = VERTEX_POINT('',#430);
#430 = CARTESIAN_POINT('',(3.25,2.,-8.6));
#431 = LINE('',#432,#433);
#432 = CARTESIAN_POINT('',(-6.61412465,2.,-8.6));
#433 = VECTOR('',#434,1.);
#434 = DIRECTION('',(1.,0.,0.));
#435 = ORIENTED_EDGE('',*,*,#436,.T.);
#436 = EDGE_CURVE('',#429,#437,#439,.T.);
#437 = VERTEX_POINT('',#438);
#438 = CARTESIAN_POINT('',(3.25,2.,-18.6));
#439 = LINE('',#440,#441);
#440 = CARTESIAN_POINT('',(3.25,2.,-9.3));
#441 = VECTOR('',#442,1.);
#442 = DIRECTION('',(-0.,-0.,-1.));
#443 = ORIENTED_EDGE('',*,*,#444,.T.);
#444 = EDGE_CURVE('',#437,#347,#445,.T.);
#445 = LINE('',#446,#447);
#446 = CARTESIAN_POINT('',(-15.,2.,-18.6));
#447 = VECTOR('',#448,1.);
#448 = DIRECTION('',(1.,0.,0.));
#449 = FACE_BOUND('',#450,.T.);
#450 = EDGE_LOOP('',(#451,#462,#471,#479));
#451 = ORIENTED_EDGE('',*,*,#452,.T.);
#452 = EDGE_CURVE('',#453,#455,#457,.T.);
#453 = VERTEX_POINT('',#454);
#454 = CARTESIAN_POINT('',(-10.65862840509,2.,-3.882173086519));
#455 = VERTEX_POINT('',#456);
#456 = CARTESIAN_POINT('',(-13.09999990463,2.,-5.05));
#457 = CIRCLE('',#458,1.5);
#458 = AXIS2_PLACEMENT_3D('',#459,#460,#461);
#459 = CARTESIAN_POINT('',(-11.59999990463,2.,-5.05));
#460 = DIRECTION('',(0.,1.,-2.2E-16));
#461 = DIRECTION('',(-1.,0.,0.));
#462 = ORIENTED_EDGE('',*,*,#463,.T.);
#463 = EDGE_CURVE('',#455,#464,#466,.T.);
#464 = VERTEX_POINT('',#465);
#465 = CARTESIAN_POINT('',(-12.54137140417,2.,-3.882173086519));
#466 = CIRCLE('',#467,1.5);
#467 = AXIS2_PLACEMENT_3D('',#468,#469,#470);
#468 = CARTESIAN_POINT('',(-11.59999990463,2.,-5.05));
#469 = DIRECTION('',(0.,1.,-2.2E-16));
#470 = DIRECTION('',(-1.,0.,0.));
#471 = ORIENTED_EDGE('',*,*,#472,.T.);
#472 = EDGE_CURVE('',#464,#473,#475,.T.);
#473 = VERTEX_POINT('',#474);
#474 = CARTESIAN_POINT('',(-11.59999990463,2.,-3.05));
#475 = LINE('',#476,#477);
#476 = CARTESIAN_POINT('',(-9.187297231917,2.,-0.917169092135));
#477 = VECTOR('',#478,1.);
#478 = DIRECTION('',(0.749225057969,0.,0.662315493183));
#479 = ORIENTED_EDGE('',*,*,#480,.T.);
#480 = EDGE_CURVE('',#473,#453,#481,.T.);
#481 = LINE('',#482,#483);
#482 = CARTESIAN_POINT('',(-7.040897298993,2.,-7.08025000113));
#483 = VECTOR('',#484,1.);
#484 = DIRECTION('',(0.749225057969,0.,-0.662315493183));
#485 = FACE_BOUND('',#486,.T.);
#486 = EDGE_LOOP('',(#487,#498,#507,#515));
#487 = ORIENTED_EDGE('',*,*,#488,.T.);
#488 = EDGE_CURVE('',#489,#491,#493,.T.);
#489 = VERTEX_POINT('',#490);
#490 = CARTESIAN_POINT('',(12.541371499542,2.,-3.882173086519));
#491 = VERTEX_POINT('',#492);
#492 = CARTESIAN_POINT('',(10.1,2.,-5.05));
#493 = CIRCLE('',#494,1.5);
#494 = AXIS2_PLACEMENT_3D('',#495,#496,#497);
#495 = CARTESIAN_POINT('',(11.6,2.,-5.05));
#496 = DIRECTION('',(0.,1.,-2.2E-16));
#497 = DIRECTION('',(-1.,0.,0.));
#498 = ORIENTED_EDGE('',*,*,#499,.T.);
#499 = EDGE_CURVE('',#491,#500,#502,.T.);
#500 = VERTEX_POINT('',#501);
#501 = CARTESIAN_POINT('',(10.658628500458,2.,-3.882173086519));
#502 = CIRCLE('',#503,1.5);
#503 = AXIS2_PLACEMENT_3D('',#504,#505,#506);
#504 = CARTESIAN_POINT('',(11.6,2.,-5.05));
#505 = DIRECTION('',(0.,1.,-2.2E-16));
#506 = DIRECTION('',(-1.,0.,0.));
#507 = ORIENTED_EDGE('',*,*,#508,.F.);
#508 = EDGE_CURVE('',#509,#500,#511,.T.);
#509 = VERTEX_POINT('',#510);
#510 = CARTESIAN_POINT('',(11.6,2.,-3.05));
#511 = LINE('',#512,#513);
#512 = CARTESIAN_POINT('',(7.030493974836,2.,-7.089446631515));
#513 = VECTOR('',#514,1.);
#514 = DIRECTION('',(-0.749225057969,0.,-0.662315493183));
#515 = ORIENTED_EDGE('',*,*,#516,.T.);
#516 = EDGE_CURVE('',#509,#489,#517,.T.);
#517 = LINE('',#518,#519);
#518 = CARTESIAN_POINT('',(9.647579657531,2.,-1.324059005009));
#519 = VECTOR('',#520,1.);
#520 = DIRECTION('',(0.749225057969,0.,-0.662315493183));
#521 = PLANE('',#522);
#522 = AXIS2_PLACEMENT_3D('',#523,#524,#525);
#523 = CARTESIAN_POINT('',(-1.853319975307E-02,2.,-6.426935278515));
#524 = DIRECTION('',(-0.,-1.,-0.));
#525 = DIRECTION('',(0.,0.,-1.));
#526 = ADVANCED_FACE('',(#527),#538,.F.);
#527 = FACE_BOUND('',#528,.F.);
#528 = EDGE_LOOP('',(#529,#535,#536,#537));
#529 = ORIENTED_EDGE('',*,*,#530,.F.);
#530 = EDGE_CURVE('',#111,#373,#531,.T.);
#531 = LINE('',#532,#533);
#532 = CARTESIAN_POINT('',(-15.2,-9.5,-18.6));
#533 = VECTOR('',#534,1.);
#534 = DIRECTION('',(0.,1.,0.));
#535 = ORIENTED_EDGE('',*,*,#118,.T.);
#536 = ORIENTED_EDGE('',*,*,#31,.T.);
#537 = ORIENTED_EDGE('',*,*,#372,.F.);
#538 = PLANE('',#539);
#539 = AXIS2_PLACEMENT_3D('',#540,#541,#542);
#540 = CARTESIAN_POINT('',(-15.2,-9.5,-18.6));
#541 = DIRECTION('',(-1.,0.,0.));
#542 = DIRECTION('',(0.,1.,0.));
#543 = ADVANCED_FACE('',(#544),#562,.T.);
#544 = FACE_BOUND('',#545,.T.);
#545 = EDGE_LOOP('',(#546,#547,#548,#556));
#546 = ORIENTED_EDGE('',*,*,#324,.F.);
#547 = ORIENTED_EDGE('',*,*,#93,.T.);
#548 = ORIENTED_EDGE('',*,*,#549,.F.);
#549 = EDGE_CURVE('',#550,#94,#552,.T.);
#550 = VERTEX_POINT('',#551);
#551 = CARTESIAN_POINT('',(17.,-8.5,-19.6));
#552 = LINE('',#553,#554);
#553 = CARTESIAN_POINT('',(16.75,-8.75,-19.6));
#554 = VECTOR('',#555,1.);
#555 = DIRECTION('',(-0.707106781187,-0.707106781187,4.99E-15));
#556 = ORIENTED_EDGE('',*,*,#557,.F.);
#557 = EDGE_CURVE('',#325,#550,#558,.T.);
#558 = LINE('',#559,#560);
#559 = CARTESIAN_POINT('',(17.,-8.5,8.5));
#560 = VECTOR('',#561,1.);
#561 = DIRECTION('',(-0.,-0.,-1.));
#562 = PLANE('',#563);
#563 = AXIS2_PLACEMENT_3D('',#564,#565,#566);
#564 = CARTESIAN_POINT('',(16.5,-9.,8.5));
#565 = DIRECTION('',(0.707106781187,-0.707106781187,-1.E-17));
#566 = DIRECTION('',(-7.071067811865E-18,7.071067811865E-18,-1.));
#567 = ADVANCED_FACE('',(#568),#593,.T.);
#568 = FACE_BOUND('',#569,.T.);
#569 = EDGE_LOOP('',(#570,#571,#579,#587));
#570 = ORIENTED_EDGE('',*,*,#133,.T.);
#571 = ORIENTED_EDGE('',*,*,#572,.T.);
#572 = EDGE_CURVE('',#126,#573,#575,.T.);
#573 = VERTEX_POINT('',#574);
#574 = CARTESIAN_POINT('',(-16.,-8.5,-20.6));
#575 = LINE('',#576,#577);
#576 = CARTESIAN_POINT('',(-16.,-9.25,-19.85));
#577 = VECTOR('',#578,1.);
#578 = DIRECTION('',(3.E-17,0.707106781187,-0.707106781187));
#579 = ORIENTED_EDGE('',*,*,#580,.F.);
#580 = EDGE_CURVE('',#581,#573,#583,.T.);
#581 = VERTEX_POINT('',#582);
#582 = CARTESIAN_POINT('',(16.,-8.5,-20.6));
#583 = LINE('',#584,#585);
#584 = CARTESIAN_POINT('',(17.,-8.5,-20.6));
#585 = VECTOR('',#586,1.);
#586 = DIRECTION('',(-1.,0.,0.));
#587 = ORIENTED_EDGE('',*,*,#588,.T.);
#588 = EDGE_CURVE('',#581,#94,#589,.T.);
#589 = LINE('',#590,#591);
#590 = CARTESIAN_POINT('',(16.,-9.,-20.1));
#591 = VECTOR('',#592,1.);
#592 = DIRECTION('',(-2.47E-15,-0.707106781187,0.707106781187));
#593 = PLANE('',#594);
#594 = AXIS2_PLACEMENT_3D('',#595,#596,#597);
#595 = CARTESIAN_POINT('',(17.,-9.,-20.1));
#596 = DIRECTION('',(1.E-17,-0.707106781187,-0.707106781187));
#597 = DIRECTION('',(-1.,-7.071067811865E-18,-7.071067811865E-18));
#598 = ADVANCED_FACE('',(#599),#617,.T.);
#599 = FACE_BOUND('',#600,.T.);
#600 = EDGE_LOOP('',(#601,#609,#610,#611));
#601 = ORIENTED_EDGE('',*,*,#602,.F.);
#602 = EDGE_CURVE('',#126,#603,#605,.T.);
#603 = VERTEX_POINT('',#604);
#604 = CARTESIAN_POINT('',(-17.,-8.5,-19.6));
#605 = LINE('',#606,#607);
#606 = CARTESIAN_POINT('',(-16.25,-9.25,-19.6));
#607 = VECTOR('',#608,1.);
#608 = DIRECTION('',(-0.707106781187,0.707106781187,-3.E-17));
#609 = ORIENTED_EDGE('',*,*,#125,.T.);
#610 = ORIENTED_EDGE('',*,*,#147,.T.);
#611 = ORIENTED_EDGE('',*,*,#612,.F.);
#612 = EDGE_CURVE('',#603,#148,#613,.T.);
#613 = LINE('',#614,#615);
#614 = CARTESIAN_POINT('',(-17.,-8.5,-20.6));
#615 = VECTOR('',#616,1.);
#616 = DIRECTION('',(0.,0.,1.));
#617 = PLANE('',#618);
#618 = AXIS2_PLACEMENT_3D('',#619,#620,#621);
#619 = CARTESIAN_POINT('',(-16.5,-9.,-20.6));
#620 = DIRECTION('',(-0.707106781187,-0.707106781187,-1.E-17));
#621 = DIRECTION('',(-7.071067811865E-18,-7.071067811865E-18,1.));
#622 = ADVANCED_FACE('',(#623),#652,.T.);
#623 = FACE_BOUND('',#624,.T.);
#624 = EDGE_LOOP('',(#625,#626,#627,#628,#636,#644,#650,#651));
#625 = ORIENTED_EDGE('',*,*,#110,.T.);
#626 = ORIENTED_EDGE('',*,*,#346,.T.);
#627 = ORIENTED_EDGE('',*,*,#444,.F.);
#628 = ORIENTED_EDGE('',*,*,#629,.T.);
#629 = EDGE_CURVE('',#437,#630,#632,.T.);
#630 = VERTEX_POINT('',#631);
#631 = CARTESIAN_POINT('',(3.25,-2.2840174,-18.6));
#632 = LINE('',#633,#634);
#633 = CARTESIAN_POINT('',(3.25,-4.8198597,-18.6));
#634 = VECTOR('',#635,1.);
#635 = DIRECTION('',(0.,-1.,0.));
#636 = ORIENTED_EDGE('',*,*,#637,.F.);
#637 = EDGE_CURVE('',#638,#630,#640,.T.);
#638 = VERTEX_POINT('',#639);
#639 = CARTESIAN_POINT('',(0.3836827,-2.2840174,-18.6));
#640 = LINE('',#641,#642);
#641 = CARTESIAN_POINT('',(3.1598187,-2.2840174,-18.6));
#642 = VECTOR('',#643,1.);
#643 = DIRECTION('',(1.,0.,0.));
#644 = ORIENTED_EDGE('',*,*,#645,.F.);
#645 = EDGE_CURVE('',#381,#638,#646,.T.);
#646 = LINE('',#647,#648);
#647 = CARTESIAN_POINT('',(0.3836827,2.2120466,-18.6));
#648 = VECTOR('',#649,1.);
#649 = DIRECTION('',(0.,-1.,0.));
#650 = ORIENTED_EDGE('',*,*,#380,.T.);
#651 = ORIENTED_EDGE('',*,*,#530,.F.);
#652 = PLANE('',#653);
#653 = AXIS2_PLACEMENT_3D('',#654,#655,#656);
#654 = CARTESIAN_POINT('',(0.168529729431,-3.548263091017,-18.6));
#655 = DIRECTION('',(0.,0.,1.));
#656 = DIRECTION('',(1.,0.,0.));
#657 = ADVANCED_FACE('',(#658),#676,.T.);
#658 = FACE_BOUND('',#659,.T.);
#659 = EDGE_LOOP('',(#660,#668,#674,#675));
#660 = ORIENTED_EDGE('',*,*,#661,.F.);
#661 = EDGE_CURVE('',#662,#157,#664,.T.);
#662 = VERTEX_POINT('',#663);
#663 = CARTESIAN_POINT('',(-17.,3.,-19.6));
#664 = LINE('',#665,#666);
#665 = CARTESIAN_POINT('',(-17.,3.,-20.6));
#666 = VECTOR('',#667,1.);
#667 = DIRECTION('',(0.,0.,1.));
#668 = ORIENTED_EDGE('',*,*,#669,.F.);
#669 = EDGE_CURVE('',#603,#662,#670,.T.);
#670 = LINE('',#671,#672);
#671 = CARTESIAN_POINT('',(-17.,-9.5,-19.6));
#672 = VECTOR('',#673,1.);
#673 = DIRECTION('',(0.,1.,0.));
#674 = ORIENTED_EDGE('',*,*,#612,.T.);
#675 = ORIENTED_EDGE('',*,*,#164,.T.);
#676 = PLANE('',#677);
#677 = AXIS2_PLACEMENT_3D('',#678,#679,#680);
#678 = CARTESIAN_POINT('',(-17.,-2.75,-6.05));
#679 = DIRECTION('',(-1.,-0.,-0.));
#680 = DIRECTION('',(0.,0.,-1.));
#681 = ADVANCED_FACE('',(#682),#693,.T.);
#682 = FACE_BOUND('',#683,.T.);
#683 = EDGE_LOOP('',(#684,#685,#686,#687));
#684 = ORIENTED_EDGE('',*,*,#661,.T.);
#685 = ORIENTED_EDGE('',*,*,#156,.T.);
#686 = ORIENTED_EDGE('',*,*,#195,.F.);
#687 = ORIENTED_EDGE('',*,*,#688,.F.);
#688 = EDGE_CURVE('',#662,#188,#689,.T.);
#689 = LINE('',#690,#691);
#690 = CARTESIAN_POINT('',(-16.5,3.5,-19.6));
#691 = VECTOR('',#692,1.);
#692 = DIRECTION('',(0.707106781187,0.707106781187,2.6E-16));
#693 = PLANE('',#694);
#694 = AXIS2_PLACEMENT_3D('',#695,#696,#697);
#695 = CARTESIAN_POINT('',(-16.5,3.5,-20.6));
#696 = DIRECTION('',(-0.707106781187,0.707106781187,-1.E-17));
#697 = DIRECTION('',(-7.071067811865E-18,7.071067811865E-18,1.));
#698 = ADVANCED_FACE('',(#699),#717,.T.);
#699 = FACE_BOUND('',#700,.T.);
#700 = EDGE_LOOP('',(#701,#709,#710,#711));
#701 = ORIENTED_EDGE('',*,*,#702,.T.);
#702 = EDGE_CURVE('',#703,#180,#705,.T.);
#703 = VERTEX_POINT('',#704);
#704 = CARTESIAN_POINT('',(17.,3.,-19.6));
#705 = LINE('',#706,#707);
#706 = CARTESIAN_POINT('',(16.75,3.25,-19.6));
#707 = VECTOR('',#708,1.);
#708 = DIRECTION('',(-0.707106781187,0.707106781187,5.9E-16));
#709 = ORIENTED_EDGE('',*,*,#179,.T.);
#710 = ORIENTED_EDGE('',*,*,#315,.T.);
#711 = ORIENTED_EDGE('',*,*,#712,.F.);
#712 = EDGE_CURVE('',#703,#316,#713,.T.);
#713 = LINE('',#714,#715);
#714 = CARTESIAN_POINT('',(17.,3.,-20.6));
#715 = VECTOR('',#716,1.);
#716 = DIRECTION('',(0.,0.,1.));
#717 = PLANE('',#718);
#718 = AXIS2_PLACEMENT_3D('',#719,#720,#721);
#719 = CARTESIAN_POINT('',(16.5,3.5,-20.6));
#720 = DIRECTION('',(0.707106781187,0.707106781187,1.E-17));
#721 = DIRECTION('',(-7.071067811865E-18,-7.071067811865E-18,1.));
#722 = ADVANCED_FACE('',(#723),#748,.T.);
#723 = FACE_BOUND('',#724,.T.);
#724 = EDGE_LOOP('',(#725,#733,#734,#742));
#725 = ORIENTED_EDGE('',*,*,#726,.T.);
#726 = EDGE_CURVE('',#727,#188,#729,.T.);
#727 = VERTEX_POINT('',#728);
#728 = CARTESIAN_POINT('',(-16.,3.,-20.6));
#729 = LINE('',#730,#731);
#730 = CARTESIAN_POINT('',(-16.,3.25,-20.35));
#731 = VECTOR('',#732,1.);
#732 = DIRECTION('',(3.E-16,0.707106781187,0.707106781187));
#733 = ORIENTED_EDGE('',*,*,#187,.T.);
#734 = ORIENTED_EDGE('',*,*,#735,.F.);
#735 = EDGE_CURVE('',#736,#180,#738,.T.);
#736 = VERTEX_POINT('',#737);
#737 = CARTESIAN_POINT('',(16.,3.,-20.6));
#738 = LINE('',#739,#740);
#739 = CARTESIAN_POINT('',(16.,3.5,-20.1));
#740 = VECTOR('',#741,1.);
#741 = DIRECTION('',(-5.3E-16,0.707106781187,0.707106781187));
#742 = ORIENTED_EDGE('',*,*,#743,.F.);
#743 = EDGE_CURVE('',#727,#736,#744,.T.);
#744 = LINE('',#745,#746);
#745 = CARTESIAN_POINT('',(-17.,3.,-20.6));
#746 = VECTOR('',#747,1.);
#747 = DIRECTION('',(1.,0.,0.));
#748 = PLANE('',#749);
#749 = AXIS2_PLACEMENT_3D('',#750,#751,#752);
#750 = CARTESIAN_POINT('',(-17.,3.5,-20.1));
#751 = DIRECTION('',(-1.E-17,0.707106781187,-0.707106781187));
#752 = DIRECTION('',(1.,7.071067811865E-18,-7.071067811865E-18));
#753 = ADVANCED_FACE('',(#754),#770,.T.);
#754 = FACE_BOUND('',#755,.T.);
#755 = EDGE_LOOP('',(#756,#757,#763,#764));
#756 = ORIENTED_EDGE('',*,*,#203,.T.);
#757 = ORIENTED_EDGE('',*,*,#758,.T.);
#758 = EDGE_CURVE('',#206,#413,#759,.T.);
#759 = LINE('',#760,#761);
#760 = CARTESIAN_POINT('',(0.3836827,3.1060233,-7.656096));
#761 = VECTOR('',#762,1.);
#762 = DIRECTION('',(0.,-1.,2.2E-16));
#763 = ORIENTED_EDGE('',*,*,#412,.F.);
#764 = ORIENTED_EDGE('',*,*,#765,.F.);
#765 = EDGE_CURVE('',#204,#405,#766,.T.);
#766 = LINE('',#767,#768);
#767 = CARTESIAN_POINT('',(-2.6338554,4.,-7.656096));
#768 = VECTOR('',#769,1.);
#769 = DIRECTION('',(0.,-1.,2.2E-16));
#770 = PLANE('',#771);
#771 = AXIS2_PLACEMENT_3D('',#772,#773,#774);
#772 = CARTESIAN_POINT('',(-1.12508635,3.,-7.656096));
#773 = DIRECTION('',(-0.,-0.,-1.));
#774 = DIRECTION('',(-1.,0.,0.));
#775 = ADVANCED_FACE('',(#776),#787,.F.);
#776 = FACE_BOUND('',#777,.F.);
#777 = EDGE_LOOP('',(#778,#779,#785,#786));
#778 = ORIENTED_EDGE('',*,*,#213,.F.);
#779 = ORIENTED_EDGE('',*,*,#780,.T.);
#780 = EDGE_CURVE('',#214,#397,#781,.T.);
#781 = LINE('',#782,#783);
#782 = CARTESIAN_POINT('',(-2.6338554,4.,-18.565646));
#783 = VECTOR('',#784,1.);
#784 = DIRECTION('',(0.,-1.,2.2E-16));
#785 = ORIENTED_EDGE('',*,*,#404,.T.);
#786 = ORIENTED_EDGE('',*,*,#765,.F.);
#787 = PLANE('',#788);
#788 = AXIS2_PLACEMENT_3D('',#789,#790,#791);
#789 = CARTESIAN_POINT('',(-2.6338554,4.,-18.565646));
#790 = DIRECTION('',(-1.,0.,0.));
#791 = DIRECTION('',(0.,2.2E-16,1.));
#792 = ADVANCED_FACE('',(#793),#820,.T.);
#793 = FACE_BOUND('',#794,.T.);
#794 = EDGE_LOOP('',(#795,#796,#804,#810,#811,#812,#813,#819));
#795 = ORIENTED_EDGE('',*,*,#645,.T.);
#796 = ORIENTED_EDGE('',*,*,#797,.T.);
#797 = EDGE_CURVE('',#638,#798,#800,.T.);
#798 = VERTEX_POINT('',#799);
#799 = CARTESIAN_POINT('',(0.3836827,-2.2840174,-8.6));
#800 = LINE('',#801,#802);
#801 = CARTESIAN_POINT('',(0.3836827,-2.2840174,-18.6));
#802 = VECTOR('',#803,1.);
#803 = DIRECTION('',(0.,0.,1.));
#804 = ORIENTED_EDGE('',*,*,#805,.F.);
#805 = EDGE_CURVE('',#421,#798,#806,.T.);
#806 = LINE('',#807,#808);
#807 = CARTESIAN_POINT('',(0.3836827,2.2120466,-8.6));
#808 = VECTOR('',#809,1.);
#809 = DIRECTION('',(0.,-1.,0.));
#810 = ORIENTED_EDGE('',*,*,#420,.F.);
#811 = ORIENTED_EDGE('',*,*,#758,.F.);
#812 = ORIENTED_EDGE('',*,*,#229,.T.);
#813 = ORIENTED_EDGE('',*,*,#814,.T.);
#814 = EDGE_CURVE('',#222,#389,#815,.T.);
#815 = LINE('',#816,#817);
#816 = CARTESIAN_POINT('',(0.3836827,3.1060233,-18.565646));
#817 = VECTOR('',#818,1.);
#818 = DIRECTION('',(0.,-1.,2.2E-16));
#819 = ORIENTED_EDGE('',*,*,#388,.T.);
#820 = PLANE('',#821);
#821 = AXIS2_PLACEMENT_3D('',#822,#823,#824);
#822 = CARTESIAN_POINT('',(0.3836827,0.973356150687,-13.24341285068));
#823 = DIRECTION('',(-1.,-0.,-0.));
#824 = DIRECTION('',(0.,0.,-1.));
#825 = ADVANCED_FACE('',(#826),#832,.T.);
#826 = FACE_BOUND('',#827,.T.);
#827 = EDGE_LOOP('',(#828,#829,#830,#831));
#828 = ORIENTED_EDGE('',*,*,#396,.T.);
#829 = ORIENTED_EDGE('',*,*,#814,.F.);
#830 = ORIENTED_EDGE('',*,*,#221,.T.);
#831 = ORIENTED_EDGE('',*,*,#780,.T.);
#832 = PLANE('',#833);
#833 = AXIS2_PLACEMENT_3D('',#834,#835,#836);
#834 = CARTESIAN_POINT('',(-1.12508635,3.,-18.565646));
#835 = DIRECTION('',(0.,0.,1.));
#836 = DIRECTION('',(1.,0.,0.));
#837 = ADVANCED_FACE('',(#838),#854,.T.);
#838 = FACE_BOUND('',#839,.T.);
#839 = EDGE_LOOP('',(#840,#841,#847,#848));
#840 = ORIENTED_EDGE('',*,*,#265,.F.);
#841 = ORIENTED_EDGE('',*,*,#842,.T.);
#842 = EDGE_CURVE('',#258,#473,#843,.T.);
#843 = LINE('',#844,#845);
#844 = CARTESIAN_POINT('',(-11.59999990463,4.,-3.05));
#845 = VECTOR('',#846,1.);
#846 = DIRECTION('',(0.,-1.,2.2E-16));
#847 = ORIENTED_EDGE('',*,*,#472,.F.);
#848 = ORIENTED_EDGE('',*,*,#849,.F.);
#849 = EDGE_CURVE('',#240,#464,#850,.T.);
#850 = LINE('',#851,#852);
#851 = CARTESIAN_POINT('',(-12.54137140417,4.,-3.882173086519));
#852 = VECTOR('',#853,1.);
#853 = DIRECTION('',(0.,-1.,2.2E-16));
#854 = PLANE('',#855);
#855 = AXIS2_PLACEMENT_3D('',#856,#857,#858);
#856 = CARTESIAN_POINT('',(-11.59999990463,4.,-3.05));
#857 = DIRECTION('',(0.662315493183,-1.7E-16,-0.749225057969));
#858 = DIRECTION('',(-0.749225057969,-1.5E-16,-0.662315493183));
#859 = ADVANCED_FACE('',(#860),#871,.T.);
#860 = FACE_BOUND('',#861,.T.);
#861 = EDGE_LOOP('',(#862,#863,#869,#870));
#862 = ORIENTED_EDGE('',*,*,#257,.F.);
#863 = ORIENTED_EDGE('',*,*,#864,.T.);
#864 = EDGE_CURVE('',#249,#453,#865,.T.);
#865 = LINE('',#866,#867);
#866 = CARTESIAN_POINT('',(-10.65862840509,4.,-3.882173086519));
#867 = VECTOR('',#868,1.);
#868 = DIRECTION('',(0.,-1.,2.2E-16));
#869 = ORIENTED_EDGE('',*,*,#480,.F.);
#870 = ORIENTED_EDGE('',*,*,#842,.F.);
#871 = PLANE('',#872);
#872 = AXIS2_PLACEMENT_3D('',#873,#874,#875);
#873 = CARTESIAN_POINT('',(-10.65862840509,4.,-3.882173086519));
#874 = DIRECTION('',(-0.662315493183,-1.7E-16,-0.749225057969));
#875 = DIRECTION('',(-0.749225057969,1.5E-16,0.662315493183));
#876 = ADVANCED_FACE('',(#877),#893,.F.);
#877 = FACE_BOUND('',#878,.F.);
#878 = EDGE_LOOP('',(#879,#880,#886,#887));
#879 = ORIENTED_EDGE('',*,*,#301,.F.);
#880 = ORIENTED_EDGE('',*,*,#881,.T.);
#881 = EDGE_CURVE('',#276,#500,#882,.T.);
#882 = LINE('',#883,#884);
#883 = CARTESIAN_POINT('',(10.658628500458,4.,-3.882173086519));
#884 = VECTOR('',#885,1.);
#885 = DIRECTION('',(0.,-1.,2.2E-16));
#886 = ORIENTED_EDGE('',*,*,#508,.F.);
#887 = ORIENTED_EDGE('',*,*,#888,.F.);
#888 = EDGE_CURVE('',#294,#509,#889,.T.);
#889 = LINE('',#890,#891);
#890 = CARTESIAN_POINT('',(11.6,4.,-3.05));
#891 = VECTOR('',#892,1.);
#892 = DIRECTION('',(0.,-1.,2.2E-16));
#893 = PLANE('',#894);
#894 = AXIS2_PLACEMENT_3D('',#895,#896,#897);
#895 = CARTESIAN_POINT('',(10.658628500458,4.,-3.882173086519));
#896 = DIRECTION('',(-0.662315493183,1.7E-16,0.749225057969));
#897 = DIRECTION('',(0.749225057969,1.5E-16,0.662315493183));
#898 = ADVANCED_FACE('',(#899),#910,.T.);
#899 = FACE_BOUND('',#900,.T.);
#900 = EDGE_LOOP('',(#901,#902,#908,#909));
#901 = ORIENTED_EDGE('',*,*,#293,.F.);
#902 = ORIENTED_EDGE('',*,*,#903,.T.);
#903 = EDGE_CURVE('',#285,#489,#904,.T.);
#904 = LINE('',#905,#906);
#905 = CARTESIAN_POINT('',(12.541371499542,4.,-3.882173086519));
#906 = VECTOR('',#907,1.);
#907 = DIRECTION('',(0.,-1.,2.2E-16));
#908 = ORIENTED_EDGE('',*,*,#516,.F.);
#909 = ORIENTED_EDGE('',*,*,#888,.F.);
#910 = PLANE('',#911);
#911 = AXIS2_PLACEMENT_3D('',#912,#913,#914);
#912 = CARTESIAN_POINT('',(12.541371499542,4.,-3.882173086519));
#913 = DIRECTION('',(-0.662315493183,-1.7E-16,-0.749225057969));
#914 = DIRECTION('',(-0.749225057969,1.5E-16,0.662315493183));
#915 = ADVANCED_FACE('',(#916),#927,.T.);
#916 = FACE_BOUND('',#917,.T.);
#917 = EDGE_LOOP('',(#918,#924,#925,#926));
#918 = ORIENTED_EDGE('',*,*,#919,.F.);
#919 = EDGE_CURVE('',#703,#550,#920,.T.);
#920 = LINE('',#921,#922);
#921 = CARTESIAN_POINT('',(17.,4.,-19.6));
#922 = VECTOR('',#923,1.);
#923 = DIRECTION('',(0.,-1.,0.));
#924 = ORIENTED_EDGE('',*,*,#712,.T.);
#925 = ORIENTED_EDGE('',*,*,#332,.T.);
#926 = ORIENTED_EDGE('',*,*,#557,.T.);
#927 = PLANE('',#928);
#928 = AXIS2_PLACEMENT_3D('',#929,#930,#931);
#929 = CARTESIAN_POINT('',(17.,-2.75,-6.05));
#930 = DIRECTION('',(1.,0.,0.));
#931 = DIRECTION('',(0.,0.,1.));
#932 = ADVANCED_FACE('',(#933),#951,.F.);
#933 = FACE_BOUND('',#934,.F.);
#934 = EDGE_LOOP('',(#935,#936,#937,#945));
#935 = ORIENTED_EDGE('',*,*,#436,.T.);
#936 = ORIENTED_EDGE('',*,*,#629,.T.);
#937 = ORIENTED_EDGE('',*,*,#938,.F.);
#938 = EDGE_CURVE('',#939,#630,#941,.T.);
#939 = VERTEX_POINT('',#940);
#940 = CARTESIAN_POINT('',(3.25,-2.2840174,-8.6));
#941 = LINE('',#942,#943);
#942 = CARTESIAN_POINT('',(3.25,-2.2840174,-9.3));
#943 = VECTOR('',#944,1.);
#944 = DIRECTION('',(-0.,-0.,-1.));
#945 = ORIENTED_EDGE('',*,*,#946,.F.);
#946 = EDGE_CURVE('',#429,#939,#947,.T.);
#947 = LINE('',#948,#949);
#948 = CARTESIAN_POINT('',(3.25,-4.8198597,-8.6));
#949 = VECTOR('',#950,1.);
#950 = DIRECTION('',(0.,-1.,0.));
#951 = PLANE('',#952);
#952 = AXIS2_PLACEMENT_3D('',#953,#954,#955);
#953 = CARTESIAN_POINT('',(3.25,-7.355702,0.));
#954 = DIRECTION('',(-1.,0.,0.));
#955 = DIRECTION('',(0.,1.,0.));
#956 = ADVANCED_FACE('',(#957),#968,.T.);
#957 = FACE_BOUND('',#958,.T.);
#958 = EDGE_LOOP('',(#959,#960,#961,#967));
#959 = ORIENTED_EDGE('',*,*,#428,.F.);
#960 = ORIENTED_EDGE('',*,*,#805,.T.);
#961 = ORIENTED_EDGE('',*,*,#962,.T.);
#962 = EDGE_CURVE('',#798,#939,#963,.T.);
#963 = LINE('',#964,#965);
#964 = CARTESIAN_POINT('',(3.1598187,-2.2840174,-8.6));
#965 = VECTOR('',#966,1.);
#966 = DIRECTION('',(1.,0.,0.));
#967 = ORIENTED_EDGE('',*,*,#946,.F.);
#968 = PLANE('',#969);
#969 = AXIS2_PLACEMENT_3D('',#970,#971,#972);
#970 = CARTESIAN_POINT('',(1.81684135,-0.1420087,-8.6));
#971 = DIRECTION('',(0.,-3.2E-16,1.));
#972 = DIRECTION('',(0.,1.,3.2E-16));
#973 = ADVANCED_FACE('',(#974),#984,.T.);
#974 = FACE_BOUND('',#975,.T.);
#975 = EDGE_LOOP('',(#976,#982,#983));
#976 = ORIENTED_EDGE('',*,*,#977,.F.);
#977 = EDGE_CURVE('',#550,#581,#978,.T.);
#978 = LINE('',#979,#980);
#979 = CARTESIAN_POINT('',(16.75,-8.5,-19.85));
#980 = VECTOR('',#981,1.);
#981 = DIRECTION('',(-0.707106781187,2.55E-15,-0.707106781187));
#982 = ORIENTED_EDGE('',*,*,#549,.T.);
#983 = ORIENTED_EDGE('',*,*,#588,.F.);
#984 = PLANE('',#985);
#985 = AXIS2_PLACEMENT_3D('',#986,#987,#988);
#986 = CARTESIAN_POINT('',(17.,-8.5,-19.6));
#987 = DIRECTION('',(0.57735026919,-0.57735026919,-0.57735026919));
#988 = DIRECTION('',(9.421150436413E-17,-0.707106781187,0.707106781187)
  );
#989 = ADVANCED_FACE('',(#990),#1000,.F.);
#990 = FACE_BOUND('',#991,.F.);
#991 = EDGE_LOOP('',(#992,#993,#994));
#992 = ORIENTED_EDGE('',*,*,#602,.F.);
#993 = ORIENTED_EDGE('',*,*,#572,.T.);
#994 = ORIENTED_EDGE('',*,*,#995,.F.);
#995 = EDGE_CURVE('',#603,#573,#996,.T.);
#996 = LINE('',#997,#998);
#997 = CARTESIAN_POINT('',(-16.5,-8.5,-20.1));
#998 = VECTOR('',#999,1.);
#999 = DIRECTION('',(0.707106781187,-3.E-17,-0.707106781187));
#1000 = PLANE('',#1001);
#1001 = AXIS2_PLACEMENT_3D('',#1002,#1003,#1004);
#1002 = CARTESIAN_POINT('',(-16.,-9.5,-19.6));
#1003 = DIRECTION('',(0.57735026919,0.57735026919,0.57735026919));
#1004 = DIRECTION('',(0.707106781187,1.10971635821E-17,-0.707106781187)
  );
#1005 = ADVANCED_FACE('',(#1006),#1022,.T.);
#1006 = FACE_BOUND('',#1007,.T.);
#1007 = EDGE_LOOP('',(#1008,#1014,#1015,#1021));
#1008 = ORIENTED_EDGE('',*,*,#1009,.T.);
#1009 = EDGE_CURVE('',#573,#727,#1010,.T.);
#1010 = LINE('',#1011,#1012);
#1011 = CARTESIAN_POINT('',(-16.,-9.5,-20.6));
#1012 = VECTOR('',#1013,1.);
#1013 = DIRECTION('',(0.,1.,0.));
#1014 = ORIENTED_EDGE('',*,*,#743,.T.);
#1015 = ORIENTED_EDGE('',*,*,#1016,.T.);
#1016 = EDGE_CURVE('',#736,#581,#1017,.T.);
#1017 = LINE('',#1018,#1019);
#1018 = CARTESIAN_POINT('',(16.,4.,-20.6));
#1019 = VECTOR('',#1020,1.);
#1020 = DIRECTION('',(0.,-1.,0.));
#1021 = ORIENTED_EDGE('',*,*,#580,.T.);
#1022 = PLANE('',#1023);
#1023 = AXIS2_PLACEMENT_3D('',#1024,#1025,#1026);
#1024 = CARTESIAN_POINT('',(-1.5E-16,-2.75,-20.6));
#1025 = DIRECTION('',(-0.,-0.,-1.));
#1026 = DIRECTION('',(-1.,0.,0.));
#1027 = ADVANCED_FACE('',(#1028),#1034,.T.);
#1028 = FACE_BOUND('',#1029,.T.);
#1029 = EDGE_LOOP('',(#1030,#1031,#1032,#1033));
#1030 = ORIENTED_EDGE('',*,*,#797,.F.);
#1031 = ORIENTED_EDGE('',*,*,#637,.T.);
#1032 = ORIENTED_EDGE('',*,*,#938,.F.);
#1033 = ORIENTED_EDGE('',*,*,#962,.F.);
#1034 = PLANE('',#1035);
#1035 = AXIS2_PLACEMENT_3D('',#1036,#1037,#1038);
#1036 = CARTESIAN_POINT('',(1.81684135,-2.2840174,-13.6));
#1037 = DIRECTION('',(-0.,-1.,-0.));
#1038 = DIRECTION('',(0.,0.,-1.));
#1039 = ADVANCED_FACE('',(#1040),#1051,.T.);
#1040 = FACE_BOUND('',#1041,.T.);
#1041 = EDGE_LOOP('',(#1042,#1043,#1049,#1050));
#1042 = ORIENTED_EDGE('',*,*,#669,.T.);
#1043 = ORIENTED_EDGE('',*,*,#1044,.F.);
#1044 = EDGE_CURVE('',#727,#662,#1045,.T.);
#1045 = LINE('',#1046,#1047);
#1046 = CARTESIAN_POINT('',(-16.25,3.,-20.35));
#1047 = VECTOR('',#1048,1.);
#1048 = DIRECTION('',(-0.707106781187,1.E-17,0.707106781187));
#1049 = ORIENTED_EDGE('',*,*,#1009,.F.);
#1050 = ORIENTED_EDGE('',*,*,#995,.F.);
#1051 = PLANE('',#1052);
#1052 = AXIS2_PLACEMENT_3D('',#1053,#1054,#1055);
#1053 = CARTESIAN_POINT('',(-16.5,-9.5,-20.1));
#1054 = DIRECTION('',(-0.707106781187,-0.,-0.707106781187));
#1055 = DIRECTION('',(0.,1.,0.));
#1056 = ADVANCED_FACE('',(#1057),#1062,.F.);
#1057 = FACE_BOUND('',#1058,.F.);
#1058 = EDGE_LOOP('',(#1059,#1060,#1061));
#1059 = ORIENTED_EDGE('',*,*,#1044,.F.);
#1060 = ORIENTED_EDGE('',*,*,#726,.T.);
#1061 = ORIENTED_EDGE('',*,*,#688,.F.);
#1062 = PLANE('',#1063);
#1063 = AXIS2_PLACEMENT_3D('',#1064,#1065,#1066);
#1064 = CARTESIAN_POINT('',(-16.,3.,-20.6));
#1065 = DIRECTION('',(0.57735026919,-0.57735026919,0.57735026919));
#1066 = DIRECTION('',(0.707106781187,0.707106781187,2.178123495191E-18)
  );
#1067 = ADVANCED_FACE('',(#1068),#1078,.F.);
#1068 = FACE_BOUND('',#1069,.F.);
#1069 = EDGE_LOOP('',(#1070,#1076,#1077));
#1070 = ORIENTED_EDGE('',*,*,#1071,.F.);
#1071 = EDGE_CURVE('',#703,#736,#1072,.T.);
#1072 = LINE('',#1073,#1074);
#1073 = CARTESIAN_POINT('',(16.75,3.,-19.85));
#1074 = VECTOR('',#1075,1.);
#1075 = DIRECTION('',(-0.707106781187,5.E-17,-0.707106781187));
#1076 = ORIENTED_EDGE('',*,*,#702,.T.);
#1077 = ORIENTED_EDGE('',*,*,#735,.F.);
#1078 = PLANE('',#1079);
#1079 = AXIS2_PLACEMENT_3D('',#1080,#1081,#1082);
#1080 = CARTESIAN_POINT('',(17.,3.,-19.6));
#1081 = DIRECTION('',(-0.57735026919,-0.57735026919,0.57735026919));
#1082 = DIRECTION('',(7.283047842002E-18,0.707106781187,0.707106781187)
  );
#1083 = ADVANCED_FACE('',(#1084),#1090,.T.);
#1084 = FACE_BOUND('',#1085,.T.);
#1085 = EDGE_LOOP('',(#1086,#1087,#1088,#1089));
#1086 = ORIENTED_EDGE('',*,*,#1071,.F.);
#1087 = ORIENTED_EDGE('',*,*,#919,.T.);
#1088 = ORIENTED_EDGE('',*,*,#977,.T.);
#1089 = ORIENTED_EDGE('',*,*,#1016,.F.);
#1090 = PLANE('',#1091);
#1091 = AXIS2_PLACEMENT_3D('',#1092,#1093,#1094);
#1092 = CARTESIAN_POINT('',(16.5,4.,-20.1));
#1093 = DIRECTION('',(0.707106781187,-1.E-17,-0.707106781187));
#1094 = DIRECTION('',(-7.071067811865E-18,-1.,7.071067811865E-18));
#1095 = ADVANCED_FACE('',(#1096),#1104,.F.);
#1096 = FACE_BOUND('',#1097,.F.);
#1097 = EDGE_LOOP('',(#1098,#1099,#1100,#1101,#1102,#1103));
#1098 = ORIENTED_EDGE('',*,*,#864,.T.);
#1099 = ORIENTED_EDGE('',*,*,#452,.T.);
#1100 = ORIENTED_EDGE('',*,*,#463,.T.);
#1101 = ORIENTED_EDGE('',*,*,#849,.F.);
#1102 = ORIENTED_EDGE('',*,*,#237,.F.);
#1103 = ORIENTED_EDGE('',*,*,#248,.F.);
#1104 = CYLINDRICAL_SURFACE('',#1105,1.5);
#1105 = AXIS2_PLACEMENT_3D('',#1106,#1107,#1108);
#1106 = CARTESIAN_POINT('',(-11.59999990463,4.,-5.05));
#1107 = DIRECTION('',(0.,1.,-2.2E-16));
#1108 = DIRECTION('',(-1.,0.,0.));
#1109 = ADVANCED_FACE('',(#1110),#1118,.F.);
#1110 = FACE_BOUND('',#1111,.F.);
#1111 = EDGE_LOOP('',(#1112,#1113,#1114,#1115,#1116,#1117));
#1112 = ORIENTED_EDGE('',*,*,#903,.T.);
#1113 = ORIENTED_EDGE('',*,*,#488,.T.);
#1114 = ORIENTED_EDGE('',*,*,#499,.T.);
#1115 = ORIENTED_EDGE('',*,*,#881,.F.);
#1116 = ORIENTED_EDGE('',*,*,#273,.F.);
#1117 = ORIENTED_EDGE('',*,*,#284,.F.);
#1118 = CYLINDRICAL_SURFACE('',#1119,1.5);
#1119 = AXIS2_PLACEMENT_3D('',#1120,#1121,#1122);
#1120 = CARTESIAN_POINT('',(11.6,4.,-5.05));
#1121 = DIRECTION('',(0.,1.,-2.2E-16));
#1122 = DIRECTION('',(-1.,0.,0.));
#1123 = ( GEOMETRIC_REPRESENTATION_CONTEXT(3) 
GLOBAL_UNCERTAINTY_ASSIGNED_CONTEXT((#1127)) 
GLOBAL_UNIT_ASSIGNED_CONTEXT((#1124,#1125,#1126)) REPRESENTATION_CONTEXT
('Context #1','3D Context with UNIT and UNCERTAINTY') );
#1124 = ( LENGTH_UNIT() NAMED_UNIT(*) SI_UNIT(.MILLI.,.METRE.) );
#1125 = ( NAMED_UNIT(*) PLANE_ANGLE_UNIT() SI_UNIT($,.RADIAN.) );
#1126 = ( NAMED_UNIT(*) SI_UNIT($,.STERADIAN.) SOLID_ANGLE_UNIT() );
#1127 = UNCERTAINTY_MEASURE_WITH_UNIT(LENGTH_MEASURE(1.E-05),#1124,
  'distance_accuracy_value','confusion accuracy');
#1128 = PRODUCT_RELATED_PRODUCT_CATEGORY('part',$,(#7));
#1129 = MECHANICAL_DESIGN_GEOMETRIC_PRESENTATION_REPRESENTATION('',(
    #1130),#1123);
#1130 = STYLED_ITEM('color',(#1131),#15);
#1131 = PRESENTATION_STYLE_ASSIGNMENT((#1132,#1138));
#1132 = SURFACE_STYLE_USAGE(.BOTH.,#1133);
#1133 = SURFACE_SIDE_STYLE('',(#1134));
#1134 = SURFACE_STYLE_FILL_AREA(#1135);
#1135 = FILL_AREA_STYLE('',(#1136));
#1136 = FILL_AREA_STYLE_COLOUR('',#1137);
#1137 = COLOUR_RGB('',0.678431390124,0.709803936702,0.741176476869);
#1138 = CURVE_STYLE('',#1139,POSITIVE_LENGTH_MEASURE(0.1),#1140);
#1139 = DRAUGHTING_PRE_DEFINED_CURVE_FONT('continuous');
#1140 = COLOUR_RGB('',9.803921802644E-02,9.803921802644E-02,
  9.803921802644E-02);
ENDSEC;
END-ISO-10303-21;
