ISO-10303-21;
HEADER;
FILE_DESCRIPTION(('FreeCAD Model'),'2;1');
FILE_NAME('Open CASCADE Shape Model','2026-05-07T10:01:54',(''),(''),
  'Open CASCADE STEP processor 7.8','FreeCAD','Unknown');
FILE_SCHEMA(('AUTOMOTIVE_DESIGN { 1 0 10303 214 1 1 1 1 }'));
ENDSEC;
DATA;
#1 = APPLICATION_PROTOCOL_DEFINITION('international standard',
  'automotive_design',2000,#2);
#2 = APPLICATION_CONTEXT(
  'core data for automotive mechanical design processes');
#3 = SHAPE_DEFINITION_REPRESENTATION(#4,#10);
#4 = PRODUCT_DEFINITION_SHAPE('','',#5);
#5 = PRODUCT_DEFINITION('design','',#6,#9);
#6 = PRODUCT_DEFINITION_FORMATION('','',#7);
#7 = PRODUCT('Body002','Body002','',(#8));
#8 = PRODUCT_CONTEXT('',#2,'mechanical');
#9 = PRODUCT_DEFINITION_CONTEXT('part definition',#2,'design');
#10 = ADVANCED_BREP_SHAPE_REPRESENTATION('',(#11,#15),#955);
#11 = AXIS2_PLACEMENT_3D('',#12,#13,#14);
#12 = CARTESIAN_POINT('',(0.,0.,0.));
#13 = DIRECTION('',(0.,0.,1.));
#14 = DIRECTION('',(1.,0.,-0.));
#15 = MANIFOLD_SOLID_BREP('',#16);
#16 = CLOSED_SHELL('',(#17,#92,#123,#189,#296,#338,#403,#468,#492,#516,
    #591,#633,#665,#712,#729,#751,#768,#785,#797,#814,#831,#853,#865,
    #877,#901,#928));
#17 = ADVANCED_FACE('',(#18),#87,.T.);
#18 = FACE_BOUND('',#19,.T.);
#19 = EDGE_LOOP('',(#20,#30,#38,#47,#56,#65,#73,#81));
#20 = ORIENTED_EDGE('',*,*,#21,.F.);
#21 = EDGE_CURVE('',#22,#24,#26,.T.);
#22 = VERTEX_POINT('',#23);
#23 = CARTESIAN_POINT('',(-15.,-13.011702,8.5));
#24 = VERTEX_POINT('',#25);
#25 = CARTESIAN_POINT('',(-15.,-7.5,8.5));
#26 = LINE('',#27,#28);
#27 = CARTESIAN_POINT('',(-15.,-9.5,8.5));
#28 = VECTOR('',#29,1.);
#29 = DIRECTION('',(0.,1.,0.));
#30 = ORIENTED_EDGE('',*,*,#31,.T.);
#31 = EDGE_CURVE('',#22,#32,#34,.T.);
#32 = VERTEX_POINT('',#33);
#33 = CARTESIAN_POINT('',(-8.371843297665,-21.0943113295,8.5));
#34 = LINE('',#35,#36);
#35 = CARTESIAN_POINT('',(-15.,-13.011702,8.5));
#36 = VECTOR('',#37,1.);
#37 = DIRECTION('',(0.634103444999,-0.773248227311,0.));
#38 = ORIENTED_EDGE('',*,*,#39,.T.);
#39 = EDGE_CURVE('',#32,#40,#42,.T.);
#40 = VERTEX_POINT('',#41);
#41 = CARTESIAN_POINT('',(-7.778873759098,-20.60804571141,8.5));
#42 = CIRCLE('',#43,0.495866218035);
#43 = AXIS2_PLACEMENT_3D('',#44,#45,#46);
#44 = CARTESIAN_POINT('',(-8.274739977133,-20.60804571141,8.5));
#45 = DIRECTION('',(0.,0.,1.));
#46 = DIRECTION('',(1.,0.,0.));
#47 = ORIENTED_EDGE('',*,*,#48,.F.);
#48 = EDGE_CURVE('',#49,#40,#51,.T.);
#49 = VERTEX_POINT('',#50);
#50 = CARTESIAN_POINT('',(7.778873759098,-20.60804571141,8.5));
#51 = CIRCLE('',#52,8.);
#52 = AXIS2_PLACEMENT_3D('',#53,#54,#55);
#53 = CARTESIAN_POINT('',(0.,-18.74012626989,8.5));
#54 = DIRECTION('',(0.,0.,1.));
#55 = DIRECTION('',(1.,0.,0.));
#56 = ORIENTED_EDGE('',*,*,#57,.T.);
#57 = EDGE_CURVE('',#49,#58,#60,.T.);
#58 = VERTEX_POINT('',#59);
#59 = CARTESIAN_POINT('',(8.371843297665,-21.0943113295,8.5));
#60 = CIRCLE('',#61,0.495866218035);
#61 = AXIS2_PLACEMENT_3D('',#62,#63,#64);
#62 = CARTESIAN_POINT('',(8.274739977133,-20.60804571141,8.5));
#63 = DIRECTION('',(0.,0.,1.));
#64 = DIRECTION('',(1.,0.,0.));
#65 = ORIENTED_EDGE('',*,*,#66,.T.);
#66 = EDGE_CURVE('',#58,#67,#69,.T.);
#67 = VERTEX_POINT('',#68);
#68 = CARTESIAN_POINT('',(15.,-13.011702,8.5));
#69 = LINE('',#70,#71);
#70 = CARTESIAN_POINT('',(6.625000215554,-23.2244737301,8.5));
#71 = VECTOR('',#72,1.);
#72 = DIRECTION('',(0.634103444999,0.773248227311,0.));
#73 = ORIENTED_EDGE('',*,*,#74,.F.);
#74 = EDGE_CURVE('',#75,#67,#77,.T.);
#75 = VERTEX_POINT('',#76);
#76 = CARTESIAN_POINT('',(15.,-7.5,8.5));
#77 = LINE('',#78,#79);
#78 = CARTESIAN_POINT('',(15.,-9.5,8.5));
#79 = VECTOR('',#80,1.);
#80 = DIRECTION('',(0.,-1.,2.2E-16));
#81 = ORIENTED_EDGE('',*,*,#82,.T.);
#82 = EDGE_CURVE('',#75,#24,#83,.T.);
#83 = LINE('',#84,#85);
#84 = CARTESIAN_POINT('',(15.,-7.5,8.5));
#85 = VECTOR('',#86,1.);
#86 = DIRECTION('',(-1.,0.,0.));
#87 = PLANE('',#88);
#88 = AXIS2_PLACEMENT_3D('',#89,#90,#91);
#89 = CARTESIAN_POINT('',(5.9E-16,-13.12215842375,8.5));
#90 = DIRECTION('',(0.,0.,1.));
#91 = DIRECTION('',(1.,0.,0.));
#92 = ADVANCED_FACE('',(#93),#118,.T.);
#93 = FACE_BOUND('',#94,.T.);
#94 = EDGE_LOOP('',(#95,#103,#104,#112));
#95 = ORIENTED_EDGE('',*,*,#96,.F.);
#96 = EDGE_CURVE('',#22,#97,#99,.T.);
#97 = VERTEX_POINT('',#98);
#98 = CARTESIAN_POINT('',(-15.,-13.011702,-18.6));
#99 = LINE('',#100,#101);
#100 = CARTESIAN_POINT('',(-15.,-13.011702,8.5));
#101 = VECTOR('',#102,1.);
#102 = DIRECTION('',(-0.,-0.,-1.));
#103 = ORIENTED_EDGE('',*,*,#21,.T.);
#104 = ORIENTED_EDGE('',*,*,#105,.T.);
#105 = EDGE_CURVE('',#24,#106,#108,.T.);
#106 = VERTEX_POINT('',#107);
#107 = CARTESIAN_POINT('',(-15.,-7.5,-18.6));
#108 = LINE('',#109,#110);
#109 = CARTESIAN_POINT('',(-15.,-7.5,8.5));
#110 = VECTOR('',#111,1.);
#111 = DIRECTION('',(0.,0.,-1.));
#112 = ORIENTED_EDGE('',*,*,#113,.F.);
#113 = EDGE_CURVE('',#97,#106,#114,.T.);
#114 = LINE('',#115,#116);
#115 = CARTESIAN_POINT('',(-15.,-9.5,-18.6));
#116 = VECTOR('',#117,1.);
#117 = DIRECTION('',(0.,1.,0.));
#118 = PLANE('',#119);
#119 = AXIS2_PLACEMENT_3D('',#120,#121,#122);
#120 = CARTESIAN_POINT('',(-15.,-10.255851,-5.05));
#121 = DIRECTION('',(-1.,-0.,-0.));
#122 = DIRECTION('',(0.,0.,-1.));
#123 = ADVANCED_FACE('',(#124),#184,.T.);
#124 = FACE_BOUND('',#125,.T.);
#125 = EDGE_LOOP('',(#126,#134,#142,#150,#159,#168,#177,#183));
#126 = ORIENTED_EDGE('',*,*,#127,.T.);
#127 = EDGE_CURVE('',#106,#128,#130,.T.);
#128 = VERTEX_POINT('',#129);
#129 = CARTESIAN_POINT('',(15.,-7.5,-18.6));
#130 = LINE('',#131,#132);
#131 = CARTESIAN_POINT('',(-15.,-7.5,-18.6));
#132 = VECTOR('',#133,1.);
#133 = DIRECTION('',(1.,0.,0.));
#134 = ORIENTED_EDGE('',*,*,#135,.T.);
#135 = EDGE_CURVE('',#128,#136,#138,.T.);
#136 = VERTEX_POINT('',#137);
#137 = CARTESIAN_POINT('',(15.,-13.011702,-18.6));
#138 = LINE('',#139,#140);
#139 = CARTESIAN_POINT('',(15.,-9.5,-18.6));
#140 = VECTOR('',#141,1.);
#141 = DIRECTION('',(0.,-1.,2.2E-16));
#142 = ORIENTED_EDGE('',*,*,#143,.F.);
#143 = EDGE_CURVE('',#144,#136,#146,.T.);
#144 = VERTEX_POINT('',#145);
#145 = CARTESIAN_POINT('',(8.371843297665,-21.0943113295,-18.6));
#146 = LINE('',#147,#148);
#147 = CARTESIAN_POINT('',(5.642120170338,-24.42303251198,-18.6));
#148 = VECTOR('',#149,1.);
#149 = DIRECTION('',(0.634103444999,0.773248227311,-1.7E-16));
#150 = ORIENTED_EDGE('',*,*,#151,.F.);
#151 = EDGE_CURVE('',#152,#144,#154,.T.);
#152 = VERTEX_POINT('',#153);
#153 = CARTESIAN_POINT('',(7.778873759098,-20.60804571141,-18.6));
#154 = CIRCLE('',#155,0.495866218035);
#155 = AXIS2_PLACEMENT_3D('',#156,#157,#158);
#156 = CARTESIAN_POINT('',(8.274739977133,-20.60804571141,-18.6));
#157 = DIRECTION('',(0.,0.,1.));
#158 = DIRECTION('',(1.,0.,0.));
#159 = ORIENTED_EDGE('',*,*,#160,.T.);
#160 = EDGE_CURVE('',#152,#161,#163,.T.);
#161 = VERTEX_POINT('',#162);
#162 = CARTESIAN_POINT('',(-7.778873759098,-20.60804571141,-18.6));
#163 = CIRCLE('',#164,8.);
#164 = AXIS2_PLACEMENT_3D('',#165,#166,#167);
#165 = CARTESIAN_POINT('',(0.,-18.74012626989,-18.6));
#166 = DIRECTION('',(0.,0.,1.));
#167 = DIRECTION('',(1.,0.,0.));
#168 = ORIENTED_EDGE('',*,*,#169,.F.);
#169 = EDGE_CURVE('',#170,#161,#172,.T.);
#170 = VERTEX_POINT('',#171);
#171 = CARTESIAN_POINT('',(-8.371843297665,-21.0943113295,-18.6));
#172 = CIRCLE('',#173,0.495866218035);
#173 = AXIS2_PLACEMENT_3D('',#174,#175,#176);
#174 = CARTESIAN_POINT('',(-8.274739977133,-20.60804571141,-18.6));
#175 = DIRECTION('',(0.,0.,1.));
#176 = DIRECTION('',(1.,0.,0.));
#177 = ORIENTED_EDGE('',*,*,#178,.F.);
#178 = EDGE_CURVE('',#97,#170,#179,.T.);
#179 = LINE('',#180,#181);
#180 = CARTESIAN_POINT('',(-15.86092774696,-11.96185617526,-18.6));
#181 = VECTOR('',#182,1.);
#182 = DIRECTION('',(0.634103444999,-0.773248227311,1.7E-16));
#183 = ORIENTED_EDGE('',*,*,#113,.T.);
#184 = PLANE('',#185);
#185 = AXIS2_PLACEMENT_3D('',#186,#187,#188);
#186 = CARTESIAN_POINT('',(-3.E-16,-13.12215842375,-18.6));
#187 = DIRECTION('',(-0.,-0.,-1.));
#188 = DIRECTION('',(-1.,0.,0.));
#189 = ADVANCED_FACE('',(#190,#201,#235,#246,#280),#291,.T.);
#190 = FACE_BOUND('',#191,.T.);
#191 = EDGE_LOOP('',(#192,#193,#199,#200));
#192 = ORIENTED_EDGE('',*,*,#82,.F.);
#193 = ORIENTED_EDGE('',*,*,#194,.F.);
#194 = EDGE_CURVE('',#128,#75,#195,.T.);
#195 = LINE('',#196,#197);
#196 = CARTESIAN_POINT('',(15.,-7.5,-18.6));
#197 = VECTOR('',#198,1.);
#198 = DIRECTION('',(0.,0.,1.));
#199 = ORIENTED_EDGE('',*,*,#127,.F.);
#200 = ORIENTED_EDGE('',*,*,#105,.F.);
#201 = FACE_BOUND('',#202,.T.);
#202 = EDGE_LOOP('',(#203,#213,#221,#229));
#203 = ORIENTED_EDGE('',*,*,#204,.F.);
#204 = EDGE_CURVE('',#205,#207,#209,.T.);
#205 = VERTEX_POINT('',#206);
#206 = CARTESIAN_POINT('',(-5.640880342642,-7.5,-9.6));
#207 = VERTEX_POINT('',#208);
#208 = CARTESIAN_POINT('',(5.640880342642,-7.5,-9.6));
#209 = LINE('',#210,#211);
#210 = CARTESIAN_POINT('',(-6.5E-16,-7.5,-9.6));
#211 = VECTOR('',#212,1.);
#212 = DIRECTION('',(1.,0.,0.));
#213 = ORIENTED_EDGE('',*,*,#214,.T.);
#214 = EDGE_CURVE('',#205,#215,#217,.T.);
#215 = VERTEX_POINT('',#216);
#216 = CARTESIAN_POINT('',(-5.640880342642,-7.5,-13.6));
#217 = LINE('',#218,#219);
#218 = CARTESIAN_POINT('',(-5.640880342642,-7.5,-13.6));
#219 = VECTOR('',#220,1.);
#220 = DIRECTION('',(0.,0.,-1.));
#221 = ORIENTED_EDGE('',*,*,#222,.T.);
#222 = EDGE_CURVE('',#215,#223,#225,.T.);
#223 = VERTEX_POINT('',#224);
#224 = CARTESIAN_POINT('',(5.640880342642,-7.5,-13.6));
#225 = LINE('',#226,#227);
#226 = CARTESIAN_POINT('',(-6.5E-16,-7.5,-13.6));
#227 = VECTOR('',#228,1.);
#228 = DIRECTION('',(1.,0.,0.));
#229 = ORIENTED_EDGE('',*,*,#230,.F.);
#230 = EDGE_CURVE('',#207,#223,#231,.T.);
#231 = LINE('',#232,#233);
#232 = CARTESIAN_POINT('',(5.640880342642,-7.5,-13.6));
#233 = VECTOR('',#234,1.);
#234 = DIRECTION('',(0.,0.,-1.));
#235 = FACE_BOUND('',#236,.T.);
#236 = EDGE_LOOP('',(#237));
#237 = ORIENTED_EDGE('',*,*,#238,.T.);
#238 = EDGE_CURVE('',#239,#239,#241,.T.);
#239 = VERTEX_POINT('',#240);
#240 = CARTESIAN_POINT('',(-9.599999904633,-7.5,-5.05));
#241 = CIRCLE('',#242,2.);
#242 = AXIS2_PLACEMENT_3D('',#243,#244,#245);
#243 = CARTESIAN_POINT('',(-11.59999990463,-7.5,-5.05));
#244 = DIRECTION('',(0.,-1.,0.));
#245 = DIRECTION('',(1.,0.,0.));
#246 = FACE_BOUND('',#247,.T.);
#247 = EDGE_LOOP('',(#248,#258,#266,#274));
#248 = ORIENTED_EDGE('',*,*,#249,.T.);
#249 = EDGE_CURVE('',#250,#252,#254,.T.);
#250 = VERTEX_POINT('',#251);
#251 = CARTESIAN_POINT('',(-5.640880342642,-7.5,-0.5));
#252 = VERTEX_POINT('',#253);
#253 = CARTESIAN_POINT('',(5.640880342642,-7.5,-0.5));
#254 = LINE('',#255,#256);
#255 = CARTESIAN_POINT('',(-3.8E-16,-7.5,-0.5));
#256 = VECTOR('',#257,1.);
#257 = DIRECTION('',(1.,0.,0.));
#258 = ORIENTED_EDGE('',*,*,#259,.T.);
#259 = EDGE_CURVE('',#252,#260,#262,.T.);
#260 = VERTEX_POINT('',#261);
#261 = CARTESIAN_POINT('',(5.640880342642,-7.5,3.5));
#262 = LINE('',#263,#264);
#263 = CARTESIAN_POINT('',(5.640880342642,-7.5,3.5));
#264 = VECTOR('',#265,1.);
#265 = DIRECTION('',(0.,0.,1.));
#266 = ORIENTED_EDGE('',*,*,#267,.F.);
#267 = EDGE_CURVE('',#268,#260,#270,.T.);
#268 = VERTEX_POINT('',#269);
#269 = CARTESIAN_POINT('',(-5.640880342642,-7.5,3.5));
#270 = LINE('',#271,#272);
#271 = CARTESIAN_POINT('',(-3.8E-16,-7.5,3.5));
#272 = VECTOR('',#273,1.);
#273 = DIRECTION('',(1.,0.,0.));
#274 = ORIENTED_EDGE('',*,*,#275,.F.);
#275 = EDGE_CURVE('',#250,#268,#276,.T.);
#276 = LINE('',#277,#278);
#277 = CARTESIAN_POINT('',(-5.640880342642,-7.5,3.5));
#278 = VECTOR('',#279,1.);
#279 = DIRECTION('',(0.,0.,1.));
#280 = FACE_BOUND('',#281,.T.);
#281 = EDGE_LOOP('',(#282));
#282 = ORIENTED_EDGE('',*,*,#283,.T.);
#283 = EDGE_CURVE('',#284,#284,#286,.T.);
#284 = VERTEX_POINT('',#285);
#285 = CARTESIAN_POINT('',(13.599999904633,-7.5,-5.05));
#286 = CIRCLE('',#287,2.);
#287 = AXIS2_PLACEMENT_3D('',#288,#289,#290);
#288 = CARTESIAN_POINT('',(11.599999904633,-7.5,-5.05));
#289 = DIRECTION('',(0.,-1.,0.));
#290 = DIRECTION('',(1.,0.,0.));
#291 = PLANE('',#292);
#292 = AXIS2_PLACEMENT_3D('',#293,#294,#295);
#293 = CARTESIAN_POINT('',(-3.7E-16,-7.5,-5.05));
#294 = DIRECTION('',(0.,1.,0.));
#295 = DIRECTION('',(0.,0.,1.));
#296 = ADVANCED_FACE('',(#297),#333,.F.);
#297 = FACE_BOUND('',#298,.F.);
#298 = EDGE_LOOP('',(#299,#310,#318,#327));
#299 = ORIENTED_EDGE('',*,*,#300,.F.);
#300 = EDGE_CURVE('',#301,#303,#305,.T.);
#301 = VERTEX_POINT('',#302);
#302 = CARTESIAN_POINT('',(-11.14646567861,-17.71083840493,-13.6));
#303 = VERTEX_POINT('',#304);
#304 = CARTESIAN_POINT('',(-5.640880342642,-9.5,-13.6));
#305 = CIRCLE('',#306,11.25);
#306 = AXIS2_PLACEMENT_3D('',#307,#308,#309);
#307 = CARTESIAN_POINT('',(0.,-19.2336,-13.6));
#308 = DIRECTION('',(0.,0.,-1.));
#309 = DIRECTION('',(1.,0.,0.));
#310 = ORIENTED_EDGE('',*,*,#311,.F.);
#311 = EDGE_CURVE('',#312,#301,#314,.T.);
#312 = VERTEX_POINT('',#313);
#313 = CARTESIAN_POINT('',(-11.14646567861,-17.71083840493,-9.6));
#314 = LINE('',#315,#316);
#315 = CARTESIAN_POINT('',(-11.14646567861,-17.71083840493,-13.6));
#316 = VECTOR('',#317,1.);
#317 = DIRECTION('',(0.,0.,-1.));
#318 = ORIENTED_EDGE('',*,*,#319,.T.);
#319 = EDGE_CURVE('',#312,#320,#322,.T.);
#320 = VERTEX_POINT('',#321);
#321 = CARTESIAN_POINT('',(-5.640880342642,-9.5,-9.6));
#322 = CIRCLE('',#323,11.25);
#323 = AXIS2_PLACEMENT_3D('',#324,#325,#326);
#324 = CARTESIAN_POINT('',(0.,-19.2336,-9.6));
#325 = DIRECTION('',(0.,0.,-1.));
#326 = DIRECTION('',(1.,0.,0.));
#327 = ORIENTED_EDGE('',*,*,#328,.T.);
#328 = EDGE_CURVE('',#320,#303,#329,.T.);
#329 = LINE('',#330,#331);
#330 = CARTESIAN_POINT('',(-5.640880342642,-9.5,-13.6));
#331 = VECTOR('',#332,1.);
#332 = DIRECTION('',(0.,0.,-1.));
#333 = CYLINDRICAL_SURFACE('',#334,11.25);
#334 = AXIS2_PLACEMENT_3D('',#335,#336,#337);
#335 = CARTESIAN_POINT('',(0.,-19.2336,-13.6));
#336 = DIRECTION('',(0.,0.,-1.));
#337 = DIRECTION('',(1.,0.,0.));
#338 = ADVANCED_FACE('',(#339),#398,.T.);
#339 = FACE_BOUND('',#340,.T.);
#340 = EDGE_LOOP('',(#341,#342,#348,#349,#357,#366,#374,#383,#392));
#341 = ORIENTED_EDGE('',*,*,#319,.T.);
#342 = ORIENTED_EDGE('',*,*,#343,.T.);
#343 = EDGE_CURVE('',#320,#205,#344,.T.);
#344 = LINE('',#345,#346);
#345 = CARTESIAN_POINT('',(-5.640880342642,-9.5,-9.6));
#346 = VECTOR('',#347,1.);
#347 = DIRECTION('',(0.,1.,0.));
#348 = ORIENTED_EDGE('',*,*,#204,.T.);
#349 = ORIENTED_EDGE('',*,*,#350,.F.);
#350 = EDGE_CURVE('',#351,#207,#353,.T.);
#351 = VERTEX_POINT('',#352);
#352 = CARTESIAN_POINT('',(5.640880342642,-9.5,-9.6));
#353 = LINE('',#354,#355);
#354 = CARTESIAN_POINT('',(5.640880342642,-9.5,-9.6));
#355 = VECTOR('',#356,1.);
#356 = DIRECTION('',(0.,1.,0.));
#357 = ORIENTED_EDGE('',*,*,#358,.T.);
#358 = EDGE_CURVE('',#351,#359,#361,.T.);
#359 = VERTEX_POINT('',#360);
#360 = CARTESIAN_POINT('',(11.146465678617,-17.71083840493,-9.6));
#361 = CIRCLE('',#362,11.25);
#362 = AXIS2_PLACEMENT_3D('',#363,#364,#365);
#363 = CARTESIAN_POINT('',(0.,-19.2336,-9.6));
#364 = DIRECTION('',(0.,0.,-1.));
#365 = DIRECTION('',(1.,0.,0.));
#366 = ORIENTED_EDGE('',*,*,#367,.T.);
#367 = EDGE_CURVE('',#359,#368,#370,.T.);
#368 = VERTEX_POINT('',#369);
#369 = CARTESIAN_POINT('',(9.486773578233,-19.73472580788,-9.6));
#370 = LINE('',#371,#372);
#371 = CARTESIAN_POINT('',(6.27148772804,-23.65555939358,-9.6));
#372 = VECTOR('',#373,1.);
#373 = DIRECTION('',(-0.634103444999,-0.773248227311,0.));
#374 = ORIENTED_EDGE('',*,*,#375,.F.);
#375 = EDGE_CURVE('',#376,#368,#378,.T.);
#376 = VERTEX_POINT('',#377);
#377 = CARTESIAN_POINT('',(9.5,-19.2336,-9.6));
#378 = CIRCLE('',#379,9.5);
#379 = AXIS2_PLACEMENT_3D('',#380,#381,#382);
#380 = CARTESIAN_POINT('',(0.,-19.2336,-9.6));
#381 = DIRECTION('',(0.,0.,-1.));
#382 = DIRECTION('',(1.,0.,0.));
#383 = ORIENTED_EDGE('',*,*,#384,.F.);
#384 = EDGE_CURVE('',#385,#376,#387,.T.);
#385 = VERTEX_POINT('',#386);
#386 = CARTESIAN_POINT('',(-9.486773578233,-19.73472580788,-9.6));
#387 = CIRCLE('',#388,9.5);
#388 = AXIS2_PLACEMENT_3D('',#389,#390,#391);
#389 = CARTESIAN_POINT('',(0.,-19.2336,-9.6));
#390 = DIRECTION('',(0.,0.,-1.));
#391 = DIRECTION('',(1.,0.,0.));
#392 = ORIENTED_EDGE('',*,*,#393,.T.);
#393 = EDGE_CURVE('',#385,#312,#394,.T.);
#394 = LINE('',#395,#396);
#395 = CARTESIAN_POINT('',(-10.45898762026,-18.54917352853,-9.6));
#396 = VECTOR('',#397,1.);
#397 = DIRECTION('',(-0.634103444999,0.773248227311,0.));
#398 = PLANE('',#399);
#399 = AXIS2_PLACEMENT_3D('',#400,#401,#402);
#400 = CARTESIAN_POINT('',(9.364465668293E-03,-12.75502420323,-9.6));
#401 = DIRECTION('',(-0.,-0.,-1.));
#402 = DIRECTION('',(-1.,0.,0.));
#403 = ADVANCED_FACE('',(#404),#463,.T.);
#404 = FACE_BOUND('',#405,.T.);
#405 = EDGE_LOOP('',(#406,#407,#415,#424,#433,#441,#450,#456,#457));
#406 = ORIENTED_EDGE('',*,*,#300,.F.);
#407 = ORIENTED_EDGE('',*,*,#408,.F.);
#408 = EDGE_CURVE('',#409,#301,#411,.T.);
#409 = VERTEX_POINT('',#410);
#410 = CARTESIAN_POINT('',(-9.486773578233,-19.73472580788,-13.6));
#411 = LINE('',#412,#413);
#412 = CARTESIAN_POINT('',(-10.45898762026,-18.54917352853,-13.6));
#413 = VECTOR('',#414,1.);
#414 = DIRECTION('',(-0.634103444999,0.773248227311,0.));
#415 = ORIENTED_EDGE('',*,*,#416,.T.);
#416 = EDGE_CURVE('',#409,#417,#419,.T.);
#417 = VERTEX_POINT('',#418);
#418 = CARTESIAN_POINT('',(9.5,-19.2336,-13.6));
#419 = CIRCLE('',#420,9.5);
#420 = AXIS2_PLACEMENT_3D('',#421,#422,#423);
#421 = CARTESIAN_POINT('',(0.,-19.2336,-13.6));
#422 = DIRECTION('',(0.,0.,-1.));
#423 = DIRECTION('',(1.,0.,0.));
#424 = ORIENTED_EDGE('',*,*,#425,.T.);
#425 = EDGE_CURVE('',#417,#426,#428,.T.);
#426 = VERTEX_POINT('',#427);
#427 = CARTESIAN_POINT('',(9.486773578233,-19.73472580788,-13.6));
#428 = CIRCLE('',#429,9.5);
#429 = AXIS2_PLACEMENT_3D('',#430,#431,#432);
#430 = CARTESIAN_POINT('',(0.,-19.2336,-13.6));
#431 = DIRECTION('',(0.,0.,-1.));
#432 = DIRECTION('',(1.,0.,0.));
#433 = ORIENTED_EDGE('',*,*,#434,.F.);
#434 = EDGE_CURVE('',#435,#426,#437,.T.);
#435 = VERTEX_POINT('',#436);
#436 = CARTESIAN_POINT('',(11.146465678617,-17.71083840493,-13.6));
#437 = LINE('',#438,#439);
#438 = CARTESIAN_POINT('',(6.27148772804,-23.65555939358,-13.6));
#439 = VECTOR('',#440,1.);
#440 = DIRECTION('',(-0.634103444999,-0.773248227311,0.));
#441 = ORIENTED_EDGE('',*,*,#442,.F.);
#442 = EDGE_CURVE('',#443,#435,#445,.T.);
#443 = VERTEX_POINT('',#444);
#444 = CARTESIAN_POINT('',(5.640880342642,-9.5,-13.6));
#445 = CIRCLE('',#446,11.25);
#446 = AXIS2_PLACEMENT_3D('',#447,#448,#449);
#447 = CARTESIAN_POINT('',(0.,-19.2336,-13.6));
#448 = DIRECTION('',(0.,0.,-1.));
#449 = DIRECTION('',(1.,0.,0.));
#450 = ORIENTED_EDGE('',*,*,#451,.T.);
#451 = EDGE_CURVE('',#443,#223,#452,.T.);
#452 = LINE('',#453,#454);
#453 = CARTESIAN_POINT('',(5.640880342642,-9.5,-13.6));
#454 = VECTOR('',#455,1.);
#455 = DIRECTION('',(0.,1.,0.));
#456 = ORIENTED_EDGE('',*,*,#222,.F.);
#457 = ORIENTED_EDGE('',*,*,#458,.F.);
#458 = EDGE_CURVE('',#303,#215,#459,.T.);
#459 = LINE('',#460,#461);
#460 = CARTESIAN_POINT('',(-5.640880342642,-9.5,-13.6));
#461 = VECTOR('',#462,1.);
#462 = DIRECTION('',(0.,1.,0.));
#463 = PLANE('',#464);
#464 = AXIS2_PLACEMENT_3D('',#465,#466,#467);
#465 = CARTESIAN_POINT('',(9.364465668293E-03,-12.75502420323,-13.6));
#466 = DIRECTION('',(0.,0.,1.));
#467 = DIRECTION('',(1.,0.,0.));
#468 = ADVANCED_FACE('',(#469),#487,.T.);
#469 = FACE_BOUND('',#470,.T.);
#470 = EDGE_LOOP('',(#471,#472,#478,#479,#480,#486));
#471 = ORIENTED_EDGE('',*,*,#375,.T.);
#472 = ORIENTED_EDGE('',*,*,#473,.T.);
#473 = EDGE_CURVE('',#368,#426,#474,.T.);
#474 = LINE('',#475,#476);
#475 = CARTESIAN_POINT('',(9.486773578233,-19.73472580788,-13.6));
#476 = VECTOR('',#477,1.);
#477 = DIRECTION('',(0.,0.,-1.));
#478 = ORIENTED_EDGE('',*,*,#425,.F.);
#479 = ORIENTED_EDGE('',*,*,#416,.F.);
#480 = ORIENTED_EDGE('',*,*,#481,.F.);
#481 = EDGE_CURVE('',#385,#409,#482,.T.);
#482 = LINE('',#483,#484);
#483 = CARTESIAN_POINT('',(-9.486773578233,-19.73472580788,-13.6));
#484 = VECTOR('',#485,1.);
#485 = DIRECTION('',(0.,0.,-1.));
#486 = ORIENTED_EDGE('',*,*,#384,.T.);
#487 = CYLINDRICAL_SURFACE('',#488,9.5);
#488 = AXIS2_PLACEMENT_3D('',#489,#490,#491);
#489 = CARTESIAN_POINT('',(0.,-19.2336,-13.6));
#490 = DIRECTION('',(0.,0.,-1.));
#491 = DIRECTION('',(1.,0.,0.));
#492 = ADVANCED_FACE('',(#493),#511,.F.);
#493 = FACE_BOUND('',#494,.T.);
#494 = EDGE_LOOP('',(#495,#504,#509,#510));
#495 = ORIENTED_EDGE('',*,*,#496,.T.);
#496 = EDGE_CURVE('',#497,#497,#499,.T.);
#497 = VERTEX_POINT('',#498);
#498 = CARTESIAN_POINT('',(-9.599999904633,-19.59665361026,-5.05));
#499 = ELLIPSE('',#500,3.154059508384,2.);
#500 = AXIS2_PLACEMENT_3D('',#501,#502,#503);
#501 = CARTESIAN_POINT('',(-11.59999990463,-17.15778268657,-5.05));
#502 = DIRECTION('',(-0.773248227311,-0.634103444999,1.557266786523E-32)
  );
#503 = DIRECTION('',(-0.634103444999,0.773248227311,-2.9E-16));
#504 = ORIENTED_EDGE('',*,*,#505,.T.);
#505 = EDGE_CURVE('',#497,#239,#506,.T.);
#506 = B_SPLINE_CURVE_WITH_KNOTS('',1,(#507,#508),.UNSPECIFIED.,.F.,.F.,
  (2,2),(-10.09665361026,2.),.PIECEWISE_BEZIER_KNOTS.);
#507 = CARTESIAN_POINT('',(-9.599999904633,-19.59665361026,-5.05));
#508 = CARTESIAN_POINT('',(-9.599999904633,-7.5,-5.05));
#509 = ORIENTED_EDGE('',*,*,#238,.F.);
#510 = ORIENTED_EDGE('',*,*,#505,.F.);
#511 = CYLINDRICAL_SURFACE('',#512,2.);
#512 = AXIS2_PLACEMENT_3D('',#513,#514,#515);
#513 = CARTESIAN_POINT('',(-11.59999990463,-9.5,-5.05));
#514 = DIRECTION('',(0.,1.,-2.2E-16));
#515 = DIRECTION('',(1.,0.,0.));
#516 = ADVANCED_FACE('',(#517),#586,.T.);
#517 = FACE_BOUND('',#518,.T.);
#518 = EDGE_LOOP('',(#519,#529,#538,#544,#545,#553,#562,#570,#579));
#519 = ORIENTED_EDGE('',*,*,#520,.F.);
#520 = EDGE_CURVE('',#521,#523,#525,.T.);
#521 = VERTEX_POINT('',#522);
#522 = CARTESIAN_POINT('',(11.146465678617,-17.71083840493,-0.5));
#523 = VERTEX_POINT('',#524);
#524 = CARTESIAN_POINT('',(9.486773578233,-19.73472580788,-0.5));
#525 = LINE('',#526,#527);
#526 = CARTESIAN_POINT('',(6.27148772804,-23.65555939358,-0.5));
#527 = VECTOR('',#528,1.);
#528 = DIRECTION('',(-0.634103444999,-0.773248227311,0.));
#529 = ORIENTED_EDGE('',*,*,#530,.T.);
#530 = EDGE_CURVE('',#521,#531,#533,.T.);
#531 = VERTEX_POINT('',#532);
#532 = CARTESIAN_POINT('',(5.640880342642,-9.5,-0.5));
#533 = CIRCLE('',#534,11.25);
#534 = AXIS2_PLACEMENT_3D('',#535,#536,#537);
#535 = CARTESIAN_POINT('',(0.,-19.2336,-0.5));
#536 = DIRECTION('',(0.,0.,1.));
#537 = DIRECTION('',(1.,0.,0.));
#538 = ORIENTED_EDGE('',*,*,#539,.T.);
#539 = EDGE_CURVE('',#531,#252,#540,.T.);
#540 = LINE('',#541,#542);
#541 = CARTESIAN_POINT('',(5.640880342642,-9.5,-0.5));
#542 = VECTOR('',#543,1.);
#543 = DIRECTION('',(0.,1.,0.));
#544 = ORIENTED_EDGE('',*,*,#249,.F.);
#545 = ORIENTED_EDGE('',*,*,#546,.F.);
#546 = EDGE_CURVE('',#547,#250,#549,.T.);
#547 = VERTEX_POINT('',#548);
#548 = CARTESIAN_POINT('',(-5.640880342642,-9.5,-0.5));
#549 = LINE('',#550,#551);
#550 = CARTESIAN_POINT('',(-5.640880342642,-9.5,-0.5));
#551 = VECTOR('',#552,1.);
#552 = DIRECTION('',(0.,1.,0.));
#553 = ORIENTED_EDGE('',*,*,#554,.T.);
#554 = EDGE_CURVE('',#547,#555,#557,.T.);
#555 = VERTEX_POINT('',#556);
#556 = CARTESIAN_POINT('',(-11.14646567861,-17.71083840493,-0.5));
#557 = CIRCLE('',#558,11.25);
#558 = AXIS2_PLACEMENT_3D('',#559,#560,#561);
#559 = CARTESIAN_POINT('',(0.,-19.2336,-0.5));
#560 = DIRECTION('',(0.,0.,1.));
#561 = DIRECTION('',(1.,0.,0.));
#562 = ORIENTED_EDGE('',*,*,#563,.F.);
#563 = EDGE_CURVE('',#564,#555,#566,.T.);
#564 = VERTEX_POINT('',#565);
#565 = CARTESIAN_POINT('',(-9.486773578233,-19.73472580788,-0.5));
#566 = LINE('',#567,#568);
#567 = CARTESIAN_POINT('',(-10.45898762026,-18.54917352853,-0.5));
#568 = VECTOR('',#569,1.);
#569 = DIRECTION('',(-0.634103444999,0.773248227311,0.));
#570 = ORIENTED_EDGE('',*,*,#571,.F.);
#571 = EDGE_CURVE('',#572,#564,#574,.T.);
#572 = VERTEX_POINT('',#573);
#573 = CARTESIAN_POINT('',(9.5,-19.2336,-0.5));
#574 = CIRCLE('',#575,9.5);
#575 = AXIS2_PLACEMENT_3D('',#576,#577,#578);
#576 = CARTESIAN_POINT('',(0.,-19.2336,-0.5));
#577 = DIRECTION('',(0.,0.,1.));
#578 = DIRECTION('',(1.,0.,0.));
#579 = ORIENTED_EDGE('',*,*,#580,.F.);
#580 = EDGE_CURVE('',#523,#572,#581,.T.);
#581 = CIRCLE('',#582,9.5);
#582 = AXIS2_PLACEMENT_3D('',#583,#584,#585);
#583 = CARTESIAN_POINT('',(0.,-19.2336,-0.5));
#584 = DIRECTION('',(0.,0.,1.));
#585 = DIRECTION('',(1.,0.,0.));
#586 = PLANE('',#587);
#587 = AXIS2_PLACEMENT_3D('',#588,#589,#590);
#588 = CARTESIAN_POINT('',(9.364465668298E-03,-12.75502420323,-0.5));
#589 = DIRECTION('',(0.,0.,1.));
#590 = DIRECTION('',(1.,0.,0.));
#591 = ADVANCED_FACE('',(#592),#628,.T.);
#592 = FACE_BOUND('',#593,.T.);
#593 = EDGE_LOOP('',(#594,#605,#611,#612,#613,#621));
#594 = ORIENTED_EDGE('',*,*,#595,.F.);
#595 = EDGE_CURVE('',#596,#598,#600,.T.);
#596 = VERTEX_POINT('',#597);
#597 = CARTESIAN_POINT('',(9.486773578233,-19.73472580788,3.5));
#598 = VERTEX_POINT('',#599);
#599 = CARTESIAN_POINT('',(9.5,-19.2336,3.5));
#600 = CIRCLE('',#601,9.5);
#601 = AXIS2_PLACEMENT_3D('',#602,#603,#604);
#602 = CARTESIAN_POINT('',(0.,-19.2336,3.5));
#603 = DIRECTION('',(0.,0.,1.));
#604 = DIRECTION('',(1.,0.,0.));
#605 = ORIENTED_EDGE('',*,*,#606,.F.);
#606 = EDGE_CURVE('',#523,#596,#607,.T.);
#607 = LINE('',#608,#609);
#608 = CARTESIAN_POINT('',(9.486773578233,-19.73472580788,3.5));
#609 = VECTOR('',#610,1.);
#610 = DIRECTION('',(0.,0.,1.));
#611 = ORIENTED_EDGE('',*,*,#580,.T.);
#612 = ORIENTED_EDGE('',*,*,#571,.T.);
#613 = ORIENTED_EDGE('',*,*,#614,.T.);
#614 = EDGE_CURVE('',#564,#615,#617,.T.);
#615 = VERTEX_POINT('',#616);
#616 = CARTESIAN_POINT('',(-9.486773578233,-19.73472580788,3.5));
#617 = LINE('',#618,#619);
#618 = CARTESIAN_POINT('',(-9.486773578233,-19.73472580788,3.5));
#619 = VECTOR('',#620,1.);
#620 = DIRECTION('',(0.,0.,1.));
#621 = ORIENTED_EDGE('',*,*,#622,.F.);
#622 = EDGE_CURVE('',#598,#615,#623,.T.);
#623 = CIRCLE('',#624,9.5);
#624 = AXIS2_PLACEMENT_3D('',#625,#626,#627);
#625 = CARTESIAN_POINT('',(0.,-19.2336,3.5));
#626 = DIRECTION('',(0.,0.,1.));
#627 = DIRECTION('',(1.,0.,0.));
#628 = CYLINDRICAL_SURFACE('',#629,9.5);
#629 = AXIS2_PLACEMENT_3D('',#630,#631,#632);
#630 = CARTESIAN_POINT('',(0.,-19.2336,3.5));
#631 = DIRECTION('',(0.,0.,1.));
#632 = DIRECTION('',(1.,0.,0.));
#633 = ADVANCED_FACE('',(#634),#660,.F.);
#634 = FACE_BOUND('',#635,.F.);
#635 = EDGE_LOOP('',(#636,#644,#653,#659));
#636 = ORIENTED_EDGE('',*,*,#637,.T.);
#637 = EDGE_CURVE('',#555,#638,#640,.T.);
#638 = VERTEX_POINT('',#639);
#639 = CARTESIAN_POINT('',(-11.14646567861,-17.71083840493,3.5));
#640 = LINE('',#641,#642);
#641 = CARTESIAN_POINT('',(-11.14646567861,-17.71083840493,3.5));
#642 = VECTOR('',#643,1.);
#643 = DIRECTION('',(0.,0.,1.));
#644 = ORIENTED_EDGE('',*,*,#645,.F.);
#645 = EDGE_CURVE('',#646,#638,#648,.T.);
#646 = VERTEX_POINT('',#647);
#647 = CARTESIAN_POINT('',(-5.640880342642,-9.5,3.5));
#648 = CIRCLE('',#649,11.25);
#649 = AXIS2_PLACEMENT_3D('',#650,#651,#652);
#650 = CARTESIAN_POINT('',(0.,-19.2336,3.5));
#651 = DIRECTION('',(0.,0.,1.));
#652 = DIRECTION('',(1.,0.,0.));
#653 = ORIENTED_EDGE('',*,*,#654,.F.);
#654 = EDGE_CURVE('',#547,#646,#655,.T.);
#655 = LINE('',#656,#657);
#656 = CARTESIAN_POINT('',(-5.640880342642,-9.5,3.5));
#657 = VECTOR('',#658,1.);
#658 = DIRECTION('',(0.,0.,1.));
#659 = ORIENTED_EDGE('',*,*,#554,.T.);
#660 = CYLINDRICAL_SURFACE('',#661,11.25);
#661 = AXIS2_PLACEMENT_3D('',#662,#663,#664);
#662 = CARTESIAN_POINT('',(0.,-19.2336,3.5));
#663 = DIRECTION('',(0.,0.,1.));
#664 = DIRECTION('',(1.,0.,0.));
#665 = ADVANCED_FACE('',(#666),#707,.T.);
#666 = FACE_BOUND('',#667,.T.);
#667 = EDGE_LOOP('',(#668,#676,#677,#678,#684,#685,#691,#692,#700));
#668 = ORIENTED_EDGE('',*,*,#669,.T.);
#669 = EDGE_CURVE('',#670,#596,#672,.T.);
#670 = VERTEX_POINT('',#671);
#671 = CARTESIAN_POINT('',(11.146465678617,-17.71083840493,3.5));
#672 = LINE('',#673,#674);
#673 = CARTESIAN_POINT('',(6.27148772804,-23.65555939358,3.5));
#674 = VECTOR('',#675,1.);
#675 = DIRECTION('',(-0.634103444999,-0.773248227311,0.));
#676 = ORIENTED_EDGE('',*,*,#595,.T.);
#677 = ORIENTED_EDGE('',*,*,#622,.T.);
#678 = ORIENTED_EDGE('',*,*,#679,.T.);
#679 = EDGE_CURVE('',#615,#638,#680,.T.);
#680 = LINE('',#681,#682);
#681 = CARTESIAN_POINT('',(-10.45898762026,-18.54917352853,3.5));
#682 = VECTOR('',#683,1.);
#683 = DIRECTION('',(-0.634103444999,0.773248227311,0.));
#684 = ORIENTED_EDGE('',*,*,#645,.F.);
#685 = ORIENTED_EDGE('',*,*,#686,.T.);
#686 = EDGE_CURVE('',#646,#268,#687,.T.);
#687 = LINE('',#688,#689);
#688 = CARTESIAN_POINT('',(-5.640880342642,-9.5,3.5));
#689 = VECTOR('',#690,1.);
#690 = DIRECTION('',(0.,1.,0.));
#691 = ORIENTED_EDGE('',*,*,#267,.T.);
#692 = ORIENTED_EDGE('',*,*,#693,.F.);
#693 = EDGE_CURVE('',#694,#260,#696,.T.);
#694 = VERTEX_POINT('',#695);
#695 = CARTESIAN_POINT('',(5.640880342642,-9.5,3.5));
#696 = LINE('',#697,#698);
#697 = CARTESIAN_POINT('',(5.640880342642,-9.5,3.5));
#698 = VECTOR('',#699,1.);
#699 = DIRECTION('',(0.,1.,0.));
#700 = ORIENTED_EDGE('',*,*,#701,.F.);
#701 = EDGE_CURVE('',#670,#694,#702,.T.);
#702 = CIRCLE('',#703,11.25);
#703 = AXIS2_PLACEMENT_3D('',#704,#705,#706);
#704 = CARTESIAN_POINT('',(0.,-19.2336,3.5));
#705 = DIRECTION('',(0.,0.,1.));
#706 = DIRECTION('',(1.,0.,0.));
#707 = PLANE('',#708);
#708 = AXIS2_PLACEMENT_3D('',#709,#710,#711);
#709 = CARTESIAN_POINT('',(9.364465668298E-03,-12.75502420323,3.5));
#710 = DIRECTION('',(-0.,-0.,-1.));
#711 = DIRECTION('',(-1.,0.,0.));
#712 = ADVANCED_FACE('',(#713),#724,.T.);
#713 = FACE_BOUND('',#714,.T.);
#714 = EDGE_LOOP('',(#715,#716,#722,#723));
#715 = ORIENTED_EDGE('',*,*,#74,.T.);
#716 = ORIENTED_EDGE('',*,*,#717,.T.);
#717 = EDGE_CURVE('',#67,#136,#718,.T.);
#718 = LINE('',#719,#720);
#719 = CARTESIAN_POINT('',(15.,-13.011702,8.5));
#720 = VECTOR('',#721,1.);
#721 = DIRECTION('',(-0.,-0.,-1.));
#722 = ORIENTED_EDGE('',*,*,#135,.F.);
#723 = ORIENTED_EDGE('',*,*,#194,.T.);
#724 = PLANE('',#725);
#725 = AXIS2_PLACEMENT_3D('',#726,#727,#728);
#726 = CARTESIAN_POINT('',(15.,-10.255851,-5.05));
#727 = DIRECTION('',(1.,-2.9E-16,0.));
#728 = DIRECTION('',(2.9E-16,1.,0.));
#729 = ADVANCED_FACE('',(#730),#746,.T.);
#730 = FACE_BOUND('',#731,.T.);
#731 = EDGE_LOOP('',(#732,#733,#739,#740));
#732 = ORIENTED_EDGE('',*,*,#57,.F.);
#733 = ORIENTED_EDGE('',*,*,#734,.T.);
#734 = EDGE_CURVE('',#49,#152,#735,.T.);
#735 = LINE('',#736,#737);
#736 = CARTESIAN_POINT('',(7.778873759098,-20.60804571141,8.5));
#737 = VECTOR('',#738,1.);
#738 = DIRECTION('',(-0.,-0.,-1.));
#739 = ORIENTED_EDGE('',*,*,#151,.T.);
#740 = ORIENTED_EDGE('',*,*,#741,.T.);
#741 = EDGE_CURVE('',#144,#58,#742,.T.);
#742 = LINE('',#743,#744);
#743 = CARTESIAN_POINT('',(8.371843297665,-21.0943113295,8.5));
#744 = VECTOR('',#745,1.);
#745 = DIRECTION('',(0.,0.,1.));
#746 = CYLINDRICAL_SURFACE('',#747,0.495866218035);
#747 = AXIS2_PLACEMENT_3D('',#748,#749,#750);
#748 = CARTESIAN_POINT('',(8.274739977133,-20.60804571141,8.5));
#749 = DIRECTION('',(0.,0.,1.));
#750 = DIRECTION('',(1.,0.,0.));
#751 = ADVANCED_FACE('',(#752),#763,.F.);
#752 = FACE_BOUND('',#753,.F.);
#753 = EDGE_LOOP('',(#754,#755,#756,#757));
#754 = ORIENTED_EDGE('',*,*,#48,.F.);
#755 = ORIENTED_EDGE('',*,*,#734,.T.);
#756 = ORIENTED_EDGE('',*,*,#160,.T.);
#757 = ORIENTED_EDGE('',*,*,#758,.F.);
#758 = EDGE_CURVE('',#40,#161,#759,.T.);
#759 = LINE('',#760,#761);
#760 = CARTESIAN_POINT('',(-7.778873759098,-20.60804571141,8.5));
#761 = VECTOR('',#762,1.);
#762 = DIRECTION('',(-0.,-0.,-1.));
#763 = CYLINDRICAL_SURFACE('',#764,8.);
#764 = AXIS2_PLACEMENT_3D('',#765,#766,#767);
#765 = CARTESIAN_POINT('',(0.,-18.74012626989,8.5));
#766 = DIRECTION('',(0.,0.,1.));
#767 = DIRECTION('',(1.,0.,0.));
#768 = ADVANCED_FACE('',(#769),#780,.T.);
#769 = FACE_BOUND('',#770,.T.);
#770 = EDGE_LOOP('',(#771,#772,#778,#779));
#771 = ORIENTED_EDGE('',*,*,#39,.F.);
#772 = ORIENTED_EDGE('',*,*,#773,.F.);
#773 = EDGE_CURVE('',#170,#32,#774,.T.);
#774 = LINE('',#775,#776);
#775 = CARTESIAN_POINT('',(-8.371843297665,-21.0943113295,8.5));
#776 = VECTOR('',#777,1.);
#777 = DIRECTION('',(0.,0.,1.));
#778 = ORIENTED_EDGE('',*,*,#169,.T.);
#779 = ORIENTED_EDGE('',*,*,#758,.F.);
#780 = CYLINDRICAL_SURFACE('',#781,0.495866218035);
#781 = AXIS2_PLACEMENT_3D('',#782,#783,#784);
#782 = CARTESIAN_POINT('',(-8.274739977133,-20.60804571141,8.5));
#783 = DIRECTION('',(0.,0.,1.));
#784 = DIRECTION('',(1.,0.,0.));
#785 = ADVANCED_FACE('',(#786),#792,.F.);
#786 = FACE_BOUND('',#787,.F.);
#787 = EDGE_LOOP('',(#788,#789,#790,#791));
#788 = ORIENTED_EDGE('',*,*,#343,.T.);
#789 = ORIENTED_EDGE('',*,*,#214,.T.);
#790 = ORIENTED_EDGE('',*,*,#458,.F.);
#791 = ORIENTED_EDGE('',*,*,#328,.F.);
#792 = PLANE('',#793);
#793 = AXIS2_PLACEMENT_3D('',#794,#795,#796);
#794 = CARTESIAN_POINT('',(-5.640880342642,-9.5,-9.6));
#795 = DIRECTION('',(-1.,0.,0.));
#796 = DIRECTION('',(0.,0.,-1.));
#797 = ADVANCED_FACE('',(#798),#809,.T.);
#798 = FACE_BOUND('',#799,.T.);
#799 = EDGE_LOOP('',(#800,#801,#802,#803));
#800 = ORIENTED_EDGE('',*,*,#350,.T.);
#801 = ORIENTED_EDGE('',*,*,#230,.T.);
#802 = ORIENTED_EDGE('',*,*,#451,.F.);
#803 = ORIENTED_EDGE('',*,*,#804,.F.);
#804 = EDGE_CURVE('',#351,#443,#805,.T.);
#805 = LINE('',#806,#807);
#806 = CARTESIAN_POINT('',(5.640880342642,-9.5,-13.6));
#807 = VECTOR('',#808,1.);
#808 = DIRECTION('',(0.,0.,-1.));
#809 = PLANE('',#810);
#810 = AXIS2_PLACEMENT_3D('',#811,#812,#813);
#811 = CARTESIAN_POINT('',(5.640880342642,-9.5,-9.6));
#812 = DIRECTION('',(-1.,0.,0.));
#813 = DIRECTION('',(0.,0.,-1.));
#814 = ADVANCED_FACE('',(#815),#826,.F.);
#815 = FACE_BOUND('',#816,.F.);
#816 = EDGE_LOOP('',(#817,#823,#824,#825));
#817 = ORIENTED_EDGE('',*,*,#818,.T.);
#818 = EDGE_CURVE('',#359,#435,#819,.T.);
#819 = LINE('',#820,#821);
#820 = CARTESIAN_POINT('',(11.146465678617,-17.71083840493,-13.6));
#821 = VECTOR('',#822,1.);
#822 = DIRECTION('',(0.,0.,-1.));
#823 = ORIENTED_EDGE('',*,*,#442,.F.);
#824 = ORIENTED_EDGE('',*,*,#804,.F.);
#825 = ORIENTED_EDGE('',*,*,#358,.T.);
#826 = CYLINDRICAL_SURFACE('',#827,11.25);
#827 = AXIS2_PLACEMENT_3D('',#828,#829,#830);
#828 = CARTESIAN_POINT('',(0.,-19.2336,-13.6));
#829 = DIRECTION('',(0.,0.,-1.));
#830 = DIRECTION('',(1.,0.,0.));
#831 = ADVANCED_FACE('',(#832),#848,.F.);
#832 = FACE_BOUND('',#833,.F.);
#833 = EDGE_LOOP('',(#834,#835,#841,#842));
#834 = ORIENTED_EDGE('',*,*,#701,.F.);
#835 = ORIENTED_EDGE('',*,*,#836,.F.);
#836 = EDGE_CURVE('',#521,#670,#837,.T.);
#837 = LINE('',#838,#839);
#838 = CARTESIAN_POINT('',(11.146465678617,-17.71083840493,3.5));
#839 = VECTOR('',#840,1.);
#840 = DIRECTION('',(0.,0.,1.));
#841 = ORIENTED_EDGE('',*,*,#530,.T.);
#842 = ORIENTED_EDGE('',*,*,#843,.T.);
#843 = EDGE_CURVE('',#531,#694,#844,.T.);
#844 = LINE('',#845,#846);
#845 = CARTESIAN_POINT('',(5.640880342642,-9.5,3.5));
#846 = VECTOR('',#847,1.);
#847 = DIRECTION('',(0.,0.,1.));
#848 = CYLINDRICAL_SURFACE('',#849,11.25);
#849 = AXIS2_PLACEMENT_3D('',#850,#851,#852);
#850 = CARTESIAN_POINT('',(0.,-19.2336,3.5));
#851 = DIRECTION('',(0.,0.,1.));
#852 = DIRECTION('',(1.,0.,0.));
#853 = ADVANCED_FACE('',(#854),#860,.F.);
#854 = FACE_BOUND('',#855,.F.);
#855 = EDGE_LOOP('',(#856,#857,#858,#859));
#856 = ORIENTED_EDGE('',*,*,#539,.T.);
#857 = ORIENTED_EDGE('',*,*,#259,.T.);
#858 = ORIENTED_EDGE('',*,*,#693,.F.);
#859 = ORIENTED_EDGE('',*,*,#843,.F.);
#860 = PLANE('',#861);
#861 = AXIS2_PLACEMENT_3D('',#862,#863,#864);
#862 = CARTESIAN_POINT('',(5.640880342642,-9.5,-0.5));
#863 = DIRECTION('',(1.,0.,0.));
#864 = DIRECTION('',(0.,0.,1.));
#865 = ADVANCED_FACE('',(#866),#872,.T.);
#866 = FACE_BOUND('',#867,.T.);
#867 = EDGE_LOOP('',(#868,#869,#870,#871));
#868 = ORIENTED_EDGE('',*,*,#546,.T.);
#869 = ORIENTED_EDGE('',*,*,#275,.T.);
#870 = ORIENTED_EDGE('',*,*,#686,.F.);
#871 = ORIENTED_EDGE('',*,*,#654,.F.);
#872 = PLANE('',#873);
#873 = AXIS2_PLACEMENT_3D('',#874,#875,#876);
#874 = CARTESIAN_POINT('',(-5.640880342642,-9.5,-0.5));
#875 = DIRECTION('',(1.,0.,0.));
#876 = DIRECTION('',(0.,0.,1.));
#877 = ADVANCED_FACE('',(#878),#896,.F.);
#878 = FACE_BOUND('',#879,.T.);
#879 = EDGE_LOOP('',(#880,#889,#894,#895));
#880 = ORIENTED_EDGE('',*,*,#881,.T.);
#881 = EDGE_CURVE('',#882,#882,#884,.T.);
#882 = VERTEX_POINT('',#883);
#883 = CARTESIAN_POINT('',(13.599999904633,-14.71891176287,-5.05));
#884 = ELLIPSE('',#885,3.154059508384,2.);
#885 = AXIS2_PLACEMENT_3D('',#886,#887,#888);
#886 = CARTESIAN_POINT('',(11.599999904633,-17.15778268657,-5.05));
#887 = DIRECTION('',(0.773248227311,-0.634103444999,9.692732444174E-33)
  );
#888 = DIRECTION('',(0.634103444999,0.773248227311,-2.9E-16));
#889 = ORIENTED_EDGE('',*,*,#890,.T.);
#890 = EDGE_CURVE('',#882,#284,#891,.T.);
#891 = B_SPLINE_CURVE_WITH_KNOTS('',1,(#892,#893),.UNSPECIFIED.,.F.,.F.,
  (2,2),(-5.218911762879,2.),.PIECEWISE_BEZIER_KNOTS.);
#892 = CARTESIAN_POINT('',(13.599999904633,-14.71891176287,-5.05));
#893 = CARTESIAN_POINT('',(13.599999904633,-7.5,-5.05));
#894 = ORIENTED_EDGE('',*,*,#283,.F.);
#895 = ORIENTED_EDGE('',*,*,#890,.F.);
#896 = CYLINDRICAL_SURFACE('',#897,2.);
#897 = AXIS2_PLACEMENT_3D('',#898,#899,#900);
#898 = CARTESIAN_POINT('',(11.599999904633,-9.5,-5.05));
#899 = DIRECTION('',(0.,1.,-2.2E-16));
#900 = DIRECTION('',(1.,0.,0.));
#901 = ADVANCED_FACE('',(#902,#908,#911,#917),#923,.T.);
#902 = FACE_BOUND('',#903,.T.);
#903 = EDGE_LOOP('',(#904,#905,#906,#907));
#904 = ORIENTED_EDGE('',*,*,#31,.F.);
#905 = ORIENTED_EDGE('',*,*,#96,.T.);
#906 = ORIENTED_EDGE('',*,*,#178,.T.);
#907 = ORIENTED_EDGE('',*,*,#773,.T.);
#908 = FACE_BOUND('',#909,.T.);
#909 = EDGE_LOOP('',(#910));
#910 = ORIENTED_EDGE('',*,*,#496,.F.);
#911 = FACE_BOUND('',#912,.T.);
#912 = EDGE_LOOP('',(#913,#914,#915,#916));
#913 = ORIENTED_EDGE('',*,*,#311,.F.);
#914 = ORIENTED_EDGE('',*,*,#393,.F.);
#915 = ORIENTED_EDGE('',*,*,#481,.T.);
#916 = ORIENTED_EDGE('',*,*,#408,.T.);
#917 = FACE_BOUND('',#918,.T.);
#918 = EDGE_LOOP('',(#919,#920,#921,#922));
#919 = ORIENTED_EDGE('',*,*,#563,.T.);
#920 = ORIENTED_EDGE('',*,*,#637,.T.);
#921 = ORIENTED_EDGE('',*,*,#679,.F.);
#922 = ORIENTED_EDGE('',*,*,#614,.F.);
#923 = PLANE('',#924);
#924 = AXIS2_PLACEMENT_3D('',#925,#926,#927);
#925 = CARTESIAN_POINT('',(-11.68592164883,-17.05300666475,-5.05));
#926 = DIRECTION('',(-0.773248227311,-0.634103444999,-0.));
#927 = DIRECTION('',(0.634103444999,-0.773248227311,0.));
#928 = ADVANCED_FACE('',(#929,#935,#938,#944),#950,.T.);
#929 = FACE_BOUND('',#930,.T.);
#930 = EDGE_LOOP('',(#931,#932,#933,#934));
#931 = ORIENTED_EDGE('',*,*,#66,.F.);
#932 = ORIENTED_EDGE('',*,*,#741,.F.);
#933 = ORIENTED_EDGE('',*,*,#143,.T.);
#934 = ORIENTED_EDGE('',*,*,#717,.F.);
#935 = FACE_BOUND('',#936,.T.);
#936 = EDGE_LOOP('',(#937));
#937 = ORIENTED_EDGE('',*,*,#881,.F.);
#938 = FACE_BOUND('',#939,.T.);
#939 = EDGE_LOOP('',(#940,#941,#942,#943));
#940 = ORIENTED_EDGE('',*,*,#836,.F.);
#941 = ORIENTED_EDGE('',*,*,#520,.T.);
#942 = ORIENTED_EDGE('',*,*,#606,.T.);
#943 = ORIENTED_EDGE('',*,*,#669,.F.);
#944 = FACE_BOUND('',#945,.T.);
#945 = EDGE_LOOP('',(#946,#947,#948,#949));
#946 = ORIENTED_EDGE('',*,*,#367,.F.);
#947 = ORIENTED_EDGE('',*,*,#818,.T.);
#948 = ORIENTED_EDGE('',*,*,#434,.T.);
#949 = ORIENTED_EDGE('',*,*,#473,.F.);
#950 = PLANE('',#951);
#951 = AXIS2_PLACEMENT_3D('',#952,#953,#954);
#952 = CARTESIAN_POINT('',(11.685921648832,-17.05300666475,-5.05));
#953 = DIRECTION('',(0.773248227311,-0.634103444999,0.));
#954 = DIRECTION('',(0.634103444999,0.773248227311,0.));
#955 = ( GEOMETRIC_REPRESENTATION_CONTEXT(3) 
GLOBAL_UNCERTAINTY_ASSIGNED_CONTEXT((#959)) GLOBAL_UNIT_ASSIGNED_CONTEXT
((#956,#957,#958)) REPRESENTATION_CONTEXT('Context #1',
  '3D Context with UNIT and UNCERTAINTY') );
#956 = ( LENGTH_UNIT() NAMED_UNIT(*) SI_UNIT(.MILLI.,.METRE.) );
#957 = ( NAMED_UNIT(*) PLANE_ANGLE_UNIT() SI_UNIT($,.RADIAN.) );
#958 = ( NAMED_UNIT(*) SI_UNIT($,.STERADIAN.) SOLID_ANGLE_UNIT() );
#959 = UNCERTAINTY_MEASURE_WITH_UNIT(LENGTH_MEASURE(5.E-05),#956,
  'distance_accuracy_value','confusion accuracy');
#960 = PRODUCT_RELATED_PRODUCT_CATEGORY('part',$,(#7));
#961 = MECHANICAL_DESIGN_GEOMETRIC_PRESENTATION_REPRESENTATION('',(#962)
  ,#955);
#962 = STYLED_ITEM('color',(#963),#15);
#963 = PRESENTATION_STYLE_ASSIGNMENT((#964,#970));
#964 = SURFACE_STYLE_USAGE(.BOTH.,#965);
#965 = SURFACE_SIDE_STYLE('',(#966));
#966 = SURFACE_STYLE_FILL_AREA(#967);
#967 = FILL_AREA_STYLE('',(#968));
#968 = FILL_AREA_STYLE_COLOUR('',#969);
#969 = COLOUR_RGB('',0.678431390124,0.709803936702,0.741176476869);
#970 = CURVE_STYLE('',#971,POSITIVE_LENGTH_MEASURE(0.1),#972);
#971 = DRAUGHTING_PRE_DEFINED_CURVE_FONT('continuous');
#972 = COLOUR_RGB('',9.803921802644E-02,9.803921802644E-02,
  9.803921802644E-02);
ENDSEC;
END-ISO-10303-21;
